<svg width="69" height="89" viewBox="0 0 69 89" fill="none" xmlns="http://www.w3.org/2000/svg">
<path d="M68.4038 37.8C68.8037 42 68.8037 46.4 68.8037 51.6C68.8037 55.6 68.8037 60.4 68.6038 65C68.6038 66 68.6038 67 68.4038 67.8V69C68.0038 72.6 67.6038 77.2 66.8037 81.8C66.6038 82.4 66.6038 83 66.4037 83.4L66.2038 84.2L65.8037 86.2L63.8037 86.4C63.4037 86.6 62.8037 86.6 62.2037 86.6C61.4037 86.6 60.8037 86.6 60.2037 86.4H58.8037C57.6037 86.4 56.4037 86.4 55.4037 86.2H54.0037H53.4037H49.6037C48.6037 86 47.6037 86 46.4037 86H45.0037L42.4037 85.8V85C39.8037 86.2 37.0037 87 34.8037 87.8C31.8037 88.6 28.8037 89 25.2037 89H22.2037C18.0037 88.6 14.6037 86.8 12.0037 85.2C7.00374 82 3.40374 77.2 1.40374 70.4C-0.596256 64.2 -0.396256 57.8 1.60374 51.4C5.60374 39.8 13.4037 31.8 25.0037 27.6C28.0037 26.4 31.2037 26 34.8037 26C36.0037 26 37.2037 26 38.6037 26.2C41.0037 26.4 43.4037 27 45.6037 28C45.6037 27.8 45.4037 27.6 45.4037 27.6C44.8037 25.8 43.6037 25 41.6037 24.4C39.6037 24 37.4037 23.8 35.4037 23.8C33.8037 23.6 32.2037 23.6 30.8037 23.6C29.0037 23.4 27.2037 23.4 25.4037 23.4H25.0037C23.8037 23.4 22.4037 23.4 21.0037 23.6H19.2037C19.0037 23.6 18.8037 23.6 18.6037 23.8H16.6037C16.4037 23.8 16.2037 23.8 16.0037 23.8L13.8037 23.6L13.2037 21.6C12.6037 18.4 13.0037 7 14.0037 4L14.4037 2.6L16.0037 2.2C21.4037 0.800001 25.8037 0 29.8037 0H34.2037C34.8037 0 35.4037 0 36.0037 0H37.6037C38.2037 0 38.6037 0 39.0037 0H39.2037C42.0037 0 44.8037 0.199995 47.8037 0.799999C49.4037 1.2 51.0037 2 52.6037 2.6C52.8037 2.6 52.8037 2.8 53.0037 2.8C55.4037 3.8 57.4037 5.4 58.8037 6.4C60.4037 8 61.6037 9.8 62.4037 11.4C64.6037 15.4 66.0037 20 67.0038 25.4C67.8037 29.6 68.2038 33.8 68.4038 37.8ZM39.4037 66.4C42.4037 64 44.0037 61.6 44.4037 58.8V58.2V56V55.2C44.4037 54.8 44.4037 54.2 44.4037 54C44.0037 51.6 42.8037 50 40.8037 49.4C39.8037 49 38.8037 48.8 37.8037 48.8C35.8037 48.8 33.8037 49.6 32.0037 51.2L31.0037 52.4C30.8037 52.8 30.4037 53.6 30.2037 54C28.6037 57.2 28.4037 60.4 29.6037 63.6C30.0037 64.6 30.4037 65.6 31.2037 66.2C32.4037 67.2 33.6037 67.8 35.2037 67.8H35.4037C37.0037 67.8 38.4037 67.2 39.4037 66.4Z" fill="#DFD3BB"/>
</svg>
