<?xml version="1.0" encoding="utf-8"?>
<!-- Generator: Adobe Illustrator 28.1.0, SVG Export Plug-In . SVG Version: 6.00 Build 0)  -->
<svg version="1.1" id="Layer_1" xmlns="http://www.w3.org/2000/svg" xmlns:xlink="http://www.w3.org/1999/xlink" x="0px" y="0px"
	 viewBox="0 0 360 540" style="enable-background:new 0 0 360 540;" xml:space="preserve">
<style type="text/css">
	.st0{fill:#358A87;}
	.st1{fill:#36AFAB;}
</style>
<g>
	<g>
		<path class="st0" d="M328,539.6H32c-17.7,0-32-14.3-32-32v-476c0-17.7,14.3-32,32-32h296c17.7,0,32,14.3,32,32v476
			C360,525.3,345.6,539.6,328,539.6z"/>
		<g>
			<path class="st1" d="M13.6,494.2c0.4-0.4,0.7-0.9,1.1-1.3c-4.8-1.5-9.5-1.2-14.2-1.2c-0.2,0-0.4,0-0.6,0V503
				c2.3-1.3,4.6-2.5,7-3.8C9.4,497.9,11.6,496.1,13.6,494.2z"/>
			<path class="st1" d="M328-0.4h-1.4c-1.3,2.9-3,5.5-5.3,7.8c-2.9,2.8-5.8,5.5-9.1,7.9c-5.9,4.2-12,7.9-18.2,11.5
				c-3.5,2-7,4-10.5,5.9c-0.7,0.4-1.6,0.4-2.4,0.6c-1.4-2.1-2.6-4.1-3.8-6c-3-4.7-6-9.5-8.9-14.2c-0.5-0.8-0.3-1.8,0.4-2.3
				c0.3-0.2,0.6-0.4,1-0.5c6.1-3.4,12.1-6.8,18.1-10.3c0.2-0.1,0.4-0.2,0.6-0.3H149.3c0.7,2.7,1.3,5.5,1.3,8.3
				c0.2,10.8,0.1,21.7,0.1,32.6c0,0.6-0.2,1.1-0.3,1.8c-0.8,0.1-1.4,0.1-2,0.1c-7.4,0-14.7,0-22.1,0c-0.7,0-1.4-0.2-2.1-0.4
				c0-1.5-0.3-3,0.1-4.2c0.6-1.6,0.5-3.1,0.5-4.7c0-5.7,0.1-11.3,0-17c-0.1-2.7-0.5-5.3-0.9-8c-0.1-0.9-0.7-1.7-1.1-2.8
				c-0.6,0.4-1.1,0.5-1.3,0.9c-7.1,9.8-12.9,20.3-18.7,31.1c-0.7-0.1-1.5,0-2.1-0.3c-2.9-1.7-5.8-3.6-8.7-5.4
				c-3.7-2.3-7.4-4.6-11.1-7l0,0c1-4.4,3.2-8.2,5.8-11.8c0.5-0.7,1-1.4,1.5-2.1c3.5-3.2,6.4-6.8,8.6-11c0,0,0-0.1,0-0.1H32
				c-17.7,0-32,14.3-32,32v52.3c0.8-0.8,1.7-1.6,2.5-2.4c0.6,0.1,1,0,1.3,0.2c6,5.4,13.1,9.4,19,15.3c-0.4,0.8-0.7,1.6-1.3,2.2
				c-2.2,2.7-4.2,5.5-6.7,7.9c-2.1,2-3.9,4.1-5.6,6.4c-3.1,4.2-6.7,8.1-9.3,13v1.3c0.5,0.2,1,0.4,1.5,0.4c1.1,0,2.2-0.2,3.2-0.5
				c3.9-1.1,7.9-2.1,11.6-3.6c2.6-1.1,5.2-2,7.8-3.1c3.3-1.4,6.5-2.8,9.8-4.2c0.3-0.1,0.7,0,1.3,0c3.4,7.7,5.7,15.9,8.7,23.9
				c-0.7,0.6-1.2,1.2-1.8,1.5c-6,2.4-12,5-18.1,7.2c-5.9,2.2-11.7,4.5-17.9,5.5c-2,0.3-4.1,0.6-6.1,0.6v31.3
				c2.6-2.1,5.6-3.5,8.8-4.4c2.5-0.7,5.1-0.7,7.6-0.7c2.4,0,4.6,0.6,6.7,1.6c2.2,1,4.3,2.3,6,4.2c3.1,3.3,6.1,6.7,8.4,10.6
				c1.3,2.3,2.3,4.6,3.2,7c1.3,3.7,2.6,7.4,3.6,11.2c2,7.8,3.9,15.6,5.9,23.9l0,0c-1,0.4-1.8,0.9-2.7,1.2c-2.4,0.7-4.9,1.4-7.3,2.1
				c-4.4,1.2-8.9,2.5-13.3,3.7c-1.3,0.3-2.3-0.3-2.4-1.5c-0.1-2.1-0.8-4.1-1.3-6.1c-0.8-3.2-1.7-6.4-2.3-9.6c-1.1-6-3.1-11.6-5.8-17
				c-0.2-0.5-0.3-1.3-1.4-1.2c-0.2,0.2-0.7,0.5-0.9,0.9c-1.1,3-2.2,6-3.2,9c-2.4,6.9-3.2,14.3-5.8,21.2c-0.1,0.2-0.1,0.5-0.1,0.7
				c0.1,1.7-0.6,3.1-1.3,4.7c-0.8-0.1-1.7-0.3-2.5-0.4v100.6c0.8,0.1,1.5,0.2,2.3,0.3c4.3,0,8.5,1.1,12.5,2.5
				c5.9,2,11.3,5.3,16.7,8.4c5.6,3.3,11.1,6.8,16.6,10.2c0.6,0.4,0.9,1,1.5,1.7c-4.3,7.4-8,15.1-12.6,22.1c-0.6-0.1-1,0-1.3-0.2
				c-3-1.9-5.9-3.9-8.9-5.8c-2.4-1.5-4.8-2.9-7.2-4.4c-3.4-2.2-7.2-3.8-10.8-5.6c-1-0.5-2-0.9-3.1-1.1c-0.6-0.1-1.3,0.1-2.2,0.3
				c1.7,5.8,4.8,10.5,7.3,15.6c1.3,2.5,2.7,4.9,4.4,7.3c2,2.8,3.5,5.9,5.2,8.9c0.4,0.7,0.6,1.6,0.9,2.4c-6.8,4.7-14.5,7.5-21.3,11.8
				v52c3.9,0,7.8,0,11.8,0c0.3,0,0.7,0.2,1,0.3c0.8,0.2,1.7,0.4,2.5,0.4c6.4,0.3,11.8,2.8,15.7,7.9c3,3.8,4,8.1,2.4,12.9
				c-1.5,4.3-4.1,7.9-7.4,10.9c-2.8,2.5-6.1,4.4-9.3,6.5c-2.6,1.6-5.3,3-7.9,4.6C7,518.9,5.1,520,3.4,521c-0.4-0.2-0.6-0.2-0.6-0.3
				c0-0.1-0.1-0.1-0.1-0.2c5,11.2,16.2,19.1,29.3,19.1h6.8c2.6-2.5,5.3-4.9,8.2-7c5.9-4.2,12-7.9,18.2-11.5c3.5-2,7-4,10.5-5.9
				c0.7-0.4,1.6-0.4,2.4-0.6c1.4,2.1,2.6,4.1,3.8,6c3,4.7,6,9.5,8.9,14.2c0.5,0.8,0.3,1.8-0.4,2.3c-0.3,0.2-0.6,0.4-1,0.5
				c-1.2,0.7-2.3,1.3-3.5,1.9h57.8c-2.1-1.4-4-2.9-5.8-4.7c-6.8-6.8-13.6-13.7-20.4-20.5c-1-1-1.7-2.1-2-3.4
				c0.1-0.1,0.1-0.3,0.1-0.4c5.4-5.6,10.9-11.1,16.4-16.6c1.2-1.2,2.4-1.1,3.4,0.4c1.6,2.6,3.9,4.4,5.9,6.6c2.2,2.4,4.9,4.5,6.7,7.4
				c0.4,0.6,1,1.1,1.6,1.6c2.4,2,4.9,4,7.4,6c1.2,1,2.4,2,4.1,2.4c0.3-1.5,0.3-2.8,0-4.2c-0.7-3.2-1.3-6.5-2-9.7
				c-0.8-3.5-1.2-7.1-2.5-10.3c-1.8-4.3-2.3-9-4-13.2c0.4-0.4,0.6-0.8,0.9-0.9c8.1-2.1,16.1-4.1,24.5-5.6l0,0
				c0.5,1.4,0.9,2.3,1.2,3.3c2.2,7.3,4.2,14.6,5.9,21.9c0.7,3.1,1.7,6.2,1.6,9.4c0,0.3,0.2,0.7,0.3,1.1c0.8,3,1.4,6,1.2,9.1
				c-0.1,2-0.4,3.9-0.6,5.8c-0.5,4-1.9,7.6-3.7,11.1c-0.3,0.5-0.6,1.1-1,1.5c-0.6,0.6-1.2,1.3-1.8,1.9H210c-0.1-0.8-0.1-1.6-0.3-2.3
				c-1-3.3-1.7-6.7-1.8-10c-0.2-10.8-0.1-21.7-0.1-32.6c0-0.6,0.2-1.1,0.3-1.8c0.8-0.1,1.4-0.1,2-0.1c7.4,0,14.7,0,22.1,0
				c0.7,0,1.4,0.2,2.1,0.4c0,1.5,0.3,3-0.1,4.2c-0.6,1.6-0.5,3.1-0.5,4.7c0,5.7-0.1,11.3,0,17c0.1,2.7,0.5,5.3,0.9,8
				c0.1,0.9,0.7,1.7,1.1,2.8c0.6-0.4,1.1-0.5,1.3-0.9c7.1-9.8,12.9-20.3,18.7-31.1c0.7,0.1,1.5,0,2.1,0.3c2.9,1.7,5.8,3.6,8.7,5.4
				c3.7,2.3,7.4,4.6,11.1,7l0,0c-1,4.4-3.2,8.2-5.8,11.8c-0.5,0.7-1,1.4-1.5,2.1c-3.5,3.2-6.4,6.8-8.6,11c-0.7,1.4-1.4,2.7-2,4.1
				H328c17.7,0,32-14.3,32-32v-55.7c-0.8,0.5-1.7,1-2.5,1.5c-0.6,0.4-1.6,0.2-2.2,0.3c-2.7-4.3-4.3-8.9-7.9-12.8
				c-2.3,5.5-0.6,11.1-1.6,16.6c-2.7,0-5.2,0-7.8,0c-1.2,0-2-0.6-2.9-1.5c0.5-5.6-0.4-11.3,0.7-17c0.7-3.6,2-6.5,4.6-8.9
				c2.7-2.5,6.4-3.3,9.6-1.6c3.1,1.6,5.9,3.8,7.8,7c0.8,1.3,1.5,2.5,2.3,3.8V199.8c-1.1-0.2-2.1-0.4-3.2-0.4
				c-4.3,0-8.5-1.1-12.5-2.5c-5.9-2-11.3-5.3-16.7-8.4c-5.6-3.3-11.1-6.8-16.6-10.2c-0.6-0.4-0.9-1-1.5-1.7
				c4.3-7.4,8-15.1,12.6-22.1c0.6,0.1,1,0,1.3,0.2c3,1.9,5.9,3.9,8.9,5.8c2.4,1.5,4.8,2.9,7.2,4.4c3.4,2.2,7.2,3.8,10.8,5.6
				c1,0.5,2,0.9,3.1,1.1c0.6,0.1,1.3-0.1,2.2-0.3c-1.7-5.8-4.8-10.5-7.3-15.6c-1.3-2.5-2.7-4.9-4.4-7.3c-2-2.8-3.5-5.9-5.2-8.9
				c-0.4-0.7-0.6-1.6-0.9-2.4c6.8-4.7,14.5-7.5,21.4-11.8c0.2-0.1,0.5-0.1,0.8,0V73.4c-4.2,0-8.4,0-12.6,0c-0.3,0-0.7-0.2-1-0.3
				c-0.8-0.2-1.7-0.4-2.5-0.4c-6.4-0.3-11.8-2.8-15.7-7.9c-3-3.8-4-8.1-2.4-12.9c1.5-4.3,4.1-7.9,7.4-10.9c2.8-2.5,6.1-4.4,9.3-6.5
				c2.6-1.6,5.3-3,7.9-4.6c1.9-1.1,3.8-2.2,5.5-3.1c0.4,0.2,0.6,0.2,0.6,0.3c1.2,2.1,2.5,4.2,3.7,6.3v-1.8
				C360,13.9,345.6-0.4,328-0.4z M31.1,312.2c-0.7,3.6-2,6.5-4.6,8.9c-2.7,2.5-6.4,3.3-9.6,1.6c-3.1-1.6-5.9-3.8-7.8-7
				c-2.6-4.3-5.3-8.5-7.2-13.3c2.5-1.6,4.9-3.2,7.4-4.7c0.6-0.4,1.6-0.2,2.2-0.3c2.7,4.3,4.3,8.9,7.9,12.8
				c2.3-5.5,0.6-11.1,1.6-16.5c2.7,0,5.2,0,7.8,0c1.2,0,2,0.6,2.9,1.6C31.3,300.8,32.2,306.5,31.1,312.2z M171.2,28.6
				c0.1-2,0.4-3.9,0.6-5.8c0.5-4,1.9-7.6,3.7-11.1c0.3-0.5,0.6-1.1,1-1.5c2-2,3.9-4.1,6-6c1.2-1,2.4-2.1,4-2.4
				c1.8-0.3,3.5-0.8,5.3-1.1c0.7-0.1,1.5-0.5,2.1-0.3c3.1,0.6,6.3,0.6,9.2,2c0.9,0.4,1.8,0.6,2.7,1c5.5,2.4,10.7,5.4,15.1,9.6
				c6.8,6.8,13.6,13.7,20.4,20.5c1,1,1.7,2.1,2,3.4c-0.1,0.1-0.1,0.3-0.1,0.4c-5.4,5.6-10.9,11.1-16.4,16.6
				c-1.2,1.2-2.4,1.1-3.4-0.4c-1.6-2.6-3.9-4.4-5.9-6.6c-2.2-2.4-4.9-4.5-6.7-7.4c-0.4-0.6-1-1.1-1.6-1.6c-2.4-2-4.9-4-7.4-6
				c-1.2-1-2.4-2-4.1-2.4c-0.3,1.5-0.3,2.8,0,4.2c0.7,3.2,1.3,6.5,2,9.7c0.8,3.5,1.2,7.1,2.5,10.3c1.8,4.3,2.3,9,4,13.2
				c-0.4,0.4-0.6,0.8-0.9,0.9c-8.1,2.1-16.1,4.1-24.5,5.6l0,0c-0.5-1.4-0.9-2.3-1.2-3.3c-2.2-7.3-4.2-14.6-5.9-21.9
				c-0.7-3.1-1.7-6.2-1.6-9.4c0-0.3-0.2-0.7-0.2-1.1C171.6,34.7,171,31.7,171.2,28.6z M171.4,115.2c1.1-3.1,1.9-6.4,2.9-9.5
				c0.6-2,1.3-3.9,2.1-6.2l0,0c1.3,0.4,2.1,0.8,2.9,0.9c4.8,0.8,9.3,2.3,14,3.6c2.9,0.8,5.7,2,8.5,3c3.8,1.4,7.4,3,10.5,5.6
				c3.8,3.2,6.6,7.2,7,12.5c0,0.6,0.3,1.2,0.4,1.8c0.1,0.7,0.3,1.5,0.2,2.2c-0.4,1.7-0.8,3.3-1.4,5c-0.4,1-0.8,2.1-1.6,2.9
				c-3.4,3.8-7.2,7-11.7,9.3c-4.8,2.5-10,3.6-15.1,5.1c-3.8,1.1-7.7,2-11.5,2.9c-0.8,0.2-1.6,0-2.4,0c-1.5-5.9-3.1-11.6-4.5-17.3
				c-0.1-0.5,0.1-1.2,0.2-1.8c0.9-0.1,1.7,0,2.4-0.2c4.3-1.3,8.7-2,13-3.1c3-0.8,5.9-2.2,8.8-3.3c0.9-0.3,1.5-0.9,1.1-2
				c-6.5-2.8-17.6-6-26.1-7.7C171,117.5,171,116.4,171.4,115.2z M65.3,82.9c0.6-5,2-9.8,4.4-14.3c2.5-4.8,6.2-8.7,9.6-12.7
				c2.5-3,5.2-6,7.9-8.9c0.5-0.6,1.3-0.9,2-1.4c4.6,4,9.1,7.9,13.5,11.7c0.4,0.4,0.6,1,0.9,1.6c-0.7,0.6-1.4,0.9-1.8,1.5
				c-2.8,3.5-6,6.6-8.9,9.9c-2.1,2.3-3.6,5.1-5.4,7.7c-0.6,0.8-0.7,1.6,0.2,2.2c6.9-1.4,18-5,25.9-8.4c0.8,0.9,1.4,1.8,1.8,3.1
				c0.9,3.2,2,6.3,3,9.5c0.6,2,1.1,4,1.8,6.4l0,0c-1.3,0.4-2.2,0.5-2.9,0.9c-4.4,2.1-9,3.4-13.6,4.9c-2.9,1-5.8,1.6-8.7,2.3
				c-3.9,1-7.8,1.8-11.9,1.3c-5-0.5-9.5-2.2-12.8-6.3c-0.4-0.5-0.9-0.8-1.4-1.2c-0.5-0.5-1.1-1.1-1.4-1.7c-0.7-1.6-1.2-3.2-1.6-4.9
				C65.3,85.2,65.1,84,65.3,82.9z M88.7,292.8c-0.9,0.8-1.9,1.3-3.2,1.6c-3.2,0.7-6.4,1.7-9.7,2.5c-2,0.5-4.1,0.9-6.5,1.4l0,0
				c-0.3-1.3-0.4-2.2-0.7-3c-1.8-4.5-2.9-9.2-4.1-13.8c-0.8-2.9-1.2-5.9-1.8-8.9c-0.8-4-1.3-7.9-0.6-11.9c0.8-5,2.7-9.3,7-12.5
				c0.5-0.4,0.8-0.9,1.3-1.3c0.6-0.5,1.1-1.1,1.8-1.3c1.6-0.6,3.3-1,5-1.4c1.1-0.2,2.2-0.4,3.3-0.2c5,0.9,9.7,2.6,14,5.2
				c4.6,2.8,8.3,6.7,12.1,10.3c2.9,2.7,5.7,5.6,8.4,8.4c0.5,0.6,0.8,1.4,1.3,2.1c-4.3,4.4-8.4,8.6-12.5,12.8c-0.4,0.4-1,0.5-1.7,0.8
				c-0.5-0.8-0.9-1.4-1.4-1.9c-3.3-3-6.2-6.4-9.4-9.5c-2.2-2.2-4.9-3.9-7.4-5.8c-0.8-0.6-1.5-0.8-2.2,0.1
				C82.9,273.5,85.8,284.7,88.7,292.8z M61.6,159c0.7-3.6,2-6.5,4.6-8.9c2.7-2.5,6.4-3.3,9.6-1.6c3.1,1.6,5.9,3.8,7.8,7
				c2.6,4.3,5.3,8.5,7.2,13.3c-2.5,1.6-4.9,3.2-7.4,4.7c-0.6,0.4-1.6,0.2-2.2,0.3c-2.7-4.3-4.3-8.9-7.9-12.8
				c-2.3,5.5-0.6,11.1-1.6,16.5c-2.7,0-5.2,0-7.8,0c-1.2,0-2-0.6-2.9-1.5C61.4,170.4,60.5,164.7,61.6,159z M40.7,39.4
				c-2.4-1.8-4.8-3.5-7-5.3c-0.6-0.5-0.8-1.4-1.1-2c3.1-4,6.8-7.2,9.1-11.9c-6-0.2-10.6,3.3-16,4.4c-1-2.5-1.9-4.9-2.7-7.3
				c-0.4-1.1-0.1-2.1,0.4-3.3c5.4-1.5,10.4-4.4,16.1-5.4c3.6-0.6,6.8-0.5,10,1.2c3.3,1.7,5.3,4.8,4.9,8.5c-0.4,3.5-1.4,6.8-3.8,9.7
				C47.5,31.9,44.5,35.9,40.7,39.4z M105.8,454.7c-1.7,4.6-4.7,8.3-7.7,12c-3.3,4-7.5,7-11.8,9.7c-3.2,2-6.5,3.7-9.7,5.8
				c-3,1.9-6,3.8-9.1,5.3c-1.3,0.7-2.7,1.2-3.9,2c-1.3,1-2.7,1.4-4.1,1.7c-3.4-4.9-11.6-19.5-12.5-22.3c1.8-1.1,3.7-2.2,5.6-3.3
				c3.5-1.9,7-3.8,10.5-5.7c4.5-2.4,8.7-5.3,12.7-8.4c0.9-0.7,2-1.4,2.2-3.2c-2.7,0.1-5-1-7.6-0.9c-9.1,0.2-18.3,0.1-27.4,0
				c-0.9,0-1.8-0.2-3-0.3c0-1.3,0-2.4,0-3.5c0-3.6-0.1-7.2,0-10.8c0.2-3.6,0.6-7.1,0.9-10.9v0c1.2-1.2,2.6-1.3,4.1-1.3
				c8,0,16.1,0,24.1,0c3.1,0,6.2,0.9,9.4,0.8c1.8,0,3.5,0.6,5.3,1c2.5,0.6,4.8,1.5,7.2,2.4c3.4,1.3,6.2,3.3,8.8,5.7
				c3.2,3,5.3,6.9,6.7,11.2C107.9,446.1,107.3,450.5,105.8,454.7z M129.7,350.8c-0.6,2.7-1.2,5.5-1.9,8.2c-1.2,4.7-2.2,9.5-3.8,14.1
				c-1.7,5.1-3.1,10.3-5.1,15.3c-0.7,1.8-1.6,3.6-2.5,5.3c-1.8,3.3-4.4,5.9-7,8.5c-2.9,3-6.5,4.7-10.4,5.8c-2.5,0.7-5.1,0.7-7.6,0.7
				c-2.4,0-4.6-0.6-6.7-1.6c-2.2-1-4.3-2.3-6-4.2c-3.1-3.3-6.1-6.7-8.4-10.6c-1.3-2.3-2.3-4.6-3.2-7c-1.3-3.7-2.6-7.4-3.6-11.2
				c-2-7.8-3.9-15.6-5.9-23.9l0,0c1-0.4,1.8-0.9,2.7-1.2c2.4-0.7,4.9-1.4,7.3-2.1c4.4-1.2,8.9-2.5,13.3-3.7c1.3-0.3,2.3,0.3,2.4,1.5
				c0.1,2.1,0.8,4.1,1.3,6.1c0.8,3.2,1.7,6.4,2.3,9.6c1.1,6,3.1,11.6,5.8,17c0.2,0.5,0.3,1.3,1.4,1.2c0.2-0.2,0.7-0.5,0.9-0.9
				c1.1-3,2.2-6,3.2-9c2.4-6.9,3.2-14.3,5.8-21.2c0.1-0.2,0.1-0.5,0.1-0.7c-0.1-1.7,0.6-3.1,1.3-4.7c4.4,0.5,8.3,2.3,12.3,3.4
				c4.1,1.1,8,2.6,12,3.9C129.7,350.1,129.8,350.5,129.7,350.8z M131.8,159.6c-0.2,0.2-0.7,0.5-0.9,0.9c-1.1,3-2.2,6-3.2,9
				c-2.4,6.9-3.2,14.3-5.8,21.2c-0.1,0.2-0.1,0.5-0.1,0.7c0.1,1.7-0.6,3.1-1.3,4.7c-4.4-0.5-8.3-2.3-12.3-3.4c-4.1-1.1-8-2.6-12-3.9
				c0-0.5-0.2-0.9-0.1-1.2c0.6-2.7,1.2-5.5,1.9-8.2c1.2-4.7,2.2-9.5,3.8-14.1c1.7-5.1,3.1-10.3,5.1-15.3c0.7-1.8,1.6-3.6,2.5-5.3
				c1.8-3.3,4.4-5.9,7-8.5c2.9-3,6.5-4.7,10.4-5.8c2.5-0.7,5.1-0.7,7.6-0.7c2.4,0,4.6,0.6,6.7,1.6c2.2,1,4.2,2.3,6,4.2
				c3.1,3.3,6.1,6.7,8.4,10.6c1.3,2.3,2.3,4.6,3.2,7c1.3,3.7,2.6,7.4,3.6,11.2c2,7.8,3.9,15.6,5.9,23.9l0,0c-1,0.4-1.8,0.9-2.7,1.2
				c-2.4,0.7-4.9,1.4-7.3,2.1c-4.4,1.2-8.9,2.5-13.3,3.7c-1.3,0.3-2.3-0.3-2.4-1.5c-0.1-2.1-0.8-4.1-1.3-6.1
				c-0.8-3.2-1.7-6.4-2.3-9.6c-1.1-6-3.1-11.6-5.8-17C132.9,160.3,132.8,159.5,131.8,159.6z M133.2,252.2c0.1-3,0.1-5.9,0.3-8.8
				c0.1-0.7,0.7-1.4,1-2c5,0.2,9.8,1.4,15,0.7c-3.2-5-8.8-6.8-12.8-10.7c1.5-2.2,2.9-4.3,4.4-6.4c0.7-1,1.7-1.3,2.9-1.6
				c4.3,3.5,9.5,6,13.6,10.1c2.6,2.6,4.2,5.3,4.8,8.8c0.5,3.7-0.9,7.1-4.2,8.8c-3.1,1.7-6.4,2.7-10.1,2.5
				C143.2,253.5,138.2,253.3,133.2,252.2z M187.6,432.6c-1.1,3.1-1.9,6.4-2.9,9.5c-0.6,2-1.3,3.9-2.1,6.2l0,0
				c-1.3-0.4-2.1-0.8-2.9-0.9c-4.8-0.8-9.3-2.3-14-3.6c-2.9-0.8-5.7-2-8.5-3c-3.8-1.4-7.4-3-10.5-5.6c-3.8-3.2-6.6-7.2-7-12.5
				c0-0.6-0.3-1.2-0.4-1.8c-0.1-0.7-0.3-1.5-0.2-2.2c0.4-1.7,0.8-3.3,1.4-5c0.4-1,0.8-2.1,1.6-2.9c3.4-3.8,7.2-7,11.7-9.3
				c4.8-2.5,10-3.6,15.1-5.1c3.8-1.1,7.7-2,11.5-2.9c0.8-0.2,1.6,0,2.4,0c1.5,5.9,3.1,11.6,4.5,17.3c0.1,0.5-0.1,1.2-0.2,1.8
				c-0.9,0.1-1.7,0-2.4,0.2c-4.3,1.3-8.7,2-13,3.1c-3,0.8-5.9,2.2-8.8,3.3c-0.9,0.3-1.5,0.9-1.1,2c6.5,2.8,17.6,6,26.1,7.7
				C188.1,430.3,188,431.4,187.6,432.6z M203.9,313.7c-0.4-0.6-1-1.1-1.6-1.6c-2.4-2-4.9-4-7.4-6c-1.2-1-2.4-2-4.1-2.4
				c-0.3,1.5-0.3,2.8,0,4.2c0.7,3.2,1.3,6.5,2,9.7c0.8,3.5,1.2,7.1,2.5,10.3c1.8,4.3,2.3,9,4,13.2c-0.4,0.4-0.6,0.8-0.9,0.9
				c-8.1,2.1-16.1,4.1-24.5,5.6l0,0c-0.5-1.4-0.9-2.3-1.2-3.3c-2.2-7.3-4.2-14.6-5.9-21.9c-0.7-3.1-1.7-6.2-1.6-9.4
				c0-0.3-0.2-0.7-0.3-1.1c-0.8-3-1.4-6-1.2-9.1c0.1-2,0.4-3.9,0.6-5.8c0.5-4,1.9-7.6,3.7-11.1c0.3-0.5,0.6-1.1,1-1.5
				c2-2,3.9-4.1,6-6c1.2-1,2.4-2.1,4-2.4c1.8-0.3,3.5-0.8,5.3-1.1c0.7-0.1,1.5-0.5,2.1-0.3c3.1,0.6,6.3,0.6,9.2,2
				c0.9,0.4,1.8,0.6,2.7,1c5.5,2.4,10.7,5.4,15.1,9.6c6.8,6.8,13.6,13.7,20.4,20.5c1,1,1.7,2.1,2,3.4c-0.1,0.1-0.1,0.3-0.1,0.4
				c-5.4,5.6-10.9,11.1-16.3,16.6c-1.2,1.2-2.4,1.1-3.4-0.4c-1.6-2.6-3.9-4.4-5.9-6.6C208.3,318.7,205.6,316.7,203.9,313.7z
				 M240.4,407.9c-0.4,3.5-1.4,6.8-3.8,9.7c-3.1,3.9-6.1,8-9.9,11.4c-2.4-1.8-4.8-3.5-7-5.3c-0.6-0.5-0.8-1.4-1.1-2
				c3.1-4,6.8-7.2,9.1-11.9c-6-0.2-10.6,3.3-16,4.4c-1-2.5-1.9-4.9-2.7-7.3c-0.4-1.1-0.1-2.1,0.4-3.3c5.4-1.5,10.4-4.4,16.1-5.4
				c3.6-0.6,6.8-0.5,10,1.2C238.8,401.1,240.8,404.2,240.4,407.9z M251.9,244.2c-0.4,1.7-0.8,3.3-1.4,5c-0.4,1-0.8,2.1-1.6,2.9
				c-3.4,3.8-7.2,7-11.7,9.3c-4.8,2.5-10,3.6-15.1,5.1c-3.8,1.1-7.7,2-11.5,2.9c-0.8,0.2-1.6,0-2.4,0c-1.5-5.9-3.1-11.6-4.5-17.3
				c-0.1-0.5,0.1-1.2,0.2-1.8c0.9-0.1,1.7,0,2.4-0.2c4.3-1.3,8.7-2,13-3.1c3-0.8,5.9-2.2,8.8-3.3c0.9-0.3,1.5-0.9,1.1-2
				c-6.5-2.8-17.6-6-26.1-7.7c-0.2-1.2-0.2-2.3,0.3-3.5c1.1-3.1,1.9-6.4,2.9-9.5c0.6-2,1.3-3.9,2.1-6.2l0,0c1.3,0.4,2.1,0.8,2.9,0.9
				c4.8,0.8,9.3,2.3,14,3.6c2.9,0.8,5.7,2,8.5,3c3.8,1.4,7.4,3,10.5,5.6c3.8,3.2,6.6,7.2,7,12.5c0,0.6,0.3,1.2,0.4,1.8
				C251.9,242.7,252.1,243.5,251.9,244.2z M255.2,200c-0.1,0.2-0.1,0.5-0.1,0.7c0.1,1.7-0.6,3.1-1.3,4.7c-4.4-0.5-8.3-2.3-12.3-3.4
				c-4.1-1.1-8-2.6-12-3.9c0-0.5-0.2-0.9-0.1-1.2c0.6-2.7,1.2-5.5,1.9-8.2c1.2-4.7,2.2-9.5,3.8-14.1c1.7-5.1,3.1-10.3,5.1-15.3
				c0.7-1.8,1.6-3.6,2.5-5.3c1.8-3.3,4.4-5.9,7-8.5c2.9-3,6.5-4.7,10.4-5.8c2.5-0.7,5.1-0.7,7.6-0.7c2.4,0,4.6,0.6,6.7,1.6
				c2.2,1,4.2,2.3,6,4.2c3.1,3.3,6.1,6.7,8.4,10.6c1.3,2.3,2.3,4.6,3.2,7c1.3,3.7,2.6,7.4,3.6,11.2c2,7.8,3.9,15.6,5.9,23.9l0,0
				c-1,0.4-1.8,0.9-2.7,1.2c-2.4,0.7-4.9,1.4-7.3,2.1c-4.4,1.2-8.9,2.5-13.3,3.7c-1.3,0.3-2.3-0.3-2.4-1.5c-0.1-2.1-0.8-4.1-1.3-6.1
				c-0.8-3.2-1.7-6.4-2.3-9.6c-1.1-6-3.1-11.6-5.8-17c-0.2-0.5-0.3-1.3-1.4-1.2c-0.2,0.2-0.7,0.5-0.9,0.9c-1.1,3-2.2,6-3.2,9
				C258.6,185.8,257.8,193.2,255.2,200z M303.9,484.9c-0.1-2.1-0.8-4.1-1.3-6.1c-0.8-3.2-1.7-6.4-2.3-9.6c-1.1-6-3.1-11.6-5.8-17
				c-0.2-0.5-0.3-1.3-1.4-1.2c-0.2,0.2-0.7,0.5-0.9,0.9c-1.1,3-2.2,6-3.2,9c-2.4,6.9-3.2,14.3-5.8,21.2c-0.1,0.2-0.1,0.5-0.1,0.7
				c0.1,1.7-0.6,3.1-1.3,4.7c-4.4-0.5-8.3-2.3-12.3-3.4c-4.1-1.1-8-2.6-12-3.9c0-0.5-0.2-0.9-0.1-1.2c0.6-2.7,1.2-5.5,1.9-8.2
				c1.2-4.7,2.2-9.5,3.8-14.1c1.7-5.1,3.1-10.3,5.1-15.3c0.7-1.8,1.6-3.6,2.5-5.3c1.8-3.3,4.4-5.9,7-8.5c2.9-3,6.5-4.7,10.4-5.8
				c2.5-0.7,5.1-0.7,7.6-0.7c2.4,0,4.6,0.6,6.7,1.6c2.2,1,4.2,2.3,6,4.2c3.1,3.3,6.1,6.7,8.4,10.6c1.3,2.3,2.3,4.6,3.2,7
				c1.3,3.7,2.6,7.4,3.6,11.2c2,7.8,3.9,15.6,5.9,23.9l0,0c-1,0.4-1.8,0.9-2.7,1.2c-2.4,0.7-4.9,1.4-7.3,2.1
				c-4.4,1.2-8.9,2.5-13.3,3.7C305,486.8,303.9,486.2,303.9,484.9z M336,530.6c0.4,1.1,0.1,2.1-0.4,3.3c-5.4,1.5-10.4,4.4-16.1,5.4
				c-3.6,0.6-6.8,0.5-10-1.2c-3.3-1.7-5.3-4.8-4.9-8.5c0.4-3.5,1.4-6.8,3.8-9.7c3.1-3.9,6.1-8,9.9-11.4c2.4,1.8,4.8,3.5,7,5.3
				c0.6,0.5,0.8,1.4,1.1,2c-3.1,4-6.8,7.2-9.1,11.9c6,0.2,10.6-3.3,16-4.4C334.3,525.8,335.2,528.2,336,530.6z M328,235.6
				c0.7-3.6,2-6.5,4.6-8.9c2.7-2.5,6.4-3.3,9.6-1.6c3.1,1.6,5.9,3.8,7.8,7c2.6,4.3,5.3,8.5,7.2,13.3c-2.5,1.6-4.9,3.2-7.4,4.7
				c-0.6,0.4-1.6,0.2-2.2,0.3c-2.7-4.3-4.3-8.9-7.9-12.8c-2.3,5.5-0.6,11.1-1.6,16.5c-2.7,0-5.2,0-7.8,0c-1.2,0-2-0.6-2.9-1.6
				C327.8,247,326.9,241.3,328,235.6z M323.5,340.3c1.3-1,2.7-1.4,4.1-1.7c3.4,4.9,11.6,19.5,12.5,22.3c-1.8,1.1-3.7,2.2-5.6,3.3
				c-3.5,1.9-7,3.8-10.5,5.7c-4.5,2.4-8.7,5.3-12.7,8.4c-0.9,0.7-2,1.4-2.2,3.2c2.7-0.1,5,1,7.6,0.9c9.1-0.1,18.3-0.1,27.4,0
				c0.9,0,1.8,0.2,3,0.3c0,1.3,0,2.4,0,3.5c0,3.6,0.1,7.2,0,10.8c-0.2,3.6-0.6,7.1-0.9,10.9v0c-1.2,1.2-2.6,1.3-4.1,1.3
				c-8,0-16.1,0-24.1,0c-3.1,0-6.2-0.9-9.4-0.8c-1.8,0-3.5-0.6-5.3-1c-2.5-0.6-4.8-1.5-7.2-2.4c-3.4-1.3-6.2-3.3-8.8-5.7
				c-3.2-3-5.3-6.9-6.7-11.2c-1.4-4.4-0.9-8.7,0.7-13c1.7-4.6,4.7-8.3,7.7-12c3.3-4,7.5-7,11.8-9.7c3.2-2,6.5-3.7,9.7-5.8
				c3-1.9,6-3.8,9.1-5.3C320.9,341.7,322.3,341.2,323.5,340.3z M310.6,299.9c0.7,0,1.4,0.1,2,0.2c0.2,0.5,0.4,0.7,0.4,0.9
				c0,4.6,0.1,9.3,0,13.9c0,1.5-0.6,2.3-1.9,2.3c-6.6,0-13.2,0-19.7,0c-0.3,0-0.7-0.2-1-0.3c-0.8-0.2-1.7-0.4-2.5-0.4
				c-6.4-0.3-11.8-2.8-15.7-7.9c-3-3.8-4-8.1-2.4-12.9c1.5-4.3,4.1-7.9,7.4-10.9c2.8-2.5,6.1-4.4,9.3-6.5c2.6-1.6,5.3-3,7.9-4.6
				c1.9-1.1,3.8-2.2,5.5-3.1c0.4,0.2,0.6,0.2,0.6,0.3c2.8,4.6,5.5,9.3,8.4,14.2c0,0,0,0,0,0v0c0,0,0,0,0,0c-0.6,0.5-0.9,0.9-1.3,1.2
				c-3.7,2.1-7.5,4.1-11.2,6.1c-2.5,1.3-4.7,3.1-6.7,5c-0.4,0.4-0.7,0.9-1.1,1.4c4.8,1.5,9.5,1.2,14.2,1.2
				C305.2,299.9,307.9,299.8,310.6,299.9z M319,115c-0.2,3.6-0.6,7.1-0.9,10.9v0c-1.2,1.2-2.6,1.3-4.1,1.3c-8,0-16.1,0-24.1,0
				c-3.1,0-6.2-0.9-9.4-0.8c-1.8,0-3.5-0.6-5.3-1c-2.5-0.6-4.8-1.5-7.2-2.4c-3.4-1.3-6.2-3.3-8.8-5.7c-3.2-3-5.3-6.9-6.7-11.2
				c-1.4-4.4-0.9-8.7,0.7-13c1.7-4.6,4.7-8.3,7.7-12c3.3-4,7.5-7,11.8-9.7c3.2-2,6.5-3.7,9.7-5.8c3-1.9,6-3.8,9.1-5.3
				c1.3-0.7,2.7-1.2,3.9-2c1.3-1,2.7-1.4,4.1-1.7c3.4,4.9,11.6,19.5,12.5,22.3c-1.8,1.1-3.7,2.2-5.6,3.3c-3.5,1.9-7,3.8-10.5,5.7
				c-4.5,2.4-8.7,5.3-12.7,8.4c-0.9,0.7-2,1.4-2.2,3.2c2.7-0.1,5,1,7.6,0.9c9.1-0.1,18.3-0.1,27.4,0c0.9,0,1.8,0.2,3,0.3
				c0,1.3,0,2.4,0,3.5C319.1,107.8,319.2,111.4,319,115z"/>
			<path class="st1" d="M345.4,53.6c-0.4,0.4-0.7,0.9-1.1,1.4c4.8,1.5,9.5,1.2,14.2,1.2c0.5,0,1,0,1.5,0V44.3
				c-2.6,1.4-5.2,2.9-7.8,4.2C349.6,49.9,347.5,51.7,345.4,53.6z"/>
		</g>
	</g>
</g>
</svg>
