<svg width="82" height="92" viewBox="0 0 82 92" fill="none" xmlns="http://www.w3.org/2000/svg">
<path d="M81.0869 27.8828C81.6869 33.4828 81.2869 38.6828 80.2869 44.4828H77.2869C71.8869 44.4828 66.4869 45.0828 61.0869 45.6828C56.6869 46.2828 52.4869 46.4828 48.0869 47.0828L34.6869 48.2828C32.0869 48.6828 29.6869 49.0828 27.0869 49.4828L24.4869 50.0828C23.8869 50.2828 23.2869 50.6828 23.2869 51.4828C23.4869 58.0828 25.8869 64.6828 32.6869 68.0828C34.8869 69.2828 37.4869 70.0829 40.0869 70.2829C42.2869 70.6829 44.6869 70.8829 47.0869 70.6829H48.4869C51.2869 70.4829 54.0869 70.4828 56.8869 70.2829C57.0869 70.4828 57.2869 70.8829 57.2869 71.2829C57.2869 76.8829 57.4869 82.4828 57.4869 88.2828V89.0828C56.6869 89.4828 55.6869 89.6829 54.6869 89.8829L42.2869 91.6829C38.4869 92.2829 34.6869 91.6829 31.0869 90.8829C28.6869 90.2829 26.2869 89.6829 23.8869 88.8829C19.2869 87.4828 15.2869 85.2828 11.8869 82.0828C9.28692 79.8829 7.28692 77.2829 5.68692 74.2829C3.08692 69.6829 1.28692 64.8829 0.286918 59.4828C0.286918 58.8828 0.0869177 58.0828 0.0869177 57.2828C-0.313082 50.0828 0.686918 42.8828 2.68692 36.0828C4.28692 30.8828 6.88692 26.0828 10.0869 21.8828C15.4869 14.6828 22.0869 8.88284 29.8869 4.48285C34.6869 1.88284 39.8869 0.682847 45.2869 0.282846C47.8869 0.0828424 50.4869 -0.117156 53.0869 0.0828412C55.0869 0.282845 57.0869 0.682848 58.8869 1.28285C64.4869 2.68285 69.0869 5.48284 72.6869 9.88285C73.6869 11.0828 74.6869 12.2828 75.4869 13.4828C78.6869 17.8828 80.4869 22.6828 81.0869 27.8828ZM58.6869 28.4828C58.8869 27.2828 58.2869 26.4828 57.8869 25.6828C56.6869 23.6828 55.0869 22.0828 53.0869 20.6828C48.8869 17.4828 44.2869 16.8828 39.4869 19.4828C35.2869 21.4828 32.2869 24.8828 30.2869 29.0828C30.0869 29.2828 30.0869 29.4828 30.0869 29.8828C39.6869 29.2829 49.0869 29.2828 58.6869 28.4828Z" fill="#DFD3BB"/>
</svg>
