<svg width="85" height="154" viewBox="0 0 85 154" fill="none" xmlns="http://www.w3.org/2000/svg">
<path d="M84.6 15V15.8C83 20 82.2 24.4 81.6 28.8C80.6 34.8 80.2 40.8 80 46.8C80 48.2 80 49.4 80.2 50.6C80.2 54.6 80.4 58.6 80.4 62.4C80.6 69.2 80.4 76.2 80.4 83C80.4 88.4 79.6 93.6 78.4 98.8C76.6 107.6 74 116 69.6 124C67.2 128.8 64.2 133 60.6 136.8C55.6 142 49.8 145.8 43.2 148.4C39.2 150 35.2 151.4 31 152.2C29.2 152.6 27.4 152.8 25.4 153C22.2 153.4 19 153.6 15.8 153.6C10.8 153.4 6.2 152.4 1.8 150.2C1.6 150.2 1.2 150 0.8 149.8L0 149C3.4 141.8 5.6 134.2 8.8 127C11 127.4 13 127.6 15 128C17.8 128.4 20.4 128.4 23.2 128.4C25.2 128.4 27.2 128 29 127.2C38.8 123.2 46 116.6 50.6 107.2C52.4 103.8 53.2 100 53.6 96.4C53.8 94.8 54 93.2 54 91.6V90C53.4 90.6 53.2 91 53 91.2C51.8 92.8 50.6 94.6 49.2 96.2C45.2 100.6 40.6 104 34.8 105.6C27.4 107.6 20.6 106.2 14.6 101.4C13.4 100.4 12.4 99.4 11.6 98.2C9.2 95.2 7.4 91.8 6.4 88.2C3.8 79.6 3 71 3.8 62.4C4 57.4 4.8 52.6 6.4 48C11.2 34.4 19.4 23.6 31.8 16.2C35.8 14 40 12.6 44.6 12.2C48.4 12 52 12.6 55.4 14C56.4 14.4 57.4 14.6 58.4 15L59 13C60 9.4 61.4 5.8 63.4 2.6C63.8 1.8 64.4 0.999999 65 0C71.8 5 78.2 10 84.6 15ZM55.2 48.2C55.8 46.6 55.8 44.8 56 43C56 42 55.6 41.4 54.8 41C51.8 39.2 46.2 38.2 42.6 42.6C40.2 45.6 38 49 36.6 52.8C35.4 55.6 34.6 58.6 34 61.6L33.4 66.2H33.6V68.2C33.8 70.8 34.8 73.4 36.4 75.6C37.2 76.6 38.2 76.8 39.4 76.6C40 76.4 40.6 76 41.2 75.6C42 75 42.8 74.4 43.4 73.6C45.6 70.8 47.4 67.8 48.8 64.6C51 59.2 53 53.6 55.2 48.2Z" fill="#A33E00"/>
<path d="M84.6 15V15.8C83 20 82.2 24.4 81.6 28.8C80.6 34.8 80.2 40.8 80 46.8C80 48.2 80 49.4 80.2 50.6C80.2 54.6 80.4 58.6 80.4 62.4C80.6 69.2 80.4 76.2 80.4 83C80.4 88.4 79.6 93.6 78.4 98.8C76.6 107.6 74 116 69.6 124C67.2 128.8 64.2 133 60.6 136.8C55.6 142 49.8 145.8 43.2 148.4C39.2 150 35.2 151.4 31 152.2C29.2 152.6 27.4 152.8 25.4 153C22.2 153.4 19 153.6 15.8 153.6C10.8 153.4 6.2 152.4 1.8 150.2C1.6 150.2 1.2 150 0.800003 149.8L0 149C3.4 141.8 5.6 134.2 8.8 127C11 127.4 13 127.6 15 128C17.8 128.4 20.4 128.4 23.2 128.4C25.2 128.4 27.2 128 29 127.2C38.8 123.2 46 116.6 50.6 107.2C52.4 103.8 53.2 100 53.6 96.4C53.8 94.8 54 93.2 54 91.6V90C53.4 90.6 53.2 91 53 91.2C51.8 92.8 50.6 94.6 49.2 96.2C45.2 100.6 40.6 104 34.8 105.6C27.4 107.6 20.6 106.2 14.6 101.4C13.4 100.4 12.4 99.4 11.6 98.2C9.20001 95.2 7.40001 91.8 6.40001 88.2C3.80001 79.6 3 71 3.8 62.4C4 57.4 4.80001 52.6 6.40001 48C11.2 34.4 19.4 23.6 31.8 16.2C35.8 14 40 12.6 44.6 12.2C48.4 12 52 12.6 55.4 14C56.4 14.4 57.4 14.6 58.4 15L59 13C60 9.4 61.4 5.8 63.4 2.6C63.8 1.8 64.4 0.999999 65 0C71.8 5 78.2 10 84.6 15ZM81.4 16.6C81.8 16 81.8 15.4 81.2 15C80.8 14.6 80.4 14.2 80 14C78.2 12.6 76.6 11.4 74.8 10.2C72.4 8.6 70 6.8 67.4 5C65.6 3.8 65.2 3.8 64.2 5.8C63.4 7.2 62.8 8.6 62.2 10C60.8 13.4 60 17 59.4 20.6L58.2 27.8C58.2 28.4 58.2 29 58.4 29.6C58.8 30.4 59.8 30.8 60.4 30C60.8 29.6 61.2 29.2 61.4 28.8C62.2 27.4 62.8 26.2 63.4 24.8C64 25 64 25.4 64 25.8V32.6C64 35 64.2 37.4 64.4 40C64.4 40.8 64.6 41.8 64.8 42.8C65 43.2 65.8 43.6 66.2 43.6C66.6 43.4 67 43 67.4 42.6C67.6 42.2 67.6 41.8 67.6 41.2C68.4 38 68.8 35 69.6 31.8C69.8 30.6 70 29.6 70.8 28.6C71 28.8 71.4 29 71.4 29.2C71.4 29.8 71.4 30.2 71.6 30.8C71.8 33 72.4 35.2 73 37.2C73.2 37.8 73.8 38.2 74.4 38C74.8 38 75.2 37.6 75.4 37.2C75.6 36.2 75.8 35.2 75.8 34.2C76.8 28 78.2 22 81.4 16.6ZM50.2 27.2C49.4 27.6 49.2 28.6 49.8 29C50 29.2 50.4 29.4 50.8 29.4L54 28.8C54.2 28.8 54.4 28.6 54.6 28.4C55 27.8 54.8 27 54.2 26.8C53.8 26.6 53.6 26.6 53 26.6L50.2 27.2ZM33.6 33.6C33.4 34 33.4 34.4 33.8 34.8C34.2 35.2 34.6 35.2 35.2 35C35.4 34.8 35.6 34.6 36 34.4C37.8 32.8 39.6 31.6 42 30.8C42.2 30.6 42.6 30.4 43 30.2C43.2 30 43.2 29.6 43.4 29.6C43.4 28.8 42.8 28.2 42.4 28.2C42 28.2 41.6 28.4 41.2 28.4C38.4 29.4 36.2 31 34 33C33.8 33 33.6 33.4 33.6 33.6ZM27.2 39.4C27.4 39.2 27.4 38.8 27.4 38.6C27.4 38 26.6 37.4 26.2 37.6C25.8 37.6 25.6 37.8 25.4 38C23 40 21.8 42.6 20.6 45.2C20.6 45.6 20.8 46 21 46.4C21.4 46.6 22.2 46.6 22.4 46.4C22.6 46.2 22.8 46 22.8 45.8C24.2 43.6 25.4 41.2 27.2 39.4ZM55.2 48.2C55.8 46.6 55.8 44.8 56 43C56 42 55.6 41.4 54.8 41C51.8 39.2 46.2 38.2 42.6 42.6C40.2 45.6 38 49 36.6 52.8C35.4 55.6 34.6 58.6 34 61.6L33.4 66.2H33.6V68.2C33.8 70.8 34.8 73.4 36.4 75.6C37.2 76.6 38.2 76.8 39.4 76.6C40 76.4 40.6 76 41.2 75.6C42 75 42.8 74.4 43.4 73.6C45.6 70.8 47.4 67.8 48.8 64.6C51 59.2 53 53.6 55.2 48.2ZM67.6 53.4C67.6 53 67.6 52.4 67.4 52C67.2 51.8 66.8 51.6 66.4 51.4C66 51.4 65.6 51.6 65.4 52.2C65.2 52.4 65.2 52.8 65.2 53C65 54.6 65 56 64.8 58C64.8 58.2 64.6 59 64.8 59.6C64.8 59.8 65.2 60.2 65.6 60.4C65.8 60.4 66.4 60.2 66.6 60C66.8 59.8 67 59.4 67 59L67.6 53.4ZM15 65.8C15 66.4 15.4 66.8 16 66.8C16.6 66.8 16.8 66.6 17 66C17.2 65.6 17.2 65.2 17.4 64.8C17.6 61.4 18.4 58.2 19.2 54.8C19.4 54.2 19.4 53.6 19.4 53C19.4 52.4 19 52 18.4 52C18 52 17.4 52.2 17.2 52.6C17 53 16.8 53.6 16.8 54C16 57.4 15.2 60.8 15 64.2V65.8ZM67.4 71.2C67.6 71.2 67.6 71.2 67.6 71.2V68C67.6 67.6 67.4 67 67.2 66.6C67 66.4 66.6 66 66.2 66.2C66 66.2 65.6 66.4 65.4 66.8C65.2 67 65.2 67.4 65.2 67.6V74.2C65.2 74.6 65.2 74.8 65.2 75.2C65.4 75.8 65.8 76.2 66.4 76.2C67 76 67.2 75.8 67.4 75.2V71.2ZM52.8 77.6C53 77 52.6 76.2 51.6 76C51.4 76.2 51 76.4 50.6 76.6C49 78 47.4 79.6 45.8 81.2C45.6 81.4 45.4 81.6 45.4 81.8C45 82.4 45.2 82.8 45.6 83.2C45.8 83.4 46.4 83.4 46.6 83.4C47.2 83.2 47.6 82.8 47.8 82.6C49.4 81.2 50.8 79.8 52.2 78.4C52.4 78 52.6 77.8 52.8 77.6ZM22 83.4C22.4 83 22.4 82.4 22 82L18.8 77.2C18.6 77 18.4 76.8 18 76.6C18 76.4 17.6 76.4 17.2 76.4C17 76.6 16.6 77 16.6 77.4C16.4 77.8 16.6 78.2 16.8 78.6C17.8 80 18.8 81.6 20 83C20 83.2 20.2 83.2 20.2 83.4C20.4 83.4 20.4 83.4 20.4 83.6C21 83.8 21.6 83.8 22 83.4ZM68.2 87.2V85.6C68.2 85.2 68.2 85 68.2 84.8C68 83.8 67.8 83.2 67 83.2C66.4 83 65.8 83.6 65.8 84.8L65.2 91C65.2 91.4 65.2 91.6 65.2 91.8C65.2 92.4 65.6 92.6 66.2 92.8C66.6 92.8 67 92.6 67.4 92.2C67.6 91.8 67.6 91.4 67.6 91L68.2 87.2ZM35 88.8C35.6 88.6 35.6 88 35.4 87.6L34.6 87C34.4 87 34.2 87 34 87L30.2 87.6C30 87.8 29.8 87.8 29.6 88C29.4 88.2 29.2 88.6 29.2 89C29.2 89.4 29.6 89.6 30 89.8C30.2 90 30.6 90 31 90C31.6 89.8 32.4 89.8 33 89.6C33.8 89.4 34.4 89.2 35 88.8ZM66 101.2C66.2 100.8 66.2 100.4 66.2 100.4C66 99.2 65.6 98.6 65 98.6C64.4 98.6 64 99 63.8 99.8L62 106.2C62 106.6 61.8 107 62 107.4C62 107.6 62.4 108 62.6 108.2C63 108.2 63.4 108.2 63.8 108C64 107.8 64.2 107.4 64.2 107.2L66 101.2ZM61.2 116.8C61.4 116.4 61.4 116 61.4 115.8C61.2 115.4 61 115 60.6 114.8C60.4 114.8 60 114.8 59.8 115C59.4 115.4 59 115.8 58.8 116.2C58 117.8 57.4 119.2 56.6 120.6C56.6 121 56.4 121.4 56.4 121.6C56.6 122 57 122.4 57.2 122.6C58 122.6 58.4 122.2 58.8 121.8L61.2 116.8ZM39.8 126.8C40.2 126 39.6 124.8 38.6 125C37.8 125 37 125.4 36.4 125.6C30.8 128.2 25.2 129.8 19 129.8C17.2 129.8 15.4 129.4 13.4 129C12.4 129 11.4 128.8 10.2 128.8C9.00001 130.8 8.40001 133 7.40001 135.2C6.40001 137.2 5.6 139.4 4.8 141.4C3.8 143.6 2.60001 145.6 2.20001 147.8C2.40001 148 2.40001 148.2 2.60001 148.2L4 148.8C7.6 149.8 11.4 150.6 15.2 151C18.4 151.2 21.4 151 24.6 150.4C28.2 149.8 31.6 148.4 34.8 146.8C35.2 146.6 35.6 146.4 35.8 146.2C36.4 145.6 36.2 144.6 35.6 144.4C35.2 144.2 34.6 144 34.2 144L32 144.6C28.6 145.4 25.2 145.4 21.8 144.4C21.4 144.4 21.2 144.2 20.4 144L24.8 143.4C29.6 142.8 34.2 141 38.2 138.2C39.2 137.6 39.6 136.8 39.2 136C38.8 135.2 38 135.2 37.2 135.4C35.2 135.8 33.2 136.2 31.2 136.4C28.6 136.6 26.2 136.8 23.2 136L26.8 134.6C31 133.2 34.8 131.2 38 128.4L39.2 127.6C39.4 127.4 39.6 127 39.8 126.8ZM53.2 128.8C53.2 128 52.4 127.2 51.8 127.4L50 128.6C49 129.6 47.8 130.6 46.8 131.6L46 132.2C45.8 132.6 45.8 133.2 46 133.6C46.4 134 46.8 134.2 47.4 134C47.6 133.8 47.6 133.8 47.8 133.8C49.4 132.2 51.2 130.8 52.8 129.4C53 129.2 53 128.8 53.2 128.8Z" fill="#F48722"/>
</svg>
