<svg width="37" height="112" viewBox="0 0 37 112" fill="none" xmlns="http://www.w3.org/2000/svg">
<path d="M16.2 0.00429911C23.8 0.00429911 31.8 6.4043 31.8 16.0043C31.6 24.6043 24.4 31.8043 15.8 31.6043C7 31.6043 0 24.6043 0 15.8043C0.2 6.6043 7.6 -0.195698 16.2 0.00429911ZM35.2 100.004L36.6 101.604C34.8 103.004 23.2 109.004 17.4 111.604C14.6 108.804 12 106.204 10 103.204C7.2 99.2043 5.6 95.0043 5 90.2043C4.4 86.0043 4 81.8043 3.6 77.4043C3 68.4043 2.8 59.2043 3 50.2043L3.6 41.8043C3.8 41.6043 3.8 41.6043 3.8 41.6043H4C12.4 41.2043 20.8 40.8043 29.2 40.6043H29.8C30 40.6043 30 40.8043 30.2 41.0043C30.2 41.2043 30.4 41.6043 30.4 42.2043C30 45.8043 29.8 49.4043 29.6 53.0043C28.8 62.4043 28.6 71.6043 29.4 80.8043C29.6 83.8043 30 86.8043 30.6 89.8043C31.2 93.6043 32.8 97.0043 35.2 100.004Z" fill="#DFD3BB"/>
</svg>
