<svg width="37" height="112" viewBox="0 0 37 112" fill="none" xmlns="http://www.w3.org/2000/svg">
<path d="M16.2 0.00429911C23.8 0.00429911 31.8 6.4043 31.8 16.0043C31.6 24.6043 24.4 31.8043 15.8 31.6043C7 31.6043 0 24.6043 0 15.8043C0.2 6.6043 7.6 -0.195698 16.2 0.00429911ZM35.2 100.004L36.6 101.604C34.8 103.004 23.2 109.004 17.4 111.604C14.6 108.804 12 106.204 10 103.204C7.2 99.2043 5.6 95.0043 5 90.2043C4.4 86.0043 4 81.8043 3.6 77.4043C3 68.4043 2.8 59.2043 3 50.2043L3.6 41.8043C3.8 41.6043 3.8 41.6043 3.8 41.6043H4C12.4 41.2043 20.8 40.8043 29.2 40.6043H29.8C30 40.6043 30 40.8043 30.2 41.0043C30.2 41.2043 30.4 41.6043 30.4 42.2043C30 45.8043 29.8 49.4043 29.6 53.0043C28.8 62.4043 28.6 71.6043 29.4 80.8043C29.6 83.8043 30 86.8043 30.6 89.8043C31.2 93.6043 32.8 97.0043 35.2 100.004Z" fill="#8B1A00"/>
<path d="M16.2 0.00429911C23.8 0.00429911 31.8 6.4043 31.8 16.0043C31.6 24.6043 24.4 31.8043 15.8 31.6043C7 31.6043 0 24.6043 0 15.8043C0.2 6.6043 7.60001 -0.195698 16.2 0.00429911ZM5 22.4043C5.2 22.4043 5.40001 22.0043 5.60001 21.8043L7.8 20.0043C12.6 16.2043 17.4 12.4043 22 8.6043C22.6 8.0043 23.2 7.6043 23.6 7.0043C24 6.8043 24 6.4043 24.2 5.8043C23.8 5.6043 23.4 5.2043 23 5.2043C22.6 5.2043 22.2 5.4043 21.8 5.8043L6.20001 17.8043C5.40001 18.4043 4.8 19.0043 4 19.8043C3.8 20.0043 3.40001 20.4043 3.20001 21.0043C3.00001 21.4043 3.00001 22.2043 3.60001 22.4043C4.00001 22.6043 4.4 22.6043 5 22.4043ZM26.2 11.8043C26.4 11.6043 26.6 11.2043 26.6 11.0043C26.4 10.2043 25.8 9.8043 25.2 10.0043C24.6 10.2043 24 10.6043 23.4 11.0043C18 14.4043 13.2 18.4043 8.40001 22.6043C8.00001 22.8043 7.60001 23.2043 7.20001 23.6043C6.80001 24.0043 6.80001 24.6043 7.20001 25.0043C7.40001 25.6043 8.2 25.8043 8.8 25.4043C9.4 25.0043 10 24.6043 10.4 24.2043C15.2 20.2043 20 16.2043 25.2 12.8043C25.6 12.4043 26 12.2043 26.2 11.8043ZM35.2 100.004L36.6 101.604C34.8 103.004 23.2 109.004 17.4 111.604C14.6 108.804 12 106.204 10 103.204C7.2 99.2043 5.6 95.0043 5 90.2043C4.4 86.0043 4.00001 81.8043 3.60001 77.4043C3.00001 68.4043 2.8 59.2043 3 50.2043L3.60001 41.8043C3.80001 41.6043 3.8 41.6043 3.8 41.6043H4C12.4 41.2043 20.8 40.8043 29.2 40.6043H29.8C30 40.6043 30 40.8043 30.2 41.0043C30.2 41.2043 30.4 41.6043 30.4 42.2043C30 45.8043 29.8 49.4043 29.6 53.0043C28.8 62.4043 28.6 71.6043 29.4 80.8043C29.6 83.8043 30 86.8043 30.6 89.8043C31.2 93.6043 32.8 97.0043 35.2 100.004ZM26.4 44.0043C26.6 43.6043 26.6 43.0043 26.2 42.8043C25.8 42.6043 25.4 42.4043 25 42.6043C24.6 42.6043 24.4 43.0043 24 43.2043L16.8 49.2043C13.6 52.0043 10.4 54.6043 7.40001 57.4043C6.80001 57.8043 6.4 58.4043 6 59.0043C5.6 59.8043 6.2 60.6043 7 60.6043C7.8 60.6043 8.20001 60.0043 8.60001 59.6043L22.8 47.6043C23.6 46.8043 24.6 45.8043 25.6 45.0043C25.8 44.8043 26.2 44.4043 26.4 44.0043ZM26 49.6043C26.4 49.0043 26.4 48.6043 26 48.2043C25.6 47.8043 25.2 47.8043 24.6 48.0043C24.4 48.2043 24 48.4043 23.8 48.8043C21.4 50.6043 19.2 52.4043 17 54.4043C13.6 57.2043 10.2 60.0043 6.8 63.0043C6.4 63.4043 6 63.8043 5.8 64.2043C5.6 64.6043 5.6 65.0043 5.8 65.4043L6.60001 66.0043C7.00001 66.0043 7.40001 65.8043 7.60001 65.6043C8.20001 65.4043 8.6 65.0043 9 64.6043C12.4 61.6043 15.8 58.6043 19.4 55.8043C21 54.2043 22.8 52.6043 24.6 51.2043L26 49.6043ZM25.6 65.4043L26.2 64.2043C26 63.8043 25.8 63.4043 25.4 63.2043C25.2 63.0043 24.8 63.2043 24.4 63.4043C24.2 63.4043 24 63.6043 23.8 63.8043C22.4 65.2043 21 66.6043 19.6 67.8043L6.60001 79.8043C6.00001 80.4043 5.4 81.0043 5 81.6043C4.6 82.2043 4.80001 82.8043 5.20001 83.2043C5.60001 83.6043 6.2 83.6043 6.8 83.4043L7.8 82.4043C10 80.4043 12.2 78.2043 14.4 76.2043C17.6 73.2043 20.8 70.2043 24 67.0043C24.6 66.6043 25 66.0043 25.6 65.4043ZM26.4 69.8043C26.2 69.2043 25.4 68.6043 24.8 69.0043C24.4 69.2043 24 69.6043 23.8 69.8043C21.8 71.6043 20 73.4043 18.2 75.2043L8.8 84.2043C8.4 84.6043 8.00001 85.0043 7.60001 85.4043C7.40001 85.6043 7.20001 86.0043 7.20001 86.2043C6.80001 86.8043 7.00001 87.4043 7.40001 87.8043C7.80001 88.2043 8.4 88.2043 9 87.8043L9.8 87.0043C12.4 84.4043 15 81.8043 17.6 79.4043L24.8 72.2043C25.2 71.8043 25.6 71.2043 26.2 70.6043L26.4 69.8043ZM12.8 102.404C13.4 102.604 13.8 102.004 14.2 101.604C15.8 100.004 17.2 98.4043 18.6 96.8043L25.6 89.2043C26 88.6043 26.4 88.0043 26.8 87.4043C27 87.0043 27 86.6043 26.6 86.2043C26.2 85.8043 25.6 85.8043 25.2 86.2043C24.8 86.4043 24.6 86.6043 24.4 87.0043C22.6 88.8043 21 90.4043 19.4 92.2043L12.8 99.4043C12.4 99.8043 12 100.404 11.6 101.004C11.4 101.604 11.8 102.404 12.8 102.404ZM17.4 105.404C18.2 105.404 18.6 105.004 19 104.404L27.8 93.2043C28 92.8043 28.4 92.6043 28.4 92.2043C28.4 91.8043 28.4 91.4043 28 91.0043C27.8 90.8043 27.4 90.8043 27 91.0043C26.6 91.0043 26.4 91.4043 26 91.6043C23 95.2043 20.2 98.8043 17.2 102.604C16.8 102.804 16.6 103.404 16.4 103.804C16.2 104.404 16.6 105.204 17.4 105.404Z" fill="#FF5708"/>
</svg>
