<svg width="136" height="121" viewBox="0 0 136 121" fill="none" xmlns="http://www.w3.org/2000/svg">
<path d="M132.094 70.4523C132.898 71.8498 133.518 73.3248 133.953 74.8773C133.585 75.0323 133.478 75.2942 133.109 75.4491C126.763 77.8997 120.572 80.7189 114.458 83.7226C113.167 84.265 111.954 84.9919 110.508 85.1656C109.52 83.8456 108.977 82.555 108.173 81.1575L100.236 66.9206C98.5794 63.4949 97.0001 60.2537 95.1589 56.9055L92.484 52.6061C92.0671 52.1305 91.7278 51.8393 91.3109 51.3636C89.6141 49.9074 88.4303 50.188 87.6528 52.4673C87.1184 53.7767 87.0302 55.1154 87.0196 56.6385C87.1827 59.6073 87.5301 62.4985 88.062 65.3123C89.2325 70.6779 90.403 76.0435 91.6804 81.1472C91.8542 82.5929 92.2123 83.961 92.4929 85.1447C90.9591 86.6572 79.071 92.9557 76.7516 94.1476C75.3166 92.7982 74.5416 90.9544 73.3979 89.2657C70.3836 84.675 67.0781 80.4237 63.695 75.9881C61.6107 73.6099 59.8951 71.0768 57.7333 68.5143C57.1614 67.6699 56.3277 66.7186 55.5715 65.9518C54.059 64.418 52.2259 63.6698 50.3928 62.9217C49.6847 62.7854 49.1316 63.0179 48.7334 63.6192C47.9665 64.3754 47.8303 65.0835 47.5871 66.0535C47.3627 68.1004 47.4002 70.2541 47.622 72.3304C48.1245 75.5903 48.6269 78.8503 49.5756 82.1397C50.9493 88.5047 52.5848 94.9766 55.1422 101.061L57.7771 107.33C58.0096 107.883 58.1646 108.252 58.4746 108.989C57.9214 109.222 57.8145 109.483 57.4458 109.638C49.9933 112.554 42.8027 115.576 35.5345 118.414C34.797 118.724 34.2439 118.957 33.6133 119.005L32.5177 117.947C30.9383 114.706 29.1747 111.542 27.5953 108.3C26.5585 106.35 25.7835 104.506 24.9311 102.478C22.3443 96.8399 20.495 90.8917 18.8301 84.8661C17.3977 79.3936 15.9653 73.9211 15.2704 68.1386C14.498 62.1718 14.5406 56.0793 15.3688 50.3075C16.0314 45.69 17.7414 41.5 20.2371 37.6307C21.509 36.0114 22.5965 34.4695 24.2853 33.3258C27.8471 30.9609 31.8153 30.5947 35.9865 31.2279C39.0033 31.6954 41.6995 32.9486 44.2889 34.4636C48.6819 37.173 52.4925 40.5612 56.0118 44.2887L60.9367 49.8119C61.6154 50.3944 62.0323 50.87 62.4492 51.3457C63.0798 51.2976 62.9248 50.9288 62.9542 50.4826L62.8286 49.6676C62.2405 43.6232 62.7 38.0064 63.8969 32.0795C64.987 26.4146 67.7258 21.5753 71.5121 17.1635C75.1141 12.8292 79.9372 10.368 85.3803 9.38186C87.8253 9.00502 90.1341 9.33631 92.4134 10.1138C95.6334 11.5808 98.3777 13.4645 100.801 16.1339C105.881 22.0259 110.224 28.2278 114.09 34.8466C116.968 40.1453 119.846 45.4441 122.433 51.0822C125.592 57.5647 128.935 63.9698 132.094 70.4523Z" fill="#003735"/>
<path d="M132.094 70.4523C132.898 71.8498 133.518 73.3248 133.953 74.8773C133.585 75.0323 133.478 75.2942 133.109 75.4492C126.763 77.8997 120.572 80.7189 114.458 83.7226C113.167 84.2651 111.954 84.9919 110.508 85.1656C109.52 83.8456 108.977 82.555 108.173 81.1575L100.236 66.9206C98.5794 63.4949 97.0001 60.2537 95.1589 56.9055L92.484 52.6061C92.0671 52.1305 91.7278 51.8393 91.3109 51.3636C89.6141 49.9074 88.4303 50.188 87.6528 52.4673C87.1184 53.7767 87.0302 55.1154 87.0196 56.6385C87.1827 59.6073 87.5301 62.4985 88.062 65.3123C89.2325 70.6779 90.403 76.0435 91.6805 81.1472C91.8542 82.5929 92.2123 83.961 92.4929 85.1447C90.9591 86.6572 79.071 92.9557 76.7516 94.1476C75.3166 92.7982 74.5416 90.9544 73.3979 89.2657C70.3836 84.675 67.0781 80.4237 63.695 75.9881C61.6107 73.6099 59.8951 71.0768 57.7333 68.5143C57.1614 67.6699 56.3277 66.7186 55.5715 65.9518C54.059 64.418 52.2259 63.6698 50.3928 62.9217C49.6847 62.7854 49.1316 63.0179 48.7334 63.6192C47.9665 64.3754 47.8303 65.0835 47.5871 66.0535C47.3627 68.1004 47.4002 70.2541 47.622 72.3304C48.1245 75.5904 48.6269 78.8503 49.5756 82.1397C50.9493 88.5047 52.5848 94.9766 55.1422 101.061L57.7771 107.33C58.0096 107.883 58.1646 108.252 58.4746 108.989C57.9214 109.222 57.8145 109.483 57.4458 109.638C49.9933 112.554 42.8027 115.576 35.5345 118.414C34.797 118.724 34.2439 118.957 33.6133 119.005L32.5177 117.947C30.9383 114.706 29.1747 111.542 27.5953 108.301C26.5585 106.35 25.7835 104.506 24.9311 102.478C22.3443 96.8399 20.495 90.8917 18.8301 84.8661C17.3977 79.3936 15.9653 73.9211 15.2704 68.1386C14.498 62.1718 14.5406 56.0793 15.3688 50.3075C16.0314 45.69 17.7414 41.5 20.2371 37.6307C21.509 36.0114 22.5965 34.4695 24.2852 33.3258C27.8471 30.9609 31.8153 30.5947 35.9865 31.2279C39.0033 31.6954 41.6995 32.9486 44.2889 34.4636C48.6819 37.173 52.4925 40.5612 56.0118 44.2887L60.9367 49.8119C61.6154 50.3944 62.0323 50.87 62.4492 51.3457C63.0798 51.2976 62.9248 50.9288 62.9542 50.4826L62.8286 49.6676C62.2405 43.6232 62.7 38.0064 63.897 32.0795C64.987 26.4146 67.7259 21.5753 71.5122 17.1635C75.1141 12.8292 79.9372 10.368 85.3803 9.38187C87.8253 9.00503 90.134 9.33631 92.4134 10.1138C95.6334 11.5808 98.3777 13.4645 100.801 16.1339C105.881 22.0259 110.224 28.2278 114.09 34.8466C116.968 40.1453 119.846 45.4441 122.433 51.0822C125.592 57.5647 128.935 63.9698 132.094 70.4523ZM85.0707 23.6137C86.8557 23.7312 88.272 24.0037 89.9501 24.3831C92.4138 25.0831 95.0619 25.7057 97.71 26.3282C98.2337 26.542 98.7575 26.7557 99.3881 26.7076C100.019 26.6595 100.679 26.1651 100.892 25.6414C100.844 25.0108 100.534 24.2733 100.011 24.0595L98.4394 23.4182C95.7913 22.7957 93.1432 22.1732 90.5726 21.735C88.817 21.1712 87.2164 20.9762 85.3539 20.6743C84.9077 20.6449 84.1995 20.5087 83.6464 20.7412C82.3852 20.8374 81.5114 21.8555 81.6076 23.1167C81.5783 23.563 81.7332 23.9317 81.8882 24.3005C82.6338 26.5905 83.3794 28.8805 84.3094 31.093L88.6598 39.8949C88.8923 40.448 89.2317 40.7393 89.5711 41.0305C90.2498 41.613 91.1717 41.2256 91.4148 40.2556C91.4442 39.8093 91.2117 39.2562 90.9792 38.7031C90.3886 36.7818 89.4293 35.0156 88.7318 33.3562C87.8793 31.328 86.92 29.5618 86.0675 27.5337C85.6026 26.4274 85.0601 25.1368 85.0707 23.6137ZM39.8379 62.5853C39.8672 62.139 39.8191 61.5084 39.5866 60.9553C39.1991 60.0334 38.5204 59.4509 37.9485 58.6065C36.1555 55.889 34.4399 53.3559 33.1999 50.4059C32.8125 49.484 32.0562 48.7171 31.5619 48.0571C31.3294 47.504 30.99 47.2127 30.6506 46.9215C29.6325 46.0477 28.3713 46.1439 27.6819 47.0845C26.8081 48.1027 26.3031 48.9658 25.6137 49.9064L21.253 57.5969C20.3499 59.0613 19.4467 60.5256 18.6211 62.1743C18.223 62.7756 18.4554 63.3287 18.7948 63.62C19.3961 64.0181 20.1042 64.1543 20.5023 63.5531C21.1623 63.0587 21.7448 62.38 22.0655 61.5944C24.163 58.3263 25.9987 54.9514 28.0962 51.6833C28.31 51.1595 28.7856 50.7427 29.1837 50.1414C30.1243 50.8308 30.5118 51.7527 30.8218 52.4902C32.6336 56.2846 35.0279 59.4002 37.3154 62.7777L37.5479 63.3309C37.8872 63.6221 38.411 63.8359 38.9641 63.6034C39.3328 63.4484 39.8085 63.0315 39.8379 62.5853ZM25.641 68.5525C26.464 71.0269 28.8984 72.1732 31.2953 71.1657C34.0315 70.4495 35.6453 64.9983 33.4835 62.4358C31.8161 60.5333 28.8767 60.2501 27.236 62.0245C25.5954 63.7988 25.0022 66.0007 25.641 68.5525ZM106.435 36.7627C106.28 36.3939 105.97 35.6564 105.475 34.9964C103.76 32.4633 99.928 32.1214 98.0442 34.8657C97.1705 35.8838 96.8205 37.1157 96.9167 38.3769C97.0317 40.715 97.9616 42.9275 100.105 44.4132C102.665 46.3745 105.877 45.2414 106.897 41.992C107.461 40.2364 107.21 38.6064 106.435 36.7627ZM31.2604 64.8889C31.541 66.0726 31.3753 67.227 30.5016 68.2451L29.9484 68.4776C29.7641 68.5551 29.3178 68.5257 28.9784 68.2345C28.6391 67.9432 28.4066 67.3901 28.2516 67.0213C28.126 66.2063 28.2622 65.4982 28.5829 64.7126C28.7966 64.1889 29.2723 63.772 29.9029 63.7239C30.611 63.8601 31.2122 64.2583 31.2604 64.8889ZM102.942 36.712C103.359 37.1876 103.514 37.5564 103.747 38.1095C104.289 39.4001 104.492 40.3995 103.88 41.5245C103.56 42.3101 102.745 42.4357 102.221 42.222C100.388 41.4738 99.3029 38.8926 99.8667 37.137C100.08 36.6132 100.294 36.0895 100.925 36.0414C101.74 35.9157 102.448 36.052 102.942 36.712ZM111.849 36.2228C111.694 35.854 111.354 35.5628 111.199 35.194C110.782 34.7184 110.074 34.5821 109.414 35.0765C108.861 35.309 108.647 35.8327 108.695 36.4633L109.083 37.3852C110.002 41.1208 111.29 44.7015 112.132 48.2527C112.848 50.989 113.303 53.6183 113.359 56.8489C112.496 56.3439 111.788 56.2077 111.371 55.732L106.376 52.6245C104.65 51.6145 102.924 50.6044 101.013 49.6719C100.752 49.565 100.305 49.5357 99.9659 49.2444C99.3353 49.2925 98.7821 49.525 98.5684 50.0487C98.3546 50.5725 98.4027 51.2031 99.004 51.6012C99.3434 51.8925 99.8671 52.1063 100.129 52.2131C102.301 53.2525 104.445 54.7382 106.51 56.0395C107.868 57.2045 109.332 58.1076 110.981 58.9333C111.582 59.3314 112.368 59.652 113.153 59.9727C114.385 60.3227 115.676 59.7802 116.026 58.5483L116.434 56.424C116.416 55.3471 116.213 54.3477 116.087 53.5327C115.499 47.4884 113.358 41.8796 111.849 36.2228ZM39.2396 73.0334C39.4533 72.5096 38.959 71.8496 38.4352 71.6358C37.9115 71.4221 37.2809 71.4702 37.0671 71.9939C36.5915 72.4108 36.3777 72.9346 36.164 73.4583L31.2876 83.5351C30.9669 84.3207 30.6463 85.1063 29.8794 85.8625C29.5401 85.5713 29.4626 85.3869 29.3851 85.2025L24.4146 74.9256C24.2596 74.5569 24.1046 74.1881 24.0271 74.0037C23.6878 73.7125 23.5328 73.3437 23.4553 73.1594C22.854 72.7612 22.0684 72.4406 21.5928 72.8575C21.0397 73.0899 20.719 73.8756 21.1065 74.7974L26.7744 86.7337C27.0844 87.4712 27.5788 88.1312 27.9956 88.6068C29.2462 90.0337 30.7693 90.0444 31.8569 88.5025C32.4394 87.8238 32.9444 86.9607 33.4494 86.0976C35.3144 82.2764 36.9176 78.3483 38.7827 74.5271C38.9964 74.0033 39.2102 73.4796 39.2396 73.0334ZM79.2009 55.5859C79.0753 54.7709 78.474 54.3728 77.659 54.4984C77.2903 54.6534 76.844 54.624 76.2909 54.8565C74.1853 55.5246 72.1572 56.3771 69.8672 57.1226C68.1303 57.6357 66.2865 58.4107 64.3653 59.0013C63.8122 59.2338 63.0747 59.5438 62.599 59.9607C61.939 60.455 61.8028 61.1631 62.0353 61.7163C62.4521 62.1919 62.9759 62.4056 63.6065 62.3575C64.0527 62.3869 64.6059 62.1544 65.159 61.9219C67.2646 61.2538 69.4771 60.3239 71.5827 59.6558C73.4265 58.8808 75.3477 58.2902 77.1915 57.5153L78.4821 56.9728C79.2196 56.6628 79.3559 55.9547 79.2009 55.5859ZM79.6714 63.4153C79.6233 62.7846 79.022 62.3865 78.3914 62.4346L77.4695 62.8221C74.5195 64.0621 71.5695 65.302 68.6195 66.542C68.2508 66.697 67.882 66.8519 67.5908 67.1913C67.1151 67.6082 66.7945 68.3938 67.2114 68.8694C67.4439 69.4225 68.2295 69.7432 68.7826 69.5107L70.0732 68.9682C71.3639 68.4257 72.577 67.6989 73.8676 67.1564C75.1582 66.6139 76.6332 65.994 78.1083 65.374C78.477 65.219 79.0301 64.9865 79.3214 64.6471C79.6126 64.3078 79.9039 63.9684 79.6714 63.4153ZM80.7138 72.089C81.005 71.7496 80.9569 71.119 80.8019 70.7503C80.5694 70.1971 80.0457 69.9834 79.6769 70.1384C79.2307 70.109 79.0463 70.1865 78.6776 70.3415L74.6213 72.0464C74.33 72.3858 73.7769 72.6183 73.3013 73.0351C72.8257 73.452 72.6119 73.9757 72.8444 74.5289C73.0769 75.082 73.8625 75.4026 74.4156 75.1701L79.5781 73.0002C80.0538 72.5834 80.4225 72.4284 80.7138 72.089ZM80.4655 81.3052C81.0186 81.0727 81.5236 80.2096 81.2136 79.4721C80.9812 78.919 80.0112 78.6758 79.458 78.9083C78.9824 79.3252 78.5843 79.9264 78.8943 80.6639C79.1268 81.217 79.9124 81.5377 80.4655 81.3052Z" fill="#22BEB9"/>
</svg>
