<svg width="68" height="94" viewBox="0 0 68 94" fill="none" xmlns="http://www.w3.org/2000/svg">
<path d="M67.0679 54.6309C67.2679 57.4309 66.6679 60.2309 65.8679 63.0309C63.8679 69.6309 60.6679 75.4309 56.0679 80.4309L44.2679 92.4309C44.0679 92.8309 43.8679 92.8309 43.4679 93.2309C36.4679 90.8309 29.8679 87.6309 23.2679 84.0309L24.6679 82.6309C28.6679 78.0309 32.6679 73.2309 35.8679 67.8309C36.8679 66.0309 37.8679 64.0309 38.2679 61.8309C39.0679 58.8309 38.0679 56.8309 35.2679 55.4309C33.8679 54.6309 32.0679 54.4309 30.4679 54.4309C26.0679 54.2309 21.8679 54.4309 17.6679 54.2309C16.0679 54.2309 14.2679 54.2309 12.6679 53.8309C8.46791 53.0309 5.26791 50.8309 2.46791 47.4309C1.46791 46.0309 0.867912 44.4309 0.467912 42.6309C-0.332088 38.6309 -0.132088 34.8309 1.26791 30.8309C3.86791 23.4309 8.26791 17.2309 14.2679 12.0309C23.0679 4.43094 33.2679 0.430941 44.8679 0.230937C48.2679 0.0309397 51.4679 -0.169058 54.8679 0.230937C55.6679 0.430941 56.4679 0.430941 57.2679 0.630939C57.4679 8.63094 56.4679 16.4309 56.8679 24.6309H52.8679C49.6679 24.6309 46.6679 25.0309 43.6679 25.6309C40.2679 26.2309 37.2679 27.8309 34.6679 30.0309C33.6679 31.0309 32.8679 31.8309 32.6679 33.0309C32.0679 34.8309 32.4679 35.8309 34.0679 36.6309C35.4679 37.4309 37.0679 37.6309 38.6679 37.8309C42.6679 38.2309 46.6679 38.8309 50.6679 39.2309C54.0679 39.6309 57.0679 40.6309 60.0679 42.6309C64.4679 45.4309 66.8679 49.4309 67.0679 54.6309Z" fill="#DFD3BB"/>
</svg>
