<svg width="56" height="47" viewBox="0 0 56 47" fill="none" xmlns="http://www.w3.org/2000/svg">
<g id="Volume Up">
<path id="fill-1" d="M31.6605 9.58999C31.5335 8.36275 31.4012 7.08946 31.0757 5.81888C30.1893 2.77923 27.7338 0.882837 25.101 0.882837C23.6324 0.877418 21.7749 1.78227 20.7218 2.69796L11.9925 10.0099H7.4228C4.05968 10.0099 1.35543 12.6025 0.844741 16.3439C0.410791 19.9362 0.304949 26.7171 0.844741 30.6698C1.31309 34.6224 3.89563 37.1771 7.4228 37.1771H11.9925L20.8911 44.5974C21.804 45.3912 23.4155 46.3014 24.8972 46.3014C24.9925 46.3042 25.0772 46.3042 25.1618 46.3042C27.8449 46.3042 30.2078 44.3373 31.0943 41.3058C31.4303 40.0163 31.5467 38.808 31.6605 37.6404L31.7796 36.4836C32.2347 32.7314 32.2347 14.4312 31.7796 10.7062L31.6605 9.58999Z" fill="#AC217B"/>
<path id="fill-4" opacity="0.4" d="M41.8795 9.70146C41.1518 8.62864 39.7097 8.36044 38.6539 9.10545C37.6088 9.85588 37.3494 11.3351 38.0771 12.4052C40.1013 15.3879 41.2153 19.3595 41.2153 23.5939C41.2153 27.8256 40.1013 31.7999 38.0771 34.7826C37.3494 35.8527 37.6088 37.3319 38.6566 38.0823C39.0482 38.3587 39.506 38.505 39.977 38.505C40.7364 38.505 41.4455 38.123 41.8795 37.4863C44.4355 33.7206 45.8459 28.7873 45.8459 23.5939C45.8459 18.4005 44.4355 13.4672 41.8795 9.70146Z" fill="#AC217B"/>
<path id="fill-6" opacity="0.4" d="M49.855 2.03589C49.1326 0.965787 47.6852 0.692164 46.6321 1.43988C45.5869 2.19031 45.3276 3.6695 46.0526 4.73961C49.4766 9.78401 51.3632 16.481 51.3632 23.5925C51.3632 30.7066 49.4766 37.4036 46.0526 42.448C45.3276 43.5208 45.5869 44.9973 46.6348 45.7477C47.0264 46.0241 47.4815 46.1704 47.9525 46.1704C48.7119 46.1704 49.4237 45.7884 49.855 45.1517C53.8135 39.3244 55.9938 31.6684 55.9938 23.5925C55.9938 15.522 53.8135 7.86324 49.855 2.03589Z" fill="#AC217B"/>
</g>
</svg>
