<svg width="961" height="788" xmlns="http://www.w3.org/2000/svg" xmlns:svg="http://www.w3.org/2000/svg">
 <g class="layer">
  <title>Layer 1</title>
  <path d="m188.67,744.85c-0.53,0.52 -0.77,1.26 -0.65,1.99l1.82,10.07c0.16,0.86 -0.2,1.72 -0.92,2.22c-0.7,0.51 -1.64,0.57 -2.41,0.16l-9.1,-4.73c-0.32,-0.17 -0.67,-0.26 -1.03,-0.27l-0.56,0c-0.19,0.03 -0.38,0.09 -0.56,0.19l-9.1,4.75c-0.45,0.22 -0.96,0.3 -1.46,0.22c-1.22,-0.23 -2.03,-1.38 -1.83,-2.6l1.83,-10.07c0.12,-0.74 -0.13,-1.49 -0.66,-2.01l-7.42,-7.16c-0.63,-0.61 -0.84,-1.51 -0.56,-2.32c0.28,-0.81 0.98,-1.4 1.83,-1.54l10.22,-1.47c0.78,-0.08 1.46,-0.55 1.81,-1.25l4.5,-9.19c0.11,-0.21 0.25,-0.39 0.41,-0.56l0.19,-0.14c0.1,-0.11 0.21,-0.19 0.33,-0.26l0.22,-0.09l0.35,-0.14l0.87,0c0.77,0.08 1.45,0.54 1.81,1.23l4.56,9.15c0.33,0.67 0.97,1.14 1.71,1.25l10.22,1.47c0.86,0.13 1.58,0.72 1.87,1.54c0.27,0.82 0.04,1.72 -0.6,2.32l-7.69,7.24z" fill="#F1D100" id="svg_5"/>
  <path d="m119.75,101.89c-0.53,0.53 -0.78,1.3 -0.66,2.05l1.83,10.36c0.16,0.88 -0.21,1.77 -0.92,2.28c-0.71,0.52 -1.64,0.58 -2.41,0.16l-9.11,-4.86c-0.31,-0.18 -0.67,-0.27 -1.03,-0.28l-0.55,0c-0.2,0.03 -0.38,0.09 -0.56,0.19l-9.11,4.89c-0.45,0.23 -0.96,0.31 -1.46,0.23c-1.21,-0.23 -2.03,-1.42 -1.83,-2.68l1.83,-10.36c0.12,-0.75 -0.12,-1.52 -0.65,-2.06l-7.43,-7.37c-0.62,-0.62 -0.83,-1.54 -0.55,-2.38c0.27,-0.84 0.98,-1.44 1.83,-1.58l10.22,-1.52c0.77,-0.08 1.46,-0.57 1.81,-1.28l4.5,-9.46c0.11,-0.21 0.24,-0.4 0.41,-0.57l0.19,-0.14c0.09,-0.11 0.2,-0.2 0.33,-0.28l0.22,-0.08l0.35,-0.15l0.87,0c0.77,0.08 1.45,0.56 1.81,1.26l4.56,9.42c0.33,0.69 0.97,1.16 1.7,1.28l10.23,1.52c0.86,0.13 1.58,0.74 1.87,1.58c0.27,0.84 0.03,1.77 -0.6,2.38l-7.69,7.45z" fill="#F1D100" id="svg_6"/>
  <path d="m832.43,584.05c-0.45,0.43 -0.66,1.05 -0.55,1.65l1.53,8.35c0.13,0.7 -0.18,1.42 -0.78,1.83c-0.59,0.42 -1.37,0.48 -2.01,0.13l-7.63,-3.91c-0.27,-0.14 -0.56,-0.22 -0.86,-0.23l-0.47,0c-0.16,0.03 -0.32,0.08 -0.47,0.16l-7.63,3.93c-0.38,0.19 -0.8,0.26 -1.22,0.19c-1.02,-0.19 -1.7,-1.15 -1.54,-2.15l1.54,-8.35c0.1,-0.61 -0.11,-1.23 -0.55,-1.66l-6.22,-5.94c-0.52,-0.5 -0.7,-1.25 -0.47,-1.92c0.23,-0.67 0.82,-1.16 1.53,-1.27l8.57,-1.23c0.65,-0.06 1.22,-0.45 1.51,-1.03l3.78,-7.62c0.09,-0.17 0.2,-0.32 0.34,-0.45l0.16,-0.12c0.08,-0.09 0.17,-0.16 0.27,-0.22l0.19,-0.07l0.29,-0.12l0.73,0c0.65,0.07 1.22,0.45 1.52,1.02l3.82,7.58c0.27,0.56 0.81,0.94 1.43,1.03l8.56,1.23c0.72,0.1 1.33,0.59 1.57,1.27c0.22,0.68 0.03,1.43 -0.5,1.92l-6.44,6z" fill="#F1D100" id="svg_7"/>
  <path d="m229.67,109.88c-0.26,0.25 -0.38,0.61 -0.32,0.96l0.89,4.89c0.07,0.42 -0.1,0.84 -0.45,1.08c-0.34,0.25 -0.8,0.28 -1.17,0.08l-4.43,-2.3c-0.16,-0.08 -0.33,-0.13 -0.5,-0.13l-0.27,0c-0.1,0.01 -0.19,0.04 -0.27,0.09l-4.43,2.31c-0.22,0.11 -0.47,0.14 -0.71,0.11c-0.6,-0.11 -0.99,-0.68 -0.89,-1.27l0.89,-4.89c0.05,-0.36 -0.06,-0.72 -0.32,-0.98l-3.62,-3.48c-0.3,-0.29 -0.4,-0.72 -0.26,-1.12c0.13,-0.39 0.47,-0.68 0.88,-0.75l4.98,-0.71c0.37,-0.04 0.71,-0.27 0.88,-0.61l2.19,-4.46c0.05,-0.1 0.12,-0.2 0.2,-0.27l0.09,-0.07c0.04,-0.05 0.1,-0.1 0.16,-0.13l0.11,-0.04l0.17,-0.07l0.42,0c0.37,0.04 0.71,0.26 0.88,0.6l2.22,4.44c0.16,0.33 0.47,0.55 0.83,0.61l4.97,0.71c0.42,0.06 0.77,0.35 0.91,0.75c0.13,0.4 0.02,0.84 -0.29,1.12l-3.74,3.53z" fill="#F1D100" id="svg_8"/>
  <path d="m741.92,122.8c-0.28,0.26 -0.4,0.64 -0.34,1.02l0.94,5.18c0.08,0.44 -0.11,0.88 -0.48,1.13c-0.36,0.27 -0.84,0.3 -1.23,0.09l-4.68,-2.43c-0.16,-0.09 -0.34,-0.14 -0.53,-0.14l-0.28,0c-0.1,0.01 -0.2,0.04 -0.29,0.09l-4.68,2.45c-0.23,0.11 -0.49,0.15 -0.75,0.11c-0.62,-0.11 -1.04,-0.71 -0.94,-1.33l0.94,-5.19c0.07,-0.37 -0.06,-0.76 -0.33,-1.03l-3.82,-3.68c-0.32,-0.31 -0.43,-0.77 -0.28,-1.19c0.14,-0.42 0.5,-0.72 0.94,-0.79l5.25,-0.76c0.4,-0.04 0.75,-0.28 0.93,-0.64l2.31,-4.73c0.05,-0.11 0.12,-0.2 0.21,-0.29l0.09,-0.07c0.05,-0.05 0.11,-0.1 0.17,-0.14l0.12,-0.04l0.18,-0.07l0.44,0c0.4,0.04 0.75,0.28 0.93,0.63l2.35,4.71c0.16,0.34 0.49,0.58 0.87,0.64l5.25,0.76c0.44,0.06 0.81,0.37 0.96,0.79c0.14,0.42 0.02,0.88 -0.3,1.19l-3.95,3.73z" fill="#F1D100" id="svg_9"/>
  <path d="m110.27,779.78c-0.29,0.27 -0.42,0.65 -0.36,1.03l0.99,5.18c0.08,0.44 -0.11,0.88 -0.5,1.14c-0.38,0.26 -0.88,0.29 -1.3,0.08l-4.92,-2.43c-0.17,-0.09 -0.36,-0.14 -0.56,-0.14l-0.3,0c-0.1,0.01 -0.21,0.04 -0.3,0.09l-4.92,2.45c-0.25,0.11 -0.52,0.16 -0.79,0.11c-0.66,-0.11 -1.1,-0.71 -0.99,-1.33l0.99,-5.19c0.06,-0.37 -0.07,-0.76 -0.36,-1.03l-4.01,-3.68c-0.34,-0.31 -0.45,-0.78 -0.3,-1.19c0.15,-0.42 0.53,-0.72 0.99,-0.79l5.52,-0.76c0.42,-0.04 0.79,-0.29 0.98,-0.64l2.43,-4.73c0.06,-0.11 0.14,-0.2 0.23,-0.29l0.1,-0.07c0.05,-0.05 0.11,-0.1 0.18,-0.14l0.12,-0.04l0.19,-0.07l0.46,0c0.42,0.04 0.79,0.28 0.98,0.63l2.47,4.71c0.18,0.34 0.52,0.58 0.92,0.64l5.53,0.76c0.46,0.06 0.85,0.37 1.01,0.79c0.14,0.42 0.02,0.88 -0.33,1.19l-4.15,3.72z" fill="#F1D100" id="svg_10"/>
  <path d="m17.12,237.3c-0.28,0.26 -0.4,0.65 -0.34,1.02l0.94,5.18c0.08,0.44 -0.11,0.88 -0.48,1.14c-0.36,0.26 -0.84,0.29 -1.23,0.08l-4.68,-2.43c-0.16,-0.09 -0.34,-0.13 -0.53,-0.14l-0.28,0c-0.1,0.02 -0.2,0.05 -0.29,0.1l-4.68,2.44c-0.23,0.12 -0.49,0.16 -0.75,0.12c-0.62,-0.12 -1.04,-0.72 -0.94,-1.34l0.94,-5.18c0.07,-0.38 -0.06,-0.76 -0.33,-1.03l-3.82,-3.69c-0.31,-0.31 -0.43,-0.77 -0.28,-1.19c0.14,-0.42 0.5,-0.72 0.94,-0.79l5.25,-0.76c0.4,-0.04 0.75,-0.28 0.93,-0.64l2.31,-4.73c0.05,-0.1 0.12,-0.2 0.21,-0.28l0.09,-0.08c0.05,-0.05 0.11,-0.1 0.17,-0.13l0.12,-0.04l0.18,-0.08l0.44,0c0.4,0.04 0.75,0.28 0.93,0.63l2.35,4.71c0.17,0.34 0.49,0.58 0.87,0.64l5.25,0.76c0.44,0.06 0.81,0.37 0.96,0.79c0.14,0.42 0.02,0.89 -0.3,1.19l-3.95,3.73z" fill="#F1D100" id="svg_11"/>
  <path d="m951.62,24.2c-0.55,0.52 -0.8,1.26 -0.67,1.99l1.87,10.07c0.16,0.86 -0.21,1.72 -0.95,2.22c-0.72,0.51 -1.68,0.57 -2.47,0.16l-9.35,-4.73c-0.33,-0.17 -0.69,-0.26 -1.06,-0.27l-0.57,0c-0.2,0.03 -0.39,0.09 -0.57,0.19l-9.36,4.75c-0.46,0.22 -0.98,0.3 -1.5,0.22c-1.25,-0.23 -2.08,-1.38 -1.87,-2.6l1.87,-10.07c0.13,-0.74 -0.12,-1.49 -0.67,-2.01l-7.62,-7.17c-0.64,-0.6 -0.86,-1.5 -0.57,-2.31c0.28,-0.81 1,-1.4 1.87,-1.53l10.5,-1.48c0.8,-0.08 1.5,-0.55 1.86,-1.25l4.62,-9.19c0.11,-0.21 0.26,-0.4 0.43,-0.56l0.19,-0.14c0.1,-0.11 0.21,-0.19 0.34,-0.26l0.23,-0.09l0.35,-0.14l0.89,0c0.8,0.08 1.5,0.54 1.86,1.23l4.69,9.15c0.34,0.67 0.99,1.14 1.75,1.25l10.5,1.48c0.89,0.12 1.63,0.71 1.92,1.53c0.28,0.82 0.04,1.72 -0.61,2.31l-7.9,7.25z" fill="#F1D100" id="svg_12"/>
 </g>
</svg>