<svg width="70" height="84" viewBox="0 0 70 84" fill="none" xmlns="http://www.w3.org/2000/svg">
<path d="M68.6625 5.4C68.8625 11.6 69.2625 17.6 69.0625 23.6C68.8625 36.6 67.0625 49.2 63.2625 61.6C62.2625 65 60.8625 68.2 58.8625 71.4C57.6625 73.4 56.0625 75.4 54.0625 77C52.8625 78 51.6625 79.2 50.2625 80C46.6625 82.8 42.6625 84 38.2625 84C32.2625 84 26.6625 82.4 21.4625 79.8C14.6625 76.6 9.86248 71.2 6.86248 64.4C4.26248 58.8 2.86247 52.8 1.86248 46.8C0.0624752 35 -0.137525 23 0.0624753 10.8C0.262475 7.8 0.262475 4.8 0.262475 1.8C0.262475 0.599997 0.662475 0.199997 1.86248 0.199997C3.86248 0.4 5.86248 0.599998 7.86248 0.599998C11.8625 0.599998 16.0625 0.6 20.0625 0.800003L22.6625 0.800003C22.6625 1.6 22.8625 2.2 22.8625 2.8L23.4625 30.8C23.6625 35.8 24.2625 41 25.2625 46C26.2625 51 29.2625 54.4 34.0625 56.4C36.6625 57.6 38.4625 57 40.0625 54.8C41.6625 52.8 42.6625 50.6 43.2625 48.2C44.4625 44.6 44.8625 41 45.2625 37.2C46.0625 30.6 46.4625 24 46.4625 17.2C46.4625 12.8 46.6625 8.4 46.6625 4C46.6625 2.8 46.4625 1.6 46.4625 0.199997C46.8625 0.199997 47.2625 0 47.4625 0C50.6625 0 66.4625 0.599999 68.0625 1C68.2625 2.4 68.6625 4 68.6625 5.4Z" fill="#003735"/>
<path d="M68.6625 5.4C68.8625 11.6 69.2625 17.6 69.0625 23.6C68.8625 36.6 67.0624 49.2 63.2624 61.6C62.2624 65 60.8624 68.2 58.8624 71.4C57.6624 73.4 56.0625 75.4 54.0625 77C52.8625 78 51.6624 79.2 50.2624 80C46.6624 82.8 42.6624 84 38.2624 84C32.2624 84 26.6625 82.4 21.4625 79.8C14.6625 76.6 9.86246 71.2 6.86246 64.4C4.26246 58.8 2.86246 52.8 1.86246 46.8C0.0624642 35 -0.137524 23 0.0624765 10.8C0.262477 7.8 0.262458 4.8 0.262458 1.8C0.262458 0.599999 0.662464 0.199997 1.86246 0.199997C3.86246 0.4 5.86246 0.599998 7.86246 0.599998C11.8625 0.599998 16.0625 0.599998 20.0625 0.800001L22.6624 0.800001C22.6624 1.6 22.8624 2.2 22.8624 2.8L23.4625 30.8C23.6625 35.8 24.2624 41 25.2624 46C26.2624 51 29.2625 54.4 34.0625 56.4C36.6625 57.6 38.4625 57 40.0625 54.8C41.6625 52.8 42.6624 50.6 43.2624 48.2C44.4624 44.6 44.8624 41 45.2624 37.2C46.0624 30.6 46.4625 24 46.4625 17.2C46.4625 12.8 46.6625 8.4 46.6625 4C46.6625 2.8 46.4625 1.6 46.4625 0.199997C46.8625 0.199997 47.2625 0 47.4625 0C50.6625 0 66.4625 0.599997 68.0625 0.999998C68.2625 2.4 68.6625 4 68.6625 5.4ZM57.6625 51C59.8625 43.8 61.0625 36.4 61.4625 29C61.8625 22.4 62.0624 15.8 62.2624 9.4H62.4625C62.4625 8.6 62.4625 8 62.4625 7.4C62.2625 6.8 61.6625 6.2 61.0625 6.2C60.4625 6.4 60.0625 6.8 60.0625 7.4L59.4625 17.2C59.2625 22.4 59.0624 27.6 58.6624 32.8C58.2624 38.4 57.2625 43.8 55.6625 49.2C54.0625 54.4 52.0625 59 48.8624 63.4C47.2625 65.6 45.0625 67.6 42.6625 68.8C40.0625 70.2 37.2625 70.8 34.4625 70C33.0625 69.6 31.8625 69.2 30.4625 68.6C27.2625 67.2 24.2624 65.2 22.2624 62.2C19.4624 57.6 16.8625 53 15.8625 47.8C15.4625 46.4 15.0625 45.2 14.8625 44C13.8625 40 13.0625 35.8 12.8625 31.8C12.2625 26 12.0625 20.4 11.6625 14.8C11.4625 12.6 11.4625 10.6 11.2625 8.4C11.0625 7.4 10.6625 6.6 10.0625 6.8C9.46248 6.8 8.86248 7.4 9.06248 8.6C9.06248 10.2 9.26246 11.6 9.26246 13.2L9.86246 26.4C10.0625 28.8 10.2625 31.2 10.6625 33.6C11.0625 38.2 12.2625 42.8 13.2625 47.2C14.2625 52.6 16.4625 57.2 19.0625 61.8C21.0625 65.2 23.6625 67.8 27.0625 69.6C29.2625 70.8 31.4625 71.6 33.8624 72.2C37.2625 73.2 40.6625 72.6 43.6625 71C47.0625 69.2 49.4625 66.8 51.4625 63.8C54.2625 59.8 56.0625 55.6 57.6625 51ZM5.26246 9.4C5.66246 9.4 6.26246 9 6.26246 8.4C6.46246 7.8 6.06247 7.4 5.46247 7.4C4.86247 7.4 4.46247 7.8 4.46247 8.2C4.46247 8.8 4.86246 9.2 5.26246 9.4ZM52.4625 15C52.2625 15.4 52.8625 16 53.4625 16C54.0625 16 54.6625 15.4 54.6625 15C54.6625 14.4 54.0625 13.8 53.4625 14C53.0625 14 52.4625 14.4 52.4625 15ZM16.0625 24C15.4625 24 15.0625 24.4 15.0625 24.8C15.0625 25.4 15.4625 25.8 15.8625 25.8C16.2625 25.6 16.6625 25.4 16.8625 25.2C16.8625 24.4 16.4625 24 16.0625 24ZM65.6625 27C66.2625 27 66.8624 26.6 66.8624 25.8C66.6625 25.6 66.4625 25.2 66.0625 25.2C65.4625 25 65.0624 25.4 64.8624 26C64.8624 26.4 65.2625 27 65.6625 27ZM52.4625 34.8C51.8625 35 51.6625 35.6 51.6625 36.2C51.8625 36.6 52.2624 37 52.6624 37C53.2624 37 53.6625 36.4 53.6625 35.8C53.6625 35.2 53.0625 34.8 52.4625 34.8ZM7.66245 36.6C7.86245 36 7.26245 35.4 6.66245 35.4C6.26245 35.4 5.46245 36 5.66245 36.4C5.66245 36.8 6.06246 37.2 6.26246 37.4C7.06246 37.6 7.66245 37 7.66245 36.6ZM61.6625 49.6C62.0625 49.4 62.2625 49 62.4625 48.8C62.4625 48 62.0625 47.6 61.4625 47.6C60.8625 47.6 60.4625 48 60.4625 48.4C60.4625 49.2 61.2625 49.8 61.6625 49.6ZM21.8624 49.4C21.4625 49.2 21.0625 49.6 21.0625 50.2C21.0625 50.6 21.4625 51.2 21.8624 51C22.2625 51 22.4625 50.6 22.8624 50.4C22.8624 49.8 22.4625 49.4 21.8624 49.4ZM47.4625 54.2C46.8625 54.2 46.2625 54.6 46.4625 55.2C46.4625 55.6 46.8624 55.8 47.2624 56.4C47.6624 56 48.0624 55.6 48.2624 55.2C48.4624 54.8 48.0625 54.4 47.4625 54.2ZM34.4625 62.2C34.0625 62 33.6624 62.6 33.6624 63C33.6624 63.6 34.0625 64 34.6625 64C35.2625 64 35.6625 63.4 35.6625 62.6C35.2625 62.4 34.8625 62.2 34.4625 62.2ZM17.4625 65.6C17.6625 65 16.8625 64.6 16.4625 64.6C15.8625 64.6 15.4625 65 15.4625 65.4C15.4625 66 15.8625 66.6 16.8625 66.4C16.8625 66.2 17.2625 66 17.4625 65.6ZM52.2624 69.8C52.4624 69 51.6625 68.4 51.0625 68.6C50.6625 68.6 50.2624 69.2 50.2624 69.6C50.2624 70.2 50.8624 70.6 51.4625 70.6C51.6625 70.4 52.0624 70.2 52.2624 69.8Z" fill="#22BEB9"/>
</svg>
