<svg width="85" height="154" viewBox="0 0 85 154" fill="none" xmlns="http://www.w3.org/2000/svg">
<path d="M84.6 15V15.8C83 20 82.2 24.4 81.6 28.8C80.6 34.8 80.2 40.8 80 46.8C80 48.2 80 49.4 80.2 50.6C80.2 54.6 80.4 58.6 80.4 62.4C80.6 69.2 80.4 76.2 80.4 83C80.4 88.4 79.6 93.6 78.4 98.8C76.6 107.6 74 116 69.6 124C67.2 128.8 64.2 133 60.6 136.8C55.6 142 49.8 145.8 43.2 148.4C39.2 150 35.2 151.4 31 152.2C29.2 152.6 27.4 152.8 25.4 153C22.2 153.4 19 153.6 15.8 153.6C10.8 153.4 6.2 152.4 1.8 150.2C1.6 150.2 1.2 150 0.8 149.8L0 149C3.4 141.8 5.6 134.2 8.8 127C11 127.4 13 127.6 15 128C17.8 128.4 20.4 128.4 23.2 128.4C25.2 128.4 27.2 128 29 127.2C38.8 123.2 46 116.6 50.6 107.2C52.4 103.8 53.2 100 53.6 96.4C53.8 94.8 54 93.2 54 91.6V90C53.4 90.6 53.2 91 53 91.2C51.8 92.8 50.6 94.6 49.2 96.2C45.2 100.6 40.6 104 34.8 105.6C27.4 107.6 20.6 106.2 14.6 101.4C13.4 100.4 12.4 99.4 11.6 98.2C9.2 95.2 7.4 91.8 6.4 88.2C3.8 79.6 3 71 3.8 62.4C4 57.4 4.8 52.6 6.4 48C11.2 34.4 19.4 23.6 31.8 16.2C35.8 14 40 12.6 44.6 12.2C48.4 12 52 12.6 55.4 14C56.4 14.4 57.4 14.6 58.4 15L59 13C60 9.4 61.4 5.8 63.4 2.6C63.8 1.8 64.4 0.999999 65 0C71.8 5 78.2 10 84.6 15ZM55.2 48.2C55.8 46.6 55.8 44.8 56 43C56 42 55.6 41.4 54.8 41C51.8 39.2 46.2 38.2 42.6 42.6C40.2 45.6 38 49 36.6 52.8C35.4 55.6 34.6 58.6 34 61.6L33.4 66.2H33.6V68.2C33.8 70.8 34.8 73.4 36.4 75.6C37.2 76.6 38.2 76.8 39.4 76.6C40 76.4 40.6 76 41.2 75.6C42 75 42.8 74.4 43.4 73.6C45.6 70.8 47.4 67.8 48.8 64.6C51 59.2 53 53.6 55.2 48.2Z" fill="#DFD3BB"/>
</svg>
