<svg width="112" height="84" viewBox="0 0 112 84" fill="none" xmlns="http://www.w3.org/2000/svg">
<path d="M111.239 76.3502C111.439 77.9502 111.439 79.5502 111.239 81.1502C110.839 81.1502 110.639 81.3502 110.239 81.3502C103.439 81.1502 96.6388 81.3502 89.8388 81.7502C88.4388 81.7502 87.0388 81.9502 85.6388 81.5502C85.2388 79.9502 85.2388 78.5502 85.0388 76.9502L83.2388 60.7502C83.0388 56.9502 82.8388 53.3502 82.4388 49.5502L81.6388 44.5502C81.4388 43.9502 81.2388 43.5502 81.0388 42.9502C80.0388 40.9502 78.8388 40.7502 77.2388 42.5502C76.2388 43.5502 75.6388 44.7502 75.0388 46.1502C74.0388 48.9502 73.2388 51.7502 72.6388 54.5502C71.6388 59.9502 70.6388 65.3502 69.8388 70.5502C69.4388 71.9502 69.2388 73.3502 69.0388 74.5502C67.0388 75.3502 53.6388 76.5502 51.0388 76.7502C50.2388 74.9502 50.2388 72.9502 49.8388 70.9502C48.8388 65.5502 47.4388 60.3502 46.0388 54.9502C45.0388 51.9502 44.4388 48.9502 43.4388 45.7502C43.2388 44.7502 42.8388 43.5502 42.4388 42.5502C41.6388 40.5502 40.2388 39.1502 38.8388 37.7502C38.2388 37.3502 37.6388 37.3502 37.0388 37.7502C36.0388 38.1502 35.6388 38.7502 35.0388 39.5502C34.0388 41.3502 33.2388 43.3502 32.6388 45.3502C31.8388 48.5502 31.0388 51.7502 30.6388 55.1502C29.4388 61.5502 28.4388 68.1502 28.4388 74.7502V81.5502C28.4388 82.1502 28.4388 82.5502 28.4388 83.3502C27.8388 83.3502 27.6388 83.5502 27.2388 83.5502C19.2388 83.3502 11.4388 83.3502 3.63876 83.1502C2.83876 83.1502 2.23876 83.1502 1.63876 82.9502L1.03876 81.5502C0.838763 77.9502 0.438764 74.3502 0.238764 70.7502C0.0387637 68.5502 0.0387629 66.5502 0.0387629 64.3502C-0.161237 58.1502 0.438764 51.9502 1.23876 45.7502C2.03876 40.1502 2.83876 34.5502 4.43876 28.9502C6.03876 23.1502 8.43876 17.5502 11.4388 12.5502C13.8388 8.55023 17.0388 5.35023 20.8388 2.75023C22.6388 1.75023 24.2388 0.750227 26.2388 0.350232C30.4388 -0.44977 34.2388 0.750225 37.8388 2.95023C40.4388 4.55023 42.4388 6.75023 44.2388 9.15023C47.2388 13.3502 49.4388 17.9502 51.2388 22.7502L53.6388 29.7502C54.0388 30.5502 54.2388 31.1502 54.4388 31.7502C55.0388 31.9502 55.0388 31.5502 55.2388 31.1502L55.4388 30.3502C57.2388 24.5502 59.8388 19.5502 63.2388 14.5502C66.4388 9.75023 70.8388 6.35023 76.0388 3.75023C81.0388 1.15023 86.4388 0.750224 91.8388 1.95023C94.2388 2.55022 96.2388 3.75023 98.0388 5.35023C100.439 7.95023 102.239 10.7502 103.439 14.1502C105.839 21.5502 107.439 28.9502 108.439 36.5502C109.039 42.5502 109.639 48.5502 109.839 54.7502C110.239 61.9502 110.839 69.1502 111.239 76.3502Z" fill="#DFD3BB"/>
</svg>
