<svg width="70" height="84" viewBox="0 0 70 84" fill="none" xmlns="http://www.w3.org/2000/svg">
<path d="M68.6625 5.4C68.8625 11.6 69.2625 17.6 69.0625 23.6C68.8625 36.6 67.0625 49.2 63.2625 61.6C62.2625 65 60.8625 68.2 58.8625 71.4C57.6625 73.4 56.0625 75.4 54.0625 77C52.8625 78 51.6625 79.2 50.2625 80C46.6625 82.8 42.6625 84 38.2625 84C32.2625 84 26.6625 82.4 21.4625 79.8C14.6625 76.6 9.86248 71.2 6.86248 64.4C4.26248 58.8 2.86247 52.8 1.86248 46.8C0.0624752 35 -0.137525 23 0.0624753 10.8C0.262475 7.8 0.262475 4.8 0.262475 1.8C0.262475 0.599997 0.662475 0.199997 1.86248 0.199997C3.86248 0.4 5.86248 0.599998 7.86248 0.599998C11.8625 0.599998 16.0625 0.6 20.0625 0.800003H22.6625C22.6625 1.6 22.8625 2.2 22.8625 2.8L23.4625 30.8C23.6625 35.8 24.2625 41 25.2625 46C26.2625 51 29.2625 54.4 34.0625 56.4C36.6625 57.6 38.4625 57 40.0625 54.8C41.6625 52.8 42.6625 50.6 43.2625 48.2C44.4625 44.6 44.8625 41 45.2625 37.2C46.0625 30.6 46.4625 24 46.4625 17.2C46.4625 12.8 46.6625 8.4 46.6625 4C46.6625 2.8 46.4625 1.6 46.4625 0.199997C46.8625 0.199997 47.2625 0 47.4625 0C50.6625 0 66.4625 0.599999 68.0625 1C68.2625 2.4 68.6625 4 68.6625 5.4Z" fill="#DFD3BB"/>
</svg>
