<?xml version="1.0" encoding="UTF-8"?>
<svg id="Layer_1" data-name="Layer 1" xmlns="http://www.w3.org/2000/svg" version="1.1" viewBox="0 0 95.3 106.4">
  <defs>
    <style>
      .cls-1 {
        fill: #630f00;
      }

      .cls-1, .cls-2, .cls-3 {
        stroke-width: 0px;
      }

      .cls-2 {
        fill: #fff;
      }

      .cls-3 {
        fill: #ff5708;
      }
    </style>
  </defs>
  <g id="Layer_1-2" data-name="Layer 1">
    <g>
      <path class="cls-3" d="M30.5,102.4c-9.7,0-17.2-4.6-21.3-13.1-4-8.4-5.6-16.5-5-24.6.5-7.9,1.5-14.3,3.1-20,2.9-9.5,7.2-17.6,13.2-24.8,3.4-4.1,7.1-7.3,11.4-9.9,3.9-2.5,8.5-4.2,14-5.1h.2c2.9-.4,5.4-.6,7.7-.6s4.5.2,6.6.5v-.6l3.8-.2h1.8c2.2,0,4.3.2,6.4.4,1.2,0,2.4.2,3.6.3h5.6c2.4,0,4.3,0,6,.3l2,.2,1,1.7c1.1,1.8,1,3.5,1,4.4v1.6c-.4,9.6-.8,18.6-1,28,0,2.6-.2,5.1-.3,7.7-.3,10.3-.7,21-.5,31.4v14.7c0,.5,0,1,0,1.4v2.8l-2.2,1c-.9.5-1.9.7-3,.7s-.6,0-.9,0h-.2c-5.6.2-11,.2-16.6.2s-.8,0-1.3,0-1.3,0-2.1,0h-.3l-3.9-.6-.9-2.1c-.8-1.9-.7-3.7-.6-4.9v-2.8c-.9.8-1.7,1.6-2.6,2.3-2.6,2.2-5.2,3.7-7.4,5h-.3c0,0-.3.3-.3.3-.9.4-1.7.7-2.4,1.1h-.2c-3.8,2-8.1,3.1-13,3.3h-1ZM39.7,59.1c.6,1.1,1.7,2.3,3.5,2.3s.6,0,1,0c1.1-.2,1.7-.3,2.4-.6h.2c3.3-1.4,6.1-3.9,8.4-7.4,0-.2.2-.3.2-.5,0-.3.3-.6.3-.7.4-1.6.7-3.3.9-4.7h0v-.3c.5-2.4-.2-4.5-.9-5.8-.4-.7-1.7-2.4-3.4-2.4s-.7,0-1.1.2h-.3c0,0-.3,0-.3,0-.8,0-1.5.5-2.1.9h-.2c-3.2,1.7-5.8,4.4-7.8,8.5-1.1,2.3-1.6,4.5-1.6,6.3s.2,2.9.8,4.2h0Z"/>
      <path class="cls-2" d="M65.9,8c3.3,0,6.5.5,9.8.6h5.7c1.9,0,3.7,0,5.5.3.6,1,.4,1.8.4,2.6-.4,9.8-.8,19.4-1,29.2-.4,13-1,26.2-.8,39.2v14.6c0,.4-.2,1-.2,1.6-.4.2-.8.2-1.2.2h-1c-5.6.2-11,.2-16.6.2s-2.2.2-3.4.2l-1.4-.2c-.6-1.4-.2-2.8-.2-4v-7.6c-.2-1.4,0-2.6-.4-4-.8.4-1.2,1-1.6,1.6-2.2,2.6-4.6,5-7.2,7.2-2.2,1.8-4.4,3.2-6.8,4.6-1,.4-2,.8-3,1.4-3.6,1.8-7.4,2.6-11.4,2.8h-.7c-8.1,0-14.2-3.6-17.7-10.8-3.4-7.2-5.2-14.6-4.6-22.6.4-6.6,1.2-13,3-19.2,2.6-8.6,6.6-16.4,12.4-23.4,3-3.6,6.4-6.6,10.4-9,3.8-2.4,8-3.8,12.6-4.6,2.4-.3,4.8-.5,7.2-.5s4.8.2,7.2.7c1,.2,2,.4,3.2.8,0-.6.2-1,.2-1.8h1.6M43.2,65.4c.5,0,1.1,0,1.7-.2,1.2-.2,2.2-.4,3.4-1,4.4-1.8,7.8-5,10.4-9,.4-.8.8-1.4,1-2.2.4-1.8.8-3.6,1-5.2.6-3,0-6-1.4-8.6-1.3-2.1-3.7-4.4-6.9-4.4s-1.5,0-2.3.4c-1.4.2-2.6.8-3.6,1.4-4.4,2.2-7.4,5.8-9.6,10.2-1.2,2.6-2,5.4-2,8s.4,4.2,1.2,6c1.4,2.6,3.8,4.6,7.1,4.6M65.9,0h-2l-7.2.4h-3c-2.5,0-5.2.2-8.2.6h-.4c-6,1-11,2.9-15.4,5.7-4.7,2.8-8.7,6.3-12.4,10.7-6.3,7.7-10.9,16.2-13.9,26.2h0c-1.7,6-2.8,12.7-3.3,20.9-.7,8.9,1.1,17.6,5.3,26.6h0c4.8,9.9,13.7,15.3,24.9,15.3s.6,0,.8,0h.2c5.5-.3,10.2-1.5,14.6-3.6h.3c0,0,.3-.3.3-.3.5-.3,1.1-.5,1.9-.8l.5-.2.5-.3c1.3-.8,2.8-1.7,4.4-2.7,0,.4.3.8.4,1.2l1.8,4.1,4.5.6,1.4.2h1.2c1,0,1.8,0,2.4,0h1c5.6,0,10.9,0,16.5-.2h1.1c1.7,0,3.3-.4,4.8-1.1l4.4-2.2v-4.5c0-.4.2-1.1.2-2v-14.6h0c-.2-10.4.2-21,.5-31.2,0-2.6.2-5.1.3-7.7h0c.2-9.3.6-18.4.9-27.9v-1.3h0v-.2c0-1.1.2-3.7-1.5-6.6l-2-3.4-3.9-.4c-1.9-.2-3.8-.3-6.4-.3h-5.4c-1.1,0-2.2-.2-3.3-.3-2.1-.2-4.4-.4-6.7-.4h0v-.2ZM51.3,43.2h.6l.3-.2s0,.2.2.3c.4.8.7,1.8.5,3v.6c0,1.1-.4,2.5-.8,3.9h0c0,.2,0,.3-.2.4-1.9,2.8-4,4.6-6.5,5.6h-.3c0,0-.3.2-.3.2,0,0-.2,0-1.1.3h0c-.2-.7-.4-1.4-.4-2.5s.4-2.8,1.2-4.5c1.6-3.2,3.5-5.3,6-6.5h.3c0,0,.3-.3.3-.3.4-.2.6-.3.7-.3h-.5Z"/>
    </g>
  </g>
  <g id="Layer_2" data-name="Layer 2">
    <path class="cls-1" d="M49.7,16.6c-.6,0-1.2.6-1.2,1.2s.6,1,1.2,1,1-.4,1-1-.6-1.2-1-1.2Z"/>
    <path class="cls-1" d="M50.9,20c-1.4,0-2.6,1.4-2.6,3s1,2.4,2.6,2.4,2.6-1.4,2.6-3-1.2-2.4-2.6-2.4Z"/>
    <path class="cls-1" d="M56.5,22c-.6,0-1.2.4-1.2,1s.6,1,1.2,1.2c.4,0,1-.6,1-1.2s-.4-1-1-1Z"/>
    <path class="cls-1" d="M46.1,23.4c-.6,0-1,.4-1,1s.4,1,1,1,1-.6,1-1c0-.6-.4-1-1-1Z"/>
    <path class="cls-1" d="M51.1,28.8c.8,0,1.2-.6,1.2-1.2-.2-.6-.6-1-1-1-.8,0-1.4.6-1.2,1.2,0,.6.6,1,1,1Z"/>
    <path class="cls-1" d="M73.7,31c-.6.2-1,.6-1,1.2s.6,1,1.2,1c.6-.2,1.2-.8,1-1.4s-.6-.8-1.2-.8Z"/>
    <path class="cls-1" d="M73.9,40.4c1.6,0,3.2-1.4,3.2-3s-1.4-2.8-3-2.8-2.8,1.6-2.8,3.2,1.2,2.6,2.6,2.6Z"/>
    <path class="cls-1" d="M68.9,37.8c.4-.2,1-.6,1-1.2s-.6-1-1.2-1-1,.4-1,1,.6,1.2,1.2,1.2Z"/>
    <path class="cls-1" d="M79.9,38c.6,0,1-.6,1-1,0-.6-.4-1-1-1s-1.2.4-1.2,1c.2.4.6,1,1.2,1Z"/>
    <path class="cls-1" d="M23.1,42c0,.6.4,1.2,1,1.2s1.2-.4,1.2-1-.4-1.2-1-1.2-1,.4-1.2,1Z"/>
    <path class="cls-1" d="M74.3,42.2c-.6.2-1,.6-1,1.2.2.6.6,1,1.2,1,.6-.2,1-.6,1-1.2s-.6-1-1.2-1Z"/>
    <path class="cls-1" d="M23.5,50.4c1.8,0,3.6-1.8,3.4-3.6,0-.4,0-.6-.2-1-.6-.8-1.2-1.8-2.4-2-1.4,0-2.2.8-2.6,1.8-.4.8-.6,1.6-.8,2.2,0,1.4,1.2,2.4,2.6,2.6Z"/>
    <path class="cls-1" d="M18.5,48.2c.8,0,1.4-.6,1.4-1.2s-.6-1-1.2-1-1,.4-1.2,1c0,.6.4,1.2,1,1.2Z"/>
    <path class="cls-1" d="M29.1,48.4c.6,0,1.2-.4,1.2-1s-.4-1-1-1.2c-.6,0-1.2.6-1.2,1,0,.6.4,1.2,1,1.2Z"/>
    <path class="cls-1" d="M23.5,54.4c.6,0,1.2-.6,1.2-1.2s-.6-1.2-1-1c-.8,0-1.2.6-1.2,1.2.2.6.4.8,1,1Z"/>
    <path class="cls-1" d="M74.3,65c0-.6-.4-1.2-1-1.2s-1,.4-1.2,1c0,.6.4,1.2,1,1.2s1-.4,1.2-1Z"/>
    <path class="cls-1" d="M76.5,70.6c.4-1.4,0-2.4-1.4-3-.6-.2-1.2-.4-1.8-.4-.8-.2-1.4,0-2,.6-.6.8-1,1.6-1,2.4,0,1.2.6,2.2,1.6,2.8,1.8.8,3.8-.2,4.6-2.4Z"/>
    <path class="cls-1" d="M67.7,71.2c.6,0,1-.6,1-1.2s-.4-1-1-1c-.6.2-1.2.6-1.2,1.2s.6,1,1.2,1Z"/>
    <path class="cls-1" d="M78.9,71.4c.4,0,1-.6,1-1.2s-.4-1-1-1-1.2.6-1.2,1c0,.6.6,1.2,1.2,1.2Z"/>
    <path class="cls-1" d="M34.9,73.4c-.6,0-1.2.4-1.2,1s.6,1,1.2,1,1-.4.8-1.2c0-.4-.4-.8-.8-.8Z"/>
    <path class="cls-1" d="M73.5,76.8c.6,0,1.2-.6,1-1,0-.6-.6-1.2-1-1.2-.6,0-1.2.8-1.2,1.4.2.4.8,1,1.2.8Z"/>
    <path class="cls-1" d="M37.9,80.4c.2-1-.4-1.8-1.2-2.4-1.4-.8-3.4-.6-4.4.8-1.2,1.4-1.2,3.4-.2,4.4.6.8,1.4,1,2.6,1s.8-.2,1.4-.6c1.2-.6,1.6-1.8,1.8-3.2Z"/>
    <path class="cls-1" d="M28.7,81.4c.6,0,1.2-.4,1-1,0-.6-.4-1-1-1s-1,.6-1,1c0,.6.6,1,1,1Z"/>
    <path class="cls-1" d="M39.7,82.2c.6,0,1.2-.6,1.2-1.2-.2-.6-.8-1-1.2-1-.6,0-1,.6-1,1.2s.6,1,1,1Z"/>
    <path class="cls-1" d="M35.1,87.8c.2-.6-.2-1-.8-1-.6-.2-1,.2-1.2,1,0,.4.4.8.8,1,.6,0,1.2-.4,1.2-1Z"/>
  </g>
</svg>