<?xml version="1.0" encoding="UTF-8"?>
<svg id="Layer_1" data-name="Layer 1" xmlns="http://www.w3.org/2000/svg" version="1.1" viewBox="0 0 87.5 103.9">
  <defs>
    <style>
      .cls-1 {
        fill: #630f00;
      }

      .cls-1, .cls-2, .cls-3 {
        stroke-width: 0px;
      }

      .cls-2 {
        fill: #fff;
      }

      .cls-3 {
        fill: #ff5708;
      }
    </style>
  </defs>
  <g id="Layer_1-2" data-name="Layer 1">
    <g>
      <path class="cls-3" d="M49.3,99.9c-3.6,0-6.9-.6-9.7-1.1-9.7-2-18-6.4-24.6-13.1-2.6-2.6-4.6-5.6-6-8.8-1.5-3.2-3-6.4-3.7-10.1-.6-3.6-1.3-7.2-1.3-10.9v-.4c.2-2.2.7-4.3,1.1-6.4,1.9-9.2,5.8-17.6,11.6-25.1,5-6.6,10.7-11.4,17.5-14.7,1.7-.9,3.3-1.7,4.9-2.3.5-.2,1.1-.5,1.7-.7h.2c2.3-1,4.5-1.5,7.1-1.7,3-.3,5.7-.5,8.3-.5h3c3.1,0,6.1.5,9.1,1.4,3,.8,5.9,2.1,8.8,3.3l3.3,1.4-1.1,3.4c-.5,1.8-1.2,3.3-1.8,4.7-.4.9-.8,1.7-1,2.5v.2l-3.1,7.2c-1,2.5-2,4.7-3,6.9l-.9,2-2.2.3c-3.1.4-5.3.8-7.5,1.3h-.2c-2.2.4-4.4.9-6.3,1.6h0c-1.7.6-3,1.4-4.6,2.8-3,2.7-5.1,6.1-6.4,10.5-1,3.8,0,6.8,3.1,9.2,2,1.6,3.5,2.3,4.9,2.3s2.8-.2,4.3-.5h.4c2.3-.3,4.5-1.1,7-2.6l5.1-2.9,15.6,28.6-2.1,2.1c-.7.7-1.4,1.1-2,1.4-4.7,3.3-9.7,5.4-15.3,6.5l-9.5,1.8h0c-1.4.2-2.8.3-4.2.3h-.3Z"/>
      <path class="cls-2" d="M56.3,8h2.9c2.8,0,5.4.4,8,1.2,2.8.8,5.6,2,8.4,3.2-.8,2.6-2,4.8-2.8,7l-3,7.2c-1,2.4-2,4.6-3,6.8-2.8.4-5.2.8-7.8,1.4-2.4.4-4.8,1-7,1.8-2.4.8-4.2,2-6,3.6-3.8,3.4-6.2,7.6-7.6,12.4-1.4,5.4.2,10,4.4,13.4,2.2,1.8,4.6,3.2,7.4,3.2s3.4-.2,5.2-.6c3.2-.4,6-1.6,8.6-3.2l1.4-.8,12.2,22.4c-.4.4-.8.6-1.2.8-4.2,3-8.8,5-14,6l-9.4,1.8c-1.2.2-2.5.2-3.7.2-3.1,0-6-.5-8.9-1-8.6-1.8-16.2-5.6-22.6-12s-4-4.8-5.2-7.6c-1.4-3-2.8-6-3.4-9.2-.6-3.4-1.2-6.8-1.2-10.2.2-2,.6-4,1-6,1.8-8.6,5.4-16.4,10.8-23.4,4.4-5.8,9.6-10.4,16.2-13.6,2.2-1.2,4.2-2,6.4-3,2-.8,3.8-1.2,6-1.4,2.6-.3,5.3-.5,7.9-.5M56.3,0c-2.7,0-5.5.2-8.7.5-3,.3-5.5.9-8.2,1.9h-.4c-.6.4-1.1.6-1.6.8-1.6.7-3.3,1.4-5.1,2.4-7.3,3.6-13.5,8.8-18.9,15.9C7.3,29.5,3.2,38.5,1.2,48.2h0c-.4,2.2-.9,4.4-1.1,6.8v.8c0,4.1.7,7.9,1.3,11.6h0c.8,4.1,2.5,7.8,4,11,1.6,3.6,3.9,7.1,6.8,10,7.2,7.2,16.2,12,26.6,14.2h0c2.8.6,6.5,1.2,10.5,1.2s3.2,0,4.8-.3h.4l9.4-1.8c6.1-1.2,11.6-3.5,16.7-7,.7-.4,1.7-1,2.7-2l4.2-4.2-2.9-5.3-12.2-22.4-3.9-7.2-7.1,4.1-1.4.8h-.2c-1.9,1.3-3.7,2-5.4,2.2h-.8c-1.2.4-2.4.5-3.5.5s-.7,0-2.3-1.4c-1.8-1.5-2.3-2.9-1.7-5.1,1.1-3.6,2.8-6.4,5.2-8.6s2.1-1.6,3.2-2h.2c1.7-.6,3.6-1.1,5.6-1.4h.4c2.1-.5,4.1-.8,7.1-1.3l4.3-.6,1.8-4c1-2.2,2.1-4.5,3.1-7l3-7.2v-.4c.3-.7.7-1.4,1-2.3.6-1.5,1.4-3.2,2-5.1l2.1-6.9-6.6-2.8c-3-1.3-6-2.6-9.3-3.5-3.3-1-6.6-1.5-10-1.5h-3.1.2Z"/>
    </g>
  </g>
  <g id="Layer_2" data-name="Layer 2">
    <path class="cls-1" d="M67.4,15.1c0,.2-.2.6-.4.8l-5,12.2c-.2.4-.2.8-.2,1.2-.2.4.2.8.6,1,.6.4,1,.2,1.4-.2.4-.4.6-.8.8-1.2l4.8-11.4c.2-.6.2-1.2.4-1.8-.2-.4-.4-.8-.8-1-.4-.4-1.2-.2-1.6.4Z"/>
    <path class="cls-1" d="M57.8,25.7c0,.8,0,1.4.6,1.6.4.2.8.2,1.2,0,.2-.2.6-.6.6-1l3-7.8c.2-.6.4-1,.4-1.4s-.2-.8-.6-1c-.2-.2-.8-.2-1,0-.4.2-.6.6-.8,1-1,2.6-2.2,5-3.2,7.6,0,.4-.2.8-.2,1Z"/>
    <path class="cls-1" d="M54.6,21.3c-.2.6.2,1.2.6,1.4.6.2,1.2-.2,1.4-.6.4-.8.6-1.6.8-2,.2-1-.2-1.6-.6-1.6-.6-.2-1.2,0-1.4.6-.4.6-.6,1.4-.8,2.2Z"/>
    <path class="cls-1" d="M49.4,84.7c.6,0,1-.6,1-1.2s-.4-1-1-1.2h-1c-1.6-.2-3.4-.2-5-.4-4.2-.6-8.2-1.8-11.8-4-5.2-3.4-8.8-8.2-10-14.4-.8-3.4-.8-6.8-.2-10,1.4-6.4,4.2-12,8.4-17,4-5,8.8-9,14.4-12.2l1.8-1.2c.4-.4.4-1.2,0-1.6-.2-.4-.8-.6-1.2-.6l-1.8,1c-4,2.2-7.8,5.2-11.2,8.4-4.8,4.8-8.8,10.2-11.2,16.6-2,4.8-2.8,10-2,15,1,8.4,5.4,14.6,12.6,18.6,4.8,2.8,9.8,4,15.4,4.2.8,0,1.8.2,2.8,0Z"/>
    <path class="cls-1" d="M73.2,86.9c.4-.2.6-.8.4-1.2,0-.4-.4-1-.6-1.4l-7.8-13.8c-.2-.6-.6-1-.8-1.2s-.6-.4-.8-.4c-.8,0-1.6.8-1.4,1.6l.6,1c2.6,4.8,5.4,9.4,8,14.2.2.4.4.8.8,1.2.4.4,1.2.4,1.6,0Z"/>
    <path class="cls-1" d="M67.6,86.7c.6-.2.6-.8.6-1.2l-.6-1.2c-1.8-3.4-3.8-7-5.8-10.6-.2-.4-.4-.8-.8-1.2-.2-.2-.6-.2-.6-.2-1-.2-1.6.8-1.6,1.4.2.6.6,1,.8,1.6,1.8,3.2,3.8,6.4,5.6,9.8l.6.8c.2.2.2.4.4.6.4.2,1,.4,1.4.2h0Z"/>
    <path class="cls-1" d="M62,86.1c.4-.2.8-.8.4-1.4-.8-1.6-1.6-3.2-2.6-4.8-.2-.4-.6-.4-.8-.6-1.2,0-1.6,1-1.2,1.8.8,1.6,1.8,3.2,2.6,4.6.4.6,1,.8,1.6.4Z"/>
  </g>
</svg>