<?xml version="1.0" encoding="UTF-8"?>
<svg xmlns="http://www.w3.org/2000/svg" version="1.1" viewBox="0 0 98.1 148">
  <defs>
    <style>
      .cls-1 {
        fill: #22beb9;
      }

      .cls-1, .cls-2, .cls-3 {
        stroke-width: 0px;
      }

      .cls-2 {
        fill: #003735;
      }

      .cls-3 {
        fill: #fff;
      }
    </style>
  </defs>
  <g id="Layer_1" data-name="Layer 1">
    <g>
      <path class="cls-1" d="M37.3,144c-7.9-.2-14.8-2.9-20.5-8-1-.8-1.8-1.7-2.7-2.6-.4-.4-.8-.8-1.1-1.2h-.1c-2.6-3-4.8-6.6-6.2-10.7-2-6-2.8-11.1-2.6-16.2,0-2.8,0-5.7.2-8.6.4-5.7,2.2-10.7,4-15.7,2.9-7.4,7.7-14,14.4-19.5,4.4-3.7,8.4-6.2,12.7-8,2.1-1,4.3-1.7,6.4-1.9h.1s.2,0,.2,0c1.8,0,3.7-.2,5.6-.2,2.8,0,5.2.2,7.5.7,1.2.2,2.3.5,3.4.8V17.6c0-1.5,0-3.1,0-4.6,0-1.5.1-3.1.1-4.6v-4h4c.3,0,.7-.2,1.3-.2,2-.2,3.9-.2,5.9-.2,5.6,0,11.3.2,16.9.4,0,0,.2,0,.2,0,.2,0,.5,0,.7,0,1.5,0,2.7.4,3.8,1.2l1.4,1.1.8,8h0c.5,9,.3,18.1.1,26.9,0,1.8,0,3.6-.1,5.5h0c-.4,8.4-.6,16.9-.6,25.3-.2,11.4,0,23,.2,34.1,0,7.8,0,15.2-.4,22.9h0c0,.1,0,.2,0,.2-.2,1.6-.2,3-.2,4.6v2.3l-1.9,1.2c-1.1.7-2.4,1-3.8,1s-.5,0-.7,0c0,0-.2,0-.2,0-2.4,0-4.8.1-7.1.2-2.3,0-4.7,0-7,.2h-.2c-.7,0-1.5,0-2.3,0-.9,0-1.8.1-2.7.1h-5.5l-.3-3.2c-2.2,1.4-4.4,2.6-6.6,3.7-5.8,2.9-11.3,4.3-17.1,4.3h-.1ZM42.6,89c-2.8,3.9-4.2,8.2-4.2,13,0,.3.2,1.6.3,2.3.3,2.1,2.6,4.2,4.7,4.3.1,0,.3,0,.5,0,3.3,0,6-1.3,8.2-4.1,2.7-3.5,4.5-7,5.2-10.4v-.2c.5-1.8.6-3.4.4-4.8v-.2c-.3-1.9-1.1-3.2-2.6-4.1-.7-.4-1-.6-1.3-.6h-.1c-.2,0-.4,0-.6,0-4.4,0-7.9,1.6-10.4,4.8Z"/>
      <path class="cls-3" d="M70,8c5.6,0,11.2.2,16.8.4.3,0,.6,0,1,0,.5,0,1,0,1.4.4l.6,6.2c.6,10.6.2,21.2,0,32-.4,8.4-.6,17-.6,25.4-.2,11.4,0,22.8.2,34.2,0,7.6,0,15-.4,22.6-.2,1.8-.2,3.4-.2,5-.6.4-1.2.4-1.8.4s-.7,0-1,0c-4.8.2-9.4.2-14.2.4-1.6,0-3.4.2-5,.2h-1.8c-.2-2.2,0-4.2-.6-6.6-.4.4-1,.6-1.2,1-3.2,2.6-6.8,4.6-10.6,6.6-4.8,2.4-9.8,3.8-15.2,3.8-6.8-.2-12.8-2.4-18-7-1.2-1-2.4-2.4-3.6-3.6-2.4-2.6-4.2-5.8-5.4-9.2-1.6-4.8-2.6-9.6-2.4-14.8,0-2.8,0-5.6.2-8.4.4-5.2,2-9.8,3.8-14.6,2.8-7.2,7.4-13,13.2-17.8,3.6-3,7.4-5.6,11.8-7.4,1.6-.8,3.4-1.4,5.2-1.6,1.9,0,3.7-.2,5.5-.2,2.2,0,4.5.1,6.7.6,2.2.4,4.2,1,6.2,2l2,.8V17.6c0-3,.2-6,.2-9.2.6,0,1-.2,1.6-.2,1.8-.2,3.6-.2,5.6-.2M43.9,112.6c4.7,0,8.5-2,11.3-5.6,2.8-3.6,5-7.6,6-12,.6-2.2.8-4.4.4-6.6-.4-3-1.8-5.4-4.4-7-1-.6-2-1.2-3.4-1.2-.3,0-.5,0-.8,0-5.5,0-10.2,2-13.6,6.4-3.2,4.4-5,9.4-5,15.4s.2,1.8.4,3c.6,4,4.6,7.4,8.4,7.6.2,0,.5,0,.7,0M70,0c-2.1,0-4,0-6.2.2-.6,0-1.2.1-1.5.2h-7.5v8c0,1.5,0,2.9,0,4.5,0,1.5-.1,3.1-.1,4.7v30.3c-2.1-.3-4.3-.5-6.9-.5-2,0-3.9,0-5.8.2h-.1s-.3,0-.3,0h-.3c-2.5.3-5.1,1.1-7.6,2.3-4.6,1.9-8.9,4.6-13.6,8.5-7.2,5.9-12.4,13-15.5,21h0s0,0,0,0c-2,5.3-3.8,10.6-4.3,16.8-.2,3.1-.2,6-.2,8.9-.2,5.6.7,11.1,2.8,17.5h0c0,0,0,.1,0,.1,1.6,4.6,4.1,8.7,7.1,12h.1c0,.1.1.2.1.2.4.4.7.7,1,1.1.9.9,1.9,2,3,2.9,6.4,5.7,14.2,8.7,23,8.9h.1s.1,0,.1,0c6.4,0,12.5-1.5,18.8-4.6h0s0,0,0,0c.4-.2.9-.5,1.3-.7v.6h9.2c1,0,2.1,0,3-.1.8,0,1.5,0,2,0h.3c2.3-.1,4.6-.2,6.9-.2,2.3,0,4.6,0,7-.2h0c.3,0,.6,0,.9,0,2.2,0,4.1-.5,5.9-1.6l3.9-2.3v-4.5c0-1.5,0-2.8.2-4.1v-.2s0-.2,0-.2c.4-7.8.4-15.2.4-23h0c0,0,0-.1,0-.1-.2-11.1-.4-22.7-.2-33.9h0c0-8.5.2-16.9.6-25.2h0c0-.1,0-.2,0-.2,0-1.8,0-3.6.1-5.5.2-8.9.4-18-.1-27.1v-.2s0-.2,0-.2l-.6-6.2-.3-3.5-2.8-2.1c-1.8-1.3-3.9-2-6.2-2s-.6,0-.9,0h0c-5.5-.2-11.2-.4-16.8-.4h0ZM45.8,91.4c1.8-2.2,4-3.2,7.2-3.2,0,0,0,0,0,0,.3.2.5.3.6,1.2v.2s0,.2,0,.2c.2.9,0,1.9-.2,3.1v.2s0,.2,0,.2c-.6,2.9-2.2,5.8-4.5,8.8-1.4,1.8-2.9,2.6-5,2.6s-.1,0-.2,0c-.3-.1-.9-.6-1-.9h0c0-.6-.2-1.5-.3-1.9,0-3.9,1.1-7.2,3.4-10.4h0Z"/>
    </g>
  </g>
  <g id="Layer_2" data-name="Layer 2">
    <path class="cls-2" d="M87.6,13c.2-.6-.4-1.4-1-1.4-.6-.2-1,.2-1.4.6v.2c-2.4,3.8-6,5.2-10.2,5.2-2,.2-3.6-1-5.4-1.8-1.2-.8-2-1.6-2.4-3,0-.2-.2-.6-.4-.8-.4-.6-1.2-.6-1.6,0-.2.2-.4.8-.4,1.2.2,1.2.6,2.2,1.6,3,2.6,2.4,5.6,4,9.6,4.2,3.8-.4,7.4-1.8,10.2-4.8.4-.4.8-1,1-1.4.2-.4.4-.8.4-1.2Z"/>
    <path class="cls-2" d="M74.4,28.8v2.8c.2,18.8.4,37.6.6,56.2,0,10.2.2,20.4.2,30.6.2.6.2,1.2.2,1.8.2.6.8,1,1.4,1,.4-.2.8-.4,1-1v-2.2c0-14.6,0-29.2-.2-44-.2-11.8-.2-23.6-.4-35.2v-9.4c0-.6,0-1.2-.2-1.8s-.6-.8-1.2-.8-1,.2-1,.8c-.2.4-.4.8-.4,1.2Z"/>
    <path class="cls-2" d="M61.2,116.6c.4-.6.4-1.4-.2-1.8-.4-.4-1.2-.4-1.8.2-.6.4-1,1.2-1.6,1.6-3.6,4-7.8,6.8-13,8.4-3.6,1.2-7.4,1.6-11.2.6-5.4-1.2-9.4-4.6-12.2-9.4-2.2-3.8-3.2-8-3.2-12.6-.2-9.6,3.2-18,9.6-25.2,3-3.6,6.8-6.6,11.2-8.4,6-2.4,12-2.6,18,.4.2.2.6.4,1,.4.6,0,1,0,1.4-.6.2-.4.2-1.2-.2-1.4-.4-.4-1-.8-1.4-1-3-1.4-6-2.2-9.2-2.2-5.2-.2-10,1.2-14.4,4-12,7.6-18,18.8-18.8,33,0,3,.4,6.2,1.2,9.2,1.4,4.4,3.4,8.4,7,11.4,6,5.4,13.2,6.8,20.8,4.8,6.6-1.8,12-5.6,16.4-10.6,0-.2.2-.2.2-.4.2,0,.2-.2.4-.4Z"/>
    <path class="cls-2" d="M85.2,131.2c.6-.2,1-1.2.6-1.6l-.6-.6c-2.8-2-6-3.6-8.8-3.4-3.4,0-6,.6-7.8,1.8l-1.2,1c-.4.6-.4,1.2,0,1.6.4.4.8.6,1.4.4.4-.2.6-.4.8-.4,4.4-2.4,8.8-2.4,13,.2.4.2.8.6,1.4.8.4.2.8.2,1.2.2Z"/>
  </g>
</svg>