<?xml version="1.0" encoding="UTF-8"?>
<svg xmlns="http://www.w3.org/2000/svg" version="1.1" viewBox="0 0 95.5 108.3">
  <defs>
    <style>
      .cls-1 {
        fill: #ec59b1;
      }

      .cls-1, .cls-2, .cls-3 {
        stroke-width: 0px;
      }

      .cls-2 {
        fill: #fff;
      }

      .cls-3 {
        fill: #5d0947;
      }
    </style>
  </defs>
  <g id="Layer_1" data-name="Layer 1">
    <g>
      <path class="cls-1" d="M45,104.3c-1.8,0-3.4,0-4.9-.2-6.7-.5-12.7-2.3-18.1-5.6l-.3-.2-2.7-2.3h-.1c-5.7-5.6-9.9-12.5-12.1-20.1-2.3-8-3.1-14.7-2.7-21.1h0c.5-5.1,1.4-9.8,2.8-13.9.8-2.9,2-6,3.6-9.5,2-4.5,4.7-8.5,8-11.7l.2-.2h.2c.4-.5.9-1,1.4-1.5.3-.3.5-.5.8-.8,3.6-4.4,8.5-7.5,15.2-9.9,2.7-1,5.6-1.9,8.7-2.6,2.2-.5,4.4-.7,6.7-.7s6.3.5,9.3,1.4h.2s.2.1.2.1c.9.4,1.6.6,2.4.8h.2s.2,0,.2,0c3.1.9,6,2.4,8.8,4.8,4.2,3.6,7.9,8.1,10.8,13,.4.5.6,1,.9,1.5h0c0,.1,0,.3,0,.3,3.1,7.5,4.7,13.4,5.3,19.1.2,2,.2,4.1.2,6s-.5,2.1-.8,2.5h0c0,0-1.1,2.3-1.1,2.3h-2.3s-.1,0-.1,0c-.4,0-.9.2-1.5.2-7.1.6-14.3.9-21.2,1.1-2.3,0-4.7.2-7,.3h-.2c-1.6,0-3.2,0-4.9.2-1.7,0-3.4.2-5.2.2-3.3.2-6.5.2-9.7.2,0,.2,0,.5,0,.7.2,3.9,1.2,6.8,3.1,9.3,1.9,2.2,4.4,3.5,7.1,3.8.7,0,1.5,0,2.2,0,3.2,0,6-.7,8.5-2h.1c0,0,.1-.1.1-.1,3.5-1.6,6-3.3,8.2-5.3l7.9-7.6,4.8,3.2c3.5,2.3,6.8,4.5,10.1,6.9l.2.2.2.2c0,0,.1.1.2.2,4.5,3.7,2.5,7.4,1.5,9.2-2.9,5.1-7,11.6-13.6,17-2.9,2.5-6.3,4.5-10.4,6.2l-6,2.5h-.2c-3.4,1.1-6.2,1.6-8.7,1.6-2.1.1-4.2.2-6.4.2ZM49.5,27.3c-1.8,1.6-3.2,3.3-4.4,5.4l8.6-.6c0-.8-.2-1.6-.4-2.5v-.8c-.3-.8-.4-1.3-.6-1.7v-.2c-.1,0-.2-.2-.2-.2-.2-.4-.3-.4-.5-.4s-.3,0-.5,0h-.2s-.2,0-.2,0c-.4,0-.9.4-1.6.9Z"/>
      <path class="cls-2" d="M51.5,8c2.7,0,5.5.4,8.2,1.2,1,.4,2,.8,3.2,1,2.8.8,5.2,2.2,7.4,4,4,3.4,7.4,7.6,10,12.2.2.2.4.6.6,1,2.4,5.8,4.4,11.8,5,18,.2,1.8.2,3.8.2,5.6s-.2.4-.4.8c-.4,0-1,.2-1.6.2-9.4.8-18.8,1-28.2,1.4-3.4,0-6.8.4-10.2.4-3.6.2-7.2.2-10.6.2s-.5,0-.7,0-.2,0-.3,0c-1,0-1.6.4-1.6,1.4-.2,1-.4,2.2-.4,3.4.2,4.2,1.2,8.2,4,11.8,2.6,3,6,4.8,9.8,5.2.9,0,1.7.1,2.6.1,3.7,0,7.2-.7,10.4-2.5,3.4-1.6,6.4-3.4,9.2-6l5.6-5.4c4.2,2.8,8.2,5.4,12,8.2.2.2.2.4.4.4,2,1.6,1.6,2.4.6,4.2-3.4,6-7.2,11.4-12.6,15.8-2.8,2.4-6,4.2-9.4,5.6l-5.8,2.4c-2.6.8-5.2,1.4-7.6,1.4-2.1.1-4.2.2-6.2.2s-3,0-4.6-.2c-5.8-.4-11.4-2-16.4-5l-2.4-2c-5.2-5-9-11.2-11-18.2-1.8-6.4-3-13-2.6-19.8.4-4.4,1.2-8.8,2.6-13,.8-3,2-6,3.4-9,1.8-4,4.2-7.6,7.2-10.6,1-.8,1.8-1.8,2.6-2.6,3.6-4.4,8.4-7,13.6-8.8,2.6-1,5.4-1.8,8.2-2.4,1.9-.4,3.9-.6,5.8-.6M39.5,37l18-1.2c.6-2.8,0-5.4-.4-7.8-.2-1-.4-2-1-3-.8-1.8-2.3-2.8-4.2-2.8-.5,0-.9,0-1.4.2-1.4.2-2.6,1-3.6,1.8-3.6,3.2-6,7-7.6,11.6-.2.2-.4.6.2,1.2M51.5,0S51.5,0,51.5,0c-2.5,0-5.1.3-7.5.8-3.3.7-6.4,1.6-9.2,2.7-7.2,2.5-12.7,6.1-16.8,11-.2.2-.5.5-.7.8-.3.4-.7.8-.9,1l-.3.3-.3.3c-3.6,3.6-6.6,8-8.8,12.9-1.7,3.7-3,7-3.8,10-1.4,4.4-2.4,9.3-2.9,14.6h0c0,.1,0,.3,0,.3-.4,6.9.5,14,2.9,22.4,2.4,8.3,6.9,15.8,13.2,21.8l.2.2.2.2,2.4,2,.5.4.5.3c5.9,3.5,12.5,5.6,19.8,6.1,1.6.2,3.4.3,5.3.3s4.4-.1,6.5-.2c2.8,0,5.9-.6,9.7-1.8h.4c0-.1.3-.3.3-.3l5.8-2.4c4.5-1.8,8.2-4.1,11.5-6.9,7-5.7,11.4-12.6,14.4-18h0s0,0,0,0c.7-1.3,1.9-3.5,1.8-6.4-.1-2.9-1.5-5.5-4-7.6,0,0,0,0-.1-.1l-.4-.4-.5-.4c-.3-.3-.7-.5-1-.7l-.5-.4h0c-1.3-.9-2.5-1.8-3.8-2.6.5,0,.9-.1,1.2-.2h4.4l2.1-4.3c.4-.7,1.3-2.3,1.3-4.5s0-4.2-.2-6.4c-.6-6.1-2.3-12.4-5.6-20.2v-.3c-.1,0-.2-.3-.2-.3-.3-.5-.6-1.2-1.1-1.9-3.1-5.3-7-10-11.5-13.8h0s0,0,0,0c-3.2-2.7-6.6-4.5-10.3-5.5h-.4c0-.1-.4-.2-.4-.2-.3,0-.9-.3-1.5-.5h-.3c0-.1-.3-.2-.3-.2C58.6.5,55,0,51.5,0h0ZM45.9,61.8c1.9,0,3.6-.1,5.3-.2,1.6,0,3.2-.2,4.6-.2h.3c2.3-.1,4.6-.2,6.8-.3l-.5.5c-1.9,1.8-4,3.1-7.1,4.6h-.2c0,.1-.2.2-.2.2-1.9,1-4,1.5-6.6,1.5s-1.2,0-1.8,0c-1.7-.2-3.2-1-4.4-2.3-.8-1-1.3-2.2-1.7-3.5,1.7,0,3.5,0,5.3-.2h0Z"/>
    </g>
  </g>
  <g id="Layer_2" data-name="Layer 2">
    <path class="cls-3" d="M44.7,18.2c-.4.4-.2,1.2.2,1.4.6.4,1,.4,1.4,0l2-2c.4.4.8.6,1,.8.4.4,1,.4,1.4.2.4-.4.6-1,.4-1.6-.4-1-1.2-1.8-2.2-2.4-.6-.2-1.4-.2-1.8.4-.8,1-1.6,2-2.4,3.2Z"/>
    <path class="cls-3" d="M60.1,23.2c-.2.6,0,1,.4,1.4.4.4,1.2.4,1.6-.2.4-.4.8-.8,1.2-1.6.6.8,1.2,1.4,2,2,.6.4,1.2.4,1.6,0,.4-.4.6-1.2.2-1.6-1-1-1.8-2.2-2.8-3-.8-.8-2-.6-2.6.4-.6.8-1,1.8-1.6,2.6Z"/>
    <path class="cls-3" d="M30.7,24.4c0,.2.2.8.6,1,.2.2.6.2.8,0,.6-.2,1-.6,1.4-1,.6.4,1,1,1.6,1.4.2.2.8.4,1,.2.6-.2.8-.6.8-1.2,0,0,0-.2-.2-.2-.6-1.4-1.6-2.6-2.8-3.4-.2-.2-.8-.2-1,0-1.2.6-1.8,1.8-2.2,3.2Z"/>
    <path class="cls-3" d="M22.3,33.6c-.2.4-.2.8,0,1.2.2.6,1,.8,1.6.4.6-.6,1.2-1.2,2-1.8l.8,1.4c.4.6.6,1,1,1.6.2.2.6.4,1.2.2.6-.2,1-.8.8-1.4-.8-1.6-1.4-3.2-2.2-4.8-.6-1-1.6-1-2.4-.2l-2.8,3.4Z"/>
    <path class="cls-3" d="M70.1,32.6c-.8-.8-1.6-.8-2.4,0-.8.8-1.4,1.6-2.2,2.6-.2,0-.2.4-.4.6,0,.6.6,1.4,1.2,1.2.4-.2.8-.2,1-.6.6-.4,1.2-.8,1.6-1.4.8.6,1.4,1.4,2.2,1.8.4.4,1,.6,1.4.8.4,0,.8-.2,1-.4.2-.4.2-.8.2-1.2s-.2-.4-.4-.6c-1-1-2-2-3.2-2.8Z"/>
    <path class="cls-3" d="M75.1,46c.4-.4.6-1,.2-1.6-.6-1-1.4-2-2.2-2.8-.8-.8-1.8-.6-2.4.2-.8,1-1.6,2.4-2.2,3.6-.2.2,0,.8.2,1,.4.6.8.6,1.4.2l.6-.6c.4-.4.8-1,1.2-1.6.6.6,1.2,1,1.8,1.4.4.4,1,.4,1.4.2Z"/>
    <path class="cls-3" d="M18.9,45.8c-.4.4,0,.8.4,1.2.4.4.8.4,1.2,0,.4-.2.6-.4.8-.8.4-.2.8-.6,1.2-1.2.4.8.8,1.4,1.2,2,.4.4.8.6,1.4.4.4-.2.8-.8.8-1.4-.4-1.6-1.2-3-2.2-4-.4-.6-1.2-.8-1.6-.2-1.2,1.2-2.2,2.6-3.2,4Z"/>
    <path class="cls-3" d="M57.5,46.8c.6-.4.6-1,0-1.8-.6-.8-1.2-1.6-2-2.2-.8-.8-1.8-.8-2.6.2l-2.4,3c0,.2-.2.2-.2.4,0,.6,0,1,.4,1.4h1.2c.4-.2.6-.6.8-.8.6-.6,1-1,1.6-1.8l1.4,1.4c.6.6,1.2.6,1.8.2Z"/>
    <path class="cls-3" d="M39.1,43.6c-1,1.2-2,2.6-2.8,3.8-.2.2,0,.6,0,.8.2.8,1.2,1,1.8.4l2.2-2.4c.4.4.6.6,1,1,.4.2.8.4,1,.6.6,0,1,0,1.4-.6.2-.2.2-.8,0-1-.8-1-1.8-2-2.6-2.8-.6-.4-1.6-.4-2,.2Z"/>
    <path class="cls-3" d="M13.9,56.2c.4.4,1,.2,1.4-.2l1.6-2.4c.4.4.8.8,1.2,1.2.2.4.4,1,.8,1.4.2.4.6.6,1.2.4.6,0,.8-.4.8-1v-1c-.6-1.4-1.6-2.8-3-3.8-.8-.6-1.8-.4-2.4.4-.8,1.2-1.4,2.4-2,3.6-.4.6-.2,1.2.4,1.4Z"/>
    <path class="cls-3" d="M25.1,65.8l.2-.8c-.4-1.4-1-2.6-2.4-3.4-.6-.4-1.2-.4-1.8,0-1.4,1-2.6,2.4-3.4,4-.2.4,0,.8.4,1.2.4.4,1,.2,1.4,0,.2-.4.4-.6.8-1,.4-.4,1-1,1.6-1.8.4.6.6.8.8,1,.2.4.2.8.6,1.2.4.6,1.4.4,1.8-.4Z"/>
    <path class="cls-3" d="M74.5,72.4c.6,0,1-.6,1-1.2s-.4-1-.8-1c-1-.2-2-.4-3-.4s-1.4.4-1.6,1.2c-.6,1.2-1,2.4-1.4,3.6-.2.4,0,1,.6,1.2.4.2,1,0,1.4-.4.4-1,.8-1.8,1.4-3h2.4Z"/>
    <path class="cls-3" d="M29.9,74.6c.2.2.4.4.8.6.8.4,1.2.2,1.6-.2.4-.6.4-1.4-.2-1.8-.8-.8-1.8-1.4-2.8-1.8-.8-.4-1.6-.2-2,.4-.8.8-1.4,2-2,3-.2.4,0,1.2.4,1.4.4.4,1,.2,1.6-.2l1.6-2.2c.4.4.8.6,1,.8Z"/>
    <path class="cls-3" d="M18.1,76.2l1.6,1c.6.4,1.2.2,1.6-.2.2-.4.2-1,0-1.4-.8-1-1.8-1.8-3.2-2.2-.6-.2-1.2,0-1.6.4l-1.8,3c-.2.6,0,1,.4,1.4.4.4,1.2.2,1.6-.2.4-.6.8-1.2,1.4-1.8Z"/>
    <path class="cls-3" d="M82.1,76.2c.4-.2.6-.6.4-1.2,0-.4-.4-.8-.8-.8-.4-.2-.6-.2-.8-.2l-3.8,1.2c-.2.2-.6.4-.6.6-.8,1.2-1,2.6-.6,4,0,.4.4.8,1,.8s1-.2,1-.8c.2-.8.4-1.4.4-2.4l2.4-.6c.4-.2.8-.2,1.4-.6Z"/>
    <path class="cls-3" d="M67.3,78.2c.2-.4.2-1-.2-1.2-1-.8-1.8-1.4-2.8-2-.8-.4-1.6,0-2,.6-.6,1-1.2,2-1.6,3.2-.2.4,0,1,.4,1.2.6.4,1,.2,1.4-.2.4-.4.8-1,1.4-1.8.8.4,1.4.6,2.2.8.4.2,1,0,1.2-.6Z"/>
    <path class="cls-3" d="M57.5,83c.4-.4.2-1,0-1.4,0-.2-.2-.2-.4-.4l-3-1.8c-.6-.2-1.2-.2-1.6.4-.6.8-1,1.8-1.4,2.6-.2.4,0,.8.4,1,.2.2.8.4,1,.2.6-.4,1-.8,1.4-1.2,1,.4,1.8.6,2.4,1,.4,0,.8-.2,1.2-.4Z"/>
    <path class="cls-3" d="M31.5,85.4c.6.4,1,.2,1.4-.2.4-.4.6-1,1-1.6.6.2,1,.6,1.4.6.8.4,1.2.2,1.6-.2.2-.6.2-1.2-.2-1.6-.8-.8-1.6-1.4-2.6-2-.4-.2-1.2,0-1.6.6-.6,1-1,2-1.6,3.2-.2.4.2,1,.6,1.2Z"/>
    <path class="cls-3" d="M73.5,83c.4-.4.2-1.2-.4-1.4-.8-.4-1.8-.6-2.8-.8-.8-.2-1.4.4-1.6,1-.4,1.2-.6,2.2-.8,3.4-.2.6.4,1.2.8,1.2.6,0,1-.2,1.2-.6.4-.6.6-1.4,1-2.2.6,0,1,.2,1.6.2s.8-.2,1-.8Z"/>
    <path class="cls-3" d="M26.7,86.4c.2-.4.4-1.2,0-1.6-.8-.8-1.6-1.6-2.6-2.4-.6-.4-1.6-.2-2,.4-.8,1.2-1.6,2.6-2.4,4,0,.2.2.8.4,1,.2.4.8.6,1.2.2.4-.2.6-.4.8-.8.6-.6,1-1.2,1.4-2,.6.6,1,1,1.6,1.2.4.4,1.2.4,1.6,0Z"/>
    <path class="cls-3" d="M45.9,88.2c.6.4,1.2.2,1.6-.2.4-.6.4-1,0-1.4-1-1-2.2-2-3.4-2.8-.6-.4-1.4-.4-2,.2-.8,1.2-1.4,2.4-1.6,3.8,0,.4.2,1,.6,1.2.6.2,1.2,0,1.4-.6.4-.6.8-1.2,1-1.8l2.4,1.6Z"/>
    <path class="cls-3" d="M64.5,88.8c.4-.4.2-.8-.2-1.2-1-1-2.2-1.8-3.8-1.8-.8-.2-1.4.4-1.6,1-.4,1.2-.4,2.2-.6,3.4-.2.2,0,.4,0,.6.2.6.6.8,1.2.8.4-.2.8-.4.8-.8.4-.6.6-1.4.8-2.2.8.2,1.4.6,2,.8.6.4,1.2,0,1.4-.6Z"/>
    <path class="cls-3" d="M41.5,95c.2-.2.2-.8.2-1,0-.4-.2-.6-.4-.8-1.2-1-2.4-2-3.8-3-.8-.6-2-.4-2.6.4-.6,1-1.2,2.2-1.8,3.4-.2.4,0,1.2.6,1.4.4.2,1,0,1.4-.6s.8-1.4,1.4-2.2c1,.8,1.8,1.4,2.4,2l1.2.8c.6.2,1,.2,1.4-.4Z"/>
    <path class="cls-3" d="M54.1,93.8c.2-.6,0-1.2-.4-1.6l-2.8-1.2c-.6-.2-1.2,0-1.8.4-1,1-1.6,2-2.2,3.4-.2.6,0,1.2.6,1.4.4.2,1,.2,1.4-.4l1.6-2.2c.8.2,1.4.6,2.2.8.4.2,1-.2,1.4-.6Z"/>
  </g>
</svg>