<?xml version="1.0" encoding="UTF-8"?>
<svg id="Layer_1" data-name="Layer 1" xmlns="http://www.w3.org/2000/svg" version="1.1" viewBox="0 0 92 152">
  <defs>
    <style>
      .cls-1 {
        fill: #f48722;
      }

      .cls-1, .cls-2, .cls-3 {
        stroke-width: 0px;
      }

      .cls-2 {
        fill: #a33e00;
      }

      .cls-3 {
        fill: #fff;
      }
    </style>
  </defs>
  <g id="Layer_1-2" data-name="Layer 1-2">
    <g>
      <path class="cls-1" d="M31,148c-3.6,0-8.4,0-10.4-.2l-2.2-.2-1-2c-.3-.6-.8-1.8-.8-3.2-.1-1.6-.3-3.2-.4-4.8-.3-3.7-.7-7.5-.8-11.3-.2-3.8-.4-7.6-.4-11.3v-15.5h-2.5c-1.9,0-3.5-.2-5-.5l-1.8-.4-.8-1.7c-.6-1.2-.6-2.4-.6-3h0c.2-7.2,0-14.5-.2-21.5v-4.9l3.3-.6h4c1.5-.2,2.9-.2,4.2-.2h.2c.4-6.1,1.1-11.6,1.9-16.6,1.3-8.3,3.5-15.7,6.7-22.6,3.8-8.1,10-14.6,18.4-19.2,4.7-2.9,9.9-4.3,15.6-4.3s2.4,0,3.6.2c6.3.5,12,3.2,16.5,8,.8.8,1.3,1.6,1.7,2.2,0,.2.3.4.4.6l.2.2v.3c3.5,6.3,5.5,12.4,6.4,18.9.9,5.5,1.1,11.6.6,19.1,0,1.3-.5,2.4-1.4,3.3-1.2,1.2-2.7,1.8-4.4,1.8s-.4,0-.6,0h-12c-2,0-4.2,0-6.2.2h-4.6l-.8-2.9c-.4-1.2-.5-2.4-.6-3.3v-1.1h0v-.3c0-.8,0-1.6-.2-2.4,0-1.4-.2-2.8-.4-4v-.4c0-1.3-.4-2.3-1-3.3-.3.7-.5,1.5-.8,2.5h0c-1.4,4.6-2.3,8.7-2.6,12.6v.2c-.4,2.8-.6,5.6-.8,8.6v1.8h15.6v3.9c0,.4.2.8.2,1.3v19.8c0,3.4,0,1.4-.4,2.7l-.8,2.3-2.4.4c-3.2.5-6.3.6-9.3.6h-3.9v7.6c0,4.9-.2,9.9,0,14.7.2,6.4.9,13.2,2.1,20.2v.8c0,.8.4,2.3-.5,4l-.9,1.8-2,.3c-2.3.4-13.7.5-17.9.5v.2h-.2Z"/>
      <path class="cls-3" d="M58.4,8c1.1,0,2.1,0,3.2.2,5.4.4,10.2,2.8,14,6.8.8.8,1.2,1.6,1.8,2.4,3,5.6,5,11.4,5.8,17.6,1,6,1,12.2.6,18.4,0,.2,0,.4-.2.6-.5.5-1.1.6-1.6.6h-.8c-4,0-7.8.2-11.8.2s-4.4,0-6.6.2h-1.2c-.4-1.4-.4-2.8-.6-4-.2-2.2-.2-4.6-.6-6.8-.2-2.2-.8-4-2-5.8-.4-.6-.8-1.2-1.4-1.8-.5-.4-1.2-.6-1.8-.6s-1.5.3-2,1c-.4.6-.8,1-1,1.6-.6,1.4-1,2.6-1.4,4-1.4,4.4-2.4,8.8-2.8,13.4-.6,4.4-.8,8.8-1.2,13.2v1.6h15.8c0,.6.2,1,.2,1.2,0,6.6.2,13.2.2,19.8s0,.8-.2,1.4c-5.4.8-10.8.4-16.2,1-.2.4-.4,1-.4,1.4,0,8.2-.4,16.6-.2,24.8.2,7,1,14,2.2,20.8,0,.8.4,1.6,0,2.4-1.5.2-10,.4-17.2.4s-8.4,0-10-.2c-.2-.4-.4-1-.4-1.6-.4-5.2-1-10.6-1.2-16-.2-3.6-.4-7.4-.4-11.2v-19.6c-2.3,0-4.4.2-6.5.2s-2.7,0-4.1-.4c-.2-.4-.2-.8-.2-1.2.2-7.2,0-14.4-.2-21.6v-1.4h3.6c1.4-.2,2.6-.2,4-.2h3.8c0-.4.2-.8.2-1.4.4-6.2,1-12.4,2-18.6,1.2-7.4,3.2-14.6,6.4-21.6,3.6-7.8,9.4-13.4,16.8-17.4,4.3-2.6,8.8-3.8,13.6-3.8M58.4,0c-6.4,0-12.3,1.6-17.6,4.8-9.2,5-16,12.1-20.1,21-3.3,7.3-5.6,15-7,23.7-.7,4.2-1.2,8.6-1.6,13.4h-2.8c-.9,0-1.7,0-2.5.2l-6.7,1.1v8.2h0v.2c.2,7,.4,14.2.2,21.2H.3v.2c0,.8,0,2.7,1,4.8l1.7,3.4,3.6.9c1.4.3,2.8.5,4.4.6v11.4c0,3.9.2,7.7.4,11.6.1,3.9.5,7.7.8,11.4.1,1.6.3,3.1.4,4.6,0,2,.7,3.7,1.2,4.8l2,3.9,4.4.4c1.7.2,5.3.3,10.8.3s15.4,0,18.5-.5l4-.7,1.8-3.6c1.4-2.8,1-5.3.8-6.4v-1c-1.3-6.8-2-13.4-2.2-19.6v-18.4h0c3.1,0,6.4-.2,9.8-.7l4.9-.7,1.6-4.7c.6-1.8.6-3.2.6-3.9v-19.8c0-3.3,0-1.4-.2-1.8v-7.4h-1.2,12.6c3.5,0,5.9-1.6,7.3-3s2.4-3,2.5-5.9c.5-7.8.3-14.1-.7-19.9-.9-6.9-3.1-13.5-6.7-20.2l-.3-.5-.4-.5c0-.1-.2-.3-.3-.4-.4-.7-1.1-1.7-2.2-2.7C76.1,3.9,69.5.8,62.3.2c-1.3-.1-2.6-.2-3.9-.2h0ZM55.3,62.8v-.5.5h0Z"/>
    </g>
  </g>
  <g id="Layer_2" data-name="Layer 2">
    <path class="cls-2" d="M56.6,16.2v-3.2c0-1-.6-1.8-1.4-1.6-.6,0-.8.6-1,1.6,0,2.8-.2,5.6-.4,8.2,0,2-.2,3.8-.4,5.6,0,.6.2,1.2.8,1.4.6.2,1.2-.2,1.4-1,.2-.6.4-1.2.4-1.8,0,0,.6-9.2.6-9.2Z"/>
    <path class="cls-2" d="M63,30.6c.6.2,1-.4,1.2-.8.6-.8,1-1.6,1.4-2.4,1.2-2.8,2.2-5.6,3.4-8.4.2-.4.2-.8.2-1-.2-.4-.6-.6-.8-1-.4.2-.8.2-1,.4-.4.8-.8,1.4-1,2-1,2.2-1.8,4.4-2.8,6.6l-1.8,3.4c0,.2,0,.6.2.8.2.2.6.4,1,.4Z"/>
    <path class="cls-2" d="M48.2,30.4c0-.4,0-.8-.2-1.2-1-2.6-2-5-3.2-7.4,0-.4-.2-.8-.6-1-.2-.4-.4-.4-1-.6-.2.4-.6.8-.8,1,0,.6.2,1.2.4,1.8,1,2.2,2,4.6,3.2,7,.2.4.4.8.6,1,.2.4.6.6,1,.2.4-.2.6-.6.6-.8Z"/>
    <path class="cls-2" d="M65.8,41.2c.4,0,.8,0,1.2-.2.2,0,.4-.4.8-.6,2.2-2,4.6-4.2,7-6.2l1.2-1.4c.2-.2.4-.6.4-.6.2-.8-.6-1.4-1.2-1.2-.4.2-.8.4-1,.6-2.4,2.2-4.8,4.2-7.2,6.2l-1.2,1.2c-.2.2-.4.6-.4.8-.2.6,0,1,.4,1.4Z"/>
    <path class="cls-2" d="M44.4,40.6l.6-.8c-.2-.4-.4-1-.8-1.2-2.2-2.2-4.4-4.2-6.6-6.2-.2-.2-.6-.4-.8-.4-.8-.6-1.6-.4-2,.2-.2.4,0,1,.6,1.6l7.2,6.2c.2.2.6.6,1,.6.2.2.6.2.8,0Z"/>
    <path class="cls-2" d="M42.2,51.6v-.8c-.4-.4-.6-.8-1-1-.8-.6-1.6-1-2.4-1.4-2-1.4-4-2.6-6.2-4-.4-.2-1-.4-1.6-.8-.4.4-.8.4-.8.6-.2.4-.2,1,0,1.2.2.4.6.8,1,1l9.2,5.4c.2.2.6.2,1,.2s.6-.2.8-.4Z"/>
    <path class="cls-2" d="M78.6,45.8c.4-.2.2-1.2-.2-1.4h-1.2c-3.2.8-6.2,1.6-9.2,2.4-.2,0-.6,0-.8.2s-.4.6-.4.8c0,.4.2.8.6,1,.2.2.6.2.8.2h.6c2.8-.8,5.8-1.6,8.6-2.4.4-.2.8-.4,1.2-.8Z"/>
    <path class="cls-2" d="M26.4,58.8c0,.6.2,1,.6,1.2.6,0,1,.2,1.4.2.8.2,1.6.2,2.4.4,2.4.4,4.6.8,7,1.4.4,0,.8.2,1.2,0,.4,0,.8-.4.8-.8s-.2-.6-.4-1c-.2-.2-.6-.2-.8-.4-1.2-.2-2.2-.6-3.4-.8-2.2-.4-4.4-.8-6-1.2h-1.8c-.6.2-1,.4-1,1Z"/>
    <path class="cls-2" d="M39.2,73.6c.6,0,1.2-.4,1.2-1s-.4-1-1-1c-3.2-.4-6.4-1-9.6-1.4-.4,0-.6,0-.8.2-.2.2-.6.6-.6.8,0,.4.2.8.4,1,.6.2,1.2.4,1.6.4,2.8.4,5.6.8,8.2,1h.6Z"/>
    <path class="cls-2" d="M50.6,84.6v1.2c.2.2.6.6,1,.6s.6-.2.8-.4l.6-1.6c.6-2.6,1-5.2,1.4-7.4.2-1,0-1.6-.6-1.6-.6-.2-1.2.2-1.4.6,0,.2,0,.4-.2.6-.4,2.6-1,5.2-1.6,8Z"/>
    <path class="cls-2" d="M17,77.4c0-.2.2-.6,0-1,0-.4-.4-.8-.8-.8-.6-.2-1,.2-1.2.6l-.2.8c-.2,2.6-.6,5.4-1,8.2,0,.2,0,.6.2.8.2.6.4,1,1,1s1-.4,1.2-1v-.8c.4-2.6.6-5.2.8-7.8Z"/>
    <path class="cls-2" d="M26.6,82.6c-.4.2-.8.4-1,1,0,.4.4.8.8,1,.8.2,1.6.4,2.4.4,2.8.2,5.6.4,8.6.4.4.2.8,0,1,0,.4-.2.6-.6.6-.8,0-.4-.2-.8-.4-1-.4-.2-.8-.4-1.4-.4l-7.2-.6s-3.4,0-3.4,0Z"/>
    <path class="cls-2" d="M25.4,96c0,.4.2.8.4,1,.6.2,1.2.4,1.6.4h10.2c.4,0,.8,0,1.2-.2.2-.2.6-.4.6-.8s-.2-.6-.4-.8c-.4-.2-.8-.4-1.4-.4-3.4,0-6.8-.2-10.4-.2s-.8,0-1.4.2c-.2.2-.4.6-.4.8Z"/>
    <path class="cls-2" d="M27,107.6c-.6.4-.6,1.4,0,1.6s1.2.2,1.8.2c3,.4,6,.4,9,1.2.2,0,.4,0,.6.2.4,0,1-.4,1-.8s-.2-1-.4-1.2c-.4-.2-1-.6-1.6-.6l-8.4-1.2c-.6.2-1.4.4-2,.6Z"/>
    <path class="cls-2" d="M40,121.8c0-.2,0-.6-.2-.8-.4-.4-1-.6-1.6-.8l-6.6-.6v.2c-1.2,0-2.6-.2-3.8,0-.4,0-.8.4-.8.8,0,.6.2,1,.8,1.2.4,0,1,.2,1.6.2,3,.2,6.2,0,9.2.6.2,0,.6,0,.8-.2.2,0,.4-.4.6-.6Z"/>
    <path class="cls-2" d="M41,131.6c0-.6-.4-1-1.2-1.2-.4-.2-1-.4-1.4-.4l-7.4-.6h-3c-.8.2-1.4.8-1.4,1.2,0,.6.6,1.2,1.4,1.2h1.2c2.6.2,5.2.2,7.8.4.8,0,1.8.2,2.6.2s1.2-.2,1.4-.8h0Z"/>
  </g>
</svg>