<?xml version="1.0" encoding="UTF-8"?>
<svg id="Layer_1" data-name="Layer 1" xmlns="http://www.w3.org/2000/svg" version="1.1" viewBox="0 0 99.6 154.6">
  <defs>
    <style>
      .cls-1 {
        fill: #f48722;
      }

      .cls-1, .cls-2, .cls-3 {
        stroke-width: 0px;
      }

      .cls-2 {
        fill: #a33e00;
      }

      .cls-3 {
        fill: #fff;
      }
    </style>
  </defs>
  <g id="Layer_1-2" data-name="Layer 1-2">
    <g>
      <path class="cls-1" d="M34.6,150.6c-6.5,0-12.2-.9-17.6-2.8-2.3-.8-4.5-2-6.6-3.1-.8-.4-1.6-.9-2.5-1.3l-3.1-1.6,1.1-3.3v-.3c0-.3.2-.9.5-1.4,1.2-3,2.5-6,3.7-8.9s2.5-5.9,3.7-8.8l.3-.8,2.2-2.2h2.2c.5,0,1,0,1.5.3,2.9.6,5.7.9,8.3.9,4.8,0,9.3-.9,13.6-2.9h0c2.4-1,4.6-2,6.6-3.1h0c1.2-.7,2.3-1.4,3.2-2.3,2.1-2.1,4.8-4.9,6.7-7.8,1.5-2.2,2.5-4.5,3-7.1v-.2c.3-1,.5-2.1.6-3.1-1.7,1.4-3.5,2.6-5.3,3.7h0c-4,2.4-8.1,3.8-12.6,4.2h-3.5c-2.3,0-4.3-.2-6.4-.6h-.2c-6.7-1.6-12-5.4-15.8-11.1-2.9-4.3-4.8-9.1-6-15.2-1-4.4-1.2-9.3-.7-15.3.7-7.8,2.2-15.2,4.6-21.8,2.1-5.6,5-10.9,8.7-16,3.7-5.1,8.8-9.3,15.3-12.4,3.5-1.6,7.4-2.4,11.9-2.4s2.6,0,4.1.2c2.6.2,5.1.7,7.5,1.5v-1.3h3.1c.5-.2.9-.2,1.3-.2h0c5.6-.2,11.4-.2,16.9-.2h7.1l1.2,1.2c1.9,1.9,1.8,4.1,1.8,5v18c-.2,17.6-.2,32.9.2,46.9.2,6.2.4,12.6-.2,19.1-.4,5.7-1.6,11-3.4,16.2-1.3,3.6-3.3,6.8-5.1,9.9-4.1,6.8-9.5,12.7-17.1,18.6-3.6,3.1-7.7,5.1-11.6,6.9-5,2.3-10,3.7-15,4.4h0c-2.9.3-5.6.4-8.2.4h0ZM45,56.1v1.8c.2,2.2.9,3.8,2.3,5.2h0c.8,1,1.9,1.5,3,1.5s1.9-.4,2.6-1.2h0c2.9-3,4.8-6.2,5.5-9.5,1.1-5.1,1.8-9.7,2.1-13.8h0v-3.9h-.9c-1.8,0-3.4.3-4.9,1-3.4,1.6-5.8,4.3-7.6,8.4-1.3,3.1-2.1,6.7-2.3,10.7h.2v-.2Z"/>
      <path class="cls-3" d="M90.6,8c.8.8.6,1.6.6,2.4v17.8c-.2,15.6-.2,31.4.2,47,.2,6.2.4,12.4-.2,18.6-.4,5.2-1.4,10.2-3.2,15.2-1.2,3.2-3,6.2-4.8,9.2-4.2,7-9.8,12.6-16.2,17.6-3.2,2.8-7,4.6-10.8,6.4-4.4,2-9,3.4-13.8,4-2.6.3-5.2.4-7.8.4-5.5,0-10.9-.7-16.2-2.6-3-1-5.8-2.8-8.6-4.2.2-.6.2-1,.4-1.4,2.4-6,5-11.8,7.4-17.8l.4-.4h.8c3.2.7,6.4,1,9.6,1,5.2,0,10.3-1,15.2-3.2,2.4-1,4.8-2,7-3.2,1.6-.8,3-1.8,4.2-3,2.6-2.6,5.2-5.4,7.2-8.4,1.8-2.6,3-5.4,3.6-8.6,1-4.4,1.4-8.8,1.4-13.2s-.2-.4-.4-.6l-.2.2c-3.2,4.2-7.4,7.2-11.6,10-3.4,2-7,3.2-11,3.6h-3.2c-1.8,0-3.7,0-5.6-.5-5.8-1.4-10.2-4.6-13.4-9.4-2.8-4.2-4.4-8.8-5.4-13.8-1-4.6-1-9.4-.6-14.2.6-7.2,2-14.2,4.4-20.8,2-5.4,4.8-10.4,8.2-15,3.6-5,8.4-8.6,13.8-11.2,3.2-1.5,6.7-2,10.2-2s2.5,0,3.8.2c3.2.2,6.4,1,9.4,2.6.8.4,1.4.6,2.2.8.2-1.2.2-2.2.2-3.2.2,0,.2-.2.4-.2h.2c5.6-.2,11.2-.2,16.8-.2h5.4M50.5,68.7c2,0,4-.8,5.5-2.5,3.2-3.2,5.6-7,6.6-11.4,1-4.8,1.8-9.6,2.2-14.4.2-1.4,0-2.8,0-4.2-.2-2.8-2.2-4.2-5-4.2s-4.4.4-6.6,1.4c-4.6,2.2-7.6,5.8-9.6,10.4-1.6,3.8-2.4,8-2.6,12.2,0,.8,0,1.4.2,2.2.2,3,1.2,5.6,3.4,7.8,1.6,1.7,3.8,2.7,5.9,2.7M93.9,0h-8.7c-5.5,0-11.3,0-17,.2h0c-.6,0-1.2,0-1.8.2h-6.6v.2c-1.1-.2-2.1-.3-3.2-.4-1.6-.1-3-.2-4.4-.2-5.1,0-9.5.9-13.5,2.7h0c-7,3.4-12.7,8-16.8,13.7-4,5.4-7.1,11-9.2,16.9-2.6,7-4.2,14.7-4.9,22.9-.5,6.4-.3,11.7.7,16.5,1.3,6.5,3.5,11.9,6.6,16.6,4.4,6.6,10.5,10.9,18.2,12.7h.4c2.3.5,4.6.7,7.1.7h4c3.4-.3,6.7-1.1,9.8-2.4-1.6,2.1-3.6,4.2-5.2,5.8-.6.6-1.3,1.1-2.1,1.5h-.2c-1.8,1.1-4,2-6.2,2.9h-.2c-3.8,1.7-7.7,2.5-12,2.5s-4.7-.2-7.2-.7c-.8-.3-1.7-.4-2.6-.4h-3.8l-2.3,2.3-.4.4-1.2,1.2-.6,1.5c-1.2,2.9-2.4,5.9-3.6,8.7-1.2,2.9-2.5,5.9-3.7,8.9-.4.9-.6,1.7-.7,2.1h0l-2.1,6.5,6.2,3.1c.7.4,1.5.8,2.3,1.2,2.1,1.2,4.5,2.5,7.2,3.4,5.7,2.1,11.9,3,18.8,3s5.5-.1,8.6-.4h.2c5.4-.7,10.8-2.2,16.1-4.7h0c4-1.9,8.5-4,12.5-7.5,8-6.2,13.7-12.5,18-19.7,2-3.3,4-6.6,5.4-10.5h0c2-5.5,3.2-11.1,3.6-17.2.6-6.7.4-13.2.2-19.5-.4-13.9-.4-29.2-.2-46.7h0V10.4h0c0-1.3.2-4.9-2.9-8.1L93.9,0h0ZM56.6,40.7h.2c-.4,3.7-1,7.8-2,12.5-.6,2.6-2.1,5.1-4.4,7.4h0c-.6-.7-1-1.3-1.1-2.8v-.7l-.2-.5v-.2c.2-3.5.8-6.6,2-9.3,1.4-3.1,3.1-5.1,5.6-6.3h0Z"/>
    </g>
  </g>
  <g id="Layer_2" data-name="Layer 2">
    <path class="cls-2" d="M54,18.4c-.2,2.2-.2,4.6-.4,6.8,0,.8.2,1.8.2,2.6.2.6.8,1,1.4.8.4,0,.8-.2,1-.8.2-.4.2-1,.2-1.4v-5.6h.2c0-2,0-4-.2-6v-1.8c-.2-.2-.6-.6-1-.6s-.8.2-1,.4c-.2.4-.2,1-.4,1.4v4.2Z"/>
    <path class="cls-2" d="M68.2,31.2c-.2.4-.2.8.2,1.4.2.4,1,.6,1.4.2.4-.2.8-.4,1.2-.8l2.6-3c2.2-2.6,4.2-5.2,6.4-7.8.4-.4.8-1.2,1.2-1.8.2-.6-.4-1.4-1.2-1.4-.2.2-.8.4-1.2.8-1.4,1.8-2.8,3.6-4.4,5.2-1.6,2-3.4,4-5.2,6,0,0-1,1.2-1,1.2Z"/>
    <path class="cls-2" d="M30,30.4c-.2.4-.4,1,0,1.4.2.4.8,1,1.2,1.4,2,2,4,3.8,6.2,5.8.4.2.6.6,1,.8.2.2.6.2.6.2.8,0,1.4-.8,1.2-1.4-.2-.4-.6-.8-.8-1-2.4-2.4-4.6-4.6-7-6.8-.2-.4-.6-.6-1-.6-.4-.2-1-.2-1.4.2Z"/>
    <path class="cls-2" d="M85,53.8c.4-.2.6-.6.6-1s-.2-.8-.6-1-1-.2-1.4-.2c-2.4.2-4.6.2-7,.2v.2h-6.8c-.6,0-1.2,0-1.8.2-.4,0-1,.6-.8,1.2,0,.4.2.8.8,1,.4.2.8.2,1.4.2,4.6,0,9.4-.2,14.2-.6.6,0,1,0,1.4-.2Z"/>
    <path class="cls-2" d="M20.8,57c3.2,0,6.2-.2,9.4-.2s2.8,0,4.2-.2c.6,0,1.2-.2,1.6-.2.6-.2.8-.6.8-1.2s-.4-.8-.8-1h-6.8c-2.8,0-5.6.2-8.2.2s-1,.2-1.6.4c-.4.2-.6.6-.6,1,0,.6.2,1,.8,1.2.4.2.8.2,1.2.2,0,0,0-.2,0-.2Z"/>
    <path class="cls-2" d="M63.4,66.6l8.2,6c.2.2.6.4.8.4.6.2,1.4-.4,1.4-1.2,0,0,0-.4-.2-.6-.2-.4-.6-.6-1-.8-2.4-2-5-4-7.6-6-.4-.2-.8-.6-1.2-.6-.6-.2-1,0-1.4.4-.2.4-.2,1,0,1.4s.6.6,1,1Z"/>
    <path class="cls-2" d="M40,70.6c.4-.4.2-1-.2-1.4s-.8-.4-1.2,0c-.6.2-1,.8-1.6,1.2l-8.2,8.8c-.4.2-.6.6-.8,1-.2.8.4,1.6,1.4,1.6.2-.2.6-.2.8-.4l2.4-2.2c2-2.4,4.2-4.8,6.2-7.2l1.2-1.4Z"/>
    <path class="cls-2" d="M53.2,81v-5.8c0-.6,0-1.2-.2-1.8,0-.4-.6-.8-1-.6-.4,0-.8.4-1,.6-.2.6-.2,1.2-.2,1.6-.2,4.2-.2,8.4-.4,12.4,0,.4,0,.8.2,1,.2.4.6.8,1,1,.6.2,1.2-.4,1.4-.8.2-.6.2-1,.2-1.6,0,0,0-6,0-6Z"/>
    <path class="cls-2" d="M81,89.4c.2-.8,0-1.6,0-2.4-.2-.4-.6-.8-1.2-.8s-.8.2-1,.8c-.2.4-.4.8-.4,1.4l-.6,4.8c-.8,5.2-2.2,10.4-4.4,15.4-3.4,7.6-8.6,13.6-15.8,18-3.2,2-6.8,3.8-10.4,5.2-4.8,2-10,3-15.2,3.4-1.8,0-3.6.4-5.4-.2-.8-.2-1.2,0-1.4.6-.4.6-.2,1.4.6,1.6.4.2,1.2.4,1.8.4,1.2.2,2.2.2,3.4.2,2.6,0,5.4-.4,8-.8,7.4-1.4,14.2-4.6,20.6-8.4,6.8-4.4,11.8-10,15.4-17.2s4.2-10.8,5.2-16.4c.4-1.8.6-3.8.8-5.6Z"/>
  </g>
</svg>