<?xml version="1.0" encoding="UTF-8"?>
<svg xmlns="http://www.w3.org/2000/svg" version="1.1" viewBox="0 0 92.1 142.6">
  <defs>
    <style>
      .cls-1 {
        fill: #22beb9;
      }

      .cls-1, .cls-2, .cls-3 {
        stroke-width: 0px;
      }

      .cls-2 {
        fill: #003735;
      }

      .cls-3 {
        fill: #fff;
      }
    </style>
  </defs>
  <g id="Layer_1" data-name="Layer 1">
    <g>
      <path class="cls-1" d="M12.6,138.6c-.5,0-1.6,0-2.9-.4l-1.6-.5-.7-1.5c-.6-1.2-.6-2.4-.6-3.1-.4-7.1-.8-14.4-1-21.6-.4-8.8-.6-17.7-.8-26.4-.1-4-.2-8-.2-11.8,0-3.8,0-7.8-.2-11.6h0c0-3.5-.1-7.1-.2-10.5,0-3.5-.2-7-.2-10.6-.2-6.8-.2-13.8-.2-20.5s0-3.5.1-5.2c0-1.6,0-3.3,0-5s0-1.2.2-1.6c0-.1,0-.2,0-.3v-3.5l3.4-.4,1.8-.3h.4c5.9.4,11.9.8,17.9,1h.1s6.8.6,6.8.6c.5,0,1,0,1.3.2.2,0,.3,0,.3,0h4v4c0,.2,0,.5,0,.7,0,.4.1.9.1,1.5.2,8.1,0,17-.4,27,0,2.6-.1,5.4-.2,8,0,1.3,0,2.6,0,3.9,1.4-.5,2.8-1,4.3-1.4h.1c3.3-.8,6.5-1.1,9.5-1.1s5.4.3,8.1.9c4.1.8,7.4,2.6,9.8,4,7,3.8,11.5,9.7,13.7,18.3h0c1,4.4,1.5,8.1,1.7,11.7.8,8,1,16.4.8,25.6,0,3.3,0,6.6-.1,9.8,0,3.1,0,6.3,0,9.5s-.2,3.4-.4,5.1l-.4,3.1-3.1.4c-.3,0-.9,0-3.1,0-5.3,0-20.2-.3-23-.7l-3.4-.5v-3.3h0c0-.5-.2-1.1-.2-1.8,0-1.1,0-2.2.1-3.2,0-1,0-2.1,0-3.2.2-9,0-18.7-.4-29.8-.2-2.2-.6-4.5-1-6.8-.1-1-.4-2.1-.8-3.3-.9-2.3-3.4-3.6-5.2-3.6s-.3,0-.4,0c-2.7.3-5.1.9-7.1,1.6,0,.7,0,1.5,0,2.3,0,.9,0,1.8,0,2.7v7.9c-.2,2.4-.2,4.9-.2,7.5s0,2.4,0,3.6c0,1.3.1,2.6.1,4v7.6c0,1.3.2,2.5.2,3.8,0,1.2,0,2.5.2,3.7v.2s0,12,0,12h-3.9c-.3,0-.8.2-1.3.2-7.6.4-15.3.6-22,.8h0s0,0,0,0Z"/>
      <path class="cls-3" d="M9.8,8c6,.4,12,.8,18,1l6.8.6c.6,0,1,.2,1.8.2,0,.8.2,1.6.2,2.2.2,9,0,18-.4,26.8-.2,5.4-.2,10.8-.4,16.2,0,.4,0,.8.2,1.2.2,0,.3,0,.4,0,.6,0,1.1-.3,1.6-.5,2.4-.8,4.8-1.8,7.2-2.4,2.9-.6,5.8-1,8.7-1,2.4,0,4.9.3,7.3.8,3.2.6,6,2,8.6,3.6,6.4,3.4,10,8.8,11.8,15.8.8,3.6,1.4,7.2,1.6,11,.8,8.4,1,16.8.8,25.2,0,6.6-.2,13-.2,19.4s-.2,3-.4,4.6c-.3,0-1.2,0-2.6,0-6,0-20.1-.3-22.4-.7,0-.4-.2-1-.2-1.6,0-2,.2-4.2.2-6.4.2-10,0-20-.4-30-.2-2.4-.6-4.8-1-7.2-.2-1.4-.6-2.8-1-4-1.5-3.9-5.4-6.2-9-6.2-.3,0-.6,0-.8,0-3.4.4-7.2,1.2-10.6,3-.2,2.4,0,5,0,7.6v7.6c-.2,2.6-.2,5.2-.2,7.8s.2,5,.2,7.6v7.8c.2,2.4.2,5,.4,7.6v7.8c-.4,0-1,.2-1.4.2-7.4.4-14.6.6-22,.8-.4,0-1,0-1.6-.2-.2-.4-.2-1-.2-1.4-.4-7.2-.8-14.4-1-21.6-.4-8.8-.6-17.6-.8-26.4-.2-7.8-.2-15.6-.4-23.4,0-7-.4-14-.4-21-.2-6.8-.2-13.6-.2-20.4s.2-6.8.2-10.2.2-1.2.2-1.8l1.4-.2M9.5,0h-.8c0,.1-1.4.3-1.4.3L.4,1.3v6.6c0,.5-.2,1.2-.2,2.2,0,1.6,0,3.2,0,4.9,0,1.7-.1,3.5-.1,5.3,0,6.7,0,13.6.2,20.5,0,3.6.1,7.2.2,10.6,0,3.4.2,6.9.2,10.3h0c0,.1,0,.2,0,.2,0,3.8.1,7.8.2,11.6,0,3.9.1,7.9.2,11.8.2,8.7.4,17.6.8,26.5.2,7.2.6,14.5,1,21.5,0,1,0,2.8,1,4.7l1.5,3,3.1,1c1.8.6,3.4.6,4.1.6h.2c6.8-.2,14.4-.4,22.1-.8.7,0,1.3-.1,1.7-.2h7.4v-16.4c-.1-1.1-.2-2.3-.2-3.5,0-1.2,0-2.5-.2-3.8v-7.5c0-1.5,0-2.8-.1-4.1,0-1.2,0-2.3,0-3.5,0-2.5,0-4.9.2-7.2v-.3s0-.3,0-.3v-7.6c0-.7,0-1.4,0-2,1.1-.2,2.2-.4,3.5-.6.3,0,1.1.4,1.4,1,.3.9.5,1.7.6,2.4h0c0,0,0,.2,0,.2.4,2.2.7,4.4.9,6.4.4,11,.6,20.6.4,29.3h0v.2c0,.9,0,1.9,0,3,0,1.1-.1,2.3-.1,3.4s.1,1.6.2,2.1v6.4l6.9,1c3.3.5,19.1.7,23.6.7s3,0,3.6-.1l6.2-.8.8-6.2c.2-1.8.5-3.7.5-5.6,0-3.1,0-6.2,0-9.4,0-3.2.1-6.5.1-9.9.2-9.3,0-17.7-.8-25.9-.2-3.8-.8-7.7-1.8-12.1h0c0-.1,0-.3,0-.3-2.4-9.5-7.7-16.5-15.6-20.7-2.5-1.5-6.3-3.6-11-4.5-2.9-.6-5.9-1-9-1-3.2,0-6.4.4-9.8,1.1,0-2.1,0-4.2.2-6.3.5-10,.6-19,.4-27.2,0-.8,0-1.4-.2-1.9,0,0,0-.2,0-.3V1.8h-7.7c-.4,0-.9-.2-1.6-.2l-6.6-.6h-.2s-.2,0-.2,0C22.2.8,16.2.4,10.3,0h-.8Z"/>
    </g>
  </g>
  <g id="Layer_2" data-name="Layer 2">
    <path class="cls-2" d="M27.6,29l-1.8-4.8c-.8-2.4-1.6-4.8-2.4-7.2-.2-.4-.6-1-1.2-1-.6-.2-1,.4-1.4.8,0,.2-.2.4-.2.6l-5.2,10c-.4.8-.6,1.8-.2,2.8l4.2,11.6c.2.4.4.8.8,1.2.4.6,1.4.6,1.8,0,.2-.2.4-.4.6-.8,1.8-3.4,3.4-6.8,5.2-10.4,0-.4.2-.8.2-1.2,0-.6-.2-1-.4-1.6ZM25,31.2c-1.2,2.4-2.2,4.8-3.6,7.2-.4-.4-.6-.6-.6-1-1-2.4-1.8-5-2.8-7.4-.2-.6-.4-1.2,0-1.8,1.2-2.2,2.2-4.2,3.2-6.4.2,0,.4-.2.8-.4l3,8.4c.2.4.2,1,0,1.4Z"/>
    <path class="cls-2" d="M27.8,71.2c-.2-.4-.2-.8-.4-1.2-1.4-3.8-2.6-7.6-4-11.2-.2-.6-.4-1-1-1-.6-.2-1,0-1.4.6-.2.2-.4.6-.6,1-1.6,3.2-3.2,6.4-5,9.4-.6,1.2-.6,2.2-.2,3.2,1.6,3.8,2.8,7.6,4.2,11.2l.4,1c.6,1.2,1.8,1.4,2.6.2,0-.2.2-.4.2-.6l5-10.2c.2-.4.4-.8.4-1.2s0-.8-.2-1.2ZM25,73l-3.6,7.2c-.4-.6-.6-.8-.8-1.2-.8-2.4-1.6-4.8-2.6-7-.2-1-.2-1.8.2-2.6l3-5.6c0-.2.2-.4.6-.8.4.8.6,1.4.8,2,.8,2,1.6,4,2.2,6,.4.6.4,1.4.2,2Z"/>
    <path class="cls-2" d="M76.4,79.2c-.6-1.6-1.2-3.2-1.8-4.8l-2.4-7.2c-.2-.4-.6-1-1.2-1-.6-.2-1,.4-1.4.8s-.4.6-.4.8l-5,9.6c-.6,1-.6,2-.2,3.2l4.2,11.2c0,.4.2.8.6,1.2.4,1,1.6,1,2.2.2,0-.2.2-.4.4-.8,1.6-3.4,3.4-6.8,5-10.4.2-.4.2-.8.4-1.2l-.4-1.6ZM73.6,81.6c-1,2.4-2.2,4.6-3.4,7.2-.4-.6-.6-.8-.6-1-1-2.6-2-5-2.8-7.6-.4-.6-.4-1.4,0-2,1-2,2-4,3.2-6,0-.2.2-.4.6-.6l.8,2c.8,2,1.4,4,2.2,5.8.2.8.4,1.4,0,2.2Z"/>
    <path class="cls-2" d="M27.6,110.4c-1.2-3.2-2.4-6.2-3.4-9.2-.4-.8-.6-1.8-.8-2.8-.2-.4-.6-.8-1-.8-.6-.2-1,0-1.4.4l-.4,1c-1.8,3.2-3.6,6.6-5.4,10-.4.8-.4,1.6,0,2.6,1.4,4,2.8,7.8,4.4,11.8.2.8.6,1.6,1.6,1.6s1.2-.8,1.4-1.4c1.8-3.4,3.4-6.6,5-10,.2-.4.4-1,.4-1.4,0-.6-.2-1.2-.4-1.8ZM24.8,113.2c-1,2.2-2.2,4.4-3.4,7l-.8-1.6c-.8-2.2-1.6-4.6-2.6-7-.2-.6-.4-1.2,0-1.8l3.4-6.6q.2,0,.4-.2c.4,0,.4.4.4.8,1,2.2,1.8,4.6,2.6,7,.4.8.4,1.6,0,2.4Z"/>
    <path class="cls-2" d="M76.8,114.2c-1.6-3.8-3-7.8-4.4-11.8-.2-.6-.4-1.2-1-1.2-.4.2-1,.4-1.2.8-.4,0-.4.4-.6.8-1.8,3.2-3.4,6.6-5.2,9.8-.2.6-.2,1.2-.4,1.6,0,.4.2.8.2,1.2,1.6,4,3,8,4.4,11.8.2.4.4.6.4,1,.6.8,1.6.8,2.2.2.4-.6.6-1,.8-1.6l4.6-9c.6-1.2.6-2.2.2-3.6ZM74,116.6c-1,2.2-2,4.4-3.2,6.6,0,.2-.4.2-.6.2-1.2-2.8-2.2-5.4-3.2-8.2-.2-.6-.2-1.2.2-1.8,1-2.2,2-4.2,3.2-6.2,0-.2.2-.2.4-.4.2.2.4.4.6.8.8,2.4,1.8,4.8,2.6,7.2.2.6.4,1.2,0,1.8Z"/>
  </g>
</svg>