<?xml version="1.0" encoding="UTF-8"?>
<svg id="Layer_1" data-name="Layer 1" xmlns="http://www.w3.org/2000/svg" version="1.1" viewBox="0 0 52.6 143.1">
  <defs>
    <style>
      .cls-1 {
        fill: #f48722;
      }

      .cls-1, .cls-2, .cls-3 {
        stroke-width: 0px;
      }

      .cls-2 {
        fill: #a33e00;
      }

      .cls-3 {
        fill: #fff;
      }
    </style>
  </defs>
  <g id="Layer_1-2" data-name="Layer 1-2">
    <g>
      <path class="cls-1" d="M39.3,139.1h-8.4c-5.6,0-11.4,0-17.2-.5l-2.1-.2c-1.3-.1-2.4-.8-3-1.9l-1.1-1.8c-1.8-3-1.8-5.5-1.8-6.8v-6.5c-.6-7.7-.6-15.4-.6-22.9v-38.5c0-.9.3-1.8.8-2.5.3-.6.6-1.3,1.1-2l.8-1c.4-.6,1-1,1.7-1.3l1-.4c2.4-1,4.6-1,6-1,4.7,0,9.2,0,13.6-.2h.4c1.5,0,3.4,0,6-.4h4.4c1.1,0,2.1.4,2.8,1.2l1.2,1.2c3,3,3,6.5,3,7.6v51.5c0,1.8,0,3.6.2,5.5v3h0v13.6c0,2.2-1.8,4-4,4h-3.8c-.5.2-1,.3-1.5.3h.5Z"/>
      <path class="cls-3" d="M41,55.2l1.2,1.2c1.9,1.9,1.8,4.1,1.8,4.9v51.4c0,2.9.2,5.7.3,8.6,0,1.5.2,3,.2,4.5v9h-4.3c-.3,0-.8.2-1.3.2h.3-8.3c-5.5,0-11.3,0-16.9-.5l-2.1-.2-1.1-1.8c-1.2-2-1.2-3.6-1.2-4.7v-6.7c-.6-7.6-.6-15.3-.6-22.7v-36.1h0v-.6c0-1,.2-2.4,1.2-3.9l.7-.9,1-.4c1.7-.7,3.3-.7,4.5-.7,4.8,0,9.3,0,13.8-.2h.2c2,0,4.4-.2,6.4-.4h4M9.2,59.9v1.8-1.8M9.2,61.7v.6-.6M41,47.2h-4.8c-2.4.2-4.3.4-5.6.4h-.6c-4.3.2-8.8.2-13.4.2s-4.4,0-7.5,1.3l-1,.4c-1.3.5-2.5,1.4-3.3,2.5l-.7.9s0,.2-.2.2c-.5.7-1,1.5-1.3,2.3-.9,1.3-1.4,2.8-1.4,4.5v2.3h0v36.3c0,7.3,0,15.2.6,23v6.4c0,1.5,0,4.9,2.3,8.8h0l1.1,1.8c1.3,2.1,3.6,3.6,6.1,3.8l2.1.2c6,.5,11.8.5,17.5.5,2.8.1,5.7.1,8.4.1s1.5-.1,2.2-.3h3.1c4.4,0,8-3.6,8-8v-13.5c0-.5,0-.2,0-.3v-3c0-1.8-.2-3.6-.2-5.3v-51.4h0c0-4.3-1.4-7.8-4.1-10.6l-1.2-1.2c-1.5-1.5-3.5-2.3-5.7-2.3h-.4Z"/>
    </g>
    <g>
      <path class="cls-1" d="M26.2,48.4h-1c-5.7-.2-11-2.6-15.1-6.7-4.1-4.1-6.3-9.7-6.2-15.6,0-12.2,10-22.1,22.2-22.1s22.2,10,22.2,22.2-11.7,22.2-22.2,22.2h0Z"/>
      <path class="cls-3" d="M26.2,8c10,0,18.2,8,18.2,18.2s-9.4,18.2-18.2,18.2h0c-5,0-9.7-2.1-13.2-5.6-3.4-3.4-5.1-8-5-12.7,0-10,8.2-18.1,18.2-18.1M26.2,0C11.8,0,0,11.7,0,26c-.1,7,2.5,13.6,7.3,18.4,4.7,4.7,10.8,7.4,17.3,7.8h1.5c14,0,26.2-12.2,26.2-26.2S40.7,0,26.2,0h0Z"/>
    </g>
  </g>
  <g id="Layer_2" data-name="Layer 2">
    <path class="cls-2" d="M35.6,27.3c1.2,0,1.8-.6,1.8-1.2,0-1-.6-1.6-1.8-1.6h-5.6c-.8,0-1.6.2-2.8-.4v-8.2c-.2-.8-.6-1.2-1.4-1.2s-1,.4-1.2,1.2v7.2c0,.4-.2.8-.2,1.4h-2c-1.8.2-3.6.2-5.4.2s-1.2,0-1.8.2c-.6,0-1,.6-.8,1.2,0,.4.4,1,1,1.2h7.8c.4,0,.8.2,1.4.4v7.8c0,.6,0,1.2.2,1.6,0,.6.6.8,1,1,.6,0,1.2-.4,1.2-1,.2-.6.2-1,.2-1.6v-6.4c0-.6.2-1,.2-1.8,0,0,8.2,0,8.2,0Z"/>
    <path class="cls-2" d="M38,64.3c.2-.2.2-.4.2-.4,0-.6-.6-1.4-1-1.4h-1.8c-5.8.2-11.6.4-17.4.4-.4.2-.8.2-1.2.2-1.2.2-1.6,1.2-1,2.2.2.4.6,1,1,1.4,2.6,3.4,5.4,6.8,8,10.4,1.6,2,2.2,2,3.8,0,2.8-3.8,5.6-7.6,8.6-11.2.2-.6.6-1,.8-1.6Z"/>
    <path class="cls-2" d="M26.8,89.7c2.2,0,4-2,4-4.2s-1.8-4-3.8-4-4.2,1.8-4.2,4.2,1.8,4,4,4Z"/>
    <path class="cls-2" d="M27.4,99.9c2.2,0,4-2,4-4s-1.8-4.2-4-4.2-4,2-4,4,2,4.2,4,4.2Z"/>
    <path class="cls-2" d="M32,107.5c0-2.4-2.2-4.2-4.6-4.2s-4,1.8-4,4.2,1.8,4.4,4.4,4.2c2.4,0,4.2-2,4.2-4.2Z"/>
    <path class="cls-2" d="M37.6,128.1c.6-1,0-1.6-.6-2.2-2.2-3.4-4.6-6.8-7-10.2l-.4-.6c-.8-.8-1.6-1-2.4-.2-.2.2-.6.4-.8.8l-8.4,8.4c-.4.4-.8.8-1,1.2-.4.4-.6,1-.2,1.8.4,1,1.2,1.4,2.2,1.4h8.6v.2h8c.8,0,1.4,0,2-.6h0Z"/>
  </g>
</svg>