<?xml version="1.0" encoding="UTF-8"?>
<svg xmlns="http://www.w3.org/2000/svg" version="1.1" viewBox="0 0 89.4 163.8">
  <defs>
    <style>
      .cls-1 {
        fill: #22beb9;
      }

      .cls-1, .cls-2, .cls-3 {
        stroke-width: 0px;
      }

      .cls-2 {
        fill: #003735;
      }

      .cls-3 {
        fill: #fff;
      }
    </style>
  </defs>
  <g id="Layer_1" data-name="Layer 1">
    <g>
      <path class="cls-1" d="M19.4,159.8c-1.6,0-3.2,0-4.7-.1-1.6,0-3,0-4.5,0s-1.4,0-2.7-.4l-2.7-.9-.8-31.3h4.1c.3,0,.8-.2,1.4-.2h1.4c.8,0,1.5.1,2.3.1,3.9,0,7.9-1,11.9-2.9l5.7-3c3.2-1.6,5.7-4.2,8.4-8.6,2-3.3,3.3-7.2,4.3-10.6,1.4-5.5,2.3-10.8,2.9-16.4h0c.4-3.3.8-6.4,1-9.4v-.2c.4-3.1.6-6.2.8-9.2v-.6s.6-12.3.6-12.3c.2-2.6.4-5,.6-7.4l.2-2.7,2.6-.8c2.8-.8,9.2-.9,12.7-.9s9.6.2,12.4.6l3.5.5v3.5l.2.4v1.5s-.6,19.9-.6,19.9h0c-.4,5.4-.6,11-.8,16.4v.6c-.5,11.9-1.5,21-3.3,29.5-2.1,9.2-6,17.5-11.6,24.8-.3.5-.7,1-1,1.4-.1.2-.4.5-.4.6l-.2.3-.2.3c-3.3,4.3-7.7,7.8-13.6,10.8-5.9,2.8-12,4.5-17.8,5.9h-.1c-4.2.9-8.3.9-12.2.9Z"/>
      <path class="cls-3" d="M65.2,46c4.5,0,9.1.2,11.8.6,0,.4,0,1,.2,1.4v.4c-.2,6.6-.4,13.2-.6,19.8-.4,5.6-.6,11.4-.8,17-.4,9.6-1.2,19.2-3.2,28.8-2,8.6-5.6,16.4-11,23.4-.4.8-1.2,1.6-1.6,2.4-3.2,4.2-7.4,7.2-12.2,9.6-5.4,2.6-11.2,4.2-17,5.6-3.8.8-7.6.8-11.4.8s-6.2-.2-9.2-.2-.8,0-1.4-.2l-.6-24.4c.6,0,1-.2,1.4-.2h1c.9,0,1.8.1,2.7.1,4.8,0,9.5-1.3,13.7-3.3l5.8-3c4.4-2.2,7.4-5.8,10-10,2.2-3.6,3.6-7.6,4.8-11.6,1.4-5.6,2.4-11.2,3-17,.4-3.2.8-6.4,1-9.6.4-3.4.6-6.8.8-10l.6-12.2c.2-2.6.4-5,.6-7.4,1.8-.5,6.6-.8,11.6-.8M65.2,38h0c-6.7,0-11.4.4-13.8,1.1l-5.3,1.5-.5,5.5c-.2,2.4-.4,4.8-.6,7.5h0c0,.1,0,.2,0,.2l-.6,12.1v.5c-.2,3-.4,6-.8,9v.2s0,.2,0,.2c-.2,3-.6,5.9-1,9.1h0c0,0,0,.2,0,.2-.5,5.3-1.5,10.4-2.8,15.7-.9,3.1-2.1,6.6-3.9,9.5-2.3,3.7-4.3,5.8-6.8,7h0s0,0,0,0l-5.7,2.9c-3.5,1.7-6.9,2.5-10.1,2.5s-1.3,0-1.9,0h-.4s-.4,0-.4,0h-1c-.8,0-1.5.1-1.9.2H0l.2,8.2.6,24.4v5.6c.1,0,5.5,1.8,5.5,1.8,1.8.6,3.2.6,3.9.6,1.4,0,2.8,0,4.3,0,1.6,0,3.2.1,4.9.1,4,0,8.4,0,13-1h.1s.1,0,.1,0c6-1.5,12.4-3.2,18.6-6.2h0s0,0,0,0c6.4-3.2,11.3-7.1,15-11.9l.5-.6.2-.4c0,0,.1-.1.2-.2.3-.4.7-.9,1.1-1.6,5.8-7.6,9.9-16.4,12.1-26h0c0,0,0-.2,0-.2,1.8-8.7,2.9-18,3.4-30.1v-.6c.2-5.4.4-10.9.8-16.2v-.2s0-.2,0-.2l.6-19.8h0v-2.5l-.2-.4v-6.1l-6.9-1c-3-.4-7.8-.7-12.9-.7h0Z"/>
    </g>
    <g>
      <path class="cls-1" d="M67,40.6c-10.2,0-18.2-8-18.2-18.2s2.1-10.2,5.9-13.6c3.3-3,7.8-4.8,12.2-4.8s.3,0,.5,0c10.1.3,18,8.3,18.1,18.3.1,4.7-1.7,9.3-5.1,12.8-3.4,3.5-8.2,5.5-13.3,5.5Z"/>
      <path class="cls-3" d="M66.8,8c.1,0,.2,0,.4,0,8,.2,14.2,6.4,14.2,14.4.2,7-5.4,14.2-14.4,14.2s-14.2-6.4-14.2-14.2,7.5-14.4,14-14.4M66.8,0c-5.4,0-10.8,2.1-14.8,5.8-4.6,4.2-7.2,10.1-7.2,16.6,0,12.4,9.8,22.2,22.2,22.2s12-2.4,16.2-6.7c4.1-4.2,6.3-9.9,6.2-15.6C89.3,10.1,79.7.3,67.4,0c-.2,0-.4,0-.6,0h0Z"/>
    </g>
  </g>
  <g id="Layer_2" data-name="Layer 2">
    <path class="cls-2" d="M64.6,11.8v2.4c.2.6.2,1,.2,1.6.2.4.6.8,1.2.8s1-.2,1.2-.6c.2-.6.2-1.2.2-1.6,0-1-.2-2-.2-2.8-.2-.6-.8-1-1.2-1-.6,0-1.2.6-1.4,1.2Z"/>
    <path class="cls-2" d="M69.8,16.8c0,.6.6,1.2,1.4,1,.2,0,.6-.2.8-.4.8-1,1.4-2,1.8-3.2.4-.4.2-1-.2-1.4-.4-.2-1.2-.4-1.6,0-1.2,1-2,2.4-2.2,4Z"/>
    <path class="cls-2" d="M58,15.6c-.2.4-.2,1,.2,1.4.8.6,1.8,1,2.6,1.6.6.2,1.6-.4,1.4-1.4,0,0,0-.4-.2-.6-.6-1-1.8-1.4-3-1.6-.2-.2-.8.4-1,.6Z"/>
    <path class="cls-2" d="M66.4,23.4c1.2,0,2.2-1,2.2-2.2s-1-2-2-2-2.2,1-2.2,2.2,1,2,2,2Z"/>
    <path class="cls-2" d="M76.8,22.4c.8-.4,1.2-1,1-1.8-.2-.6-.8-1-1.8-.8-.4.2-.8.2-1.2.4-1,0-1.8.2-2.8.2-.8.2-1.2.8-1.2,1.4s.6,1.2,1.2,1.2h3l1.8-.6Z"/>
    <path class="cls-2" d="M57,23.2c.6.2,1.4,0,2.2,0s1.8,0,2.8-.2c.2,0,.6-.4.8-.8.2-.4,0-1-.4-1.2-.2-.2-.6-.4-.8-.4-1.6,0-3.2,0-4.6.2-.8,0-1.2.6-1.2,1.4.2.4.6,1,1.2,1Z"/>
    <path class="cls-2" d="M63.2,26c.2-.6-.6-1.4-1.4-1s-.8.4-1,.6l-1.4,2.6c-.2.4-.2.8,0,1.2,0,.4.4.6.8,1,.4-.2.6-.2.8-.2,1.2-1.2,2-2.6,2.2-4.2Z"/>
    <path class="cls-2" d="M67.6,31.4c.4-1.6.4-3.2,0-4.8,0-.6-.6-1-1.2-1s-1,.4-1.2,1v4.4c0,.8.6,1.2,1.2,1.2.6.2,1-.2,1.2-.8Z"/>
    <path class="cls-2" d="M74.4,29.4c.4-.4.6-1,.4-1.4-.6-.8-1.4-1.4-2-2.2h-.6c-1-.2-1.6,1-1.2,1.6.6.8,1.4,1.6,2,2.2.4.2,1,.2,1.4-.2Z"/>
    <path class="cls-2" d="M62.4,84.4l-.8-1.2c1.6-.8,3.4-1.2,5-1.8.8-.2,1.8-.6,2.6-1,1.2-.6,1.4-1.8.6-2.8-.4-.6-1-1-1.4-1.4-1.6-1.2-3.2-2.6-4.6-4-.4-.2-.6-.6-1-1l1.2-.8c.6-.4,1.2-.8,2-1,1-.6,2-1,3-1.4,1.4-1,1.6-2.2.4-3.2l-1.8-1.2c-1.4-1-2.6-1.8-3.8-2.8-.4-.2-.6-.6-1-1.2l3.4-1.2c.8-.2,1.8-.6,2.4-1,1.4-.8,1.4-2.2.2-3.2q-.2-.2-.4-.2l-5.4-3c-.4,0-.8-.2-1.2-.2-.2.2-.8.4-.8.6-.2.4,0,1,.2,1.2.4.4,1.2.8,1.8,1.2,1,.6,2,.8,3,1.8-.8.2-1.2.4-1.6.6-1.2.4-2.4,1-3.6,1.4-1.6.8-1.8,1.8-.6,3.2.8,1,1.8,1.8,2.8,2.6,1,1,2.2,1.8,3.6,2.8l-3.2,1.4c-1.2.6-2.2,1.2-3,2.2-.6,1-.6,1.8,0,2.8l1.2,1.4c1,1,2.2,1.8,3.2,2.6.6.6,1.2,1.2,2,1.8l-1.6.6c-1.2.6-2.6,1-3.8,1.4-.6.2-1.2.4-1.6.8-1.4.8-1.8,1.8-.8,3.2.4.6,1,1.2,1.6,1.8l4.6,5c.2.2.4.6.6,1l-5.6.6c-.4,0-1,0-1.6.2-1,.4-1.6,1.2-1.2,2.2.2.6.4,1.2.8,1.8l4.4,5.6c.4.4.6.8,1,1.4-.4.2-.6.2-.8.4l-4.6.6c-.4,0-.6,0-1,.2-1.6.4-2,1.4-1.4,2.8.4,1,.8,1.8,1.4,2.6,1,1.6,2,3,3.2,4.4.2.4.8.8.6,1.6-.6.2-1.4.2-2.2.2-1.6.2-3.4.2-5,.4-3,.6-3.6,1.8-2.2,4.8.8,1.6,1.6,3.4,2.6,5.2,0,.4.4.6-.2,1.2-1.6-.8-3.4-1.8-5.2-2.6-.6-.2-1-.6-1.6-.8-1.4-.4-2.4.2-2.4,1.6-.2,1.6,0,3,.2,4.6,0,1.6.2,3.2.2,4.8s.2.8-.4,1c-.4-.6-1-1.2-1.6-1.8-.8-.8-1.4-1.8-2.2-2.4-1.4-1.2-2.8-1-3.8.6l-.6,1.8c-.6,1.6-1.2,3.2-1.6,5-.2.2-.4.6-.6,1.2-.6-.8-1-1.6-1.6-2.2l-2.4-3c-.8-.8-2-.6-2.6.4-.4.6-.6,1.2-.8,1.8-.6,1.8-1,3.4-1.4,5,0,.4-.2.8-.6,1.6l-2-3c-.6-.6-1-1.4-1.6-2-.6-.6-1.6-.6-2.4,0-.4.6-1,1.2-1.4,2-1.2,2.2-1.8,4.4-3.2,6.4-.4.6-.2,1.2.2,1.6.4.4,1.4.4,1.6,0,.4-.2.6-.6.8-.8l1.4-2.6c.6-1.2,1-2.4,1.8-3.6.6.6,1,1,1.4,1.6.6.8,1.2,1.8,1.8,2.8.6.8,1.4,1.6,2.4,1.4,1.2-.2,1.6-1.2,1.8-2.2l.6-1.8c.2-1.4.4-2.6.8-3.8.2-.6,0-1,.8-1.4l.6.6c.4.8,1,1.6,1.6,2.4l1.2,1.8c1.2,1.2,2.6,1,3.2-.4.4-.6.4-1.2.6-1.6l1.8-5.6c.2-.6.4-1,.8-1.8l1.4,1.6c1.2,1.6,2.4,3,3.4,4.4.4.6.8,1.2,1.2,1.6,1,.8,2.2.4,2.4-.8.2-.6.2-1.2.2-1.8-.2-3.4-.6-6.8-.8-10.2v-1.6c.8.2,1.2.4,1.6.6l4.8,2.4c.8.2,1.6.4,2.4.4,1,.2,1.8-.6,1.6-1.6,0-.8-.2-1.4-.4-2.2-1-2-2.2-4.2-3-6.4-.2-.4-.4-.8-.4-1.2,1-.6,2-.6,3.2-.6s2.2,0,3.4-.2c1,0,2-.2,3-.8.8-.6,1.2-1.6.6-2.6-.2-.6-.6-1.2-1-1.6-1.4-1.8-2.8-3.6-4-5.6-.2-.2-.6-.6-.2-1.2,1.4-.4,3-.4,4.4-.8,1,0,1.8-.2,2.6-.6,1-.4,1.4-1.6.8-2.4-.6-1-1.2-1.8-2-2.6l-3.6-4.6c-.2-.2-.2-.6-.6-1.2.6,0,1-.2,1.4-.2,1.8-.2,3.4-.2,5.2-.4.4,0,1,0,1.6-.2,1-.2,1.4-1.2,1-2.2-.4-.6-.8-1.2-1.2-1.6-2-2.2-4.2-4.2-6.2-6.4Z"/>
  </g>
</svg>