<?xml version="1.0" encoding="UTF-8"?>
<svg id="Layer_1" data-name="Layer 1" xmlns="http://www.w3.org/2000/svg" version="1.1" viewBox="0 0 94.1 143.6">
  <defs>
    <style>
      .cls-1 {
        fill: #630f00;
      }

      .cls-1, .cls-2, .cls-3 {
        stroke-width: 0px;
      }

      .cls-2 {
        fill: #fff;
      }

      .cls-3 {
        fill: #ff5708;
      }
    </style>
  </defs>
  <g id="Layer_1-2" data-name="Layer 1">
    <g>
      <path class="cls-3" d="M32.9,139.6h-8.4c-5.5,0-11.1,0-16.9-.6l-3.6-.3v-5.4c0-3.9.2-7.7.4-11.8v-.6c.7-16.1.7-32.4.6-48.3v-9.7c0-9.2.2-18.8.4-28l.6-17.5c0-2.9.2-5.6.4-8.5l.2-2.8,2-1c1.2-.6,2.3-.6,2.9-.6,2.9,0,5.9,0,8.8-.2,2.9,0,5.9,0,8.7-.2h.1c.8,0,1.6,0,2.3,0h6.1v3.9h0c0,.3.2.8.2,1.3.6,7.5.5,14.9.5,22.1v7.2c.2,9.2.2,18.4.2,27.4,1.2-1.3,2.5-2.6,3.7-3.9,3.8-4.2,11.1-11.7,15-14.9l1.1-.9h1.4c1.3,0,2.1.5,2.5.8h0l.3.2.3.2c4.5,3.4,8.9,7.1,13.3,10.7l.5.4,2.4,3.6-2,2.3c-5.8,6.7-11.9,13.2-17.7,19.5-2.2,2.4-4.5,4.8-6.8,7.3,2.1,2.4,4.2,4.9,6.2,7.3,1.1,1.3,2.1,2.5,3.2,3.8l.5.6c.6.7,1,1.3,1.5,1.8l.2.2.2.2c5.1,6.8,10.8,12.8,16.8,19.2l1.9,2c1.3,1.3,2.5,2.7,3.6,4,.5.6,1,1.1,1.5,1.7l1.5,1.7-.7,2.2c-.6,1.9-2.3,3.2-4.3,3.2s-.4,0-.6,0c-3.4,0-7,0-10.2.2h-.2c-2.3,0-4.6,0-6.8.1h-10.9l-1.2-1.2c-3-3-5.5-6.3-8-9.5-1.2-1.5-2.4-3.1-3.6-4.6l-4.9-5.9v3.7c0,3.6,0,7.2,0,10.9s0,.2,0,.3c0,.8,0,2.1-.5,3.7l-1,2.5h-2.4c-.3,0-.8.2-1.3.2h-.1Z"/>
      <path class="cls-2" d="M29.2,8c1.4,0,2.8.2,4.4.2,0,.6.2,1,.2,1.4.8,9.8.4,19.4.4,29,.2,11.6.2,23,.2,34.4v2.6c.6-.2.8-.2,1-.4,3.2-3.6,6.4-7,9.6-10.4,3.8-4.2,11-11.6,14.6-14.6.2,0,.4.2.8.4,4.4,3.4,8.8,7,13.2,10.6l.4.6c-8.6,10-17.8,19.4-26.6,29l1,1.8c3.6,4,7,8.2,10.4,12.2.8,1,1.4,1.8,2.2,2.6,5.8,7.8,12.4,14.6,19,21.6,1.8,1.8,3.4,3.8,5,5.6,0,.4-.3.4-.5.4h-.5c-3.6,0-7.2,0-10.6.2-4.6,0-9,.2-13.4.2h-2.6c-4.2-4.2-7.6-9.2-11.4-13.8l-11.2-13.6c-.8,0-.8.4-.8.8v2.4c0,7.2.2,14.4.2,21.6s.2,1.6-.2,2.6c-.4,0-.8.2-1,.2-8.2-.2-16.6.2-25-.6v-1.8c0-4,.2-8,.4-12.2.8-19.4.6-38.8.6-58.2s.2-18.6.4-28l.6-17.4c0-3,.2-5.8.4-8.8.4-.2.8-.2,1.2-.2,5.8-.2,11.8-.2,17.6-.4M29.2,0h-.3c-2.8.1-5.8.2-8.7.2s-5.9,0-8.8.2c-.9,0-2.7,0-4.6,1L2.7,3.5l-.3,4.6v.5c-.2,2.9-.4,5.6-.4,8.7l-.6,17.3h0c-.2,9.4-.4,19-.4,28.3v9.7c0,15.8,0,32.1-.6,48.1v.5C.2,125.3,0,129.2,0,133.2v9.1l7.2.7c6,.6,11.8.6,17.5.6h8.1c.7,0,1.4,0,1.8-.2h4.6l2-5c1-2.4.8-4.5.8-5.5v-3.3c.4.5.8,1,1.2,1.5,2.6,3.3,5.2,6.7,8.4,9.9l2.3,2.3h5.9c2.3,0,4.5,0,6.7-.1h7.2c3.1-.2,6.4-.2,9.8-.2h.8c3.7,0,6.9-2.3,8.1-5.9l1.5-4.4-3.1-3.5c-.5-.5-1-1.1-1.4-1.7-1.1-1.3-2.4-2.8-3.8-4.2l-1.9-2c-5.9-6.3-11.5-12.2-16.5-18.8l-.3-.5-.4-.4c-.3-.3-.7-.8-1.2-1.4l-.4-.5h0v-.2c-1.1-1.2-2.1-2.5-3.2-3.8-1.3-1.5-2.6-3.1-3.9-4.6,1.5-1.6,2.9-3.1,4.3-4.6,5.9-6.3,12-12.9,17.9-19.6l4-4.6-3.4-5.1-.4-.6-.7-1-.9-.8c-4.4-3.6-8.9-7.3-13.4-10.7l-.6-.5-.5-.3c-.7-.4-2.3-1.3-4.5-1.3h-2.9l-2.2,1.9c-3.1,2.6-8.2,7.7-12.1,11.8,0-5.7,0-11.5-.2-17.3v-7c0-7.2.2-14.7-.5-22.4,0-.6,0-1.1-.2-1.5V.2h-9.8c-.8,0-1.7-.1-2.6-.1h.1Z"/>
    </g>
  </g>
  <g id="Layer_2" data-name="Layer 2">
    <path class="cls-1" d="M31.4,18.2c.4,0,.6-.6,1-.8-.2-.6-.4-1-.8-1.4l-4.8-4.8c-.2-.2-.6-.4-1-.6-.4,0-.8.2-1,.4-.4.2-.4.8-.4,1,.2.4.4.8.6,1l5,4.6c.4.4,1,.6,1.4.6Z"/>
    <path class="cls-1" d="M15.6,13.6c-.2.6.4,1.4,1.2,1.4.4.2,1-.4,1-1,.2-.6-.2-1.2-1-1.2-.6-.2-1.2.2-1.2.8Z"/>
    <path class="cls-1" d="M12.2,17.6c-.2.4-.2,1,0,1.4l1.2,1.2c3.8,3,7.8,6.2,11.6,9.4,1,1,2.2,2,3.4,3l1.2.6c.4.2,1.2-.6,1.2-1,0-.8-.6-1.2-1-1.6l-7.2-6.4c-2.4-2-5-4-7.4-6.2-.6-.2-1.2-.6-1.6-.8-.6-.2-1,0-1.4.4Z"/>
    <path class="cls-1" d="M22.4,18.8c0,.6.4,1.2,1,1.2s1.2-.4,1.2-1-.4-1-1-1.2c-.6,0-1.2.6-1.2,1Z"/>
    <path class="cls-1" d="M29,24.2c0,.6.6,1.2,1.2,1.2s1-.6,1-1.2-.6-1.2-1.2-1.2c-.6.2-1,.6-1,1.2Z"/>
    <path class="cls-1" d="M12.8,25.6c-.6,0-1,.6-.8,1.2,0,.4.6.8,1,.8.6,0,1-.6,1-1.2s-.6-1-1.2-.8Z"/>
    <path class="cls-1" d="M19.6,31.2c0-.8-.6-1.4-1.4-1.4s-.8.4-1,1c0,.6.6,1.4,1.4,1.4s1-.6,1-1Z"/>
    <path class="cls-1" d="M31.2,50c.4-.4.6-1.2.2-1.6-.6-.6-1.2-1.2-1.8-1.6-5.2-4.4-10.6-8.6-15.8-13l-1.2-.8c-.2-.2-.6-.2-1-.2-.4.2-.6.4-.8.8-.4.4-.2,1,.2,1.2.4.6,1.2,1.2,1.8,1.6l16.2,13c.2.2.6.4,1,.6.4.4.8.4,1.2,0Z"/>
    <path class="cls-1" d="M24.6,35c.2-.6-.4-1.2-1-1.2s-1.2.4-1.2,1,.6,1.2,1.2,1.2,1-.4,1-1Z"/>
    <path class="cls-1" d="M30,39.2c0-.6-.4-1.2-1.2-1.2s-1,.6-1,1.2.8,1,1.4,1c.4-.2.8-.6.8-1Z"/>
    <path class="cls-1" d="M12.2,43.8c0,.4.6,1,1.2,1s1-.6,1-1.2-.6-1-1.2-1-1,.6-1,1.2Z"/>
    <path class="cls-1" d="M16.6,47.2c0,.6.6,1.2,1.4,1.2s1-.4,1-1-.6-1.2-1.2-1.2-1,.4-1.2,1Z"/>
    <path class="cls-1" d="M13.6,51.4c-.6-.4-1.2-1-2.2-1-.2.2-.6.4-.6.8-.2.2-.2.8,0,1,.2.4.6.8,1,1l16.2,12c.4.4,1,.6,1.4.8.4.2.6.4,1,.4.2-.2.8-.4,1-.6,0-.4,0-.8-.2-1.2,0-.2-.4-.4-.6-.6l-10.2-7.6c-2.2-1.6-4.6-3.4-6.8-5Z"/>
    <path class="cls-1" d="M22.4,51.6c0,.6.4,1,1,1s1-.6,1-1c0-.6-.6-1.2-1-1.2-.6,0-1,.6-1,1.2Z"/>
    <path class="cls-1" d="M59.8,53.8c-.6,0-1,.6-.8,1.2,0,.6.6,1.2,1.2,1,.6-.2,1-.8,1-1.2,0-.6-.8-1.2-1.4-1Z"/>
    <path class="cls-1" d="M28.6,56.4c0,.6.4,1,1,1s1-.4,1-1-.4-1-1-1-1,.4-1,1Z"/>
    <path class="cls-1" d="M56.2,57.2c-.8,0-1.6,1-1.2,1.6l1,1.2c2.6,2,5.2,4,7.8,6.2.6.2,1.2.6,1.8.8.2,0,.8-.2,1-.6s.2-.8-.2-1.2c0-.2-.2-.2-.4-.4-2.6-2.2-5.4-4.4-8.2-6.8-.2-.2-.6-.4-1-.6-.2-.2-.4-.2-.6-.2Z"/>
    <path class="cls-1" d="M64.4,57.2c-.6,0-1,.6-1,1,0,.6.6,1.2,1.2,1.2s1-.6,1-1.2-.6-1-1.2-1Z"/>
    <path class="cls-1" d="M68.8,60.6c-.6,0-1,.4-1,1,.2.6.8,1.2,1.4,1.2.6-.2.8-.6,1-1.2,0-.6-.6-1.2-1.4-1Z"/>
    <path class="cls-1" d="M14.6,63.2c.6-.2,1-.6,1-1.2s-.6-1-1.2-1-1,.4-1,1,.6,1.2,1.2,1.2Z"/>
    <path class="cls-1" d="M51.4,62.8c-.2.6.4,1.2,1,1.2s1.2-.4,1.2-1-.6-1.4-1.2-1.4-1,.6-1,1.2Z"/>
    <path class="cls-1" d="M22,66.4c0-.8-.6-1.4-1.4-1.2-.4,0-.8.4-.8,1s.4,1.2,1.2,1.2,1.2-.4,1-1Z"/>
    <path class="cls-1" d="M57.4,66.6c0-.6-.6-1.2-1.2-1-.6,0-1,.6-1,1,0,.6.6,1.2,1.2,1.2s1-.6,1-1.2Z"/>
    <path class="cls-1" d="M30.4,81c.4,0,1.2-.6,1-1.4-.2-.2-.4-.6-.8-1-2.2-1.6-4.4-3.2-6.6-4.6-3.4-2.4-6.8-4.8-10.2-7-.4-.4-1-.8-1.6-1s-1.2,0-1.6.4c-.2.6-.2,1.2.2,1.6s.8.6,1.2.8l12.6,8.8c1.4,1,3,2,4.4,2.8.4.4.8.4,1.4.6Z"/>
    <path class="cls-1" d="M46.6,66.2c-1-.2-1.6,1-1.2,1.6.4.6.8,1,1.2,1.4,2,1.8,4,3.6,6.2,5.4.8.6,1.6,1.2,2.4,1.6.4.2.8.4,1.2.4s.8-.2.8-.6c.2-.2.2-.6,0-1,0-.2-.2-.4-.4-.6-1.8-1.4-3.6-2.8-5.2-4.4-1.4-1-2.6-2.2-3.8-3.2-.4-.4-.8-.6-1.2-.6Z"/>
    <path class="cls-1" d="M60.6,71.2c.4-.2,1-.8.8-1.2,0-.8-.6-1.2-1.2-1.2s-1.2.6-1.2,1c0,.6.8,1.4,1.6,1.4Z"/>
    <path class="cls-1" d="M29.6,70.8c0-.6-.4-1.2-1-1.4-.6,0-1.2.4-1.2,1.2-.2.6.4,1.2,1,1.2s1.2-.4,1.2-1Z"/>
    <path class="cls-1" d="M42.8,71.2c-.4.2-1,.6-.8,1.2,0,.6.6,1.2,1,1.2.6,0,1.2-.8,1.2-1.4-.2-.6-.8-1-1.4-1Z"/>
    <path class="cls-1" d="M36.8,74.8c-.2.4-.2,1,0,1.2.4.6.8,1.2,1.4,1.6,2.4,2,4.8,4,7.4,6,.4.4,1,.6,1.6,1,.2.2.6.4.8.2.4-.2.8-.4,1.2-.8-.2-.6-.4-1-.8-1.2-3-2.6-6-5.2-9-7.6-.4-.4-.8-.6-1.4-.8-.4-.2-1,0-1.2.4Z"/>
    <path class="cls-1" d="M48.6,76c0-.6-.6-1.2-1.2-1.2s-1.2.6-1.2,1.2.8,1,1.4,1,1-.6,1-1Z"/>
    <path class="cls-1" d="M12,76.6c0,.6.4,1.2,1,1.4.6,0,1-.4,1.2-1,0-.8-.6-1.4-1.2-1.2-.6,0-.8.2-1,.8Z"/>
    <path class="cls-1" d="M51.6,80.4c.4,0,1-.6,1-1.2-.2-.6-.6-1.2-1.4-1-.6,0-1,.6-1,1,0,.6.6,1.2,1.4,1.2Z"/>
    <path class="cls-1" d="M18.2,80.8c0,.4.6,1,1,1,.6,0,1.2-.6,1-1.2,0-.4-.6-1-1-1-.6,0-1.2.6-1,1.2Z"/>
    <path class="cls-1" d="M33.6,82c0,.6.6,1,1.2,1,.6-.2,1-.6,1-1.2s-.6-1-1.2-1c-.6.2-1,.6-1,1.2Z"/>
    <path class="cls-1" d="M13.2,82c-.6-.2-1.2.2-1.4.8-.2.4-.2,1,.2,1.4.2.2.6.4.8.4l15.2,9.6c.6.4,1,.6,1.6.8.6.2,1.4-.4,1.4-1.2l-.4-.6c-.2-.4-.6-.6-1-.8-3.4-2.2-6.6-4.6-10-6.6-1.6-1.2-3.4-2.2-5.2-3.2l-1.2-.6h0Z"/>
    <path class="cls-1" d="M25.6,83c-.6,0-1.2.6-1,1,0,.6.6,1.2,1.2,1.2s1-.6,1-1.2-.6-1-1.2-1Z"/>
    <path class="cls-1" d="M39.4,84.4c0-.6-.4-1-1-1s-1,.4-1,.8c-.2.6.2,1.2.8,1.2s1.2-.4,1.2-1Z"/>
    <path class="cls-1" d="M43.8,88.2c0-.6-.6-1-1.2-1s-1,.4-1,1,.6,1,1,1c.8,0,1.2-.4,1.2-1Z"/>
    <path class="cls-1" d="M15,93.8c0-.6-.4-1.2-1-1.2s-1.2.4-1.2,1,.4,1,1,1,1-.4,1.2-.8Z"/>
    <path class="cls-1" d="M20.2,97.6c.6,0,1.2-.6,1.2-1.2-.2-.6-.8-1-1.4-1s-1,.6-1,1c0,.8.6,1.2,1.2,1.2Z"/>
    <path class="cls-1" d="M9.8,98.2c-.2.4,0,1,.4,1.2l1.2,1.2c5.6,3.2,11,6.2,16.8,9,.4.2.6.4,1,.4.6.2,1,0,1.2-.4.4-.6.4-1,0-1.4-.6-.4-1.2-.8-1.8-1-2.4-1.4-4.8-2.8-7.4-4.2-3-1.6-5.8-3.4-8.8-5l-1.4-.6c-.4.2-.8.4-1.2.8Z"/>
    <path class="cls-1" d="M36.4,102.4h.8c3.4-.6,6.8-1.4,10.2-2,.4,0,.8-.2,1.2-.4.4-.2.6-.8.6-1.4-.2-.6-.8-1-1.4-1s-.6,0-.8.2c-3.4.6-6.6,1.4-10,2.2-.4,0-.8.2-1.2.2-.6.2-.8.8-.8,1.4s.4.8,1.4.8Z"/>
    <path class="cls-1" d="M29,100.2c0-.6-.6-1.2-1.4-1.2s-1.2.6-1,1.4c0,.4.6,1,1.2,1s1.2-.6,1.2-1.2Z"/>
    <path class="cls-1" d="M50.4,103.6c0,.6.6,1.2,1.2,1.2s1-.4,1.2-1c0-.6-.6-1.2-1.2-1.2s-1,.4-1.2,1Z"/>
    <path class="cls-1" d="M47.4,104.6c0-.4-.6-1-1.4-1s-1.2.4-1.2,1,.6,1.2,1.2,1.2,1.4-.6,1.4-1.2Z"/>
    <path class="cls-1" d="M41,107.2c.6,0,1-.6,1-1,0-.6-.6-1.2-1-1.2-.6.2-1.2.6-1,1.2,0,.6.4,1,1,1Z"/>
    <path class="cls-1" d="M15.4,108c-.2,0-.4-.4-.6-.8-.4-.2-.8-.4-1.4-.2-.4.4-.6.8-.4,1.4.2.4.4.8,1,.8.8.2,1.4-.2,1.4-1.2Z"/>
    <path class="cls-1" d="M43.4,113.2l3-.6c3.4-.6,6.8-1.4,10.2-2,.6-.2,1.4-.4,1.8-.8.6-.2.8-.6.6-1.2,0-.4-.4-.8-1-.8h-1.8c-4.2,1-8.6,2-12.8,3-.4,0-1,.2-1.2.6-.4.2-.4.8-.4,1,.2.4.6.6.8.8h.8Z"/>
    <path class="cls-1" d="M23.2,112.8c.2-.6-.2-1.2-1-1.2s-1,.4-1,1.2.4.8,1,.8,1-.2,1-.8Z"/>
    <path class="cls-1" d="M31,125c.2-.4.2-1-.2-1.4l-1-.6c-1.4-.8-2.8-1.4-4-2.2-3.2-1.8-6.6-3.6-9.8-5.6-1.2-.6-2.6-1.4-4-2l-1.6-.6c-.4.2-1,.4-1.2.8s0,1,.4,1.4c.2.2.6.4,1,.6,5.2,2.8,10.4,5.8,15.8,8.6l2.4,1.2c.2.2.8.4,1,.4,0,0,1.2-.6,1.2-.6Z"/>
    <path class="cls-1" d="M59.4,113.6c0,.6.4,1.2,1,1.2s1-.4,1.2-1c0-.4-.4-1-1-1-.6-.2-1,.2-1.2.8Z"/>
    <path class="cls-1" d="M56,115c0-.6-.6-1-1-1-.6-.2-1.2.4-1.2.8,0,.6.4,1.2,1,1.2s1-.4,1.2-1Z"/>
    <path class="cls-1" d="M30.2,115.6c0-.6-.6-1.2-1-1.2-.8,0-1.6.6-1.4,1.4.2.6.6.8,1,.8.8,0,1.4-.4,1.4-1Z"/>
    <path class="cls-1" d="M49.2,117.6c.6,0,1-.4,1-.8,0-.8-.4-1.2-1.2-1.2s-1,.4-1,1,.6,1,1.2,1Z"/>
    <path class="cls-1" d="M51.2,123.2c.2.2.6,0,.8,0,2.4-.2,4.8-.6,7.2-.8,2-.4,4-.6,6-1,.6-.2,1-.4,1.6-.8.4-.2.4-1,0-1.4-.4-.2-1-.4-1.2-.6h-.4c-4.2.8-8.4,1.4-12.6,2l-1.8.6c-.4,0-.6.4-.6,1s.4.8,1,1Z"/>
    <path class="cls-1" d="M13.4,125c.6,0,1-.6,1-1.2s-.6-1-1.2-.8c-.6,0-1,.4-1,1s.6,1,1.2,1Z"/>
    <path class="cls-1" d="M68.8,124.4c-.6,0-1,.4-1,1s.6,1.2,1.2,1c.6,0,1.2-.6,1-1,0-.6-.6-1-1.2-1Z"/>
    <path class="cls-1" d="M62.6,126.8c.4,0,1-.4,1-1-.2-.6-.6-1-1.2-1s-1,.6-1,1.2.6.8,1.2.8Z"/>
    <path class="cls-1" d="M20.2,126.8c0-.6-.6-1.2-1.2-1.2s-1,.6-1,1c0,.6.4,1,1,1.2.6,0,1.2-.4,1.2-1Z"/>
    <path class="cls-1" d="M56.8,128.2c.6,0,1-.4,1-1s-.6-1-1.2-1-1.2.4-1,1c0,.6.4,1,1.2,1Z"/>
    <path class="cls-1" d="M26.2,130c.6.2,1-.4,1-1s-.6-1.4-1.2-1.4-1,.4-1.2.8c0,.8.6,1.6,1.4,1.6Z"/>
    <path class="cls-1" d="M78.8,131c0-.6-.6-1.2-1-1.2h-2c-5.4,0-10.8.2-16,.4-.6,0-1,.2-1.4.4-.6.2-1,.8-.8,1.2.2.6.6.8,1.2.8h8.6c3,0,6-.2,9-.2l1.6-.4c.4,0,.6-.4.8-1Z"/>
  </g>
</svg>