<?xml version="1.0" encoding="UTF-8"?>
<svg xmlns="http://www.w3.org/2000/svg" version="1.1" viewBox="0 0 47.8 145.6">
  <defs>
    <style>
      .cls-1 {
        fill: #22beb9;
      }

      .cls-1, .cls-2, .cls-3 {
        stroke-width: 0px;
      }

      .cls-2 {
        fill: #003735;
      }

      .cls-3 {
        fill: #fff;
      }
    </style>
  </defs>
  <g id="Layer_1" data-name="Layer 1">
    <g>
      <path class="cls-1" d="M5.4,137.4c0-.2,0-.3,0-.6,0-.3-.1-.8-.1-1.3-.4-11.2-.8-22.8-1-34.2-.2-8.4-.2-17.1-.2-25.5h0c0-3.8.2-7.5.2-11.2,0-3.6.1-7.4.2-11.1.1-4,.3-8.1.4-12,.1-3.9.3-8,.4-12,.2-6,.2-11.9.2-18.1v-.6l.2-.5c0-.2,0-.6,0-.8v-3.3l3.2-.6c2.5-.5,25.7-1.5,29.8-1.5s1,0,1.3,0l1.7.2,1,1.4c1.3,1.8,1.3,3.6,1.2,4.6,0,.1,0,.3,0,.4v.2c-.1,2.6-.2,5.2-.2,7.7,0,2.6-.1,5.2-.2,7.9l-.6,19.4c-.1,2.5-.3,4.9-.4,7.3-.1,2.3-.3,4.8-.4,7.1,0,2.2-.2,4.4-.2,6.6-.2,4.4-.3,8.5-.3,12.8v.2c-.4,9.9-.6,19.9-.8,29.5v26.3c0,.8,0,1.9-.6,3.2l-.3.6-.5.5c-.9.9-2,1.4-3.2,1.4h-.3c-2.5-.2-5.1-.3-8.1-.3s-7.4.1-11.3.3c-2.3,0-4.5.2-6.8.2h-4.1c0,0,0-4,0-4Z"/>
      <path class="cls-3" d="M38.6,8c.4,0,.7,0,.8,0,.6.8.4,1.6.4,2.6-.2,5.2-.2,10.4-.4,15.6l-.6,19.4c-.2,4.8-.6,9.6-.8,14.4-.2,6.6-.6,13-.6,19.6-.4,9.8-.6,19.6-.8,29.6v26.4c0,.6,0,1-.2,1.4-.2.2-.4.2-.4.2-2.8-.2-5.6-.3-8.4-.3-6,0-12.1.3-18.2.5,0-1-.2-1.4-.2-2-.4-11.4-.8-22.8-1-34.2-.2-8.4-.2-17-.2-25.4.2-7.4.2-14.8.4-22.2.2-8,.6-16,.8-24,.2-6,.2-12,.2-18.2.2-.6.2-1.4.2-2,1.8-.4,24.2-1.4,29-1.4M38.6,0h0c-3.3,0-27.5,1-30.6,1.6L1.6,2.9v6.6s0,0,0,.1l-.2.6v1.3c0,6.2,0,12.1-.2,17.9h0s0,0,0,0c0,4-.3,8-.4,11.9-.1,4-.3,8-.4,12.1-.1,3.7-.2,7.5-.2,11.2,0,3.6,0,7.3-.2,11h0v.2c0,8.4,0,17.1.2,25.6.2,11.4.6,23,1,34.2,0,.8.1,1.5.2,1.9h0v8.1l8.2-.2c2.3,0,4.6-.1,6.9-.2,3.9-.1,7.5-.3,11.2-.3,2.9,0,5.4,0,7.8.2h.3s.3,0,.3,0c2.2,0,4.4-.9,6.1-2.5l.9-.9.6-1.2c1-2.1,1-4,1-5v-26.3c.2-9.6.4-19.5.8-29.4v-.2s0-.2,0-.2c0-4.2.2-8.3.3-12.6,0-2.2.2-4.4.2-6.7,0-2.3.2-4.7.4-7,.2-2.4.3-4.9.4-7.4h0s0,0,0,0l.6-19.4c.1-2.7.2-5.3.2-7.9,0-2.5,0-5.1.2-7.6v-.2s0-.2,0-.2c0,0,0-.2,0-.3,0-1.3.2-4.2-2-7.1l-2.1-2.8-3.4-.4c-.5,0-.9,0-1.7,0h0Z"/>
    </g>
  </g>
  <g id="Layer_2" data-name="Layer 2">
    <path class="cls-2" d="M36.2,13c.4-.6.2-1.4-.2-1.6-.6-.4-1.4-.4-2,.4-.4.4-.6.8-1,1.4-2.6,4-5.4,8.2-8,12.4-.4.6-.8,1.2-1.4,1.8-.4-.4-.6-.8-.8-1.2-1-1.6-1.8-3.2-2.8-4.6-1.6-3-3.4-5.8-5-8.6-.4-.6-.8-1.2-1.2-1.6-.4-.2-1-.2-1.4,0-.4.2-.6.8-.6,1.2.2.6.6,1.2,1,1.8,2.6,4.6,5.2,9,8,13.6.4.8.6,1.4,1.2,2.2l-1.4,2.4c-3,4.4-5.8,9-8.8,13.4-.4.6-.8,1.2-1,2-.2.4,0,1,.6,1.2.4.2.8.2,1.2,0s.6-.4.8-.6l.8-1.2c2.8-4.4,5.6-8.6,8.4-13,.2-.4.4-1,1.2-1,.4.6.8,1.2,1.2,2l7.6,13c.4.6.8,1,1.2,1.6.4.4,1,.4,1.4.2.6-.2.8-1,.6-1.4-.2-.8-.6-1.4-1-2-2.8-4.8-5.6-9.6-8.4-14.2l-1.2-2.2c.4-.8.8-1.6,1.2-2.2,3-4.4,6-9,8.8-13.4.4-.6.8-1.2,1-1.8Z"/>
    <path class="cls-2" d="M20.6,45.6c0,.6-.2,1,0,1.4,0,3.4.2,6.8.4,10,0,.4,0,.8.2,1.2.2.4.6.8,1.2.8.6-.2,1-.4,1-.8.2-.6.2-1,.2-1.6v-4.4h-.2c0-1.8-.2-3.6-.4-5.4,0-.4,0-.8-.2-1.2-.2-.6-.6-.8-1-.8-.6,0-1,.4-1.2.8Z"/>
    <path class="cls-2" d="M35.4,54.4c.4-.4.2-1-.4-1.4-.4-.4-1.2-.4-1.6,0l-1.2,1.8c-3,4.6-5.8,9.2-8.8,13.8-.2.4-.4,1.2-1.2,1l-1-1.6c-2.6-4.4-5.4-8.6-8-13-.4-.6-.8-1.2-1.2-1.6s-1.2-.4-1.6-.2c-.4.4-.6,1-.4,1.6l1,1.8c3,4.8,5.8,9.4,8.6,14l1.2,2c-.4.8-.8,1.6-1.2,2.2-2.8,4.6-5.6,9-8.4,13.4-.4.4-.6.8-.8,1.2-.8,1.2-.8,2-.2,2.6.6.4,1.6.4,2.4-1,.2-.4.4-.8.8-1.2l7.8-12.4c.4-.6.8-1.2,1.4-2l1.4,2.4c2.6,4,5.2,8.2,7.8,12.4.2.6.6,1,1,1.6.4.4,1.2.4,1.8.2.4-.4.6-1,.4-1.6-.4-.6-.6-1.2-1-1.6-2.8-4.8-5.8-9.4-8.6-14-.4-.6-.8-1.4-1.2-2.2.4-.8.8-1.4,1.4-2.2l8.8-14.2c.4-.6.8-1.2,1-1.8Z"/>
    <path class="cls-2" d="M23.6,94h-.2v-6c0-.6,0-1-.2-1.4-.2-.6-.8-.8-1.2-.8-.4.2-.8.4-1,.8-.2.6-.2,1.2-.2,1.8,0,3.8.2,7.6.2,11.4s.2.8.2,1.2c.2.6.8,1,1.4.8.4,0,.8-.2,1-.8,0-.6.2-1.2.2-1.8-.2-1.8-.2-3.4-.2-5.2Z"/>
    <path class="cls-2" d="M34.4,134.6c.4-.4.8-1,.4-1.4-.2-.8-.6-1.4-1-2-2.8-4.8-5.6-9.4-8.6-14.2l-1-1.8c.6-1,1-1.8,1.4-2.6,2.4-4.4,5-8.8,7.4-13.4.4-.6.6-1.2,1-2,.2-.4,0-1-.6-1.4-.4-.4-1.2-.4-1.6.2-.4.4-.6,1-1,1.6-2.2,4.2-4.6,8.2-6.8,12.4l-1.4,2.4c-.6-.8-1-1.2-1.2-1.8l-7.8-12.6c-.2-.6-.6-1.2-1-1.6s-1.2-.6-1.6-.2c-.6.2-.8,1-.6,1.4.4.8.8,1.4,1.2,2,2.8,4.6,5.6,9.2,8.4,14l1,1.8c-.4.8-.8,1.6-1.2,2.2l-7.2,13.2c-.2.6-.6,1-.8,1.6-.6,1.4-.6,2.2.2,2.4.8.4,1.4,0,2.2-1.2l1-1.8c2.2-4,4.4-8,6.6-12.2.2-.4.4-1,1.2-1.2.4.6.8,1.2,1.2,2l7.6,12.4c.2.6.6,1,1,1.6.4.4,1,.6,1.6.2Z"/>
  </g>
</svg>