<?xml version="1.0" encoding="UTF-8"?>
<svg xmlns="http://www.w3.org/2000/svg" version="1.1" viewBox="0 0 128.8 100.4">
  <defs>
    <style>
      .cls-1 {
        fill: #22beb9;
      }

      .cls-1, .cls-2, .cls-3 {
        stroke-width: 0px;
      }

      .cls-2 {
        fill: #003735;
      }

      .cls-3 {
        fill: #fff;
      }
    </style>
  </defs>
  <g id="Layer_1" data-name="Layer 1">
    <g>
      <path class="cls-1" d="M99,96.4c-.6,0-1.5,0-2.6-.6l-2.2-1.1v-2c0-.3-.2-.7-.2-1.2-.4-4.5-.8-9.3-1-14v-.4c-.4-5.3-.8-10.8-1.7-16.3-.3-1.4-.4-2.6-.5-3.8,0-.4,0-.9-.1-1.3-.3-1.2-.8-2.3-1.4-3.7l-.3-.6c-.2-.3-1-.9-1.8-.9s-.3,0-.3,0c-1.1.6-1.5.9-2,1.5-1.2,2-1.8,3.5-2.3,5.2-2.1,8.4-2.9,16.8-2.3,25.6h0v.3c0,1.2,0,2.5.1,3.3v.3c0,0,0,.3,0,.3,0,1,.1,2.1.3,3.4l.6,4.7-4.2.3c-.3,0-.8,0-2,0-4.6,0-16.9-.5-19.7-.9l-2.4-.3-.8-2.3c-.3-.9-.6-1.8-.6-2.9s0-1.6,0-2.4c0-.8-.1-1.7-.1-2.7-.1-1.7-.2-3.4-.3-5.1-.2-3.6-.4-7-.8-10.6-.4-4-1.1-7.9-2.2-11.6-.7-1.8-1.4-3.3-2.4-4.6,0,0-.1,0-.1,0,0,0,0,0-.1,0-.9,0-1.8.2-2.8,1.7-1.5,2.5-2.8,5.1-4,8.2l-.2.5c-1.3,4.1-2.5,8.1-2.8,12.1,0,.5,0,.9-.1,1.3,0,.2,0,.4,0,.5,0,4.7,0,9.6-.2,14.3v5.1h-3.7c-.3,0-.9.2-1.5.2H10.6c-.5,0-1,0-1.3-.2h-2.4l-.9-2.7c-.2-.5-.3-1-.3-1.4h0s-.2-.5-.2-.5v-1.4c-.5-8.4-.8-16.3-.8-24.6.2-9.3,0-19.4-.4-31-.4-6.4,0-12.8.4-18.9,0-2.2,0-4.7.2-7.2l.2-3,3-.6c1.1-.2,2.3-.3,3.8-.3s1.1,0,1.6,0c.4,0,.8,0,1.2,0,1.1,0,2.2,0,3.2,0s1.9,0,2.8,0h.2s6.2,0,6.2,0h.2c.8,0,1.7,0,2.6,0s2.3,0,3.5.1l4.3.4s-.7,4.4-.7,4.4c4-2.5,8.4-3.9,13.3-4.4h.1c.5,0,1,0,1.5,0,3.1,0,6.2.6,9.5,1.9h.2c0,0,.1.1.1.1,4.1,2,7.3,5.2,9.2,9,.5,1,.9,1.9,1.3,2.9,3.3-4.3,7.5-7.7,12.8-10.1,2.5-1.2,5.1-1.7,7.4-2.1h.4c0,0,.3,0,.3,0h.3c1.1-.3,2.2-.5,3.3-.5,2.1,0,4.2.5,6.2,1.4,3.4,1.3,6.2,3.2,8.2,5.4,4.6,5,7.8,10.7,9.5,16.7.8,2.5,1.3,5.4,1.6,7.9v.5c0,0,1.9,11.3,1.9,11.3.4,3.4.6,6.6.6,9.9.2,10.4.2,20.6.2,31.4v5.6h-3.3c-.3.1-.7.2-1.2.2-3.5.1-7.1.2-10.6.2-3.4,0-7,0-10.5.2h0s0,0,0,0Z"/>
      <path class="cls-3" d="M26.8,8c2,.2,4,0,6.2.2-.2,1.2-.2,2-.2,3-.2,1-.2,2.2-.2,3.2s-.2,1.8,0,3c1-.4,1.4-1.2,2-1.6,4.6-4.2,9.8-6.6,16-7.2.4,0,.8,0,1.2,0,2.8,0,5.4.6,8,1.6,3.2,1.6,5.8,4,7.4,7.2,1.6,3.4,2.8,6.8,3.6,10.4.6,0,.6-.4.8-.8.4-.6.6-1.4,1-2,3.2-6,7.8-10.2,14-13,2-1,4.2-1.4,6.4-1.8.4,0,1,0,1.2-.2.8-.2,1.5-.3,2.3-.3,1.6,0,3.2.4,4.7,1.1,2.6,1,5,2.4,6.8,4.4,4,4.4,7,9.4,8.6,15.2.8,2.4,1.2,5.2,1.6,7.8l1.8,11.2c.4,3.2.6,6.2.6,9.4.2,10.4.2,20.8.2,31.4v1.6c-.2,0-.4.2-.6.2-7,.2-14,.2-21.2.4-.2,0-.4,0-.8-.2,0-.4-.2-.6-.2-1-.4-4.6-.8-9.4-1-14-.4-5.6-.8-11.4-1.8-17.2-.4-1.6-.4-3.2-.6-5-.4-2-1.2-3.6-2-5.4-.9-1.8-3.2-3.1-5.4-3.1-.8,0-1.5.2-2.2.5-1.4.8-2.4,1.4-3.4,2.8-1.2,2-2.2,4-2.8,6.4-2.2,8.8-3,17.6-2.4,26.8,0,1.4,0,2.8.2,4,0,1.4.2,2.8.4,4.4-.3,0-.9,0-1.7,0-4.8,0-16.7-.5-19.1-.8-.2-.6-.4-1.2-.4-1.6,0-1.8-.2-3.4-.2-5.2-.4-5.4-.6-10.6-1.2-16-.4-4.2-1.2-8.4-2.4-12.4-.8-2.2-1.8-4.2-3.2-6-1-1-2-1.4-3.2-1.4-2.8,0-4.8,1.4-6.2,3.6-1.8,3-3.2,6-4.4,9-1.4,4.6-2.8,9-3.2,13.8,0,.6-.2,1.2-.2,2,0,4.8,0,9.6-.2,14.2v1.2c-.4,0-.8.2-1.2.2H10.6c-.2,0-.4-.2-.8-.2-.2-.6-.2-1.2-.4-1.6-.4-8.4-.8-16.6-.8-25,.2-10.4,0-20.8-.4-31.2-.4-6.2,0-12.4.4-18.6,0-2.2,0-4.6.2-7,1-.2,2-.2,3-.2s2,0,3,0c2-.2,4,0,6.2-.2h5.8M27.2,0h-6.9c-.7,0-1.6,0-2.5,0s-2.1,0-3.4,0c-.3,0-.6,0-1,0-.6,0-1.1,0-1.7,0-1.1,0-2.8,0-4.6.4L1.3,1.7l-.5,6c-.2,2.6-.2,5.2-.2,7.4-.4,6.2-.8,12.7-.4,19.3.4,11.5.6,21.5.4,30.6h0v.2c0,8.4.4,16.4.8,24.8v.6s.1,1.7.1,1.7l.4.7c0,.4.2.8.4,1.3l1.8,5.5h4.8c.5.1,1.1.2,1.8.2h19.6c.8,0,1.5-.1,1.9-.2h7.3v-9c.2-4.7.2-9.5.2-14.2,0,0,0,0,0-.1,0-.4.1-.9.2-1.6.3-3.6,1.4-7.2,2.6-11.2v-.4c.8-1.7,1.5-3.2,2.2-4.6.9,3.2,1.5,6.5,1.8,9.9h0c0,0,0,.1,0,.1.4,3.4.6,6.8.8,10.4.1,1.7.2,3.3.3,5,0,1,0,1.9.1,2.8,0,.8,0,1.5,0,2.1,0,1.7.5,3.1.8,4.1l1.6,4.7,4.9.7c3.2.5,15.9.9,20.3.9s1.8,0,2.3,0l8.3-.7-1-8.3v-.5c-.2-1.1-.3-2.1-.3-2.9v-1.3c-.2-.5-.2-1.7-.2-2.7v-.5c-.6-8.3.2-16.3,2.2-24.3,0-.3.1-.5.2-.8,0,1.3.2,2.7.6,4.2.9,5.2,1.3,10.6,1.6,15.8v.3c.2,4.7.6,9.5,1,14,0,.5,0,1,.2,1.4v4l4.4,2.2c1.9.9,3.4,1,4.4,1h.2c3.5-.1,7.1-.2,10.5-.2,3.5,0,7.1-.1,10.7-.2.6,0,1.1,0,1.6-.2h6.8v-9.6c0-10.8,0-21-.2-31.5,0-3.4-.2-6.7-.7-10.3h0c0-.1,0-.3,0-.3l-1.8-11.2v-.5c-.5-2.6-.9-5.6-1.8-8.4-1.9-6.6-5.3-12.8-10.3-18.3-2.4-2.7-5.7-4.8-9.6-6.4-2.6-1.1-5.2-1.7-7.8-1.7-1.4,0-2.8.2-4.1.5h-.8c-2.4.6-5.4,1.1-8.4,2.6-3.9,1.8-7.3,4-10.2,6.7-2.3-3.5-5.6-6.4-9.6-8.4h-.3c0-.1-.3-.3-.3-.3-3.7-1.5-7.3-2.2-11-2.2s-1.1,0-1.7,0h-.1s-.1,0-.1,0c-2.7.3-5.3.8-7.7,1.6l.2-1.2-8.6-.8c-1.5-.1-2.8-.1-3.9-.1s-1.6,0-2.2,0h-.4Z"/>
    </g>
  </g>
  <g id="Layer_2" data-name="Layer 2">
    <path class="cls-2" d="M18.6,15c0-1.4-1.2-3.4-3.2-3.4s-3.6,1.4-3.4,3.4c0,1.8,1.4,3.2,3.2,3.2s3.4-1.4,3.4-3.2Z"/>
    <path class="cls-2" d="M100.8,19.4c0,1.8,1.4,3.2,3.2,3.4,1.8,0,3.4-1.6,3.4-3.4s-1.4-3.2-3.2-3.2-3.2,1.4-3.4,3.2Z"/>
    <path class="cls-2" d="M11.6,54.4c-.2,6.8-.6,13.6.4,20.4,0,.6,0,1.2.2,1.8.2.8,1.2,1.2,1.8,1.2.6-.2,1.4-.8,1.4-1.6v-1.8c-.6-4.6-.8-9-.6-13.4.2-7.4.2-14.6.4-22,0-2.4.2-4.8.4-7.2v-7.8c0-.6,0-1.4-.2-2-.4-.6-1-1-1.6-.8-.6,0-1.2.6-1.2,1.2-.2.4,0,.8,0,1.2-.2,2.6-.2,5.2-.4,7.8-.2,2.2-.4,4.2-.4,6.4-.2,4.6-.2,9.4-.2,14.2v2.4Z"/>
    <path class="cls-2" d="M107.8,30.4c1.4,4.4,2.2,8.8,2.8,13.2.6,5.4,1.6,10.4,1.8,15.8.2,1.8.2,3.6.4,5.2.6,4,.8,7.8.8,11.8s0,1,.2,1.6c0,.6.8,1.2,1.4,1.2s1.2-.4,1.4-1c.2-.4.4-.8.4-1.4v-2.8c0-1.4,0-2.6-.2-4-.2-3.6-.4-7.2-.8-10.8l-.6-6.6c-.6-4-1.2-8.2-1.8-12.2-.6-4.6-2-9-3.6-13.4l-.6-1.4c-.2-.2-.6-.6-.8-.8-.6-.4-1.2-.4-1.8,0-.6.4-.6.8-.6,1.4.2.4.2.6.4.8l1.2,3.4Z"/>
    <path class="cls-2" d="M17.6,84.4c.2-1.8-1.2-3.4-3-3.6-2,0-3.4,1.4-3.6,3.2,0,1.8,1.4,3.2,3.2,3.4,1.8,0,3.4-1.2,3.4-3Z"/>
    <path class="cls-2" d="M114.4,90.2c2.2,0,3.8-1.6,3.8-3.8s-1.6-3.2-3.4-3c-2.2,0-3.8,1.6-3.6,3.6,0,1.8,1.4,3.2,3.2,3.2Z"/>
  </g>
</svg>