<?xml version="1.0" encoding="UTF-8"?>
<svg id="Layer_1" data-name="Layer 1" xmlns="http://www.w3.org/2000/svg" version="1.1" viewBox="0 0 104.9 111.4">
  <defs>
    <style>
      .cls-1 {
        fill: #630f00;
      }

      .cls-1, .cls-2, .cls-3 {
        stroke-width: 0px;
      }

      .cls-2 {
        fill: #fff;
      }

      .cls-3 {
        fill: #ff5708;
      }
    </style>
  </defs>
  <g id="Layer_1-2" data-name="Layer 1">
    <g>
      <path class="cls-3" d="M4.6,100l-.6-.4v-2.4c0-4.3,0-8.6.2-12.9,0-4.2,0-8.4.2-12.5,0-4.2,0-8.4.2-12.6,0-4.4.2-8.8.2-13.3v-23.2c0-.2,0-.4,0-.7v-2c0-.6,0-1.2,0-1.9-.2-1.1,0-2,0-2.5v-7.2l6.5-1.2c4.1-.8,14.9-1.2,19.7-1.2s5.7,0,6.6.3h0l3.9.8,1.8,3.4c.8-.6,1.6-1.2,2.4-1.8,5.5-3.8,11.4-4.6,15.4-4.8h1.7c6,0,11.9,2.1,17.8,6.3h0c5.1,4.1,8.9,9.2,11.5,15.7l.2.6c1.7,4.4,3.6,9.4,5,14.7,1.5,6.3,2.6,12.4,3.2,18.1.4,5.4.6,10.6.6,15.6,0,7.2-.4,14.5-1.2,21.7v1.8l-.5.7c0,.5-.3,1-.6,1.6v.2c-1.7,3.3-4.7,5.3-8.3,5.3h-1.2c-7,.2-14,.2-20.8.2s-2.3,0-2.8,0c-2.6,0-3.8-1.2-4.3-2.3l-1.9-.9v-4.4c0-.4-.2-1-.2-1.8v-8.2c0-8.3-.4-15.2-1.4-21.7v-.8c0-.3,0-.7,0-1.2v-.7c-.3-1.7-.5-3.2-1-4.4l-.9-2.5c0,0-.2.2-.3.3l-.5.7v.2c-3.5,4-5.3,7.3-6,10.8l-.6,2.6c-.6,2.4-1.2,4.7-1.7,6.9l-.5,2c-.9,4.8-1.4,9.6-1.6,14.2v1.3c0,.2-.2.5-.2.8,0,.5,0,1-.2,1.5v.3l-1.2,6.1-6.2.4c-2.2,0-4.2.2-6.3.4-1.8,0-3.7.2-5.5.3-1.7,0-3.4.2-5.2.3-2.2,0-4.4.3-6.7.4l-7.2.4-1.1-7.2-.3-.2Z"/>
      <path class="cls-2" d="M62.4,8c5.1,0,10.2,1.8,15.5,5.6,4.6,3.6,7.9,8.1,10.3,14,1.7,4.4,3.7,9.5,5,14.7,1.4,5.7,2.5,11.6,3.1,17.5.4,5.2.6,10.3.6,15.2,0,7.1-.4,14.3-1.2,21.5v.7l-.3.4c0,.4-.2,1-.5,1.7-1.2,2.5-3.2,3-4.6,3h-1.3c-7,.2-14,.2-20.7.2s-1.5,0-2.8-.6l-2.2-1.1v-2.2c0-.3-.2-.9-.2-1.5v-3.8c0-1.4,0-2.9,0-4.4,0-8-.4-15.3-1.4-22.3,0-.6-.2-1.2-.2-1.8-.3-2.2-.5-4.3-1.2-6.2l-1.2-3.6c-.4-.9-1.8-1.8-3.4-1.8s-1.4.2-2,.7-1.4,1.1-1.6,1.5l-.2.3-.2.3c-3.6,4.3-5.8,8.2-6.7,12.5l-.6,2.5c-.8,3.1-1.5,6.1-2.2,9-.9,4.9-1.5,10-1.7,14.9v.8c0,.2,0,.5-.2.8,0,.5,0,1-.2,1.6l-.6,3.1-3.1.2c-4,.2-7.9.5-11.7.7-3.8.2-7.8.5-11.9.7l-3.6.2-.8-5.3-.3-.2v-.3c0-8.4.3-17,.4-25.3.1-8.5.3-17.2.4-25.9v-21.1c0-3.6,0-2.3-.2-3.5,0-1.2-.2-2.4-.2-3.7-.2-1,0-1.8,0-2.4v-3.6l3.2-.6c3.5-.7,13.4-1.1,19-1.1s5.3.2,6,.3l1.9.4.9,1.7c.9,1.9.9,3.6.8,4.8v1c.7-.7,1.4-1.4,2.2-2,1.6-1.4,3.3-2.7,5.3-4.1,4.7-3.3,9.8-3.9,13.3-4.1h1.5M62.4,0h-2c-4.2.3-10.2,1-16.2,4.7l-.6-1.1-3.7-.8-1.9-.4h-.3c-1.3-.3-2.7-.4-7.3-.4s-15.8.3-20.5,1.2l-3.2.6L.3,5.1v9.9H.3v.2c0,.7-.2,1.8,0,3.2,0,.7,0,1.4,0,1.9v2.4c0,.2.2.3.2.5v22.8c0,4.4-.1,8.8-.2,13.2,0,4.2,0,8.5-.2,12.7C.2,76,.1,80.2,0,84.3,0,88.5-.2,92.9-.2,97.2H-.2v4.7l.9.6.3,1.8,1.1,7.2,7.3-.4,3.6-.2c2.3,0,4.5-.3,6.7-.4,1.8,0,3.5-.2,5.2-.3,1.8,0,3.6-.2,5.5-.3,2,0,4.1-.3,6.2-.4h0l3.1-.2,6.2-.4,1.2-6.1.6-3.1h0v-.4c0-.4.2-1,.3-1.6v-.7l.2-.6v-1.2c.2-4.3.7-8.9,1.5-13.4l.5-1.9c.5-2.2,1.1-4.5,1.7-6.8h0c0,0,.6-2.6.6-2.6h0v-.2c.2-.9.5-1.8.9-2.8v.4c1,6.3,1.4,13,1.4,21.2s0,1.7,0,2.5v5.7c0,.9,0,1.6.2,2.1v6.5l3.1,1.6c1.2,1.6,3.3,3.2,7,3.2h2.9c6.8,0,13.7,0,20.8-.2h1.2c5.1,0,9.5-2.8,11.8-7.5v-.4c.3-.4.5-.9.6-1.4l.9-1.2v-2.9c.8-7.3,1.2-14.7,1.2-21.9s-.2-10.4-.6-15.8h0v-.2c-.6-5.9-1.7-12.2-3.3-18.6-1.4-5.5-3.4-10.6-5.1-15.2l-.2-.5h0c-2.9-7.3-7.1-12.9-12.8-17.4h0c0,0,0-.2,0-.2C75.7,2.6,68.9.2,62.1.2h0l.3-.2Z"/>
    </g>
  </g>
  <g id="Layer_2" data-name="Layer 2">
    <path class="cls-1" d="M31,19.6c.4-.8.2-1.4-.2-1.8-.4-.6-1.4-.6-2,0-.4.2-.6.6-.8.8-1.8,2-3.6,4-5.6,5.8l-4.8,4.6c-1,1-1.2,2.4-.2,3.8,2.6,4.2,5.2,8.6,8,12.8,0,.2,0,.4.2.6l-4.6,8.8c-1.2,2.6-2.4,5.4-3.6,8-.8,1.4-.8,2.6.4,3.6,1.8,1.6,3.2,3.2,4.8,5l3,3c-.4,1.6-1.2,2.6-2,3.6-2,3.2-4,6.6-5.8,9.8-.6.8-.4,1.6.4,2s1.4.6,2.2-.2c.6-.6,1-1.2,1.6-2,1.8-3,3.6-6,5.4-9.2.6-1,1.2-2,1.6-3s.2-2-.6-3c-1.2-1.2-2.6-2.6-3.8-4-1.4-1.4-2.8-2.6-4-4.4.2-.6.6-1.4,1-2.2,2-4.6,4.2-9.2,6.4-13.8,1.2-2.6,1.6-2.4-.4-5.4-2.4-3.8-4.8-7.6-7.4-11.4l1.4-1.4c2.8-2.8,5.8-5.6,8.2-8.6,0,0,1.2-1.8,1.2-1.8Z"/>
    <path class="cls-1" d="M88.6,67c.8-1.6.2-2.8-1.2-3.4l-2.2-.4c-3-.4-6.2-.4-9.2-1.4-.2,0-.6-.2-1-.4l.6-2c1-2.2,2-4.6,2.8-6.8,2-4.6,3.6-9.2,4.8-14,.2-.6.4-1.2.4-1.8,0-1.2-1-2-2.2-1.8l-1.6.6c-3,2-6.2,4-9.2,5.8-.4.2-.8.6-1.4.4,0-.2-.2-.6,0-.8,0-4.6.2-9.2.4-13.8v-5.2c0-.6-.4-1.4-.6-2-.4-.8-1.4-1-2.2-.6-.4.2-.6.6-.8.8-.8.8-1.4,1.6-2,2.6-3,4.6-6,9.2-9.2,13.8-.4.6-.8,1.2-1.4,1.8-.4-.2-.6-.4-.6-.6-2.2-2.4-4.2-4.8-6.2-7.2-.2-.4-.6-.8-1-1.2-1-1-2.4-.6-3.2.8l-1.2,3.4c-1.4,5-2.8,10.2-4.2,15.4-.2.6-.4,1.2-.4,2s.4,1,1,1.2c.8.2,1.4,0,1.8-.6.2-.6.2-1,.4-1.4l4.2-14.2c.2-.6.4-1.2.8-2l.8.8c1.2,1.4,2.6,3,3.8,4.4.8,1,1.6,1.8,2.4,2.6,1.6,1.4,2.6,1.2,3.8-.2l1.2-1.8c2.8-4.2,5.6-8.4,8.2-12.4.4-.4.8-.8,1.4-1.6v2.2c-.4,5-.6,10.2-.8,15.2,0,.6,0,1.4.2,2,.4,1.4,1.6,1.8,2.8,1.4.6-.2,1-.6,1.6-1l7.6-4.8,1.2-.6c.2,1-.2,1.8-.6,2.6-1.6,5-3.6,9.8-5.6,14.6l-1.2,3c-.6,2,0,3.2,1.8,4.2l1.8.6c2,.4,3.8.6,5.6,1,.6,0,1,.2,1.6.2.6.2,1.2,0,1.6.6-.6.8-1.2,1.4-1.8,2-2,1.8-4.2,3.8-6.4,5.6-.6.6-1.4,1.2-2,2-.8.8-.8,2,0,3,.4.4.8.8,1.4,1.2l7,5.2c.4.2.8.6,1.2,1-1.4.6-2.6,1.2-3.8,1.6l-5.6,1.8c-.6.2-1,1.2-.8,1.8.2.8.8,1.4,1.6,1.2.6,0,1.2,0,1.8-.2,1.8-.6,3.6-1.4,5.2-2,1.8-.8,3.4-1.6,5-2.6,1.4-.8,1.6-2.4.2-3.6-.2,0-.4-.2-.6-.4-3-2-6-4.2-9-6.4.4-1,1.4-1.6,2-2.2,2.8-2.2,5.6-4.6,7.8-7.4.6-.4,1-1,1.4-1.6h0Z"/>
  </g>
</svg>