<?xml version="1.0" encoding="UTF-8"?>
<svg xmlns="http://www.w3.org/2000/svg" version="1.1" viewBox="0 0 90.3 105.8">
  <defs>
    <style>
      .cls-1 {
        fill: #22beb9;
      }

      .cls-1, .cls-2, .cls-3 {
        stroke-width: 0px;
      }

      .cls-2 {
        fill: #003735;
      }

      .cls-3 {
        fill: #fff;
      }
    </style>
  </defs>
  <g id="Layer_1" data-name="Layer 1">
    <g>
      <path class="cls-1" d="M41.4,101.8c-9.7,0-18.3-4.1-25.7-12.1-4.9-5.3-8.2-11.8-10.1-19.8-4.1-18.5-.2-35.3,11.6-50,5.1-6.6,12-11.5,20.1-14.1,3.7-1.2,7.3-1.8,10.9-1.8,5.6,0,11,1.4,16.2,4.2,5,2.6,9.3,6.4,12.9,11.4,4,5.7,6.7,12.4,8.1,19.8v.2c.3,2.2.5,4.4.7,6.1,0,.7.1,1.4.2,2v.3s0,.3,0,.3c-.4,15.9-5.2,28.7-14.4,39.1-5.6,6.6-12.4,10.9-20,12.8-3.6,1-7.1,1.5-10.5,1.5h0ZM46.1,36.8c-.3,0-.7.1-1.2.4h0c0,0,0,.1,0,.1-.7.3-1.3.8-2,1.5-1.4,1.3-2.3,2.9-3.3,5.3-1.6,3.8-2.3,7.9-2.1,12.1.2,2.3.4,4.8,1.5,7.2.8,1.7,1.5,2.8,2.4,3.6.7.5,1.3.8,2.1.8s.8,0,1.2-.3l1.9-1.5c1-.9,1.9-2.2,2.8-3.9,1.9-3.7,2.8-7.7,2.8-12.2s0-1,0-1.6c0-.6-.1-1.3-.1-2.1-.4-2.2-.9-4.1-1.6-5.6-.7-1.4-1.4-2.3-2.1-3-.8-.6-1.4-.8-1.9-.8Z"/>
      <path class="cls-3" d="M48.1,8c4.9,0,9.6,1.2,14.3,3.8,4.6,2.4,8.4,5.8,11.6,10.2,3.8,5.4,6.2,11.6,7.4,18.2.4,3,.6,6,.8,8-.4,14.4-4.4,26.4-13.4,36.6-4.8,5.6-10.8,9.8-18,11.6-3.3.9-6.5,1.4-9.5,1.4-8.6,0-16.2-3.7-22.7-10.8-4.8-5.2-7.6-11.4-9.2-18-3.8-17.2-.2-32.8,10.8-46.6,4.6-6,10.8-10.4,18.2-12.8,3.3-1,6.5-1.6,9.7-1.6M43.2,71.8c1.1,0,2.2-.3,3.3-.8l2.4-1.8c1.6-1.4,2.8-3.2,3.8-5.2,2.2-4.4,3.2-9,3.2-14s-.2-2.6-.2-4c-.4-2.4-1-4.8-2-7-.8-1.6-1.8-3.2-3.2-4.4-1.4-1.1-2.9-1.7-4.4-1.7-1,0-2.1.3-3.2.9-1.2.6-2.2,1.4-3,2.2-2,2-3.2,4.2-4.2,6.6-1.8,4.4-2.6,9-2.4,13.8.2,3,.6,5.8,1.8,8.6.8,1.8,1.8,3.6,3.4,5,1.4,1.2,3,1.8,4.7,1.8M48.1,0c-4,0-8,.7-12.1,1.9h0s0,0,0,0c-8.8,2.9-16.4,8.2-22,15.5C1.5,33.1-2.7,51.1,1.7,70.7h0c0,0,0,.2,0,.2,2.1,8.7,5.7,15.7,11.1,21.5,8.1,8.9,17.8,13.4,28.6,13.4s7.6-.6,11.6-1.7c8.4-2.1,15.8-6.9,22-14.1,9.9-11.2,14.9-24.8,15.4-41.6v-.5s0-.5,0-.5c0-.6-.1-1.2-.2-2-.2-1.8-.3-4-.7-6.3v-.2s0-.2,0-.2c-1.5-8-4.4-15.2-8.7-21.4h0c0,0,0-.1,0-.1-4-5.5-8.7-9.6-14.3-12.6C60.4,1.6,54.3,0,48.1,0h0ZM43.1,45.6c.8-1.9,1.5-3,2.5-4,.1-.1.2-.2.3-.3.2.3.4.6.6,1.1.5,1.2.9,2.6,1.2,4.3,0,.7,0,1.4.1,2,0,.5,0,1,0,1.3,0,3.9-.7,7.2-2.4,10.4-.6,1.2-1.2,2-1.7,2.6l-.5.4c-.3-.5-.6-1.1-.9-1.6-.6-1.5-1-3.2-1.1-5.8-.1-3.6.5-7,1.8-10.3h0ZM43.7,63.9h0Z"/>
    </g>
  </g>
  <g id="Layer_2" data-name="Layer 2">
    <path class="cls-2" d="M56.7,16.8c.6-.2.8-.8.8-1.4s-.4-1-1-1.2h-1.6c-4.8,0-9.6.2-14.6.4-.6,0-1.2,0-1.8.2-.8.2-1,.8-1.2,1.4,0,.8.4,1.4,1,1.6.6.2,1.4.2,2,.2,1.4,0,2.8-.2,4.4-.2,3.4-.2,7-.4,10.6-.6.4,0,1-.2,1.4-.4Z"/>
    <path class="cls-2" d="M42.7,22.2c-.6.2-1,.8-.8,1.6,0,.6.4,1.2,1.2,1.2h1.8c2.4-.2,4.6-.4,6.8-.6.4,0,.8-.2,1.2-.2.6-.4,1-.8,1-1.4s-.4-1-1-1.2c-.4-.2-.8-.4-1.4-.4l-7.4.6c-.6,0-1,.2-1.4.4Z"/>
    <path class="cls-2" d="M19.3,49v-11.8c-.2-.6-.8-1-1.6-1s-1.2.4-1.4,1v1.8c-.2,3.2-.2,6.6-.4,9.8,0,3.8-.2,7.6-.2,11.2-.2.8,0,1.6.2,2.4.2.8.8,1.2,1.6,1.2s1.4-.6,1.4-1.4c.2-.4.2-1,.2-1.4,0-3.6.2-7.2.2-11.8Z"/>
    <path class="cls-2" d="M74.9,65.2v-1.2c-.2-6-.2-11.8-.2-17.8s-.2-2.4-.4-3.6c0-.4-.2-1-.6-1.4-.6-.8-2-.4-2.2.6-.2.4-.2,1-.2,1.4.2,1,.2,2,.2,3,0,2.2-.2,4.6-.2,7v10c0,.6,0,1.4.2,2,.2,1,.8,1.6,1.6,1.6s1.6-.6,1.8-1.6Z"/>
    <path class="cls-2" d="M27.3,58.2v-1c-.2-4.2-.4-8.6-.6-12.8-.2-.8-.6-1.2-1.2-1.4-.8,0-1.6.4-1.8,1l-.2,2c0,1.6.2,3.4.2,5h.2v5.6c0,.8,0,1.4.2,2,.4.8,1.2,1,1.8,1,.6-.2,1.2-.6,1.4-1.4Z"/>
    <path class="cls-2" d="M66.1,61.2c.2-.4.4-1,.4-1.6-.4-3.2-.2-6.6-.2-9.8-.2-.6-.2-1.2-.2-1.8-.2-.6-.8-1-1.4-1s-1.2.4-1.4,1c-.2.4-.2.6-.2,1,0,1.6,0,3.2-.2,4.8v4.8c0,.8.2,1.6.4,2.2.4,1.2,2,1.4,2.8.4Z"/>
    <path class="cls-2" d="M52.7,78.8c0-.6-.4-1.4-1-1.4-.6-.2-1-.2-1.6-.2h-10.4l-1.2.6c-.6.4-.8,1-.6,1.6,0,.6.6,1,1.4,1.2h5.6v-.2c2,0,4-.2,6-.2s.4-.2.8-.2,1-.6,1-1.2Z"/>
    <path class="cls-2" d="M55.7,88.8c.8-.2,1.2-.8,1.2-1.6s-.4-1.2-1.2-1.2c-.6-.2-1.2-.2-2-.2h-8.2c-3,0-6-.2-9-.2s-1.4.2-2.2.4c-.8.2-1.2,1.4-.6,2.2l1.2.8c1,0,1.8.2,2.8.2,5.8.2,11.6,0,17.2-.4h.8Z"/>
  </g>
</svg>