<?xml version="1.0" encoding="UTF-8"?>
<svg xmlns="http://www.w3.org/2000/svg" version="1.1" viewBox="0 0 106.1 147.4">
  <defs>
    <style>
      .cls-1 {
        fill: #22beb9;
      }

      .cls-1, .cls-2, .cls-3 {
        stroke-width: 0px;
      }

      .cls-2 {
        fill: #003735;
      }

      .cls-3 {
        fill: #fff;
      }
    </style>
  </defs>
  <g id="Layer_1" data-name="Layer 1">
    <g>
      <path class="cls-1" d="M6.7,141.7c-1.1-1.4-1.2-2.9-1.3-3.5h0s-.1-.4-.1-.4v-.6c0-2.4-.1-4.8-.2-7.2,0-4.7-.2-9.5-.4-14.1h0c-.4-11-.8-22.2-.6-33.3,0-3.7.1-7.5.2-11.2,0-7.3.2-14.9.4-22.4,0-4.6.2-9.4.4-13.9,0-2.3.2-4.5.2-6.7.2-4.8.2-9.6.2-14.3s0-2.8.7-4.5l.9-2.3,2.5-.2c4.8-.3,9.7-.5,14.5-.7,4.7-.2,9.6-.4,14.3-.7h.1s.1,0,.1,0c.6,0,1.1.1,1.4.2h2.9l.6,3.2c.2.8.3,1.7.3,2.5.6-.4,1.1-.8,1.7-1.2,3.8-2.7,8.2-4.5,12.9-5.4,3.1-.5,6.4-1,9.8-1s4.3.2,6.3.6h.1c3.5.8,6.1,1.9,8.4,3.3,4.6,2.9,8.1,6.4,10.7,10.7,3.5,6,5.8,12.5,7.1,19.3,1.3,7.3,1.5,14.4.6,21.8-.9,7.2-2.8,13.8-6,20.1-1.4,2.9-3.4,5.8-5.7,8.6-2,2.2-4,3.8-6.2,5-1.9,1-3.9,2.1-5.9,3h-.1c-2.9,1.4-6,2.3-9.3,2.8-3.3.5-6.8.7-10.6.7s-4.7,0-7.3-.3c-1.7,0-3.4-.5-4.7-.9-1.6-.4-3.2-1-4.7-1.6,0,2.1-.1,4-.2,6,0,2,0,4-.1,6,0,1.9,0,4,0,5.9v27.8h-3.5c-.3.1-.8.2-1.3.2h-.2c-2.5-.1-5.1-.2-8-.2-4.2,0-8.5.1-12.6.2-1.7,0-3.4,0-5.1.1h-2.1s-1.2-1.6-1.2-1.6ZM50,65.6c.9.2,1.9.2,2.9.2,2.7,0,5.5-.6,8.4-1.8,1.4-.6,2.5-1.4,3.1-2.3,2.9-4.2,4.2-8.3,3.8-12.6-.2-1.8-.5-3-1-3.7l-.2-.2v-.2c-1-1.6-1.8-2.9-2.9-3.9h-.1c-1.5-1.7-3.2-2.5-5.3-2.5s-.4,0-.5,0c-6.5.3-11.1,5.3-12.6,9.9v.2c-.8,2-1.2,4.2-1.2,6.8s.3,3.4.9,5.5h0c.6,2.6,2,4,4.6,4.5Z"/>
      <path class="cls-3" d="M68.3,8c1.8,0,3.7.2,5.5.5,2.6.6,5,1.4,7.2,2.8,3.8,2.4,7,5.4,9.4,9.4,3.2,5.6,5.4,11.6,6.6,18,1.2,6.8,1.4,13.6.6,20.6-.8,6.6-2.6,12.8-5.6,18.8-1.4,2.8-3.2,5.4-5.2,7.8-1.4,1.6-3,3-5,4-1.8,1-3.8,2-5.8,3-2.6,1.2-5.4,2-8.2,2.4-3.3.5-6.6.7-10,.7s-4.8,0-7.2-.3c-1.2,0-2.6-.4-3.8-.8-2.6-.6-5.2-1.8-7.6-3-.6-.4-1.2-.6-2-1-.2,4.4-.2,8.2-.4,12.2,0,4-.2,8-.2,12v23.8c-.4,0-.6.2-.8.2-2.7-.1-5.4-.2-8.1-.2-6,0-11.9.2-17.9.4-.6-.8-.4-1.6-.6-2.2-.2-7.2-.2-14.4-.6-21.4-.4-11-.8-22-.6-33,.2-11.2.2-22.4.6-33.6,0-6.8.4-13.8.6-20.6.2-4.8.2-9.6.2-14.4s0-2,.4-3c9.6-.6,19.2-.8,28.8-1.4.4,0,.6.2,1,.2.6,3-.2,5.8.4,9,.4-.2.6-.4.8-.6,2.4-1.4,4.6-3,7-4.6,3.4-2.4,7.2-4,11.4-4.8,3-.5,6-.9,9.1-.9M52.9,69.8c3.4,0,6.7-.8,10-2.1,1.8-.8,3.6-2,4.8-3.6,3.2-4.6,5-9.6,4.6-15.2-.2-2.2-.6-4.2-1.8-5.8-1-1.8-2-3.4-3.4-4.8-2.2-2.4-5-3.6-8.2-3.6-.3,0-.5,0-.8,0-8.2.4-14.2,6.6-16.2,12.6-1,2.6-1.4,5.4-1.4,8.2s.4,4.4,1,6.6c1,4.2,3.8,6.6,7.8,7.4,1.2.2,2.4.3,3.6.3M68.3,0c-3.7,0-7.2.5-10.4,1h0s0,0,0,0c-3.9.7-7.6,2-10.9,3.9l-.6-3h-5.7c-.5-.1-1.2-.2-1.9-.2h-.5c-4.7.3-9.6.5-14.2.7-4.8.2-9.7.4-14.6.7l-5.1.3-1.9,4.7c-1,2.4-1,4.6-1,6,0,4.6,0,9.4-.2,14.1h0s0,0,0,0c0,2.2-.2,4.4-.2,6.7-.2,4.6-.4,9.3-.4,14-.3,7.5-.4,15.1-.4,22.4,0,3.7,0,7.4-.2,11.2-.2,11.2.2,22.5.6,33.4h0c0,0,0,.2,0,.2.3,4.5.3,9.1.4,13.9,0,2.4,0,4.8.2,7.2v1.2s.2.5.2.5c.1,1.1.5,3.1,2,5.1l2.5,3.3h4.1c1.7-.1,3.4-.2,5.2-.2,4.1-.1,8.4-.2,12.5-.2s5.4,0,7.8.2h.2s.2,0,.2,0c.7,0,1.3,0,1.8-.2h7v-31.8c0-1.9,0-3.8,0-5.8,0-2,0-4,.1-6,0-.2,0-.4,0-.6,1.5.5,3.4,1,5.4,1,2.7.2,5.1.3,7.5.3,4,0,7.6-.2,11.1-.7,3.7-.5,7.2-1.5,10.4-3.1h.1c0,0,.1-.1.1-.1,2-1,4.1-2,6-3.1,2.7-1.4,5.1-3.3,7.3-5.8h0c0,0,0-.1,0-.1,2.6-3.1,4.6-6.2,6.2-9.3,3.4-6.7,5.5-13.7,6.4-21.4h0s0,0,0,0c.9-7.8.7-15.3-.7-22.9h0s0,0,0,0c-1.4-7.2-3.9-14.1-7.5-20.5h0c0,0,0-.1,0-.1-2.9-4.9-6.8-8.8-12-12-3.5-2.2-7.2-3.3-9.7-3.8h-.1s-.1,0-.1,0c-2.3-.5-4.6-.7-7.1-.7h0ZM50.7,61.7c-1.2-.2-1.3-.6-1.5-1.4h0c0-.1,0-.3,0-.3-.5-1.8-.7-3.2-.7-4.5,0-2,.3-3.8.9-5.3v-.2c0,0,.1-.2.1-.2.9-2.7,4.1-6.9,9-7.1h0s0,0,0,0c.1,0,.2,0,.3,0h0c1,0,1.6.3,2.4,1h.1c0,.1.1.2.1.2.7.7,1.3,1.7,2.1,3l.3.5.3.3c0,.1.2.6.3,1.7.2,3.3-.8,6.4-3.1,9.8-.2.2-.7.6-1.5,1-2.4,1-4.7,1.5-6.8,1.5s-1.5,0-2.2-.2h0Z"/>
    </g>
  </g>
  <g id="Layer_2" data-name="Layer 2">
    <path class="cls-2" d="M24.1,50.9c-1-2.4-1-4.8.2-7.2l1.2-2.2c.8-1.2,1.6-2.6,2.4-3.8.8-1.4,1.6-2.8,2.4-4.4.6-1.2.8-2.8.6-4.2-.6-5-2.6-9.4-7-12.2-.2-.2-.6-.4-.8-.4-.8-.2-1.4,0-1.8.4-.4.6-.4,1.2.2,1.8.2.4.8.8,1.2,1.2,2.8,2,4,4.8,4.6,8,.4,1.8.2,3.6-.6,5.2-.4.8-1,1.6-1.4,2.6-1,1.2-2,2.6-2.8,4-.6,1.2-1.4,2.6-1.8,4-1,2-1,4.4-.4,6.6.4,1,.6,2,1,3,1,2,2,4.2,3.2,6.2.6,1.6,1.4,3,2.2,4.4.4,1,.6,2.2.6,3.4,0,2.4-.8,4.6-2.2,6.6-.8,1.4-1.8,2.6-2.6,4-3.2,5.4-4,10.8-1.2,16.6.8,2,1.8,3.8,2.6,5.6,2.2,4.6,2.2,9.2-.8,13.6-1.4,2.2-2.6,4.6-3.4,7.2-.6,1.2-.8,2.6-1.2,4,.2,2.6,1.2,4.6,2.8,6.6,0,.2.2.4.4.6.8.4,1.8.2,2.4-.2.6-.8.6-1.6.2-2.2-.2-.4-.4-.6-.6-.8-1.4-1.6-1.8-3.6-1.2-5.8l.6-1.8c.8-2.4,2.2-4.4,3.4-6.6,2-3.4,2.8-7,2.2-11-.4-2-1-4-2-5.8-.8-1.6-1.6-3.4-2.6-5.2-.6-1.4-1-3-1-4.6,0-3.4.8-6.6,2.8-9.4,1.2-1.6,2.4-3.2,3.2-4.8,2-4,2.4-8,.4-12s-1.8-3.2-2.4-4.8l-3-6.2Z"/>
    <path class="cls-2" d="M89.9,63.3c.8-1.6,1.2-3.2.8-5-.4-2.4-1.4-4.4-3.6-6l-3.8-2.6c-1.2-.8-1.4-2-1-3.2.2-1,.8-2,1.4-3,.8-1.4,1.8-2.6,2.6-3.8.8-1.2,1.4-2.6,1.8-4,1.2-4-1.8-7.8-4.8-8.6-2.2-.6-4.4-1.2-6.8-1-1.6,0-3.4.2-5,.4-2.8.2-3.6-.2-4.6-2.6-.2-.2-.4-.6-.4-.8-.8-1.8-2-3-3.4-4.2-2-1.4-4.2-1.8-6.6-1.4-2.4.6-4.6,2-6.2,4-.8,1.2-2,2.2-3,3.2l-.8.6c-.6.6-.6,1.4-.2,2,.4.6,1.2,1,2,.6s1.4-.8,2-1.2c1-1,2-2,2.8-3.2,2.8-3.2,7.8-4.2,10.2,1.2.6.8,1,1.8,1.6,2.6.8,1.2,1.8,2,3,2.2,1.6.4,3.2.4,4.6.2,2,0,3.8-.2,5.6-.2s3,.4,4.4.8c1.6.8,2.6,2.2,2.4,4.2-.2,1-.6,2.2-1.2,3l-2.8,4c-1,1.6-2,3.2-2.2,5-.4,2.2.2,4,2,5.4.6.6,1.4,1.2,2.2,1.8.8.4,1.8,1,2.4,1.6,2.4,2,2.8,5.2.8,7.6-1,1-2,1.6-3,2l-5.2,2.2c-1.4.6-2.6,1.2-4,1.8-2.4,1.2-3.8,3.4-4.2,6.2l-.6,3.6c-.2,1.8-1.2,3-2.6,3.8l-2,.6c-5,1.4-10,1.4-15,.2-2.2-.6-4-1.6-5.4-3.6l-.6-1c-.8-.6-2.2-.4-2.4.8-.2.4,0,.8.2,1.2,1.2,2.6,3.2,4.4,5.8,5.4,3.2,1.2,6.6,1.6,10.2,1.6s2.2-.2,3.2-.2c2.2-.4,4.4-.8,6.4-1.6,3.2-1.2,5.2-3.4,5.6-7,.2-1,.4-2,.4-2.8.2-2.2,1.4-3.8,3.2-4.6,1.2-.4,2.4-1,3.4-1.4,1.8-.8,3.6-1.4,5.4-2.2,2.2-1,3.8-2.6,5-4.6Z"/>
  </g>
</svg>