<?xml version="1.0" encoding="UTF-8"?>
<svg id="Layer_1" data-name="Layer 1" xmlns="http://www.w3.org/2000/svg" version="1.1" viewBox="0 0 145.2 149.5">
  <defs>
    <style>
      .cls-1 {
        fill: #f48722;
      }

      .cls-1, .cls-2, .cls-3 {
        stroke-width: 0px;
      }

      .cls-2 {
        fill: #a33e00;
      }

      .cls-3 {
        fill: #fff;
      }
    </style>
  </defs>
  <g id="Layer_1-2" data-name="Layer 1-2">
    <g>
      <path class="cls-1" d="M92.7,145.5c-1.3,0-2.5,0-3.7-.3-2.8-.4-6.2-1.2-8.9-3.3-5.3-3.7-9.4-8.3-12.2-13.6v-.2c-1.7-3.5-2.6-6.9-2.8-10.5-.8-5.7-1.2-11.5-1.6-17.2v-.4c-.3-2.1-.4-4.2-.5-6.1v-2.8l-.2-3.2c-2.6,1.9-5.6,3.5-8.7,5-4.2,2.1-8.8,3.1-14.1,3.1s-2.1,0-3.2,0-2.1-.3-2.7-.5c-.2,0-.4,0-.7-.2h-.2c-2.9-.8-5.4-1.9-7.9-2.9l-1.2-.5h-.1c-3.9-2.2-7-4.6-9.3-7.5-.2-.3-.5-.7-.8-1-.5-.7-1-1.3-1.5-1.8h-.1v-.3c-2.9-3.5-4.9-7.5-6.1-12.4-1.1-4.8-1.7-9.3-1.9-13.8-.6-11.3,2.6-22.2,9.7-32.5,3.4-5,7.5-9.1,12-12.2,4.3-2.9,9.1-4.8,14.2-5.4,2.6-.5,5.2-.7,7.8-.7h2.6c3.6,0,7,1,10.2,2.7v-1.3h4.2c.4,0,1-.2,1.8-.2h16.4c2.8,0,1.2,0,1.8,0h2.4c.9,0,.2,0,.4,0h.9c1.1,0,2.1.2,3,.5l2.5,1v2.4c0,.3.2.9.2,1.5v5.4c0,5.7.4,11.2.8,16.7,0,1,.2,2,.2,2.9s0,1.8.2,2.6v.4c0,3.7.2,7.5.2,11.1s0,7.4.2,11.1c.2,4.7.5,9.6.7,14.3.2,4.7.5,9.6.7,14.4,0,1.6.4,3.4.7,5.3.2,1.1.3,2.2.5,3.2l.6,5.5c.4,1.4,1.1,2.4,2.4,3.1h0c.6.3,1.1.5,1.6.5.8,0,1.7-.4,2.7-1.1h0v-.2c1.4-.8,2.6-2,3.8-3.5.3-.4.5-.7.7-.9l.9-1.8h2.5c.6,0,2,0,3.3,1.1l19.3,14.1.2.2c.3.3.9.9,1.3,1.8l1.8,3.6-3.1,1.5h0c-6.2,7.8-14.3,14.3-24,19.4-4.6,2.3-9.6,3.7-15.4,4.4h0c-1.4.1-2.9.3-4.5.3h0v-.8ZM48.4,61.7h.4c.6,0,1.2,0,2-.3,2.9-.8,5.1-2.3,6.8-4.8,1.9-2.7,3-6,4-10.1.2-1.5,0-2.9-1-4.3l-1-1.6c-1.7-2.1-4.3-3.2-7.1-4.1-.5,0-1-.2-1.6-.2-.9,0-1.8.2-2.6.6-1.6.8-3.1,1.8-4.4,2.9-.6.6-1.4,1.4-1.7,1.9v.2c-1.6,2.2-2.4,4.6-2.4,6.6,0,3.5.6,6.2,2.2,9,.4.6.9,1.1,1.2,1.5,1.6,1.4,3.3,2.3,5.3,2.7,0,0,0,0-.1,0Z"/>
      <path class="cls-3" d="M47.9,8h2.4c5,.2,9.2,2,12.8,5.2.4.2.6.4.8.6,0,.2.2.2.6.4,0-1.6.2-3.2.2-4.8.6,0,1.2-.2,2-.2,5.4,0,11-.2,16.4-.2s2.8-.2,4.2-.2.8,0,1.3,0,1,0,1.5.2c0,.4.2.8.2,1.2v5.4c0,5.8.4,11.4.8,17,.2,2,.2,3.8.4,5.6.2,7.4.2,14.8.4,22.2.4,9.6,1,19.2,1.4,28.8.2,2.8.8,5.8,1.2,8.8l.6,5.6c.6,2.8,2.2,4.8,4.6,6,1.2.6,2.3.9,3.5.9,1.8,0,3.5-.7,5.1-1.9,1.8-1.2,3.4-2.8,4.8-4.6.2-.4.6-.6.8-1,.4,0,.6,0,.8.2l19.2,14c.2.2.4.4.6.8-.4.2-.6.6-.8.8-6.2,7.8-14,13.8-22.8,18.4-4.4,2.2-9,3.4-14,4-1.4.1-2.8.2-4.2.2s-2,0-3-.2c-2.6-.4-5.2-1-7.2-2.6-4.6-3.2-8.4-7.2-11-12.2-1.4-3-2.2-6-2.4-9.2-.8-5.8-1.2-11.8-1.6-17.6-.4-3-.4-5.8-.6-8.8l-.6-10.4s-.2-.2-.4-.2c-.3,0-.5.2-.6.4-3.8,3.6-8.2,6.4-13,8.6-3.9,2-8.1,2.7-12.4,2.7s-2,0-3,0-1.8-.4-2.8-.6c-3-.8-5.6-2-8.4-3.2-3-1.6-5.8-3.6-8-6.4-.8-1-1.6-2.2-2.6-3.2-2.6-3.2-4.2-6.8-5.2-10.8-1-4.4-1.6-8.6-1.8-13-.6-11,2.8-21,9-30,3-4.4,6.6-8.2,11-11.2,3.8-2.6,8-4.2,12.6-4.8,2.4-.5,4.8-.7,7.2-.7M48.8,65.8c1,0,2-.2,3.1-.5,3.8-1,6.8-3.2,9-6.4,2.4-3.4,3.6-7.4,4.6-11.6.4-2.6-.2-5-1.6-7.2l-1.2-1.8c-2.4-3-5.8-4.4-9.2-5.6-.9-.2-1.8-.3-2.7-.3-1.5,0-2.9.3-4.3.9-2,1-3.8,2.2-5.4,3.6-.8.8-1.8,1.8-2.4,2.8-2,3-3,6.2-3,8.8,0,4.6,1,8,2.8,11.2.6.8,1.2,1.6,1.8,2.2,2.2,2,4.6,3.2,7.4,3.8h1.1M47.9,0h0c-2.8,0-5.7.3-8.5.8-5.8.8-11.1,2.8-15.9,6.1-5,3.4-9.4,7.9-13.1,13.3C2.9,31.1-.6,42.9,0,55.1c.2,4.7.9,9.4,2,14.4h0v.2c1.4,5.4,3.6,10,6.8,13.9l.3.3.3.3c.3.3.7.9,1.1,1.4.3.4.6.7.8,1.1,2.6,3.3,6.1,6.1,10.5,8.5l.3.2h.3l1.1.6c2.6,1.1,5.2,2.3,8.4,3.1h.7c.8.2,2,.6,3.7.7h3.4c5.9,0,11.1-1.1,15.9-3.5,1.1-.5,2.3-1.1,3.3-1.7,0,1.8.2,3.6.4,5.6v.3c.4,5.7.8,11.5,1.6,17.3.3,4.1,1.3,7.9,3.1,11.8v.2l.2.2c3,5.8,7.5,10.9,13.3,14.9,3.4,2.6,7.3,3.5,10.7,4.1,1.4.2,2.8.3,4.3.3s3.4-.1,4.8-.3h.2c6.2-.7,11.7-2.3,16.6-4.8h0c10-5.2,18.3-11.9,24.8-19.8l5.9-2.9-3.6-7.2c-.8-1.6-1.7-2.5-2.1-2.9l-.4-.4-.5-.4-19-13.8c-1.6-1.3-3.5-1.9-5.8-1.9h-4.9l-1.8,3.6c-.2.2-.4.5-.6.8-.9,1.1-1.8,2-2.7,2.6l-.2.2-.2.2s-.2,0-.2.2h-.2l-.5-5.1h0v-.2c-.2-1.1-.3-2.3-.5-3.3-.3-1.8-.5-3.4-.6-4.9-.2-4.8-.5-9.7-.7-14.4-.2-4.7-.5-9.5-.7-14.3,0-3.6,0-7.3-.2-10.9,0-3.7,0-7.5-.2-11.2v-.6c0-.7,0-1.5-.2-2.3,0-.9,0-1.9-.2-3-.4-5.6-.8-10.8-.8-16.3v-5.4c0-.8,0-1.5-.2-1.9V3.7l-5-2c-1.4-.6-2.8-.8-4.4-.8s-.8,0-1.2,0h-4.3c-2.8,0-5.6,0-8.3,0h-8.1c-2.7,0-1.8.1-2.3.2h-5.9c-2.5-.7-5-1.2-7.7-1.2h-2.8.1ZM49.9,40.5c.3,0,.6-.2.9-.2h.5c2.4.9,4,1.6,5,2.7l.9,1.3c.4.6.5,1.1.4,1.4-.9,3.5-1.7,6.3-3.3,8.4h0c-1.2,1.7-2.6,2.7-4.4,3.2h0c-.4,0-.6.2-.8.2-1.2-.3-2.1-.8-3.1-1.6-.2-.2-.4-.5-.6-.8-1.1-2.1-1.5-4.1-1.5-6.9s.3-2.4,1.7-4.4v-.2h.2c.2-.2.7-.7,1-1.1,1-.8,2.1-1.6,3.4-2.2h0l-.3.3h0Z"/>
    </g>
  </g>
  <g id="Layer_2" data-name="Layer 2">
    <path class="cls-2" d="M72.7,20.3c0,2.2,1.8,4.2,4.2,4,2.4,0,4.4-2,4.4-4.4s-2-4.4-4.2-4.2c-2.6,0-4.2,2-4.4,4.6Z"/>
    <path class="cls-2" d="M46.7,19.7c-.2,2.4,1.4,4.4,3.8,4.6,2.2,0,4.2-1.8,4.4-4s-1.6-4.2-3.8-4.2c-2.2-.2-4.2,1.4-4.4,3.6Z"/>
    <path class="cls-2" d="M32.5,22.9c-2-.2-4.2,1.4-4.2,4s1.8,4,4,4.2c2.4,0,4.2-1.8,4.2-4.2s-1.8-4-4-4Z"/>
    <path class="cls-2" d="M74.5,45.5c0,2.4,2.2,4.2,4.2,4.2s4-1.8,4-4.2c.2-2.4-2.2-4.2-4-4-2.2,0-4,1.8-4.2,4Z"/>
    <path class="cls-2" d="M25.9,49.1c0-2.6-2-4.2-4.2-4.2-2-.2-4.2,2-4,4.2,0,2.4,2,4,3.8,4s4.2-1.6,4.4-4Z"/>
    <path class="cls-2" d="M80.1,62.3c-2.2,0-4.2,2-4,4.2,0,2.2,2,4.2,4.2,4,2.2,0,4-1.8,4-4s-1.8-4.2-4.2-4.2Z"/>
    <path class="cls-2" d="M31.7,77.9c1.8.2,4-1.6,4-4.2s-2-4-4.2-4-4,2-4,4,2.2,4.4,4.2,4.2Z"/>
    <path class="cls-2" d="M56.7,79.3c2.4.2,4.2-2,4.2-4-.2-2.2-2-4.2-4.2-4.2s-4,1.8-4.2,4c0,2.4,2,4.4,4.2,4.2Z"/>
    <path class="cls-2" d="M80.3,97.3c2.2.2,4.2-1.6,4.2-3.8.2-2.2-1.8-4.4-4-4.4s-4.2,1.6-4.2,4,1.6,4.2,4,4.2Z"/>
    <path class="cls-2" d="M85.3,121.1c2.2,0,4.2-2,4.2-4.2-.2-2-1.6-4.2-4.4-4-2.4,0-4,1.8-3.8,4.2,0,1.8,1.4,4,4,4Z"/>
    <path class="cls-2" d="M120.5,121.1c2.2,0,4-2,4-4.2s-1.8-4.2-4.2-4c-2.4.2-4,2-4,4.2s2,4,4.2,4Z"/>
    <path class="cls-2" d="M108.5,126.5c0-2.6-2.2-4.4-4-4.4s-4.2,1.8-4.4,4c0,2.8,2.4,4.2,4.2,4.4,2.2,0,4-2,4.2-4Z"/>
  </g>
</svg>