<?xml version="1.0" encoding="UTF-8"?>
<svg xmlns="http://www.w3.org/2000/svg" version="1.1" viewBox="0 0 86.8 101.9">
  <defs>
    <style>
      .cls-1 {
        fill: #ec59b1;
      }

      .cls-1, .cls-2, .cls-3 {
        stroke-width: 0px;
      }

      .cls-2 {
        fill: #fff;
      }

      .cls-3 {
        fill: #5d0947;
      }
    </style>
  </defs>
  <g id="Layer_1" data-name="Layer 1">
    <g>
      <path class="cls-1" d="M33.1,97.9c-2.7,0-5.5-.1-8.2-.2-5.4,0-11-.2-16.7-.4h-3c0-.1-.7-3-.7-3-.1-.6-.2-1.1-.3-1.5,0-.1,0-.3,0-.4l-.2-.6v-21.7c.2-11.9.4-23.7.6-35.7,0-7.4.2-15.1.4-22.6,0-.6,0-1,.1-1.4,0-.2,0-.4,0-.5v-3.3l3.3-.6c1.6-.3,3.1-.3,4.4-.4.8,0,1.5,0,2.1,0h.2s.2,0,.2,0c.9,0,1.8,0,2.8,0,1,0,2.1-.1,3.2-.1h16.4v3.9h0c0,.4.2,1,.2,1.7.3-.3.7-.6,1.1-.9h.2c4.2-3.2,9.1-5.1,14.7-5.9h.1s.1,0,.1,0c.8,0,1.6,0,2.4,0,2.3,0,4.7.3,7.1.7,3.1.5,5.8,2,8.3,4.5,5.1,5.1,8.3,11.5,9.7,19.7h0c.8,6,1.2,11.7,1.2,17.7s0,.4,0,.6c0,1.2,0,2.9-.8,4.8l-1,2-2.2.2c-1.7.1-3.5.2-5.4.2s-5-.1-7.4-.2c-2.4-.1-4.7-.2-7.1-.2s-1.3,0-1.9,0h-4.1c0,.1,0-3.9,0-3.9h0c0-.3-.1-.7-.2-1.1-.1-.5-.2-1-.3-1.5-.2-1-.4-1.9-.7-2.8v-.2c0,0-.1-.2-.1-.2-.2-.9-.7-2.2-3.3-3.9-.2-.1-.7-.2-1.1-.2s-.9.2-.9.2h-.1c-1.3,1.4-2.4,2.5-3.1,3.9h0c-2.7,4.7-4.5,10.1-5.3,16.2-.6,4.1-.4,8.2-.2,12.5v.6c.2,4.6.4,9.3.8,14v.2s0,.2,0,.2c0,.4,0,.9,0,1.5,0,.6.1,1.4.1,2.1s0,.9,0,1.2l.9,3.6-3.5,1.2c-1.2.4-2.1.4-2.7.4h0Z"/>
      <path class="cls-2" d="M56.5,8c2.1,0,4.2.2,6.3.7,2.4.4,4.4,1.6,6.2,3.4,4.8,4.8,7.4,10.8,8.6,17.6.8,5.6,1.2,11.2,1.2,17s.2,2.4-.4,3.6c-1.7.1-3.4.2-5.1.2-4.8,0-9.6-.4-14.5-.4-.7,0-1.3,0-2,0,0-.6-.2-1-.2-1.6-.4-1.6-.6-3.2-1.2-5-.6-2.8-2.6-4.8-5-6.4-1-.6-2.2-.9-3.3-.9s-3,.5-3.9,1.5c-1.4,1.4-2.8,2.8-3.8,4.6-3.2,5.4-5,11.4-5.8,17.6-.6,4.4-.4,8.8-.2,13.2.2,4.8.4,9.8.8,14.8,0,1.2.2,2.4.2,3.6s0,1.4.2,2.2c-.6.2-1,.2-1.4.2-8.2-.2-16.4-.2-24.8-.6-.2-.8-.2-1.6-.4-2.2v-21c.2-11.8.4-23.6.6-35.6,0-7.4.2-15,.4-22.6,0-.6.2-1.2.2-2,2.2-.4,4.2-.2,6.2-.4,2,0,4-.2,6-.2h12.4c0,.6.2,1,.2,1.6v7.6c0,.4-.2,1,.4,1.4.4-.2.6-.6.8-.8,2-2.2,4.2-4.2,6.4-6,3.8-2.8,8.2-4.4,12.8-5,.7,0,1.4,0,2.1,0M56.5,0c-.9,0-1.8,0-2.7,0h-.2s-.2,0-.2,0c-4.2.5-8,1.7-11.6,3.5V1.3h-20.4c-1.2,0-2.3,0-3.4.1-.9,0-1.8,0-2.6,0h-.8c-.5,0-1.1.1-1.8.1-1.4,0-3.1,0-5.1.4L1.2,3.2v6.5s0,0,0,.1c0,.4-.2,1.1-.2,1.9-.2,7.5-.4,15.2-.4,22.7C.4,46.4.2,58.2,0,69.9h0v22.4l.3.8s0,0,0,0c0,.5.2,1.2.4,2l1.4,5.8,5.9.3c5.7.3,11.3.4,16.8.5,2.7,0,5.5,0,8.2.2h0s0,0,0,0c.7,0,2.1,0,3.9-.6l7-2.3-1.8-7c0-.1,0-.3,0-.4,0-.9,0-1.8-.1-2.5,0-.4,0-.9,0-1.1v-.6c-.4-4.6-.6-9.4-.8-13.9v-.6c-.2-4.2-.4-8.1.1-11.8h0s0,0,0,0c.7-5.5,2.3-10.4,4.7-14.5h0c0,0,0-.2,0-.2.2-.4.6-.8,1-1.3.2.2.2.3.2.3v.4c0,0,.2.4.2.4.2.7.4,1.5.6,2.4,0,.4.2.9.3,1.3,0,.3,0,.6.1.9v7.7l8.2-.2c.6,0,1.2,0,1.8,0,2.2,0,4.5,0,6.9.2,2.5.1,5,.2,7.6.2s4,0,5.8-.2l4.5-.4,2-4c1.4-2.8,1.3-5.3,1.3-6.7,0-.2,0-.3,0-.5,0-6.2-.4-12.1-1.3-18.1h0c0-.1,0-.3,0-.3-1.6-9-5.1-16.2-10.8-21.9-3-3-6.5-4.9-10.3-5.6-2.6-.5-5.2-.8-7.8-.8h0Z"/>
    </g>
  </g>
  <g id="Layer_2" data-name="Layer 2">
    <path class="cls-3" d="M73.2,43.1c.6-.2,1-.8,1-1.8-.2-.6-.8-1.4-1.6-1.4-.6-.2-1.2-.2-1.8-.2-.2-.6-.4-1-.4-1.6-.4-2.6-1-5-2-7.2-1.6-3.8-3.2-7.4-6.2-10.4-4.4-4.8-11.6-5-15.6-3-3.4,1.8-6.4,3.8-9,6.8-4.2,4.8-8,10-10.8,15.8-1,2.2-2,4.6-3.2,6.8-.2.4-.4.6-.6,1.2-.4-2.2-.6-23.6-.2-29.6,0-.4.2-.8.2-1.4h1.8c.6,0,1,0,1.6-.2.8-.2,1.4-1,1.4-1.8-.2-.8-.8-1.4-1.6-1.6-1.8-.2-3.6-.2-5.4-.4h-2.6c-1,0-1.4.6-1.8,1.2-.2.6,0,1.4.6,2,.6.4,1.2.6,1.6,1v66.6c0,.2-.2.4-.2.8h-2c-.4,0-1,0-1.4.2-1,0-1.8,1-1.8,1.8s.4,1.8,1.6,2c.4,0,.8.2,1.4.2,2.6-.2,5.2-.2,7.8-.4.4,0,.8-.2,1.4-.4.8-.4,1.2-1,1-1.8,0-1-.6-1.4-1.6-1.6h-2c0-.8-.2-1.2-.2-1.8v-20c0-.6.2-1.4.2-2,.6-2,1.2-4.2,2-6.2.8-2.2,1.8-4.4,2.8-6.4,3-7.4,7-14.4,12.2-20.4,2.4-2.6,5-4.8,8.2-6.4,3.4-1.8,7-1.6,10,.8,1.6,1,3,2.6,4,4.2,2,3.8,3.6,7.8,4.4,12.2v1.6c-.4,0-.8.2-1.2.2-.8.2-1.6.2-2.4.4s-1.4,1-1.4,2,.8,1.8,2,1.8h1.4c2.4-.4,4.6-.6,7-1,.4-.2,1-.2,1.4-.6Z"/>
  </g>
</svg>