<?xml version="1.0" encoding="UTF-8"?>
<svg xmlns="http://www.w3.org/2000/svg" version="1.1" viewBox="0 0 86.4 110.8">
  <defs>
    <style>
      .cls-1 {
        fill: #22beb9;
      }

      .cls-1, .cls-2, .cls-3 {
        stroke-width: 0px;
      }

      .cls-2 {
        fill: #003735;
      }

      .cls-3 {
        fill: #fff;
      }
    </style>
  </defs>
  <g id="Layer_1" data-name="Layer 1">
    <g>
      <path class="cls-1" d="M39.2,106.8c-5.8,0-11.7-1.2-18.1-3.7h-.2c-2.1-1-4.1-2.3-6-3.6h-.1c-2.7-2.1-6.1-4.9-8.7-9.3l-1.3-2.2,1.5-2.1c1.8-2.6,14.6-14.4,16.7-15.9l1.8-1.3,2.1.8c1.4.6,2.6,1.5,3.7,2.8,2,1.5,3.9,2.9,6.1,3.6l2.7.6h.1c0,0,.3,0,.7-.3.7-.6,1.1-1.2,1.2-1.6,0-.4-.3-1.1-.9-1.8-.8-.9-1.8-1.5-3-1.7l-9.6-1.8h-.3c-1.1-.5-2.1-.8-3.1-.9h-.4c0,0-.3-.2-.3-.2-4.2-1.4-7.7-3.5-10.7-6.5-5.8-5.4-8.7-12.6-8.4-21.4.2-9.9,4.4-18.4,12.4-25.5,6.1-5.4,13.3-8.9,21.2-10.1,2.4-.4,4.8-.6,7-.6,4.4,0,8.8.7,12.9,2.1,2.2.7,4.8,1.6,7.3,3,6.6,3.3,11.4,8.4,14,15l1.8,1.8-2,2.8c-2.4,3.2-15.2,17.5-18,19.9l-2.2,1.9-2.5-1.5c-.7-.4-2.1-1.3-3.4-2.3-3.5-2-6.9-2.9-10.3-2.9s-.4,0-.6,0c-1.6.2-2.7.5-3.4,1.2h-.1c-.6.5-.8.9-.3,1.8h0c0,.1,0,.2,0,.2.6,1.1,1.2,1.4,1.4,1.4h.2c0,0,.2.2.2.2,1.5.7,3.2,1.2,4.8,1.4h.5c1.5.2,2.9.4,4.3.4h.2c4.1.3,7.8,1.2,11.2,3,6.5,3.2,10.7,8.7,12.5,16.4,1.4,5.3.2,10.3-.9,13.6-.5,1.5-1.1,3-1.7,4.4-.3.6-.5,1.3-.8,1.9h0c-2.5,5.9-7,10.2-13.5,13.3h-.2c-3.8,1.6-7.4,2.7-11.3,3.3-2.1.3-4.1.5-6.2.5Z"/>
      <path class="cls-3" d="M45.1,8c3.9,0,7.8.6,11.6,1.9,2.4.8,4.6,1.6,6.8,2.8,5.6,2.8,9.8,7,12.2,13,0,.2,0,.4.2.6-2.2,3-14.8,17-17.4,19.2-1-.6-2.2-1.4-3.2-2.2-3.9-2.2-8-3.6-12.5-3.6s-.6,0-.9,0c-2.2.2-4.2.8-5.8,2.2-2.2,1.8-2.6,4.4-1.2,6.8.8,1.6,2,2.8,3.6,3.4,2,1,4.2,1.6,6.2,1.8,1.8.2,3.4.4,5.2.4,3.4.2,6.6,1,9.6,2.6,5.8,2.8,9,7.6,10.4,13.8,1,3.8.4,7.6-.8,11.4-.6,2-1.6,4-2.4,6-2.4,5.4-6.6,8.8-11.6,11.2-3.4,1.4-6.8,2.4-10.4,3-1.9.3-3.7.4-5.5.4-5.7,0-11.2-1.3-16.7-3.4-1.8-.8-3.6-2-5.4-3.2-3-2.2-5.6-4.6-7.6-8,1.4-2,13.6-13.4,15.8-15,1,.4,1.8,1.2,2.4,2,2.4,1.8,4.8,3.6,7.8,4.6l2.6.6c.4.2.9.2,1.3.2,1.1,0,2.1-.5,3.1-1.2,3.4-2.8,3.6-6,.8-9.2-1.4-1.6-3.2-2.6-5.2-3l-9.4-1.8c-1.2-.4-2.4-.8-3.8-1-3.6-1.2-6.6-3-9.2-5.6-5.4-5-7.4-11.4-7.2-18.4.2-9.2,4.2-16.6,11-22.6,5.4-4.8,11.8-8,19.2-9.2,2.2-.3,4.3-.5,6.4-.5M45.1,0c-2.5,0-5.1.2-7.7.6-8.7,1.4-16.5,5.2-23.2,11.1C5.4,19.5.8,29.1.5,40.1c-.3,9.8,3.1,18.2,9.6,24.4,2.1,2.1,4.4,3.8,6.9,5.1-4.8,4.3-12.5,11.6-14.1,13.9l-2.9,4.2,2.6,4.4c3,5,6.8,8.2,9.8,10.4h.1c0,.1.1.2.1.2,2,1.3,4.2,2.8,6.6,3.9h.2c0,0,.2.1.2.1,6.9,2.7,13.3,4,19.6,4s4.6-.2,6.8-.5h0s0,0,0,0c4.1-.7,8.1-1.8,12.1-3.5h.2c0,0,.2-.2.2-.2,7.4-3.6,12.5-8.5,15.4-15.2h0c0-.1,0-.3,0-.3.2-.6.5-1.2.8-1.8.6-1.4,1.3-3.1,1.9-4.8,1.2-3.7,2.5-9.4.9-15.6-1.9-8.3-6.2-14.4-12.9-18.2,4.5-4.3,15.5-16.7,17.6-19.6l4.1-5.5-3.6-3.6c-3.1-7.1-8.3-12.6-15.6-16.2-2.8-1.5-5.6-2.5-7.9-3.3-4.5-1.6-9.3-2.4-14.2-2.4h0Z"/>
    </g>
  </g>
  <g id="Layer_2" data-name="Layer 2">
    <path class="cls-2" d="M44.3,9.3c-.6,0-1,.4-1,1s.4.8.8,1c.2,0,.4.2.6.2,1.2,0,2.6.2,4,.2.6.2,1-.4,1.2-.8,0-.6-.2-1.2-1-1.2-1-.4-2-.4-2.8-.6-.8,0-1.4,0-1.8.2Z"/>
    <path class="cls-2" d="M33.7,11.5c-.4.2-.6.8-.4,1.2.2.6.6.8,1,.8s.6,0,.8-.2c1.6-.6,3-1,4.4-1.6.6-.2.8-.6.8-1.2-.2-.6-.6-1-1.6-1-1.4.6-3.4,1-5,2Z"/>
    <path class="cls-2" d="M52.3,10.9c0,.6.4,1,.8,1.2,1.2.4,2.4.6,3.2.8,1.2,0,1.6-.4,1.8-.8,0-.6-.2-1-.8-1.2-1.2-.4-2.4-.6-3.6-.8-.8-.2-1.2.4-1.4.8Z"/>
    <path class="cls-2" d="M26.5,17.9c1.2-.8,2.6-1.8,3.8-2.8l.6-.6c0-.2.2-.6,0-.8-.2-.4-.6-.6-.8-.8-.4.2-.8.2-1,.4-1.4.8-2.6,1.8-3.8,2.6-.4.2-.6.6-.8,1-.2.6.4,1.4,1,1.4.4-.2.8-.2,1-.4Z"/>
    <path class="cls-2" d="M61.1,13.7c-.2.4-.2,1,.2,1.4,1.4.8,2.6,1.8,3.8,2.6.6.2,1.4-.4,1.4-1v-.4c-1.2-1.4-2.6-2.4-4.2-3-.4,0-.8.2-1.2.4Z"/>
    <path class="cls-2" d="M69.1,19.7c-.4.6-.4,1,.2,1.6.8,1,1.8,2,3,3,.2.4.6.4,1,.4.4-.2.6-.6,1-.8-.2-.4-.2-.6-.4-.8-1-1.2-2-2.4-3.2-3.4-.6-.6-1.2-.4-1.6,0Z"/>
    <path class="cls-2" d="M21.9,21.3c.4-.6.4-1.2,0-1.6s-1-.4-1.4,0c-1.4,1-2.6,2.2-3.6,3.8-.2.2-.2.6-.2.8,0,.4.4,1,1.2.8,0,0,.4,0,.8-.4,1-1,2.2-2.2,3.2-3.4Z"/>
    <path class="cls-2" d="M67.3,29.9l-.8,1.2c-.2.6.4,1.4,1,1.2.2,0,.6,0,.8-.2,1.2-1.2,2.4-2.4,3.4-3.8.2-.2.4-.4.2-.6-.2-.4-.4-.8-.8-1.2-.4.2-.8.2-1,.6-1,.8-1.8,1.8-2.8,2.8Z"/>
    <path class="cls-2" d="M14.1,32.7l1.8-4c.2-.2.2-.4.2-.8-.2-.2-.4-.6-.8-.8-.4,0-.8,0-1,.4-1.2,1.4-2,2.8-2.4,4.6,0,0-.2.2,0,.2.2.4.2.8.6,1,.2.2.8,0,1-.2.2,0,.4-.2.6-.4Z"/>
    <path class="cls-2" d="M61.1,37.7c-.2.2-.4.6-.4.8l.8,1.2c.6-.2,1-.2,1.2-.4,1-1.4,2-2.8,2.8-4.2.2-.2,0-.8-.2-1-.2-.2-.6-.2-1-.2s-.6.2-.8.4l-2.4,3.4Z"/>
    <path class="cls-2" d="M40.9,35.3c-.4.4-.4,1.2.2,1.4l.6.4c1.4-.2,2.4-.4,3.6-.4.4-.2.8-.2,1-.4.4-.2.6-.6.8-.8,0-.4-.4-1-.8-1-1.6-.2-3.2-.2-4.8.4l-.6.4Z"/>
    <path class="cls-2" d="M10.3,40.7c0,.6.4,1,1,1.2.6,0,1.2-.4,1.2-1.2.2-.8.2-1.8.2-2.6h.2v-2c0-.4-.4-.8-.8-.8s-.8.2-1,.4c-.2.2-.4.4-.4.6-.2,1.6-.4,3-.4,4.4Z"/>
    <path class="cls-2" d="M32.7,39.7c-.2.4.4,1,1,1h.4c1.4-1,2.8-2,4-3,.6-.4.2-1.4-.6-1.4-.4-.2-.8-.2-1,0l-3.4,2.4c-.2.2-.2.6-.4,1Z"/>
    <path class="cls-2" d="M51.1,37.3c-.2.6,0,1,.6,1.4.2.2.6.2,1,.4,1.4.6,3,1,4.4,1.6l.8.2c.6,0,1-.2,1.2-.6.2-.6,0-1-.4-1.4-1.8-1-4-1.8-6-2.2h-.4c-.6,0-1,.2-1.2.6Z"/>
    <path class="cls-2" d="M31.9,43.7c-.6,0-1,.2-1.2.8-.2,1-.4,2.2,0,3.4.2.4.6.8.8,1,.4.2.8.4,1.2.2l.4-.6c0-1.6-.2-2.8-.2-4-.2-.4-.6-.8-1-.8Z"/>
    <path class="cls-2" d="M13.9,50.5c1,0,1.4-.8,1.2-1.4-.6-1.4-1.2-2.6-2-3.8-.2-.4-.6-.6-1-.4-.4,0-.8.4-.8,1v.4c.4,1.4,1,2.6,1.8,3.6.2.4.6.4.8.6Z"/>
    <path class="cls-2" d="M34.1,53.1c.6.6,1.4,1.2,2,1.6.6.4,1.4.8,2,1s1-.2,1.2-.6c.2-.4.2-1-.2-1.2-1-.8-2.2-1.6-3.2-2.2-.2-.2-.6-.2-1-.4-.4.2-.8.4-1,.6,0,.4,0,1,.2,1.2Z"/>
    <path class="cls-2" d="M20.7,58.3c.2-.4.2-.8.4-1.2,0-.2-.2-.4-.4-.6l-3.8-3.8c-.2-.2-.4-.2-1-.4-.2.4-.6.8-.6,1.2-.2.2,0,.8.2,1,1,1.4,2.2,2.8,3.8,3.8,0,0,.2.2.4.2.4,0,.8,0,1-.2Z"/>
    <path class="cls-2" d="M42.1,54.3c-.6.2-.8,1-.4,1.4s.4.6.8.8c1.2.2,2.4.6,3,.8h1.2c.2,0,.4,0,.6-.2l.6-.6c.2-.6-.2-1.2-.8-1.4-1.4-.2-2.8-.6-4.2-.8h-.8Z"/>
    <path class="cls-2" d="M54.3,58.7h1c.6,0,1.2-.8.8-1.4-.2-.2-.6-.6-1-.8-1-.2-2.2-.6-3-.8-.8.2-1.2,0-1.4.2-.6,0-.8.4-1,.8-.2.6.2,1.2.8,1.4h.8l3,.6Z"/>
    <path class="cls-2" d="M58.5,58.7c-.2.2-.2.6,0,.8.2.4.4.6.6.8l3,2.6c.2.2.4.4.6.6.4.2,1,.2,1.4-.2.2-.2.2-.8.2-1l-.2-.8c-1.2-1-2.2-2-3.4-3-.4-.4-.8-.4-1.4-.6-.4.2-.6.4-.8.8Z"/>
    <path class="cls-2" d="M27.3,61.9c.4-.4.2-1.2-.2-1.4-1-.6-2.2-1.2-3.4-1.8h-.4c-.2.2-.6.4-.8.8,0,.2,0,.8.2,1,1,1,2.2,1.6,3.6,1.8.4.2.8-.2,1-.4Z"/>
    <path class="cls-2" d="M33.7,64.1c1,0,1.4-.4,1.6-1,0-.8-.4-1.2-1.6-1.4-.6,0-1.2-.2-1.8-.2h-.2c-.6,0-1.2.2-1.2.8-.2.6.2,1,.6,1.2l2.6.6Z"/>
    <path class="cls-2" d="M43.3,65.1c0-.4-.2-1-.8-1.4-1-.4-2.2-.8-3-1-1.2-.2-1.8.2-2,.8s.2,1.2,1,1.4l3.4,1c.6.2,1.2-.2,1.4-.8Z"/>
    <path class="cls-2" d="M65.7,65.1c-.6.2-.8.6-.6,1.2l1.2,4.4c.2.6.8.8,1.4.6.4-.2.6-.6.8-1-.2-1.8-.6-3.4-1.6-4.8-.2-.4-.8-.6-1.2-.4Z"/>
    <path class="cls-2" d="M44.7,67.1l1.8,2.4c.4.4.6,1,1.2,1.2.2.2.6.2,1,.2.4-.2.4-.6.6-.8v-.8c-.8-1.4-1.8-2.6-3.2-3.6-.2-.2-.8,0-1,.2-.4.2-.6.8-.4,1.2Z"/>
    <path class="cls-2" d="M50.3,73.7c-.2-.6-.6-1-1.2-1s-1,.4-1,1c-.2,1.2-.8,2.4-1.4,3.4-.4.8-.4,1.2.2,1.6.4.4,1.2.4,1.6-.2,1-1.2,1.6-2.6,1.8-4v-.8Z"/>
    <path class="cls-2" d="M68.1,80.1c.8-2,.8-4,.6-6-.2-.4-.6-.8-1.2-.8s-.8.4-1,1v.8c-.2.8-.2,1.6-.2,2.2s-.2,1.6,0,2.4c0,.4.4.6.8.8.2,0,.8-.2,1-.4Z"/>
    <path class="cls-2" d="M23.1,79.9q.2,0,.2-.2l2.8-2.4c.2-.2.2-.6.2-.6,0-.8-.8-1.4-1.2-1.2-1,.6-1.8,1.2-2.6,1.8-.4.4-.6.8-.8,1.2s-.2,1,.2,1.4c.4.4.8.2,1.2,0Z"/>
    <path class="cls-2" d="M34.5,82.1c.2-.4,0-1-1-1.4-1.6-.6-3.2-1.6-4.8-2.6l-.6-.4c-.2.2-.4.2-.6.4-.6.4-.6,1.2-.2,1.6,1.6,1.6,3.4,2.6,5.4,3.2.8.4,1.6,0,1.8-.8Z"/>
    <path class="cls-2" d="M45.1,82.7c.4-.4.6-.8.4-1.4-.4-.4-1-.8-1.4-.4-1.2.8-2.4.8-3.8.8s-1,.2-1.4.6c-.4.2-.4,1.2.2,1.6.6.2,1,.2,1.4.2.8,0,1.6,0,2.2-.2.8-.2,1.8-.4,2.4-1.2Z"/>
    <path class="cls-2" d="M15.5,87.5c.4,0,.8-.2,1-.4l3.8-4.4c.2-.2.2-.6.4-1-.2-.2-.6-.8-.8-.8-.4-.2-.8,0-1.2.2-1.2,1.4-2.6,2.8-3.8,4.4-.2,0-.4.4-.4.6v.8c.4.4.8.4,1,.6Z"/>
    <path class="cls-2" d="M66.5,84.5l.2-.8c0-.8-.4-1.4-1-1.6-.4,0-1,.2-1.2.8-.6,2-1.4,3.8-2.4,5.6-.2.4,0,1,.4,1.2.4.2,1,.2,1.4,0,.2-.2.4-.4.6-.8.8-1.4,1.6-2.8,2-4.4Z"/>
    <path class="cls-2" d="M21.3,95.5c.4,0,1.2-.6,1.2-1.4-.2,0-.4-.4-.6-.8l-4-3q-.2-.2-.4-.4c-.6-.2-1.2,0-1.6.4-.2.4-.2,1,.2,1.4,1.4,1.2,2.8,2.2,4.4,3.4.2.2.6.2.8.4Z"/>
    <path class="cls-2" d="M61.1,93.1c.2-.2.4-.6.6-1-.4-.4-.6-.6-1-.8-.2-.2-.6,0-.8,0-1.6.8-3,1.8-4.4,2.6-.4.4-.6.8-.4,1.4.4.4.8.6,1.4.4h.2c1.4-.8,2.8-1.6,4.4-2.6Z"/>
    <path class="cls-2" d="M32.7,98.7c0-.6-.4-1.2-1.2-1.4-.2,0-.4-.2-.4-.2-1.4-.4-3-1-4.4-1.6l-.8-.2c-.6-.2-1.2,0-1.2.6-.2.4,0,.8.2,1,.2.4.6.6,1,.8,1.4.6,2.8,1.2,4.2,1.6.4.2.6.2.8.2,1,.2,1.6-.2,1.8-.8Z"/>
    <path class="cls-2" d="M52.1,97.7c.6-.2,1-.6,1-1.4s-.2-.4-.4-.6c-.2-.2-.6-.4-.8-.2-1.8.4-3.6,1-5.4,1.6-.4,0-.6.6-.6,1.2.2.4.6.8,1,.8h.6c1.6-.6,3-1,4.6-1.4Z"/>
    <path class="cls-2" d="M42.5,99.7c.6-.2,1-.8.8-1.2,0-.6-.4-.8-1-.8h-2.2c-.8.2-1.4.2-2.2.4v-.2c-.6,0-1.2,0-1.6.2-.2,0-.6.4-.6.6,0,.4.2.8.4,1,.2.2.4.4.6.4,1.8.4,3.6,0,5.4-.2.2,0,.4-.2.4-.2Z"/>
  </g>
</svg>