<?xml version="1.0" encoding="UTF-8"?>
<svg id="Layer_1" data-name="Layer 1" xmlns="http://www.w3.org/2000/svg" version="1.1" viewBox="0 0 89 150.8">
  <defs>
    <style>
      .cls-1 {
        fill: #630f00;
      }

      .cls-1, .cls-2, .cls-3 {
        stroke-width: 0px;
      }

      .cls-2 {
        fill: #fff;
      }

      .cls-3 {
        fill: #ff5708;
      }
    </style>
  </defs>
  <g id="Layer_1-2" data-name="Layer 1">
    <g>
      <path class="cls-3" d="M25,146.8v-6c0-6.5,0-13.3.2-19.9,0-8.8.2-17.8.4-26.5.1-6.3.2-12.6.3-18.9-1.8,0-3.5,0-5.3.2-3,0-6.2.2-9.2.2h-5.5l-1.1-2.2c-.6-1.1-.6-2-.6-2.6-.2-9.4-.2-18.4-.2-28v-3.2l3.1-.7c2.1-.5,4.1-.5,5.8-.6h2.2c1.4,0,2.7-.2,4-.2s2.4,0,3.6-.2h.4c1.2,0,2.4,0,3.7,0,0-4,.1-13.8.1-26.5s0-.2,0-.3c0-.9-.1-2.7,1.2-4.5l1.2-1.6h1.7c.4,0,.9-.2,1.7-.2,4.3,0,8.7-.3,12.9-.4,4.3,0,8.7-.3,13.2-.4h0c.6,0,1,0,1.4.2h2.6l.8,3c.3,1.3.3,2.2.3,3.2v25.8h.4c4.8-.4,9.5-.6,14-.8h.9c2.1,0,3.8.8,5,2.3l.9,1.1v3.1c-.9,6.2-1,12.1-1,16.7s0,3.3,0,4.9v4.7c0,1.6,0,1.2-.2,1.6v4.2h-3.9l-15.9.5c0,25.9,0,39-.2,64.5v5.9l-2.7.9c-1.1.4-2.2.4-2.7.4h-8.6c-3.8,0-7.3,0-11,.2h-.2c-1.2,0-2.4,0-3.7.1-1.3,0-2.7.1-4.1.1h-5.8Z"/>
      <path class="cls-2" d="M58.8,8c.2,0,.4.2.8.2.2.8.2,1.4.2,2.2v27.6c0,.6.2,1.4.2,2,.8.2,1.5.2,2.3.2h2.1c4.8-.4,9.4-.6,14-.8h.7c.6,0,1.3,0,1.9.8v1.2c-.8,5.8-1,11.4-1,17.2s-.2,6.4-.2,9.6-.2,1.2-.2,1.8l-19.4.6c-.2.6-.4,1-.4,1.4v2.4c0,25.6,0,39-.2,64.6v3c-.6.2-1.2.2-1.6.2-3,.2-5.8,0-8.6.2-3.8,0-7.4,0-11.2.2-2.6,0-5.2.2-7.8.2h-1.4v-2c0-6.6,0-13.2.2-19.8.2-16.5.5-33,.8-49.6h0v2.6-6.6,4c-6.3,0-12.5.4-18.5.4s-2,0-3,0c-.2-.4-.2-.6-.2-.8-.2-9.4-.2-18.6-.2-28,2.6-.6,5-.4,7.4-.6,2.6-.2,5-.2,7.6-.4,2.4,0,4.8-.2,7.4-.4,0-.6.2-1.2.2-1.6.2-2.8.2-25.8.2-28.6s-.2-1.6.4-2.4c.4,0,.8-.2,1.4-.2,8.8-.2,17.4-.6,26.2-.8M58.8,0h-.2c-4.4.1-8.9.3-13.2.4-4.2,0-8.6.3-12.9.4-.8,0-1.5.1-2,.2h-3.3l-2.4,3.2c-2.2,3-2.1,6-2,7.1h0v22.7h-.3c-1.2,0-2.3.2-3.5.2s-2.6,0-4.1.2h-2c-1.8,0-4.1,0-6.6.7L.1,36.5v6.4c0,9.6,0,18.6.2,28.1,0,1,0,2.5,1,4.3l2.1,4.3h4.8c1,.2,2.1.2,3.2.2,3.1,0,6.3,0,9.4-.2h1.1c0,5-.2,9.9-.2,14.8-.1,8.7-.3,17.6-.4,26.5-.2,6.7-.2,13.4-.2,20v10h9.4c1.5,0,2.9,0,4.2-.1h4c3.6-.2,7.1-.2,10.8-.2h4.3c1.4,0,3,0,4.6-.1.8,0,2.2,0,3.9-.6l5.5-1.8v-8.7c.2-24.3.2-37.3.2-60.7l12-.4,7.8-.2v-7.4c0-.5.2-1.2.2-2.2v-4.6c0-1.6,0-3.3,0-5,0-6.6.3-11.4.9-16.1v-5l-1.8-2.2c-1.1-1.4-3.7-3.8-8.1-3.8s-.4,0-.6,0h-.4c-3.3.2-6.7.3-10.3.5V10.4c0-1,0-2.4-.4-4.1l-1.5-6.1h-5.2C60.2,0,59.6,0,58.9,0h-.1Z"/>
    </g>
  </g>
  <g id="Layer_2" data-name="Layer 2">
    <path class="cls-1" d="M73.8,45.2c-.6-.2-1.4-.2-2-.2h-16.8c-.8,0-1.6.4-2.4-.4v-4.2c.2-2,.2-24,.2-26s0-1-.2-1.4c-.2-.2-.6-.4-1-.4s-.6.2-.8.6c-.2.4-.2.8-.2,1.4l-.6,28.6c0,.6,0,1.2-.2,2-3-.2-6,.4-9.2,0,0-.6-.2-1.2-.2-1.8V15.6c0-2.2-.4-2.8-1.4-2.8s-1.2.6-1.2,3v22c0,2,.2,4.2,0,6.2,0,.6,0,1-.2,1.4l-9.6.6c-3.6.2-7,.4-10.6.6-.6,0-1.2.2-1.6.4s-.6.6-.6,1c-.2.4.2,1,.6,1,.6.2,1,.4,1.4.2,3.6,0,7-.2,10.6-.6,3,0,5.8-.4,8.8-.6.4,0,.8.2,1,.2.4,2,.4,7.4,0,9.2-.8,0-1.6,0-2.4.2l-12.8.6c-1.4.2-2.8.4-4.2.4-.8.2-1.4.6-1.4,1.4s.6,1.2,1.4,1.2h1.4c3-.4,6.2-.6,9.2-.8,2.6-.2,5-.2,7.6-.4.4,0,.8.2,1.4.2.2,1.2.2,2,.2,3,0,22.2.2,32.2.4,54.4v16c0,1,.6,1.6,1.4,1.6.6-.2,1-.6,1-1.4.2-.6.2-1.4.2-2-.2-13.2-.2-26.6-.2-39.8l-.2-29.2c0-.8-.2-1.8.4-2.6,2.4-.2,5-.2,7.6-.4.4,0,.6.2,1.4.2v2.8c.2,10.2.2,8.2.2,18.4.2,7.8.4,15.6.2,23.4-.2,8.8.2,17.4.2,26.2s.2,1.4.2,2.2.2.6.2,1c.2.4.6.8,1.2.6.6,0,1-.2,1-.8.2-.4.2-.8.2-1.2,0-2-.2-4.2-.2-6.2,0-6.4-.2-12.8-.2-19.2-.2-10.6-.2-21.2-.2-31.6l-.2-13.6c0-.8-.2-1.6.4-2.2.4,0,1-.2,1.6-.2,5.2,0,10.4.2,15.6.2h1.8c.6,0,1-.4,1.2-1,0-.4-.4-1-1-1.2-.8-.2-1.6-.2-2.4-.2-4.8-.2-9.6-.2-14.6-.2s-1.8.2-2.6-.2c-.2-2.6-.2-7.2.2-9.2l1.4-.2c2.2,0,4.4,0,6.6-.2h11.4c.6,0,1.2,0,1.6-.2.6,0,.8-.4.8-1s-.4-1-.8-1h0ZM49.8,57c-2.2.4-7,.4-9,.2-.4-1.8-.4-6.4-.2-8.8,1.8-.6,7.2-.6,9.2-.2.2,1.8.2,6.8,0,8.8Z"/>
  </g>
</svg>