<?xml version="1.0" encoding="UTF-8"?>
<svg id="Layer_1" data-name="Layer 1" xmlns="http://www.w3.org/2000/svg" version="1.1" viewBox="0 0 111.6 103.8">
  <defs>
    <style>
      .cls-1 {
        fill: #630f00;
      }

      .cls-1, .cls-2, .cls-3 {
        stroke-width: 0px;
      }

      .cls-2 {
        fill: #fff;
      }

      .cls-3 {
        fill: #ff5708;
      }
    </style>
  </defs>
  <g id="Layer_1-2" data-name="Layer 1">
    <g>
      <path class="cls-3" d="M71,99.8c-12.6,0-25.6,0-38.7-.2h0c-.7,0-1.5-.2-2.3-.6-.9-.5-1.7-1.3-2-2.3l-.6-1.8c-3.1-8.8-5.4-18-7.7-27l-.4-1.5c-3.5-13.9-6.9-26.3-10.2-37.9L4.3,10.6h0c-.5-1.2-.4-2.5.3-3.6.6-1.4,2-2.3,3.6-2.3h1.7c.6,0,1.4,0,2.1,0,7.5,0,14.8-.2,22.9-.4h0c.9,0,1.7.3,2.4.8,1.6,1.2,2.1,2.6,2.3,3.2v-.2c0,.2.2.5.3.8,1.5,5.6,3,11.3,4.6,16.9,1.9,7.1,3.9,14.4,5.8,21.6.7,2.2,1.3,4.5,2,6.7.7-2,1.5-3.8,2.3-5.7.4-1,.8-2,1.2-3,.7-1.7,1.4-3.4,2-5.1l3.1-8c.6-1.4,1.1-2.7,1.7-4,.6-1.4,1.1-2.7,1.7-4.1.3-.7.5-1.4.8-2.1.7-2,1.5-4,2.4-6.1.3-.7.5-1.4.8-2.1.8-2,1.5-4.1,2.4-6.2.6-1.4,2-2.4,3.6-2.4h8.5c6.8,0,13.7,0,20.4.3.7,0,1.4.2,1.7.4,1.6.5,2.8,2,2.8,3.8s-.5,4-1,5.5h0c-8.8,23.4-17.5,47.1-25.9,70.1v.2c-.9,2.2-1.7,4.3-2.5,6.6-.5,1.4-1,2.7-1.5,4.1-.3,1.2-1.1,2-1.4,2.3l-.3.3c-.7.8-1.8,1.3-2.9,1.3h-1l-.3-.3Z"/>
      <path class="cls-2" d="M35,8c.8.6.8,1.2,1,1.6,3.4,12.8,7,25.6,10.4,38.6,1.6,5.2,3,10.4,4.4,15.6l.6,2.4c1.6-3,2.4-5.8,3.6-8.4,1-2.8,2-5.4,3.2-8.2,1-2.6,2.2-5.4,3.2-8.2l3-7.8c1.2-2.8,2.2-5.4,3.4-8.2,1-2.6,2-5.4,3.2-8.2,1-2.6,2-5.4,3.2-8.2h8.4c6.8,0,13.6.1,20.4.3.2,0,.4.2.6.2,0,1.6-.4,3-.8,4.2-8.8,23.4-17.4,46.8-26,70.2-1.4,3.6-2.6,7.2-4,11,0,.2-.2.4-.4.6l-.2.2c-.2,0-.2.2-.2.2h-1c-12.8,0-25.6,0-38.6-.2,0,0-.2,0-.6-.2l-.6-1.8c-3.2-9.2-5.6-18.8-8-28.2-3.2-12.6-6.6-25.4-10.2-38l-4.8-17.8c0-.2,0-.6-.2-.6.1-.1.2-.3.2-.4h.2c1.2,0,2.4-.2,3.6-.2,7.8,0,15.6-.2,23-.4M35,0h-.2c-7.7.2-15.3.4-22.8.4s-1.8,0-2.5,0h-1.3c-3.3.1-6.1,2.1-7.4,4.9-.9,1.9-1.1,4.2-.3,6.2h0l4.8,17.8h0c3.3,11.7,6.6,24,10.1,37.9l.4,1.5c2.3,9,4.7,18.3,7.8,27.3l.6,1.8c.7,2,2.1,3.7,4,4.6,1.3.7,2.7,1,4.1,1,13.1.2,26.1.2,38.7.2h1c2.3,0,4.3-.9,5.8-2.4h0l.2-.2c1.2-1.2,2-2.5,2.4-4,.5-1.3,1-2.7,1.4-4,.8-2.2,1.5-4.3,2.3-6.4h0c8.5-23.1,17.2-46.9,26-70.2,0,0,0-.2,0-.3.6-1.7,1.2-4,1.2-6.7s-.8-4.2-2.3-5.7c-.9-.9-1.9-1.5-3-1.9-.7-.3-1.7-.6-3.1-.6-6.7-.1-13.6-.3-20.5-.3h-8.6c-3.1,0-5.9,2-7.2,4.8-.9,2.2-1.7,4.3-2.5,6.4-.3.7-.5,1.3-.8,2-.9,2.1-1.7,4.2-2.4,6.2-.3.7-.5,1.3-.8,2-.6,1.4-1.2,2.8-1.7,4.1-.6,1.4-1.1,2.6-1.6,4,0,0,0,.2,0,.3l-3,7.8v.2c-.3.9-.6,1.8-1,2.6-1.5-5.7-3.1-11.4-4.6-16.9s-3.1-11.3-4.6-16.9c0-.3-.2-.6-.3-1-.3-1-1.2-3.2-3.6-5C38.4.6,36.7,0,35,0h0Z"/>
    </g>
  </g>
  <g id="Layer_2" data-name="Layer 2">
    <path class="cls-1" d="M16.6,10.2c-.2.6,0,1.2.4,1.6.8.4,1.4.8,2.2,1,2.2.6,4.2.8,7,.8s2.8-.2,4.2-.6c1-.2,2-.6,3-1,1-.6,1.2-1.4.8-2-.4-.8-1-.8-2-.2-1.2.6-2.4,1-3.8,1-3.4.2-6.8.4-10.2-1.2-.6-.2-1.4,0-1.6.6Z"/>
    <path class="cls-1" d="M16,26.8c0,.6.4,1,1,1s1.2-.2,1.4-.8c0-.4,0-.8.2-1.2.2-4-.4-7.8-2.2-11.4-.6-1.2-1.4-2.6-2.6-3.6-.4-.4-.8-.8-1.4-1-.4-.4-1.2-.2-1.4.4-.4.4-.4,1.2.2,1.6,1.4,1.2,2.4,2.6,3,4,1.2,2.8,2,5.6,1.8,8.6v2.4Z"/>
    <path class="cls-1" d="M76,11c-.2.4-.2,1,.2,1.4.4.4,1,.6,1.6,1,2.4,1,4.8,1.4,7.6,1.4s4.2-.4,6.2-1.2c.6-.2,1.2-.6,1.8-1,.2-.2.2-.8.2-1.2-.2-.6-.6-.8-1.2-.8s-.8.2-1,.4c-4.4,1.8-8.8,1.6-13-.2-.4-.2-.8-.4-1.2-.4-.4-.2-1,0-1.2.6Z"/>
    <path class="cls-1" d="M101,13c.4-.2.6-.6.6-1.2s-.6-1-1.2-1c-1,0-1.8.2-2.6.8-1.4.8-2.6,2-3.4,3.6-2,3-2.8,6.4-3,10.4.2.8.4,2.2.6,3.6.2.4.4.8.6,1,.2.6.6.6,1.2.4.6,0,.8-.4.8-1s-.2-1.4-.2-2.2c-.6-3.4,0-6.8,1.6-10,1-2,2.4-3.6,4.6-4.2.1,0,.3,0,.4-.2Z"/>
    <path class="cls-1" d="M22,49c-.2.8.4,1.4,1,1.6s1.2-.2,1.4-.8c.4-.8.4-1.6.6-2.6-.4-1.8-.6-3.8-1.2-5.8-.6-3.2-1.8-6.2-3.2-9.2-.6-.8-1-1.8-2-2.4-.6-.4-1.2-.4-1.6.2-.4.4-.4,1,0,1.6.6,1,1.4,1.8,1.8,3,1.6,3.2,2.6,6.8,3.2,10.4.2,1.4.4,2.8,0,4Z"/>
    <path class="cls-1" d="M92.6,34.2c.4-.4.4-1,.2-1.4-.2-.6-.8-.6-1.2-.6-.4.2-1,.4-1.2.6-.8.6-1.6,1.2-2.2,2-3.2,4-4.8,8.6-5.2,13.6.2,1,.2,1.8.4,2.6,0,.6.4,1.4.8,1.8,0,.2.6.4,1,.2.4,0,.6-.4.8-.8.2-.2.2-.6,0-.8-.6-2.2-.4-4.2.2-6.2,1-4.2,2.6-8,6.2-10.8,0,0,.2-.2.2-.2Z"/>
    <path class="cls-1" d="M26.8,69.4c.2.8,1.2,1.4,1.8,1,.4-.4.8-.8,1-1.4.2-.8.2-1.6.4-2.2-.4-4.6-1.4-8.6-3.6-12.4-.2-.4-.6-1-1-1.4-.2-.2-.6-.4-.8-.4-.6-.2-1,0-1.2.4s-.4.8-.2,1.2c.2.4.6.8.8,1.4,2.2,4.2,4,8.4,2.8,13.4,0,0,0,.4,0,.4Z"/>
    <path class="cls-1" d="M84.2,57c0-.4.2-1,.2-1.2-.2-.4-.6-.6-1-.6-.8-.2-1.4,0-2,.6-.8.8-1.6,1.8-2.2,2.8-1.8,3.2-3,6.6-3.8,10.2-.2,1-.2,2-.4,2.6,0,1.6,0,2.6.6,3.6.2.2.8.4,1,.4.4-.2.8-.6,1.2-1v-.8c-.4-1.6-.2-3.2.2-4.6.6-2.2,1.2-4.2,2-6.2,1-2.2,1.8-4.4,4-5.8h.2Z"/>
    <path class="cls-1" d="M35.8,91.8c.4-1,.4-1.8.6-2.4v-1c-.6-4.4-2-8.8-4-12.8-.4-.6-1-1.4-1.4-2.2-.2-.2-.6-.6-1-.8-.4-.2-1.2,0-1.6.4-.2.4-.2.8,0,1.2,0,.2.2.4.2.4,2.4,3.2,3.6,6.8,4.4,10.4.4,1.4.6,3,.6,4.4s-.2,1.4-.2,2.2c-.2.6.6,1.2,1.2,1,.6,0,1-.4,1.2-.8Z"/>
    <path class="cls-1" d="M75.6,80c.4-.2.4-.8.4-1.2-.2-.6-.6-.8-1.2-.8-1.4-.2-2.2.6-3,1.6-2.2,3-3.2,6.6-3.6,10.6.2.6.2,1.4.6,2,.2.6.6.6,1.2.6.4-.2.8-.4,1-1v-.8c-.4-2.8.4-5.4,1.6-7.8.6-1.2,1.2-2.6,2.8-3,0,0,0-.2.2-.2Z"/>
    <path class="cls-1" d="M65,91.6c.6.2,1.2-.4,1.2-1,.2-.8-.2-1.2-.8-1.4-3.2-1.8-6.6-2.2-10.2-.8-.8.4-1.8,1-2.2,1.8s-.2,1,.2,1.4c.2.4.8.6,1.2.4s.6-.4.8-.6c1.4-1,3-1.4,4.6-1.2,1.4,0,2.6.4,3.8.8,0,0,1.4.6,1.4.6Z"/>
    <path class="cls-1" d="M50.8,91c.4-.6.2-1.2-.4-1.6-.6-.4-1-.8-1.6-1-1.4-.4-2.8-.6-4-.8-1.8,0-3.4.2-4.8.8-1,.6-2,1.2-2.4,2.2-.2.6,0,1.2.6,1.6s1.2.4,1.6-.2c.6-1.2,1.8-1.6,3-1.6,2-.4,3.8-.4,5.6.6.2.2.4.4.8.4.6.4,1.2.2,1.6-.4Z"/>
  </g>
</svg>