<?xml version="1.0" encoding="UTF-8"?>
<svg xmlns="http://www.w3.org/2000/svg" version="1.1" viewBox="0 0 163.8 104.1">
  <defs>
    <style>
      .cls-1 {
        fill: #ec59b1;
      }

      .cls-1, .cls-2, .cls-3 {
        stroke-width: 0px;
      }

      .cls-2 {
        fill: #fff;
      }

      .cls-3 {
        fill: #5d0947;
      }
    </style>
  </defs>
  <g id="Layer_1" data-name="Layer 1">
    <g>
      <path class="cls-1" d="M69.5,100.1c-1.9,0-3.7,0-5.6-.1-1.8,0-3.5-.1-5.2-.1h-29.3l-1.1-2.2c-.5-1.1-.8-1.9-1.1-2.8-3.2-9-5.6-18.4-7.9-27.5-.8-3-1.5-5.9-2.3-8.8l-7.7-28.2c-1.8-6.4-3.6-13.1-5.3-19.8v-.5c-.1,0-.1-5.1-.1-5.1h4s.1,0,.2,0c.4,0,.9-.2,1.6-.2,1.8,0,3.5,0,5.2-.1,1.7,0,3.4,0,5.2,0s4.3,0,6.6,0c2.3,0,4.7-.1,7-.1s1.6,0,2.9.4l1.9.6.6,1.9c.5,1.6,1,3.3,1.4,5,.4,1.6.8,3.1,1.2,4.4.9,2.9,1.6,5.7,2.3,8.5l.4,1.5c.5,1.6,1,3.2,1.4,4.8.4,1.5.9,3.1,1.4,4.7h0c0,.1,0,.2,0,.2.4,1.5.8,3.1,1.3,4.7.5,1.6.9,3.3,1.3,4.9.4,1.5.8,3.1,1.3,4.7.3,1.2.7,2.4,1,3.6,3.3-8.5,6.7-17.2,10.2-25.8,2.6-6.8,5.6-13.7,8.9-20.3.2-.4.4-.7.6-.9,0,0,0,0,0-.1l.8-2.4h2.7c2-.2,4-.2,6-.2s3.8,0,5.6,0l2.9-.2,1.1,2.7c.4,1.1.9,2.3,1.2,3.3l.9,3.5c2.6,9.7,5.4,19.8,8.4,29.5,1,3.5,2,7,2.8,10.5,0,.2.1.4.2.7L123,7.4l.6-.6c1.1-1.1,2.4-1.6,4.1-1.6s.4,0,.7,0c0,0,.2,0,.3,0h25c.7,0,1.3,0,1.7.1.2,0,.4,0,.5,0h3.5l.4,3.5c.3,2.2-.3,4.2-.8,5.6l-.2.7-11.1,29.7c-6,16.4-12.1,32.8-18,48.7-.4,1.2-.9,2.6-1.6,4.1l-1.1,2.2h-2.5c-3.4,0-6.9,0-10.2-.1-3.3,0-6.7,0-10,0s-4.6,0-6.8,0c-2.2,0-4.4,0-6.6,0s-4.6,0-6.6,0h-3c0,0-.9-2.8-.9-2.8-.6-2.1-1.3-4.1-1.9-6.1l-1.8,4.7c-.2.7-.5,1.3-.7,1.6h0c0,.1-.8,2.6-.8,2.6h-2.7c-.9.2-1.9.2-2.8.2Z"/>
      <path class="cls-2" d="M87.2,8.3c.4,1,.8,2,1,2.8,3,11,6,22.2,9.4,33.2,2,6.8,3.6,13.8,5.6,20.6.2.4.4.8.4,1h.4c.2,0,.2-.2.2-.2l22.2-56c.4-.4.8-.4,1.3-.4s.6,0,.9,0h25c.8,0,1.4.2,2.2.2.2,1.6-.4,3.2-.8,4.6l-11,29.6c-6,16.4-12,32.6-18,48.8-.4,1.2-.8,2.4-1.4,3.6-6.8,0-13.4-.2-20.2-.2s-9,0-13.5,0c-2.2,0-4.5,0-6.7,0-1.8-5.8-3.6-11.2-5.4-16.8-.6.2-.6.8-.6,1.2l-5.4,14.4c0,.4-.4.8-.6,1.4-.9,0-1.8,0-2.7,0-3.6,0-7.2-.3-10.7-.3h-26.8c-.4-.8-.6-1.4-.8-2.2-4.2-11.8-7-24.2-10.2-36.2l-7.6-28c-1.8-6.6-3.6-13.2-5.4-20v-.6c.6,0,1.2-.2,1.8-.2,3.6,0,7-.2,10.4-.2s9-.2,13.6-.2,1,0,1.6.2c1,3,1.6,6.4,2.6,9.4,1,3.2,1.8,6.6,2.6,9.8,1,3.2,1.8,6.4,2.8,9.6.8,3.2,1.8,6.4,2.6,9.6.8,3.2,1.8,6.4,2.6,9.6.8,3.2,1.8,6.4,2.6,9.6h.4c.4-.8.6-1.4,1-2,4.4-11.4,8.8-22.8,13.4-34.2,2.6-6.8,5.6-13.6,8.8-20,.2-.4.6-.8.8-1.4,3.8-.2,7.8,0,11.6-.2M92.5,0l-5.7.3c-1.7,0-3.5,0-5.4,0s-4.1,0-6.2.1l-5.4.3-1.5,4.5c-.2.3-.4.6-.6,1-3.4,6.7-6.4,13.7-9.1,20.7-1.9,4.8-3.8,9.6-5.7,14.4-.1-.5-.3-1-.4-1.5-.4-1.6-.9-3.1-1.2-4.6v-.2c0,0-.1-.2-.1-.2-.5-1.5-.9-3-1.3-4.6-.4-1.6-.9-3.2-1.4-4.8l-.3-1.4c-.7-2.8-1.4-5.8-2.3-8.7h0c0,0,0-.1,0-.1-.4-1.2-.8-2.6-1.1-4.1-.4-1.7-.9-3.5-1.5-5.3l-1.3-3.8-3.8-1.3c-1.8-.6-3.4-.6-4.1-.6-2.4,0-4.8,0-7.1.1-2.3,0-4.4,0-6.5,0s-3.6,0-5.3.1c-1.7,0-3.4,0-5.1,0s-1.7.1-2.2.2H0v9.6l.3,1c1.8,6.8,3.6,13.6,5.4,20.1l7.6,28c.8,2.9,1.5,5.9,2.3,8.7,2.3,9.1,4.8,18.6,8,27.7.3,1.3.7,2.3,1.3,3.4l2.2,4.4h31.7c1.6,0,3.3,0,5,.1,1.8,0,3.8.1,5.7.1s2.1,0,3,0l5.5-.2v-.4c.1,0,.3.6.3.6l6.1-.2c2,0,4.1,0,6.5,0s4.4,0,6.6,0c2.2,0,4.5,0,6.8,0,3.3,0,6.7,0,10,0,3.3,0,6.8.1,10.2.1h4.9l2.2-4.4c.8-1.7,1.3-3.2,1.8-4.5,5.9-15.9,12-32.3,18-48.7l11-29.6v-.3c.1,0,.2-.3.2-.3,0-.2.1-.4.2-.5.5-1.7,1.3-4.2.9-7.3l-.9-7h-6.9s0,0-.1,0c-.5,0-1.3-.2-2.2-.2h-25.1c-.3,0-.6,0-.9,0-3.4,0-5.6,1.5-6.9,2.8l-1.2,1.2-.6,1.5-13.8,34.9c-3-9.6-5.7-19.5-8.3-29.1l-.9-3.5c-.3-1.3-.8-2.5-1.3-3.7l-2.1-5.3h0Z"/>
    </g>
  </g>
  <g id="Layer_2" data-name="Layer 2">
    <path class="cls-3" d="M142,16.3c0-.6-.4-1.2-.8-1.4-.6-.2-1.2,0-1.6.6l-.6,1.6c-3.8,10.6-7.8,21-11.6,31.6-.2.6-.4,1.2-.6,1.4,0,1,.4,1.6,1,1.8.4.2,1-.2,1.4-.6l.6-1.6c3.8-10.6,7.8-21.2,11.6-31.8l.6-1.6Z"/>
    <path class="cls-3" d="M31.6,43.1c.2.4.8.8,1.2.4.4-.2.6-.6,1-.8-.2-.8-.4-1.4-.6-1.8l-9-24.2c0-.4-.2-.8-.6-1.2-.4-.4-.8-.6-1.2-.4-.4.4-.8.8-.8,1.2-.2.4,0,.8.2,1.2l9,24.4c.2.4.4.8.8,1.2Z"/>
    <path class="cls-3" d="M81.4,18.5c.6,0,1.2-.6,1-1.2,0-.4-.4-.8-1-.8s-1.2.6-1,1.2c.2.4.4.8,1,.8Z"/>
    <path class="cls-3" d="M78.6,28.1c.2-.6.4-1.4.6-1.8,0-.8-.6-1.4-1-1.4-.6-.2-1,0-1.4.6-.2.8-.6,1.6-.8,2.4-2.2,6.6-4.2,13.2-6.2,20l-11.4,36.2c-.2.6-.4,1.4-.4,2-.2.6.2,1.2.8,1.4.6.2,1.2-.2,1.4-.6l.6-1.8c3.8-12,7.4-23.8,11.2-35.6l6.6-21.4Z"/>
    <path class="cls-3" d="M97.8,88.5c.6-.2,1-.6,1-1.6-.2-.4-.2-1-.4-1.6l-6-26.2c-2.4-10.2-4.8-20.6-7.2-30.8l-.6-2c-.2-.6-1-.8-1.6-.6-.4.2-.8.6-.8,1.2s.2.8.2,1.2c.2,1,.6,2,.8,3,4.2,18.4,8.4,36.6,12.8,54.8,0,.6.2,1.2.4,1.8.2.6.8,1,1.4.8Z"/>
    <path class="cls-3" d="M35.2,50.1c.2-.6-.4-1.2-1-1.2s-1,.4-1.2,1c0,.6.4,1.2,1.2,1.2s1-.6,1-1Z"/>
    <path class="cls-3" d="M127.2,57.1c0-.4-.4-1-1-1.2-.4,0-1,.6-1,1-.2.6.4,1.2.8,1.2.6.2,1.2-.4,1.2-1Z"/>
    <path class="cls-3" d="M46,86.5c.4-.2.8-.6,1-1-.2-.6-.4-1.2-.4-1.8l-7.8-22.8c-.2-.6-.4-1.2-.8-1.6-.2-.4-.8-.6-1.2-.4-.6.2-.8.6-.8,1.2s.2.8.2,1.4c.8,2,1.4,4.2,2.2,6.4l5.4,16.2c.4.8.6,1.4,1,2,.2.6.8.6,1.2.4Z"/>
    <path class="cls-3" d="M124.6,64.1c.2-.4.4-.8.4-1.4-.2-.2-.4-.6-.8-.8-.4-.4-1-.2-1.2.2-.4.2-.6.6-.6,1-.4.8-.6,1.6-1,2.4-2.2,6.4-4.6,12.8-6.8,19.2l-.6,1.8c-.2.8.4,1.6,1.4,1.4.2,0,.6,0,.6-.4.4-.4.6-.8.8-1.2l7.8-22.2Z"/>
  </g>
</svg>