<?xml version="1.0" encoding="UTF-8"?>
<svg id="Layer_1" data-name="Layer 1" xmlns="http://www.w3.org/2000/svg" version="1.1" viewBox="0 0 92.6 100.8">
  <defs>
    <style>
      .cls-1 {
        fill: #f48722;
      }

      .cls-1, .cls-2, .cls-3 {
        stroke-width: 0px;
      }

      .cls-2 {
        fill: #a33e00;
      }

      .cls-3 {
        fill: #fff;
      }
    </style>
  </defs>
  <g id="Layer_1-2" data-name="Layer 1-2">
    <g>
      <path class="cls-1" d="M6.7,96.8l-1.2-1.2c-.6-.6-2.5-2.9-.8-6.2h0v-.3l13-22c1.3-2.2,2.6-4.5,3.9-6.8,1.3-2.2,2.6-4.5,3.9-6.8h0v-.3s.2-.3.3-.4L7.4,5.1l5.5-.3c9.2-.6,18.4-.8,29-.8h1.9l1.2,1.5c1.2,1.5,1.8,3,2.2,4.3.6,1.4,1.1,2.9,1.6,4.3l3.5-6h0c.5-.8,1-1.6,1.7-2.3l1-1,1.4-.2c2.4-.3,12.8-.4,18.9-.4s9.3.2,9.7.3l1.6.3.9,1.4c1,1.5,1.2,3.4.5,5.5l-.2.5-1.4,2.2c-3.9,6.5-7.8,12.9-11.7,19.3-3.9,6.4-7.8,12.9-11.7,19.4v.2c.4,1.4.9,2.8,1.4,4.2,1,2.7,2,5.4,2.9,8.3,1,2.7,2,5.5,3,8.3,1.6,4.5,3.3,9.1,4.9,13.6v.6c.3.8.9,2.3.6,4.2l-.6,3.3h-3.1c-.3,0-.9.2-1.5.2h-28.1l-1.1-2.2c-.5-1-1-2.1-1.4-3.1-.7,1.2-1.5,2.5-2.3,3.7l-.6.9-1,.5c-.9.5-1.9.7-3.1.7s-.6,0-.9,0h-14.2c-2.5.2-4.8.4-7.2.4h-4.7.7Z"/>
      <path class="cls-3" d="M41.9,8c.8,1,1.2,2,1.6,3.2,1.2,3,2.2,6.2,3.4,9.2.2.8.6,1.6,1,2.4.8-.2.8-.8,1.2-1.2l6.6-11.4c.4-.6.8-1.2,1.2-1.6,2-.2,11.2-.4,18.5-.4s8.2,0,8.9.2c.4.6.2,1.4,0,2l-1.2,1.8c-7.8,13-15.6,25.8-23.4,38.8-.4.6-.6,1.2-1,2,1.6,4.6,3.4,9.2,5,14,2.6,7.2,5.4,14.6,8,22,.2.8.8,1.6.6,2.8-.4,0-.8.2-1.2.2h-25.6c-1.6-3.2-2.6-6.8-4.2-10.2-2.4,3.4-4.2,7-6.4,10.4-.4.2-.9.2-1.3.2h-14.9c-2.6.2-5,.4-7.4.4h-3c-.6-.6-.2-1.2,0-1.6l13-22c2.6-4.6,5.2-9,7.8-13.6.4-.6.8-1.4,1.4-2.2L13.1,8.8c10-.6,19.4-.8,28.8-.8M45.8,0h-3.8c-10.7,0-20,.3-29.3.8L1.7,1.5l4,10.2,16,40.9c-1.1,2-2.2,3.9-3.3,5.8-1.3,2.2-2.6,4.5-3.9,6.8L1.4,87.1v.2c-.1,0-.3.3-.3.3-2.4,4.5-.8,8.6,1.5,10.8l2.3,2.3h6.3c2.5,0,4.9-.2,7.5-.4h14.7c1.8,0,3.4-.4,4.9-1.1l1.4-.7.7,1.3h30.5c.8,0,1.5,0,1.9-.2h6l1.1-6.7c.5-3-.4-5.3-.8-6.3h0v-.4c-1.7-4.6-3.4-9.2-5.1-13.7-1-2.8-2-5.6-3-8.3-1-2.8-2-5.6-2.9-8.3-.3-.8-.6-1.6-.9-2.4,3.6-6,7.3-12.1,10.8-17.9,3.8-6.3,7.7-12.8,11.6-19.3l1.1-1.6.6-.9.3-1c1.4-4.2.3-7.2-.9-9l-1.8-2.8-3.2-.6c-.8-.2-1.9-.4-10.5-.4s-16.3,0-19.4.5l-2.7.3-1.9,1.9c-.7.7-1.3,1.4-1.7,2.1-.4-.7-.8-1.3-1.4-2l-2.4-3h0V0h.1Z"/>
    </g>
  </g>
  <g id="Layer_2" data-name="Layer 2">
    <path class="cls-2" d="M32.1,12.2c.4-.2.6-.6.4-1.2,0-.4-.4-.6-.8-.8-.2-.2-.8-.2-1.2-.2l-11,.6c-.4,0-.8.2-1,.2-.8.2-1.2,1.2-.6,1.8.8,1,1.2,2.4,1.6,3.6,3.2,7.6,6.2,15,9.2,22.6.2.6.4,1.2.8,1.6.2.6.8.6,1.2.4.6-.2,1-.6.8-1,0-.8-.2-1.4-.6-2.2-2.8-7-5.6-14.2-8.6-21.4-.2-.8-.6-1.8-1-3,.6,0,1,0,1.4-.2,2.6,0,5-.2,7.6-.4.6,0,1.2-.2,1.8-.4Z"/>
    <path class="cls-2" d="M79.9,12.8c.8-1.8.4-2.6-1.6-2.6h-10.2c-.4,0-.6,0-1,.2-.6,0-.8.4-.8,1-.2.4.4,1.2.8,1.2h9.8l-1.4,2.6c-4.2,7-8.2,13.8-12.4,20.8-.4.6-.6,1.4-1,2-.2.6,0,1.2.6,1.4.4.4,1.2.2,1.4-.2.4-.6.8-1.2,1.2-1.6l13.8-23.4c.2-.4.4-.8.8-1.4Z"/>
    <path class="cls-2" d="M64.9,81.8c.6,1.2,1,2.6,1.6,4.4-2.4.2-4.4-.2-6.6-.2h-1.8c-.6.2-.8.6-.8,1-.2.6.2,1,.6,1.2.6.2,1.2.4,1.6.4,2.4,0,5,.2,7.4.2s1.2,0,1.8-.2c.8-.2,1.2-.8,1-1.6l-.6-1.6c-2.4-6.4-5-12.8-7.4-19.2l-.6-1.4c-.4-.6-1-1-1.6-.8s-1,1-.6,1.8l.6,1.8c1.8,4.8,3.6,9.4,5.4,14.2Z"/>
    <path class="cls-2" d="M26.3,70.2c.4-.8.2-1.4-.4-1.8s-1.2-.2-1.6.6c-.2.2-.4.4-.6.8l-9.6,16.4c-.4.4-.6.8-.6,1.4-.2.6.2,1.2.8,1.4l.8.2c2.8,0,5.4-.2,8.2-.2h.8c.4-.2.8-.8.8-1.4-.2-.6-.4-.8-1-1h-7c.4-1,.8-1.4,1-2,2.6-4.2,5-8.6,7.6-12.8.2-.6.6-1.2.8-1.6Z"/>
  </g>
</svg>