<?xml version="1.0" encoding="UTF-8"?>
<svg id="Layer_1" data-name="Layer 1" xmlns="http://www.w3.org/2000/svg" version="1.1" viewBox="0 0 96.2 149.1">
  <defs>
    <style>
      .cls-1 {
        fill: #630f00;
      }

      .cls-1, .cls-2, .cls-3 {
        stroke-width: 0px;
      }

      .cls-2 {
        fill: #fff;
      }

      .cls-3 {
        fill: #ff5708;
      }
    </style>
  </defs>
  <g id="Layer_1-2" data-name="Layer 1">
    <g>
      <path class="cls-3" d="M21.9,145.1v-3.9h0c0-.4-.2-1-.2-1.7-.1-4.3-.2-8.7-.2-13.1s0-8.7-.2-13c0-.7,0-1.2.1-1.6v-4.5h12c5.2-.2,9.1-.9,12.9-2.2h.2c3.2-.9,6.2-2.8,9.3-5.6.5-.5.9-1,1.3-1.7.9-1.7,1.5-3.4,2-5.1-4,2.1-8.6,3.3-13.8,3.6h-4c-3.8,0-7.3-1-10.5-3-4.2-2.5-7.5-4.7-10.4-7.1h0c-5.5-4.9-9.2-10.2-10.8-16-1.4-4.5-2.4-8.9-3.3-14-2-10.6-2.6-22.2-1.9-36.4,0-3.3.2-6.3.4-9.3,0-1.4.4-2.4.6-3.1l.9-2.7h2.5c.3,0,.8-.2,1.4-.2h24.2c.6,0,1,0,1.3.2h3.7v3.6c0,.3.2.8.2,1.4,0,5.7,0,11.5.2,17.3h0c0,3.3,0,6.2.2,9.3.4,6.5,1.5,11.7,3.4,16.3l1.2,2.2c1.2,1.7,3.3,2.8,5.3,2.8s3.1-.7,4.5-2c2.9-2.8,4.5-6,5-10.4.8-7,.6-14.1.2-20.8-.4-3.3-.6-6.7-.8-10v-.4c-.3-1.8-.2-3.5,0-5l.2-1.3,2.4-2.4h1.5c3.9-.3,7.9-.4,11.7-.6,3.8,0,7.7-.3,11.5-.5l3.5-.2.7,3.4c.4,2,.6,3.9.8,5.6v.5c1.2,12.6,1.3,24.8,1.1,39.3l-.6,25.4c-.2,6.2-.6,12.5-1,19-.5,6.6-1.5,11.8-3.2,16.5-2.2,6-5.2,11-9.3,15.1-6.3,6.5-14,10.8-23.5,13.1-5.7,1.4-11.7,2.3-18.3,2.7h-.2c-2.7,0-5.3.2-8.1.4h-6.1Z"/>
      <path class="cls-2" d="M86.3,8.3c.4,2,.6,4,.8,5.8,1.2,13,1.2,25.8,1,38.8l-.6,25.4c-.2,6.2-.6,12.6-1,18.8-.4,5.2-1.2,10.4-3,15.4s-4.4,9.6-8.4,13.6c-6,6.2-13.2,10-21.6,12-5.8,1.4-11.6,2.2-17.6,2.6-2.8,0-5.6.2-8.4.4h-1.6c0-.6-.2-1-.2-1.6-.2-8.6-.2-17.4-.4-26.2,0-.6.2-1.2.2-2h8.2c4.8-.2,9.4-.8,14-2.4,4.2-1.2,7.8-3.6,11-6.6.8-.8,1.4-1.6,2-2.6,2.4-4.6,3.6-9.6,3-14.8,0,0-.3,0-.4,0-.3,0-.5.4-.6.5-5,4.6-11,6.6-17.6,7h-3.8c-3,0-5.9-.8-8.4-2.4-3.4-2-6.8-4.2-10-6.8-4.4-3.8-8-8.4-9.6-14-1.4-4.6-2.4-9-3.2-13.6-2.2-11.8-2.4-23.6-1.8-35.6,0-3.2.2-6.2.4-9.2,0-.8.2-1.4.4-2,.4,0,.6-.2,1-.2h24.2c.2,0,.6.2,1,.2,0,.4.2.6.2,1,0,5.8,0,11.6.2,17.4,0,3.2,0,6.2.2,9.4.4,6,1.4,12,3.8,17.8l1.4,2.6c1.9,2.8,5.2,4.8,8.7,4.8s5-.9,7.3-3.2c3.6-3.4,5.6-7.6,6.2-12.8.8-7.2.6-14.4.2-21.6-.4-3.4-.6-7-.8-10.4-.2-1.4-.2-2.8,0-4l.4-.4c7.8-.4,15.4-.6,23.2-1M92.8,0l-6.9.4c-3.9.2-7.7.3-11.5.5-3.8.1-7.7.3-11.7.5l-3.1.2-2.2,2.2-.4.4-1.8,1.8-.4,2.5c-.3,1.9-.3,4,0,6.1v.2c.2,3.3.4,6.7.8,10.1.4,6.4.6,13.3-.2,20-.4,3.4-1.5,5.8-3.7,7.9h0c-.6.6-1.2.9-1.8.9s-1.4-.4-1.9-1l-1-1.8c-1.7-4.2-2.7-9-3.1-14.9-.2-2.9-.2-5.8-.2-8.9h0v-.3c-.2-5.7-.2-11.5-.2-17.1s0-1.4-.2-1.9V.7h-7.2c-.5-.1-1.1-.2-1.8-.2H10.1c-.7,0-1.4,0-1.9.2H3.3l-1.8,5.5c-.3.8-.8,2.3-.8,4.2-.2,3-.4,6-.4,9.3-.7,14.5,0,26.3,1.9,37.2.9,5.2,2,9.8,3.4,14.4,1.9,6.5,5.9,12.5,12,17.8h0v.2c3.1,2.5,6.5,4.9,10.9,7.4,3.7,2.4,8.1,3.6,12.6,3.6s.8,0,1.2,0h3.1c1,0,1.9-.2,2.8-.3-1,.5-1.9.9-2.9,1.2h-.4c-3.3,1.3-6.9,1.9-11.7,2.1h-15.8v7.8h0c0,.5-.2,1.3-.2,2.2h0v.2c0,4.3.1,8.7.2,13,0,4.3.1,8.8.2,13.1,0,.8.1,1.5.2,2v7.5h10.2c2.7-.2,5.3-.4,7.8-.4h.5c6.8-.5,13-1.4,18.9-2.8,10.2-2.4,18.5-7.1,25.4-14.2,4.5-4.5,7.9-9.9,10.2-16.5,1.8-5.1,2.9-10.6,3.4-17.5h0c.4-6.5.8-12.8,1-19.1h0l.6-25.4h0c.2-14.6,0-27-1-39.7h0v-.6c-.3-1.8-.5-3.8-.9-6l-1.4-6.8h.3Z"/>
    </g>
  </g>
  <g id="Layer_2" data-name="Layer 2">
    <path class="cls-1" d="M69.3,21.9c.6.4,1.2.2,1.6-.6l3.8-5.6c.2-.4.2-.8.4-1.2-.2-.4-.4-.6-.6-.8-.4-.2-1-.2-1.4.2-1.6,1.8-3.2,3.8-4.2,6.2-.4,1-.2,1.6.4,1.8Z"/>
    <path class="cls-1" d="M16.7,22.7c1.4,0,2.6-1.2,2.6-2.6.2-1.4-1-2.6-2.4-2.6-1.6-.2-2.8,1-2.8,2.6-.2,1.4,1,2.6,2.6,2.6Z"/>
    <path class="cls-1" d="M20.7,38.9c.4-.2.8-.6,1.2-1l4.8-7.6c.2-.2.2-.6.4-1-.2-.2-.4-.6-.6-.6-.6-.4-1.2-.4-1.6.2-2,2.8-3.8,5.8-5.8,8.6-.2.6-.2,1,.2,1.4.4.4,1,.4,1.4,0Z"/>
    <path class="cls-1" d="M77.9,31.9c0-1.4-1.2-2.8-2.6-2.6-1.8.2-2.8,1.2-2.8,2.8s1,2.4,2.6,2.4,2.8-1.2,2.8-2.6Z"/>
    <path class="cls-1" d="M78.7,44.5c0-1-.8-1.4-1.4-1.2l-.6.6c-1.2,1.6-2.4,3.2-3.6,5-.2.2-.4.6-.4.8,0,.4.2.8.4,1,.2.2.8.2,1.2.2s.4-.4.4-.4c1.4-1.8,2.6-3.6,3.8-5.4.2-.2.2-.6.2-.6Z"/>
    <path class="cls-1" d="M22.9,55.7c0,1.4,1.2,2.6,2.6,2.6s2.6-1,2.6-2.6-1.4-2.6-2.6-2.6-2.6,1.2-2.6,2.6Z"/>
    <path class="cls-1" d="M71.9,60.9c0,1.4,1.2,2.4,2.6,2.4s2.6-1,2.8-2.4c0-1.4-1.2-2.6-2.8-2.6s-2.6,1.2-2.6,2.6Z"/>
    <path class="cls-1" d="M57.1,67.5c.2-.2.2-.6.2-.6,0-1-.8-1.4-1.4-1.2-.2.2-.6.4-.8.8-1.2,2-2.4,4-3.4,6-.2.2-.2.4-.2.6,0,.4.2.8.4,1,.2.4.8.4,1.2,0,.4-.2.8-.6,1-1,0,0,3-5.6,3-5.6Z"/>
    <path class="cls-1" d="M32.3,68.3c.2-.4.2-.8.2-1.2-.2-.4-.4-.6-.8-.8-.2-.2-.6,0-.8.2-.4.2-.6.6-.8,1-1.2,1.8-2.2,3.6-3.2,5.2-.2.4-.4,1-.4,1.4s.6.8.8,1.2c.4-.2.8-.2,1-.4l1-1.2s3-5.4,3-5.4Z"/>
    <path class="cls-1" d="M79.1,73.9c.2-.6-.4-1-1.2-1-.2.2-.8.4-1.2.8-1.2,1.8-2.6,3.4-4,5.2-.2.4-.4.6-.4,1s0,1,.4,1.2c.2.2.8.2,1,0,.4-.2.8-.4,1.2-.8l3.8-5.4c.2-.2.4-.6.4-1Z"/>
    <path class="cls-1" d="M44.1,83.1c1.4,0,2.6-1.4,2.6-2.8s-1.2-2.6-2.8-2.4c-1.4,0-2.4,1.2-2.4,2.6.2,1.4,1.2,2.4,2.6,2.6Z"/>
    <path class="cls-1" d="M77.9,90.5c.2-1.4-1-2.6-2.4-2.6-1.6-.2-3,1-3,2.4-.2,1.4,1,2.8,2.6,2.8s2.8-1.2,2.8-2.6Z"/>
    <path class="cls-1" d="M79.3,100.9c.2-.4.2-.6.2-.8,0-.8-.6-1.2-1.2-1-.2,0-.4,0-.6.2-2.2,2.2-4.4,4.4-6.4,6.6-.2.4-.6.8-.6,1.2s.2.8.4,1c.4.2,1,.2,1.2,0,.4-.2.8-.6,1.2-1,1.6-1.6,3.2-3.4,4.6-5,0,0,1.2-1.2,1.2-1.2Z"/>
    <path class="cls-1" d="M61.5,114.5c1.6,0,2.8-1.2,2.8-2.6s-1.2-2.6-2.6-2.6-2.8,1.2-2.8,2.6,1.2,2.4,2.6,2.6Z"/>
    <path class="cls-1" d="M41.3,116.9c0-.8-.6-1.4-1-1.2-.6.2-1.2.4-1.6.8-1.6,1.4-3.2,3-4.6,4.4-.4.2-.6.6-.6.8,0,.4,0,.8.2,1,0,.2.6.4.8.4.6-.2,1.2-.4,1.6-.8,1.6-1.4,3.2-3,4.8-4.6.2-.2.2-.6.4-.8Z"/>
    <path class="cls-1" d="M58.3,120.5l.4-.6c0-1-1-1.4-1.6-1.2l-.8.8c-2,2-3.8,3.8-5.6,5.8-.2,0-.4.2-.6.4-.2.4-.2,1,0,1.4.4.4.8.4,1.4.4l1-.6c2.2-2,4.2-4,5.8-6.4h0Z"/>
    <path class="cls-1" d="M36.5,134.3c1.4,0,2.6-1.2,2.4-2.6,0-1.4-1-2.6-2.4-2.6s-2.6,1.2-2.6,2.6,1,2.6,2.6,2.6Z"/>
  </g>
</svg>