<?xml version="1.0" encoding="UTF-8"?>
<svg xmlns="http://www.w3.org/2000/svg" version="1.1" viewBox="0 0 93 103.3">
  <defs>
    <style>
      .cls-1 {
        fill: #22beb9;
      }

      .cls-1, .cls-2, .cls-3 {
        stroke-width: 0px;
      }

      .cls-2 {
        fill: #003735;
      }

      .cls-3 {
        fill: #fff;
      }
    </style>
  </defs>
  <g id="Layer_1" data-name="Layer 1">
    <g>
      <path class="cls-1" d="M51.8,99.3c-7.2,0-14.4-.1-21.3-.2-1.2,0-2.6,0-3.9,0-1.5,0-3,.1-4.6.1s-3.7,0-5.6,0c-1.9,0-3.8-.1-5.6-.1s-1.6,0-2.9-.4h-.1s-.1,0-.1,0c-1.8-.7-3.1-2.1-3.5-3.8-.4-1.6,0-3.3,1-4.7,0-.1.3-.5.4-.8.3-.5.6-1.2,1-1.8l12.7-21.4c3.3-5.5,6.6-11.1,9.8-16.6,2.4-4.1,4.9-8.4,7.4-12.6,0,0-.2,0-.2,0h-.2c-2.3,0-4.7.2-7.1.4-.6,0-1.2.1-1.9.3-1.1.2-2.4.4-3.8.4s-2-.1-2.9-.3l-2.3-.6-.6-2.3c-.9-3.2-.4-20,.1-23.6l.5-3.4h3.5c.3,0,.8-.2,1.3-.2,3.9-.4,7.6-.6,12.1-.8,2.2-.3,4.4-.4,6.6-.5,1,0,2.1,0,3.1-.2l11.2-.6c.9,0,1.8-.2,2.7-.2,1.7-.2,3.5-.3,5.3-.4,5.9-.4,11.9-.6,17.7-.8.4,0,.8-.1,1.3-.1s.8,0,1.2,0c0,0,.2,0,.3,0h1.7l1.1,1.2c1.5,1.5,1.9,3.4,1.2,5.6l-.2.6-1.5,2.2c-1.3,2.1-2.7,4.2-4,6.4-2.6,4.2-5.4,8.5-7.9,12.7-4.7,7.9-9.6,15.9-14.4,23.6-2.7,4.4-5.5,8.9-8.2,13.4.2,0,.5,0,.8,0h3.5c1.3-.2,2.5-.2,3.6-.2,1.6-.2,2.9-.2,4.3-.2s.7,0,1,0c.5,0,.9,0,1.4,0,.7,0,1.3,0,1.8.2l2.4.5.6,2.4c1,3.8,1.3,19.5.9,23.1l-.4,3.6h-3.5c-.3,0-.8.2-1.3.2-4.8.2-9.9.2-15.6.2Z"/>
      <path class="cls-3" d="M83.2,8c.5,0,1,0,1.4,0,.6.6.4,1,.2,1.6l-1.2,1.8c-4,6.4-8.2,12.8-12,19.2-8,13.6-16.6,27-24.8,40.6-.4.6-1,1.4-1.4,2.4,1.6.2,2.8.2,4,.2s2.4-.2,3.8-.2h3.8c1.2-.2,2.4-.2,3.6-.2,1.4-.2,2.6-.2,4-.2s1.6,0,2.3,0,.7,0,1.1,0c.8,3,1.2,18,.8,21.6-.6,0-1,.2-1.4.2-5.2.2-10.3.2-15.5.2s-14.2-.1-21.3-.2c-2.8,0-5.6.2-8.6.2s-7.4-.2-11.2-.2-1,0-1.6-.2c-1-.4-1.6-1.4-.8-2.4.6-.8,1-2,1.6-2.8l12.8-21.6c6.6-11,13-22.2,19.6-33.2.4-.6,1-1.4,1.2-2.4-.6,0-1.2-.1-1.8-.1-1.9,0-3.7.4-5.6.5-2.4,0-5,.2-7.4.4-1.8.1-3.5.6-5.3.6s-1.3,0-1.9-.2c-.6-2.2-.4-18,.2-22,.6,0,1-.2,1.6-.2,4-.4,8-.6,12.2-.8,3.2-.4,6.4-.4,9.6-.6l11.2-.6c2.8-.2,5.4-.6,8-.6,6-.4,12-.6,18-.8.3,0,.5,0,.8,0M83.2,0c-.6,0-1.1,0-1.6.1-5.7.2-11.6.4-17.5.8-2,0-3.8.2-5.6.4-.9,0-1.8.2-2.6.2l-11.1.6h0s0,0,0,0c-1,0-2,.1-3,.1-2.2,0-4.4.2-6.7.5-4.4.2-8.2.4-12,.8-.7,0-1.2.1-1.6.2h-6.4l-1,6.8c-.6,3.9-1.1,21.2,0,25.3l1.2,4.5,4.5,1.1c1.2.3,2.5.5,3.8.5s3.2-.2,4.4-.4c.5,0,1-.2,1.4-.2-1.2,2.1-2.4,4.1-3.6,6.2-3.2,5.4-6.5,11.1-9.8,16.5l-12.7,21.4c-.6.8-.9,1.6-1.2,2.2,0,.1-.1.2-.2.4-1.7,2.3-2.3,5.2-1.5,7.9.8,2.9,3,5.4,5.9,6.5h.2c0,0,.2.2.2.2,1.8.6,3.3.6,4.1.6,1.8,0,3.7,0,5.5,0,1.9,0,3.8.1,5.7.1s3.2,0,4.7-.1c1.3,0,2.6,0,3.8,0,6.9.1,14.1.2,21.3.2s10.9,0,15.7-.2c.7,0,1.3-.1,1.7-.2h6.6l.8-7.1c.4-4,.2-20.1-1-24.5l-1.3-4.8-4.9-1c-.8-.2-1.7-.2-2.6-.2s-1.1,0-1.6,0c-.3,0-.6,0-.8,0-1.4,0-2.8,0-4.5.2-.1,0-.2,0-.4,0,1.5-2.4,2.9-4.7,4.4-7,4.8-7.7,9.7-15.7,14.4-23.7,2.5-4.1,5.2-8.4,7.8-12.6,1.3-2.1,2.7-4.2,4-6.4l1.1-1.7.6-.9.3-1h0c1.7-5-.6-8.3-2.2-9.8l-2.3-2.3h-3.2c-.4,0-.9,0-1.5,0h0Z"/>
    </g>
  </g>
  <g id="Layer_2" data-name="Layer 2">
    <path class="cls-2" d="M60.2,14.5c-.6,0-1.2.6-1,1.2,0,.4.6,1,1,1,.6,0,1-.6,1-1.2s-.4-1-1-1Z"/>
    <path class="cls-2" d="M46.8,15.9c-.8-.2-1.2.4-1.2,1.2s.4.8.8.8c.8,0,1.4-.4,1.4-1.4-.4,0-.6-.4-1-.6Z"/>
    <path class="cls-2" d="M31.2,17.9c0,.6.4,1,1,1s1.2-.4,1.2-.8c0-.6-.4-1.2-1-1.2s-1,.4-1.2,1Z"/>
    <path class="cls-2" d="M68.6,18.7c.2-.6,0-1-.4-1.4-.4-.4-.8-.4-1.2-.2-.6.4-1,.8-1.4,1.2-2.8,2.8-6.2,3.4-10,2.6-.8-.2-1.6-.6-1.8-1.4l-.4-.6c-.2-.6-1.2-.6-1.6-.2-.2,0-.4.2-.6.4-.8,2-2.6,2.6-4.6,3-2.6.2-3.6-.2-5-2.4-.8-1.4-1.6-1.6-2.6-.4l-.4.4c-1.6,2-3.8,2.4-6,2.4-2-.2-3.2-1-4-2.8l-.6-1.4c-.2-.2-.6-.4-1-.4-.4.2-.8.6-.8.8,0,.6,0,1.4.2,1.8,1,2.2,2.4,3.6,4.8,4.2,2.8.4,5.4.2,7.6-1.4.4-.2.8-.4,1-.6,4.4,3.8,8.8,2.6,12.6,0,2.8,1.8,5.8,1.6,8.6,1.2,2.8-.4,5-1.8,6.8-3.8.4-.4.6-.8.8-1Z"/>
    <path class="cls-2" d="M68.2,26.1c0-.6-.4-1.2-1-1.2s-1,.6-1,1.2c-.2.6.2,1,.8,1s1.2-.4,1.2-1Z"/>
    <path class="cls-2" d="M39.6,27.5c.4,0,1-.4,1-1.2-.2-.2-.6-.6-1-.6-.4-.2-1,.4-1,.8.2.6.4,1,1,1Z"/>
    <path class="cls-2" d="M53.2,25.7c-.6-.2-1.2.4-1.2,1.2.2.6.6,1,1.2.8.6,0,1-.6,1-1.4-.4-.2-.6-.6-1-.6Z"/>
    <path class="cls-2" d="M52,44.7c-.8-4.8,1.6-8.4,6.2-9.8l.6-.4c.2-.2.6-.6.6-1s-.4-1-.8-1c-.8.2-1.4.2-2,.4-2,.4-3.4,1.8-4.6,3.2-1.8,2-2.8,4.2-2.8,7s.2,2.2.4,3.6c-.4,0-.8.2-1,.4-1.8.4-3.6,1.2-5,2.4-.8.6-1.6,1.4-2.2,2.2-1.6,2.6-2,5.2-.8,8,.2.6.8,1.4.6,2.2-1.8.8-3.6,1.4-5.2,2.4-4.8,2.8-5.8,7.4-3.8,12.4.4.6,1,.8,1.6.6.6-.2.8-.8.8-1.4l-.6-2.6c-.6-1.4-.2-2.8.4-4,.8-1.4,2-2.6,3.6-3.2,1.2-.6,2.4-1.2,3.8-1.6.4-.2.8-.2,1.4-.4,1-.4,1.4-1,1-2,0-.6-.2-1-.4-1.4-.4-.6-.6-1.4-1-2-.8-2.8,0-5.4,2.2-7.2,1.6-1,3.2-2,5-2.2h.8c1-.2,1.4-.6,1.4-1.8s-.2-1.8-.2-2.8Z"/>
    <path class="cls-2" d="M58.8,41.7c.6,0,1-.8,1-1.4s-.6-1-1-1c-.6,0-1.2.6-1.2,1.4s.6,1,1.2,1Z"/>
    <path class="cls-2" d="M43.2,43.3c-.6-.2-1.2.4-1.2,1s.4.8.8,1c.6,0,1-.4,1.2-1-.2-.2-.4-.8-.8-1Z"/>
    <path class="cls-2" d="M49.6,55.7c.2-.6-.2-1.2-.8-1.2s-1.2.2-1.2.8.2,1,.8,1.2c.6,0,1.2-.4,1.2-.8Z"/>
    <path class="cls-2" d="M32,60.1c-.2.4.4,1,1,1s1.2-.6,1.2-1.2-.6-1-1.2-1c-.4.2-1,.6-1,1.2Z"/>
    <path class="cls-2" d="M39.8,72.3c0-.6-.4-1-1-1s-.8.4-.8.8c0,.6.4.8.8.8s.6-.4,1-.6Z"/>
    <path class="cls-2" d="M27,74.3c-.8-.2-1.4.4-1.4,1.2s.4.8.8.8c.8.2,1.2-.2,1.4-1.2-.2-.2-.4-.6-.8-.8Z"/>
    <path class="cls-2" d="M55.4,79.1c-.2.4.4,1,1,1s1-.6,1-1c0-.6-.6-1-1.4-1-.2.2-.6.6-.6,1Z"/>
    <path class="cls-2" d="M40.6,79.3c-.6,0-1.2.6-1,1.2,0,.4.4.8,1,.8s.8-.4.8-1-.4-1-.8-1Z"/>
    <path class="cls-2" d="M47.4,82.7c-1.2.6-2.4,1.4-3.8,2-2.2,1-4.2.6-6.2-1-.6-.6-1-1.4-1.8-1.4-2,.6-3.6,1.4-5.2,1.8-3.2,1-6,.6-8.2-2-.4-.6-1.4-.6-1.8,0-.6.4-.6,1.2-.2,1.8l.8.8c3,2.4,6.4,3,10,2,1.4-.6,2.8-1,4.2-1.4.2,0,.4.2.6.2,3,2.6,6.2,2.8,9.8,1,1.4-.6,2.8-1.4,4.2-2.2,1,.6,1.8,1.4,2.8,1.8,3.8,2,7.8,1,11-1.6.6-.4.8-1,1-1.6.2-.2-.2-.8-.4-1-.2-.2-.8-.2-1.2,0l-.2.2c-1,1.2-2.2,1.8-3.6,2.2-2.4.8-4.8.4-6.8-1.2l-1.2-1.2c-.8-.8-1.4-.8-2.4-.2-.4.2-.8.6-1.4,1Z"/>
    <path class="cls-2" d="M19.8,88.7c.6.2,1.2-.4,1.2-1s-.8-1-1.2-1c-.4.2-.8.6-.8,1,0,.6.4,1,.8,1Z"/>
    <path class="cls-2" d="M65.8,87.3c-.6.2-1,.4-1,1s.6,1.2,1.2,1l.8-.8c0-.8-.6-1.2-1-1.2Z"/>
    <path class="cls-2" d="M34.8,89.9c.6,0,1-.6.8-1.2,0-.4-.4-.8-1-.8s-1,.6-1,1.2.6,1,1.2.8Z"/>
    <path class="cls-2" d="M50.4,90.1c.4-.2.6-.6.8-.8,0-.8-.6-1.2-1-1.2-.6.2-1,.6-1,1,0,.6.8,1.2,1.2,1Z"/>
  </g>
</svg>