<?xml version="1.0" encoding="UTF-8"?>
<svg id="Layer_1" data-name="Layer 1" xmlns="http://www.w3.org/2000/svg" version="1.1" viewBox="0 0 95.3 143.2">
  <defs>
    <style>
      .cls-1 {
        fill: #f48722;
      }

      .cls-1, .cls-2, .cls-3 {
        stroke-width: 0px;
      }

      .cls-2 {
        fill: #a33e00;
      }

      .cls-3 {
        fill: #fff;
      }
    </style>
  </defs>
  <g id="Layer_1-2" data-name="Layer 1-2">
    <g>
      <path class="cls-1" d="M30.4,139.2c-9.8,0-17.1-4.5-21.3-13.1-4-8.4-5.6-16.5-5-24.6.5-7.9,1.5-14.3,3.1-20,2.9-9.5,7.2-17.6,13.2-24.8,3.4-4.1,7.1-7.3,11.4-9.9,3.9-2.5,8.5-4.2,14-5.1h.2c2.9-.4,5.4-.6,7.7-.6s4.5.2,6.6.5v-.8h5.6c2,0,3.9,0,5.8.2,1.4,0,2.8.2,4.1.3h5.6c2,0,4,0,6.2.4l1.8.3,1,1.6c1.1,1.8,1,3.5,1,4.4v1.7c-.4,9.5-.8,18.5-.9,27.9,0,2.6-.2,5.2-.3,7.7-.3,10.3-.7,21-.5,31.3v14.7c0,.5,0,1-.2,1.4v2.8l-2.2,1c-1.2.6-2.4.6-3,.6h-.9c-5.6.2-11,.2-16.7.2s-1.6,0-2,0c-.4.1-.9.2-1.4.2h-.3l-3.9-.6-.9-2.1c-.8-1.9-.7-3.7-.6-4.9v-2.8c-.9.8-1.7,1.6-2.6,2.3-2.6,2.2-5.2,3.7-7.4,5h-.3c0,.1-.3.3-.3.3-.9.4-1.7.7-2.4,1.1h-.2c-3.8,2-8.1,3.1-13,3.3h-1,0ZM39.7,95.7c.9,1.6,2.1,2.4,3.5,2.4s.4,0,.5,0h.5c1-.3,1.6-.4,2.3-.7h.2c3.3-1.4,6.1-3.9,8.4-7.4,0-.2.2-.3.2-.5,0-.3.3-.5.3-.7.4-1.7.7-3.4.9-4.7h0v-.3c.5-2.4-.2-4.5-.9-5.8-.4-.6-1.7-2.4-3.4-2.4s-.6,0-.9,0l-.4.2h-.4c-.8.2-1.5.6-2.1.9h-.2c-3.2,1.7-5.8,4.4-7.8,8.5-1.1,2.3-1.6,4.5-1.6,6.3s.3,3,.8,4.2h.1Z"/>
      <path class="cls-3" d="M65.9,44.7c3.3,0,6.5.5,9.8.6h5.7c1.9,0,3.7,0,5.5.3.6,1,.4,1.8.4,2.6-.4,9.8-.8,19.4-1,29.2-.4,13-1,26.2-.8,39.2v14.6c0,.4-.2,1-.2,1.6-.4.2-.8.2-1.2.2h-1c-5.6.2-11,.2-16.6.2s-2.2.2-3.4.2l-1.4-.2c-.6-1.4-.2-2.8-.2-4v-7.6c-.2-1.4,0-2.6-.4-4-.8.4-1.2,1-1.6,1.6-2.2,2.6-4.6,5-7.2,7.2-2.2,1.8-4.4,3.2-6.8,4.6-1,.4-2,.8-3,1.4-3.6,1.8-7.4,2.6-11.4,2.8h-.7c-8.1,0-14.2-3.6-17.7-10.8-3.4-7.2-5.2-14.6-4.6-22.6.4-6.6,1.2-13,3-19.2,2.6-8.6,6.6-16.4,12.4-23.4,3-3.6,6.4-6.6,10.4-9,3.8-2.4,8-3.8,12.6-4.6,2.4-.3,4.8-.5,7.2-.5s4.8.2,7.2.7c1,.2,2,.4,3.2.8,0-.6.2-1,.2-1.8h1.6M43.2,102.1c.5,0,1.1,0,1.7-.2,1.2-.2,2.2-.4,3.4-1,4.4-1.8,7.8-5,10.4-9,.4-.8.8-1.4,1-2.2.4-1.8.8-3.6,1-5.2.6-3,0-6-1.4-8.6-1.3-2.1-3.7-4.4-6.9-4.4s-1.5,0-2.3.4c-1.4.2-2.6.8-3.6,1.4-4.4,2.2-7.4,5.8-9.6,10.2-1.2,2.6-2,5.4-2,8s.4,4.2,1.2,6c1.4,2.6,3.8,4.6,7.1,4.6M65.9,36.7h-9.6v.4h-2.6c-2.5,0-5.2.2-8.2.6h-.4c-6,1-11,2.9-15.4,5.7-4.7,2.8-8.7,6.3-12.4,10.7-6.3,7.7-10.9,16.2-13.9,26.2h0c-1.7,6-2.8,12.7-3.3,20.9-.7,8.9,1.1,17.5,5.3,26.6h0c4.8,9.9,13.6,15.3,24.9,15.3h1.1c5.5-.3,10.2-1.5,14.6-3.6h.3c0-.1.3-.3.3-.3.5-.3,1.1-.5,1.9-.8l.5-.2.5-.3c1.3-.8,2.8-1.7,4.4-2.7,0,.4.3.8.4,1.2l1.8,4.1,4.5.6,1.4.2h1.2c.7,0,1.3,0,1.9-.2h1.5c5.7,0,11.1,0,16.7-.2h.9c.8,0,2.7,0,4.8-1l4.4-2.2v-4.5c0-.4.2-1.1.2-2v-14.6h0c-.2-10.4.2-21,.5-31.2,0-2.6.2-5.1.3-7.7h0c.2-9.3.6-18.4.9-27.9v-1.3h0v-.2c0-1.1.2-3.7-1.5-6.6l-1.9-3.2-3.6-.6c-2.5-.4-4.7-.4-6.8-.4h-5.6c-1.2,0-2.5,0-3.8-.3-1.9-.2-3.9-.3-6.1-.3h0v-.2h-.1ZM51.3,79.8h.8l.2.2c.4.8.7,1.8.5,3v.6c0,1.1-.4,2.5-.8,3.9h0c0,.2,0,.3-.2.4-1.9,2.8-4,4.6-6.5,5.6h-.3l-.3.2s-.2,0-1.1.3h-.2c-.2-.6-.4-1.1-.4-2.4s.4-2.8,1.2-4.5c1.6-3.2,3.5-5.3,6-6.5h.3l.3-.3c.4-.2.6-.3.7-.3h0s-.2-.2-.2-.2Z"/>
    </g>
    <g>
      <path class="cls-1" d="M36.1,38.6c-2.7-2.5-5.4-5.1-8-7.7-1.7-1.7-3.5-3.5-5.3-5.1l-4.1-3.9,5.1-2.5c.7-.4,1.5-.7,2.4-.9,1.4-.4,2.7-.6,4-.9,1-.2,2-.4,2.9-.6h.2l13.1-2.7c.8-.2,1.3-.5,2.4-1.3l5.3-4.4c1.2-1.2,2.4-2,3.7-2.9l1-.7h2.3c1.2.4,2.2,1.1,3,2.1l9.9,10.2c.6.6.9,1.3,1.1,1.7l2.2,3.3-3.7,2.1c-.2,0-.5.4-.8.6-.2.2-.4.3-.5.5h0c-.7.6-1.4,1.1-2,1.7-2.2,1.7-4.5,3.4-6.8,5-.9.8-1.7,1.2-2.2,1.4l-.6.3h-.4c-3.8,1.1-7.6,2.1-11.4,3.2-2.9.8-5.9,1.6-8.8,2.4l-2.1.6-1.6-1.5h-.3Z"/>
      <path class="cls-3" d="M60.1,8.9c.4,0,.7.4.8.6l10.1,10.5c.3.3.3.6.5.9-.7.4-1.3,1-1.9,1.5-2.9,2.2-5.9,4.6-8.9,6.6-.6.6-1.1.8-1.7,1.1-6.7,1.7-13.4,3.7-20.2,5.5-4.4-4-8.7-8.5-13.2-12.8.6-.3,1.1-.5,1.4-.5,2.4-.7,4.8-1,7.1-1.6l13.2-2.7c1.6-.4,2.6-1.1,3.9-2l5.6-4.6c1-1,2-1.7,3.2-2.5h0M61.1.9h-3.5l-2,1.3c-1.3.9-2.7,1.8-4.1,3.2l-5.1,4.2c-.6.4-.8.6-1,.6l-12.9,2.6h-.4c-.8.2-1.7.4-2.7.6-1.2.2-2.6.5-4.1.9-1.3.2-2.4.7-3.3,1.2l-10.2,5.1,8.2,7.9c1.7,1.7,3.5,3.4,5.2,5.1,2.6,2.6,5.4,5.3,8.1,7.8l3.2,2.9,4.2-1.1c3-.8,6-1.6,8.9-2.4,3.9-1.1,7.5-2.1,11.3-3l.8-.2.8-.4h.2c.6-.4,1.7-.9,2.9-1.9,2.3-1.6,4.6-3.3,6.8-5,.7-.5,1.4-1,2-1.5h0v-.2c.2-.2.4-.3.6-.5,0,0,.2-.2.3-.3l7.3-4.1-4.4-6.6c-.3-.7-.9-1.6-1.8-2.5l-9.7-10.1c-1.3-1.6-3-2.7-5-3.2l-1-.2h0l.2-.2h.2Z"/>
    </g>
  </g>
  <g id="Layer_2" data-name="Layer 2">
    <path class="cls-2" d="M49.7,53.3c-.6,0-1.2.6-1.2,1.2s.6,1,1.2,1,1-.4,1-1-.6-1.2-1-1.2Z"/>
    <path class="cls-2" d="M50.9,56.7c-1.4,0-2.6,1.4-2.6,3s1,2.4,2.6,2.4,2.6-1.4,2.6-3-1.2-2.4-2.6-2.4Z"/>
    <path class="cls-2" d="M56.5,58.7c-.6,0-1.2.4-1.2,1s.6,1,1.2,1.2c.4,0,1-.6,1-1.2s-.4-1-1-1Z"/>
    <path class="cls-2" d="M46.1,60.1c-.6,0-1,.4-1,1s.4,1,1,1,1-.6,1-1c0-.6-.4-1-1-1Z"/>
    <path class="cls-2" d="M51.1,65.5c.8,0,1.2-.6,1.2-1.2-.2-.6-.6-1-1-1-.8,0-1.4.6-1.2,1.2,0,.6.6,1,1,1Z"/>
    <path class="cls-2" d="M73.7,67.7c-.6.2-1,.6-1,1.2s.6,1,1.2,1c.6-.2,1.2-.8,1-1.4s-.6-.8-1.2-.8Z"/>
    <path class="cls-2" d="M73.9,77.1c1.6,0,3.2-1.4,3.2-3s-1.4-2.8-3-2.8-2.8,1.6-2.8,3.2,1.2,2.6,2.6,2.6Z"/>
    <path class="cls-2" d="M68.9,74.5c.4-.2,1-.6,1-1.2s-.6-1-1.2-1-1,.4-1,1,.6,1.2,1.2,1.2Z"/>
    <path class="cls-2" d="M79.9,74.7c.6,0,1-.6,1-1,0-.6-.4-1-1-1s-1.2.4-1.2,1c.2.4.6,1,1.2,1Z"/>
    <path class="cls-2" d="M23.1,78.7c0,.6.4,1.2,1,1.2s1.2-.4,1.2-1-.4-1.2-1-1.2-1,.4-1.2,1Z"/>
    <path class="cls-2" d="M74.3,78.9c-.6.2-1,.6-1,1.2.2.6.6,1,1.2,1,.6-.2,1-.6,1-1.2s-.6-1-1.2-1Z"/>
    <path class="cls-2" d="M23.5,87.1c1.8,0,3.6-1.8,3.4-3.6,0-.4,0-.6-.2-1-.6-.8-1.2-1.8-2.4-2-1.4,0-2.2.8-2.6,1.8-.4.8-.6,1.6-.8,2.2,0,1.4,1.2,2.4,2.6,2.6Z"/>
    <path class="cls-2" d="M18.5,84.9c.8,0,1.4-.6,1.4-1.2s-.6-1-1.2-1-1,.4-1.2,1c0,.6.4,1.2,1,1.2Z"/>
    <path class="cls-2" d="M29.1,85.1c.6,0,1.2-.4,1.2-1s-.4-1-1-1.2c-.6,0-1.2.6-1.2,1,0,.6.4,1.2,1,1.2Z"/>
    <path class="cls-2" d="M23.5,91.1c.6,0,1.2-.6,1.2-1.2s-.6-1.2-1-1c-.8,0-1.2.6-1.2,1.2.2.6.4.8,1,1Z"/>
    <path class="cls-2" d="M74.3,101.7c0-.6-.4-1.2-1-1.2s-1,.4-1.2,1c0,.6.4,1.2,1,1.2s1-.4,1.2-1Z"/>
    <path class="cls-2" d="M76.5,107.3c.4-1.4,0-2.4-1.4-3-.6-.2-1.2-.4-1.8-.4-.8-.2-1.4,0-2,.6-.6.8-1,1.6-1,2.4,0,1.2.6,2.2,1.6,2.8,1.8.8,3.8-.2,4.6-2.4Z"/>
    <path class="cls-2" d="M67.7,107.9c.6,0,1-.6,1-1.2s-.4-1-1-1c-.6.2-1.2.6-1.2,1.2s.6,1,1.2,1Z"/>
    <path class="cls-2" d="M78.9,108.1c.4,0,1-.6,1-1.2s-.4-1-1-1-1.2.6-1.2,1c0,.6.6,1.2,1.2,1.2Z"/>
    <path class="cls-2" d="M34.9,110.1c-.6,0-1.2.4-1.2,1s.6,1,1.2,1,1-.4.8-1.2c0-.4-.4-.8-.8-.8Z"/>
    <path class="cls-2" d="M73.5,113.5c.6,0,1.2-.6,1-1,0-.6-.6-1.2-1-1.2-.6,0-1.2.8-1.2,1.4.2.4.8,1,1.2.8Z"/>
    <path class="cls-2" d="M37.9,117.1c.2-1-.4-1.8-1.2-2.4-1.4-.8-3.4-.6-4.4.8-1.2,1.4-1.2,3.4-.2,4.4.6.8,1.4,1,2.6,1s.8-.2,1.4-.6c1.2-.6,1.6-1.8,1.8-3.2Z"/>
    <path class="cls-2" d="M28.7,118.1c.6,0,1.2-.4,1-1,0-.6-.4-1-1-1s-1,.6-1,1c0,.6.6,1,1,1Z"/>
    <path class="cls-2" d="M39.7,118.9c.6,0,1.2-.6,1.2-1.2-.2-.6-.8-1-1.2-1-.6,0-1,.6-1,1.2s.6,1,1,1Z"/>
    <path class="cls-2" d="M35.1,124.5c.2-.6-.2-1-.8-1-.6-.2-1,.2-1.2,1,0,.4.4.8.8,1,.6,0,1.2-.4,1.2-1Z"/>
    <path class="cls-2" d="M57.1,24.3c2-1.4,3.7-2.8,5.9-4.3,0,0,.3-.3.4-.7.3-.3.2-1,0-1.6-.4-.4-1-.7-1.5-.5-.4.1-.7.4-1,.7-1.4.8-2.7,1.8-4,2.8-1.1.8-2.4,1.2-3.8,1.5-3,.6-6.1,1.2-9.2,1.7h-1c-.9.4-1.3,1.1-1.3,1.7s.7,1.3,1.2,1.3c1,.2,1.8.2,2.7.2,3.1-.5,6.1-1.2,9.4-1.8.7-.1,1.7-.5,2.4-.9h-.2Z"/>
    <path class="cls-2" d="M38.9,28.2c.4-.4.6-1.4,0-2s-1.3-.7-1.8-.2c-.7.4-.7,1.3-.2,1.8s1.3.7,2,.3h0Z"/>
  </g>
</svg>