<?xml version="1.0" encoding="UTF-8"?>
<svg id="Layer_1" data-name="Layer 1" xmlns="http://www.w3.org/2000/svg" version="1.1" viewBox="0 0 95.5 144.8">
  <defs>
    <style>
      .cls-1 {
        fill: #630f00;
      }

      .cls-1, .cls-2, .cls-3 {
        stroke-width: 0px;
      }

      .cls-2 {
        fill: #fff;
      }

      .cls-3 {
        fill: #ff5708;
      }
    </style>
  </defs>
  <g id="Layer_1-2" data-name="Layer 1">
    <g>
      <path class="cls-3" d="M45.1,140.7c-2.1,0-3.2,0-5-.2-6.6-.5-12.7-2.3-18.1-5.6l-.3-.2-2.7-2.3h-.1c-5.7-5.6-9.9-12.5-12.1-20.1-2.3-8-3.1-14.7-2.7-21.1h0c.5-5.1,1.4-9.8,2.8-13.9.8-2.9,2-6,3.6-9.5,2-4.5,4.7-8.5,8-11.7l.2-.2h.2c.4-.5.9-1,1.4-1.5s.5-.5.7-.8c3.7-4.4,8.5-7.5,15.2-9.9,2.7-1,5.6-1.9,8.7-2.6,2.1-.5,4.4-.7,6.6-.7s6.3.5,9.3,1.4h.4c.9.5,1.6.7,2.4.9h.4c3.1.9,6,2.4,8.8,4.8,4.2,3.6,7.9,8.1,10.8,13,.4.5.6,1,.9,1.5h0v.3c3.1,7.5,4.7,13.4,5.3,19.1.2,2,.2,4.1.2,6s-.7,3.4-1.6,4.1l-.4.7h-1.1c-.5,0-.9,0-1.1,0h-.6c-.3,0-.7,0-1.1,0-7.1.6-14.3.9-21.2,1.1-2.3,0-4.7.2-7,.3h-.2c-1.6,0-3.2,0-4.9.2-1.7,0-3.4.2-5.2.2-3.3.2-6.5.2-9.7.2v.7c.2,3.9,1.2,6.8,3.1,9.3,1.9,2.1,4.3,3.4,6.9,3.7h2.4c3.3,0,6.1-.6,8.4-2h.2c3.5-1.7,6-3.4,8.2-5.4l7.9-7.6,4.8,3.2c3.5,2.3,6.8,4.5,10.1,6.9l.2.2.2.2.2.2c4.5,3.7,2.5,7.4,1.5,9.2-2.9,5.1-7,11.6-13.5,16.9-2.9,2.5-6.3,4.5-10.4,6.2l-6,2.5h-.2c-3.4,1.1-6.2,1.6-8.7,1.6-2.1.1-4.3.2-6.3.2l.2.3ZM49.5,63.9c-1.8,1.6-3.2,3.3-4.4,5.4l8.6-.6c0-.8-.2-1.6-.4-2.5v-.8c-.3-.8-.4-1.3-.6-1.7v-.2c0,0-.2-.2-.2-.2-.2-.4-.3-.4-.5-.4s0,0,0,0h-.2l-.5.2c-.4,0-.9.4-1.6.9h0Z"/>
      <path class="cls-2" d="M51.5,44.5c2.7,0,5.5.4,8.2,1.2,1,.4,2,.8,3.2,1,2.8.8,5.2,2.2,7.4,4,4,3.4,7.4,7.6,10,12.2.2.2.4.6.6,1,2.4,5.8,4.4,11.8,5,18,.2,1.8.2,3.8.2,5.6s0,.9,0,.9c0,0,0-.2-.2-.2s0,0,0,0c-.4,0-1,.2-1.6.2-9.4.8-18.8,1-28.2,1.4-3.4,0-6.8.4-10.2.4-3.6.2-7.2.2-10.6.2h-1c-1,0-1.6.4-1.6,1.4-.2,1-.4,2.2-.4,3.4.2,4.2,1.2,8.2,4,11.8,2.6,3,6,4.8,9.8,5.2h2.6c3.7,0,7.2-.7,10.4-2.5,3.4-1.6,6.4-3.4,9.2-6l5.6-5.4c4.2,2.8,8.2,5.4,12,8.2.2.2.2.4.4.4,2,1.6,1.6,2.4.6,4.2-3.4,6-7.2,11.4-12.6,15.8-2.8,2.4-6,4.2-9.4,5.6l-5.8,2.4c-2.6.8-5.2,1.4-7.6,1.4-2.1.1-4.2.2-6.2.2s-3,0-4.6-.2c-5.8-.4-11.4-2-16.4-5l-2.4-2c-5.2-5-9-11.2-11-18.2-1.8-6.4-3-13-2.6-19.8.4-4.4,1.2-8.8,2.6-13,.8-3,2-6,3.4-9,1.8-4,4.2-7.6,7.2-10.6,1-.8,1.8-1.8,2.6-2.6,3.6-4.4,8.4-7,13.6-8.8,2.6-1,5.4-1.8,8.2-2.4,1.9-.4,3.9-.6,5.8-.6M39.5,73.6l18-1.2c.6-2.8,0-5.4-.4-7.8-.2-1-.4-2-1-3-.8-1.8-2.3-2.8-4.2-2.8s-.9,0-1.4.2c-1.4.2-2.6,1-3.6,1.8-3.6,3.2-6,7-7.6,11.6-.2.2-.4.6.2,1.2M51.5,36.5c-2.5,0-5.1.3-7.4.8-3.3.7-6.4,1.6-9.3,2.7-7.2,2.5-12.7,6.1-16.8,11-.2.2-.5.5-.7.8-.3.4-.7.8-.9,1l-.3.3-.3.3c-3.6,3.6-6.6,8-8.8,12.9-1.7,3.7-3,7-3.8,10-1.4,4.4-2.4,9.3-2.9,14.6H.3v.3c-.4,6.9.5,14,2.9,22.4,2.4,8.3,6.9,15.8,13.2,21.8l.2.2.2.2,2.4,2,.5.4.5.3c5.9,3.5,12.5,5.6,19.7,6.1,2,.2,3.3.2,5.4.2s4.3-.1,6.4-.2c2.8,0,5.9-.6,9.7-1.8h.4c0-.1.3-.3.3-.3l5.8-2.4c4.5-1.8,8.2-4.1,11.5-6.9,7-5.7,11.4-12.6,14.4-18h0c.7-1.3,1.9-3.5,1.8-6.4s-1.5-5.5-4-7.6h0c0,0-.4-.5-.4-.5l-.5-.4c-.3-.3-.7-.5-1-.7l-.5-.4h0c-1.3-.9-2.5-1.8-3.8-2.6h1c.4,0,.9,0,1.4,0h3.2l1.2-2.3c1.3-1.4,2.3-3.5,2.3-6.5s0-4.2-.2-6.4c-.6-6.1-2.3-12.4-5.6-20.2v-.3c0,0-.2-.3-.2-.3-.3-.5-.6-1.2-1.1-1.9-3.1-5.3-7-10-11.5-13.8h0c-3.2-2.7-6.6-4.5-10.3-5.5h-.4c0,0-.4-.2-.4-.2-.3,0-.9-.3-1.5-.5h-.3c0,0-.4-.2-.4-.2-3.4-1-6.9-1.5-10.5-1.5h0l-.5-.4ZM45.9,98.3c1.9,0,3.6,0,5.3-.2,1.6,0,3.2-.2,4.6-.2h.3c2.3,0,4.6-.2,6.8-.3l-.5.5c-1.9,1.8-4,3.1-7.1,4.6h-.3c0,0-.3.3-.3.3-1.8,1-3.9,1.5-6.5,1.5s-.5,0-.8,0h-1.2c-1.6-.2-3-1-4.2-2.3-.8-1-1.3-2.2-1.7-3.5,1.7,0,3.5,0,5.3-.2h0l.3-.2Z"/>
    </g>
    <g>
      <path class="cls-3" d="M35.4,38.6c-2.7-2.5-5.4-5.1-8-7.7-1.7-1.7-3.5-3.5-5.3-5.1l-4.1-3.9,5.1-2.5c.7-.4,1.5-.7,2.4-.9,1.4-.4,2.7-.6,4-.9,1-.2,2-.4,2.9-.6h.2l13.1-2.7c.8-.2,1.3-.5,2.4-1.3l5.3-4.4c1.2-1.2,2.4-2,3.7-2.9l1-.7h2.3c1.2.4,2.2,1.1,3,2.1l9.9,10.2c.6.6.9,1.3,1.1,1.7l2.2,3.3-3.7,2.1c-.2,0-.5.4-.8.6-.2.2-.4.3-.5.5h0c-.7.6-1.4,1.2-2,1.7-2.2,1.7-4.5,3.4-6.8,5-.9.8-1.7,1.2-2.2,1.4l-.6.3h-.4c-3.8,1.1-7.6,2.1-11.4,3.2-2.9.8-5.8,1.6-8.8,2.4l-2.1.6-1.6-1.5h-.2Z"/>
      <path class="cls-2" d="M59.4,8.9c.4.1.7.4.8.6l10.1,10.5c.3.3.3.6.5.9-.7.4-1.3,1-1.9,1.5-2.9,2.2-5.9,4.6-8.9,6.6-.6.6-1.1.8-1.7,1.1-6.7,1.7-13.4,3.7-20.2,5.5-4.4-4-8.7-8.5-13.2-12.8.6-.3,1.1-.5,1.4-.5,2.4-.7,4.8-1,7.1-1.6l13.2-2.7c1.6-.4,2.6-1.1,3.9-2l5.6-4.6c1-1,2-1.7,3.2-2.5h0M60.4.9h-3.5l-2,1.3c-1.3.9-2.7,1.8-4.1,3.2l-5.1,4.2c-.6.4-.8.6-1,.6l-12.9,2.6h-.4c-.8.2-1.7.4-2.7.6-1.2.2-2.6.5-4.1.9-1.3.2-2.4.7-3.3,1.2l-10.2,5.1,8.2,7.9c1.7,1.7,3.5,3.4,5.2,5.1,2.6,2.6,5.4,5.3,8.1,7.8l3.2,2.9,4.2-1.1c3-.8,6-1.6,8.9-2.4,3.9-1.1,7.5-2.1,11.3-3l.8-.2.8-.4h.2c.6-.4,1.7-.9,2.9-1.9,2.3-1.6,4.6-3.3,6.8-5,.7-.5,1.4-1,2-1.5h0c0-.1,0-.2,0-.2.2-.2.4-.3.6-.5,0,0,.2-.2.3-.3l7.3-4.1-4.4-6.6c-.3-.7-.9-1.6-1.8-2.5l-9.7-10.1c-1.3-1.6-3-2.7-5-3.2l-1-.2h0l.2-.2Z"/>
    </g>
  </g>
  <g id="Layer_2" data-name="Layer 2">
    <path class="cls-1" d="M44.7,54.8c-.4.4-.2,1.2.2,1.4.6.4,1,.4,1.4,0l2-2c.4.4.8.6,1,.8.4.4,1,.4,1.4.2.4-.4.6-1,.4-1.6-.4-1-1.2-1.8-2.2-2.4-.6-.2-1.4-.2-1.8.4-.8,1-1.6,2-2.4,3.2Z"/>
    <path class="cls-1" d="M60.1,59.8c-.2.6,0,1,.4,1.4s1.2.4,1.6-.2c.4-.4.8-.8,1.2-1.6.6.8,1.2,1.4,2,2,.6.4,1.2.4,1.6,0s.6-1.2.2-1.6c-1-1-1.8-2.2-2.8-3-.8-.8-2-.6-2.6.4-.6.8-1,1.8-1.6,2.6Z"/>
    <path class="cls-1" d="M30.7,61c0,.2.2.8.6,1,.2.2.6.2.8,0,.6-.2,1-.6,1.4-1,.6.4,1,1,1.6,1.4.2.2.8.4,1,.2.6-.2.8-.6.8-1.2,0,0,0-.2-.2-.2-.6-1.4-1.6-2.6-2.8-3.4-.2-.2-.8-.2-1,0-1.2.6-1.8,1.8-2.2,3.2Z"/>
    <path class="cls-1" d="M22.3,70.2c-.2.4-.2.8,0,1.2.2.6,1,.8,1.6.4.6-.6,1.2-1.2,2-1.8l.8,1.4c.4.6.6,1,1,1.6.2.2.6.4,1.2.2.6-.2,1-.8.8-1.4-.8-1.6-1.4-3.2-2.2-4.8-.6-1-1.6-1-2.4-.2,0,0-2.8,3.4-2.8,3.4Z"/>
    <path class="cls-1" d="M70.1,69.2c-.8-.8-1.6-.8-2.4,0s-1.4,1.6-2.2,2.6c-.2,0-.2.4-.4.6,0,.6.6,1.4,1.2,1.2.4-.2.8-.2,1-.6.6-.4,1.2-.8,1.6-1.4.8.6,1.4,1.4,2.2,1.8.4.4,1,.6,1.4.8.4,0,.8-.2,1-.4.2-.4.2-.8.2-1.2s-.2-.4-.4-.6c-1-1-2-2-3.2-2.8Z"/>
    <path class="cls-1" d="M75.1,82.6c.4-.4.6-1,.2-1.6-.6-1-1.4-2-2.2-2.8-.8-.8-1.8-.6-2.4.2-.8,1-1.6,2.4-2.2,3.6-.2.2,0,.8.2,1,.4.6.8.6,1.4.2l.6-.6c.4-.4.8-1,1.2-1.6.6.6,1.2,1,1.8,1.4.4.4,1,.4,1.4.2Z"/>
    <path class="cls-1" d="M18.9,82.4c-.4.4,0,.8.4,1.2.4.4.8.4,1.2,0,.4-.2.6-.4.8-.8.4-.2.8-.6,1.2-1.2.4.8.8,1.4,1.2,2,.4.4.8.6,1.4.4.4-.2.8-.8.8-1.4-.4-1.6-1.2-3-2.2-4-.4-.6-1.2-.8-1.6-.2-1.2,1.2-2.2,2.6-3.2,4Z"/>
    <path class="cls-1" d="M57.5,83.4c.6-.4.6-1,0-1.8s-1.2-1.6-2-2.2c-.8-.8-1.8-.8-2.6.2l-2.4,3c0,.2-.2.2-.2.4,0,.6,0,1,.4,1.4h1.2c.4-.2.6-.6.8-.8.6-.6,1-1,1.6-1.8l1.4,1.4c.6.6,1.2.6,1.8.2Z"/>
    <path class="cls-1" d="M39.1,80.2c-1,1.2-2,2.6-2.8,3.8-.2.2,0,.6,0,.8.2.8,1.2,1,1.8.4l2.2-2.4,1,1c.4.2.8.4,1,.6.6,0,1,0,1.4-.6.2-.2.2-.8,0-1-.8-1-1.8-2-2.6-2.8-.6-.4-1.6-.4-2,.2Z"/>
    <path class="cls-1" d="M13.9,92.8c.4.4,1,.2,1.4-.2l1.6-2.4c.4.4.8.8,1.2,1.2.2.4.4,1,.8,1.4.2.4.6.6,1.2.4.6,0,.8-.4.8-1v-1c-.6-1.4-1.6-2.8-3-3.8-.8-.6-1.8-.4-2.4.4-.8,1.2-1.4,2.4-2,3.6-.4.6-.2,1.2.4,1.4Z"/>
    <path class="cls-1" d="M25.1,102.4l.2-.8c-.4-1.4-1-2.6-2.4-3.4-.6-.4-1.2-.4-1.8,0-1.4,1-2.6,2.4-3.4,4s0,.8.4,1.2c.4.4,1,.2,1.4,0,.2-.4.4-.6.8-1s1-1,1.6-1.8c.4.6.6.8.8,1,.2.4.2.8.6,1.2.4.6,1.4.4,1.8-.4h0Z"/>
    <path class="cls-1" d="M74.5,109c.6,0,1-.6,1-1.2s-.4-1-.8-1c-1-.2-2-.4-3-.4s-1.4.4-1.6,1.2c-.6,1.2-1,2.4-1.4,3.6-.2.4,0,1,.6,1.2.4.2,1,0,1.4-.4.4-1,.8-1.8,1.4-3,0,0,2.4,0,2.4,0Z"/>
    <path class="cls-1" d="M29.9,111.2c.2.2.4.4.8.6.8.4,1.2.2,1.6-.2.4-.6.4-1.4-.2-1.8-.8-.8-1.8-1.4-2.8-1.8-.8-.4-1.6-.2-2,.4-.8.8-1.4,2-2,3-.2.4,0,1.2.4,1.4.4.4,1,.2,1.6-.2l1.6-2.2c.4.4.8.6,1,.8Z"/>
    <path class="cls-1" d="M18.1,112.8l1.6,1c.6.4,1.2.2,1.6-.2.2-.4.2-1,0-1.4-.8-1-1.8-1.8-3.2-2.2-.6-.2-1.2,0-1.6.4l-1.8,3c-.2.6,0,1,.4,1.4s1.2.2,1.6-.2c.4-.6.8-1.2,1.4-1.8Z"/>
    <path class="cls-1" d="M82.1,112.8c.4-.2.6-.6.4-1.2,0-.4-.4-.8-.8-.8-.4-.2-.6-.2-.8-.2l-3.8,1.2c-.2.2-.6.4-.6.6-.8,1.2-1,2.6-.6,4,0,.4.4.8,1,.8s1-.2,1-.8c.2-.8.4-1.4.4-2.4l2.4-.6c.4-.2.8-.2,1.4-.6Z"/>
    <path class="cls-1" d="M67.3,114.8c.2-.4.2-1-.2-1.2-1-.8-1.8-1.4-2.8-2-.8-.4-1.6,0-2,.6-.6,1-1.2,2-1.6,3.2-.2.4,0,1,.4,1.2.6.4,1,.2,1.4-.2.4-.4.8-1,1.4-1.8.8.4,1.4.6,2.2.8.4.2,1,0,1.2-.6Z"/>
    <path class="cls-1" d="M57.5,119.6c.4-.4.2-1,0-1.4,0-.2-.2-.2-.4-.4l-3-1.8c-.6-.2-1.2-.2-1.6.4-.6.8-1,1.8-1.4,2.6-.2.4,0,.8.4,1,.2.2.8.4,1,.2.6-.4,1-.8,1.4-1.2,1,.4,1.8.6,2.4,1,.4,0,.8-.2,1.2-.4Z"/>
    <path class="cls-1" d="M31.5,122c.6.4,1,.2,1.4-.2.4-.4.6-1,1-1.6.6.2,1,.6,1.4.6.8.4,1.2.2,1.6-.2.2-.6.2-1.2-.2-1.6-.8-.8-1.6-1.4-2.6-2-.4-.2-1.2,0-1.6.6-.6,1-1,2-1.6,3.2-.2.4.2,1,.6,1.2Z"/>
    <path class="cls-1" d="M73.5,119.6c.4-.4.2-1.2-.4-1.4-.8-.4-1.8-.6-2.8-.8-.8-.2-1.4.4-1.6,1-.4,1.2-.6,2.2-.8,3.4-.2.6.4,1.2.8,1.2.6,0,1-.2,1.2-.6.4-.6.6-1.4,1-2.2.6,0,1,.2,1.6.2s.8-.2,1-.8Z"/>
    <path class="cls-1" d="M26.7,123c.2-.4.4-1.2,0-1.6-.8-.8-1.6-1.6-2.6-2.4-.6-.4-1.6-.2-2,.4-.8,1.2-1.6,2.6-2.4,4,0,.2.2.8.4,1,.2.4.8.6,1.2.2.4-.2.6-.4.8-.8.6-.6,1-1.2,1.4-2,.6.6,1,1,1.6,1.2.4.4,1.2.4,1.6,0Z"/>
    <path class="cls-1" d="M45.9,124.8c.6.4,1.2.2,1.6-.2.4-.6.4-1,0-1.4-1-1-2.2-2-3.4-2.8-.6-.4-1.4-.4-2,.2-.8,1.2-1.4,2.4-1.6,3.8,0,.4.2,1,.6,1.2.6.2,1.2,0,1.4-.6.4-.6.8-1.2,1-1.8,0,0,2.4,1.6,2.4,1.6Z"/>
    <path class="cls-1" d="M64.5,125.4c.4-.4.2-.8-.2-1.2-1-1-2.2-1.8-3.8-1.8-.8-.2-1.4.4-1.6,1-.4,1.2-.4,2.2-.6,3.4-.2.2,0,.4,0,.6.2.6.6.8,1.2.8.4-.2.8-.4.8-.8.4-.6.6-1.4.8-2.2.8.2,1.4.6,2,.8.6.4,1.2,0,1.4-.6Z"/>
    <path class="cls-1" d="M41.5,131.6c.2-.2.2-.8.2-1,0-.4-.2-.6-.4-.8-1.2-1-2.4-2-3.8-3-.8-.6-2-.4-2.6.4-.6,1-1.2,2.2-1.8,3.4-.2.4,0,1.2.6,1.4.4.2,1,0,1.4-.6s.8-1.4,1.4-2.2c1,.8,1.8,1.4,2.4,2l1.2.8c.6.2,1,.2,1.4-.4Z"/>
    <path class="cls-1" d="M54.1,130.4c.2-.6,0-1.2-.4-1.6l-2.8-1.2c-.6-.2-1.2,0-1.8.4-1,1-1.6,2-2.2,3.4-.2.6,0,1.2.6,1.4.4.2,1,.2,1.4-.4l1.6-2.2c.8.2,1.4.6,2.2.8.4.2,1-.2,1.4-.6Z"/>
    <path class="cls-1" d="M56.4,24.3c2-1.4,3.7-2.8,5.9-4.3,0,0,.3-.3.4-.7.3-.3.2-1,0-1.6-.4-.4-1-.7-1.5-.5-.4.1-.7.4-1,.7-1.4.8-2.7,1.8-4,2.8-1.1.8-2.4,1.2-3.8,1.5-3,.6-6.1,1.2-9.2,1.7h-1c-.9.4-1.3,1.1-1.3,1.7s.7,1.3,1.2,1.3c1,.2,1.8.2,2.7.2,3.1-.5,6.1-1.2,9.4-1.8.7-.1,1.7-.5,2.4-.9h-.2Z"/>
    <path class="cls-1" d="M38.3,28.2c.4-.4.6-1.4,0-2s-1.3-.7-1.8-.2c-.7.4-.7,1.3-.2,1.8s1.3.7,2,.3h0Z"/>
  </g>
</svg>