<?xml version="1.0" encoding="UTF-8"?>
<svg xmlns="http://www.w3.org/2000/svg" version="1.1" viewBox="0 0 72.2 131.2">
  <defs>
    <style>
      .cls-1 {
        fill: #22beb9;
      }

      .cls-1, .cls-2, .cls-3 {
        stroke-width: 0px;
      }

      .cls-2 {
        fill: #003735;
      }

      .cls-3 {
        fill: #fff;
      }
    </style>
  </defs>
  <g id="Layer_1" data-name="Layer 1">
    <g>
      <path class="cls-1" d="M47.2,127.2c-2.8,0-5.6,0-8.3-.1-5.5,0-11.3,0-16.9-.5l-2.1-.2-1.1-1.8c-1.2-2-1.2-3.6-1.2-4.7s0-1.7,0-2.5c0-1.4,0-2.8,0-4.2-.6-7.6-.6-15.3-.6-22.7s0-12.1.1-17.9c0-5.8,0-11.9,0-17.9s0-.2,0-.3c0-.9-.1-2.7,1.2-4.5l.7-.9,1-.4c1.7-.7,3.3-.7,4.5-.7,4.8,0,9.3,0,13.8-.2h.2c2,0,4.4-.2,6.4-.4h.2s3.8,0,3.8,0l1.2,1.2c1.9,1.9,1.8,4.1,1.8,4.9h0v22.1c0,3.3,0,6.6,0,9.8,0,6.4,0,13,0,19.5,0,2.9.2,5.7.3,8.6,0,1.5.2,3,.2,4.5v.2c0,.6,0,1.2,0,1.8,0,.9.1,1.9.1,3v4h-4s0,0-.3,0c-.3,0-.8.2-1.3.2h0Z"/>
      <path class="cls-3" d="M47.5,51.4c.8.8.6,1.6.6,2.2v22c0,9.8-.2,19.6,0,29.4,0,4.4.4,8.8.6,13.2,0,1.4.2,3,.2,4.8-.8,0-1.2.2-1.6.2-8.4-.2-16.8,0-25-.6-.6-1-.6-1.8-.6-2.6,0-2.4.2-4.6,0-7-.6-7.4-.6-15-.6-22.4,0-12,.2-23.8.2-35.8s-.2-1.6.4-2.4c1-.4,2-.4,3-.4,4.8,0,9.4,0,14-.2,2.2,0,4.6-.2,6.8-.4h2M50.8,43.4h-6c-2,.2-4.2.4-6.1.4h-.3c-4.4.2-8.9.2-13.7.2s-3.5,0-6,1l-2.1.8-1.3,1.8c-2.2,3-2.1,6-2,7.1h0c0,6.1,0,12.1,0,17.9,0,5.9-.1,11.9-.1,18s0,15.3.6,23c0,1.2,0,2.4,0,3.8,0,.8,0,1.7,0,2.6s0,3.8,1.7,6.7l2.1,3.6,4.1.3c5.7.4,11.5.5,17.1.5,2.7,0,5.5,0,8.3.1h0s0,0,0,0c.8,0,1.5-.1,1.9-.2h7.7v-8c0-1.2,0-2.3-.1-3.2,0-.6,0-1.2,0-1.6v-.4c0-1.5-.2-3-.3-4.5-.2-2.9-.3-5.6-.3-8.3h0c0,0,0-.2,0-.2-.1-6.4,0-13,0-19.4,0-3.2,0-6.6,0-9.9v-21.9h0c.2-3.2-.8-5.8-2.9-8l-2.3-2.3h0Z"/>
    </g>
    <g>
      <path class="cls-1" d="M26.5,41.3c-3.4-2.3-6.8-4.9-10-7.4-1.6-1.2-3.2-2.5-4.9-3.7l-4.6-3.4,4.8-3.1c.7-.5,1.4-.9,2.3-1.2,1.5-.6,2.9-1.1,4.3-1.6.8-.3,1.6-.6,2.4-.9l12.7-4.5c.7-.3,1.1-.7,2.1-1.6l4.8-5.1c.9-1.1,1.8-2,2.7-2.9l1.9-1.8,2.1.4c1.4.3,2.3,1,2.6,1.2l11.4,9.1c.5.4.8.8,1,1l3.7,2.9-4.1,3.1c-.3.2-.6.6-.9,1.1v.2c-.1,0-1,.9-1,.9-2.3,2.3-4.7,4.8-7.2,7-.8,1-1.7,1.5-2.3,1.9l-.3.2h-.4c-3.8,1.7-7.8,3.4-11.5,5-2.5,1.1-5.1,2.2-7.7,3.3l-2,.9-1.8-1.2Z"/>
      <path class="cls-3" d="M46.2,8.7c.4,0,.8.3.9.5l11.4,9.1c.3.2.3.5.7.8-.7.5-1.2,1.1-1.6,1.8-2.5,2.6-5.2,5.3-7.9,7.8-.5.6-1,1-1.6,1.3-6.4,2.6-12.8,5.5-19.3,8.2-5-3.4-9.8-7.3-14.8-11,.5-.3,1.1-.7,1.3-.7,2.3-1,4.6-1.7,6.8-2.5l12.7-4.5c1.5-.6,2.4-1.4,3.5-2.5l4.9-5.3c.9-1.1,1.8-1.9,2.8-2.9M43.7,0l-3,2.9-.3.3c-.9.9-2,1.8-3,3.1l-4.6,4.9c-.4.4-.6.6-.8.7l-12.4,4.4h0s0,0,0,0c-.7.3-1.5.5-2.3.8-1.3.5-2.8,1-4.3,1.6-1.3.4-2.3,1.1-3.1,1.6L0,26.7l9.2,6.8c1.6,1.2,3.2,2.4,4.8,3.6,3.3,2.5,6.7,5.1,10.2,7.5l3.6,2.5,4-1.7c2.6-1.1,5.2-2.2,7.7-3.3,3.9-1.7,7.7-3.3,11.4-4.9l.7-.3.7-.4c.6-.4,1.8-1.2,2.9-2.4,2.5-2.3,4.9-4.7,7.2-7l.7-.7.3-.3.3-.3c.1-.2.3-.4.4-.5l8-6.1-7.3-5.8c-.3-.4-.8-.9-1.4-1.3l-11.4-9.1c-.5-.4-1.9-1.5-4.2-2l-4.1-.9h0Z"/>
    </g>
  </g>
  <g id="Layer_2" data-name="Layer 2">
    <path class="cls-2" d="M45.9,56.4c.2-.2.2-.4.2-.4,0-.6-.6-1.4-1-1.4h-1.8c-5.8.2-11.6.4-17.4.4-.4.2-.8.2-1.2.2-1.2.2-1.6,1.2-1,2.2.2.4.6,1,1,1.4,2.6,3.4,5.4,6.8,8,10.4,1.6,2,2.2,2,3.8,0,2.8-3.8,5.6-7.6,8.6-11.2.2-.6.6-1,.8-1.6Z"/>
    <path class="cls-2" d="M34.7,81.8c2.2,0,4-2,4-4.2s-1.8-4-3.8-4-4.2,1.8-4.2,4.2,1.8,4,4,4Z"/>
    <path class="cls-2" d="M35.3,92c2.2,0,4-2,4-4s-1.8-4.2-4-4.2-4,2-4,4,2,4.2,4,4.2Z"/>
    <path class="cls-2" d="M39.9,99.6c0-2.4-2.2-4.2-4.6-4.2s-4,1.8-4,4.2,1.8,4.4,4.4,4.2c2.4,0,4.2-2,4.2-4.2Z"/>
    <path class="cls-2" d="M45.5,120.2c.6-1,0-1.6-.6-2.2-2.2-3.4-4.6-6.8-7-10.2l-.4-.6c-.8-.8-1.6-1-2.4-.2-.2.2-.6.4-.8.8l-8.4,8.4c-.4.4-.8.8-1,1.2-.4.4-.6,1-.2,1.8.4,1,1.2,1.4,2.2,1.4h8.6v.2h8c.8,0,1.4,0,2-.6Z"/>
    <path class="cls-2" d="M45.3,24.3c1.8-1.6,3.3-3.2,5.3-5,0,0,.2-.3.3-.8.2-.3,0-1-.3-1.5-.5-.4-1.1-.6-1.6-.2-.4.2-.7.5-.9.8-1.3,1-2.5,2.1-3.6,3.3-1,1-2.2,1.5-3.6,2-2.9,1-5.9,2-8.9,2.9l-1,.3c-.8.4-1.2,1.1-1.1,1.7.2.7.8,1.2,1.4,1.1,1,0,1.8,0,2.7-.2,3-.9,5.9-2,9-3,.7-.2,1.6-.8,2.3-1.3Z"/>
    <path class="cls-2" d="M27.8,30.6c.4-.5.4-1.5-.2-2s-1.3-.6-1.8,0c-.7.5-.6,1.3,0,1.8s1.3.6,2,0Z"/>
  </g>
</svg>