<?xml version="1.0" encoding="UTF-8"?>
<svg id="Layer_1" data-name="Layer 1" xmlns="http://www.w3.org/2000/svg" version="1.1" viewBox="0 0 96.8 141.9">
  <defs>
    <style>
      .cls-1 {
        fill: #630f00;
      }

      .cls-1, .cls-2, .cls-3 {
        stroke-width: 0px;
      }

      .cls-2 {
        fill: #fff;
      }

      .cls-3 {
        fill: #ff5708;
      }
    </style>
  </defs>
  <g id="Layer_1-2" data-name="Layer 1">
    <g>
      <path class="cls-3" d="M21.8,42.2c-.5,0-.9-.4-1.3-.7-.8-.6-1.7-1.1-2.6-1.7-2.3-1.5-4.7-3-7-4.8l-2.2-1.6.9-3.4v-.2c1.3-3.3,2.6-6.1,4-8.5l.6-1c1.4-2.6,2.8-5.2,4.6-7.7,1.3-1.8,2.9-3.8,5-5.4h0c2.3-1.7,4.6-2.7,7.2-3,.8,0,1.7-.2,2.6-.2,3.2,0,6.2.9,8.9,2.8,2.5,1.6,4.6,3.4,6.3,5.5.8.9,1.6,1.9,2.4,2.8l3.1,3.8c.3.2.4.4.5.4,0-.1.3-.3.4-.4.6-.6,1-1.3,1.4-2.1h0c.9-2,1.4-4.1,1.7-6.6,0-.4,0-1.1.3-1.8l.9-2.9h3c1.9,0,3.7,0,5.6.2h8.6l.8,2.9v.2c.2.4.4,1,.5,1.7.2,1.3.3,2.7.2,4.4,0,2.7-.6,5.1-1.1,7.4h0c-.9,3.6-2.4,6.9-4.2,9.8-2.6,4.3-6.2,7.4-10.6,9.3-1.7.8-3.5,1.2-5.3,1.2s-3.2-.3-4.8-.9c-1.8-.7-3.6-1.8-5-3.2-1.2-1.1-2.2-2.3-3.3-3.4-.7-.7-1.4-1.6-2.1-2.4-.5-.6-1-1.2-1.6-1.8h0v-.2c-.8-1-1.7-1.9-2.6-2.5-.5-.4-1-.7-1.7-1-.3-.1-.6-.2-.9-.2s-.6,0-1.2.4c-.5.3-1,.8-1.5,1.6h0c-1.3,1.9-2.4,3.7-3.3,5.6-.7,1.4-1.2,2.7-1.5,3.9v.2l-1.8,5.6-3.8-2.1h-.1Z"/>
      <path class="cls-2" d="M33.9,8c2.4,0,4.7.7,6.8,2.1,2,1.3,3.9,2.8,5.4,4.7,1.2,1.3,2.3,2.7,3.3,4l2.3,2.8c.5.5,1.2,1.1,1.9,1.4.6.3,1.1.5,1.7.5s1.4-.3,2-.8c.4-.3.8-.7,1.1-1.1.9-1,1.6-2,2.1-3.3,1.1-2.5,1.8-5.1,2-7.9,0-.3,0-.6,0-.9,3.8,0,7.5,0,11.3.2,0,.5.3.8.3,1.2.2,1.2.3,2.5.2,3.8,0,2.3-.5,4.5-1,6.7-.8,3-2,5.9-3.7,8.6-2.1,3.5-5,6.2-8.8,7.8-1.2.6-2.4.8-3.7.8s-2.2-.2-3.4-.7c-1.3-.5-2.6-1.3-3.7-2.4s-2.1-2.1-3.1-3.2c-1.3-1.3-2.4-2.8-3.7-4.1-.9-1.1-2-2.3-3.3-3.2-.8-.6-1.6-1-2.5-1.4-.8-.3-1.6-.5-2.4-.5s-2.2.3-3.3,1c-1.2.7-2,1.7-2.7,2.8-1.4,1.9-2.7,3.9-3.7,6.1-.7,1.5-1.4,3.1-1.8,4.7l-.3,1c-.1,0-.3,0-.3,0-3.2-2.1-6.4-4.1-9.6-6.5v-.5c1.2-2.8,2.4-5.5,3.8-8,1.5-2.8,3.1-5.7,5-8.3,1.2-1.6,2.5-3.3,4.2-4.6,1.6-1.2,3.4-2,5.4-2.3.7-.1,1.4-.2,2-.2M33.9,0c-1.1,0-2.2,0-3.3.3-3.2.5-6.1,1.7-8.8,3.7h0c-2.6,2-4.3,4.3-5.8,6.3h0c-2,2.7-3.5,5.5-4.9,8.1l-.6,1c-1.4,2.6-2.8,5.6-4.1,9l-.2.4v.4c0,0-.3.5-.3.5l-1.4,5.2,4.3,3.2c2.4,1.8,4.8,3.4,7.2,4.9.8.5,1.6,1,2.3,1.5.6.5,1.3.8,2,1.1l7.8,4.3,2.9-9.3.3-1v-.4c.4-1,.8-2,1.3-3.1h0c.8-1.7,1.7-3.3,2.9-4.9h0c.5.4,1.1,1,1.7,1.6v.2c0,0,.3.2.3.2.5.5.9,1.1,1.4,1.7.7.8,1.4,1.7,2.3,2.6,1,1.1,2.1,2.3,3.4,3.5,1.8,1.8,4,3.2,6.4,4.1,2,.8,4.1,1.2,6.2,1.2s4.7-.5,6.9-1.5c5.1-2.2,9.3-5.8,12.4-10.9,2-3.2,3.6-6.8,4.7-10.7h0v-.2c.6-2.5,1.2-5.2,1.2-8.2,0-1.9,0-3.6-.2-5,0-1.3-.5-2.2-.7-2.7h0l-1.6-5.5h-5.9c-1.9-.2-3.9-.2-5.7-.2h-11.5c0-.1-1.8,5.6-1.8,5.6-.4,1.1-.4,2.1-.5,2.7,0,.8-.2,1.6-.4,2.3-.6-.8-1.3-1.6-2-2.4-2-2.4-4.4-4.5-7.2-6.3C41.5,1,37.7,0,33.8,0h0Z"/>
    </g>
    <g>
      <path class="cls-3" d="M4,132.4v-.3c0-8.4.3-17,.4-25.3,0-8.5.3-17.2.4-25.9v-10.3c0-3.5,0-7.2,0-10.8s0-2.3-.2-3.5c0-1.2-.2-2.4-.2-3.7-.2-1,0-1.8,0-2.4v-3.6l3.2-.6c3.5-.7,13.4-1.1,19-1.1s5.3.2,6,.3l1.9.4.9,1.7c.9,1.9.9,3.6.8,4.8v1c.7-.7,1.4-1.4,2.2-2,1.6-1.4,3.3-2.7,5.3-4.1,4.7-3.3,9.8-3.9,13.3-4.1h1.5c5.1,0,10.2,1.8,15.5,5.6h0c4.6,3.6,7.9,8.1,10.3,14,1.7,4.4,3.7,9.5,5,14.7,1.4,5.7,2.5,11.6,3.1,17.5h0c.4,5.2.6,10.3.6,15.2,0,7.1-.4,14.3-1.2,21.5v.7l-.3.4c0,.4-.2,1-.5,1.7-1.2,2.5-3.2,3-4.6,3h-1.3c-7,.2-14,.2-20.7.2s-1.5,0-2.8-.6l-2.2-1.1v-2.2c0-.3-.2-.9-.2-1.5v-3.8c0-1.4,0-2.9,0-4.4,0-8-.4-15.3-1.4-22.3,0-.6-.2-1.2-.2-1.8-.3-2.2-.5-4.3-1.2-6.2l-1.2-3.6c-.4-.9-1.8-1.8-3.4-1.8s-1.4.2-2,.7-1.4,1.1-1.6,1.5l-.2.3-.2.3c-3.6,4.3-5.8,8.2-6.7,12.5l-.6,2.5c-.8,3.1-1.5,6.1-2.2,9-.9,4.9-1.5,10-1.7,14.9v.8c0,.2,0,.5-.2.8,0,.5,0,1-.2,1.6l-.6,3.1-3.1.2c-4,.2-7.9.5-11.7.7-3.8.2-7.8.5-11.9.7l-3.6.2-.8-5.3-.3-.2Z"/>
      <path class="cls-2" d="M58.3,46.9c4.9,0,9.3,2.1,13.1,4.8,4.2,3.2,7,7.2,9,12.2,1.8,4.6,3.6,9.4,4.8,14.2,1.4,5.6,2.4,11.4,3,17,.4,5,.6,10,.6,14.8,0,7-.4,14-1.2,21-.2.4-.2,1-.4,1.4-.2.4-.4.8-1,.8h-1.4c-7,.2-13.8.2-20.6.2s-.6,0-1-.2c0-.4-.2-.8-.2-1.2,0-2.6-.2-5.4-.2-8.2,0-7.6-.4-15.2-1.4-22.8-.4-3-.6-6-1.6-8.8l-1.2-3.6c-.9-2.6-4-4.5-7.1-4.5s-3.1.4-4.5,1.5c-1,.8-2,1.6-2.6,2.6-3.6,4.2-6.4,8.8-7.6,14.2-1,4-2,7.8-2.8,11.6-1,5.2-1.6,10.4-1.8,15.6-.2.8-.2,1.6-.4,2.6-8,.4-15.6,1-23.6,1.4l-.2-1.4c.2-17,.6-34,.8-51.2,0-7-.2-14-.2-21.2s-.4-5-.4-7.6c-.2-.8,0-1.6,0-2.2,2.9-.6,12.1-1,18.2-1s4.3,0,5.2.2c.6,1.2.4,2.4.4,3.6v7c0,1.2,0,2.2.2,3.8.6-.8,1-1.2,1.2-1.6,2.2-2.8,4.6-5.4,7.4-7.8,1.6-1.4,3.2-2.6,5-3.8,3.4-2.4,7.2-3.2,11.2-3.4h1.3M58.3,38.9h-1.8c-3.9.2-9.7.9-15.2,4.8-.9.6-1.7,1.2-2.5,1.8l-1.7-3.5-3.8-.8c-1-.2-2.6-.4-6.8-.4s-15.9.4-19.8,1.2l-6.4,1.3v6.4H.3c0,.7-.2,1.8,0,3.1,0,1.3,0,2.6.2,3.7,0,1.1.2,2.2.2,3.2,0,3.7,0,7.3.1,10.9v10.3c-.1,8.6-.3,17.4-.4,25.8C.3,115,.1,123.6,0,132v1.2l.2,1.4,1,7.2,7.3-.4c4.1-.2,8-.5,11.9-.7,3.8-.2,7.7-.5,11.7-.7l6.2-.3,1.2-6.1c.2-.8.2-1.4.3-1.9v-.4l.2-.7v-.8c.2-4.8.8-9.6,1.7-14.3.6-2.9,1.3-5.8,2.1-8.8.2-.8.4-1.6.6-2.4h0v-.2c.8-3.6,2.7-7,5.9-10.7l.4-.5.2-.3s.2-.2.3-.3l.8,2.4h0v.2c.5,1.4.7,3.2,1,5.3,0,.6,0,1.2.2,1.9.9,6.8,1.3,13.9,1.3,21.7s0,3.1,0,4.5v3.7c0,1.2,0,1.5.2,1.9v4.2l4.4,2.2c2.1,1,4,1,4.6,1,6.7,0,13.6,0,20.7-.2h1.3c1.7,0,5.8-.5,8.2-5.2.4-.8.6-1.6.8-2.1l.3-.5.2-1.4c.8-7.3,1.3-14.6,1.3-21.9s-.2-10.2-.6-15.4h0v-.2c-.7-6.2-1.7-12.3-3.2-18.1-1.3-5.4-3.3-10.7-5.1-15.2h0c-2.6-6.6-6.4-11.7-11.6-15.6h0c-6-4.4-11.8-6.4-17.8-6.4h0v-.2Z"/>
    </g>
  </g>
  <g id="Layer_2" data-name="Layer 2">
    <path class="cls-1" d="M27,54.6c.4-.8.2-1.4-.2-1.8-.4-.6-1.4-.6-2,0-.4.2-.6.6-.8.8-1.8,2-3.6,4-5.6,5.8l-4.8,4.6c-1,1-1.2,2.4-.2,3.8,2.6,4.2,5.2,8.6,8,12.8,0,.2,0,.4.2.6l-4.6,8.8c-1.2,2.6-2.4,5.4-3.6,8-.8,1.4-.8,2.6.4,3.6,1.8,1.6,3.2,3.2,4.8,5l3,3c-.4,1.6-1.2,2.6-2,3.6-2,3.2-4,6.6-5.8,9.8-.6.8-.4,1.6.4,2,.8.4,1.4.6,2.2-.2.6-.6,1-1.2,1.6-2,1.8-3,3.6-6,5.4-9.2.6-1,1.2-2,1.6-3s.2-2-.6-3c-1.2-1.2-2.6-2.6-3.8-4-1.4-1.4-2.8-2.6-4-4.4.2-.6.6-1.4,1-2.2,2-4.6,4.2-9.2,6.4-13.8,1.2-2.6,1.6-2.4-.4-5.4-2.4-3.8-4.8-7.6-7.4-11.4l1.4-1.4c2.8-2.8,5.8-5.6,8.2-8.6,0,0,1.2-1.8,1.2-1.8Z"/>
    <path class="cls-1" d="M84.6,102c.8-1.6.2-2.8-1.2-3.4l-2.2-.4c-3-.4-6.2-.4-9.2-1.4-.2,0-.6-.2-1-.4l.6-2c1-2.2,2-4.6,2.8-6.8,2-4.6,3.6-9.2,4.8-14,.2-.6.4-1.2.4-1.8,0-1.2-1-2-2.2-1.8l-1.6.6c-3,2-6.2,4-9.2,5.8-.4.2-.8.6-1.4.4,0-.2-.2-.6,0-.8,0-4.6.2-9.2.4-13.8v-5.2c0-.6-.4-1.4-.6-2-.4-.8-1.4-1-2.2-.6-.4.2-.6.6-.8.8-.8.8-1.4,1.6-2,2.6-3,4.6-6,9.2-9.2,13.8-.4.6-.8,1.2-1.4,1.8-.4-.2-.6-.4-.6-.6-2.2-2.4-4.2-4.8-6.2-7.2-.2-.4-.6-.8-1-1.2-1-1-2.4-.6-3.2.8l-1.2,3.4c-1.4,5-2.8,10.2-4.2,15.4-.2.6-.4,1.2-.4,2s.4,1,1,1.2c.8.2,1.4,0,1.8-.6.2-.6.2-1,.4-1.4l4.2-14.2c.2-.6.4-1.2.8-2l.8.8c1.2,1.4,2.6,3,3.8,4.4.8,1,1.6,1.8,2.4,2.6,1.6,1.4,2.6,1.2,3.8-.2l1.2-1.8c2.8-4.2,5.6-8.4,8.2-12.4.4-.4.8-.8,1.4-1.6v2.2c-.4,5-.6,10.2-.8,15.2,0,.6,0,1.4.2,2,.4,1.4,1.6,1.8,2.8,1.4.6-.2,1-.6,1.6-1l7.6-4.8c.4-.2.8-.4,1.2-.6.2,1-.2,1.8-.6,2.6-1.6,5-3.6,9.8-5.6,14.6l-1.2,3c-.6,2,0,3.2,1.8,4.2l1.8.6c2,.4,3.8.6,5.6,1,.6,0,1,.2,1.6.2.6.2,1.2,0,1.6.6-.6.8-1.2,1.4-1.8,2-2,1.8-4.2,3.8-6.4,5.6-.6.6-1.4,1.2-2,2-.8.8-.8,2,0,3,.4.4.8.8,1.4,1.2l7,5.2c.4.2.8.6,1.2,1-1.4.6-2.6,1.2-3.8,1.6l-5.6,1.8c-.6.2-1,1.2-.8,1.8.2.8.8,1.4,1.6,1.2.6,0,1.2,0,1.8-.2,1.8-.6,3.6-1.4,5.2-2,1.8-.8,3.4-1.6,5-2.6,1.4-.8,1.6-2.4.2-3.6-.2,0-.4-.2-.6-.4-3-2-6-4.2-9-6.4.4-1,1.4-1.6,2-2.2,2.8-2.2,5.6-4.6,7.8-7.4.6-.4,1-1,1.4-1.6h0Z"/>
    <path class="cls-1" d="M69.9,17.8c-.2-.3-.4-.7-.7-1l.6-.8.2-.4c0-.2,0-.5-.2-.6h-.6c-.2,0-.3,0-.4.2-.2.2-.4.4-.7.7l-.5-.6c0,0-.3-.2-.3-.3-.4-.3-.8-.3-1,0s-.3.7,0,1.1c0,.2.2.2.3.4l.4.5-.4.7c0,.2-.2.4-.2.6s0,.5.2.5c.2.1.4.2.7,0,.2-.3.5-.5.8-.8l.8.6c.2.1.5,0,.8-.1.2-.1.2-.4,0-.6h0Z"/>
    <path class="cls-1" d="M61.5,29.6c.3-.4.6-.7,1-1.1l.7.4c.3.1.5,0,.7-.2,0-.2.2-.4,0-.7l-.5-.6c.2-.3.3-.5.5-.7,0-.2.2-.4,0-.5,0-.5-.6-.7-.9-.4-.3.2-.5.5-.8.8-.2-.1-.5-.3-.8-.3-.2-.1-.5,0-.7.2,0,.2,0,.5,0,.8,0,0,.2.2.3.4-.2.3-.3.5-.5.7,0,.2-.2.4-.2.6s0,.4.2.5.5.1.7,0h.1Z"/>
    <path class="cls-1" d="M50.6,29.5l-.4.7c-.2.6-.2.9,0,1.1s.6.2,1-.3c.2-.1.3-.4.6-.8l.9.7c.4.2.6.2.9,0,.2-.3.2-.6,0-.9,0-.2-.3-.3-.4-.5l-.4-.4c.2-.4.4-.6.5-.9,0-.2,0-.4,0-.5,0-.3-.2-.4-.5-.6-.2,0-.5,0-.6.2-.3.3-.5.6-.8,1-.4-.2-.6-.4-.9-.5h-.5c-.4,0-.7.6-.4,1,.3.2.5.4.9.7h0Z"/>
    <path class="cls-1" d="M41.6,21.9c.3.2.4.2.7,0,.2-.2.6-.5.9-.7l.4.5c.4.4.7.4,1,.2.2-.2.3-.6,0-1-.2-.2-.5-.6-.4-1,.2-.3.5-.5.8-.9s0-.8-.4-1c-.2,0-.4,0-.5.2-.3,0-.5.3-.7.5l-.8-.5c-.2-.1-.4,0-.6.2-.2.1-.3.4,0,.5,0,.4.3.6.5.9,0,.2-.3.5-.5.7l-.4.7c0,.3,0,.5.2.6h-.1Z"/>
    <path class="cls-1" d="M32.8,13.7l-.4.6h-1c-.3,0-.5.2-.7.4s0,.5.1.8c.2,0,.4.2.5.3l-.5.7c-.1.3-.1.5-.3.8,0,.3.1.5.4.6s.4.2.7,0c.2-.2.4-.4.6-.7l.6-.9c.4.2.9.3,1.2.5.3.1.5,0,.7-.2,0-.2.2-.6,0-.9-.4-.2-.7-.5-1-.7,0-.3.2-.6.4-.8s0-.5,0-.7c0-.5-.7-.6-1-.2-.2.1-.2.4-.3.5h0Z"/>
    <path class="cls-1" d="M22.5,22.5c.1.4.3.7.4,1.2l-.3.6c-.1.2,0,.6.2.7.1.2.4.2.6,0,.3,0,.5-.2.8-.3l.6.4c.4.2.6.1.9,0,.2-.3.2-.6,0-.9l-.4-.5c.2-.3.4-.5.7-.7.1-.2.1-.6,0-.8-.3-.2-.5-.3-.6-.2-.4.2-.8.4-1.1.6l-.8-.7c-.2-.1-.4-.2-.7,0-.2,0-.3.3-.2.6h-.1Z"/>
    <path class="cls-1" d="M18.2,29.9l.3,1.1c-.3.3-.5.5-.7.8-.1.2-.1.5,0,.8.1.2.5.3.7.2.2-.2.4-.2.7-.4l.5.6c.2.2.5.3.7,0,.3,0,.4-.3.3-.5,0-.3-.2-.5-.2-.9,0,0,.2-.3.4-.4.2-.3.2-.4,0-.7-.2-.3-.4-.4-.7-.3s-.4,0-.5,0c-.3-.3-.5-.6-.7-.8-.1-.2-.5-.3-.6-.1-.2.2-.4.4-.3.6h.1Z"/>
  </g>
</svg>