<?xml version="1.0" encoding="UTF-8"?>
<svg xmlns="http://www.w3.org/2000/svg" version="1.1" viewBox="0 0 104.7 144.8">
  <defs>
    <style>
      .cls-1 {
        fill: #ec59b1;
      }

      .cls-1, .cls-2, .cls-3 {
        stroke-width: 0px;
      }

      .cls-2 {
        fill: #fff;
      }

      .cls-3 {
        fill: #5d0947;
      }
    </style>
  </defs>
  <g id="Layer_1" data-name="Layer 1">
    <g>
      <path class="cls-1" d="M41.1,140.8c-2.8,0-5.7-.3-9.3-.9h-.3s-.3-.1-.3-.1c-9.7-3-16.3-8.3-20-16.3h0c-3.2-7.4-5.3-14.9-6.1-22.3-1.1-8.5-1.3-17.6-.6-28.5,0-1,.1-2.1.2-3.2,0-2.2.2-4.6.5-6.8.4-4,1-8.3,1.6-12.3v-.6c0,0,.4-.6.4-.6.2-.3.2-.4.3-.8l.7-2.9h3c1.7-.2,3.6-.3,5.7-.3s4.2,0,6.3,0c2,0,4.1,0,6.1,0s5.1,0,7.2-.2l2.7-.2,1.2,2.4c1,2,1,3.8,1,5,0,3.8,0,7.7-.2,11.6-.2,6.5-.4,13.2.2,19.8,0,.7.1,1.3.2,2,.3,2.6.5,5,1.2,7.2v.2c0,0,0,.2,0,.2.4,1.8,1.4,3.4,3,4.9.2.2.4.3.8.3.2,0,.5,0,.7,0,1.5,0,2.7-.3,3.8-1h.1c0,0,.1-.1.1-.1,1.6-.9,3-2.1,4.4-3.8,2.5-3.2,4.2-6.7,5-10.4,1-4.6,2-9.5,2.8-14h0c0-.1,0-.3,0-.3.7-2.9,1.1-5.8,1.5-9.2,0-1.1.1-2.2.2-3.4,0-1.2,0-2.4.2-3.6v-6h3.5c.3-.1.8-.2,1.3-.2,8.2,0,16.2-.2,24.6-.4h5.2c0-.1,0,3.9,0,3.9h0c0,.4.2.8.2,1.4.6,11.2.6,22.9.2,35.7-.3,7-.4,14.2-.4,21.1,0,3.5,0,7.1-.2,10.6h0c-.2,4.4-.2,8.8-.2,13.1s0,1.2-.2,1.6c0,.1,0,.2,0,.3v2l-1.6,1.1c-1.9,1.4-3.6,1.4-4.6,1.4h-.3c-2.9-.2-5.7-.2-8.7-.2h-.2c-4.3-.2-8.7-.2-13-.2s-1.1-.1-1.4-.2h0s-2.9,0-2.9,0l-.8-2.9c-.3-1.3-.5-2.5-.5-3.6-3.5,3.4-8,6-12.9,7.8-3.5,1.2-7.1,1.8-11.2,1.8Z"/>
      <path class="cls-2" d="M36.6,49.2c.6,1.2.6,2.2.6,3.2,0,3.8,0,7.6-.2,11.4-.2,6.8-.4,13.6.2,20.4.4,3.4.6,6.8,1.6,10,.6,2.8,2.2,5.2,4.4,7.2.8.6,1.6,1,2.8,1.2.4,0,.8,0,1.2,0,2.1,0,4.1-.5,6-1.6,2.2-1.2,4-2.8,5.6-4.8,2.8-3.6,4.8-7.6,5.8-12,1-4.8,2-9.6,2.8-14.2.8-3.2,1.2-6.4,1.6-9.8.2-2.4.2-4.8.4-7.2v-2.2c.4,0,.6-.2.8-.2,8.6,0,17-.2,25.8-.4,0,.6.2,1,.2,1.4.6,11.8.6,23.6.2,35.4-.4,10.6-.4,21.2-.6,31.8-.2,4.4-.2,8.8-.2,13.2s-.2,1.2-.2,1.8c-.8.6-1.4.6-2.2.6-3-.2-6-.2-9-.2-4.4-.2-8.8-.2-13.2-.2s-.8-.2-1.4-.2c-.6-2.2-.2-4.6-.4-6.8,0-2.2-.2-4.4-.4-6.6-.1,0-.2,0-.3,0-.5,0-.5.5-.7.8-1.2,2.2-2.8,4.2-4.4,6.2-3.4,3.6-7.8,6.2-12.4,7.8-3.3,1.2-6.6,1.6-9.9,1.6s-5.8-.3-8.7-.8c-7.8-2.4-14-6.6-17.6-14.2-3-6.8-5-13.8-5.8-21-1.2-9.2-1.2-18.4-.6-27.8.2-3.2.2-6.6.6-9.8.4-4,1-8.2,1.6-12.2.2-.4.4-.8.6-1.6,1.8,0,3.7-.1,5.5-.1,4.1,0,8.3.1,12.4.1s5,0,7.5-.2M41.4,40.9l-5.3.4c-2,.1-4.2.2-6.9.2s-4.1,0-6.1,0c-2.1,0-4.2,0-6.3,0s-4.1,0-5.9.1l-5.9.3-1.4,5.7h0s-.6,1.2-.6,1.2l-.2,1.3c-.6,4-1.2,8.3-1.6,12.5-.3,2.4-.4,4.8-.5,7.1,0,1.1,0,2.1-.1,3.1-.7,11.1-.5,20.4.6,29.3.9,7.8,3,15.6,6.4,23.3h0c0,0,0,.2,0,.2,4.3,9.1,11.6,15.1,22.5,18.4l.5.2h.5c3.8.7,7,1,10,1,4.5,0,8.7-.7,12.6-2.1,3.2-1.1,6.2-2.6,8.9-4.3l.9,3.4h5.6c.5,0,1.1.2,1.9.2,4.4,0,8.6,0,12.8.2h.2s.2,0,.2,0c2.9,0,5.7,0,8.5.2h.3s.3,0,.3,0c1.3,0,4.1,0,7-2.2l3.2-2.4v-3.6c0-.5.2-1.2.2-2.2,0-4.4,0-8.6.2-12.8h0c0-.1,0-.2,0-.2,0-3.6.1-7.2.2-10.7,0-6.9.2-14,.4-21,.4-12.9.4-24.7-.2-36,0-.7-.1-1.2-.2-1.6v-7.6l-8.2.2h-1.1c-8.4.2-16.4.4-24.5.4s-1.3,0-1.8.2h-7v9.9c0,1.2-.1,2.4-.2,3.6,0,1.1,0,2.1-.2,3.1-.4,3.3-.7,6-1.4,8.7v.3c0,0-.1.3-.1.3-.8,4.4-1.8,9.2-2.7,13.9-.7,3.1-2.1,6-4.3,8.8-1,1.2-2,2.1-3.2,2.7h-.2c0,.1-.2.3-.2.3-.3.2-.6.3-1.2.4-.6-.7-1-1.4-1.1-2.1v-.4c0,0-.2-.4-.2-.4-.6-1.8-.8-4.1-1.1-6.5,0-.7-.1-1.3-.2-2-.5-6.3-.4-12.6-.2-19.3.2-4,.2-7.9.2-11.7s0-3.9-1.4-6.8l-2.4-4.8h0Z"/>
    </g>
    <g>
      <path class="cls-1" d="M40.8,38.6c-3-2.8-6-5.8-8.9-8.6-1.4-1.4-2.9-2.9-4.3-4.3l-4.1-4,5.2-2.5c.7-.4,1.5-.7,2.4-.9,1.5-.4,3-.7,4.4-1,.9-.2,1.7-.3,2.5-.5l13.2-2.7c.7-.2,1.2-.5,2.3-1.3l5.4-4.4c1.1-1,2.1-1.7,3.1-2.5l2.1-1.5,2,.7c1.3.5,2.1,1.3,2.4,1.6l10.1,10.5c.4.4.7.9.8,1.2l3.3,3.4-4.4,2.6c-.3.2-.7.5-1.1.9l-.2.2-1,.7c-2.6,2-5.3,4.1-8,6-1,.8-1.9,1.3-2.5,1.6l-.4.2h-.4c-4,1.1-8.1,2.3-12.1,3.4-2.7.8-5.4,1.5-8.1,2.2l-2.1.6-1.6-1.5Z"/>
      <path class="cls-2" d="M64.6,8.9c.4.1.7.4.8.6l10.1,10.5c.3.3.3.6.5.9-.7.4-1.3,1-1.9,1.5-2.9,2.2-5.9,4.6-8.9,6.6-.6.6-1.1.8-1.7,1.1-6.7,1.7-13.4,3.7-20.2,5.5-4.4-4-8.7-8.5-13.2-12.8.6-.3,1.1-.5,1.4-.5s0,0,0,0c2.4-.7,4.8-1,7.1-1.6l13.2-2.7c1.6-.4,2.6-1.1,3.9-2l5.6-4.6c1-1,2-1.7,3.2-2.5M63.4,0l-3.4,2.4-.4.3c-1,.7-2.2,1.6-3.4,2.7l-5.2,4.3c-.4.3-.7.5-.8.6l-12.9,2.7h0s0,0,0,0c-.8.2-1.6.3-2.4.5-1.4.3-2.9.6-4.5,1-1.3.2-2.4.8-3.3,1.2l-10.4,4.9,8.2,8c1.4,1.4,2.9,2.8,4.3,4.3,2.9,2.9,6,5.9,9.1,8.8l3.2,3,4.2-1.1c2.7-.7,5.5-1.5,8.1-2.2,4.1-1.2,8-2.3,12-3.3l.8-.2.7-.3c.7-.3,1.9-.9,3.2-2,2.8-1.9,5.5-4,8.1-6l.8-.6.4-.3.3-.3c.2-.1.3-.3.5-.4l8.7-5-6.5-6.7c-.3-.5-.7-1-1.2-1.5l-10.1-10.5c-.4-.4-1.7-1.8-3.9-2.6l-4-1.4h0Z"/>
    </g>
  </g>
  <g id="Layer_2" data-name="Layer 2">
    <path class="cls-3" d="M35.2,50.4h-1.4c-2.4-.2-4.8-.2-7-.2h-10.4c-.8,0-1.6,0-2.2.2-.8.2-1.4.8-1.4,1.6-.2.4-.2.8-.2,1.4l.6,10.4c0,1,.2,2,.4,3,.2.8.6,1.2,1.4,1.4.6,0,1-.4,1.4-.8.4-.8.6-1.8,1-2.6l1.2-3.8h.4c.2.4.2.8.4,1.2.4,2.6,1,5.2,1.4,7.8.2,1,.6,2,1.2,2.6.6.6,1.6.8,2.2,0,.4-.6.6-1.2,1-2,1-3,1.8-6,2.4-9.2.2-.4.2-.6.8-.6,0,.4.2.8.4,1.2.6,1.8,1,3.8,1.8,5.8.2.8.6,1.6,1,2.2.6.8,2,.6,2.2-.2.4-.6.4-1.4.6-2.2l2.4-15c0-1-.6-2-1.6-2.2ZM32.4,63.8l-.8-1.4c-.6-2-1-4-1.6-6l-.6-2.4c-.2-.4-.6-.8-1.2-.8s-1,.2-1.4.8l-.6,2c-.6,2.8-1.2,5.6-2,8.4l-.6,2.4c0,.2-.4.2-.6.4l-1.2-6c-.4-1.8-.8-3.4-1-5-.2-.6-.4-1.2-.8-1.6-.6-1-1.8-.8-2.4.2l-.6,2c-.2,1.2-.4,2.4-1.2,3.4-.6-1.6-.6-4.6-.2-7.4,1.4-.2,3,0,4.6-.2h4.6c1.4,0,3,0,4.6.2,1.4,0,3-.2,4.8,0-.4,3.8-1,7.2-1.8,11Z"/>
    <path class="cls-3" d="M92.2,52.8h-17.8c-1.8.2-2.4.8-2.4,2.6v17.2c.2.8.4,1.6,1.2,2,1,.2,1.6-.4,2-1.2.4-.6.8-1.4,1.2-2.2l1.2-3.6c.2-.2.4-.4.8-1l.2.8c.4,2.8.8,5.6,1.2,8.4,0,.4,0,1,.2,1.2.2.4.6.8,1,1,.6.2,1.2,0,1.4-.6.4-.6.6-1,.8-1.6,1-3.2,2.2-6.2,3.4-9.4,0-.4.4-.6.8-1.2l.6,2.6c.4,1.8,1,3.6,1.4,5.4l.6,1.6c.8,1,2,.8,2.6-.2.2-.4.2-.6.2-1l.6-2.8c.2-2.4.4-4.6.6-6.8.2-3,.2-5.8.4-8.8,0-1.6-.6-2.2-2.2-2.4ZM91.2,66.2c0,.2-.2.4-.4.8-.6-.2-.4-.6-.6-1-.2-1-.4-2.2-.8-3.4-.4-1.2-.6-2.8-2.2-2.8s-1.6,1.4-2,2.6c-.8,2.2-1.6,4.2-2.2,6.4-.2.6-.6,1.4-1,2.2-.4-.8-.4-1.4-.6-2l-.2-2c-.2-1.4-.4-2.6-.6-4,0-.6-.2-1-.4-1.4-.2-.6-.6-1-1.2-1.2-.8,0-1.2.4-1.6,1l-.8,2c-.6,1.2-1,2.6-1.6,3.8h-.4c-.2-4-.2-7.8-.4-11.8.6,0,1-.2,1.6-.2h5c3,.2,6,.2,9,.4h1.8c0,.4.2.6.2,1l-.6,9.6Z"/>
    <path class="cls-3" d="M94.2,122.2l-.8-6.2c0-.4-.2-.8-.4-1.2-.4-1-1.8-1-2.2-.2l-1,1.8c-.4,1.2-1,2.4-1.6,4-.6-1.2-.6-2.2-.8-3l-1.2-7c0-.8-.6-1.4-1.4-1.4s-1.4.4-1.6,1.2l-.6,1.4c-.4,1.6-1,3.2-1.4,4.8l-.8,2.6c-.4-1.4-.6-2.2-.8-3-.4-1.6-.6-3.2-1.2-4.8-.2-.6-.6-1-1.2-1s-1.2.4-1.6,1c-.2.6-.6,1.4-.8,2.2-1.4,5.4-2,11.2-3.6,16.6-.2.8.2,1.4,1,1.6,1.6.2,3.4.2,5,.4h16.2c1,0,1.6-.6,1.6-1.6v-.8c-.4-2.6-.6-5-.8-7.4ZM74.4,129c.6-4.2,1.4-8.2,2.8-12.4.4,2.4,1,4.6,1.4,6.8.2.6.2,1,.4,1.4.4,1,1.6,1,2.2.2.4-.6.6-1.2.8-2,.6-1.8,1-3.8,1.6-5.6l.6-2c.8,1,.6,2,.8,3l.6,4.8c.2.8.2,1.6.4,2.4.2.6.6,1,1.2,1,.6.2,1.2,0,1.6-.8.4-.8.8-1.4,1-2.2l1.2-3c.8,2,1.4,6,1.4,8.6-2.4.6-14,.4-18-.2Z"/>
    <path class="cls-3" d="M61.7,24.3c2-1.4,3.7-2.8,5.9-4.3,0,0,.3-.3.4-.7.3-.3.2-1-.1-1.6-.4-.4-1-.7-1.5-.5-.4.1-.7.4-1,.7-1.4.8-2.7,1.8-4,2.8-1.1.8-2.4,1.2-3.8,1.5-3,.6-6.1,1.2-9.2,1.7h-1c-.9.4-1.3,1.1-1.3,1.7.1.7.7,1.3,1.2,1.3,1,.2,1.8.2,2.7.2,3.1-.5,6.1-1.2,9.4-1.8.7-.1,1.7-.5,2.4-.9Z"/>
    <path class="cls-3" d="M43.5,28.2c.4-.4.6-1.4,0-2s-1.3-.7-1.8-.2c-.7.4-.7,1.3-.2,1.8s1.3.7,2,.3Z"/>
  </g>
</svg>