<?xml version="1.0" encoding="UTF-8"?>
<svg id="Layer_1" data-name="Layer 1" xmlns="http://www.w3.org/2000/svg" version="1.1" viewBox="0 0 104.7 148">
  <defs>
    <style>
      .cls-1 {
        fill: #f48722;
      }

      .cls-1, .cls-2, .cls-3 {
        stroke-width: 0px;
      }

      .cls-2 {
        fill: #a33e00;
      }

      .cls-3 {
        fill: #fff;
      }
    </style>
  </defs>
  <g id="Layer_1-2" data-name="Layer 1-2">
    <g>
      <path class="cls-1" d="M41.1,144c-3.7,0-6.4-.3-9.4-.9h-.5c-9.7-3.1-16.3-8.4-20-16.4h0c-3.2-7.4-5.3-14.9-6.1-22.3-1.1-8.5-1.3-17.6-.6-28.5,0-1,0-2.1.2-3.2,0-2.2.2-4.6.5-6.8.4-4,1-8.3,1.6-12.3v-.6l.4-.6c.2-.3.2-.4.3-.8l.8-3h21c4.1,0,4.8,0,7.2-.2l2.7-.2,1.2,2.4c1,2,1,3.8,1,5,0,3.8,0,7.7-.2,11.6-.2,6.5-.4,13.2.2,19.8,0,.7,0,1.3.2,2,.3,2.6.5,5,1.2,7.2v.4c.4,1.8,1.4,3.4,3,4.9.2,0,.4.2.6.3h.8c1.5,0,2.8-.3,4-1.1h0c1.6-.9,3-2.2,4.4-3.8,2.5-3.2,4.2-6.7,5-10.4,1-4.6,2-9.5,2.8-14h0v-.3c.7-2.9,1.1-5.8,1.5-9.2,0-1.1,0-2.2.2-3.4,0-1.2,0-2.4.2-3.6v-6h3.5c.3,0,.8-.2,1.3-.2,8.2,0,16.2-.2,24.6-.4h5.2v3.9h0c0,.4.2.8.2,1.4.6,11.2.6,22.9.2,35.7-.3,7-.4,14.2-.4,21.1s0,7.1-.2,10.6h0c-.2,4.4-.2,8.8-.2,13.1s0,2-.2,3v.8l-.3.2c-.5,1.3-1.5,2.3-3.6,2.3s-.3,0-.7,0c-.6.1-1.2.1-1.6.1h-.3c-2.9-.2-5.7-.2-8.7-.2h-.2c-4.3-.2-8.7-.2-13-.2s-1.9,0-2.9-.2h-1.6l-.2-.7c-.9-.6-1.5-1.5-1.6-3,0-.3,0-1.3.5-2.2v-.7c-3.5,3.4-7.9,6-12.9,7.8-3.4,1.2-7,1.8-11.2,1.8h0Z"/>
      <path class="cls-3" d="M36.6,52.4c.6,1.2.6,2.2.6,3.2,0,3.8,0,7.6-.2,11.4-.2,6.8-.4,13.6.2,20.4.4,3.4.6,6.8,1.6,10,.6,2.8,2.2,5.2,4.4,7.2.8.6,1.6,1,2.8,1.2h1.2c2.1,0,4.1-.5,6-1.6,2.2-1.2,4-2.8,5.6-4.8,2.8-3.6,4.8-7.6,5.8-12,1-4.8,2-9.6,2.8-14.2.8-3.2,1.2-6.4,1.6-9.8.2-2.4.2-4.8.4-7.2v-2.2c.4,0,.6-.2.8-.2,8.6,0,17-.2,25.8-.4,0,.6.2,1,.2,1.4.6,11.8.6,23.6.2,35.4-.4,10.6-.4,21.2-.6,31.8-.2,4.4-.2,8.8-.2,13.2s0,2.4,0,2.4v-.6h0c-.8.6-1.4.6-2.2.6-3-.2-6-.2-9-.2-4.4-.2-8.8-.2-13.2-.2s-.8-.2-1.4-.2c-.6-2.2-.2-4.6-.4-6.8,0-2.2-.2-4.4-.4-6.6h-.3c-.5,0-.5.5-.7.8-1.2,2.2-2.8,4.2-4.4,6.2-3.4,3.6-7.8,6.2-12.4,7.8-3.3,1.2-6.6,1.6-9.9,1.6s-5.8-.3-8.7-.8c-7.8-2.4-14-6.6-17.6-14.2-3-6.8-5-13.8-5.8-21-1.2-9.2-1.2-18.4-.6-27.8.2-3.2.2-6.6.6-9.8.4-4,1-8.2,1.6-12.2.2-.4.4-.8.6-1.6h17.9c4.1,0,5,0,7.5-.2M41.3,44l-5.4.4c-2.2.2-2.8.2-6.9.2H4.9l-1.5,6h0l-.6,1.2-.2,1.3c-.6,4-1.2,8.3-1.6,12.5-.3,2.4-.4,4.8-.5,7.1v3.1C-.2,86.9,0,96.2,1.1,105.1c.9,7.8,3,15.6,6.4,23.3h0v.2c4.3,9.1,11.6,15.1,22.5,18.4l.5.2h.5c2.8.6,5.9,1,10.1,1s8.7-.7,12.6-2.1c3.1-1.1,6-2.5,8.6-4.1.2.2.3.5.5.7l.7,2.5h3.9c.5,0,1,.2,1.6.2h2c4.4,0,8.6,0,12.8.2h.4c2.9,0,5.7,0,8.5.2h2.9c2.2,0,5.1-1.1,6.8-3.7l1.1-.8v-2.1c0-.5,0-1,.2-1.5v-2.2c0-4.4,0-8.6.2-12.8h0v-.2c0-3.6,0-7.2.2-10.6,0-6.9.2-14,.4-21,.4-12.9.4-24.7-.2-36,0-.7,0-1.2-.2-1.6v-7.6l-8.2.2h-1.1c-8.4.2-16.3.4-24.5.4s-1.3,0-1.8.2h-7v9.9c0,1.2,0,2.4-.2,3.6,0,1.1,0,2.1-.2,3.1-.4,3.3-.7,6-1.4,8.7v.6c-.9,4.4-1.9,9.2-2.8,13.9-.7,3.1-2.1,6-4.3,8.8-1,1.2-2,2.1-3.2,2.7h0c-.5.3-1,.4-1.5.5-.6-.7-.9-1.4-1.1-2v-.4l-.2-.4c-.6-1.8-.8-4.1-1.1-6.5,0-.7,0-1.3-.2-2-.5-6.3-.4-12.6-.2-19.3.2-4,.2-7.9.2-11.7s0-3.9-1.4-6.8l-2.4-4.8h0v-.4h-.2Z"/>
    </g>
    <g>
      <path class="cls-1" d="M28.2,38.6c-9.5,0-17.2-7.8-17.2-17.4S18.7,4,28.2,4s.2,0,.4,0h.4c8.1,0,16.8,6.6,16.8,17.2s-7.7,17.4-17.6,17.4Z"/>
      <path class="cls-3" d="M29,8c6.5,0,12.8,5.3,12.8,13.2s-5.6,13.4-13.6,13.4-13.2-6-13.2-13.4,6.4-13.2,13.2-13.2h.8M29,0h-.8C16.5,0,7,9.5,7,21.2s9.5,21.4,21.2,21.4,21.6-9.4,21.6-21.4S40.4,0,29,0h0Z"/>
    </g>
    <g>
      <path class="cls-1" d="M76.2,38.6c-9.5,0-17.2-7.8-17.2-17.4s7.7-17.2,17.2-17.2.2,0,.4,0h.4c8.1,0,16.8,6.6,16.8,17.2s-7.7,17.4-17.6,17.4Z"/>
      <path class="cls-3" d="M77,8c6.5,0,12.8,5.3,12.8,13.2s-5.6,13.4-13.6,13.4-13.2-6-13.2-13.4,6.4-13.2,13.2-13.2h.8M77,0h-.8c-11.7,0-21.2,9.5-21.2,21.2s9.5,21.4,21.2,21.4,21.6-9.4,21.6-21.4S88.4,0,77,0h0Z"/>
    </g>
  </g>
  <g id="Layer_2" data-name="Layer 2">
    <path class="cls-2" d="M35.2,53.6h-1.4c-2.4-.2-4.8-.2-7-.2h-10.4c-.8,0-1.6,0-2.2.2-.8.2-1.4.8-1.4,1.6-.2.4-.2.8-.2,1.4l.6,10.4c0,1,.2,2,.4,3,.2.8.6,1.2,1.4,1.4.6,0,1-.4,1.4-.8.4-.8.6-1.8,1-2.6l1.2-3.8h.4c.2.4.2.8.4,1.2.4,2.6,1,5.2,1.4,7.8.2,1,.6,2,1.2,2.6s1.6.8,2.2,0c.4-.6.6-1.2,1-2,1-3,1.8-6,2.4-9.2.2-.4.2-.6.8-.6,0,.4.2.8.4,1.2.6,1.8,1,3.8,1.8,5.8.2.8.6,1.6,1,2.2.6.8,2,.6,2.2-.2.4-.6.4-1.4.6-2.2l2.4-15c0-1-.6-2-1.6-2.2ZM32.4,67l-.8-1.4c-.6-2-1-4-1.6-6l-.6-2.4c-.2-.4-.6-.8-1.2-.8s-1,.2-1.4.8l-.6,2c-.6,2.8-1.2,5.6-2,8.4l-.6,2.4c0,.2-.4.2-.6.4l-1.2-6c-.4-1.8-.8-3.4-1-5-.2-.6-.4-1.2-.8-1.6-.6-1-1.8-.8-2.4.2l-.6,2c-.2,1.2-.4,2.4-1.2,3.4-.6-1.6-.6-4.6-.2-7.4,1.4-.2,3,0,4.6-.2h4.6c1.4,0,3,0,4.6.2,1.4,0,3-.2,4.8,0-.4,3.8-1,7.2-1.8,11Z"/>
    <path class="cls-2" d="M92.2,56h-17.8c-1.8.2-2.4.8-2.4,2.6v17.2c.2.8.4,1.6,1.2,2,1,.2,1.6-.4,2-1.2.4-.6.8-1.4,1.2-2.2l1.2-3.6c.2-.2.4-.4.8-1l.2.8c.4,2.8.8,5.6,1.2,8.4,0,.4,0,1,.2,1.2.2.4.6.8,1,1,.6.2,1.2,0,1.4-.6.4-.6.6-1,.8-1.6,1-3.2,2.2-6.2,3.4-9.4,0-.4.4-.6.8-1.2l.6,2.6c.4,1.8,1,3.6,1.4,5.4l.6,1.6c.8,1,2,.8,2.6-.2.2-.4.2-.6.2-1l.6-2.8c.2-2.4.4-4.6.6-6.8.2-3,.2-5.8.4-8.8,0-1.6-.6-2.2-2.2-2.4h0ZM91.2,69.4c0,.2-.2.4-.4.8-.6-.2-.4-.6-.6-1-.2-1-.4-2.2-.8-3.4-.4-1.2-.6-2.8-2.2-2.8s-1.6,1.4-2,2.6c-.8,2.2-1.6,4.2-2.2,6.4-.2.6-.6,1.4-1,2.2-.4-.8-.4-1.4-.6-2l-.2-2c-.2-1.4-.4-2.6-.6-4,0-.6-.2-1-.4-1.4-.2-.6-.6-1-1.2-1.2-.8,0-1.2.4-1.6,1l-.8,2c-.6,1.2-1,2.6-1.6,3.8h-.4c-.2-4-.2-7.8-.4-11.8.6,0,1-.2,1.6-.2h5c3,.2,6,.2,9,.4h1.8c0,.4.2.6.2,1,0,0-.6,9.6-.6,9.6Z"/>
    <path class="cls-2" d="M94.2,125.4l-.8-6.2c0-.4-.2-.8-.4-1.2-.4-1-1.8-1-2.2-.2l-1,1.8c-.4,1.2-1,2.4-1.6,4-.6-1.2-.6-2.2-.8-3l-1.2-7c0-.8-.6-1.4-1.4-1.4s-1.4.4-1.6,1.2l-.6,1.4c-.4,1.6-1,3.2-1.4,4.8l-.8,2.6c-.4-1.4-.6-2.2-.8-3-.4-1.6-.6-3.2-1.2-4.8-.2-.6-.6-1-1.2-1s-1.2.4-1.6,1c-.2.6-.6,1.4-.8,2.2-1.4,5.4-2,11.2-3.6,16.6-.2.8.2,1.4,1,1.6,1.6.2,3.4.2,5,.4h16.2c1,0,1.6-.6,1.6-1.6v-.8c-.4-2.6-.6-5-.8-7.4ZM74.4,132.2c.6-4.2,1.4-8.2,2.8-12.4.4,2.4,1,4.6,1.4,6.8.2.6.2,1,.4,1.4.4,1,1.6,1,2.2.2.4-.6.6-1.2.8-2,.6-1.8,1-3.8,1.6-5.6l.6-2c.8,1,.6,2,.8,3l.6,4.8c.2.8.2,1.6.4,2.4.2.6.6,1,1.2,1,.6.2,1.2,0,1.6-.8s.8-1.4,1-2.2l1.2-3c.8,2,1.4,6,1.4,8.6-2.4.6-14,.4-18-.2h0Z"/>
    <path class="cls-2" d="M26.8,13c.8-.2,1-.8,1-1.6-.2-.8-.8-1.2-1.6-1.2-1.2-.2-2.2.4-3.2,1-2,1.4-3.4,3.4-4.6,5.6-.6,1.2-1,2.6-1.2,4.6.2.2.2,1,.4,1.8.2.4,1,1,1.4,1,.8,0,1.6-.8,1.6-1.4v-1c-.2-1.2.2-2.2.6-3.2,1.2-2.6,2.6-4.6,5.6-5.6Z"/>
    <path class="cls-2" d="M22.6,27.4c0-.6-.6-1.4-1.4-1.4s-1.4.6-1.4,1.4.6,1.2,1.2,1.4c.8,0,1.4-.6,1.6-1.4Z"/>
    <path class="cls-2" d="M74.8,13c.8-.2,1-.8,1-1.6-.2-.8-.8-1.2-1.6-1.2-1.2-.2-2.2.4-3.2,1-2,1.4-3.4,3.4-4.6,5.6-.6,1.2-1,2.6-1.2,4.6.2.2.2,1,.4,1.8.2.4,1,1,1.4,1,.8,0,1.6-.8,1.6-1.4v-1c-.2-1.2.2-2.2.6-3.2,1.2-2.6,2.6-4.6,5.6-5.6Z"/>
    <path class="cls-2" d="M70.6,27.4c0-.6-.6-1.4-1.4-1.4s-1.4.6-1.4,1.4.6,1.2,1.2,1.4c.8,0,1.4-.6,1.6-1.4Z"/>
  </g>
</svg>