<svg width="39" height="39" viewBox="0 0 39 39" fill="none" xmlns="http://www.w3.org/2000/svg">
<g clip-path="url(#clip0_1049_96519)">
<path d="M24.7344 17.5531C26.0564 17.5531 27.1281 16.4814 27.1281 15.1595C27.1281 13.8375 26.0564 12.7659 24.7344 12.7659C23.4125 12.7659 22.3408 13.8375 22.3408 15.1595C22.3408 16.4814 23.4125 17.5531 24.7344 17.5531Z" fill="#973D78"/>
<path d="M13.5635 17.5531C14.8855 17.5531 15.9572 16.4814 15.9572 15.1595C15.9572 13.8375 14.8855 12.7659 13.5635 12.7659C12.2416 12.7659 11.1699 13.8375 11.1699 15.1595C11.1699 16.4814 12.2416 17.5531 13.5635 17.5531Z" fill="#973D78"/>
<path d="M19.1489 25.5318C16.7872 25.5318 14.7606 24.2393 13.6435 22.3403H10.9786C12.2552 25.6116 15.4308 27.9254 19.1489 27.9254C22.8669 27.9254 26.0425 25.6116 27.3191 22.3403H24.6542C23.5372 24.2393 21.5106 25.5318 19.1489 25.5318ZM19.1329 3.19141C10.3244 3.19141 3.19141 10.3403 3.19141 19.1489C3.19141 27.9574 10.3244 35.1063 19.1329 35.1063C27.9574 35.1063 35.1063 27.9574 35.1063 19.1489C35.1063 10.3403 27.9574 3.19141 19.1329 3.19141ZM19.1489 31.9148C12.0957 31.9148 6.3829 26.202 6.3829 19.1489C6.3829 12.0957 12.0957 6.3829 19.1489 6.3829C26.202 6.3829 31.9148 12.0957 31.9148 19.1489C31.9148 26.202 26.202 31.9148 19.1489 31.9148Z" fill="#973D78"/>
</g>
<defs>
<clipPath id="clip0_1049_96519">
<rect width="38.2979" height="38.2979" fill="white"/>
</clipPath>
</defs>
</svg>
