<?xml version="1.0" encoding="UTF-8" standalone="no"?>
<svg
   width="1066"
   height="224"
   viewBox="0 0 1066 224"
   fill="none"
   version="1.1"
   id="svg441"
   sodipodi:docname="coming_soon_block.svg"
   inkscape:version="1.2.1 (9c6d41e, 2022-07-14)"
   xmlns:inkscape="http://www.inkscape.org/namespaces/inkscape"
   xmlns:sodipodi="http://sodipodi.sourceforge.net/DTD/sodipodi-0.dtd"
   xmlns="http://www.w3.org/2000/svg"
   xmlns:svg="http://www.w3.org/2000/svg">
  <sodipodi:namedview
     id="namedview443"
     pagecolor="#ffffff"
     bordercolor="#000000"
     borderopacity="0.25"
     inkscape:showpageshadow="2"
     inkscape:pageopacity="0.0"
     inkscape:pagecheckerboard="0"
     inkscape:deskcolor="#d1d1d1"
     showgrid="false"
     inkscape:zoom="1"
     inkscape:cx="294.5"
     inkscape:cy="118.5"
     inkscape:window-width="3840"
     inkscape:window-height="2107"
     inkscape:window-x="1080"
     inkscape:window-y="25"
     inkscape:window-maximized="0"
     inkscape:current-layer="g417" />
  <g
     filter="url(#filter0_d_3959_39576)"
     id="g417"
     transform="translate(-92,-56)">
    <g
       clip-path="url(#clipPath1272)"
       id="g413">
      <mask
         id="mask0_3959_39576"
         maskUnits="userSpaceOnUse"
         x="42"
         y="25"
         width="1168"
         height="284">
        <rect
           x="42"
           y="25.753901"
           width="1168"
           height="283.24799"
           fill="#d9d9d9"
           id="rect132" />
      </mask>
      <g
         mask="url(#mask0_3959_39576)"
         id="g400">
        <g
           style="mix-blend-mode:multiply"
           id="g137">
          <path
             d="M 42,25.7539 H 1210 V 309.002 H 42 Z"
             fill="#383838"
             fill-opacity="0.75"
             id="path135" />
        </g>
        <g
           style="mix-blend-mode:lighten"
           opacity="0.24"
           id="g224">
          <mask
             id="mask1_3959_39576"
             maskUnits="userSpaceOnUse"
             x="446"
             y="-106"
             width="408"
             height="475">
            <path
               d="M 853.069,-105.793 H 446.996 v 474.232 h 406.073 z"
               fill="#ffffff"
               id="path139" />
          </mask>
          <g
             mask="url(#mask1_3959_39576)"
             id="g222">
            <path
               fill-rule="evenodd"
               clip-rule="evenodd"
               d="m 632.825,-64.2463 c 5.508,-4.3961 13.279,-12.1024 15.487,-15.4979 L 622.729,-100.52 c -0.03,0.047 0.056,-0.143 0,0 -7.309,7.0421 -6.446,9.4749 -45.368,36.3591 -21.283,14.7012 -27.115,18.5567 -27.313,18.6753 l 18.928,26.6328 0.03,-0.0189 c 0.416,-0.294 0.817,-0.5786 1.254,-0.8442 l 3.517,-2.1293 c 7.959,-5.1786 17.614,-11.576 27.456,-18.3765 21.227,-14.6585 26.08,-19.6332 31.582,-24.0246 z m -10.09,-36.2737 c 0.02,-0.038 0.025,-0.043 0,0 z"
               fill="#000000"
               id="path142" />
            <path
               fill-rule="evenodd"
               clip-rule="evenodd"
               d="m 713.766,-64.2463 c 5.508,-4.3961 13.279,-12.1024 15.487,-15.4979 L 703.67,-100.52 c -0.025,0.047 0.056,-0.143 0,0 -7.309,7.0421 -6.446,9.4749 -45.368,36.3591 -21.283,14.7012 -27.116,18.5567 -27.314,18.6753 l 18.929,26.6328 0.03,-0.0189 c 0.416,-0.294 0.822,-0.5786 1.254,-0.8442 l 3.517,-2.1293 c 7.959,-5.1786 17.614,-11.576 27.456,-18.3765 21.227,-14.6585 26.08,-19.6332 31.587,-24.0246 z M 703.675,-100.52 c 0.021,-0.038 0.026,-0.043 0,0 z"
               fill="#000000"
               id="path144" />
            <path
               fill-rule="evenodd"
               clip-rule="evenodd"
               d="m 470.94,-64.2463 c 5.507,-4.3961 13.278,-12.1024 15.486,-15.4979 L 460.844,-100.52 c -0.031,0.047 0.056,-0.143 0,0 -7.31,7.0421 -6.447,9.4749 -45.369,36.3591 -21.283,14.7012 -27.115,18.5567 -27.313,18.6753 l 18.928,26.6328 0.03,-0.0189 c 0.417,-0.294 0.818,-0.5786 1.254,-0.8442 l 3.518,-2.1293 c 7.959,-5.1786 17.613,-11.576 27.455,-18.3765 21.228,-14.6585 26.08,-19.6332 31.583,-24.0246 z M 460.849,-100.52 c 0.02,-0.038 0.025,-0.043 0,0 z"
               fill="#000000"
               id="path146" />
            <path
               fill-rule="evenodd"
               clip-rule="evenodd"
               d="m 551.885,-64.2463 c 5.507,-4.3961 13.279,-12.1024 15.487,-15.4979 L 541.789,-100.52 c -0.025,0.047 0.056,-0.143 0,0 -7.309,7.0421 -6.446,9.4749 -45.368,36.3591 -21.284,14.7012 -27.116,18.5567 -27.314,18.6753 l 18.928,26.6328 0.031,-0.0189 c 0.416,-0.294 0.822,-0.5786 1.253,-0.8442 l 3.518,-2.1293 c 7.959,-5.1786 17.613,-11.576 27.456,-18.3765 21.227,-14.6585 26.08,-19.6332 31.587,-24.0246 z M 541.794,-100.52 c 0.02,-0.038 0.026,-0.043 0,0 z"
               fill="#000000"
               id="path148" />
            <path
               fill-rule="evenodd"
               clip-rule="evenodd"
               d="m 794.712,-64.2463 c 5.507,-4.3961 13.278,-12.1024 15.486,-15.4979 L 784.616,-100.52 c -0.026,0.047 0.056,-0.143 0,0 -7.31,7.0421 -6.447,9.4749 -45.369,36.3591 -21.283,14.7012 -27.115,18.5567 -27.313,18.6753 l 18.928,26.6328 0.03,-0.0189 c 0.417,-0.294 0.818,-0.5786 1.254,-0.8442 l 3.518,-2.1293 c 7.959,-5.1786 17.613,-11.576 27.455,-18.3765 21.228,-14.6585 26.08,-19.6332 31.588,-24.0246 z M 784.621,-100.52 c 0.02,-0.038 0.025,-0.043 0,0 z"
               fill="#000000"
               id="path150" />
            <path
               fill-rule="evenodd"
               clip-rule="evenodd"
               d="m 875.652,-64.2463 c 5.507,-4.3961 13.279,-12.1024 15.487,-15.4979 L 865.556,-100.52 c -0.025,0.047 0.056,-0.143 0,0 -7.309,7.0421 -6.446,9.4749 -45.368,36.3591 -21.284,14.7012 -27.116,18.5567 -27.314,18.6753 l 18.928,26.6328 0.031,-0.0189 c 0.416,-0.294 0.817,-0.5786 1.253,-0.8442 l 3.518,-2.1293 c 7.959,-5.1786 17.613,-11.576 27.456,-18.3765 21.227,-14.6585 26.08,-19.6332 31.582,-24.0246 z M 865.561,-100.52 c 0.02,-0.038 0.026,-0.043 0,0 z"
               fill="#000000"
               id="path152" />
            <path
               fill-rule="evenodd"
               clip-rule="evenodd"
               d="m 507.375,188.32 c 5.751,4.112 15.446,9.599 19.461,10.908 l 16.39,-27.724 c -0.056,-0.014 0.162,0.024 0,0 -8.898,-5.202 -11.269,-3.908 -47.556,-33.836 -19.842,-16.366 -25.101,-20.886 -25.268,-21.037 l -23.913,22.867 0.031,0.024 c 0.39,0.318 0.776,0.626 1.142,0.967 l 2.964,2.77 c 7.086,6.184 15.806,13.667 24.984,21.236 19.786,16.318 26.009,19.714 31.76,23.821 z m 35.851,-16.816 c 0.04,0.01 0.051,0.014 0,0 z"
               fill="#000000"
               id="path154" />
            <path
               fill-rule="evenodd"
               clip-rule="evenodd"
               d="m 428.952,188.32 c 5.751,4.112 15.446,9.599 19.461,10.908 l 16.39,-27.724 c -0.056,-0.014 0.162,0.024 0,0 -8.898,-5.202 -11.269,-3.908 -47.556,-33.836 -19.842,-16.366 -25.101,-20.886 -25.268,-21.037 l -23.908,22.872 0.031,0.024 c 0.391,0.317 0.776,0.626 1.142,0.967 l 2.964,2.77 c 7.086,6.184 15.807,13.667 24.984,21.236 19.786,16.318 26.009,19.714 31.76,23.82 z m 35.851,-16.816 c 0.041,0.01 0.051,0.014 0,0 z"
               fill="#000000"
               id="path156" />
            <path
               fill-rule="evenodd"
               clip-rule="evenodd"
               d="m 589.345,188.32 c 5.751,4.112 15.446,9.599 19.462,10.908 l 16.39,-27.724 c -0.056,-0.014 0.162,0.024 0,0 -8.898,-5.202 -11.269,-3.908 -47.557,-33.836 -19.841,-16.366 -25.1,-20.886 -25.267,-21.037 l -23.908,22.867 0.03,0.024 c 0.391,0.318 0.777,0.626 1.143,0.967 l 2.964,2.77 c 7.086,6.184 15.806,13.667 24.984,21.236 19.785,16.318 26.008,19.714 31.759,23.821 z m 35.852,-16.816 c 0.04,0.01 0.05,0.014 0,0 z"
               fill="#000000"
               id="path158" />
            <path
               fill-rule="evenodd"
               clip-rule="evenodd"
               d="m 671.321,188.32 c 5.751,4.112 15.446,9.599 19.462,10.908 l 16.39,-27.724 c -0.056,-0.014 0.162,0.024 0,0 -8.898,-5.202 -11.269,-3.908 -47.557,-33.836 -19.841,-16.366 -25.1,-20.886 -25.267,-21.037 l -23.913,22.867 0.03,0.024 c 0.391,0.318 0.777,0.626 1.143,0.967 l 2.964,2.77 c 7.086,6.184 15.806,13.667 24.983,21.236 19.786,16.318 26.009,19.714 31.76,23.821 z m 35.852,-16.816 c 0.04,0.01 0.05,0.014 0,0 z"
               fill="#000000"
               id="path160" />
            <path
               fill-rule="evenodd"
               clip-rule="evenodd"
               d="m 753.292,188.32 c 5.751,4.112 15.446,9.599 19.461,10.908 l 16.391,-27.724 c -0.056,-0.014 0.162,0.024 0,0 -8.899,-5.202 -11.269,-3.908 -47.557,-33.836 -19.841,-16.366 -25.1,-20.886 -25.267,-21.037 l -23.913,22.867 0.03,0.024 c 0.391,0.318 0.777,0.626 1.142,0.967 l 2.965,2.77 c 7.086,6.184 15.806,13.667 24.983,21.236 19.786,16.318 26.009,19.714 31.76,23.821 z m 35.852,-16.816 c 0.04,0.01 0.05,0.014 0,0 z"
               fill="#000000"
               id="path162" />
            <path
               fill-rule="evenodd"
               clip-rule="evenodd"
               d="m 835.268,188.32 c 5.751,4.112 15.446,9.599 19.461,10.908 l 16.39,-27.724 c -0.055,-0.014 0.163,0.024 0,0 -8.898,-5.202 -11.268,-3.908 -47.556,-33.836 -19.841,-16.366 -25.1,-20.886 -25.268,-21.037 l -23.912,22.867 0.03,0.024 c 0.391,0.318 0.777,0.626 1.142,0.967 l 2.965,2.77 c 7.086,6.184 15.806,13.667 24.983,21.236 19.786,16.318 26.009,19.714 31.76,23.821 z m 35.851,-16.816 c 0.041,0.01 0.051,0.014 0,0 z"
               fill="#000000"
               id="path164" />
            <path
               fill-rule="evenodd"
               clip-rule="evenodd"
               d="m 450.931,24.6106 c -4.949,3.1726 -12.035,8.8397 -14.137,11.4053 l 20.126,17.9402 c -0.061,0.1091 0.026,-0.0379 0,0 6.65,-5.1691 6.091,-7.1467 40.775,-26.2488 18.964,-10.4473 24.151,-13.1741 24.324,-13.2548 l -14.111,-22.20351 -0.026,0.01422 c -0.37,0.20867 -0.73,0.41259 -1.116,0.59754 l -3.117,1.48909 C 496.578,-1.99857 487.995,2.53034 479.224,7.35802 460.311,17.7769 455.875,21.4427 450.926,24.6153 Z m 5.989,29.3455 c -0.02,0.0284 -0.02,0.0332 0,0 z"
               fill="#000000"
               id="path166" />
            <path
               fill-rule="evenodd"
               clip-rule="evenodd"
               d="m 461.651,24.6106 c 4.959,3.1726 12.06,8.8397 14.162,11.4053 l -20.167,17.9402 c -0.025,-0.0379 0.061,0.1091 0,0 C 448.986,48.787 449.54,46.8094 414.795,27.7073 395.796,17.26 390.598,14.5332 390.426,14.4525 l 14.136,-22.20351 0.025,0.01422 c 0.371,0.20867 0.731,0.41259 1.117,0.59754 l 3.122,1.48909 c 7.081,3.65159 15.684,8.1805 24.471,13.00818 18.948,10.41888 23.395,14.08468 28.349,17.25728 z m -6.005,29.3455 c 0.02,0.0284 0.025,0.0332 0,0 z"
               fill="#000000"
               id="path168" />
            <path
               fill-rule="evenodd"
               clip-rule="evenodd"
               d="m 553.088,24.6106 c -4.949,3.1726 -12.035,8.8397 -14.136,11.4053 l 20.126,17.9402 c -0.061,0.1091 0.025,-0.0379 0,0 6.649,-5.1691 6.091,-7.1467 40.775,-26.2488 18.963,-10.4473 24.151,-13.1741 24.323,-13.2548 l -14.111,-22.20351 -0.025,0.01422 c -0.371,0.20867 -0.731,0.41259 -1.117,0.59754 l -3.116,1.48909 C 598.736,-1.99857 590.153,2.53034 581.381,7.35802 562.469,17.7769 558.032,21.4427 553.083,24.6153 Z m 5.99,29.3455 c -0.025,0.0332 -0.02,0.0284 0,0 z"
               fill="#000000"
               id="path170" />
            <path
               fill-rule="evenodd"
               clip-rule="evenodd"
               d="m 565.189,24.6106 c 4.949,3.1726 12.035,8.8397 14.137,11.4053 L 559.2,53.9561 c -0.026,-0.0379 0.06,0.1091 0,0 C 552.55,48.787 553.108,46.8094 518.425,27.7073 499.461,17.26 494.274,14.5332 494.101,14.4525 l 14.111,-22.20351 0.025,0.01422 c 0.371,0.20867 0.731,0.41259 1.117,0.59754 l 3.117,1.48909 c 7.071,3.65159 15.654,8.1805 24.425,13.00818 18.913,10.41888 23.349,14.08468 28.298,17.25728 z M 559.2,53.9561 c 0.02,0.0284 0.02,0.0332 0,0 z"
               fill="#000000"
               id="path172" />
            <path
               fill-rule="evenodd"
               clip-rule="evenodd"
               d="m 653.789,24.6106 c -4.949,3.1726 -12.035,8.8397 -14.136,11.4053 l 20.126,17.9402 c -0.061,0.1091 0.025,-0.0379 0,0 6.649,-5.1691 6.091,-7.1467 40.774,-26.2488 18.964,-10.4473 24.152,-13.1741 24.324,-13.2548 l -14.111,-22.20351 -0.025,0.01422 c -0.371,0.20867 -0.731,0.41259 -1.117,0.59754 l -3.117,1.48909 c -7.07,3.65159 -15.654,8.1805 -24.425,13.00818 C 663.169,17.7769 658.733,21.4427 653.784,24.6153 Z m 5.99,29.3455 c -0.026,0.0332 -0.021,0.0284 0,0 z"
               fill="#000000"
               id="path174" />
            <path
               fill-rule="evenodd"
               clip-rule="evenodd"
               d="m 665.885,24.6106 c 4.949,3.1726 12.035,8.8397 14.136,11.4053 l -20.126,17.9402 c -0.025,-0.0379 0.061,0.1091 0,0 C 653.246,48.787 653.804,46.8094 619.121,27.7073 600.157,17.26 594.969,14.5332 594.797,14.4525 l 14.111,-22.20351 0.025,0.01422 c 0.371,0.20867 0.731,0.41259 1.117,0.59754 l 3.117,1.48909 c 7.07,3.65159 15.654,8.1805 24.425,13.00818 18.913,10.41888 23.349,14.08468 28.298,17.25728 z m -5.99,29.3455 c 0.021,0.0284 0.021,0.0332 0,0 z"
               fill="#000000"
               id="path176" />
            <path
               fill-rule="evenodd"
               clip-rule="evenodd"
               d="m 754.713,24.6106 c -4.949,3.1726 -12.035,8.8397 -14.136,11.4053 l 20.126,17.9402 c -0.061,0.1091 0.025,-0.0379 0,0 6.649,-5.1691 6.091,-7.1467 40.775,-26.2488 18.963,-10.4473 24.151,-13.1741 24.323,-13.2548 l -14.111,-22.20351 -0.025,0.01422 c -0.371,0.20867 -0.731,0.41259 -1.117,0.59754 l -3.116,1.48909 C 800.361,-1.99857 791.778,2.53034 783.006,7.35802 764.094,17.7769 759.657,21.4427 754.708,24.6153 Z m 5.99,29.3455 c -0.025,0.0332 -0.02,0.0284 0,0 z"
               fill="#000000"
               id="path178" />
            <path
               fill-rule="evenodd"
               clip-rule="evenodd"
               d="m 767.824,24.6106 c 4.949,3.1726 12.035,8.8397 14.137,11.4053 l -20.126,17.9402 c -0.026,-0.0379 0.061,0.1091 0,0 C 755.185,48.787 755.744,46.8094 721.06,27.7073 702.096,17.26 696.909,14.5332 696.736,14.4525 l 14.111,-22.20351 0.026,0.01422 c 0.37,0.20867 0.731,0.41259 1.116,0.59754 l 3.117,1.48909 c 7.071,3.65159 15.654,8.1805 24.425,13.00818 18.913,10.41888 23.349,14.08468 28.298,17.25728 z m -5.989,29.3455 c 0.02,0.0284 0.02,0.0332 0,0 z"
               fill="#000000"
               id="path180" />
            <path
               fill-rule="evenodd"
               clip-rule="evenodd"
               d="m 868.195,24.6106 c 4.949,3.1726 12.035,8.8397 14.137,11.4053 l -20.126,17.9402 c -0.026,-0.0379 0.061,0.1091 0,0 -6.65,-5.1691 -6.091,-7.1467 -40.775,-26.2488 C 802.468,17.26 797.28,14.5332 797.107,14.4525 l 14.111,-22.20351 0.026,0.01422 c 0.37,0.20867 0.731,0.41259 1.117,0.59754 l 3.116,1.48909 c 7.071,3.65159 15.654,8.1805 24.425,13.00818 18.913,10.41888 23.35,14.08468 28.299,17.25728 z m -5.989,29.3455 c 0.02,0.0284 0.02,0.0332 0,0 z"
               fill="#000000"
               id="path182" />
            <path
               fill-rule="evenodd"
               clip-rule="evenodd"
               d="m 394.948,250.459 c 4.528,-2.58 8.025,-4.353 11.071,-5.349 2.893,-0.939 4.604,-0.911 5.781,-0.617 1.097,0.275 3.137,1.134 6.061,4.496 5.842,6.725 12.629,11.149 20.339,12.828 7.558,1.65 14.548,0.346 20.319,-1.712 5.66,-2.016 10.878,-5.017 15.076,-7.555 1.208,-0.73 2.314,-1.408 3.35,-2.043 2.933,-1.803 5.268,-3.235 7.608,-4.411 l -11.969,-24.665 c -3.472,1.746 -7.182,4.022 -10.344,5.966 -0.863,0.531 -1.691,1.039 -2.457,1.504 -4.015,2.423 -7.259,4.196 -10.192,5.24 -2.818,1 -4.548,1.038 -5.721,0.782 -1.02,-0.223 -2.969,-0.948 -5.751,-4.149 -5.7,-6.559 -12.268,-11.083 -19.837,-12.985 -7.497,-1.882 -14.512,-0.825 -20.496,1.119 -5.827,1.897 -11.345,4.866 -16.055,7.55 -1.533,0.873 -2.975,1.712 -4.36,2.518 -3.224,1.878 -6.152,3.581 -9.305,5.184 l 12.086,24.603 c 3.873,-1.968 7.832,-4.273 11.299,-6.288 1.234,-0.721 2.406,-1.404 3.492,-2.021 z"
               fill="#000000"
               id="path184" />
            <path
               fill-rule="evenodd"
               clip-rule="evenodd"
               d="m 474.772,251.184 c 4.528,-2.579 8.025,-4.353 11.071,-5.344 2.893,-0.939 4.603,-0.911 5.781,-0.617 1.096,0.275 3.137,1.134 6.061,4.496 5.842,6.725 12.629,11.149 20.339,12.828 7.558,1.65 14.547,0.346 20.319,-1.712 5.659,-2.015 10.877,-5.017 15.075,-7.554 1.208,-0.731 2.315,-1.409 3.35,-2.044 2.934,-1.802 5.269,-3.235 7.609,-4.411 l -11.969,-24.665 c -3.467,1.741 -7.177,4.022 -10.345,5.966 -0.863,0.531 -1.69,1.039 -2.456,1.504 -4.015,2.423 -7.259,4.197 -10.193,5.24 -2.817,1 -4.548,1.038 -5.72,0.782 -1.021,-0.223 -2.97,-0.948 -5.751,-4.149 -5.701,-6.559 -12.269,-11.083 -19.837,-12.985 -7.497,-1.882 -14.512,-0.825 -20.497,1.12 -5.827,1.896 -11.344,4.865 -16.055,7.549 -1.533,0.873 -2.974,1.712 -4.36,2.519 -3.223,1.877 -6.152,3.58 -9.304,5.183 l 12.086,24.603 c 3.873,-1.973 7.832,-4.273 11.299,-6.288 1.233,-0.721 2.406,-1.404 3.492,-2.021 z"
               fill="#000000"
               id="path186" />
            <path
               fill-rule="evenodd"
               clip-rule="evenodd"
               d="m 556.261,251.184 c 4.527,-2.579 8.025,-4.353 11.07,-5.344 2.893,-0.939 4.604,-0.911 5.782,-0.617 1.096,0.275 3.137,1.134 6.06,4.496 5.843,6.725 12.629,11.149 20.339,12.828 7.558,1.65 14.548,0.346 20.319,-1.712 5.66,-2.015 10.878,-5.017 15.076,-7.554 1.208,-0.731 2.314,-1.409 3.35,-2.044 2.934,-1.802 5.269,-3.235 7.609,-4.411 l -11.969,-24.665 c -3.472,1.741 -7.183,4.022 -10.345,5.966 -0.863,0.531 -1.69,1.039 -2.457,1.504 -4.015,2.423 -7.258,4.197 -10.192,5.24 -2.817,1 -4.548,1.038 -5.721,0.782 -1.02,-0.223 -2.969,-0.948 -5.751,-4.149 -5.7,-6.559 -12.268,-11.083 -19.836,-12.985 -7.498,-1.882 -14.512,-0.825 -20.497,1.12 -5.827,1.896 -11.345,4.865 -16.055,7.549 -1.533,0.873 -2.975,1.712 -4.36,2.519 -3.223,1.877 -6.152,3.58 -9.304,5.183 l 12.085,24.603 c 3.878,-1.973 7.832,-4.273 11.299,-6.288 1.234,-0.721 2.406,-1.404 3.493,-2.021 z"
               fill="#000000"
               id="path188" />
            <path
               fill-rule="evenodd"
               clip-rule="evenodd"
               d="m 636.831,251.184 c 4.527,-2.579 8.025,-4.353 11.07,-5.344 2.894,-0.939 4.604,-0.911 5.782,-0.617 1.096,0.275 3.137,1.134 6.06,4.496 5.843,6.725 12.629,11.149 20.34,12.828 7.558,1.65 14.547,0.346 20.318,-1.712 5.66,-2.015 10.878,-5.017 15.076,-7.554 1.208,-0.731 2.314,-1.409 3.35,-2.044 2.934,-1.802 5.269,-3.235 7.609,-4.411 l -11.969,-24.665 c -3.467,1.741 -7.178,4.022 -10.345,5.966 -0.863,0.531 -1.69,1.039 -2.457,1.504 -4.015,2.423 -7.258,4.197 -10.192,5.24 -2.817,1 -4.548,1.038 -5.721,0.782 -1.02,-0.223 -2.969,-0.948 -5.751,-4.149 -5.7,-6.559 -12.268,-11.083 -19.836,-12.985 -7.497,-1.882 -14.512,-0.825 -20.497,1.12 -5.827,1.896 -11.345,4.865 -16.055,7.549 -1.533,0.873 -2.974,1.712 -4.36,2.519 -3.223,1.877 -6.152,3.58 -9.304,5.183 l 12.085,24.603 c 3.873,-1.973 7.833,-4.273 11.299,-6.288 1.234,-0.721 2.406,-1.404 3.493,-2.021 z"
               fill="#000000"
               id="path190" />
            <path
               fill-rule="evenodd"
               clip-rule="evenodd"
               d="m 718.324,251.184 c 4.528,-2.579 8.025,-4.353 11.071,-5.344 2.893,-0.939 4.604,-0.911 5.781,-0.617 1.097,0.275 3.137,1.134 6.061,4.496 5.842,6.725 12.629,11.149 20.339,12.828 7.558,1.65 14.548,0.346 20.319,-1.712 5.66,-2.015 10.878,-5.017 15.075,-7.554 1.208,-0.731 2.315,-1.409 3.35,-2.044 2.934,-1.802 5.269,-3.235 7.609,-4.411 L 795.96,222.161 c -3.472,1.741 -7.182,4.022 -10.344,5.966 -0.863,0.531 -1.691,1.039 -2.457,1.504 -4.015,2.423 -7.259,4.197 -10.193,5.24 -2.817,1 -4.548,1.038 -5.72,0.782 -1.02,-0.223 -2.97,-0.948 -5.751,-4.149 -5.7,-6.559 -12.269,-11.083 -19.837,-12.985 -7.497,-1.882 -14.512,-0.825 -20.496,1.12 -5.827,1.896 -11.345,4.865 -16.055,7.549 -1.533,0.873 -2.975,1.712 -4.361,2.519 -3.223,1.877 -6.152,3.58 -9.304,5.183 l 12.086,24.603 c 3.878,-1.973 7.832,-4.273 11.299,-6.288 1.233,-0.721 2.406,-1.404 3.492,-2.021 z"
               fill="#000000"
               id="path192" />
            <path
               fill-rule="evenodd"
               clip-rule="evenodd"
               d="m 800.25,250.71 c 4.527,-2.58 8.025,-4.353 11.07,-5.344 2.893,-0.939 4.604,-0.911 5.782,-0.617 1.096,0.275 3.137,1.134 6.06,4.496 5.843,6.724 12.629,11.149 20.339,12.828 7.558,1.65 14.548,0.346 20.319,-1.712 5.66,-2.016 10.878,-5.017 15.076,-7.555 1.208,-0.73 2.314,-1.408 3.35,-2.044 2.934,-1.802 5.269,-3.234 7.609,-4.41 l -11.969,-24.665 c -3.472,1.741 -7.183,4.022 -10.345,5.966 -0.863,0.531 -1.69,1.039 -2.457,1.503 -4.015,2.424 -7.258,4.197 -10.192,5.241 -2.817,1 -4.548,1.038 -5.721,0.782 -1.02,-0.223 -2.969,-0.948 -5.751,-4.149 -5.7,-6.559 -12.268,-11.083 -19.836,-12.985 -7.498,-1.883 -14.512,-0.825 -20.497,1.119 -5.827,1.897 -11.345,4.866 -16.055,7.55 -1.533,0.873 -2.975,1.712 -4.36,2.518 -3.223,1.878 -6.152,3.581 -9.304,5.184 l 12.085,24.603 c 3.878,-1.973 7.832,-4.273 11.299,-6.289 1.234,-0.72 2.406,-1.403 3.493,-2.02 z"
               fill="#000000"
               id="path194" />
            <path
               d="m 454.611,80.57 c 0.015,5.3683 -1.863,9.8972 -5.63,13.5868 -3.766,3.6895 -8.603,5.5437 -14.517,5.558 -5.908,0.0142 -10.761,-1.8163 -14.547,-5.4869 -3.787,-3.6706 -5.685,-8.1948 -5.7,-13.5631 -0.016,-5.3683 1.862,-9.8972 5.629,-13.5867 3.766,-3.6895 8.603,-5.5438 14.517,-5.558 5.908,-0.0142 10.761,1.8163 14.542,5.4869 3.787,3.6705 5.685,8.1947 5.701,13.563 z"
               fill="#000000"
               id="path196" />
            <path
               d="m 657.251,80.57 c 0.015,5.3683 -1.863,9.8972 -5.629,13.5868 -3.767,3.6895 -8.604,5.5437 -14.518,5.558 -5.908,0.0142 -10.76,-1.8163 -14.542,-5.4869 -3.787,-3.6706 -5.685,-8.1948 -5.7,-13.5631 -0.015,-5.3683 1.863,-9.8972 5.629,-13.5867 3.766,-3.6895 8.604,-5.5438 14.517,-5.558 5.908,-0.0142 10.761,1.8163 14.542,5.4869 3.787,3.6705 5.686,8.1947 5.701,13.563 z"
               fill="#000000"
               id="path198" />
            <path
               d="m 589.706,80.57 c 0.015,5.3683 -1.863,9.8972 -5.629,13.5868 -3.767,3.6895 -8.604,5.5437 -14.517,5.558 -5.909,0.0142 -10.761,-1.8163 -14.543,-5.4869 -3.786,-3.6706 -5.685,-8.1948 -5.7,-13.5631 -0.015,-5.3683 1.863,-9.8972 5.629,-13.5867 3.767,-3.6895 8.604,-5.5438 14.517,-5.558 5.909,-0.0142 10.761,1.8163 14.543,5.4869 3.786,3.6705 5.685,8.1947 5.7,13.563 z"
               fill="#000000"
               id="path200" />
            <path
               d="m 724.801,80.57 c 0.015,5.3683 -1.863,9.8972 -5.629,13.5868 -3.767,3.6895 -8.604,5.5437 -14.517,5.558 -5.909,0.0142 -10.761,-1.8163 -14.543,-5.4869 -3.786,-3.6706 -5.685,-8.1948 -5.7,-13.5631 -0.015,-5.3683 1.863,-9.8972 5.629,-13.5867 3.766,-3.6895 8.604,-5.5438 14.517,-5.558 5.909,-0.0142 10.761,1.8163 14.543,5.4869 3.786,3.6705 5.685,8.1947 5.7,13.563 z"
               fill="#000000"
               id="path202" />
            <path
               d="m 792.346,80.57 c 0.015,5.3683 -1.863,9.8972 -5.629,13.5868 -3.766,3.6895 -8.604,5.5437 -14.517,5.558 -5.908,0.0142 -10.761,-1.8163 -14.543,-5.4869 -3.786,-3.6706 -5.685,-8.1948 -5.7,-13.5631 -0.015,-5.3683 1.863,-9.8972 5.629,-13.5867 3.767,-3.6895 8.604,-5.5438 14.517,-5.558 5.909,-0.0142 10.761,1.8163 14.543,5.4869 3.787,3.6705 5.685,8.1947 5.7,13.563 z"
               fill="#000000"
               id="path204" />
            <path
               d="m 860.445,80.57 c 0.015,5.3683 -1.863,9.8972 -5.63,13.5868 -3.766,3.6895 -8.603,5.5437 -14.517,5.558 -5.908,0.0142 -10.761,-1.8163 -14.542,-5.4869 -3.787,-3.6706 -5.685,-8.1948 -5.7,-13.5631 -0.016,-5.3683 1.863,-9.8972 5.629,-13.5867 3.766,-3.6895 8.604,-5.5438 14.517,-5.558 5.908,-0.0142 10.761,1.8163 14.542,5.4869 3.787,3.6705 5.685,8.1947 5.701,13.563 z"
               fill="#000000"
               id="path206" />
            <path
               d="m 445.114,352.168 c -0.655,-2.044 -1.33,-4.785 -2.183,-8.252 -1.523,-6.198 -3.609,-14.687 -6.39,-22.189 -1.686,-4.553 -3.183,-7.541 -4.356,-9.48 -1.279,2.091 -2.949,5.396 -4.796,10.523 -2.858,7.924 -4.893,16.636 -6.239,22.398 -0.649,2.774 -1.116,4.78 -1.573,6.298 l -28.339,-7.446 c 0.218,-0.73 0.696,-2.755 1.152,-4.718 1.721,-7.37 4.604,-19.7 9.122,-30.517 2.842,-6.81 5.939,-12.122 9.461,-16.228 7.325,-8.537 15.39,-10.419 20.867,-10.495 0.132,0 0.264,0 0.396,0 12.594,0 22.659,8.474 29.938,25.191 4.512,10.367 7.487,22.488 9.461,30.512 0.67,2.736 1.31,5.321 1.686,6.502 l -28.197,7.901 z"
               fill="#000000"
               id="path208" />
            <path
               d="m 546.647,352.168 c -0.655,-2.044 -1.33,-4.785 -2.183,-8.252 -1.523,-6.198 -3.609,-14.687 -6.39,-22.189 -1.686,-4.553 -3.183,-7.541 -4.356,-9.48 -1.279,2.091 -2.949,5.397 -4.796,10.523 -2.858,7.924 -4.893,16.636 -6.239,22.398 -0.649,2.774 -1.116,4.78 -1.573,6.298 l -28.339,-7.446 c 0.218,-0.73 0.696,-2.755 1.152,-4.718 1.721,-7.37 4.604,-19.7 9.122,-30.517 2.842,-6.81 5.939,-12.122 9.461,-16.228 7.325,-8.537 15.39,-10.419 20.867,-10.495 12.781,-0.19 22.979,8.299 30.329,25.191 4.512,10.367 7.487,22.488 9.461,30.512 0.67,2.737 1.31,5.321 1.686,6.502 l -28.197,7.901 z"
               fill="#000000"
               id="path210" />
            <path
               d="m 648.18,352.168 c -0.655,-2.044 -1.33,-4.785 -2.182,-8.252 -1.523,-6.198 -3.609,-14.687 -6.391,-22.189 -1.685,-4.553 -3.183,-7.541 -4.355,-9.48 -1.279,2.091 -2.949,5.396 -4.797,10.523 -2.858,7.924 -4.893,16.636 -6.238,22.398 -0.65,2.774 -1.117,4.78 -1.574,6.298 l -28.338,-7.446 c 0.218,-0.73 0.695,-2.755 1.152,-4.718 1.721,-7.37 4.604,-19.7 9.121,-30.517 2.848,-6.81 5.939,-12.122 9.462,-16.228 7.324,-8.537 15.39,-10.419 20.867,-10.495 0.132,0 0.264,0 0.396,0 12.593,0 22.659,8.474 29.937,25.191 4.513,10.367 7.487,22.488 9.462,30.512 0.67,2.736 1.309,5.321 1.685,6.502 l -28.197,7.901 z"
               fill="#000000"
               id="path212" />
            <path
               d="m 749.714,352.168 c -0.655,-2.044 -1.33,-4.785 -2.183,-8.252 -1.523,-6.198 -3.609,-14.687 -6.39,-22.189 -1.686,-4.553 -3.183,-7.541 -4.356,-9.48 -1.279,2.091 -2.949,5.396 -4.796,10.523 -2.858,7.924 -4.893,16.636 -6.239,22.398 -0.649,2.774 -1.116,4.78 -1.573,6.298 l -28.339,-7.446 c 0.218,-0.73 0.696,-2.755 1.152,-4.718 1.721,-7.37 4.604,-19.7 9.122,-30.517 2.847,-6.81 5.939,-12.122 9.461,-16.228 7.325,-8.537 15.39,-10.419 20.867,-10.495 0.132,0 0.264,0 0.396,0 12.594,0 22.659,8.474 29.938,25.191 4.512,10.367 7.487,22.488 9.461,30.512 0.67,2.736 1.31,5.321 1.686,6.502 l -28.197,7.901 z"
               fill="#000000"
               id="path214" />
            <path
               d="m 851.252,352.168 c -0.655,-2.044 -1.33,-4.785 -2.182,-8.252 -1.523,-6.198 -3.609,-14.687 -6.391,-22.189 -1.685,-4.553 -3.183,-7.541 -4.355,-9.48 -1.279,2.091 -2.949,5.397 -4.797,10.523 -2.858,7.924 -4.893,16.636 -6.238,22.398 -0.65,2.774 -1.117,4.78 -1.574,6.298 l -28.338,-7.446 c 0.218,-0.73 0.695,-2.755 1.152,-4.718 1.721,-7.37 4.604,-19.7 9.121,-30.517 2.848,-6.81 5.939,-12.122 9.462,-16.228 7.324,-8.537 15.39,-10.419 20.867,-10.495 12.766,-0.19 22.978,8.299 30.328,25.191 4.513,10.367 7.487,22.488 9.462,30.512 0.67,2.737 1.309,5.321 1.685,6.502 l -28.197,7.901 z"
               fill="#000000"
               id="path216" />
            <path
               d="m 522.521,79.503 c 0,6.2457 -3.116,11.8131 -7.989,15.4363 -3.65,2.7173 -8.284,4.3439 -13.33,4.3439 h -0.035 c -0.899,1.4608 -1.411,3.1488 -1.411,4.9508 0,1.262 0.254,2.471 0.71,3.581 0.198,0.474 -0.345,0.92 -0.832,0.687 -10.35,-5.036 -17.806,-14.497 -19.451,-25.6746 -0.147,-0.9912 -0.244,-1.9965 -0.299,-3.0114 0,-0.1043 0,-0.2086 0,-0.313 0,-10.9168 9.532,-19.766 21.293,-19.7802 11.771,-0.0142 21.344,8.8634 21.344,19.7802 z"
               fill="#000000"
               id="path218" />
            <path
               d="m 520.999,102.807 c 0,2.968 1.446,5.619 3.71,7.346 1.695,1.294 3.848,2.067 6.188,2.067 h 0.015 c 0.416,0.693 0.655,1.499 0.655,2.357 0,0.603 -0.117,1.176 -0.33,1.703 -0.092,0.223 0.162,0.436 0.385,0.327 4.807,-2.395 8.269,-6.895 9.03,-12.216 0.066,-0.47 0.117,-0.949 0.138,-1.432 v -0.152 c 0,-5.1931 -4.427,-9.4043 -9.888,-9.409 -5.467,-0.0047 -9.909,4.2159 -9.909,9.409 z"
               fill="#000000"
               id="path220" />
          </g>
        </g>
        <g
           style="mix-blend-mode:lighten"
           opacity="0.24"
           id="g311">
          <mask
             id="mask2_3959_39576"
             maskUnits="userSpaceOnUse"
             x="40"
             y="-106"
             width="407"
             height="475">
            <path
               d="M 446.73,-105.793 H 40.6572 V 368.439 H 446.73 Z"
               fill="#ffffff"
               id="path226" />
          </mask>
          <g
             mask="url(#mask2_3959_39576)"
             id="g309">
            <path
               fill-rule="evenodd"
               clip-rule="evenodd"
               d="m 226.488,-64.2463 c 5.507,-4.3961 13.278,-12.1024 15.486,-15.4979 L 216.392,-100.52 c -0.031,0.047 0.055,-0.143 0,0 -7.31,7.0421 -6.447,9.4749 -45.369,36.3591 -21.283,14.7012 -27.115,18.5567 -27.313,18.6753 l 18.928,26.6328 0.03,-0.0189 c 0.416,-0.294 0.817,-0.5786 1.254,-0.8442 l 3.518,-2.1293 c 7.959,-5.1786 17.613,-11.576 27.455,-18.3765 21.228,-14.6585 26.08,-19.6332 31.582,-24.0246 z M 216.397,-100.52 c 0.02,-0.038 0.025,-0.043 0,0 z"
               fill="#000000"
               id="path229" />
            <path
               fill-rule="evenodd"
               clip-rule="evenodd"
               d="m 307.428,-64.2463 c 5.508,-4.3961 13.279,-12.1024 15.487,-15.4979 L 297.332,-100.52 c -0.025,0.047 0.056,-0.143 0,0 -7.309,7.0421 -6.446,9.4749 -45.368,36.3591 -21.283,14.7012 -27.115,18.5567 -27.313,18.6753 l 18.928,26.6328 0.03,-0.0189 c 0.416,-0.294 0.822,-0.5786 1.254,-0.8442 l 3.517,-2.1293 c 7.959,-5.1786 17.614,-11.576 27.456,-18.3765 21.227,-14.6585 26.08,-19.6332 31.587,-24.0246 z m -10.09,-36.2737 c 0.02,-0.038 0.025,-0.043 0,0 z"
               fill="#000000"
               id="path231" />
            <path
               fill-rule="evenodd"
               clip-rule="evenodd"
               d="m 64.6018,-64.2463 c 5.5074,-4.3961 13.2786,-12.1024 15.4866,-15.4979 L 54.5059,-100.52 c -0.0305,0.047 0.0558,-0.143 0,0 -7.3094,7.0421 -6.4464,9.4749 -45.3685,36.3591 -21.2833,14.7012 -27.1155,18.5567 -27.3135,18.6753 l 18.928107,26.6328 0.030452,-0.0189 c 0.416221,-0.294 0.817221,-0.5786 1.253751,-0.8442 l 3.5176,-2.1293 c 7.95899,-5.1786 17.61339,-11.576 27.45559,-18.3765 21.2274,-14.6585 26.08,-19.6332 31.5823,-24.0246 z M 54.5109,-100.52 c 0.0203,-0.038 0.0254,-0.043 0,0 z"
               fill="#000000"
               id="path233" />
            <path
               fill-rule="evenodd"
               clip-rule="evenodd"
               d="m 145.547,-64.2463 c 5.508,-4.3961 13.279,-12.1024 15.487,-15.4979 L 135.451,-100.52 c -0.025,0.047 0.056,-0.143 0,0 -7.309,7.0421 -6.446,9.4749 -45.3683,36.3591 -21.2832,14.7012 -27.1154,18.5567 -27.3134,18.6753 l 18.928,26.6328 0.0305,-0.0189 c 0.4162,-0.294 0.8223,-0.5786 1.2538,-0.8442 l 3.5176,-2.1293 c 7.959,-5.1786 17.6138,-11.576 27.4558,-18.3765 21.227,-14.6585 26.08,-19.6332 31.587,-24.0246 z M 135.456,-100.52 c 0.021,-0.038 0.026,-0.043 0,0 z"
               fill="#000000"
               id="path235" />
            <path
               fill-rule="evenodd"
               clip-rule="evenodd"
               d="m 388.374,-64.2463 c 5.507,-4.3961 13.278,-12.1024 15.486,-15.4979 L 378.278,-100.52 c -0.026,0.047 0.056,-0.143 0,0 -7.309,7.0421 -6.447,9.4749 -45.369,36.3591 -21.283,14.7012 -27.115,18.5567 -27.313,18.6753 l 18.928,26.6328 0.03,-0.0189 c 0.417,-0.294 0.818,-0.5786 1.254,-0.8442 l 3.518,-2.1293 c 7.959,-5.1786 17.613,-11.576 27.455,-18.3765 21.228,-14.6585 26.08,-19.6332 31.588,-24.0246 z M 378.283,-100.52 c 0.02,-0.038 0.025,-0.043 0,0 z"
               fill="#000000"
               id="path237" />
            <path
               fill-rule="evenodd"
               clip-rule="evenodd"
               d="m 469.314,-64.2463 c 5.508,-4.3961 13.279,-12.1024 15.487,-15.4979 L 459.218,-100.52 c -0.025,0.047 0.056,-0.143 0,0 -7.309,7.0421 -6.446,9.4749 -45.368,36.3591 -21.284,14.7012 -27.116,18.5567 -27.314,18.6753 l 18.928,26.6328 0.031,-0.0189 c 0.416,-0.294 0.817,-0.5786 1.254,-0.8442 l 3.517,-2.1293 c 7.959,-5.1786 17.614,-11.576 27.456,-18.3765 21.227,-14.6585 26.08,-19.6332 31.582,-24.0246 z M 459.223,-100.52 c 0.021,-0.038 0.026,-0.043 0,0 z"
               fill="#000000"
               id="path239" />
            <path
               fill-rule="evenodd"
               clip-rule="evenodd"
               d="m 101.037,188.32 c 5.751,4.112 15.446,9.599 19.461,10.908 l 16.39,-27.724 c -0.056,-0.014 0.162,0.024 0,0 -8.898,-5.202 -11.269,-3.908 -47.5563,-33.836 C 69.49,121.302 64.2314,116.782 64.0639,116.631 l -23.9126,22.867 0.0304,0.024 c 0.3909,0.318 0.7766,0.626 1.1421,0.967 l 2.9643,2.77 c 7.086,6.184 15.8064,13.667 24.9837,21.236 19.7858,16.318 26.0089,19.714 31.7602,23.821 z m 35.851,-16.816 c 0.041,0.01 0.051,0.014 0,0 z"
               fill="#000000"
               id="path241" />
            <path
               fill-rule="evenodd"
               clip-rule="evenodd"
               d="m 22.6139,188.32 c 5.751,4.112 15.446,9.599 19.461,10.908 L 58.465,171.504 c -0.0558,-0.014 0.1625,0.024 0,0 -8.898,-5.202 -11.2685,-3.908 -47.5561,-33.836 -19.84176,-16.366 -25.1004,-20.886 -25.2679,-21.037 l -23.9075,22.872 0.0304,0.024 c 0.3909,0.317 0.7766,0.626 1.1421,0.967 l 2.9643,2.77 c 7.086,6.184 15.8064,13.667 24.98365,21.236 19.78585,16.318 26.00895,19.714 31.75995,23.82 z M 58.465,171.504 c 0.0406,0.01 0.0508,0.014 0,0 z"
               fill="#000000"
               id="path243" />
            <path
               fill-rule="evenodd"
               clip-rule="evenodd"
               d="m 183.008,188.32 c 5.751,4.112 15.446,9.599 19.461,10.908 l 16.39,-27.724 c -0.056,-0.014 0.162,0.024 0,0 -8.898,-5.202 -11.269,-3.908 -47.556,-33.836 -19.842,-16.366 -25.101,-20.886 -25.268,-21.037 l -23.908,22.867 0.031,0.024 c 0.39,0.318 0.776,0.626 1.142,0.967 l 2.964,2.77 c 7.086,6.184 15.806,13.667 24.984,21.236 19.786,16.318 26.009,19.714 31.76,23.821 z m 35.851,-16.816 c 0.04,0.01 0.05,0.014 0,0 z"
               fill="#000000"
               id="path245" />
            <path
               fill-rule="evenodd"
               clip-rule="evenodd"
               d="m 264.984,188.32 c 5.751,4.112 15.446,9.599 19.461,10.908 l 16.39,-27.724 c -0.056,-0.014 0.162,0.024 0,0 -8.898,-5.202 -11.269,-3.908 -47.556,-33.836 -19.842,-16.366 -25.101,-20.886 -25.268,-21.037 l -23.913,22.867 0.031,0.024 c 0.39,0.318 0.776,0.626 1.142,0.967 l 2.964,2.77 c 7.086,6.184 15.806,13.667 24.984,21.236 19.785,16.318 26.009,19.714 31.76,23.821 z m 35.851,-16.816 c 0.04,0.01 0.05,0.014 0,0 z"
               fill="#000000"
               id="path247" />
            <path
               fill-rule="evenodd"
               clip-rule="evenodd"
               d="m 346.955,188.32 c 5.751,4.112 15.446,9.599 19.461,10.908 l 16.39,-27.724 c -0.056,-0.014 0.162,0.024 0,0 -8.898,-5.202 -11.269,-3.908 -47.556,-33.836 -19.842,-16.366 -25.101,-20.886 -25.268,-21.037 l -23.913,22.867 0.031,0.024 c 0.39,0.318 0.776,0.626 1.142,0.967 l 2.964,2.77 c 7.086,6.184 15.806,13.667 24.984,21.236 19.785,16.318 26.008,19.714 31.759,23.821 z m 35.851,-16.816 c 0.04,0.01 0.05,0.014 0,0 z"
               fill="#000000"
               id="path249" />
            <path
               fill-rule="evenodd"
               clip-rule="evenodd"
               d="m 428.93,188.32 c 5.751,4.112 15.446,9.599 19.461,10.908 l 16.391,-27.724 c -0.056,-0.014 0.162,0.024 0,0 -8.899,-5.202 -11.269,-3.908 -47.557,-33.836 -19.841,-16.366 -25.1,-20.886 -25.267,-21.037 l -23.913,22.867 0.03,0.024 c 0.391,0.318 0.777,0.626 1.142,0.967 l 2.965,2.77 c 7.086,6.184 15.806,13.667 24.983,21.236 19.786,16.318 26.009,19.714 31.76,23.821 z m 35.852,-16.816 c 0.04,0.01 0.05,0.014 0,0 z"
               fill="#000000"
               id="path251" />
            <path
               fill-rule="evenodd"
               clip-rule="evenodd"
               d="m 44.5929,24.6106 c -4.949,3.1726 -12.035,8.8397 -14.1364,11.4053 l 20.126,17.9402 c -0.061,0.1091 0.0253,-0.0379 0,0 6.6494,-5.1691 6.091,-7.1467 40.7747,-26.2488 C 110.321,17.26 115.508,14.5332 115.681,14.4525 l -14.111,-22.20351 -0.025,0.01422 c -0.371,0.20867 -0.731,0.41259 -1.117,0.59754 l -3.1168,1.48909 C 90.2405,-1.99857 81.6572,2.53034 72.886,7.35802 53.9732,17.7769 49.5368,21.4427 44.5878,24.6153 Z m 5.9896,29.3455 c -0.0204,0.0284 -0.0204,0.0332 0,0 z"
               fill="#000000"
               id="path253" />
            <path
               fill-rule="evenodd"
               clip-rule="evenodd"
               d="m 55.3129,24.6106 c 4.9592,3.1726 12.0604,8.8397 14.1618,11.4053 L 49.3081,53.9561 c -0.0254,-0.0379 0.0609,0.1091 0,0 C 42.6485,48.787 43.2018,46.8094 8.45721,27.7073 -10.5419,17.26 -15.7396,14.5332 -15.9122,14.4525 l 14.13639,-22.20351 0.02538,0.01422 c 0.37054,0.20867 0.73093,0.41259 1.116694,0.59754 L 2.48795,-5.65016 C 9.56884,-1.99857 18.1725,2.53034 26.9589,7.35802 45.9072,17.7769 50.3537,21.4427 55.3078,24.6153 Z m -6.0048,29.3455 c 0.0203,0.0284 0.0254,0.0332 0,0 z"
               fill="#000000"
               id="path255" />
            <path
               fill-rule="evenodd"
               clip-rule="evenodd"
               d="m 146.75,24.6106 c -4.949,3.1726 -12.035,8.8397 -14.136,11.4053 l 20.126,17.9402 c -0.061,0.1091 0.025,-0.0379 0,0 6.649,-5.1691 6.091,-7.1467 40.775,-26.2488 18.963,-10.4473 24.151,-13.1741 24.324,-13.2548 l -14.111,-22.20351 -0.026,0.01422 c -0.37,0.20867 -0.731,0.41259 -1.117,0.59754 l -3.116,1.48909 c -7.071,3.65159 -15.654,8.1805 -24.425,13.00818 -18.913,10.41888 -23.35,14.08468 -28.299,17.25728 z m 5.99,29.3455 c -0.025,0.0332 -0.02,0.0284 0,0 z"
               fill="#000000"
               id="path257" />
            <path
               fill-rule="evenodd"
               clip-rule="evenodd"
               d="m 158.851,24.6106 c 4.949,3.1726 12.035,8.8397 14.137,11.4053 l -20.126,17.9402 c -0.026,-0.0379 0.061,0.1091 0,0 -6.65,-5.1691 -6.091,-7.1467 -40.775,-26.2488 C 93.1233,17.26 87.9358,14.5332 87.7632,14.4525 l 14.1108,-22.20351 0.026,0.01422 c 0.37,0.20867 0.731,0.41259 1.116,0.59754 l 3.117,1.48909 c 7.071,3.65159 15.654,8.1805 24.425,13.00818 18.913,10.41888 23.349,14.08468 28.298,17.25728 z m -5.989,29.3455 c 0.02,0.0284 0.02,0.0332 0,0 z"
               fill="#000000"
               id="path259" />
            <path
               fill-rule="evenodd"
               clip-rule="evenodd"
               d="m 247.451,24.6106 c -4.949,3.1726 -12.035,8.8397 -14.136,11.4053 l 20.126,17.9402 c -0.061,0.1091 0.025,-0.0379 0,0 6.649,-5.1691 6.091,-7.1467 40.775,-26.2488 18.963,-10.4473 24.151,-13.1741 24.323,-13.2548 l -14.111,-22.20351 -0.025,0.01422 c -0.371,0.20867 -0.731,0.41259 -1.117,0.59754 l -3.116,1.48909 C 293.099,-1.99857 284.515,2.53034 275.744,7.35802 256.831,17.7769 252.395,21.4427 247.446,24.6153 Z m 5.99,29.3455 c -0.026,0.0332 -0.021,0.0284 0,0 z"
               fill="#000000"
               id="path261" />
            <path
               fill-rule="evenodd"
               clip-rule="evenodd"
               d="m 259.547,24.6106 c 4.949,3.1726 12.035,8.8397 14.136,11.4053 l -20.126,17.9402 c -0.025,-0.0379 0.061,0.1091 0,0 C 246.908,48.787 247.466,46.8094 212.783,27.7073 193.819,17.26 188.632,14.5332 188.459,14.4525 l 14.111,-22.20351 0.025,0.01422 c 0.371,0.20867 0.731,0.41259 1.117,0.59754 l 3.117,1.48909 c 7.07,3.65159 15.654,8.1805 24.425,13.00818 18.913,10.41888 23.349,14.08468 28.298,17.25728 z m -5.99,29.3455 c 0.021,0.0284 0.021,0.0332 0,0 z"
               fill="#000000"
               id="path263" />
            <path
               fill-rule="evenodd"
               clip-rule="evenodd"
               d="m 348.375,24.6106 c -4.949,3.1726 -12.034,8.8397 -14.136,11.4053 l 20.126,17.9402 c -0.061,0.1091 0.025,-0.0379 0,0 6.65,-5.1691 6.091,-7.1467 40.775,-26.2488 18.963,-10.4473 24.151,-13.1741 24.324,-13.2548 l -14.111,-22.20351 -0.026,0.01422 c -0.37,0.20867 -0.731,0.41259 -1.117,0.59754 l -3.116,1.48909 C 394.023,-1.99857 385.44,2.53034 376.669,7.35802 357.756,17.7769 353.319,21.4427 348.37,24.6153 Z m 5.99,29.3455 c -0.025,0.0332 -0.02,0.0284 0,0 z"
               fill="#000000"
               id="path265" />
            <path
               fill-rule="evenodd"
               clip-rule="evenodd"
               d="m 361.486,24.6106 c 4.949,3.1726 12.035,8.8397 14.137,11.4053 l -20.126,17.9402 c -0.025,-0.0379 0.061,0.1091 0,0 -6.65,-5.1691 -6.091,-7.1467 -40.775,-26.2488 C 295.759,17.26 290.571,14.5332 290.398,14.4525 l 14.111,-22.20351 0.026,0.01422 c 0.37,0.20867 0.731,0.41259 1.117,0.59754 l 3.116,1.48909 c 7.071,3.65159 15.654,8.1805 24.425,13.00818 18.913,10.41888 23.35,14.08468 28.299,17.25728 z m -5.989,29.3455 c 0.02,0.0284 0.02,0.0332 0,0 z"
               fill="#000000"
               id="path267" />
            <path
               fill-rule="evenodd"
               clip-rule="evenodd"
               d="m 461.858,24.6106 c 4.949,3.1726 12.035,8.8397 14.136,11.4053 l -20.126,17.9402 c -0.025,-0.0379 0.061,0.1091 0,0 C 449.219,48.787 449.777,46.8094 415.093,27.7073 396.13,17.26 390.942,14.5332 390.77,14.4525 l 14.11,-22.20351 0.026,0.01422 c 0.37,0.20867 0.731,0.41259 1.117,0.59754 l 3.116,1.48909 c 7.071,3.65159 15.654,8.1805 24.425,13.00818 18.913,10.41888 23.35,14.08468 28.299,17.25728 z m -5.99,29.3455 c 0.02,0.0284 0.02,0.0332 0,0 z"
               fill="#000000"
               id="path269" />
            <path
               fill-rule="evenodd"
               clip-rule="evenodd"
               d="m -11.3895,250.459 c 4.52773,-2.58 8.02503,-4.353 11.070572,-5.349 2.893268,-0.939 4.603848,-0.911 5.781458,-0.617 1.0964,0.275 3.13691,1.134 6.06067,4.496 5.8423,6.725 12.6288,11.149 20.3391,12.828 7.558,1.65 14.5476,0.346 20.3189,-1.712 5.6596,-2.016 10.8776,-5.017 15.0754,-7.555 1.2081,-0.73 2.3146,-1.408 3.3501,-2.043 2.9339,-1.803 5.2688,-3.235 7.6088,-4.411 l -11.969,-24.665 c -3.4719,1.746 -7.1824,4.022 -10.3447,5.966 -0.8629,0.531 -1.6903,1.039 -2.4567,1.504 -4.0151,2.423 -7.2586,4.196 -10.1924,5.24 -2.8172,1 -4.5481,1.038 -5.7206,0.782 -1.0203,-0.223 -2.9694,-0.948 -5.751,-4.149 -5.7002,-6.559 -12.2685,-11.083 -19.8366,-12.985 -7.49715,-1.882 -14.51205,-0.825 -20.49655,1.119 -5.82715,1.897 -11.34465,4.866 -16.05505,7.55 -1.533,0.873 -2.9745,1.712 -4.3602,2.518 -3.2232,1.878 -6.152,3.581 -9.3042,5.184 l 12.0857,24.603 c 3.873,-1.968 7.8322,-4.273 11.299,-6.288 1.2335,-0.721 2.406,-1.404 3.4922,-2.021 z"
               fill="#000000"
               id="path271" />
            <path
               fill-rule="evenodd"
               clip-rule="evenodd"
               d="m 68.4341,251.184 c 4.5277,-2.579 8.025,-4.353 11.0706,-5.344 2.8932,-0.939 4.6038,-0.911 5.7814,-0.617 1.0964,0.275 3.1369,1.134 6.0607,4.496 5.8423,6.725 12.6292,11.149 20.3392,12.828 7.558,1.65 14.547,0.346 20.319,-1.712 5.659,-2.015 10.877,-5.017 15.075,-7.554 1.208,-0.731 2.315,-1.409 3.35,-2.044 2.934,-1.802 5.269,-3.235 7.609,-4.411 L 146.07,222.161 c -3.467,1.741 -7.177,4.022 -10.345,5.966 -0.862,0.531 -1.69,1.039 -2.456,1.504 -4.015,2.423 -7.259,4.197 -10.193,5.24 -2.817,1 -4.548,1.038 -5.72,0.782 -1.021,-0.223 -2.97,-0.948 -5.751,-4.149 -5.701,-6.559 -12.2688,-11.083 -19.8369,-12.985 -7.4972,-1.882 -14.5121,-0.825 -20.4966,1.12 -5.8271,1.896 -11.3446,4.865 -16.0551,7.549 -1.5329,0.873 -2.9744,1.712 -4.3602,2.519 -3.2232,1.877 -6.152,3.58 -9.3041,5.183 l 12.0857,24.603 c 3.873,-1.973 7.8322,-4.273 11.299,-6.288 1.2335,-0.721 2.406,-1.404 3.4922,-2.021 z"
               fill="#000000"
               id="path273" />
            <path
               fill-rule="evenodd"
               clip-rule="evenodd"
               d="m 149.923,251.184 c 4.527,-2.579 8.025,-4.353 11.07,-5.344 2.894,-0.939 4.604,-0.911 5.782,-0.617 1.096,0.275 3.137,1.134 6.06,4.496 5.843,6.725 12.629,11.149 20.34,12.828 7.558,1.65 14.547,0.346 20.318,-1.712 5.66,-2.015 10.878,-5.017 15.076,-7.554 1.208,-0.731 2.314,-1.409 3.35,-2.044 2.934,-1.802 5.269,-3.235 7.609,-4.411 l -11.969,-24.665 c -3.472,1.741 -7.183,4.022 -10.345,5.966 -0.863,0.531 -1.69,1.039 -2.457,1.504 -4.015,2.423 -7.258,4.197 -10.192,5.24 -2.817,1 -4.548,1.038 -5.721,0.782 -1.02,-0.223 -2.969,-0.948 -5.751,-4.149 -5.7,-6.559 -12.268,-11.083 -19.836,-12.985 -7.497,-1.882 -14.512,-0.825 -20.497,1.12 -5.827,1.896 -11.345,4.865 -16.055,7.549 -1.533,0.873 -2.974,1.712 -4.36,2.519 -3.223,1.877 -6.152,3.58 -9.304,5.183 l 12.085,24.603 c 3.878,-1.973 7.833,-4.273 11.299,-6.288 1.234,-0.721 2.406,-1.404 3.493,-2.021 z"
               fill="#000000"
               id="path275" />
            <path
               fill-rule="evenodd"
               clip-rule="evenodd"
               d="m 230.493,251.184 c 4.528,-2.579 8.025,-4.353 11.07,-5.344 2.894,-0.939 4.604,-0.911 5.782,-0.617 1.096,0.275 3.137,1.134 6.06,4.496 5.843,6.725 12.629,11.149 20.34,12.828 7.558,1.65 14.547,0.346 20.318,-1.712 5.66,-2.015 10.878,-5.017 15.076,-7.554 1.208,-0.731 2.315,-1.409 3.35,-2.044 2.934,-1.802 5.269,-3.235 7.609,-4.411 l -11.969,-24.665 c -3.467,1.741 -7.177,4.022 -10.345,5.966 -0.863,0.531 -1.69,1.039 -2.457,1.504 -4.015,2.423 -7.258,4.197 -10.192,5.24 -2.817,1 -4.548,1.038 -5.721,0.782 -1.02,-0.223 -2.969,-0.948 -5.751,-4.149 -5.7,-6.559 -12.268,-11.083 -19.836,-12.985 -7.497,-1.882 -14.512,-0.825 -20.497,1.12 -5.827,1.896 -11.344,4.865 -16.055,7.549 -1.533,0.873 -2.974,1.712 -4.36,2.519 -3.223,1.877 -6.152,3.58 -9.304,5.183 l 12.086,24.603 c 3.872,-1.973 7.832,-4.273 11.299,-6.288 1.233,-0.721 2.405,-1.404 3.492,-2.021 z"
               fill="#000000"
               id="path277" />
            <path
               fill-rule="evenodd"
               clip-rule="evenodd"
               d="m 311.986,251.184 c 4.528,-2.579 8.025,-4.353 11.071,-5.344 2.893,-0.939 4.604,-0.911 5.781,-0.617 1.097,0.275 3.137,1.134 6.061,4.496 5.842,6.725 12.629,11.149 20.339,12.828 7.558,1.65 14.548,0.346 20.319,-1.712 5.66,-2.015 10.878,-5.017 15.075,-7.554 1.209,-0.731 2.315,-1.409 3.351,-2.044 2.934,-1.802 5.268,-3.235 7.608,-4.411 l -11.969,-24.665 c -3.472,1.741 -7.182,4.022 -10.344,5.966 -0.863,0.531 -1.691,1.039 -2.457,1.504 -4.015,2.423 -7.259,4.197 -10.192,5.24 -2.818,1 -4.548,1.038 -5.721,0.782 -1.02,-0.223 -2.969,-0.948 -5.751,-4.149 -5.7,-6.559 -12.268,-11.083 -19.837,-12.985 -7.497,-1.882 -14.512,-0.825 -20.496,1.12 -5.827,1.896 -11.345,4.865 -16.055,7.549 -1.533,0.873 -2.975,1.712 -4.36,2.519 -3.224,1.877 -6.152,3.58 -9.305,5.183 l 12.086,24.603 c 3.878,-1.973 7.832,-4.273 11.299,-6.288 1.234,-0.721 2.406,-1.404 3.492,-2.021 z"
               fill="#000000"
               id="path279" />
            <path
               fill-rule="evenodd"
               clip-rule="evenodd"
               d="m 393.912,250.71 c 4.527,-2.58 8.025,-4.353 11.07,-5.344 2.894,-0.939 4.604,-0.911 5.782,-0.617 1.096,0.275 3.137,1.134 6.06,4.496 5.843,6.724 12.629,11.149 20.34,12.828 7.558,1.65 14.547,0.346 20.318,-1.712 5.66,-2.016 10.878,-5.017 15.076,-7.555 1.208,-0.73 2.314,-1.408 3.35,-2.044 2.934,-1.802 5.269,-3.234 7.609,-4.41 l -11.969,-24.665 c -3.472,1.741 -7.183,4.022 -10.345,5.966 -0.863,0.531 -1.69,1.039 -2.457,1.503 -4.015,2.424 -7.258,4.197 -10.192,5.241 -2.817,1 -4.548,1.038 -5.721,0.782 -1.02,-0.223 -2.969,-0.948 -5.751,-4.149 -5.7,-6.559 -12.268,-11.083 -19.836,-12.985 -7.497,-1.883 -14.512,-0.825 -20.497,1.119 -5.827,1.897 -11.344,4.866 -16.055,7.55 -1.533,0.873 -2.974,1.712 -4.36,2.518 -3.223,1.878 -6.152,3.581 -9.304,5.184 l 12.085,24.603 c 3.878,-1.973 7.833,-4.273 11.299,-6.289 1.234,-0.72 2.406,-1.403 3.493,-2.02 z"
               fill="#000000"
               id="path281" />
            <path
               d="m 48.2728,80.57 c 0.0152,5.3683 -1.8629,9.8972 -5.6292,13.5868 -3.7663,3.6895 -8.6037,5.5437 -14.5171,5.558 C 22.2181,99.729 17.3656,97.8985 13.579,94.2279 9.79232,90.5573 7.89394,86.0331 7.87871,80.6648 7.86348,75.2965 9.74157,70.7676 13.5079,67.0781 c 3.7663,-3.6895 8.6037,-5.5438 14.5171,-5.558 5.9083,-0.0142 10.7609,1.8163 14.5425,5.4869 3.7866,3.6705 5.685,8.1947 5.7002,13.563 z"
               fill="#000000"
               id="path283" />
            <path
               d="m 250.913,80.57 c 0.015,5.3683 -1.863,9.8972 -5.629,13.5868 -3.767,3.6895 -8.604,5.5437 -14.517,5.558 -5.909,0.0142 -10.761,-1.8163 -14.543,-5.4869 -3.787,-3.6706 -5.685,-8.1948 -5.7,-13.5631 -0.015,-5.3683 1.863,-9.8972 5.629,-13.5867 3.766,-3.6895 8.604,-5.5438 14.517,-5.558 5.908,-0.0142 10.761,1.8163 14.543,5.4869 3.786,3.6705 5.685,8.1947 5.7,13.563 z"
               fill="#000000"
               id="path285" />
            <path
               d="m 183.368,80.57 c 0.015,5.3683 -1.863,9.8972 -5.629,13.5868 -3.766,3.6895 -8.604,5.5437 -14.517,5.558 -5.909,0.0142 -10.761,-1.8163 -14.543,-5.4869 -3.786,-3.6706 -5.685,-8.1948 -5.7,-13.5631 -0.015,-5.3683 1.863,-9.8972 5.629,-13.5867 3.767,-3.6895 8.604,-5.5438 14.517,-5.558 5.909,-0.0142 10.761,1.8163 14.543,5.4869 3.786,3.6705 5.685,8.1947 5.7,13.563 z"
               fill="#000000"
               id="path287" />
            <path
               d="m 318.463,80.57 c 0.015,5.3683 -1.863,9.8972 -5.629,13.5868 -3.766,3.6895 -8.604,5.5437 -14.517,5.558 -5.909,0.0142 -10.761,-1.8163 -14.543,-5.4869 -3.786,-3.6706 -5.685,-8.1948 -5.7,-13.5631 -0.015,-5.3683 1.863,-9.8972 5.629,-13.5867 3.767,-3.6895 8.604,-5.5438 14.517,-5.558 5.909,-0.0142 10.761,1.8163 14.543,5.4869 3.786,3.6705 5.685,8.1947 5.7,13.563 z"
               fill="#000000"
               id="path289" />
            <path
               d="m 386.008,80.57 c 0.016,5.3683 -1.863,9.8972 -5.629,13.5868 -3.766,3.6895 -8.604,5.5437 -14.517,5.558 -5.908,0.0142 -10.761,-1.8163 -14.542,-5.4869 -3.787,-3.6706 -5.685,-8.1948 -5.701,-13.5631 -0.015,-5.3683 1.863,-9.8972 5.63,-13.5867 3.766,-3.6895 8.603,-5.5438 14.517,-5.558 5.908,-0.0142 10.761,1.8163 14.542,5.4869 3.787,3.6705 5.685,8.1947 5.7,13.563 z"
               fill="#000000"
               id="path291" />
            <path
               d="m 454.107,80.57 c 0.015,5.3683 -1.863,9.8972 -5.629,13.5868 -3.767,3.6895 -8.604,5.5437 -14.518,5.558 -5.908,0.0142 -10.76,-1.8163 -14.542,-5.4869 -3.787,-3.6706 -5.685,-8.1948 -5.7,-13.5631 -0.015,-5.3683 1.863,-9.8972 5.629,-13.5867 3.766,-3.6895 8.604,-5.5438 14.517,-5.558 5.908,-0.0142 10.761,1.8163 14.542,5.4869 3.787,3.6705 5.686,8.1947 5.701,13.563 z"
               fill="#000000"
               id="path293" />
            <path
               d="m 38.7759,352.168 c -0.6548,-2.044 -1.3299,-4.785 -2.1826,-8.252 -1.5228,-6.198 -3.609,-14.687 -6.3906,-22.189 -1.6852,-4.553 -3.1826,-7.541 -4.3551,-9.48 -1.2792,2.091 -2.9491,5.396 -4.7968,10.523 -2.8577,7.924 -4.8931,16.636 -6.2383,22.398 -0.6497,2.774 -1.1167,4.78 -1.5735,6.298 l -28.3388,-7.446 c 0.2183,-0.73 0.6954,-2.755 1.1523,-4.718 1.7207,-7.37 4.60381,-19.7 9.12136,-30.517 2.84251,-6.81 5.93881,-12.122 9.46149,-16.228 7.32455,-8.537 15.39015,-10.419 20.86705,-10.495 0.132,0 0.2639,0 0.3959,0 12.5933,0 22.6589,8.474 29.9377,25.191 4.5125,10.367 7.487,22.488 9.4615,30.512 0.67,2.736 1.3096,5.321 1.6852,6.502 l -28.1966,7.901 z"
               fill="#000000"
               id="path295" />
            <path
               d="m 140.309,352.168 c -0.655,-2.044 -1.33,-4.785 -2.183,-8.252 -1.522,-6.198 -3.609,-14.687 -6.39,-22.189 -1.685,-4.553 -3.183,-7.541 -4.355,-9.48 -1.28,2.091 -2.95,5.397 -4.797,10.523 -2.858,7.924 -4.893,16.636 -6.238,22.398 -0.65,2.774 -1.117,4.78 -1.574,6.298 L 86.4332,344.02 c 0.2183,-0.73 0.6954,-2.755 1.1523,-4.718 1.7207,-7.37 4.6038,-19.7 9.1214,-30.517 2.8425,-6.81 5.9391,-12.122 9.4611,-16.228 7.325,-8.537 15.391,-10.419 20.867,-10.495 12.782,-0.19 22.979,8.299 30.329,25.191 4.512,10.367 7.487,22.488 9.461,30.512 0.67,2.737 1.31,5.321 1.686,6.502 l -28.197,7.901 z"
               fill="#000000"
               id="path297" />
            <path
               d="m 241.842,352.168 c -0.654,-2.044 -1.33,-4.785 -2.182,-8.252 -1.523,-6.198 -3.609,-14.687 -6.391,-22.189 -1.685,-4.553 -3.182,-7.541 -4.355,-9.48 -1.279,2.091 -2.949,5.396 -4.797,10.523 -2.857,7.924 -4.893,16.636 -6.238,22.398 -0.65,2.774 -1.117,4.78 -1.574,6.298 l -28.338,-7.446 c 0.218,-0.73 0.695,-2.755 1.152,-4.718 1.721,-7.37 4.604,-19.7 9.121,-30.517 2.848,-6.81 5.939,-12.122 9.462,-16.228 7.324,-8.537 15.39,-10.419 20.867,-10.495 0.132,0 0.264,0 0.396,0 12.593,0 22.659,8.474 29.938,25.191 4.512,10.367 7.486,22.488 9.461,30.512 0.67,2.736 1.31,5.321 1.685,6.502 l -28.196,7.901 z"
               fill="#000000"
               id="path299" />
            <path
               d="m 343.376,352.168 c -0.655,-2.044 -1.33,-4.785 -2.183,-8.252 -1.522,-6.198 -3.609,-14.687 -6.39,-22.189 -1.686,-4.553 -3.183,-7.541 -4.355,-9.48 -1.28,2.091 -2.95,5.396 -4.797,10.523 -2.858,7.924 -4.893,16.636 -6.238,22.398 -0.65,2.774 -1.117,4.78 -1.574,6.298 L 289.5,344.02 c 0.218,-0.73 0.696,-2.755 1.152,-4.718 1.721,-7.37 4.604,-19.7 9.122,-30.517 2.847,-6.81 5.939,-12.122 9.461,-16.228 7.325,-8.537 15.39,-10.419 20.867,-10.495 0.132,0 0.264,0 0.396,0 12.594,0 22.659,8.474 29.938,25.191 4.513,10.367 7.487,22.488 9.462,30.512 0.67,2.736 1.309,5.321 1.685,6.502 l -28.197,7.901 z"
               fill="#000000"
               id="path301" />
            <path
               d="m 444.914,352.168 c -0.654,-2.044 -1.33,-4.785 -2.182,-8.252 -1.523,-6.198 -3.609,-14.687 -6.391,-22.189 -1.685,-4.553 -3.182,-7.541 -4.355,-9.48 -1.279,2.091 -2.949,5.397 -4.797,10.523 -2.857,7.924 -4.893,16.636 -6.238,22.398 -0.65,2.774 -1.117,4.78 -1.574,6.298 l -28.338,-7.446 c 0.218,-0.73 0.695,-2.755 1.152,-4.718 1.721,-7.37 4.604,-19.7 9.121,-30.517 2.848,-6.81 5.939,-12.122 9.462,-16.228 7.324,-8.537 15.39,-10.419 20.867,-10.495 12.766,-0.19 22.979,8.299 30.328,25.191 4.513,10.367 7.487,22.488 9.462,30.512 0.67,2.737 1.309,5.321 1.685,6.502 l -28.197,7.901 z"
               fill="#000000"
               id="path303" />
            <path
               d="m 116.183,79.503 c 0,6.2457 -3.116,11.8131 -7.989,15.4363 -3.65,2.7173 -8.2841,4.3439 -13.3295,4.3439 H 94.829 c -0.8985,1.4608 -1.4112,3.1488 -1.4112,4.9508 0,1.262 0.2538,2.471 0.7107,3.581 0.1979,0.474 -0.3452,0.92 -0.8325,0.687 C 82.9463,103.466 75.4898,94.005 73.8452,82.8274 73.698,81.8362 73.6015,80.8309 73.5457,79.816 c 0,-0.1043 0,-0.2086 0,-0.313 0,-10.9168 9.5325,-19.766 21.2934,-19.7802 11.7709,-0.0142 21.3439,8.8634 21.3439,19.7802 z"
               fill="#000000"
               id="path305" />
            <path
               d="m 114.661,102.807 c 0,2.968 1.446,5.619 3.71,7.346 1.695,1.294 3.848,2.067 6.188,2.067 h 0.015 c 0.416,0.693 0.655,1.499 0.655,2.357 0,0.603 -0.117,1.176 -0.33,1.703 -0.092,0.223 0.162,0.436 0.386,0.327 4.806,-2.395 8.268,-6.895 9.03,-12.216 0.066,-0.47 0.116,-0.949 0.137,-1.432 v -0.152 c 0,-5.1931 -4.427,-9.4043 -9.888,-9.409 -5.467,-0.0047 -9.908,4.2159 -9.908,9.409 z"
               fill="#000000"
               id="path307" />
          </g>
        </g>
        <g
           style="mix-blend-mode:lighten"
           opacity="0.24"
           id="g398">
          <mask
             id="mask3_3959_39576"
             maskUnits="userSpaceOnUse"
             x="853"
             y="-106"
             width="407"
             height="475">
            <path
               d="M 1259.07,-105.793 H 853 v 474.232 h 406.07 z"
               fill="#ffffff"
               id="path313" />
          </mask>
          <g
             mask="url(#mask3_3959_39576)"
             id="g396">
            <path
               fill-rule="evenodd"
               clip-rule="evenodd"
               d="m 1038.83,-64.2463 c 5.51,-4.3961 13.28,-12.1024 15.49,-15.4979 l -25.59,-20.7758 c -0.03,0.047 0.06,-0.143 0,0 -7.31,7.0421 -6.44,9.4749 -45.365,36.3591 -21.283,14.7012 -27.116,18.5567 -27.314,18.6753 l 18.929,26.6328 0.03,-0.0189 c 0.416,-0.294 0.817,-0.5786 1.254,-0.8442 l 3.517,-2.1293 c 7.959,-5.1786 17.614,-11.576 27.459,-18.3765 21.22,-14.6585 26.08,-19.6332 31.58,-24.0246 z m -10.09,-36.2737 c 0.02,-0.038 0.02,-0.043 0,0 z"
               fill="#000000"
               id="path316" />
            <path
               fill-rule="evenodd"
               clip-rule="evenodd"
               d="m 1119.77,-64.2463 c 5.51,-4.3961 13.28,-12.1024 15.49,-15.4979 l -25.59,-20.7758 c -0.02,0.047 0.06,-0.143 0,0 -7.31,7.0421 -6.44,9.4749 -45.36,36.3591 -21.29,14.7012 -27.12,18.5567 -27.32,18.6753 l 18.93,26.6328 0.03,-0.0189 c 0.42,-0.294 0.82,-0.5786 1.25,-0.8442 l 3.52,-2.1293 c 7.96,-5.1786 17.62,-11.576 27.46,-18.3765 21.23,-14.6585 26.08,-19.6332 31.59,-24.0246 z m -10.09,-36.2737 c 0.02,-0.038 0.02,-0.043 0,0 z"
               fill="#000000"
               id="path318" />
            <path
               fill-rule="evenodd"
               clip-rule="evenodd"
               d="m 876.944,-64.2463 c 5.507,-4.3961 13.278,-12.1024 15.486,-15.4979 L 866.848,-100.52 c -0.031,0.047 0.055,-0.143 0,0 -7.31,7.0421 -6.447,9.4749 -45.369,36.3591 -21.283,14.7012 -27.115,18.5567 -27.313,18.6753 l 18.928,26.6328 0.03,-0.0189 c 0.416,-0.294 0.817,-0.5786 1.254,-0.8442 l 3.518,-2.1293 c 7.959,-5.1786 17.613,-11.576 27.455,-18.3765 21.228,-14.6585 26.08,-19.6332 31.582,-24.0246 z M 866.853,-100.52 c 0.02,-0.038 0.025,-0.043 0,0 z"
               fill="#000000"
               id="path320" />
            <path
               fill-rule="evenodd"
               clip-rule="evenodd"
               d="m 957.889,-64.2463 c 5.507,-4.3961 13.279,-12.1024 15.487,-15.4979 L 947.793,-100.52 c -0.025,0.047 0.056,-0.143 0,0 -7.309,7.0421 -6.446,9.4749 -45.368,36.3591 -21.284,14.7012 -27.116,18.5567 -27.314,18.6753 l 18.928,26.6328 0.031,-0.0189 c 0.416,-0.294 0.822,-0.5786 1.253,-0.8442 l 3.518,-2.1293 c 7.959,-5.1786 17.613,-11.576 27.456,-18.3765 21.227,-14.6585 26.08,-19.6332 31.587,-24.0246 z M 947.798,-100.52 c 0.02,-0.038 0.025,-0.043 0,0 z"
               fill="#000000"
               id="path322" />
            <path
               fill-rule="evenodd"
               clip-rule="evenodd"
               d="m 1200.72,-64.2463 c 5.5,-4.3961 13.27,-12.1024 15.48,-15.4979 l -25.58,-20.7758 c -0.03,0.047 0.06,-0.143 0,0 -7.31,7.0421 -6.45,9.4749 -45.37,36.3591 -21.28,14.7012 -27.11,18.5567 -27.31,18.6753 l 18.93,26.6328 0.03,-0.0189 c 0.41,-0.294 0.81,-0.5786 1.25,-0.8442 l 3.52,-2.1293 c 7.96,-5.1786 17.61,-11.576 27.45,-18.3765 21.23,-14.6585 26.08,-19.6332 31.59,-24.0246 z m -10.1,-36.2737 c 0.02,-0.038 0.03,-0.043 0,0 z"
               fill="#000000"
               id="path324" />
            <path
               fill-rule="evenodd"
               clip-rule="evenodd"
               d="m 1281.66,-64.2463 c 5.5,-4.3961 13.27,-12.1024 15.48,-15.4979 l -25.58,-20.7758 c -0.03,0.047 0.06,-0.143 0,0 -7.31,7.0421 -6.45,9.4749 -45.37,36.3591 -21.28,14.7012 -27.11,18.5567 -27.31,18.6753 l 18.93,26.6328 0.03,-0.0189 c 0.41,-0.294 0.81,-0.5786 1.25,-0.8442 l 3.52,-2.1293 c 7.96,-5.1786 17.61,-11.576 27.45,-18.3765 21.23,-14.6585 26.08,-19.6332 31.59,-24.0246 z m -10.09,-36.2737 c 0.02,-0.038 0.02,-0.043 0,0 z"
               fill="#000000"
               id="path326" />
            <path
               fill-rule="evenodd"
               clip-rule="evenodd"
               d="m 913.379,188.32 c 5.751,4.112 15.446,9.599 19.461,10.908 l 16.39,-27.724 c -0.056,-0.014 0.162,0.024 0,0 -8.898,-5.202 -11.269,-3.908 -47.556,-33.836 -19.842,-16.366 -25.101,-20.886 -25.268,-21.037 l -23.913,22.867 0.031,0.024 c 0.39,0.318 0.776,0.626 1.142,0.967 l 2.964,2.77 c 7.086,6.184 15.806,13.667 24.984,21.236 19.785,16.318 26.008,19.714 31.759,23.821 z m 35.851,-16.816 c 0.04,0.01 0.05,0.014 0,0 z"
               fill="#000000"
               id="path328" />
            <path
               fill-rule="evenodd"
               clip-rule="evenodd"
               d="m 834.956,188.32 c 5.751,4.112 15.446,9.599 19.461,10.908 l 16.39,-27.724 c -0.056,-0.014 0.162,0.024 0,0 -8.898,-5.202 -11.269,-3.908 -47.556,-33.836 -19.842,-16.366 -25.101,-20.886 -25.268,-21.037 l -23.908,22.872 0.031,0.024 c 0.391,0.317 0.776,0.626 1.142,0.967 l 2.964,2.77 c 7.086,6.184 15.807,13.667 24.984,21.236 19.786,16.318 26.009,19.714 31.76,23.82 z m 35.851,-16.816 c 0.04,0.01 0.051,0.014 0,0 z"
               fill="#000000"
               id="path330" />
            <path
               fill-rule="evenodd"
               clip-rule="evenodd"
               d="m 995.349,188.32 c 5.751,4.112 15.451,9.599 19.461,10.908 l 16.39,-27.724 c -0.06,-0.014 0.16,0.024 0,0 -8.9,-5.202 -11.27,-3.908 -47.556,-33.836 -19.841,-16.366 -25.1,-20.886 -25.268,-21.037 l -23.907,22.867 0.03,0.024 c 0.391,0.318 0.777,0.626 1.142,0.967 l 2.965,2.77 c 7.086,6.184 15.806,13.667 24.983,21.236 19.786,16.318 26.009,19.714 31.76,23.821 z m 35.851,-16.816 c 0.04,0.01 0.05,0.014 0,0 z"
               fill="#000000"
               id="path332" />
            <path
               fill-rule="evenodd"
               clip-rule="evenodd"
               d="m 1077.33,188.32 c 5.75,4.112 15.44,9.599 19.46,10.908 l 16.39,-27.724 c -0.06,-0.014 0.16,0.024 0,0 -8.9,-5.202 -11.27,-3.908 -47.56,-33.836 -19.84,-16.366 -25.1,-20.886 -25.27,-21.037 l -23.91,22.867 0.03,0.024 c 0.39,0.318 0.78,0.626 1.14,0.967 l 2.97,2.77 c 7.08,6.184 15.8,13.667 24.98,21.236 19.79,16.318 26.01,19.714 31.76,23.821 z m 35.85,-16.816 c 0.04,0.01 0.05,0.014 0,0 z"
               fill="#000000"
               id="path334" />
            <path
               fill-rule="evenodd"
               clip-rule="evenodd"
               d="m 1159.3,188.32 c 5.75,4.112 15.44,9.599 19.46,10.908 l 16.39,-27.724 c -0.06,-0.014 0.16,0.024 0,0 -8.9,-5.202 -11.27,-3.908 -47.56,-33.836 -19.84,-16.366 -25.1,-20.886 -25.27,-21.037 l -23.91,22.867 0.03,0.024 c 0.39,0.318 0.78,0.626 1.14,0.967 l 2.97,2.77 c 7.08,6.184 15.8,13.667 24.98,21.236 19.79,16.318 26.01,19.714 31.76,23.821 z m 35.85,-16.816 c 0.04,0.01 0.05,0.014 0,0 z"
               fill="#000000"
               id="path336" />
            <path
               fill-rule="evenodd"
               clip-rule="evenodd"
               d="m 1241.27,188.32 c 5.75,4.112 15.45,9.599 19.46,10.908 l 16.39,-27.724 c -0.05,-0.014 0.17,0.024 0,0 -8.89,-5.202 -11.27,-3.908 -47.55,-33.836 -19.84,-16.366 -25.1,-20.886 -25.27,-21.037 l -23.91,22.867 0.03,0.024 c 0.39,0.318 0.77,0.626 1.14,0.967 l 2.96,2.77 c 7.09,6.184 15.81,13.667 24.99,21.236 19.78,16.318 26.01,19.714 31.76,23.821 z m 35.85,-16.816 c 0.04,0.01 0.05,0.014 0,0 z"
               fill="#000000"
               id="path338" />
            <path
               fill-rule="evenodd"
               clip-rule="evenodd"
               d="m 856.935,24.6106 c -4.949,3.1726 -12.035,8.8397 -14.137,11.4053 l 20.126,17.9402 c -0.061,0.1091 0.026,-0.0379 0,0 6.65,-5.1691 6.091,-7.1467 40.775,-26.2488 C 922.663,17.26 927.85,14.5332 928.023,14.4525 l -14.111,-22.20351 -0.026,0.01422 c -0.37,0.20867 -0.731,0.41259 -1.116,0.59754 l -3.117,1.48909 C 902.582,-1.99857 893.999,2.53034 885.228,7.35802 866.315,17.7769 861.879,21.4427 856.93,24.6153 Z m 5.989,29.3455 c -0.02,0.0284 -0.02,0.0332 0,0 z"
               fill="#000000"
               id="path340" />
            <path
               fill-rule="evenodd"
               clip-rule="evenodd"
               d="m 867.655,24.6106 c 4.959,3.1726 12.06,8.8397 14.161,11.4053 L 861.65,53.9561 c -0.025,-0.0379 0.061,0.1091 0,0 C 854.99,48.787 855.544,46.8094 820.799,27.7073 801.8,17.26 796.602,14.5332 796.43,14.4525 l 14.136,-22.20351 0.025,0.01422 c 0.371,0.20867 0.731,0.41259 1.117,0.59754 l 3.122,1.48909 c 7.081,3.65159 15.684,8.1805 24.471,13.00818 18.948,10.41888 23.395,14.08468 28.349,17.25728 z m -6.005,29.3455 c 0.02,0.0284 0.025,0.0332 0,0 z"
               fill="#000000"
               id="path342" />
            <path
               fill-rule="evenodd"
               clip-rule="evenodd"
               d="m 959.092,24.6106 c -4.949,3.1726 -12.035,8.8397 -14.136,11.4053 l 20.126,17.9402 c -0.061,0.1091 0.025,-0.0379 0,0 6.649,-5.1691 6.091,-7.1467 40.778,-26.2488 18.96,-10.4473 24.15,-13.1741 24.32,-13.2548 l -14.11,-22.20351 -0.03,0.01422 c -0.37,0.20867 -0.73,0.41259 -1.11,0.59754 l -3.12,1.48909 c -7.07,3.65159 -15.653,8.1805 -24.425,13.00818 C 968.473,17.7769 964.036,21.4427 959.087,24.6153 Z m 5.99,29.3455 c -0.026,0.0332 -0.02,0.0284 0,0 z"
               fill="#000000"
               id="path344" />
            <path
               fill-rule="evenodd"
               clip-rule="evenodd"
               d="m 971.193,24.6106 c 4.949,3.1726 12.035,8.8397 14.136,11.4053 l -20.126,17.9402 c -0.025,-0.0379 0.061,0.1091 0,0 C 958.554,48.787 959.112,46.8094 924.429,27.7073 905.465,17.26 900.278,14.5332 900.105,14.4525 l 14.111,-22.20351 0.025,0.01422 c 0.371,0.20867 0.731,0.41259 1.117,0.59754 l 3.117,1.48909 c 7.07,3.65159 15.654,8.1805 24.425,13.00818 18.913,10.41888 23.349,14.08468 28.298,17.25728 z m -5.99,29.3455 c 0.021,0.0284 0.021,0.0332 0,0 z"
               fill="#000000"
               id="path346" />
            <path
               fill-rule="evenodd"
               clip-rule="evenodd"
               d="m 1059.79,24.6106 c -4.95,3.1726 -12.03,8.8397 -14.13,11.4053 l 20.12,17.9402 c -0.06,0.1091 0.03,-0.0379 0,0 6.65,-5.1691 6.09,-7.1467 40.78,-26.2488 18.96,-10.4473 24.15,-13.1741 24.32,-13.2548 l -14.11,-22.20351 -0.03,0.01422 c -0.37,0.20867 -0.73,0.41259 -1.11,0.59754 l -3.12,1.48909 c -7.07,3.65159 -15.65,8.1805 -24.42,13.00818 -18.92,10.41888 -23.35,14.08468 -28.3,17.25728 z m 5.99,29.3455 c -0.02,0.0332 -0.02,0.0284 0,0 z"
               fill="#000000"
               id="path348" />
            <path
               fill-rule="evenodd"
               clip-rule="evenodd"
               d="m 1071.89,24.6106 c 4.95,3.1726 12.03,8.8397 14.14,11.4053 l -20.13,17.9402 c -0.03,-0.0379 0.06,0.1091 0,0 -6.65,-5.1691 -6.09,-7.1467 -40.78,-26.2488 C 1006.16,17.26 1000.97,14.5332 1000.8,14.4525 l 14.11,-22.20351 0.03,0.01422 c 0.37,0.20867 0.73,0.41259 1.11,0.59754 l 3.12,1.48909 c 7.07,3.65159 15.65,8.1805 24.43,13.00818 18.91,10.41888 23.34,14.08468 28.29,17.25728 z m -5.99,29.3455 c 0.02,0.0284 0.02,0.0332 0,0 z"
               fill="#000000"
               id="path350" />
            <path
               fill-rule="evenodd"
               clip-rule="evenodd"
               d="m 1160.72,24.6106 c -4.95,3.1726 -12.04,8.8397 -14.14,11.4053 l 20.13,17.9402 c -0.06,0.1091 0.02,-0.0379 0,0 6.65,-5.1691 6.09,-7.1467 40.77,-26.2488 18.97,-10.4473 24.15,-13.1741 24.33,-13.2548 l -14.12,-22.20351 -0.02,0.01422 c -0.37,0.20867 -0.73,0.41259 -1.12,0.59754 l -3.11,1.48909 c -7.08,3.65159 -15.66,8.1805 -24.43,13.00818 -18.91,10.41888 -23.35,14.08468 -28.3,17.25728 z m 5.99,29.3455 c -0.03,0.0332 -0.02,0.0284 0,0 z"
               fill="#000000"
               id="path352" />
            <path
               fill-rule="evenodd"
               clip-rule="evenodd"
               d="m 1173.83,24.6106 c 4.95,3.1726 12.03,8.8397 14.13,11.4053 l -20.12,17.9402 c -0.03,-0.0379 0.06,0.1091 0,0 -6.65,-5.1691 -6.09,-7.1467 -40.78,-26.2488 C 1108.1,17.26 1102.91,14.5332 1102.74,14.4525 l 14.11,-22.20351 0.03,0.01422 c 0.37,0.20867 0.73,0.41259 1.11,0.59754 l 3.12,1.48909 c 7.07,3.65159 15.65,8.1805 24.43,13.00818 18.91,10.41888 23.34,14.08468 28.29,17.25728 z m -5.99,29.3455 c 0.02,0.0284 0.02,0.0332 0,0 z"
               fill="#000000"
               id="path354" />
            <path
               fill-rule="evenodd"
               clip-rule="evenodd"
               d="m 1274.2,24.6106 c 4.95,3.1726 12.03,8.8397 14.14,11.4053 l -20.13,17.9402 c -0.03,-0.0379 0.06,0.1091 0,0 -6.65,-5.1691 -6.09,-7.1467 -40.77,-26.2488 -18.97,-10.4473 -24.16,-13.1741 -24.33,-13.2548 l 14.11,-22.20351 0.03,0.01422 c 0.37,0.20867 0.73,0.41259 1.11,0.59754 l 3.12,1.48909 c 7.07,3.65159 15.66,8.1805 24.43,13.00818 18.91,10.41888 23.35,14.08468 28.29,17.25728 z m -5.99,29.3455 c 0.02,0.0284 0.02,0.0332 0,0 z"
               fill="#000000"
               id="path356" />
            <path
               fill-rule="evenodd"
               clip-rule="evenodd"
               d="m 800.952,250.459 c 4.528,-2.58 8.025,-4.353 11.071,-5.349 2.893,-0.939 4.604,-0.911 5.781,-0.617 1.097,0.275 3.137,1.134 6.061,4.496 5.842,6.725 12.629,11.149 20.339,12.828 7.558,1.65 14.548,0.346 20.319,-1.712 5.66,-2.016 10.878,-5.017 15.075,-7.555 1.208,-0.73 2.315,-1.408 3.351,-2.043 2.933,-1.803 5.268,-3.235 7.608,-4.411 l -11.969,-24.665 c -3.472,1.746 -7.182,4.022 -10.344,5.966 -0.863,0.531 -1.691,1.039 -2.457,1.504 -4.015,2.423 -7.259,4.196 -10.193,5.24 -2.817,1 -4.548,1.038 -5.72,0.782 -1.02,-0.223 -2.97,-0.948 -5.751,-4.149 -5.7,-6.559 -12.269,-11.083 -19.837,-12.985 -7.497,-1.882 -14.512,-0.825 -20.496,1.119 -5.827,1.897 -11.345,4.866 -16.055,7.55 -1.533,0.873 -2.975,1.712 -4.361,2.518 -3.223,1.878 -6.152,3.581 -9.304,5.184 l 12.086,24.603 c 3.873,-1.968 7.832,-4.273 11.299,-6.288 1.233,-0.721 2.406,-1.404 3.492,-2.021 z"
               fill="#000000"
               id="path358" />
            <path
               fill-rule="evenodd"
               clip-rule="evenodd"
               d="m 880.776,251.184 c 4.528,-2.579 8.025,-4.353 11.07,-5.344 2.894,-0.939 4.604,-0.911 5.782,-0.617 1.096,0.275 3.137,1.134 6.061,4.496 5.842,6.725 12.628,11.149 20.339,12.828 7.558,1.65 14.547,0.346 20.319,-1.712 5.659,-2.015 10.877,-5.017 15.075,-7.554 1.208,-0.731 2.315,-1.409 3.35,-2.044 2.934,-1.802 5.269,-3.235 7.609,-4.411 l -11.969,-24.665 c -3.467,1.741 -7.177,4.022 -10.345,5.966 -0.863,0.531 -1.69,1.039 -2.457,1.504 -4.015,2.423 -7.258,4.197 -10.192,5.24 -2.817,1 -4.548,1.038 -5.721,0.782 -1.02,-0.223 -2.969,-0.948 -5.75,-4.149 -5.701,-6.559 -12.269,-11.083 -19.837,-12.985 -7.497,-1.882 -14.512,-0.825 -20.497,1.12 -5.827,1.896 -11.344,4.865 -16.055,7.549 -1.533,0.873 -2.974,1.712 -4.36,2.519 -3.223,1.877 -6.152,3.58 -9.304,5.183 l 12.086,24.603 c 3.873,-1.973 7.832,-4.273 11.299,-6.288 1.233,-0.721 2.406,-1.404 3.492,-2.021 z"
               fill="#000000"
               id="path360" />
            <path
               fill-rule="evenodd"
               clip-rule="evenodd"
               d="m 962.265,251.184 c 4.527,-2.579 8.025,-4.353 11.07,-5.344 2.893,-0.939 4.604,-0.911 5.782,-0.617 1.096,0.275 3.136,1.134 6.06,4.496 5.843,6.725 12.629,11.149 20.343,12.828 7.55,1.65 14.54,0.346 20.32,-1.712 5.65,-2.015 10.87,-5.017 15.07,-7.554 1.21,-0.731 2.32,-1.409 3.35,-2.044 2.93,-1.802 5.27,-3.235 7.61,-4.411 l -11.97,-24.665 c -3.47,1.741 -7.18,4.022 -10.34,5.966 -0.87,0.531 -1.69,1.039 -2.46,1.504 -4.02,2.423 -7.26,4.197 -10.19,5.24 -2.82,1 -4.55,1.038 -5.72,0.782 -1.02,-0.223 -2.97,-0.948 -5.75,-4.149 -5.705,-6.559 -12.273,-11.083 -19.842,-12.985 -7.497,-1.882 -14.512,-0.825 -20.496,1.12 -5.827,1.896 -11.345,4.865 -16.055,7.549 -1.533,0.873 -2.975,1.712 -4.36,2.519 -3.224,1.877 -6.152,3.58 -9.304,5.183 l 12.085,24.603 c 3.878,-1.973 7.832,-4.273 11.299,-6.288 1.234,-0.721 2.406,-1.404 3.492,-2.021 z"
               fill="#000000"
               id="path362" />
            <path
               fill-rule="evenodd"
               clip-rule="evenodd"
               d="m 1042.83,251.184 c 4.53,-2.579 8.03,-4.353 11.08,-5.344 2.89,-0.939 4.6,-0.911 5.78,-0.617 1.09,0.275 3.13,1.134 6.06,4.496 5.84,6.725 12.63,11.149 20.34,12.828 7.55,1.65 14.54,0.346 20.32,-1.712 5.65,-2.015 10.87,-5.017 15.07,-7.554 1.21,-0.731 2.32,-1.409 3.35,-2.044 2.93,-1.802 5.27,-3.235 7.61,-4.411 l -11.97,-24.665 c -3.47,1.741 -7.18,4.022 -10.34,5.966 -0.87,0.531 -1.69,1.039 -2.46,1.504 -4.02,2.423 -7.26,4.197 -10.19,5.24 -2.82,1 -4.55,1.038 -5.72,0.782 -1.02,-0.223 -2.97,-0.948 -5.75,-4.149 -5.71,-6.559 -12.27,-11.083 -19.84,-12.985 -7.5,-1.882 -14.51,-0.825 -20.5,1.12 -5.83,1.896 -11.34,4.865 -16.05,7.549 -1.54,0.873 -2.98,1.712 -4.36,2.519 -3.23,1.877 -6.16,3.58 -9.31,5.183 l 12.09,24.603 c 3.87,-1.973 7.83,-4.273 11.3,-6.288 1.23,-0.721 2.4,-1.404 3.49,-2.021 z"
               fill="#000000"
               id="path364" />
            <path
               fill-rule="evenodd"
               clip-rule="evenodd"
               d="m 1124.33,251.184 c 4.53,-2.579 8.02,-4.353 11.07,-5.344 2.89,-0.939 4.6,-0.911 5.78,-0.617 1.1,0.275 3.14,1.134 6.06,4.496 5.84,6.725 12.63,11.149 20.34,12.828 7.56,1.65 14.55,0.346 20.32,-1.712 5.66,-2.015 10.88,-5.017 15.07,-7.554 1.21,-0.731 2.32,-1.409 3.35,-2.044 2.94,-1.802 5.27,-3.235 7.61,-4.411 l -11.97,-24.665 c -3.47,1.741 -7.18,4.022 -10.34,5.966 -0.86,0.531 -1.69,1.039 -2.46,1.504 -4.01,2.423 -7.26,4.197 -10.19,5.24 -2.82,1 -4.55,1.038 -5.72,0.782 -1.02,-0.223 -2.97,-0.948 -5.75,-4.149 -5.7,-6.559 -12.27,-11.083 -19.84,-12.985 -7.49,-1.882 -14.51,-0.825 -20.49,1.12 -5.83,1.896 -11.35,4.865 -16.06,7.549 -1.53,0.873 -2.97,1.712 -4.36,2.519 -3.22,1.877 -6.15,3.58 -9.3,5.183 l 12.08,24.603 c 3.88,-1.973 7.83,-4.273 11.3,-6.288 1.23,-0.721 2.41,-1.404 3.49,-2.021 z"
               fill="#000000"
               id="path366" />
            <path
               fill-rule="evenodd"
               clip-rule="evenodd"
               d="m 1206.25,250.71 c 4.53,-2.58 8.03,-4.353 11.07,-5.344 2.9,-0.939 4.61,-0.911 5.79,-0.617 1.09,0.275 3.13,1.134 6.06,4.496 5.84,6.724 12.63,11.149 20.34,12.828 7.55,1.65 14.54,0.346 20.31,-1.712 5.66,-2.016 10.88,-5.017 15.08,-7.555 1.21,-0.73 2.31,-1.408 3.35,-2.044 2.93,-1.802 5.27,-3.234 7.61,-4.41 l -11.97,-24.665 c -3.47,1.741 -7.18,4.022 -10.35,5.966 -0.86,0.531 -1.69,1.039 -2.45,1.503 -4.02,2.424 -7.26,4.197 -10.19,5.241 -2.82,1 -4.55,1.038 -5.72,0.782 -1.03,-0.223 -2.97,-0.948 -5.76,-4.149 -5.7,-6.559 -12.26,-11.083 -19.83,-12.985 -7.5,-1.883 -14.51,-0.825 -20.5,1.119 -5.83,1.897 -11.34,4.866 -16.05,7.55 -1.54,0.873 -2.98,1.712 -4.36,2.518 -3.23,1.878 -6.16,3.581 -9.31,5.184 l 12.09,24.603 c 3.88,-1.973 7.83,-4.273 11.3,-6.289 1.23,-0.72 2.4,-1.403 3.49,-2.02 z"
               fill="#000000"
               id="path368" />
            <path
               d="m 860.615,80.57 c 0.015,5.3683 -1.863,9.8972 -5.63,13.5868 -3.766,3.6895 -8.603,5.5437 -14.517,5.558 -5.908,0.0142 -10.761,-1.8163 -14.547,-5.4869 -3.787,-3.6706 -5.685,-8.1948 -5.7,-13.5631 -0.016,-5.3683 1.862,-9.8972 5.629,-13.5867 3.766,-3.6895 8.603,-5.5438 14.517,-5.558 5.908,-0.0142 10.761,1.8163 14.542,5.4869 3.787,3.6705 5.685,8.1947 5.7,13.563 z"
               fill="#000000"
               id="path370" />
            <path
               d="m 1063.25,80.57 c 0.02,5.3683 -1.86,9.8972 -5.62,13.5868 -3.77,3.6895 -8.61,5.5437 -14.52,5.558 -5.91,0.0142 -10.76,-1.8163 -14.54,-5.4869 -3.79,-3.6706 -5.69,-8.1948 -5.7,-13.5631 -0.02,-5.3683 1.86,-9.8972 5.62,-13.5867 3.77,-3.6895 8.61,-5.5438 14.52,-5.558 5.91,-0.0142 10.76,1.8163 14.54,5.4869 3.79,3.6705 5.69,8.1947 5.7,13.563 z"
               fill="#000000"
               id="path372" />
            <path
               d="m 995.71,80.57 c 0.015,5.3683 -1.863,9.8972 -5.629,13.5868 -3.767,3.6895 -8.604,5.5437 -14.517,5.558 -5.909,0.0142 -10.761,-1.8163 -14.543,-5.4869 -3.786,-3.6706 -5.685,-8.1948 -5.7,-13.5631 -0.015,-5.3683 1.863,-9.8972 5.629,-13.5867 3.766,-3.6895 8.604,-5.5438 14.517,-5.558 5.909,-0.0142 10.761,1.8163 14.543,5.4869 3.786,3.6705 5.685,8.1947 5.7,13.563 z"
               fill="#000000"
               id="path374" />
            <path
               d="m 1130.8,80.57 c 0.02,5.3683 -1.86,9.8972 -5.62,13.5868 -3.77,3.6895 -8.61,5.5437 -14.52,5.558 -5.91,0.0142 -10.76,-1.8163 -14.54,-5.4869 -3.79,-3.6706 -5.69,-8.1948 -5.7,-13.5631 -0.02,-5.3683 1.86,-9.8972 5.63,-13.5867 3.76,-3.6895 8.6,-5.5438 14.51,-5.558 5.91,-0.0142 10.76,1.8163 14.54,5.4869 3.79,3.6705 5.69,8.1947 5.7,13.563 z"
               fill="#000000"
               id="path376" />
            <path
               d="m 1198.35,80.57 c 0.02,5.3683 -1.86,9.8972 -5.63,13.5868 -3.77,3.6895 -8.6,5.5437 -14.52,5.558 -5.9,0.0142 -10.76,-1.8163 -14.54,-5.4869 -3.79,-3.6706 -5.68,-8.1948 -5.7,-13.5631 -0.01,-5.3683 1.86,-9.8972 5.63,-13.5867 3.77,-3.6895 8.6,-5.5438 14.52,-5.558 5.91,-0.0142 10.76,1.8163 14.54,5.4869 3.79,3.6705 5.68,8.1947 5.7,13.563 z"
               fill="#000000"
               id="path378" />
            <path
               d="m 1266.45,80.57 c 0.01,5.3683 -1.86,9.8972 -5.63,13.5868 -3.77,3.6895 -8.6,5.5437 -14.52,5.558 -5.91,0.0142 -10.76,-1.8163 -14.54,-5.4869 -3.79,-3.6706 -5.69,-8.1948 -5.7,-13.5631 -0.02,-5.3683 1.86,-9.8972 5.63,-13.5867 3.77,-3.6895 8.6,-5.5438 14.52,-5.558 5.9,-0.0142 10.76,1.8163 14.54,5.4869 3.78,3.6705 5.68,8.1947 5.7,13.563 z"
               fill="#000000"
               id="path380" />
            <path
               d="m 851.118,352.168 c -0.655,-2.044 -1.33,-4.785 -2.183,-8.252 -1.523,-6.198 -3.609,-14.687 -6.391,-22.189 -1.685,-4.553 -3.182,-7.541 -4.355,-9.48 -1.279,2.091 -2.949,5.396 -4.796,10.523 -2.858,7.924 -4.894,16.636 -6.239,22.398 -0.649,2.774 -1.116,4.78 -1.573,6.298 l -28.339,-7.446 c 0.218,-0.73 0.695,-2.755 1.152,-4.718 1.721,-7.37 4.604,-19.7 9.122,-30.517 2.842,-6.81 5.938,-12.122 9.461,-16.228 7.325,-8.537 15.39,-10.419 20.867,-10.495 0.132,0 0.264,0 0.396,0 12.593,0 22.659,8.474 29.938,25.191 4.512,10.367 7.487,22.488 9.461,30.512 0.67,2.736 1.31,5.321 1.686,6.502 l -28.197,7.901 z"
               fill="#000000"
               id="path382" />
            <path
               d="m 952.651,352.168 c -0.655,-2.044 -1.33,-4.785 -2.183,-8.252 -1.523,-6.198 -3.609,-14.687 -6.39,-22.189 -1.686,-4.553 -3.183,-7.541 -4.356,-9.48 -1.279,2.091 -2.949,5.397 -4.796,10.523 -2.858,7.924 -4.894,16.636 -6.239,22.398 -0.649,2.774 -1.116,4.78 -1.573,6.298 l -28.339,-7.446 c 0.218,-0.73 0.695,-2.755 1.152,-4.718 1.721,-7.37 4.604,-19.7 9.122,-30.517 2.842,-6.81 5.938,-12.122 9.461,-16.228 7.325,-8.537 15.39,-10.419 20.867,-10.495 12.781,-0.19 22.979,8.299 30.329,25.191 4.512,10.367 7.487,22.488 9.461,30.512 0.67,2.737 1.31,5.321 1.685,6.502 l -28.196,7.901 z"
               fill="#000000"
               id="path384" />
            <path
               d="m 1054.18,352.168 c -0.65,-2.044 -1.33,-4.785 -2.18,-8.252 -1.52,-6.198 -3.61,-14.687 -6.39,-22.189 -1.68,-4.553 -3.18,-7.541 -4.35,-9.48 -1.28,2.091 -2.95,5.396 -4.8,10.523 -2.86,7.924 -4.89,16.636 -6.24,22.398 -0.65,2.774 -1.12,4.78 -1.57,6.298 l -28.34,-7.446 c 0.22,-0.73 0.69,-2.755 1.15,-4.718 1.72,-7.37 4.6,-19.7 9.12,-30.517 2.85,-6.81 5.94,-12.122 9.46,-16.228 7.33,-8.537 15.39,-10.419 20.87,-10.495 0.13,0 0.26,0 0.4,0 12.59,0 22.66,8.474 29.93,25.191 4.52,10.367 7.49,22.488 9.47,30.512 0.67,2.736 1.31,5.321 1.68,6.502 l -28.2,7.901 z"
               fill="#000000"
               id="path386" />
            <path
               d="m 1155.72,352.168 c -0.66,-2.044 -1.33,-4.785 -2.18,-8.252 -1.53,-6.198 -3.61,-14.687 -6.4,-22.189 -1.68,-4.553 -3.18,-7.541 -4.35,-9.48 -1.28,2.091 -2.95,5.396 -4.8,10.523 -2.86,7.924 -4.89,16.636 -6.24,22.398 -0.65,2.774 -1.11,4.78 -1.57,6.298 l -28.34,-7.446 c 0.22,-0.73 0.7,-2.755 1.15,-4.718 1.72,-7.37 4.61,-19.7 9.13,-30.517 2.84,-6.81 5.93,-12.122 9.46,-16.228 7.32,-8.537 15.39,-10.419 20.86,-10.495 0.14,0 0.27,0 0.4,0 12.59,0 22.66,8.474 29.94,25.191 4.51,10.367 7.48,22.488 9.46,30.512 0.67,2.736 1.31,5.321 1.68,6.502 l -28.19,7.901 z"
               fill="#000000"
               id="path388" />
            <path
               d="m 1257.26,352.168 c -0.66,-2.044 -1.33,-4.785 -2.19,-8.252 -1.52,-6.198 -3.61,-14.687 -6.39,-22.189 -1.68,-4.553 -3.18,-7.541 -4.35,-9.48 -1.28,2.091 -2.95,5.397 -4.8,10.523 -2.86,7.924 -4.89,16.636 -6.24,22.398 -0.65,2.774 -1.11,4.78 -1.57,6.298 l -28.34,-7.446 c 0.22,-0.73 0.7,-2.755 1.15,-4.718 1.72,-7.37 4.61,-19.7 9.12,-30.517 2.85,-6.81 5.94,-12.122 9.47,-16.228 7.32,-8.537 15.39,-10.419 20.86,-10.495 12.77,-0.19 22.98,8.299 30.33,25.191 4.51,10.367 7.49,22.488 9.46,30.512 0.67,2.737 1.31,5.321 1.69,6.502 z"
               fill="#000000"
               id="path390" />
            <path
               d="m 928.525,79.503 c 0,6.2457 -3.117,11.8131 -7.989,15.4363 -3.65,2.7173 -8.284,4.3439 -13.33,4.3439 h -0.035 c -0.899,1.4608 -1.411,3.1488 -1.411,4.9508 0,1.262 0.253,2.471 0.71,3.581 0.198,0.474 -0.345,0.92 -0.832,0.687 -10.35,-5.036 -17.806,-14.497 -19.451,-25.6746 -0.147,-0.9912 -0.244,-1.9965 -0.3,-3.0114 0,-0.1043 0,-0.2086 0,-0.313 0,-10.9168 9.533,-19.766 21.294,-19.7802 11.771,-0.0142 21.344,8.8634 21.344,19.7802 z"
               fill="#000000"
               id="path392" />
            <path
               d="m 927.002,102.807 c 0,2.968 1.447,5.619 3.711,7.346 1.695,1.294 3.847,2.067 6.187,2.067 h 0.016 c 0.416,0.693 0.654,1.499 0.654,2.357 0,0.603 -0.116,1.176 -0.329,1.703 -0.092,0.223 0.162,0.436 0.385,0.327 4.807,-2.395 8.269,-6.895 9.03,-12.216 0.066,-0.47 0.117,-0.949 0.137,-1.432 v -0.152 c 0,-5.1931 -4.426,-9.4043 -9.887,-9.409 -5.467,-0.0047 -9.909,4.2159 -9.909,9.409 z"
               fill="#000000"
               id="path394" />
          </g>
        </g>
      </g>
      <mask
         id="mask4_3959_39576"
         maskUnits="userSpaceOnUse"
         x="588"
         y="97"
         width="70"
         height="70">
        <rect
           x="588"
           y="97"
           width="70"
           height="70"
           fill="#d9d9d9"
           id="rect402" />
      </mask>
    </g>
  </g>
  <defs
     id="defs439">
    <filter
       id="filter0_d_3959_39576"
       x="0"
       y="0"
       width="1246"
       height="344"
       filterUnits="userSpaceOnUse"
       color-interpolation-filters="sRGB">
      <feFlood
         flood-opacity="0"
         result="BackgroundImageFix"
         id="feFlood419" />
      <feColorMatrix
         in="SourceAlpha"
         type="matrix"
         values="0 0 0 0 0 0 0 0 0 0 0 0 0 0 0 0 0 0 127 0"
         result="hardAlpha"
         id="feColorMatrix421" />
      <feOffset
         dy="4"
         id="feOffset423" />
      <feGaussianBlur
         stdDeviation="30"
         id="feGaussianBlur425" />
      <feComposite
         in2="hardAlpha"
         operator="out"
         id="feComposite427" />
      <feColorMatrix
         type="matrix"
         values="0 0 0 0 0.0156863 0 0 0 0 0.0235294 0 0 0 0 0.0588235 0 0 0 0.05 0"
         id="feColorMatrix429" />
      <feBlend
         mode="normal"
         in2="BackgroundImageFix"
         result="effect1_dropShadow_3959_39576"
         id="feBlend431" />
      <feBlend
         mode="normal"
         in="SourceGraphic"
         in2="effect1_dropShadow_3959_39576"
         result="shape"
         id="feBlend433" />
    </filter>
    <clipPath
       id="clip0_3959_39576">
      <rect
         x="60"
         y="56"
         width="1126"
         height="224"
         rx="26.818399"
         fill="#ffffff"
         id="rect436" />
    </clipPath>
    <clipPath
       clipPathUnits="userSpaceOnUse"
       id="clipPath1272">
      <rect
         style="fill:#000000"
         id="rect1274"
         width="1066"
         height="224"
         x="92"
         y="56" />
    </clipPath>
  </defs>
</svg>
