<?xml version="1.0" encoding="UTF-8"?><svg id="Layer_1" xmlns="http://www.w3.org/2000/svg" viewBox="0 0 705.87 1221.59"><defs><style>.cls-1,.cls-2,.cls-3,.cls-4,.cls-5,.cls-6,.cls-7,.cls-8,.cls-9,.cls-10,.cls-11,.cls-12,.cls-13,.cls-14,.cls-15,.cls-16,.cls-17,.cls-18,.cls-19,.cls-20,.cls-21,.cls-22,.cls-23,.cls-24,.cls-25,.cls-26,.cls-27,.cls-28,.cls-29,.cls-30,.cls-31,.cls-32,.cls-33,.cls-34,.cls-35,.cls-36,.cls-37,.cls-38{stroke-width:0px;}.cls-2{fill:#f6f6f6;}.cls-3{fill:#653b25;}.cls-4{fill:#5c5456;}.cls-5{fill:#6e2b08;}.cls-6{fill:#a36542;}.cls-7{fill:#a36442;}.cls-8{fill:#a1bdd7;}.cls-9{fill:#702c08;}.cls-10{fill:#a3837c;}.cls-11{fill:#2f1813;}.cls-12{fill:#828386;}.cls-13{fill:#111112;}.cls-14{fill:#090909;}.cls-15{fill:#141414;}.cls-16{fill:#141413;}.cls-17{fill:#0c0c0c;}.cls-18{fill:#0b0c0c;}.cls-19{fill:#17110f;}.cls-20{fill:#c79022;}.cls-21{fill:#ccc;}.cls-22{fill:#d7e0e3;}.cls-23{fill:#d8e2e5;}.cls-24{fill:#d49479;}.cls-25{fill:#d5dee1;}.cls-26{fill:#cdcdcd;}.cls-27{fill:#a26441;}.cls-28{fill:#6b85b6;}.cls-29{fill:#a0a0a0;}.cls-30{fill:#fdfdfd;}.cls-31{fill:#fdfcfc;}.cls-32{fill:#efbe4b;}.cls-33{fill:#f0bd51;}.cls-34{fill:#faf9f9;}.cls-35{fill:#fefefe;}.cls-36{fill:#010101;}.cls-37{fill:#010100;}.cls-38{fill:#010000;}</style></defs><path class="cls-15" d="m234.28,1038.88c.36-12.71.21-25.46,1.18-38.13,1.61-21.1,2.71-42.2,3.43-63.35.6-17.7,2.02-35.36,2.98-53.05.35-6.44.35-12.9.54-19.34.62-21.52,1.8-43.02,2.93-64.52.82-15.6,1.22-31.22,2.72-46.78,1.1-11.47,2.56-22.91,3.42-34.4,1.3-17.45,3.87-34.77,5.34-52.2.96-11.37,3.02-22.64,4.01-34.01,1.16-13.26,2.99-26.47,3.11-39.84.09-10.43.29-20.86.73-31.3.39-9.41-.96-18.82-1.38-28.23-.63-14.24-1.5-28.49-1.24-42.76.11-5.81,1.03-11.58.7-17.41-.11-1.9.24-4.59-1.08-5.31-1.47-.8-2.94,1.57-4.25,2.72-1.97,1.74-3.65,3.79-5.6,5.55-1.21,1.09-1.27,2.05-.32,3.22,1.53,1.88,1.27,3.77.08,5.69-2.49,4.04-5.96,7.02-10.07,9.3-1.55.85-3.02.6-4.25-.58-1.64-1.56-3.17-3.23-4.79-4.9-3.73,6.68-8.79,12.07-13.95,17.37-9.58,9.82-18.14,20.46-26.12,31.61-6.84,9.55-15.27,17.29-26.07,22.47-7.58,3.64-14.63,2.62-21.57-.91-8.28-4.21-14.53-10.69-19.13-18.75-1.99-3.5-2.26-7.44-2.49-11.29-.53-9.24-.67-18.5-1.17-27.74-.91-16.81.14-33.56,1.11-50.33.76-13.22,1.45-26.45,1.27-39.72-.06-4.88.69-9.76,1.01-14.64.17-2.54-.72-4.74-2.22-6.8-6.08-8.36-12.99-16.09-18.58-24.83-3.67-5.74-6.92-11.64-9.11-18.11-.88-2.61-.75-5.14.05-7.7,3.74-12.01,9.34-22.98,18.08-32.15,1.34-1.4.6-1.8-.5-2.57-10.42-7.36-20.82-14.76-31.22-22.16-.64-.46-1.47-.74-1.66-1.66,1.21-1.4,2.31-.44,3.34.23,4.62,3.04,9.08,6.29,13.56,9.53,5.58,4.03,11.03,8.24,16.76,12.07,1.79,1.2,2.19,3.22,3.52,4.65-.19,1.45-1.2,2.41-2.05,3.47-7.34,9.09-12.14,19.55-16.28,30.37-.9,2.35-.63,4.5.38,6.82,4.79,10.95,12.05,20.27,19.29,29.6,2.84,3.66,5.6,7.38,8.28,11.16,1.19,1.68,1.9,3.51,1.81,5.6-.57,12.8-.11,25.63-.7,38.41-.58,12.67-1.58,25.35-2.34,38.02-.68,11.21-.66,22.51.19,33.77.39,5.06.43,10.16.56,15.23.13,5.47.62,10.87,1.26,16.28.22,1.9,1.23,3.45,2.33,4.86,3.53,4.52,7.38,8.74,12.02,12.18,2.13,1.58,4.5,2.65,6.89,3.79,4.94,2.35,9.57,1.95,14.39-.3,9.42-4.39,17.1-10.88,23.62-18.87,5.4-6.62,10.09-13.78,15.62-20.3,6.05-7.13,12.58-13.84,18.72-20.89,2.15-2.46,4.32-4.91,6.28-7.54,1.25-1.68,1.29-3.04-.37-4.47-13.56-11.71-27.33-23.12-43.08-31.87-2.02-1.12-3.38-1.02-4.94.78-2.65,3.07-4.11,6.11-2.75,10.4,1.8,5.71,3.14,11.58,4.39,17.44.78,3.62,2.26,6.64,5.12,9.02,1.25,1.04,2.35,2.27,3.58,3.35.88.78,1.44,1.73.64,2.86-.74,1.03-1.84,1.05-2.96.74-1.23-.34-2.03-1.41-3.12-1.99-.14.18-.13.34-.1.54.18,1.5.82,3.52-1.23,3.86-1.88.31-2.3-1.74-2.69-3.19-5.47-20.55-11.17-41.03-14.1-62.17-1.46-10.53-3.7-20.94-5.06-31.49-.62-4.83-1.33-9.67-.05-14.6,1.09-4.21,1.91-8.59,1.75-12.93-.19-5.24-.97-10.48-2.36-15.67-.59,1.14-1.37,2.18-2.49,2.29-2.53.25-3.16,1.92-3.72,3.98-.47,1.75-1.35,3.39-2.46,4.84-2.34,3.07-5.05,3.02-7.29-.13-1.42-1.99-2.44-4.26-4.21-6.02-2.33-2.32-3.19-2.44-5.85-.59-1.42.99-2.76,2.11-4.52,2.43-1.12.21-2.26.15-2.84-1.03-.55-1.12.26-1.88.96-2.59,1.01-1.02,2.37-1.66,3.23-2.89-.53-.92-1.56-.89-2.3-1.36-1.06-.66-2.04-1.4-1.48-2.82.48-1.24,1.64-1.45,2.75-1.14,6.31,1.77,12.19,4.26,16.02,10.05.65.99.91,2.95,2.33,2.59,1.26-.32,1.41-2.2,1.67-3.51.42-2.07.02-3.98-1.61-5.49-5.33-4.95-10.79-9.74-16.92-13.69-2.82-1.81-5.88-2.89-9.32-1.86-.26.08-.54.1-.81.13-1.14.14-2.38.13-2.76-1.12-.44-1.44.78-2.12,1.89-2.57,2.76-1.12,5.59-1.55,8.51-.54,3.39,1.18,6.48,2.93,9.17,5.27,5.07,4.41,10.56,8.31,15.21,13.21,1.37,1.44,2.93.81,3.61-1.29.51-1.57-.02-3.28.65-4.83,1.48-.19,1.7-.4,2.27-2.08.12-.36.4-.56.82-.39.44,7.36,5.33,13.46,5.63,20.99.28,7.06-.51,13.89-1.69,20.77-.83,4.88-.15,9.79.58,14.62,1.87,12.23,3.94,24.44,5.94,36.65.02.12.13.23.36.58,1.63-4.02,3.54-7.65,6.61-10.57,2.26-2.16,4.7-3.98,7.71-4.91.63-.2,1.2-.26,1.4-1.02,1.5-5.81,5.18-10.46,8.33-15.35,5.52-8.57,10.61-17.44,16.77-25.58,4.7-6.21,9.64-12.26,15.25-17.7,5.77-5.59,12.87-9.17,20.29-11.76,9.78-3.42,19.57-6.9,29.68-9.29,4.03-.96,8.17-1.38,12.31-1.7-.8,2.3-2.72,3.38-4.72,4.38-13.08,2.14-25.41,6.88-37.8,11.3-11.44,4.08-20.06,11.93-27.6,21.41-7.34,9.23-13.15,19.38-19.48,29.23-3.05,4.74-5.63,9.77-8.93,14.34-1.15,1.59-.74,2.12.91,2.9,14.01,6.69,27.07,14.82,38.23,25.76,5.9,5.79,11.87,11.52,16.75,18.25,1.03,1.42,1.82,1.42,2.89-.02,2.3-3.09,5.24-5.54,8.41-7.69,3.65-2.49,7.14-.85,7.57,3.5.81,8.16.65,16.3.13,24.48-.34,5.24-.49,10.53.27,15.78.21,1.45.15,2.9.15,4.36,0,11.72.82,23.4,1.49,35.09.38,6.59.85,13.17.32,19.85-.72,9.03,0,18.15-.68,27.22-.25,3.32.02,3.43,3.29,4.18,16.39,3.74,32.84,7.18,49.61,8.68,7.13.64,14.29,1.02,21.45,1.34,7.26.33,14.51.37,21.77.42,12.53.1,25-1.17,37.51-1.53,14.02-.41,27.83-2.51,41.66-4.46,4.41-.62,8.74-1.69,13.12-2.69-3.81.07-7.58-.71-11.37-.67-30.42.33-60.84-.56-91.26-.71-18.79-.09-37.58-.37-56.38-.43-.54,0-1.09-.01-1.63-.07-4.49-.5-5.83-3-3.64-6.91,4.87-8.73,9.79-17.43,14.68-26.14,13.65-24.33,27.46-48.56,41.03-72.93,18.48-33.18,37.04-66.32,55.91-99.28,1.2-2.09,2.67-2.92,5.02-2.92,10.62,0,21.22.41,31.82,1.06,5.34.32,10.7.27,16.05.42,8.16.24,16.32.85,24.49.73,2.63-.04,2.74-.18,1.8-2.6-1.02-2.63-2.17-5.2-3.26-7.8-2.8-6.68-8.37-10.67-14.28-14.12-10.36-6.04-21.65-9.73-33.26-12.53-1.98-.77-3.7-1.8-4.15-4.11,4.59,0,8.89,1.46,13.21,2.68,11.33,3.22,22.52,6.76,32.02,14.16,4.53,3.53,8.04,7.8,10.29,13.1,1.24,2.91,2.4,5.85,3.76,8.7,1.26,2.64,4.04,2.74,6.4,3.23,5.35,1.11,10.84.84,16.27,1.03,24.14.87,48.29,1.57,72.43,2.35,2.36.08,4.71.38,7.07.47,3.83.14,4.88,1.35,2.99,5.2-2.92,5.93-6.24,11.66-9.51,17.4-13.92,24.4-27.9,48.78-41.85,73.17-.31.54-.57,1.11-.93,1.82,2.9.76,5.76,1.12,8.45,2.17,3.07,1.2,5.47,3.16,7.45,5.72.61.8,1.14,1.64,1.29,2.64.66,4.21-.32,8.18-2.56,11.63-1.77,2.72-4.86,3.33-8.01,3-1.73-.18-2.57.14-2.78,2.17-.2,1.89-.27,4.02-1.9,5.52-.6.55-.05.91.25,1.35.83,1.19,1.63,2.39,2.41,3.61,2.26,3.58,1.92,7.03-1.15,9.93-1.73,1.64-3.13,2.98-2.24,5.87,1.26,4.1-1,7.73-2.66,11.34-.45.97-1.09,1.84-1.07,3.02.13,9-5.66,13.84-12.86,17.09-7.56,3.41-15.58,2.89-23.45.8-6.26-1.66-10.13-.09-13.24,5.71-2.01,3.75-4.07,7.47-6,11.25-.76,1.48-1.78,2.09-3.43,2.07-4.72-.05-9.45.06-14.17-.03-1.56-.03-2.38.21-2.16,2.04,1.64,13.51,1.45,27.16,3.04,40.7,1.14,9.72,1.33,19.56,2.63,29.28,2.24,16.65,3.8,33.37,5.07,50.11,1.39,18.29,1.91,36.62,2.33,54.95.52,22.53,2.39,44.98,3.53,67.48.82,16.06,1.09,32.14,1.43,48.22.72,33.35-.64,66.7-.02,100.05.14,7.63.41,15.26.59,22.89.02,1.01,0,1.98,1.1,2.48-1.68.98-3.24,2.49-5.43,1.19-.3-.68-.4-1.41-.37-2.13.31-8.27-.74-16.51-.6-24.78.08-4.54.16-9.07-.43-13.61-.57-4.35.45-8.69.45-13.05,0-10.09.14-20.18-.04-30.26-.16-8.46.86-16.87.6-25.33-.1-3.33-.05-3.38-3.1-2.25-11.87,4.38-24.3,6.03-36.77,7.29-13.72,1.39-27.47,2.41-41.28,2.36-6.47-.02-12.82-1.25-19.24-1.8-2.76-.23-3.28-.05-3.05,2.64.7,8.16.12,16.34.84,24.49.51,5.79.27,11.61.55,17.42.32,6.61.52,13.25.82,19.86.47,10.33.68,20.68,1.4,31,.26,3.79.51,7.61-.25,11.39q-1.21.27-2.05-1.51c.16,5.09-.91,10.18.04,15.28.2,1.08.01,2.43-1.66,2.54-.75-16.41-1.6-32.82-2.23-49.24-.66-17.15-1.46-34.29-1.85-51.45-.44-19.52-1.34-39.02-2.01-58.53-.43-12.43-.67-24.88-1.22-37.3-.5-11.42-1.49-22.82-1.93-34.23-.46-12.16-.45-24.34-.79-36.51-.18-6.35-.65-12.68-1-19.03-.7-.97-.42-2.1-.48-3.17-.42-7.8.06-15.61,0-23.41-.02-2.36.08-4.71-.21-7.07-.11-.9-.41-1.96.23-2.75-.64.21-.31.87-.28,1.33.5,7.71-.09,15.43.09,23.13.15,6.54-.24,13.06-.12,19.59.02.9.17,1.82-.18,2.7-.8,12.52-.98,25.05-1.03,37.59-.04,11.54-1.43,23.01-1.82,34.54-.37,10.89-.71,21.78-1.07,32.67-.74,22.69-1.46,45.38-3,68.03-.78,11.5-.97,23.06-1.12,34.59-.29,23.35-.86,46.7-.62,70.06,0,.91.04,1.82.06,2.72-1.8.19-2.79-1.35-4.22-1.97-.52-.8-.59-1.71-.63-2.62-.82-19.24-.83-38.5-.42-57.75.16-7.71.06-15.44.43-23.14.55-11.42.88-22.85,1.98-34.24.05-.54.12-1.08.13-1.63.01-2.49-.36-2.82-2.9-2.5-14.18,1.79-28.45,2.09-42.66,1.36-18.78-.97-37.43-3.36-55.54-8.83-3.24-.98-3.32-.82-3.46,2.52-.67,16.23-1.41,32.45-1.84,48.7-.35,12.94-1.2,25.91-2.31,38.85-.8,9.3-.15,18.7-.2,28.06-.02,3.27-.34,6.51-1,9.72-1.9,1.39-3.37.27-4.85-.82Z"/><path class="cls-1" d="m315.65,335.26c.31-1.14.57-2.29.3-3.64-1.94.51-3.32,2.05-5.22,2.6-8.11,2.38-16.37-.52-21.11-7.77-1.08-1.65-1.8-1.71-3.54-1.08-5.62,2.06-10.23-.09-14.25-4.03-2.15-2.11-3.94-4.51-5.4-7.14-.61-1.1-1.21-1.42-2.54-1.25-15.65,2.01-27.69-8.74-30.54-22.08-.21-.98-.06-1.96-1.6-1.95-6.96.06-12.09-3.9-16.99-8.12-7.37-6.36-10.52-14.56-9.8-24.23.14-1.89-.38-3.13-1.7-4.66-5.53-6.41-7.11-13.83-4.64-22.06,2.88-9.57,9.01-16.37,17.61-21.13.78-.43,1.58-.81,2.47-1.27-3.21-2.21-5.92-4.79-7.53-8.22-3.15-6.72-1.17-12.88,3.01-18.25,5.37-6.91,12.15-12.15,20.71-14.74.51-.15,1-.39,1.66-.65-1.63-2-1.45-4.35-.95-6.41,1.2-5.04,2.87-10.1,7.16-13.37,3.02-2.31,3.87-5.36,4.72-8.66,5.69-22.07,16.79-41.14,32.69-57.32,7.78-7.91,17.66-12.94,27.54-17.73,10.43-5.07,21.32-8.94,32.79-10.98.58-.1,1.02-.33,1.29-.86.17-.32.36-.62.54-.93,2.7-4.88,6.15-8.33,12.26-8.92,5.79-.56,11.36-1.03,16.56,2.14,4.6,2.8,4.94,4.03,2.48,8.62,15.2,2.88,28.66,10,40.75,19.08,17.11,12.84,29.92,29.36,36.92,49.94,2.12,6.23,4.04,12.52,5.58,18.92.6,2.49,1.85,4.47,3.86,6.02,4.69,3.63,8.07,8,8.31,14.28.06,1.66-.08,3.27-.36,4.87-.48,2.84-.06,3.54,2.84,4.14,11.56,2.42,21.42,15.36,20.63,27.06-.14,2.03-.92,3.89-1.7,5.7-.78,1.81-1.9,3.48-2.75,4.99,10.25,4.73,16.67,12.63,19.71,23.46,2.1,7.52.79,14.71-1.99,21.76-.42,1.07-.41,1.71.32,2.82,3.23,4.91,3.48,10.28,1.99,15.9-2.82,10.66-12.1,16.91-21.65,17.74-1.6.14-1.82.77-1.94,2.17-1.41,16.14-15.36,33.19-35.01,32.83-3.64-.07-7.22-.36-10.69-1.54-.75-.25-1.39-.46-2.04.54-5.7,8.86-13.91,10.71-23.45,7.82-2.93-.89-5.01-.47-7.7.94-6.54,3.45-13.5,2.46-20.33.56-1.63-.45-3.22-1.05-5-1.64.06,1.14.11,2.04.16,2.94-.37,2.78-1.2,3.55-3.3,3.03-.78-3.59-.29-7.22-.35-10.83-.06-3.42.03-3.43-3.07-2.29-7.38,2.71-15.07,4.19-22.86,4.32-8.08.14-16.04-1.33-23.72-4.01-2.14-.75-4.26-1.52-6.35-2.4-1.38-.58-1.76-.13-1.63,1.3.29,2.97.76,5.93.82,8.92.04,2.09-.1,4.17-.92,6.14-1.74,1.09-2.49.03-3.05-1.42Z"/><path class="cls-1" d="m372.33,1038.92c1.45-.81,1.17-2.23.95-3.39-.69-3.59-.73-7.15.05-10.72.32-1.47-.44-2.83-.49-4.27-.02-.58-.26-1.43.64-1.53.58-.07.77.63,1.09,1.06.68.92.02,2.21.91,3.04,1.33,1.02,1.3,2.52,1.36,3.96.09,2.54-.03,5.08.06,7.62.11,2.94.81,3.63,3.71,3.94,12.84,1.36,25.64,1.07,38.47-.48,14.92-1.81,29.55-4.61,43.45-10.55,4.27-1.83,8.27-4.12,12.05-6.8.72-.51,1.33-1.3,2.39-.95,1.42-1.23,3.2-1.39,4.94-1.67,1.59.86,1.3,2.59,1.41,3.86.41,4.7.28,9.43-.51,14.1-.78,4.58-4.32,7.18-7.53,9.92-4.66,3.99-10.21,6.46-15.67,8.74,14.15,11.51,25.48,25.43,33.89,41.63,6.06,11.67,10.79,23.87,12.26,37.09.13,1.15.84,1.97,1.2,2.98,5.3,14.86-1.31,36.24-22.18,38.91-13.42,1.72-25.53-1.92-37.4-7.48-27.18-12.75-47.64-33.22-65.4-56.8-1.09-1.44-1.99-3.02-2.97-4.55-4.52-7.07-4.08-14.7,1.28-21.33,1.15-1.42.78-3.15,1.03-4.68.9-5.61,1.77-11.23,1.93-16.94.04-1.54-.45-2.1-1.82-2.33-.97-.16-1.91-.57-2.88-.69-4.53-.55-6.38-3.48-6.69-7.64-.35-4.69-.69-9.39.49-14.03Z"/><path class="cls-1" d="m234.28,1038.88c1.54.35,3.07.7,4.61,1.05,3.08-.21,5.83,1.16,8.68,1.95,11.12,3.11,22.43,5.09,33.93,6.09,7.49.65,15,1.41,22.51,1,13.37-.74,26.83-.85,39.81-4.92,1.68-.53,3.23-1.15,4.47-2.41,2.18-1.8,2.06,1.63,3.49,1.54,2.24,1.16,1.52,3.51,1.84,5.26.75,4.12-.77,8.26-.49,12.45.04.66-.61,1.43-1.45,1.8-4.62,2.05-9.26,4.04-14.22,5.09-1.38.29-1.69.86-1.74,2.17-.21,5.4,1.49,10.59,1.69,15.94,0,.26.08.7.22.75,5.18,1.81,4.7,6.67,5.82,10.69,1.34,4.85.04,9.31-1.91,13.67-3.3,7.38-8.53,13.42-13.71,19.49-6.73,7.88-13.56,15.66-22.06,21.74-14.35,10.27-29.75,18.36-47.36,21.17-9.28,1.48-18.71,2.44-28.11.28-3.98-.91-7.78-2.25-11.3-4.31-3.04-1.78-4.38-4.83-5.23-7.96-1.39-5.14-2.78-10.35-.85-15.71.11-.31.1-.72,0-1.05-2.32-8.07-.96-16.04.98-23.89,5.34-21.53,16.59-39.15,34.91-52,.49-.35.9-.81,1.4-1.28-4.96-2.02-9.87-3.81-14.41-6.45-1.37-.8-2.04-1.86-2.54-3.29-2.3-6.44-1.91-12.71,1.01-18.85Z"/><path class="cls-14" d="m117.18,307.53c-.97-.3-2.32-.17-1.85-1.93.21-.81-.69-.99-1.15-1.32-10.19-7.32-20.39-14.61-30.6-21.89-.99-.7-1.95-1.69-3.39-1.04-.44-2.32-2.2-3.52-3.92-4.82-2.6-1.96-2.06-6.66.84-8.22,1.17-.63,1.81.31,2.68.7,16.58,7.54,29.99,19.93,45.12,29.67.75.48,1.51.96,2.22,1.4.79-1.32,1.42-2.63,2.29-3.76,3.47-4.53,9.92-4.45,13.88.17.88,1.02,1.81,2.14,2.25,3.37,1.37,3.86,4.04,4.94,7.86,4.38,2.51-.36,5.06-.47,7.59-.54,2-.06,3.72.64,4.75,2.52,1.08,1.99.3,3.7-.91,5.27-2.21,2.86-5.16,4.77-8.34,6.36-.87.44-1.94.5-2.7,1.36,7.57,5.56,15,11.26,22.71,16.56,3.03,2.09,5.19,4.7,7.07,7.67,1.81,2.85,3.75,5.55,6.54,7.53.44.31.88.69,1.14,1.15.33.58,1.13,1.15.6,1.92-.62.91-1.33.16-1.88-.15-4.75-2.67-9.99-3.93-15.12-5.59-4.19-1.36-7.41-4.71-10.94-7.36-.71-.53-1.42-1.05-2.36-1.75-.5,3.41.36,6.69-.75,9.78-.4.29-.55.67-.45,1.15.19.88,1.1,1.99-.25,2.51-1.09.43-1.3-.95-1.93-1.49-7.11-6.14-15.17-10.86-23.16-15.7-3.62-2.19-7.34-3.41-11.59-3.22-3.23.14-5.02-.81-4.8-2.33.37-2.59,2.71-2.28,4.48-2.65,3.92-.8,7.39.83,10.66,2.54,7.32,3.84,14.22,8.41,21.15,12.91.65.42,1.15,1.19,2.15,1.09,1.02-5,.24-9.2-4.38-12.29-6.98-4.67-13.86-9.35-22.66-9.85-2.14-.12-4.14.29-6.21.52-1.11.12-2.36.28-2.81-1-.47-1.34.5-2.26,1.57-2.85,2.46-1.37,5.12-1.73,7.9-1.33,8,1.15,15.72-.07,23.27-2.75,2.15-.77,4.17-1.81,5.92-3.3.81-.69,2.03-1.42,1.6-2.6-.44-1.22-1.82-.97-2.88-.86-1.45.15-2.9.16-4.35.29-11.42,1.07-22.87.23-34.3.47-.9.02-1.83,0-2.54-.72Z"/><path class="cls-36" d="m427.86,351.77c1.28,1.25,2.56,2.49,3.84,3.74,1.04-.16,1.73.51,2.37,1.11,2.85,2.68,5.34,5.69,7.7,8.81.77,1.02,1.43,2.21.7,3.52-.78,1.4-2.18,1.48-3.58,1.4-.91-.05-1.8-.25-2.67-.51-8.88-2.59-18.01-3.11-27.19-3.2-4.63-.04-9.26-.02-13.89,0-3.13.01-3.22.13-2.37,3.05,1,3.43,1.43,6.95,1.46,10.49.03,3.43-1.53,4.52-4.72,3.16-4.51-1.92-8.92-4.05-13.59-5.61-4.34-1.45-8.75-2.2-13.33-2.42-13.09-.63-25.67,1.36-37.78,6.49-4.46,1.89-6.78.14-6.04-4.69.79-5.11.29-5.07-4.64-6.11-14.34-3.02-28.13-.89-41.58,4.45-1.03.41-2.1,1.49-3.23.4-1.08-1.04-.8-2.4-.22-3.56,3.51-7.08,7.08-14.14,12.16-20.28,1.22-1.47,2.58-2.81,4.38-3.61l4.32-3.72c3.99-2.25,7.81-4.84,12.38-5.93,3.45-.83,6.91-1.41,10.47-1.27.97.04,2.01.27,2.74-.69,1.12-.39,1.85.17,2.48.99.17,2.57-1.47,4.28-3.15,5.73-1.73,1.5-1.45,2.55-.07,4.01,4.6,4.85,10.39,7.82,16.34,10.54,7.26,3.31,14.75,6.06,22.05,9.25.91.4,1.85.8,2.64,1.41,1.36,1.05,2.54.92,3.94-.03,6.24-4.21,12.39-8.53,18.05-13.52,2.25-1.98,3.95-4.49,5.99-6.67,1.2-1.28.97-2.22-.71-3.13-3.12-1.68-5.7-3.93-5.79-7.91.68-1.26,1.52-2.28,3.14-2.2,4.8-.23,9.64-.63,14.36.39,11.27,2.45,21.45,7.35,30.65,14.31.79.6,1.59,1.19,2.39,1.78Z"/><path class="cls-33" d="m317.79,338.06c-.75-.41-1.49-.83-2.24-1.24-.48-.55-.85-1.1.1-1.55.86.54,1.71,1.09,2.57,1.63,3.96-.11,7.9-.35,11.83-.96,2.19-.34,3.62,1.19,4.09,3.48.04.18.01.37.06.54.37,1.32,1.01,3.13,2.12,3.17,1.67.05,1.6-1.81,1.62-3.18.03-1.43.71-2.44,2.1-2.82,1.07-.29,1.99.1,2.66.95.92,1.17.78,2.35-.15,3.47-.23.28-.49.54-.65.87-.37.75-.4,1.46.55,1.74.77.23,1.27-.25,1.34-.96.15-1.38.53-2.66,1.19-3.87,1.26-2.31,2.93-3.27,4.47-2.53,1.55.75,2.01,2.68,1.19,5.06-.17.51-.48.97-.59,1.52,2.28-.15,2.56-.33,3.04-2.1.12-.43.09-.91.29-1.33.68-1.41,1.73-2.15,3.29-1.5,1.49.62,1.6,1.8,1.05,3.17-.28.69-1.24,1.44-.27,2.14.77.55,1.81.02,2.15-.62,1.58-3.01,4.41-3,7.19-3.37,3.74-.49,6.92-2.59,10.39-3.89,1.39-.76,2.48-1.78,2.89-3.38.56.88.33,1.86.39,2.8-.93.74-1.86,1.48-2.79,2.22-1.6,2.38-4.29,2.88-6.69,3.84-1.52.6-3.12,1.01-4.74,1.2-1.64.19-2.85.91-3.88,2.21-2.02,2.56-4.57,3.48-7.7,2.05-.42-.19-.91-.47-1.3-.3-3.1,1.28-6.53-.27-9.6,1.17-.41.19-1.01.42-1.31.22-3.53-2.42-6.94.29-10.41.22-4.74-.1-5.75-1.01-4.97-5.66.39-2.35-.29-2.76-2.44-2.61-2.4.16-4.95.33-6.83-1.78Z"/><path class="cls-29" d="m360.35,762.98v-47.31c1.78,12.29.21,24.65.96,36.96-1.14,1.89-.25,3.96-.53,5.93-.21,1.47.4,3.01-.43,4.42Z"/><path class="cls-28" d="m257.59,696.61c.53-5.68.92-11.34,1.48-16.99.81-8.11,1.56-16.24,2.59-24.32,1.66-13.04,2.72-26.13,3.84-39.21.17-1.96.8-2.16,2.58-1.56,12.23,4.11,24.67,7.43,37.42,9.57,10.52,1.77,21.07,3.25,31.7,4.2,12.12,1.09,24.27,1.58,36.43,1.5,14.41-.1,28.77-1.28,43.08-3.08,13.98-1.75,27.87-3.97,41.62-7.03,1.49-.33,1.63.2,1.71,1.45.87,13.39,1.56,26.8,2.76,40.16,1.08,11.92,2.75,23.78,4.14,35.66.09.76.55,1.54-.15,2.52-5.8-11.39-13.27-21.7-18.28-33.39-2.17-5.08-4.71-10.01-7.47-14.81-.51-.89-.89-2.02-2.12-1.53-1.17.47-.92,1.72-.68,2.65.29,1.13.87,2.18,1.3,3.27,6.66,16.96,15.74,32.68,25.08,48.22,3.18,5.3,4.25,10.79,4.64,16.69,1.26,19.03,2.04,38.07,2.29,57.13.06,4.44.42,8.89.49,13.34.02,1.37-.41,2.05-1.68,2.66-11.17,5.41-22.97,8.52-35.24,10.17-13.95,1.88-27.92,3.08-42.01,2.68-8.25-.23-16.41-1.25-24.5-2.79-1.2-.23-1.94-.74-1.93-2.14,0-1.54-.3-3.08-.28-4.61.24-13.54-.2-27.06-1.31-40.54-.84-10.15-.88-20.3-1.03-30.47-.18-12.88-1.76-25.71-1.56-38.61.05-3.44-.93-6.97.96-10.34.69-1.24-.71-2.3-1.6-3.19-4.81-4.82-9.77-9.5-13.78-15.06-.68-.95-1.3-1.96-1.89-2.97-.22-.38-.23-1-.82-.8-.36.12-.77.54-.87.91-.42,1.53.23,2.83,1.02,4.09,2.91,4.64,6.46,8.77,10.35,12.6,1.59,1.57,2.25,3.14,2.29,5.45.2,12.92-1.65,25.72-2.08,38.59-.12,3.63-.22,7.27-.15,10.9.43,23.54-.97,47.05-.7,70.59.02,1.98-.28,3.05-2.76,3.58-16.11,3.42-32.34,3.58-48.69,2.8-13.74-.65-27.08-3.24-40.33-6.69-4.31-1.12-8.35-2.93-12.53-4.41-1.19-.42-1.38-1.2-1.36-2.31.19-9.08.76-18.14,1.49-27.18.6-7.5,1.15-15.01,1.84-22.5,1.05-11.46,2.21-22.9,3.27-34.36.12-1.29.96-2.12,1.48-3.16,8.97-17.84,19.74-34.69,28.82-52.47,1.4-2.75,2.71-5.54,3.75-8.44.27-.75.72-1.69-.21-2.16-.97-.49-1.7.17-2.2,1.05-1.37,2.46-2.75,4.9-4.12,7.36-7.82,14.02-15.65,28.04-23.46,42.07-.95,1.71-1.78,3.5-2.66,5.25Z"/><path class="cls-24" d="m295.23,594.69c2.52-4.54,4.94-8.96,7.41-13.36,16.25-28.93,32.5-57.87,48.78-86.79,13.03-23.16,26.12-46.28,39.13-69.45,5.28-9.41,10.46-18.88,15.59-28.37.8-1.49,1.68-2.02,3.37-1.96,19.14.72,38.29,1.37,57.44,2.04,12.43.43,24.86.85,37.29,1.28,25.86.9,51.72,1.8,77.59,2.69,2.52.09,5.04.01,7.93.01-3.46,5.9-6.78,11.48-10.02,17.1-14.53,25.24-29.04,50.48-43.52,75.75-.62,1.07-1.29,1.42-2.51,1.56-4.97.59-9.82,1.37-13.38,5.62-3.93,4.69-3.71,8.54,1.13,12.23.79.6,1.66,1.12,2.55,1.56.94.46,1.41.66.58,1.9-2.39,3.56-2.25,3.52-6.6,2.2-10.13-3.08-20.37-5.64-31.01-6.14-3.42-.16-5.61,1.26-6.8,4.58-.86,2.38-.49,4.16,1.3,5.87,3.97,3.81,8.69,6.51,13.44,9.17,2.19,1.23,4.45,2.33,7.09,3.72-7.53-.37-14.6-.73-21.67-1.06-1.61-.07-3.27-.34-4.64.95-1.78,1.67-2.09,3.78-1.69,6,.54,2.96,2.29,5.09,5.04,6.32,1.12.5,1.86.78,1.37,2.49-.93,3.29.76,5.91,3.38,7.69,3.52,2.39,7.22,4.51,10.88,6.69,1.24.74,1.5,1.37.69,2.76-5.02,8.71-9.92,17.49-14.85,26.26-.67,1.2-1.27,2.11-3.04,2.1-20.71-.13-41.42.13-62.13-.25-24.98-.46-49.95-.21-74.92-.56-14.71-.21-29.42-.44-44.13-.37-.24,0-.49-.1-1.07-.24Z"/><path class="cls-28" d="m285.64,348.42c-6.68,6.23-10.78,14.21-14.95,22.14-.42.8-.87,1.59-1.2,2.43-.36.94-.67,2.08.13,2.82.8.74,1.42-.43,2.07-.74,6.88-3.22,14.21-4.82,21.65-5.81,8.35-1.11,16.61-.2,24.78,1.88,1.48.38,1.95.9,1.74,2.34-.22,1.52-.38,3.06-.44,4.6-.15,3.82.99,4.72,4.49,3.31,5.38-2.16,10.78-4.25,16.49-5.31,15.82-2.93,31.34-2.76,46,5.06.48.25.98.46,1.47.69,5.52,2.52,6.25,2.04,5.57-4.04-.39-3.5-.77-7.03-2.22-10.31-.46-1.05-.52-1.63.95-1.63,7.53,0,15.06.27,22.58.25,8.17-.01,15.95,1.63,23.76,3.56,1.27.31,2.71.33,3.47-.87.73-1.15-.12-2.26-.88-3.14-3.03-3.48-5.64-7.36-9.4-10.16.2-.8.81-.63,1.3-.47,10.33,3.26,20.86,6.03,30.39,11.4,6.52,3.67,12.88,7.66,16.32,14.7,1.94,3.97,3.44,8.15,5.22,12.45-4.14,0-8.07.11-12-.02-15.61-.49-31.21-.95-46.81-1.65-5.9-.27-11.8-.29-17.69-.57-1.79-.08-2.81.41-3.82,2.17-13.42,23.35-26.67,46.8-39.79,70.32-13.03,23.36-26.14,46.68-39.24,70.01-10.92,19.45-21.88,38.88-32.85,58.31-2.19,3.88-1.15,5.83,3.43,6.03,2.99.14,5.99.13,8.99.15,26.79.19,53.58.35,80.37.56,20.34.16,40.68.35,61.02.56,3.63.04,7.26.26,10.88.42.49.02,1.21-.25,1.36.48.18.87-.56.98-1.2,1.11-8.39,1.84-16.83,3.32-25.35,4.37-7.45.92-14.91,1.81-22.37,2.61-3.97.42-7.98.36-11.96.51-14.69.56-29.37,1.71-44.08,1.26-16.21-.5-32.39-1.25-48.47-3.7-12.15-1.85-24.1-4.61-36.1-7.15-1.6-.34-2.14-.96-2.09-2.5.34-10.98.61-21.96.95-32.94.23-7.28-.58-14.5-1.02-21.74-.64-10.61-.82-21.23-1.23-31.84-.32-8.18-.24-16.33.06-24.5.22-6.08.15-12.16-.35-18.24-.12-1.52-.63-2.61-2.06-3.21-1.45-.61-2.77-.51-4.09.45-4.05,2.95-7.96,6.03-10.53,10.62-15.91-21.28-35.7-37.34-59.82-47.86,8.32-12.27,15.4-25.62,24-38.01,4.77-6.87,10.12-13.28,16.05-19.16,5.39-5.34,12.14-8.67,19.13-11.16,10.37-3.69,20.7-7.61,31.51-9.93,1.93-.41,3.91-.63,5.86-.94Z"/><path class="cls-28" d="m348.28,1041.65c.02,1.28-.34,2.13-1.78,2.52-8.62,2.36-17.26,4.38-26.27,4.64-6.34.18-12.65,1.01-19.01,1-20.84-.05-41.25-2.94-61.13-9.28-.42-.13-.81-.39-1.21-.59.46-12.71.02-25.46.69-38.15.66-12.49,1.2-25,2.24-37.47.19-2.26.17-4.54.15-6.81-.12-15.27,1.32-30.48,1.69-45.73.05-1.87.57-2.02,2.2-1.52,13.77,4.23,27.85,6.79,42.2,8.29,12.13,1.27,24.25,1.79,36.4,1.38,7.94-.27,15.98.1,23.79-1.89,1.83-.47,1.69.46,1.61,1.69-.41,6.79-.8,13.59-1.16,20.38-.37,6.89-.89,13.78-.99,20.67-.32,21.35-1.14,42.7-.35,64.05.21,5.6-.32,11.26.93,16.81Z"/><path class="cls-6" d="m117.18,307.53c10.17-.03,20.34-.06,30.51-.1,3.63-.01,7.23-.36,10.82-.81.36-.05.76-.17,1.07-.06,1.08.37,2.7.05,3.12,1.25.36,1.03-.81,1.95-1.55,2.7-3.58,3.66-8.28,5.05-13.03,6.24-6,1.5-12.07,1.89-18.23.93-2.54-.39-5.05.08-7.34,1.32-.85.46-1.45,1.26-1.01,2.24.37.82,1.24.57,1.94.37,6.17-1.73,12.07-.58,17.62,2.13,5.2,2.54,10.28,5.34,14.54,9.43,1.63,1.56,2.54,3.16,2.41,5.44-.12,2.17-.03,4.35-.03,6.54-.71.42-1.17-.09-1.66-.45-6.74-4.91-13.95-9.11-21.1-13.37-4.32-2.58-8.98-4.31-14.23-3.11-1.07.25-2.05.59-2.02,1.77.03,1.03.96,1.62,1.94,1.48,10.06-1.49,16.93,5.23,24.64,9.67,3.9,2.25,7.62,4.88,11.07,7.81.69.59,1.34,1.24,1.49,2.21-.3,1.96.17,3.98-.54,5.94-.46,1.26-1.2,1.95-2.46,2.23-1.33.3-1.73-.68-2.51-1.47-2.47-2.5-5.08-4.89-7.82-7.09-4.44-3.55-8.4-7.74-13.7-10.18-3.61-1.66-7.14-1.72-10.75-.23-.66.27-1.51.67-1.35,1.47.18.92,1.09,1.22,1.95.91,6.15-2.18,10.65,1.25,15.1,4.53,4.31,3.17,8.42,6.61,12.29,10.31,3.22,3.08,3.49,7.76.8,11.29-.61.8-1.07.89-1.6-.02-.18-.31-.45-.58-.61-.9-3.4-6.96-9.57-10.08-16.59-12.08-1.13-.32-2.27-.69-2.71.72-.42,1.33.9,1.58,1.76,1.98.9.42,1.83.77,2.74,1.16.16.07.3.2.57.4-1.43,1.38-2.85,2.69-4.52,3.74-.58.37-1.35.87-1.02,1.73.35.91,1.23,1,2.08.84,1.66-.3,2.97-1.23,4.25-2.28,3.39-2.77,4.1-2.65,7.24.47,1.71,1.7,2.64,3.89,3.95,5.85,2.22,3.33,4.73,3.32,6.83-.16,1.21-2.01,2.26-4.14,2.61-6.51.14-.97.29-1.81,1.58-1.68,2.33.24,3.62-1.3,5-3.12,2.27,8.75,3.81,17.41,1.59,26.12-2.11,8.27-1.06,16.35.28,24.48,2.41,14.63,4.79,29.26,7.45,43.84,2.13,11.67,5.51,23.05,8.41,34.54.84,3.33,1.72,6.66,2.7,9.95.24.8.72,2.09,1.66,1.87,1.15-.27.97-1.6.75-2.56-.26-1.11-.56-2.19-.33-3.69,1.38,1.49,2.51,2.8,4.06,3.53.9.43,2.03.7,2.7-.35.68-1.06-.32-1.58-.97-2.2-2.11-1.99-4.14-4.08-6.31-6.01-1.13-1.01-1.34-2.34-1.67-3.63-1.8-7.02-3.34-14.1-5.37-21.05-1.01-3.44-.3-6.08,1.7-8.82,3.43-4.68,3.32-4.65,8.29-1.86,14,7.87,26.46,17.83,38.51,28.33,1.37,1.19,2.66,2.48,4.12,3.55,1.85,1.36,1.64,2.73.35,4.27-3.13,3.76-6.07,7.71-9.43,11.24-10.53,11.04-20.3,22.68-29.28,35.03-6.74,9.28-15.17,16.67-25.58,21.88-6.56,3.28-12.59,2.55-18.58-.73-7.05-3.86-12.49-9.58-17.04-16.12-2.66-3.83-2.29-8.51-2.63-12.85-.58-7.32-.26-14.71-.8-22.03-.82-11.17-.6-22.33-.31-33.49.25-9.58,1.41-19.14,1.89-28.73.37-7.33.97-14.67.64-22.03-.38-8.63.45-17.23.63-25.85.05-2.51-.63-4.58-2.13-6.54-5.07-6.63-10.2-13.21-15.06-20-4.69-6.55-9.25-13.21-12.4-20.72-.99-2.36-1.17-4.46-.29-6.79,4.29-11.33,9.28-22.27,17.18-31.64.64-.76,1.15-1.62,1.71-2.44Z"/><path class="cls-28" d="m476.96,1019.84c-11.64,9.32-25.51,13.35-39.71,16.28-11.79,2.43-23.77,3.74-35.81,4.24-7.62.32-15.18-.59-22.76-1.22-1.93-.16-2.44-1.19-2.49-2.74-.1-2.99-.07-5.99-.19-8.98-.06-1.44-.34-2.87-.52-4.31.32-8.26-.38-16.51-.59-24.76-.2-7.62-.63-15.23-.99-22.84-.77-16.5-1.4-33.01-1.69-49.53-.05-2.81-.29-5.62-.34-8.43-.06-3.26-.03-3.14,3.1-2.71,10.52,1.46,21.08,2.52,31.7,1.77,10.75-.76,21.53-1.24,32.25-2.51,12.23-1.46,24.37-3.22,35.94-7.72.58-.23,1.15-.46,2.15-.86-.9,38.31-1.22,76.32-.04,114.33Z"/><path class="cls-28" d="m249.62,796.1c34.37,12.86,69.34,15.22,105.2,8.45-.01,6.53-.69,13.38-1.07,20.24-.99,18.14-1.47,36.29-1.83,54.45-.23,11.34-1.04,22.67-1.53,34-.05,1.24-.42,1.66-1.68,1.85-15.52,2.34-31.16,2.15-46.72,1.44-18.44-.83-36.73-3.31-54.56-8.45-2.56-.74-3.52-1.79-3.27-4.45,1.46-15.75,1.35-31.57,2.12-47.35.81-16.51,1.47-33.02,2.42-49.52.21-3.57.05-7.24.93-10.66Z"/><path class="cls-28" d="m476.76,877.53c0,7.9,0,15.8,0,23.7,0,.8.08,1.25-1.07,1.65-11.41,4.01-23.19,6.42-35.16,7.65-7.47.77-14.92,1.87-22.47,1.91-7.52.04-15.01,1.14-22.55,1.04-7.35-.1-14.6-1.47-21.94-1.73-1.48-.05-1.99-.9-2.04-2.29-.23-5.98-.55-11.97-.77-17.95-.62-17.24-1.1-34.48-1.85-51.72-.44-10.05-1.3-20.09-1.96-30.13-.04-.54.02-1.09-.02-1.64-.11-1.45.06-2.02,1.92-1.6,11.18,2.52,22.58,3.35,33.99,3.24,9.69-.09,19.32-1.19,28.95-2.39,10.08-1.26,19.95-3.16,29.51-6.63,3.07-1.11,6.03-2.44,8.93-3.92,1.41-.72,1.87-.44,1.96,1.14.43,7.34.98,14.67,1.43,22.01.71,11.59,1.41,23.19,2.04,34.78.42,7.62-.04,15.27,1.08,22.89Z"/><path class="cls-8" d="m363.84,626.47c-15.34-.2-30.63-1.25-45.83-3.22-17-2.21-33.75-5.72-50.13-10.87-1.46-.46-1.99-1.13-1.68-2.71.43-2.21.67-4.48.83-6.73.1-1.51.73-1.5,1.94-1.2,10.32,2.57,20.71,4.89,31.18,6.71,7.92,1.37,15.9,2.4,23.95,2.96,16.21,1.12,32.45,2.01,48.68,1.42,15.76-.57,31.55-.77,47.25-2.5,12.4-1.37,24.81-2.6,36.87-6.01,1.62-.46,2.47-.24,2.33,1.82-.19,2.88.85,5.69.72,8.62-.07,1.67-.55,2.28-2.25,2.63-13.01,2.68-26.14,4.49-39.33,6.07-18.13,2.18-36.29,3.29-54.54,3.02Z"/><path class="cls-6" d="m512.62,579.11c-5.21.22-10-1.03-14.72-2.71-1.35-.48-2.92-1.48-2.6-2.61.41-1.44.79-3.18,3.17-3.79,2.45-.63,4.1-.13,6,1.1,1.74,1.13,3.63,2.05,5.49,2.99.71.36,1.52.61,2.3.71.96.12,2.17.31,2.53-.94.34-1.18-.62-1.78-1.53-2.25-2.66-1.35-5.35-2.65-8-4.02-6.46-3.32-12.29-7.68-18.52-11.38-1.43-.85-2.59-2.02-3.07-3.67-.53-1.84.22-2.59,2.09-2.04,8.57,2.55,17.13,5.15,25.7,7.71,4.41,1.32,8.88,2.47,13,4.62.16.08.33.16.5.21,1.17.38,2.43.72,2.94-.84.47-1.45-.78-1.84-1.79-2.19-5.29-1.84-10.62-3.56-15.87-5.49-9.35-3.43-19.08-5.57-28.51-8.73-3.58-1.2-5.11-3.14-4.69-5.71.25-1.5.88-2.52,2.66-2.4,7.13.46,14.27.81,21.41,1.31,5.5.39,10.99.95,16.48,1.42,4.59.4,9.22.39,13.71,1.64,6.47,1.8,8.85,6.55,5.83,12.65-1.42,2.87-2.47,5.81-2.65,9.23-.35,6.5-7.52,13.08-14.95,14.63-2.33.48-4.66.66-6.88.55Z"/><path class="cls-8" d="m174.56,444.1c2.17-4.85,5.12-9.1,9.53-12.28,1.66-1.19,3.23-1.36,5.05-.46,19.58,9.67,37.58,21.43,51.48,38.7,2.84,3.53,5.61,7.09,8.05,10.91.79,1.24.8,2.08-.19,2.99-2.66,2.46-5.37,4.88-8.02,7.35-.92.85-1.36.25-1.95-.4-10.08-11.16-21.67-20.61-33.67-29.55-8-5.96-16.37-11.37-25.5-15.48-1.53-.69-3.16-1.19-4.77-1.78Z"/><path class="cls-6" d="m488.82,515.28c7.18,1.23,14.59,2.32,21.8,4.45,8.48,2.51,17.1,4.6,25.03,8.68,2.36,1.21,4.53,2.57,6,4.92,2.2,3.5,1.53,6.95-1.86,9.23-.8.54-1.24.34-1.87-.16-4.57-3.64-10.11-4.38-15.59-4.62-6.63-.3-12.85-1.59-18.62-4.93-5.07-2.93-10.81-4.6-15.48-8.28-1.13-.89-2.38-1.65-3.45-2.61-1-.9-2.64-1.46-2.02-3.41.59-1.85,1.73-2.87,3.68-3,.72-.05,1.43-.15,2.38-.26Z"/><path class="cls-6" d="m537.99,498.37c5.34-.02,10.55,1.23,14.82,5.35,1.34,1.29,1.75,2.69,1.41,4.4-.3,1.5-.66,3-1.02,4.49-.9,3.71-2.85,5.3-6.62,4.82-7.28-.92-14.42-2.47-21.02-5.89-2.24-1.16-4.63-2.61-4.64-5.23,0-2.69,2.36-4.47,4.57-5.69,3.74-2.07,7.96-2.13,12.49-2.25Z"/><path class="cls-27" d="m526.04,521.11c2.22-3.19,4.94-4.28,8.62-2.6,1.26.57,2.81.59,4.24.69,1.98.14,2.79.76,2.21,2.98-1.28,4.88-1.16,4.88-5.78,2.65-2.03-.98-4.12-1.83-6.2-2.68-1-.41-2.04-.69-3.09-1.04Z"/><path class="cls-2" d="m177.93,448.98c-1.67,1.67-2.95,3.18-4.29,5.47-.57-2.96-1.02-5.32-1.55-8.03,2.07.91,3.79,1.66,5.84,2.55Z"/><path class="cls-11" d="m421.87,170.25c0-2.36-.03-4.73,0-7.09.02-1.45-.55-2.42-2.06-2.1-9.83,2.06-15.2-3.84-19.65-11.12-1.06-1.73-1.84-2.36-3.74-1.51-4.87,2.17-9.83,3.94-15.17,4.88-10.98,1.93-22.21-2.18-28.26-13.51-1.37-2.56-2.43-5.26-3.85-7.78-.43-.77-.7-1.84-1.89-1.62-1.18.21-1.11,1.23-1.17,2.15-.68,10.07-3.8,14.75-14.56,18.92-8.99,3.48-17.71,2.66-26.37-1.04-.42-.18-.83-.39-1.26-.5-1.39-.36-2.7-1.37-4.17-1.04-2.04.46-.92,2.45-1.44,3.68-2.54,6.08-5.58,11.62-12.13,14.24-2.79,1.12-5.62,1.23-8.45.34-1.9-.59-2.86-.31-3.09,1.92-.52,5.29-1.16,10.57-3.2,15.58-1.42,3.49-3.83,6.12-6.58,8.52-1.1.96-2.5.89-3.88.92-2.15.04-3.39.96-3.2,3.36.3,3.63-.88,7.2-.54,10.84.04.44.05,1.09-.21,1.3-3.57,2.92-1.51,6.59-1.13,9.87.25,2.18.21,3.65-1.63,5.17-8.92,7.39-10.94,23.59-5.48,34.92,3.47,7.19,8.7,12.12,16.65,13.87,2.25.5,4.54.37,6.77.17,1.29-.12,1.79.25,2.26,1.27,3.83,8.27,8.99,15.74,14.75,22.71,6.11,7.38,13.61,13.35,22.23,17.59,4.77,2.34,3.79,6.52,4.04,10.25.2,3.15-2.67,3.97-4.98,4.98-8.15,3.54-17.15-2.07-20.22-8.21-.84-1.68-1.75-1.94-3.15-1.23-6.78,3.41-11.62-.13-15.53-4.95-.17-.21-.29-.46-.41-.7-2.32-4.51-5.69-5.83-10.98-5.83-11.8,0-20.38-6.98-23.82-18.55-.03-.09-.09-.17-.1-.25-.3-3.34-1.48-5.5-5.48-5.41-4.16.09-7.44-2.31-10.73-4.69-8.02-5.79-12.11-13.46-11.9-23.39.06-2.66-.45-4.75-2.3-7.22-7.11-9.5-6.17-19.56,1.08-29.31,3.14-4.23,7.1-7.43,11.8-9.77,1.63-.81,3.31-1.36,5.13-1.65,1.93-.3,2.24-1.47.72-2.75-1.3-1.1-2.91-1.81-4.29-2.84-4.14-3.09-7.5-6.67-6.65-12.42.79-5.36,3.65-9.63,7.6-13.14,5.19-4.62,11.28-7.7,17.62-10.5,3.2-1.41,5.66-4.42,8.58-6.53,12.65-9.13,25.6-17.72,39.81-24.33,14.31-6.65,29.29-10.7,44.83-13.12,9.05-1.41,18.08-2.42,27.25-2.08,8.24.3,16.28,1.87,24.33,3.54,11.51,2.38,22.26,6.84,32.94,11.57,9.9,4.37,19.34,9.48,28.03,15.96,6.45,4.8,12.22,10.47,18.96,14.92,1.61,1.06,3.26,1.9,5.02,2.64,8.91,3.75,16.31,9.06,19.2,18.95,1.68,5.76.27,10.9-3.27,15.5-1.28,1.65-1.67,2.58.51,3.73,3.81,2.02,7.7,3.86,10.8,7.12,5.84,6.14,8.77,13.51,9.23,21.74.24,4.38-.97,8.79-2.57,12.93-.85,2.2-1.04,3.83.37,6.19,3.57,5.98,2.43,12.2-.82,18.03-3.99,7.16-10.73,9.89-18.41,10.79-1.48.17-2.33.44-2.47,2.14-.2,2.42-.37,4.91-1.09,7.2-3.02,9.67-8.22,17.87-17.77,22.15-7.44,3.33-15.38,4.06-23.31,1.59-2.78-.87-4.34-.82-5.96,2.19-3.37,6.27-9.97,8.37-18.17,6.54-.53-.12-1.08-.15-1.58-.34-3.53-1.34-6.46-.74-9.81,1.37-5.19,3.27-11.14,2.25-16.87.95-.62-.14-1.21-.38-1.81-.58-5.85-2.04-4.76-.48-5.01-6.78-.08-1.9.71-2.76,2.3-3.45,8.93-3.9,16.73-9.48,23.17-16.75,4.78-5.41,9.25-11.12,12.81-17.47,2.34-4.17,5.25-7.26,10.4-8.22,5.5-1.03,10.81-3.01,15.53-6.24,10.98-7.51,15.47-23.47,9.72-34.44-1.81-3.45-4.4-6.16-7.43-8.51-1.27-.99-1.72-2.05-1.14-3.75.63-1.86.83-3.87,1.1-5.83.31-2.19-.82-3.87-2.31-5.26-1.42-1.32-1.92-2.53-1.62-4.69.49-3.54.52-7.21-.31-10.82-.53-2.3-1.51-3.52-4.04-3.15-5.17.76-9.34-1.23-12.35-5.29-2.51-3.4-3.78-7.39-3.81-11.7,0-1.91,0-3.82,0-5.73Z"/><path class="cls-32" d="m238.87,163.76c-1.05-5.14,2.47-13.45,6.72-16,1.79-1.08,2.59-2.25,3.17-4.46,3.66-14.05,8.58-27.62,16.91-39.71,2.06-2.99,4.17-5.94,6.19-8.96,9.17-13.71,22.59-22.05,36.95-29.16,9.51-4.71,19.53-8.11,29.76-10.89.24-.06.51,0,1.1,0-2.9,7.06-5.36,14.1-7.3,21.3-1.77,6.59-2.57,13.31-2.64,20.13-.02,2.19.95,2.99,3.08,3.2,5.36.53,10.7-.09,16.05-.1,2.39,0,3.9-.92,4.49-3.65,2.03-9.4,4.97-18.52,8.97-27.29,2-4.39,4.81-8.26,7.43-12.26,1.02-1.56,2.57-1.45,4.15-1.29,6.04.62,11.52,3.05,17.01,5.39,21.62,9.21,37.83,24.54,49.95,44.43,5.51,9.04,8.52,19.11,11.54,29.15,1.04,3.45,2.43,6.79,2.99,10.38.17,1.1.75,1.94,1.8,2.54,7.31,4.14,10.44,10.25,8.51,18.71-2.7-.8-4.68-2.87-6.63-4.78-13.81-13.48-30.49-22.24-48.05-29.64-15.01-6.33-30.52-10.94-46.74-12.29-13.38-1.11-26.72-.12-40.01,2.62-25.44,5.24-48.41,15.71-69.44,30.76-5.31,3.8-10.94,7.15-15.97,11.86Z"/><path class="cls-6" d="m270.15,254.91c8.49,3.14,16.9,3.57,25.22,4.39,5.33.53,10.69-.04,15.96-.91,7.31-1.21,14.58-2.62,21.54-5.35,2.85-1.12,4.39-2.6,4.15-5.99-.24-3.36.77-6.55,4.18-9.01,0,5.06.12,9.65-.02,14.23-.28,9.26,4.65,11.09,12.67,9.6,1.45-.27,2.8-.8,3.89-1.82.51-.48,1.18-1.1.72-1.86-.4-.65-1.2-.74-1.95-.51-1.91.56-3.79,1.16-5.78,1.46-4.2.63-6.38-.71-6.61-4.89-.29-5.25-.13-10.53-.18-15.8-.02-1.76,1.18-1.84,2.42-1.73,3.97.35,7.37,1.89,9.79,5.13,1.74,2.34,2.98,4.98,3.61,7.84.34,1.54,1.17,2.49,2.57,3.24,4.82,2.59,10.09,3.34,15.37,4.14,8.34,1.27,16.73,2.28,25.16,1.75,6.68-.42,13.42-.17,20.05-1.46.96-.19,1.98-.03,3.22-.03-2.61,8.42-5.55,16.5-10.12,23.93-7.24,11.77-15.26,22.86-27.59,29.84-10.16,5.75-21.06,9.62-32.71,11.09-16.7,2.1-31.58-3.11-45.7-11.47-18.14-10.74-29.09-27.07-36.34-46.33-1.11-2.96-2.19-5.93-3.52-9.5Z"/><path class="cls-10" d="m265.97,243.74c-1.21-2.03-1.87-4.25-2.2-6.58.61-.63,1.35-.26,2.03-.26.89,0,1.6-.28,1.81-1.24.16-.69-.19-1.22-.73-1.61-.73-.53-1.48-.57-2.21.02-.55.45-.77,1.23-1.48,1.51-2.66-6.79-3.49-14-4.95-21.07-.34-1.64.81-1.86,1.69-2.3,9.68-4.86,19.96-7.99,30.45-10.49,10.13-2.41,20.41-4.06,30.74-5.27,6.03-.71,12.12-.9,18.18-1.24,10.61-.6,21.24-.51,31.84.06,18.17.98,35.88,4.56,53.08,10.52,5.39,1.87,10.84,3.6,15.73,6.65,3.98,2.48,4.24,2.87,3.07,7.18-2.94,10.83-6.49,21.44-11.3,31.61-.93,1.96-2.23,2.6-4.15,2.78-11.57,1.1-23.16,2.06-34.77,1.5-9.46-.46-18.97-1.13-27.89-4.97-1.43-.62-2.02-1.52-2.45-2.9-2.09-6.59-5.84-11.62-12.94-13.41-.35-.09-.69-.22-1.04-.31-1.21-.3-3.15.44-3.51-.55-.42-1.15.29-2.79.72-4.15,1.11-3.52,2.4-6.99,3.48-10.52.24-.77,1.55-1.96.02-2.5-1.04-.37-1.63.93-2.02,1.81-1.8,4.04-3.44,8.16-4.31,12.52-.42,2.13-1.08,3.51-3.31,4.59-3.98,1.93-5.67,5.62-5.59,10.1.08,4.28,0,4.26-4.12,5.61-10.62,3.48-21.39,6.28-32.67,5.81-7.12-.3-14.25-.85-21.22-2.61-2.89-.73-5.21-2.48-7.68-3.95-.98-.59-1.25-1.93-1.2-3.15,1.38-.21,1.69,1.16,2.54,1.73,1.2.8,2.51,1.4,3.65.14,1.04-1.16.2-2.19-.73-3.01-1.12-1-1.67-2.33-2.29-3.64-.43-.91-.95-1.88-2.13-1.81-1.32.08-1.35,1.25-1.56,2.21-.1.45-.23.87-.61,1.16Z"/><path class="cls-6" d="m260.19,208.28c.58-2.92.24-5.71.36-8.49.03-.71-.42-1.7.9-1.89,5.64-.84,9.12-4.6,11.75-9.21,2.87-5.01,4.53-10.45,4.76-16.27.03-.86-.27-1.9,1.28-1.73,8.7.96,14.41-3.64,18.81-10.39,1.52-2.34,2.47-5.03,2.95-8.05,3.73,1.5,7.33,3.07,11.21,3.88,10.33,2.13,19.79-.07,28.5-5.73,4.06-2.64,6.49-6.51,7.21-11.66,2.13,3.05,3.86,6.1,6.18,8.75,6.71,7.69,15.07,10.92,25.21,9.69,5.99-.73,11.72-2.3,17.15-4.9,1.2-.57,1.51-.09,1.98.83,1.68,3.29,4.17,5.87,7.05,8.17,3.35,2.69,7.17,3.81,11.36,3.75,1.55-.02,2.12-.24,1.95,1.99-.6,8.02-.4,16.11,4.8,22.87,3.55,4.62,7.97,8.03,14.43,6.51,1.32-.31,1.32.5,1.31,1.36,0,2.73-.07,5.45-.02,8.18.03,1.85-.7,1.91-2.13,1.2-10.3-5.11-21.3-8.25-32.47-10.58-9.71-2.03-19.52-3.68-29.49-4.25-13.06-.74-26.12-.66-39.18-.37-9.34.21-18.56,1.58-27.77,3.2-12.47,2.2-24.93,4.34-36.87,8.78-3.7,1.38-7.18,3.37-11.22,4.37Z"/><path class="cls-32" d="m338.85,96.4c-1,0-2,0-2.99,0-3.38-.02-3.46-.09-3.25-3.55.99-15.98,6.89-30.36,14.29-44.28,1.7-3.21,4.1-4.96,7.81-5.35,5.7-.6,11.19-.74,16.07,2.93,1.13.85,1.59,1.53.45,2.75-11.78,12.61-16.9,28.34-20.66,44.66-.45,1.94-1.18,2.41-3.04,2.39-2.89-.02-5.78.32-8.67.51,0-.02,0-.05,0-.07Z"/><path class="cls-6" d="m377.19,335.86c-3.71,3.17-8.15,4.46-12.89,4.9-1.4.13-2.65-.03-3.09,1.84-.29,1.22-1.67,1.53-2.69,2.11-.87.5-1.64.35-2.22-.26-.64-.68-.5-1.53.13-2.2.76-.82,1.63-1.62.81-2.81-.42-.62-1.18-1.01-1.92-.71-1.24.49-1.62,1.43-1.51,2.83.15,1.99-1.77,3.02-5.1,2.89.44-1.64,1.82-2.88,1.79-4.69-.01-1.1-.27-1.98-1.28-2.5-1.12-.57-2.09.08-2.63.82-1.1,1.51-2.4,3.11-1.94,5.16.26,1.13-.21,1.55-1.05,1.78-.87.24-1.86.43-2.54-.37-.64-.76-.54-1.73-.14-2.57.17-.36.69-.55,1.05-.83.93-.73,1.13-1.61.49-2.62-.53-.85-1.29-1.34-2.3-1-1.01.34-1.97,1.1-1.61,2.19.95,2.9-1.06,3.82-3.16,5.08-.24-1.44-.2-2.99-1.77-3.63-.37-.15-.37-.5-.38-.9-.11-3.55-1.3-4.4-4.88-3.6-3.37.75-6.74,1.36-10.13.11,1.45-6.05-.03-12.04-.5-18.38,4.44,1.56,8.57,3.19,12.82,4.5,15.05,4.63,29.8,3.46,44.34-2.01,2.26-.85,2.77-.98,2.5,1.82-.41,4.31-.16,8.69-.19,13.04Z"/><path class="cls-6" d="m422.95,274.44c2.53-5.63,3.88-10.97,5.4-16.25.27-.94.46-1.55,1.48-1.41,2.1.28,2.83-1.19,3.57-2.68,3.82-7.61,6.53-15.65,9.29-23.68.68-1.99.98-2.75,2.92-.82,11.98,11.9,7.41,30.74-5.32,38.27-5.28,3.12-11.14,4.48-17.34,6.57Z"/><path class="cls-7" d="m257.08,226.02c3.24,15.69,10.17,29.91,15.51,44.76-8.93.71-16.57-3.65-20.49-11.89-5.01-10.54-3.93-20.73,2.45-30.41.59-.89,1.2-1.81,2.53-2.46Z"/><path class="cls-30" d="m265.97,243.74c0-.45.02-.9,0-1.34-.09-1.35.09-2.64,1.64-2.98,1.42-.31,2.44.51,3.01,1.76.81,1.78,1.44,3.59,3.19,4.83.99.71,1.15,1.98.41,3.17-.74,1.2-1.83,1.31-3.06,1.09-1.99-.34-2.77-2.14-4.05-3.33-.37-1.07-.75-2.14-1.12-3.21Z"/><path class="cls-34" d="m263.19,235.59c.54-1.89,1.3-3.56,3.73-2.46,1.1.5,1.96,1.4,1.54,2.79-.42,1.4-1.44,2.03-2.91,1.77-.61-.11-1.19-.36-1.78-.54-.2-.52-.39-1.05-.59-1.57Z"/><path class="cls-3" d="m439.83,1099.53c4.01,4.61,7.48,8.92,11.29,12.9,4.69,4.91,9.5,9.93,16.33,11.71,4.76,1.24,9.64,1.49,13.89-2.04,2.68-2.22,3.61-5.11,3.76-8.37.36-7.73-1.02-15.12-4.44-22.1-.26-.54-.48-1.09-.93-2.12,2.37,1.12,4.35,1.94,6.56,1.85.89-.03,1.15.76,1.5,1.38,6.43,11.31,11.4,23.2,14.15,35.96.46,2.11.83,4.25,1.1,6.39.72,5.71-2.25,9.99-6.01,13.57-7.98,7.58-17.55,8.53-28.05,6.66-12.84-2.29-23.75-8.4-34.26-15.59-2.29-1.57-2.28-3.99-2.47-6.28-.62-7.27.45-14.22,3.71-20.86,1.95-3.97,3.4-8.18,3.86-13.09Z"/><path class="cls-3" d="m417.28,1063.55c9.95-.25,19.47-2.18,28.93-4.45,1.05-.25,2.09-.58,3.12-.91,4.85-1.54,4.73-1.44,8.06,2.39,9.13,10.5,15.83,22.5,21.4,35.11,2.65,6.01,4.34,12.45,3.04,19.24-.81,4.25-3.81,6.72-8.07,6.91-6.7.29-11.52-3.45-15.97-7.58-7.51-6.99-13.87-15.03-19.98-23.25-6.74-9.07-13.53-18.1-20.53-27.47Z"/><path class="cls-8" d="m480.73,1021.63c-.05,5.19.33,9.99-.94,14.72-.35,1.29-.9,2.29-1.82,3.23-7.21,7.3-16.22,11.47-25.77,14.52-18.71,5.95-37.97,7.4-57.46,6.51-5.86-.27-11.67-1.06-17.39-2.53-1.7-.44-2.54-1.35-2.84-2.82-.9-4.3-.55-8.68-.61-13.03-.02-1.6,1.02-1.19,1.82-1.04,9.03,1.72,18.16,2.42,27.31,2.03,22.08-.93,43.88-3.43,64.23-13.02,4.74-2.23,9.4-4.57,13.49-8.58Z"/><path class="cls-20" d="m381.04,1088.77c7.09,11.45,14.97,21.74,24.32,30.8,8.4,8.15,17.81,15.12,27.25,22.03,8.96,6.56,18.32,12.46,29.16,15.2,9.05,2.29,18.31,3.96,27.4-.08,5.92-2.62,10.89-6.4,13.85-12.39.58-1.17,1.21-2.32,2.01-3.82,1.35,9.13.08,17.17-5.53,24.22-3.4,4.27-7.75,6.5-13.14,7.29-13.45,1.97-25.85-1.46-37.86-7-15.44-7.12-28.17-18.05-40.67-29.28-10.81-9.71-19.73-21.02-28.03-32.87-.88-1.26-1.27-2.53-1.21-4.05.15-3.36.56-6.63,2.45-10.05Z"/><path class="cls-9" d="m428.93,1135.63c-6.26-5.3-11.86-10.43-17.9-15-3.36-2.54-3.25-5.93-3.87-9.3-2.5-13.7-6.41-26.93-13.45-39.04-1.84-3.17-4.32-5.96-6.86-9.41,4.48.23,8.5.23,12.47.71,3.81.46,7.62.5,11.41.3,2.3-.12,3.69.7,4.96,2.46,5.09,7.04,10.27,14.02,15.42,21.02.27.36.47.79.79,1.1,4.94,4.69,5.19,10.23,2.92,16.19-1.61,4.24-3.39,8.41-4.98,12.65-2.14,5.74-2.19,11.64-.91,18.31Z"/><path class="cls-3" d="m385.58,1066.56c11.78,13.95,15.41,30.95,19.52,48.05-7.64-7.08-13.5-15.19-19.31-23.39-2.27-3.21-2.89-6.12-2.11-9.91.98-4.75,1.27-9.64,1.9-14.76Z"/><path class="cls-5" d="m456.93,1055.89c11.05,8.92,19.44,20.17,27.45,31.84-3.26-.81-6.28-1.83-8.15-4.94-3.45-5.74-6.34-11.83-10.67-17.03-2.22-2.67-4.71-5.04-7.18-7.44-.67-.65-1.59-1.04-2.4-1.54l.95-.88Z"/><path class="cls-9" d="m268.2,1151.67c5.15-9.24,4.88-18.85,3.03-28.78-2.46-13.17.4-24.92,10.12-34.66,4.76-4.77,9.77-9.13,15.46-12.79,3.63-2.33,7.51-2.98,11.57-3.22,6.04-.35,12-1.27,18.24-2.11-2.66,4.79-5.25,9.47-6.98,14.55-2.46,7.21-3.89,14.61-4.67,22.2-.39,3.81-.46,7.59-.45,11.4,0,1.19-.38,2.04-1.2,2.88-11.86,12.05-24.85,22.49-40.74,28.82-.76.3-1.47.71-2.23,1.01-.63.25-1.01,1.11-2.15.71Z"/><path class="cls-3" d="m230.73,1096.43c-3.2,5.11-4.84,10.46-3.83,16.19,1.74,9.81,11.64,14.79,20.86,10.72,1.84-.81,3.53-1.87,4.99-3.25,6.06-5.74,11.73-11.84,16.75-18.62-2.09,5.37-1.91,10.97-1.92,16.56,0,3.74.71,7.39,1.25,11.04,1.16,7.95-.54,15.25-3.93,22.34-.65,1.37-1.59,2.07-2.97,2.49-6.17,1.87-12.53,3.07-18.9,3.2-7.43.15-14.71-1.11-21.33-5.2-4.25-2.63-5.98-6.38-6.4-10.99-1.01-11.06,1.78-21.49,5.52-31.74.37-1.02.83-2.01,1.26-3.01,1.75-4.1,3.54-8.18,8.64-9.72Z"/><path class="cls-8" d="m294.52,1070.05c-12.97-.5-25.14-.47-37.04-3.33-6.94-1.67-13.57-4.27-20.05-7.24-.57-.26-1.1-.63-1.31-1.31-1.49-4.81-2.42-9.63-.7-14.63.45-1.31.85-1.66,2.24-1.17,14.02,4.94,28.52,7.89,43.25,9.48,12.73,1.38,25.5,1,38.28-.18,7.57-.7,15.16-.98,22.54-2.93,2.52-.67,5.07-1.32,7.48-2.28,1.61-.64,2.18-.23,2.27,1.32.22,3.9.11,7.78-.49,11.65-.2,1.31-1.32,1.41-2.17,1.75-8.35,3.32-17.13,5.05-25.93,6.49-9.66,1.59-19.44,2.07-28.38,2.38Z"/><path class="cls-20" d="m214.82,1151.03c12.4,10.38,26.58,11.43,41.16,7.64,31.97-8.32,56.84-26.65,74.58-54.61,2.72-4.28,5.28-8.63,7.62-13.47,3.12,5.42,3.31,10.75,1.08,16.12-4.07,9.8-10.06,18.37-17.14,26.24-17.4,19.35-38.82,31.87-64.22,37.17-8.73,1.82-17.74,2.7-26.71.8-4.11-.87-7.91-2.54-11.57-4.54-.54-.29-1.2-.7-1.4-1.21-1.78-4.5-3.36-9.06-3.4-14.13Z"/><path class="cls-3" d="m281.18,1075.42c-4.42-3.86-10.09-.39-13.72-4.17,8.99.98,17.95,1.65,27.02,1.75-5.48,3.84-10.49,8.09-15.11,12.79-7.44,7.56-14.01,15.89-20.97,23.87-4.05,4.64-8.09,9.34-14.43,11.09-6.04,1.67-12.08-2.03-13.43-8.18-1.4-6.4.81-11.96,3.81-17.32,5.38-9.6,12.93-17.43,20.81-24.96,1.08-1.03,2.29-1.58,3.28.22.43.79,1.28.9,2.04,1.18,1.5.57,3.15.76,4.67,1.9-3.16.6-6.1,1.28-8.84,2.59-.86.41-2.2.83-1.59,2.07.47.96,1.53.02,2.15-.21,3.4-1.29,7-1.69,10.51-2.5,1.35-.31,2.64-.05,3.84.85,2.1,1.57,4.28,3.05,6.48,4.47.66.43,1.51,1.64,2.24.65.6-.81-.6-1.52-1.14-2.22-1.04-1.36-2.89-1.86-3.98-3.87h6.35Z"/><path class="cls-3" d="m317.43,1116.59c.29-3.86.51-7.71.89-11.54,1.14-11.34,3.55-22.31,9.78-32.08,1.13-1.77,2.19-4.86,4.74-3.97,1.88.65.48,3.51.63,5.37.39,5.03.2,10.11,1.57,15.03.29,1.04-.34,1.74-.73,2.51-4.14,8.2-9.74,15.42-15.19,22.74-.49.66-.61,1.77-1.67,1.94Z"/><path class="cls-5" d="m253.85,1068.82c-9.49,7.06-15.21,17.81-24.56,25.01,5.9-10.57,14.08-18.91,24.56-25.01Z"/><path class="cls-27" d="m144.14,304.2c-4.45,0-8.67,0-12.9,0-1.12,0-1.79-.25-1.27-1.57.56-1.42.87-2.94,1.82-4.2,2.04-2.7,4.89-3.26,7.54-1.2,2.23,1.74,3.79,4.03,4.82,6.97Z"/><path class="cls-12" d="m82.32,273.85c-.75.99-1.03,3.11-2.42,3.03-1.58-.09-3.1-1.69-3.69-3.15-.36-.89.31-2.71,1.88-3.19.59-.18,4.18,2.58,4.24,3.31Z"/><path class="cls-6" d="m317.79,338.06c2.84,1.15,5.82,1.4,8.79,1.02,1.61-.21,1.65.49,1.51,1.57-.2,1.52-.61,3-.55,4.57.05,1.32.5,2.14,1.88,2.11,3.28-.07,6.85.96,9.25-2.69,1.37,2.72,3.31,3.35,5.74,2.11,1.44-.73,2.76-.96,4.33-.3,1.1.46,2.35-.03,3.37-.54,1.2-.59,1.97-.5,3.1.33,2.07,1.51,5.44.44,6.87-2.33.72-1.39,1.72-1.83,2.91-1.94,4.61-.42,8.7-2.23,12.67-4.45.66,3.85,2.95,6.4,6.55,7.61,2.12.71,1.7,1.67.76,2.93-3.72,4.98-8.12,9.27-13.13,12.93-4.02,2.94-8.15,5.74-12.2,8.63-1.35.96-2.2,1.16-3.84-.11-2.61-2.03-5.97-2.95-9.08-4.18-9.16-3.63-18.37-7.16-26.75-12.51-2.64-1.69-4.83-3.77-6.85-6.12-1.03-1.2-.82-1.97.37-2.82,2.04-1.46,3.46-3.42,4.3-5.8Z"/><path class="cls-8" d="m437.21,365.97c-13.02-3.84-26.38-3.13-39.63-3.73-2.68-.12-5.39.29-8.09.72-2.26.36-2.44,1.4-1.88,3.14,1.37,4.23,2.26,8.54,2.47,13.26-8.54-4.24-17.29-7.38-27.52-7.76,6.03-4.03,11.28-7.72,16.06-12.03,3.77-3.4,7.48-6.89,10.08-11.35,1.4-2.4,2.3-4.86,1.69-7.74-.47-2.2,1.33-1.25,2.09-1.15,6.86.89,13.5,2.66,19.69,5.78,9.74,4.91,17.91,11.82,24.96,20.1.09.11.04.33.08.76Z"/><path class="cls-8" d="m352.23,371.36c-9.43-.24-18.02,2.86-26.58,6-2.15.79-2.98.66-2.92-2,.14-6.55-.55-6.9-7.08-8.44-13.37-3.15-26.25-.92-39.06,2.89-.58.17-1.12.68-1.95.16,5.52-10.55,11.99-20.21,22.98-25.91.72-.37,1.45-.75,2.21-1.04,6.03-2.29,6.01-2.27,9.58,3.03,4.95,7.32,12.02,11.97,19.93,15.42,7.03,3.07,14.2,5.84,21.31,8.73.56.23,1.2.32,1.57,1.15Z"/><path class="cls-16" d="m446.88,413.8c.04-5.14,4.21-9.27,9.37-9.27,5.48,0,8.87,3.26,8.79,8.43-.08,5.17-4.47,9.52-9.6,9.53-4.82,0-8.59-3.83-8.56-8.69Z"/><path class="cls-16" d="m528.01,403.49c5,.06,8.21,3.17,8.07,7.82-.15,5.12-4.72,9.66-9.64,9.57-4.82-.09-8.25-3.55-8.19-8.29.06-5.27,4.24-9.16,9.76-9.1Z"/><path class="cls-13" d="m355.34,387.26c-2.72.04-4.72-1.68-4.77-4.09-.05-2.6,3.1-5.79,5.77-5.83,2.66-.05,4.79,1.89,4.85,4.4.07,2.91-2.65,5.47-5.85,5.52Z"/><path class="cls-18" d="m361.36,415.76c-.04,3.06-2.3,5.36-5.26,5.33-2.73-.03-4.57-1.91-4.53-4.64.05-3,2.9-5.8,5.79-5.67,2.2.1,4.02,2.37,3.99,4.98Z"/><path class="cls-17" d="m357.81,464.17c-2.91-.05-4.78-2.09-4.68-5.12.08-2.54,2.46-4.86,4.91-4.79,2.73.07,4.85,2.42,4.74,5.24-.11,2.69-2.26,4.71-4.97,4.66Z"/><path class="cls-19" d="m532.51,561.09c0,.98-.39,1.61-1.39,1.65-.98.04-1.53-.65-1.65-1.45-.13-.84.31-1.65,1.27-1.74,1.06-.1,1.61.58,1.78,1.54Z"/><path class="cls-1" d="m348.34,110.6c-20.28-.55-39.8,3.14-58.64,10.54-7.81,3.07-14.61,7.93-21.4,12.77-1.34.95-3.06,3.3-4.53,1.26-1.31-1.83,1.38-2.66,2.63-3.58,12.49-9.29,26.2-16.06,41.45-19.43,11.42-2.52,22.97-4.05,34.68-4.38,12.81-.36,25.63.05,38.17,2.46,17.71,3.4,34.88,8.74,50.51,18.14,3.73,2.24,7.58,4.29,10.85,7.21.82.73,2.37,1.45,1.44,2.79-1.03,1.5-2.1-.02-2.95-.57-13.21-8.54-27.04-15.73-42.2-20.24-11.21-3.34-22.55-5.75-34.26-6.47-5.26-.33-10.51-.46-15.76-.49Z"/><path class="cls-1" d="m367.5,292.51c-.29,6.27-2.23,13.04-9.13,17.11-5.73,3.38-12.05,4.45-18.16,1.4-5.93-2.96-8.95-8.44-10.48-14.78-2.8-11.62,7.1-23.38,16.86-26.55,5.51-1.79,10.15,1.22,14.01,4.76,4.83,4.43,6.94,10.26,6.9,18.07Z"/><path class="cls-1" d="m384.06,245.91c-5-.22-10.89-.37-16.65-1.74-2.56-.61-3.7-2.36-3.13-4.95,3.3-15.08,11.6-25.93,26.6-30.87,10.16-3.35,23.98,2.28,29.13,11.69,1.52,2.77,2.91,5.6,4.09,8.55.9,2.25.54,3.92-1.36,5.14-6.85,4.43-13.8,8.68-21.9,10.5-5.23,1.17-10.54,1.59-16.78,1.68Z"/><path class="cls-1" d="m312.45,246.34c-15.81.33-28-3.4-38.78-11.68-2.13-1.64-2.62-3.56-2.16-5.93,1.74-8.85,12.1-19.21,20.93-20.31,10.88-1.35,20.2,2.24,27.66,10.29,4.55,4.91,7.63,10.78,10.3,16.87.15.33.32.66.43,1,1.7,5.25.91,7.71-5.25,8.67-5.08.8-10.28.86-13.13,1.08Z"/><path class="cls-35" d="m440.51,219.59c.05,1.83-.53,3.83-1.37,5.75-.58,1.33-1.58,2.25-3.19,2.01-1.72-.26-2.39-1.49-2.6-3.05-.08-.62-.11-1.3.05-1.9.57-2.12.89-3.91-1.72-5.16-1.4-.67-1.52-2.41-.55-3.83.92-1.34,2.12-1.41,3.58-.81,5.06,2.06,5.91,3,5.8,6.99Z"/><path class="cls-31" d="m433.85,228.83c1.64.15,2.79.85,2.79,2.64,0,1.83-.99,2.97-2.8,2.9-1.6-.06-2.67-1.13-2.68-2.81,0-1.71.98-2.61,2.69-2.73Z"/><path class="cls-1" d="m307.21,166.13c1.67-.09,3.72.17,5.7.88,5.89,2.12,7.88,7.91,4.45,13.18-3.2,4.92-8.1,7.32-13.53,8.87-3.1.89-6.28.98-9.43.6-3.94-.47-7.2-2.4-8.49-6.27-1.44-4.32.79-7.79,3.8-10.65,4.5-4.28,10.71-6.58,17.49-6.62Z"/><path class="cls-38" d="m398.2,191.34c-7.06-.45-13.44-2.57-18.63-7.6-2.85-2.76-4.52-6.06-3.22-10.02,1.3-3.96,4.85-5.45,8.53-5.71,8.66-.61,16.23,2.11,22.11,8.73,2.38,2.68,3.29,5.95,1.97,9.34-1.52,3.91-5.21,4.67-8.86,5.24-.62.1-1.27.01-1.9.01Z"/><path class="cls-38" d="m436.89,257.15c1.95.31,4.1.34,4.22,3.14.11,2.53-1,4.11-3.37,4.9-2.6.87-5.19-1.2-4.89-4.38.61-6.47,3.57-11.66,9.25-15.09.81-.49,1.91-.81,2.49-.03.66.91-.29,1.69-.98,2.24-3.08,2.43-6.01,4.95-6.72,9.23Z"/><path class="cls-37" d="m264.96,257.65c.05,2.08-.64,3.71-2.66,4.62-1.54.7-2.99.84-4.27-.45-1.57-1.6-2.74-3.41-2.35-5.8.13-.76.58-1.38,1.46-1.34.93.04,1.09.74,1.18,1.53.17,1.56.52,3.64,2.46,3.08,2.12-.61,1.18-2.59.59-4.14-1.2-3.18-2.96-6-5.29-8.47-1.12-1.19-2.15-2.46-3.21-3.7-.37-.43-.67-.9-.27-1.45.45-.61,1.06-.62,1.7-.34.17.07.32.18.48.26,3.65,1.87,10.17,12.26,10.18,16.21Z"/><path class="cls-1" d="m465.01,1072.86c-1.37,2.72-3.46,4.47-5.37,6.68,1.69.37,3.16.6,4.57,1.03.61.18,1.61.39,1.43,1.32-.14.72-.99.67-1.62.67-1.81,0-3.69.29-5.42-.09-2.21-.48-3.57.42-5.02,1.79-1.74,1.65-2.95,3.66-4.28,5.6-.46.67-.84,1.69-1.79,1.24-1.03-.49-.67-1.61-.33-2.4,1.05-2.5,2.51-4.76,4.59-7.13-3.67.45-6.93.84-10.18,1.25-.54.07-1.06.22-1.6.26-.84.06-1.71.03-1.93-1.03-.21-1.02.72-1.25,1.33-1.41,4.27-1.15,8.67-2.5,13-2.09,3.27.31,5.07-1.09,7.1-2.84,1.53-1.32,2.98-2.78,5.51-2.85Z"/><path class="cls-1" d="m452.61,1060.05c-1.3,1.45-2.24,2.5-3.34,3.72,1.91.43,3.74.48,5.58,2.02-1.93.37-3.49,1.03-4.95.87-5.17-.57-7.86,2.78-10.66,6.19-.76.93-1.16,3.28-2.7,2.28-1.52-.99.17-2.63.8-3.78.82-1.48,2.02-2.75,3.42-4.59-3.2,0-6.09.02-8.99-.02-.75-.01-1.9.43-2.1-.63-.29-1.48,1.27-1.14,1.92-1.23,3.21-.45,6.43-1.06,9.69-.86,2.19.14,4-.36,5.72-1.86,1.35-1.18,2.94-2.34,5.6-2.12Z"/><path class="cls-38" d="m253.36,1087.77c-1.88-2.18-4.54-2.44-6.6-4.27,3.38-1.25,5.73.54,7.93,2.02,1.63,1.1,3.18,1.52,5.04,1.41,2.81-.16,5.6.04,8.37.53.9.16,1.74.41,2.7,1.47h-11.27c1.59,2.67,4.4,3.93,4.91,7.17-2.43-.71-3.6-2.48-4.91-3.91-2.13-2.35-4.44-3.16-7.51-2.14-2.3.76-4.7,1.24-7.07,1.75-.56.12-1.39,1.11-1.77-.09-.3-.93.69-1.17,1.31-1.44,2.72-1.21,5.6-1.91,8.87-2.5Z"/><path class="cls-21" d="m455.39,418.29c-2.7-.05-4.64-2-4.61-4.62.03-2.99,2.92-5.78,5.82-5.64,2.25.11,4.51,2.63,4.49,4.99-.02,3-2.53,5.32-5.7,5.27Z"/><path class="cls-26" d="m526.45,417.15c-2.68-.01-4.62-1.94-4.62-4.59,0-2.98,3.22-6.02,6.29-5.93,2.44.07,4.49,2.32,4.43,4.87-.07,3.04-2.89,5.66-6.1,5.65Z"/><path class="cls-30" d="m339.27,287.87c-.9,0-1.81-.01-2.71,0-3.71.07-3.66.09-2.12-3.49,1.98-4.59,5.45-7.79,9.53-10.39,2.14-1.36,3.2-.61,3.22,2.03.01,2.26,0,4.52,0,6.78-.01,3.68-1.35,5.03-4.93,5.02-.99,0-1.99,0-2.98,0v.04Z"/><path class="cls-30" d="m351.98,280.57c0-1.63,0-3.25,0-4.88,0-2.35,1.02-3.03,3.24-1.86,3.11,1.63,5.47,4.13,6.97,7.31,2.64,5.59,2.97,5.01-2.8,6.04-.44.08-.89.12-1.34.16q-5.8.44-5.87-5.41c0-.45,0-.9,0-1.36-.07,0-.13,0-.2,0Z"/><path class="cls-4" d="m397.09,210.91c7.01.02,10.44,4.79,9.84,11.74-.96,11.23-12.48,14.88-20.87,11.75-4.41-1.65-6.73-5.05-7.09-9.44-.35-4.34,1.74-7.92,5.62-10.09,3.87-2.17,7.85-4.17,12.5-3.96Z"/><path class="cls-23" d="m408.94,213.97c6.39,3.73,10.01,9.23,12.47,15.7.38,1.01-.18,1.25-.76,1.65-13.57,9.25-28.28,13.88-44.82,11.04-1.69-.29-3.38-.61-5.08-.84-2.46-.33-3.81-1.1-2.88-4.09,1.69-5.41,4.16-10.31,7.98-15.12-.77,12.38,8.39,16.25,16.15,16.09,10.45-.21,17.6-5.79,18.2-16.69.14-2.57-.46-5-1.26-7.74Z"/><path class="cls-4" d="m318.35,224.86c.04,4.13-1.55,7.33-5.24,9.42-6.89,3.91-14.39,2.75-19.71-3.08-4.65-5.1-2.7-16.43,3.4-19.65.31-.16.68-.34,1.01-.32,7.8.37,14.3,3.58,19.65,9.18.79.83.74,1.13.9,4.46Z"/><path class="cls-23" d="m292.09,211.63c-5.27,6.7-6.82,13.72-1.91,20.69,4.35,6.16,11.03,8.15,18.3,6.86,6.99-1.24,12.06-5.05,13.37-13.26,2.93,4.79,5.09,9.3,6.76,14.04.5,1.41-.4,1.94-1.65,2.12-8.55,1.17-17.12,1.58-25.74.77-8.95-.84-16.86-4.23-24.19-9.3-2.34-1.62-3.08-3.32-1.73-5.86,3.77-7.09,7.71-13.98,16.78-16.05Z"/><path class="cls-11" d="m297.57,186.48c-1.06.08-2.93-.05-4.74-.79-3.59-1.48-4.6-4.6-2.55-7.94,3.79-6.18,14.63-9.93,21.4-7.42,4.41,1.64,5.32,5.86,1.95,9.57-4.06,4.47-9.16,6.63-16.07,6.58Z"/><path class="cls-11" d="m387.63,171.17c6.68.22,12.28,2.79,16.66,7.83,1.45,1.67,2.48,3.69,1.38,5.99-1.05,2.19-3.06,2.85-5.34,3.11-7.26.84-13.25-1.59-18.24-6.81-1.81-1.9-3.55-3.99-2.43-6.71,1.15-2.77,3.98-3.08,6.61-3.4.45-.05.91,0,1.36,0Z"/><path class="cls-25" d="m402.91,215.27c1.62-.07,2.35,1.06,2.3,2.55-.05,1.35-.85,2.36-2.4,2.43-1.74.08-2.55-1.02-2.6-2.48-.05-1.52.87-2.52,2.7-2.5Z"/><path class="cls-22" d="m314,219.67c1.6.22,2.77,1.05,2.61,2.78-.16,1.68-1.2,2.82-3.04,2.78-1.86-.04-2.5-1.27-2.4-2.91.1-1.67,1.06-2.61,2.83-2.66Z"/></svg>