<svg width="228" height="148" viewBox="0 0 228 148" fill="none" xmlns="http://www.w3.org/2000/svg">
<path d="M37.4011 55.9236L44.6569 71.2736C44.9298 71.8513 45.3649 72.3504 45.9167 72.7189C46.4686 73.0874 47.117 73.3118 47.7942 73.3686L65.4701 74.8386C67.47 75.1086 68.2678 77.3836 66.8177 78.6936L53.5029 89.0686C52.4248 89.9086 51.9342 91.2286 52.2307 92.5036L56.1012 109.309C56.4408 111.154 54.3546 112.564 52.5649 111.689L37.1369 103.309C36.5551 102.992 35.8926 102.825 35.2179 102.825C34.5432 102.825 33.8807 102.992 33.2988 103.309L17.8708 111.684C16.0866 112.554 13.995 111.149 14.3346 109.304L18.2051 92.4986C18.4962 91.2236 18.011 89.9036 16.9329 89.0636L3.61264 78.6986C2.16796 77.3936 2.96577 75.1136 4.9603 74.8436L22.6362 73.3736C23.3134 73.3168 23.9618 73.0924 24.5136 72.7239C25.0655 72.3554 25.5006 71.8563 25.7735 71.2786L33.0293 55.9286C33.9295 54.2486 36.5062 54.2486 37.4011 55.9236Z" fill="#FFE24F"/>
<path d="M36.8742 72.1919L35.6452 60.8819C35.5967 60.2519 35.4565 59.1719 36.5454 59.1719C37.4079 59.1719 37.8769 60.8369 37.8769 60.8369L41.5641 69.9169C42.9549 73.3719 42.3835 74.5569 41.0412 75.2569C39.4995 76.0569 37.2246 75.4319 36.8742 72.1919Z" fill="#FFFF8D"/>
<path d="M52.081 88.063L62.6574 80.408C63.1803 80.003 64.1237 79.358 63.369 78.623C62.7706 78.043 61.1534 78.878 61.1534 78.878L51.8977 82.233C49.1377 83.118 47.3049 84.428 47.1432 86.078C46.933 88.278 49.0623 89.973 52.081 88.063Z" fill="#F4B400"/>
<path d="M195.943 55.9236L203.304 71.2736C203.581 71.8513 204.022 72.3504 204.582 72.7189C205.142 73.0874 205.8 73.3118 206.487 73.3686L224.419 74.8386C226.448 75.1086 227.257 77.3836 225.786 78.6936L212.278 89.0686C211.184 89.9086 210.687 91.2286 210.987 92.5036L214.914 109.309C215.259 111.154 213.142 112.564 211.327 111.689L195.675 103.309C195.085 102.992 194.413 102.825 193.728 102.825C193.044 102.825 192.372 102.992 191.781 103.309L176.13 111.684C174.32 112.554 172.198 111.149 172.542 109.304L176.469 92.4986C176.764 91.2236 176.272 89.9036 175.178 89.0636L161.665 78.6986C160.199 77.3936 161.009 75.1136 163.032 74.8436L180.964 73.3736C181.651 73.3168 182.309 73.0924 182.869 72.7239C183.429 72.3554 183.87 71.8563 184.147 71.2786L191.508 55.9286C192.421 54.2486 195.035 54.2486 195.943 55.9236Z" fill="#FFE24F"/>
<path d="M195.409 72.1919L194.162 60.8819C194.113 60.2519 193.97 59.1719 195.075 59.1719C195.95 59.1719 196.426 60.8369 196.426 60.8369L200.166 69.9169C201.577 73.3719 200.998 74.5569 199.636 75.2569C198.072 76.0569 195.764 75.4319 195.409 72.1919Z" fill="#FFFF8D"/>
<path d="M210.835 88.063L221.565 80.408C222.096 80.003 223.053 79.358 222.287 78.623C221.68 78.043 220.039 78.878 220.039 78.878L210.649 82.233C207.849 83.118 205.99 84.428 205.826 86.078C205.613 88.278 207.773 89.973 210.835 88.063Z" fill="#F4B400"/>
<path d="M118.26 7.72201L132.667 37.9423C133.209 39.0796 134.072 40.0623 135.168 40.7878C136.264 41.5133 137.551 41.9551 138.896 42.0669L173.991 44.9609C177.962 45.4925 179.546 49.9714 176.667 52.5504L150.231 72.9762C148.09 74.63 147.116 77.2287 147.705 79.7389L155.389 112.824C156.064 116.456 151.922 119.232 148.368 117.509L117.736 101.011C116.58 100.388 115.265 100.059 113.926 100.059C112.586 100.059 111.271 100.388 110.115 101.011L79.4829 117.5C75.9401 119.212 71.7873 116.446 72.4616 112.814L80.1465 79.729C80.7244 77.2189 79.7611 74.6201 77.6205 72.9664L51.1731 52.5603C48.3047 49.9911 49.8887 45.5023 53.8489 44.9708L88.9444 42.0767C90.2891 41.9649 91.5764 41.5232 92.6722 40.7977C93.7679 40.0722 94.6318 39.0895 95.1736 37.9522L109.58 7.73186C111.367 4.42436 116.484 4.42436 118.26 7.72201Z" fill="#FDD835"/>
<path d="M117.214 39.7542L114.774 17.4877C114.677 16.2473 114.399 14.1211 116.561 14.1211C118.274 14.1211 119.205 17.3991 119.205 17.3991L126.526 35.2753C129.287 42.0773 128.153 44.4103 125.488 45.7884C122.426 47.3634 117.91 46.133 117.214 39.7542Z" fill="#FFFF8D"/>
<path d="M147.407 70.9964L168.406 55.9256C169.444 55.1283 171.317 53.8584 169.819 52.4114C168.631 51.2695 165.42 52.9134 165.42 52.9134L147.043 59.5186C141.563 61.2609 137.924 63.84 137.603 67.0884C137.185 71.4197 141.413 74.7567 147.407 70.9964Z" fill="#F4B400"/>
</svg>
