<svg width="228" height="152" viewBox="0 0 228 152" fill="none" xmlns="http://www.w3.org/2000/svg">
<path d="M173.882 2.99372C128.705 -9.17097 114.004 36.7148 114.004 36.7148C114.004 36.7148 99.2937 -9.17097 54.1261 2.99372C11.0678 14.5765 0.794182 104.475 108.085 150.779C111.849 152.407 116.141 152.407 119.905 150.779C227.205 104.475 216.931 14.5765 173.882 2.99372Z" fill="#EC59B1"/>
<path d="M70.8721 98.2286C72.8541 100.129 72.9086 103.284 70.9994 105.266C70.0266 106.275 68.7265 106.784 67.4263 106.784C66.1262 106.784 64.9352 106.32 63.9715 105.393C44.5153 86.6185 39.7421 67.6895 39.1603 55.1066C38.5238 41.2782 42.6606 31.8955 42.8333 31.5046C43.9607 29.0044 46.9064 27.8861 49.4066 29.0135C51.9068 30.1408 53.0251 33.0683 51.9159 35.5686C51.8614 35.6959 48.4792 43.5965 49.1248 55.143C49.9794 70.6353 57.2982 85.1274 70.8721 98.2286ZM78.3637 105.829C75.4998 105.829 73.1723 108.166 73.1723 111.03C73.1723 113.894 75.4998 116.23 78.3637 116.23C81.2275 116.23 83.5641 113.903 83.5641 111.03C83.5641 108.157 81.2366 105.829 78.3637 105.829Z" fill="white"/>
</svg>
