<svg width="69" height="89" viewBox="0 0 69 89" fill="none" xmlns="http://www.w3.org/2000/svg">
<path d="M68.4038 37.8C68.8037 42 68.8037 46.4 68.8037 51.6C68.8037 55.6 68.8037 60.4 68.6038 65C68.6038 66 68.6038 67 68.4038 67.8V69C68.0038 72.6 67.6038 77.2 66.8037 81.8C66.6038 82.4 66.6038 83 66.4037 83.4L66.2038 84.2L65.8037 86.2L63.8037 86.4C63.4037 86.6 62.8037 86.6 62.2037 86.6C61.4037 86.6 60.8037 86.6 60.2037 86.4H58.8037C57.6037 86.4 56.4037 86.4 55.4037 86.2H54.0037H53.4037H49.6037C48.6037 86 47.6037 86 46.4037 86H45.0037L42.4037 85.8V85C39.8037 86.2 37.0037 87 34.8037 87.8C31.8037 88.6 28.8037 89 25.2037 89H22.2037C18.0037 88.6 14.6037 86.8 12.0037 85.2C7.00374 82 3.40374 77.2 1.40374 70.4C-0.596256 64.2 -0.396256 57.8 1.60374 51.4C5.60374 39.8 13.4037 31.8 25.0037 27.6C28.0037 26.4 31.2037 26 34.8037 26C36.0037 26 37.2037 26 38.6037 26.2C41.0037 26.4 43.4037 27 45.6037 28C45.6037 27.8 45.4037 27.6 45.4037 27.6C44.8037 25.8 43.6037 25 41.6037 24.4C39.6037 24 37.4037 23.8 35.4037 23.8C33.8037 23.6 32.2037 23.6 30.8037 23.6C29.0037 23.4 27.2037 23.4 25.4037 23.4H25.0037C23.8037 23.4 22.4037 23.4 21.0037 23.6H19.2037C19.0037 23.6 18.8037 23.6 18.6037 23.8H16.6037C16.4037 23.8 16.2037 23.8 16.0037 23.8L13.8037 23.6L13.2037 21.6C12.6037 18.4 13.0037 7 14.0037 4L14.4037 2.6L16.0037 2.2C21.4037 0.800001 25.8037 0 29.8037 0H34.2037C34.8037 0 35.4037 0 36.0037 0H37.6037C38.2037 0 38.6037 0 39.0037 0H39.2037C42.0037 0 44.8037 0.199995 47.8037 0.799999C49.4037 1.2 51.0037 2 52.6037 2.6C52.8037 2.6 52.8037 2.8 53.0037 2.8C55.4037 3.8 57.4037 5.4 58.8037 6.4C60.4037 8 61.6037 9.8 62.4037 11.4C64.6037 15.4 66.0037 20 67.0038 25.4C67.8037 29.6 68.2038 33.8 68.4038 37.8ZM39.4037 66.4C42.4037 64 44.0037 61.6 44.4037 58.8V58.2V56V55.2C44.4037 54.8 44.4037 54.2 44.4037 54C44.0037 51.6 42.8037 50 40.8037 49.4C39.8037 49 38.8037 48.8 37.8037 48.8C35.8037 48.8 33.8037 49.6 32.0037 51.2L31.0037 52.4C30.8037 52.8 30.4037 53.6 30.2037 54C28.6037 57.2 28.4037 60.4 29.6037 63.6C30.0037 64.6 30.4037 65.6 31.2037 66.2C32.4037 67.2 33.6037 67.8 35.2037 67.8H35.4037C37.0037 67.8 38.4037 67.2 39.4037 66.4Z" fill="#5D0947"/>
<path d="M68.4037 37.8C68.8037 42 68.8037 46.4 68.8037 51.6C68.8037 55.6 68.8037 60.4 68.6037 65C68.6037 66 68.6037 67 68.4037 67.8V69C68.0037 72.6 67.6038 77.2 66.8037 81.8C66.6038 82.4 66.6038 83 66.4037 83.4L66.2038 84.2L65.8037 86.2L63.8037 86.4C63.4037 86.6 62.8037 86.6 62.2037 86.6C61.4037 86.6 60.8037 86.6 60.2037 86.4H58.8037C57.6037 86.4 56.4037 86.4 55.4037 86.2H49.6037C48.6037 86 47.6037 86 46.4037 86H45.0037L42.4037 85.8V85C39.8037 86.2 37.0037 87 34.8037 87.8C31.8037 88.6 28.8037 89 25.2037 89H22.2037C18.0037 88.6 14.6037 86.8 12.0037 85.2C7.00374 82 3.40374 77.2 1.40374 70.4C-0.596256 64.2 -0.396256 57.8 1.60374 51.4C5.60374 39.8 13.4037 31.8 25.0037 27.6C28.0037 26.4 31.2037 26 34.8037 26C36.0037 26 37.2037 26 38.6037 26.2C41.0037 26.4 43.4037 27 45.6037 28C45.6037 27.8 45.4037 27.6 45.4037 27.6C44.8037 25.8 43.6037 25 41.6037 24.4C39.6037 24 37.4037 23.8 35.4037 23.8C33.8037 23.6 32.2037 23.6 30.8037 23.6C29.0037 23.4 27.2037 23.4 25.4037 23.4H25.0037C23.8037 23.4 22.4037 23.4 21.0037 23.6H19.2037C19.0037 23.6 18.8037 23.6 18.6037 23.8H16.6037C16.4037 23.8 16.2037 23.8 16.0037 23.8L13.8037 23.6L13.2037 21.6C12.6037 18.4 13.0037 7 14.0037 4L14.4037 2.6L16.0037 2.2C21.4037 0.800003 25.8037 0 29.8037 0H34.2037C34.8037 0 35.4037 0 36.0037 0H37.6037C38.2037 0 38.6037 0 39.0037 0H39.2037C42.0037 0 44.8037 0.199999 47.8037 0.800003C49.4037 1.2 51.0037 2 52.6037 2.6C52.8037 2.6 52.8037 2.8 53.0037 2.8C55.4037 3.8 57.4037 5.4 58.8037 6.4C60.4037 8 61.6037 9.8 62.4037 11.4C64.6037 15.4 66.0037 20 67.0037 25.4C67.8037 29.6 68.2037 33.8 68.4037 37.8ZM26.8037 10.6C26.8037 10.2 26.4037 9.8 26.0037 9.6C25.6037 9.4 25.2037 9.6 25.0037 10L24.4037 11.2C24.0037 12 23.6037 12.8 22.6037 13C21.8037 12.4 21.6037 11.6 21.2037 10.8C21.0037 10.4 21.0037 10 20.8037 9.6C20.6037 9.2 20.2037 9 19.8037 9.2C19.6037 9.2 19.4037 9.6 19.2037 9.8C19.2037 10.2 19.2037 10.4 19.4037 10.8C19.6037 11.8 20.0037 13 20.8037 13.8C21.6037 15 22.6037 15.2 23.8037 14.6C25.4037 13.8 26.2037 12.2 26.8037 10.6ZM38.0037 10.6C38.2037 10.2 38.0037 9.6 37.8037 9.4C37.4037 9.2 36.8037 9.4 36.6037 9.6C36.2037 10 36.0037 10.2 35.8037 10.6L34.6037 12.4C34.4037 12.8 34.0037 13.4 33.4037 13.2C32.8037 13 32.6037 12.4 32.4037 11.8C32.2037 11.4 32.2037 10.8 32.0037 10.4C32.0037 10.2 32.0037 9.8 31.8037 9.6C31.6037 9.4 31.4037 9.2 31.0037 9.2C30.8037 9.2 30.6037 9.6 30.4037 9.8C30.2037 10 30.4037 10.2 30.4037 10.4C30.4037 12 30.8037 13.4 31.6037 14.2C32.6037 15.6 34.0037 15.6 35.2037 14.6C36.4037 13.4 37.2037 12 38.0037 10.6ZM50.4037 11.6C50.4037 11.2 50.2037 10.8 49.8037 10.8C49.6037 10.6 49.2037 10.6 49.0037 10.8C48.6037 11 48.4037 11.2 48.2037 11.6L46.6037 13.4C46.2037 14 45.8037 14.6 44.8037 14.6C44.8037 14.2 44.6037 14 44.6037 13.6C44.4037 13 44.4037 12.4 44.2037 11.8C44.0037 11.4 43.6037 11 43.4037 11.2C43.0037 11.2 42.6037 11.6 42.6037 11.8C42.6037 12.8 42.6037 14 43.0037 15C43.4037 16.4 44.8037 17 46.2037 16.2C46.6037 16 47.2037 15.6 47.6037 15.2C48.4037 14.4 49.2037 13.4 50.0037 12.4C50.2037 12.2 50.2037 12 50.4037 11.6ZM51.0037 20C50.6037 21.2 50.8037 22.2 51.8037 22.6L53.2037 23.2C53.6037 23.2 54.2037 23.4 54.8037 23.4C55.8037 23.4 56.8037 23.2 57.8037 23.2C58.8037 23.2 59.0037 22.6 59.0037 22.2C59.0037 21.6 58.6037 21.2 57.6037 21.2C56.8037 21.4 55.8037 21.4 55.0037 21.4C54.2037 21.4 53.6038 21.4 52.8037 21C53.2038 19.8 53.2037 19.8 54.0037 19L55.2037 17.8C55.4037 17.4 55.4037 17 55.0037 16.6C54.8037 16.4 54.4037 16.4 54.0037 16.6C53.0037 17.2 52.2038 18 51.4037 19C51.2037 19.4 51.0037 19.8 51.0037 20ZM57.4037 33.4C56.8037 33.2 56.0037 33.2 55.6037 32.4C56.0037 31.4 56.6037 31 57.4037 30.6C57.8037 30.4 58.2038 30.4 58.6037 30.2C59.0037 30 59.2038 29.4 59.0037 29.2C58.8037 28.8 58.6037 28.4 58.2038 28.6C56.4038 29 54.8037 29.8 53.8037 31.4C53.4037 32.4 53.6037 33.2 54.2037 34L55.4037 34.8C56.6037 35.2 57.8037 35.6 59.0037 36C59.4037 36.2 60.0037 35.8 60.2037 35.4C60.2037 35 60.0037 34.4 59.6037 34.2C58.8037 34 58.2038 33.8 57.4037 33.4ZM37.4037 35.6V36.4C37.6037 37.4 37.8037 38.4 38.0037 39.4C38.2037 40 38.6037 40.4 39.0037 40.8C39.6037 41.4 40.4037 41.4 41.2037 41C41.4037 40.8 41.8037 40.6 41.8037 40.4L45.0037 36C45.0037 35.8 45.0037 35.8 45.0037 35.6C45.2037 35 44.8037 34.4 44.0037 34.6C43.8037 34.6 43.4037 34.8 43.2037 35.2C42.6037 35.8 42.2037 36.6 41.8037 37.2C41.4037 38 41.0037 38.6 40.2037 39.2C39.4037 38.4 39.4037 37.6 39.2037 36.6C39.2037 36.4 39.2037 36 39.0037 35.6C39.0037 35.4 38.6037 35.2 38.4037 35C38.0037 35 37.6037 35.2 37.4037 35.6ZM25.4037 44.6C25.8037 45.2 26.4037 45.4 27.4037 45.4H28.0037C28.8037 45 29.2037 44.6 29.6037 43.8C30.6037 42.2 31.0037 40.4 31.4037 38.4C31.4037 38.2 31.4037 38 31.2037 37.8C31.0037 37.2 30.2037 37.2 29.8037 37.6C29.6037 38 29.4037 38.4 29.4037 38.8C29.2037 39.4 29.2037 40 28.8037 40.8C28.6037 41.6 28.2037 42.4 27.8037 43.2C27.6037 43.6 27.0037 43.6 26.6037 43.2C26.2037 42.6 25.8037 42 25.4037 41.2L24.6037 40C24.2037 39.6 23.6037 39.8 23.4037 40C23.2037 40.4 23.2037 40.8 23.2037 41L25.4037 44.6ZM57.0037 46.8C56.4037 46.6 55.8037 46.4 55.6037 45.8C55.8037 45 56.4037 44.8 57.2037 44.6C58.0037 44.4 58.8037 44.4 59.6037 44.2L60.2037 43.6C60.2037 43.2 60.0037 43 59.8037 42.8C59.6037 42.6 59.2038 42.6 59.0037 42.6C57.6037 42.6 56.0037 42.8 54.8037 43.6C53.0037 45 53.0037 46.6 54.8037 47.8C56.0037 48.6 57.4037 49.2 58.6037 49.8C58.8037 50 59.2037 50 59.6037 50C60.2037 49.8 60.4037 49 60.0037 48.6C59.8037 48.4 59.6037 48.2 59.2037 48C58.4037 47.6 57.6037 47.2 57.0037 46.8ZM13.4037 51.4C13.2037 51.6 13.0037 52 13.0037 52.4C13.0037 52.6 13.2037 52.8 13.4037 53C14.4037 54 15.6037 54.8 16.8037 55.2C18.2037 55.6 19.2037 55 19.6037 53.6V52.6C19.4037 50.2 18.8037 47.8 18.0037 45.6C18.0037 45.4 18.0037 45.2 17.8037 45C17.6037 44.6 17.2037 44.6 16.8037 44.6C16.4037 44.8 16.2037 45 16.2037 45.4C16.2037 46 16.4037 46.6 16.6037 47.2C17.0037 49 17.4037 50.8 17.6037 52.6C17.6037 52.8 17.6037 53 17.4037 53.4C16.4037 53 15.6037 52.6 15.0037 52C14.6037 51.8 14.4037 51.6 14.2037 51.4C13.8037 51.2 13.6037 51.2 13.4037 51.4ZM39.4037 66.4C42.4037 64 44.0037 61.6 44.4037 58.8V55.2C44.4037 54.8 44.4037 54.2 44.4037 54C44.0037 51.6 42.8037 50 40.8037 49.4C39.8037 49 38.8037 48.8 37.8037 48.8C35.8037 48.8 33.8037 49.6 32.0037 51.2L31.0037 52.4C30.8037 52.8 30.4037 53.6 30.2037 54C28.6037 57.2 28.4037 60.4 29.6037 63.6C30.0037 64.6 30.4037 65.6 31.2037 66.2C32.4037 67.2 33.6037 67.8 35.2037 67.8H35.4037C37.0037 67.8 38.4037 67.2 39.4037 66.4ZM57.8037 59.8C57.2037 59.4 56.4038 59.2 56.0037 58.4C56.2037 58.2 56.2037 57.8 56.6037 57.8C57.0037 57.4 57.6037 57.2 58.4037 57.2C58.8037 57 59.2037 57 59.8037 56.8C60.2037 56.6 60.4037 56.4 60.4037 55.8C60.2037 55.4 59.8037 55.2 59.4037 55.2C59.2038 55.2 58.8037 55.2 58.4037 55.4C57.4037 55.6 56.4038 55.6 55.6037 56C53.6038 57 53.4037 59.2 55.2037 60.4C56.2037 61.2 57.6037 61.8 58.6037 62.4C58.8037 62.6 59.2038 62.6 59.4037 62.6L60.2037 62C60.2037 61.8 60.2038 61.4 60.0037 61.2C60.0037 61 59.8037 60.8 59.4037 60.6C59.0037 60.4 58.4037 60.2 57.8037 59.8ZM12.0037 66.8C13.0037 67 14.0037 66.6 14.8037 66.2C16.6037 65.4 16.8037 64.2 15.8037 62.6C15.8037 62.4 15.6037 62.2 15.4037 62C14.6037 61 13.8037 60 12.8037 59.2C12.6037 59 12.4037 58.6 12.2037 58.6H11.2037C10.8037 58.8 10.8037 59.2 11.0037 59.6C11.0037 60 11.2037 60.2 11.4037 60.4L13.2037 62.4C13.6037 62.8 14.2037 63.4 14.4037 64.2C13.6037 65 12.6037 65 11.8037 65.2C11.4037 65.4 11.2037 65.6 11.2037 66C11.2037 66.6 11.4037 66.8 12.0037 66.8ZM59.8037 68.6C60.0037 68.2 59.6038 67.8 59.4037 67.8C59.2038 67.8 59.0037 67.6 59.0037 67.6C57.2037 67.6 55.4037 67.8 54.0037 68.8C52.6037 69.6 52.4037 71.2 53.6037 72.4C55.0037 73.6 56.8037 74.4 58.6037 75.4C59.0037 75.6 59.4037 75.2 59.6037 74.8C59.8037 74.4 59.8037 74 59.4037 73.8C59.2038 73.6 58.8037 73.2 58.4037 73C57.4037 72.6 56.4038 72 55.6037 71.4C55.2037 71.2 55.0037 71 54.6037 70.6C55.0037 70.4 55.2037 70 55.6037 70L58.0037 69.4C58.4037 69.4 58.8037 69.4 59.2037 69.2C59.6037 69.2 59.8037 68.8 59.8037 68.6ZM48.8037 74.2C48.8037 74 48.6037 73.6 48.4037 73.6C47.8037 72.8 47.2037 72 46.4037 71.6C44.8037 70.4 43.4037 70.8 42.4037 72.6C41.8037 73.8 41.4037 75.2 41.2037 76.6C41.2037 76.8 41.4037 77.2 41.6037 77.4C41.8037 77.8 42.6037 78 42.8037 77.6C43.0037 77.2 43.2037 76.8 43.2037 76.4L43.8037 74.2C44.0037 73.8 44.2037 73.2 44.8037 72.8C45.4037 73 46.0037 73.4 46.4037 74C46.8037 74.2 47.0037 74.6 47.4037 74.8C47.6037 75 48.0037 75 48.2037 75C48.6037 74.8 48.6037 74.4 48.8037 74.2ZM23.2037 74.8C23.4037 74.2 23.6037 73.6 23.6037 73C23.6037 71.8 23.0037 71.2 21.8037 71C21.2037 71 20.6037 71 20.0037 71.2C18.2037 71.6 16.4037 72.4 14.4037 73C14.2037 73 14.0037 73.2 13.8037 73.4C13.6037 73.6 13.6037 74 13.6037 74.2C13.8037 74.4 14.0037 74.8 14.4037 74.8C14.8037 74.8 15.2037 74.8 15.6037 74.6L19.0037 73.4C19.8037 73.2 20.6037 72.8 21.6037 73C21.8037 74 21.4037 74.6 21.0037 75.2C20.6037 76 20.2037 76.6 20.0037 77.2L19.6037 78.2C19.6037 78.6 20.2037 79.2 20.8037 78.8C21.0037 78.8 21.2037 78.6 21.2037 78.4C22.0037 77.2 22.6037 76 23.2037 74.8ZM36.0037 79.2C36.4037 77.6 35.4037 75 34.0037 74C33.2037 73.4 32.4037 73.4 31.6037 74C31.0037 74.4 30.4037 75 29.8037 75.6C29.0037 76.8 28.0037 78.2 27.2037 79.6C27.0037 79.8 27.0037 80 26.8037 80.4C26.6037 80.8 26.8037 81.2 27.2037 81.4C27.6037 81.6 28.0037 81.6 28.4037 81.2C28.6037 81 28.8037 80.6 29.0037 80.2C29.8037 79 30.6037 78 31.2037 76.8C31.6037 76.2 32.0037 75.6 32.8037 75.6C33.8037 76.4 33.8037 76.4 34.2037 77.4C34.2037 77.8 34.2037 78.2 34.4037 78.6C34.4037 79 34.6037 79.2 34.8037 79.4C35.0037 79.6 35.4037 79.8 35.6037 79.8C35.8037 79.8 36.0037 79.4 36.0037 79.2Z" fill="#EC59B1"/>
</svg>
