<svg width="82" height="92" viewBox="0 0 82 92" fill="none" xmlns="http://www.w3.org/2000/svg">
<path d="M81.0869 27.8828C81.6869 33.4828 81.2869 38.6828 80.2869 44.4828H77.2869C71.8869 44.4828 66.4869 45.0828 61.0869 45.6828C56.6869 46.2828 52.4869 46.4828 48.0869 47.0828L34.6869 48.2828C32.0869 48.6828 29.6869 49.0828 27.0869 49.4828L24.4869 50.0828C23.8869 50.2828 23.2869 50.6828 23.2869 51.4828C23.4869 58.0828 25.8869 64.6828 32.6869 68.0828C34.8869 69.2828 37.4869 70.0829 40.0869 70.2829C42.2869 70.6829 44.6869 70.8829 47.0869 70.6829H48.4869C51.2869 70.4829 54.0869 70.4828 56.8869 70.2829C57.0869 70.4828 57.2869 70.8829 57.2869 71.2829C57.2869 76.8829 57.4869 82.4828 57.4869 88.2828V89.0828C56.6869 89.4828 55.6869 89.6829 54.6869 89.8829L42.2869 91.6829C38.4869 92.2829 34.6869 91.6829 31.0869 90.8829C28.6869 90.2829 26.2869 89.6829 23.8869 88.8829C19.2869 87.4828 15.2869 85.2828 11.8869 82.0828C9.28692 79.8829 7.28692 77.2829 5.68692 74.2829C3.08692 69.6829 1.28692 64.8829 0.286918 59.4828C0.286918 58.8828 0.0869177 58.0828 0.0869177 57.2828C-0.313082 50.0828 0.686918 42.8828 2.68692 36.0828C4.28692 30.8828 6.88692 26.0828 10.0869 21.8828C15.4869 14.6828 22.0869 8.88284 29.8869 4.48285C34.6869 1.88284 39.8869 0.682847 45.2869 0.282846C47.8869 0.0828424 50.4869 -0.117156 53.0869 0.0828412C55.0869 0.282845 57.0869 0.682848 58.8869 1.28285C64.4869 2.68285 69.0869 5.48284 72.6869 9.88285C73.6869 11.0828 74.6869 12.2828 75.4869 13.4828C78.6869 17.8828 80.4869 22.6828 81.0869 27.8828ZM58.6869 28.4828C58.8869 27.2828 58.2869 26.4828 57.8869 25.6828C56.6869 23.6828 55.0869 22.0828 53.0869 20.6828C48.8869 17.4828 44.2869 16.8828 39.4869 19.4828C35.2869 21.4828 32.2869 24.8828 30.2869 29.0828C30.0869 29.2828 30.0869 29.4828 30.0869 29.8828C39.6869 29.2829 49.0869 29.2828 58.6869 28.4828Z" fill="#5D0947"/>
<path d="M81.0869 27.8828C81.6869 33.4828 81.2869 38.6828 80.2869 44.4828H77.2869C71.8869 44.4828 66.4869 45.0829 61.0869 45.6828C56.6869 46.2829 52.4869 46.4828 48.0869 47.0828L34.6869 48.2828C32.0869 48.6828 29.6869 49.0828 27.0869 49.4828L24.4869 50.0828C23.8869 50.2828 23.2869 50.6828 23.2869 51.4829C23.4869 58.0829 25.8869 64.6828 32.6869 68.0828C34.8869 69.2828 37.4869 70.0828 40.0869 70.2828C42.2869 70.6828 44.6869 70.8828 47.0869 70.6828H48.4869C51.2869 70.4828 54.0869 70.4828 56.8869 70.2828C57.0869 70.4828 57.2869 70.8828 57.2869 71.2828C57.2869 76.8828 57.4869 82.4828 57.4869 88.2828V89.0828C56.6869 89.4828 55.6869 89.6828 54.6869 89.8828L42.2869 91.6828C38.4869 92.2828 34.6869 91.6828 31.0869 90.8828C28.6869 90.2828 26.2869 89.6828 23.8869 88.8828C19.2869 87.4828 15.2869 85.2828 11.8869 82.0828C9.28691 79.8829 7.2869 77.2828 5.68689 74.2828C3.08689 69.6828 1.2869 64.8829 0.286901 59.4828C0.286901 58.8828 0.0869191 58.0828 0.0869191 57.2828C-0.313081 50.0828 0.686894 42.8828 2.68689 36.0828C4.28689 30.8828 6.88692 26.0828 10.0869 21.8828C15.4869 14.6828 22.0869 8.88284 29.8869 4.48284C34.6869 1.88284 39.8869 0.682845 45.2869 0.282844C47.8869 0.0828409 50.4869 -0.117156 53.0869 0.0828416C55.0869 0.282845 57.0869 0.682846 58.8869 1.28284C64.4869 2.68284 69.0869 5.48284 72.6869 9.88285C73.6869 11.0828 74.6869 12.2828 75.4869 13.4828C78.6869 17.8828 80.4869 22.6828 81.0869 27.8828ZM38.4869 7.28284C38.2869 7.48284 37.8869 7.88284 37.8869 8.08285C37.6869 8.48285 38.0869 8.88284 38.2869 9.08285C38.6869 9.28284 39.2869 9.48285 39.4869 9.68284C39.6869 10.2828 39.8869 10.6828 39.8869 11.0828C40.0869 11.6828 40.4869 11.8828 41.0869 11.8828C41.6869 11.8828 41.8869 11.4828 42.0869 10.8828C42.0869 10.4828 42.0869 10.0828 42.2869 9.48285C42.8869 9.28284 43.6869 9.08284 44.2869 8.68284C44.4869 8.48285 44.4869 8.08285 44.4869 7.88284C44.4869 7.48284 44.0869 7.08284 43.8869 6.88284H41.8869C41.8869 6.08284 41.6869 5.68284 41.6869 5.08284C41.4869 4.48285 41.0869 4.28284 40.4869 4.28284C40.0869 4.28284 39.6869 4.68284 39.6869 5.08284C39.4869 5.68284 39.6869 6.28285 39.6869 7.08284C39.0869 7.08284 38.6869 7.08284 38.4869 7.28284ZM63.2869 10.6828C63.6869 10.2828 63.4869 9.68284 63.0869 9.48285C62.2869 9.08284 62.0869 8.48285 61.8869 7.88284C61.6869 7.48284 61.2869 7.28284 60.8869 7.08284C60.2869 7.08284 59.8869 7.48284 59.8869 7.88284C59.6869 8.68284 59.4869 8.88284 58.6869 9.28284C57.8869 9.68284 57.8869 10.4828 58.6869 11.0828C58.8869 11.2828 59.2869 11.2828 59.4869 11.2828L60.0869 13.0828C60.2869 13.4828 60.6869 13.6828 61.2869 13.6828C61.4869 13.4828 62.0869 13.0828 62.0869 12.8828C61.8869 11.8828 62.4869 11.2828 63.2869 10.6828ZM58.6869 28.4828C58.8869 27.2828 58.2869 26.4828 57.8869 25.6828C56.6869 23.6828 55.0869 22.0828 53.0869 20.6828C48.8869 17.4828 44.2869 16.8828 39.4869 19.4828C35.2869 21.4828 32.2869 24.8828 30.2869 29.0828C30.0869 29.2828 30.0869 29.4828 30.0869 29.8828C39.6869 29.2828 49.0869 29.2828 58.6869 28.4828ZM21.2869 22.8828C21.8869 22.2828 21.8869 21.6828 21.2869 21.2828C20.4869 21.0828 20.2869 20.4828 19.8869 19.8828C19.4869 19.2828 18.4869 19.2828 18.2869 19.8828C17.8869 20.4828 17.8869 20.8828 17.6869 21.4828C17.2869 21.6828 16.6869 21.6828 16.2869 22.0828L15.6869 22.8828C15.6869 23.2828 15.8869 23.6828 16.4869 23.8828C16.8869 23.8828 17.2869 23.8828 17.6869 24.0828L18.2869 26.0828C18.4869 26.2828 18.8869 26.4828 19.2869 26.4828C19.6869 26.4828 20.0869 26.0828 20.0869 25.8828C20.2869 25.2828 20.2869 24.4828 20.2869 23.6828C20.6869 23.4828 21.0869 23.2828 21.2869 22.8828ZM74.6869 36.4828C75.0869 36.2828 75.4869 35.8828 75.2869 35.4828C75.2869 34.8828 74.8869 34.4828 74.4869 34.4828H72.4869C72.2869 34.0828 72.2869 33.6828 72.0869 33.2828C71.6869 32.2828 70.6869 32.2828 70.2869 33.0828C69.8869 33.8829 69.4869 34.0828 68.6869 34.4828C67.8869 34.8829 68.0869 35.8828 68.6869 36.2828C69.0869 36.4828 69.6869 36.4828 70.0869 36.6828C70.2869 37.4828 70.2869 38.2828 70.4869 38.8828C70.6869 39.0829 71.0869 39.4828 71.4869 39.4828C72.0869 39.6828 72.4869 39.2828 72.4869 38.6828C72.6869 38.0828 72.6869 37.4828 72.8869 37.0829L74.6869 36.4828ZM53.8869 38.2828C54.0869 38.0829 54.2869 37.4828 54.2869 37.2828C54.2869 37.0829 54.0869 36.6828 53.6869 36.4828C53.0869 36.2828 52.4869 36.2828 51.8869 36.2828C51.8869 35.8828 51.8869 35.4828 51.6869 35.2828C51.4869 34.6828 51.0869 34.2828 50.6869 34.4828C50.2869 34.4828 49.8869 34.8829 49.6869 35.0828C49.4869 35.6828 49.4869 36.2828 49.2869 36.6828C48.8869 36.8828 48.6869 36.8828 48.4869 36.8828C48.2869 37.0829 47.8869 37.0829 47.6869 37.2828C47.0869 37.6828 47.0869 38.4829 47.6869 38.8828L49.0869 39.4828C49.0869 39.6828 49.2869 40.0828 49.2869 40.4828C49.4869 41.0828 49.8869 41.2828 50.2869 41.4828C50.8869 41.4828 51.2869 41.0828 51.2869 40.4828C51.4869 40.0828 51.4869 39.4828 51.6869 38.8828L53.8869 38.2828ZM31.0869 41.8828C31.4869 41.8828 31.8869 41.2828 31.6869 41.0828C31.6869 40.6828 31.4869 40.2828 31.0869 40.0828C30.4869 39.8829 29.8869 39.8829 29.0869 39.6828C29.0869 39.2828 29.0869 38.6828 28.8869 38.2828C28.8869 38.0829 28.4869 37.6828 28.2869 37.4828C27.8869 37.2828 27.2869 37.6828 27.0869 38.0828L26.4869 40.2828C25.6869 40.2828 25.0869 40.2828 24.4869 40.4828C24.0869 40.6828 23.8869 41.0828 23.6869 41.2828C23.4869 41.6828 23.8869 42.2828 24.2869 42.4828L26.4869 42.8828C26.4869 43.6828 26.4869 44.4828 26.4869 45.0829C26.6869 45.6828 26.8869 46.0829 27.4869 46.0829C28.0869 46.0829 28.4869 45.6828 28.6869 45.2828V44.0828C28.8869 43.4828 28.8869 43.0828 28.8869 42.4828C29.8869 42.2828 30.4869 42.2828 31.0869 41.8828ZM10.8869 47.0828C11.0869 47.0828 11.2869 46.4828 11.2869 46.2828C11.4869 45.6828 10.8869 45.2828 10.4869 45.2828H9.08692C8.88692 44.8828 8.88689 44.6828 8.68689 44.4828C8.48689 44.0828 8.08689 43.6828 7.68689 43.8828C7.2869 43.8828 6.8869 44.2828 6.68689 44.6828C6.4869 45.0829 6.48691 45.6828 6.48691 46.2828C5.88691 46.4828 5.2869 46.6828 4.68689 47.0828C4.4869 47.2828 4.2869 47.8829 4.2869 48.0829C4.2869 48.4828 4.68692 48.8828 5.08692 48.8828C5.48692 49.0828 5.8869 49.0829 6.2869 49.0829C6.4869 49.8829 6.28691 50.4828 6.48691 51.0829C6.68691 51.4829 7.08691 51.8828 7.48691 51.8828C7.68691 51.8828 8.0869 51.4828 8.2869 51.2828C8.4869 50.8828 8.68689 50.4828 8.68689 50.0828C8.88689 49.4828 8.88692 48.6828 9.08692 48.0829L10.8869 47.0828ZM10.0869 65.6828C10.6869 65.4828 10.6869 64.4828 10.0869 64.2828C9.08692 63.8828 8.6869 63.2829 8.2869 62.2828C8.2869 62.0828 7.8869 61.8828 7.68689 61.8828C7.2869 61.8828 6.8869 62.0828 6.68689 62.4828C6.4869 62.8828 6.4869 63.2828 6.2869 63.8828C5.8869 64.0828 5.48692 64.0828 5.08692 64.2828C4.48692 64.2828 4.08692 64.4828 4.08692 65.2828C4.08692 65.8828 4.28691 66.0828 5.48691 66.2828H6.2869C6.4869 66.8828 6.68691 67.6828 6.88691 68.0828C7.08691 68.6828 8.08691 68.8828 8.48691 68.2828C8.48691 68.0828 8.68689 68.0828 8.68689 67.8828C8.88689 66.8828 9.08692 66.0828 10.0869 65.6828ZM24.4869 72.6828L22.2869 73.0828C22.0869 73.2828 21.8869 73.6828 21.6869 74.0828C21.6869 74.4828 22.0869 74.8828 22.4869 74.8828C23.0869 75.0828 23.8869 75.0828 24.4869 75.2828C24.4869 75.8828 24.4869 76.4828 24.6869 77.0828C24.8869 77.4828 25.2869 77.8828 25.8869 77.6828C26.0869 77.6828 26.4869 77.2828 26.6869 77.0828C26.8869 76.2828 27.0869 75.4828 27.0869 74.6828L28.6869 74.0828C29.2869 73.8829 29.4869 73.4828 29.4869 72.8828C29.2869 72.4828 28.8869 72.0828 28.2869 72.0828H27.2869C27.0869 71.6828 27.0869 71.2828 26.8869 71.0828C26.6869 70.6828 26.2869 70.4828 25.8869 70.4828C25.6869 70.4828 25.2869 70.8829 25.0869 71.0828C24.6869 71.4828 24.6869 72.0828 24.4869 72.6828ZM41.2869 83.8828C41.0869 83.8828 40.6869 84.2829 40.8869 84.4828C40.8869 84.8829 41.0869 85.2829 41.4869 85.4828C42.0869 85.6828 42.6869 85.6828 43.2869 85.6828C43.4869 86.4828 43.4869 86.8829 43.6869 87.4828C43.8869 87.6828 44.4869 87.8828 44.6869 87.8828C45.0869 87.8828 45.4869 87.6828 45.4869 87.4828L46.0869 85.4828C46.4869 85.2829 47.0869 85.2828 47.6869 85.0828C47.8869 84.8829 48.2869 84.2828 48.2869 84.0828C48.0869 83.6828 47.8869 83.4828 47.4869 83.2828C47.0869 83.0828 46.6869 83.0828 46.0869 83.0828C45.8869 82.4828 45.8869 82.0828 45.6869 81.8828C45.0869 81.0828 44.4869 81.2828 44.0869 81.8828C43.6869 82.2828 43.6869 82.6828 43.4869 83.0828C42.6869 83.2828 41.8869 83.4828 41.2869 83.8828Z" fill="#EC59B1"/>
</svg>
