<svg width="112" height="84" viewBox="0 0 112 84" fill="none" xmlns="http://www.w3.org/2000/svg">
<path d="M111.239 76.2487C111.439 77.8487 111.439 79.4487 111.239 81.0487C110.839 81.0487 110.639 81.2487 110.239 81.2487C103.439 81.0487 96.6388 81.2487 89.8388 81.6487C88.4388 81.6487 87.0388 81.8487 85.6388 81.4487C85.2388 79.8487 85.2388 78.4487 85.0388 76.8487L83.2388 60.6487C83.0388 56.8487 82.8388 53.2487 82.4388 49.4487L81.6388 44.4487C81.4388 43.8487 81.2388 43.4487 81.0388 42.8487C80.0388 40.8487 78.8388 40.6487 77.2388 42.4487C76.2388 43.4487 75.6388 44.6487 75.0388 46.0487C74.0388 48.8487 73.2388 51.6487 72.6388 54.4487C71.6388 59.8487 70.6388 65.2487 69.8388 70.4487C69.4388 71.8487 69.2388 73.2487 69.0388 74.4487C67.0388 75.2487 53.6388 76.4487 51.0388 76.6487C50.2388 74.8487 50.2388 72.8487 49.8388 70.8487C48.8388 65.4487 47.4388 60.2487 46.0388 54.8487C45.0388 51.8487 44.4388 48.8487 43.4388 45.6487C43.2388 44.6487 42.8388 43.4487 42.4388 42.4487C41.6388 40.4487 40.2388 39.0487 38.8388 37.6487C38.2388 37.2487 37.6388 37.2487 37.0388 37.6487C36.0388 38.0487 35.6388 38.6487 35.0388 39.4487C34.0388 41.2487 33.2388 43.2487 32.6388 45.2487C31.8388 48.4487 31.0388 51.6487 30.6388 55.0487C29.4388 61.4487 28.4388 68.0487 28.4388 74.6487V81.4487C28.4388 82.0487 28.4388 82.4487 28.4388 83.2487C27.8388 83.2487 27.6388 83.4487 27.2388 83.4487C19.2388 83.2487 11.4388 83.2487 3.63876 83.0487C2.83876 83.0487 2.23876 83.0487 1.63876 82.8487L1.03876 81.4487C0.838763 77.8487 0.438764 74.2487 0.238764 70.6487C0.0387637 68.4487 0.0387629 66.4487 0.0387629 64.2487C-0.161237 58.0487 0.438764 51.8487 1.23876 45.6487C2.03876 40.0487 2.83876 34.4487 4.43876 28.8487C6.03876 23.0487 8.43876 17.4487 11.4388 12.4487C13.8388 8.44867 17.0388 5.24866 20.8388 2.64867C22.6388 1.64867 24.2388 0.648664 26.2388 0.248669C30.4388 -0.551332 34.2388 0.648663 37.8388 2.84866C40.4388 4.44867 42.4388 6.64867 44.2388 9.04867C47.2388 13.2487 49.4388 17.8487 51.2388 22.6487L53.6388 29.6487C54.0388 30.4487 54.2388 31.0487 54.4388 31.6487C55.0388 31.8487 55.0388 31.4487 55.2388 31.0487L55.4388 30.2487C57.2388 24.4487 59.8388 19.4487 63.2388 14.4487C66.4388 9.64866 70.8388 6.24867 76.0388 3.64867C81.0388 1.04866 86.4388 0.648662 91.8388 1.84866C94.2388 2.44866 96.2388 3.64867 98.0388 5.24867C100.439 7.84867 102.239 10.6487 103.439 14.0487C105.839 21.4487 107.439 28.8487 108.439 36.4487C109.039 42.4487 109.639 48.4487 109.839 54.6487C110.239 61.8487 110.839 69.0487 111.239 76.2487Z" fill="#003735"/>
<path d="M111.239 76.2487C111.439 77.8487 111.439 79.4487 111.239 81.0487C110.839 81.0487 110.639 81.2487 110.239 81.2487C103.439 81.0487 96.6388 81.2487 89.8388 81.6487C88.4388 81.6487 87.0388 81.8487 85.6388 81.4487C85.2388 79.8487 85.2388 78.4487 85.0388 76.8487L83.2388 60.6487C83.0388 56.8487 82.8388 53.2487 82.4388 49.4487L81.6388 44.4487C81.4388 43.8487 81.2388 43.4487 81.0388 42.8487C80.0388 40.8487 78.8388 40.6487 77.2388 42.4487C76.2388 43.4487 75.6388 44.6487 75.0388 46.0487C74.0388 48.8487 73.2388 51.6487 72.6388 54.4487C71.6388 59.8487 70.6388 65.2487 69.8388 70.4487C69.4388 71.8487 69.2388 73.2487 69.0388 74.4487C67.0388 75.2487 53.6388 76.4487 51.0388 76.6487C50.2388 74.8487 50.2388 72.8487 49.8388 70.8487C48.8388 65.4487 47.4388 60.2487 46.0388 54.8487C45.0388 51.8487 44.4388 48.8487 43.4388 45.6487C43.2388 44.6487 42.8388 43.4487 42.4388 42.4487C41.6388 40.4487 40.2388 39.0487 38.8388 37.6487C38.2388 37.2487 37.6388 37.2487 37.0388 37.6487C36.0388 38.0487 35.6388 38.6487 35.0388 39.4487C34.0388 41.2487 33.2388 43.2487 32.6388 45.2487C31.8388 48.4487 31.0388 51.6487 30.6388 55.0487C29.4388 61.4487 28.4388 68.0487 28.4388 74.6487V81.4487C28.4388 82.0487 28.4388 82.4487 28.4388 83.2487C27.8388 83.2487 27.6388 83.4487 27.2388 83.4487C19.2388 83.2487 11.4388 83.2487 3.63876 83.0487C2.83876 83.0487 2.23876 83.0487 1.63876 82.8487L1.03876 81.4487C0.838763 77.8487 0.43876 74.2487 0.23876 70.6487C0.03876 68.4487 0.0387631 66.4487 0.0387631 64.2487C-0.161237 58.0487 0.43876 51.8487 1.23876 45.6487C2.03876 40.0487 2.83876 34.4487 4.43876 28.8487C6.03876 23.0487 8.43876 17.4487 11.4388 12.4487C13.8388 8.44867 17.0388 5.24866 20.8388 2.64867C22.6388 1.64867 24.2388 0.648664 26.2388 0.248669C30.4388 -0.551332 34.2388 0.648664 37.8388 2.84867C40.4388 4.44867 42.4388 6.64867 44.2388 9.04867C47.2388 13.2487 49.4388 17.8487 51.2388 22.6487L53.6388 29.6487C54.0388 30.4487 54.2388 31.0487 54.4388 31.6487C55.0388 31.8487 55.0388 31.4487 55.2388 31.0487L55.4388 30.2487C57.2388 24.4487 59.8388 19.4487 63.2388 14.4487C66.4388 9.64867 70.8388 6.24867 76.0388 3.64867C81.0388 1.04866 86.4388 0.648665 91.8388 1.84867C94.2388 2.44867 96.2388 3.64867 98.0388 5.24866C100.439 7.84867 102.239 10.6487 103.439 14.0487C105.839 21.4487 107.439 28.8487 108.439 36.4487C109.039 42.4487 109.639 48.4487 109.839 54.6487C110.239 61.8487 110.839 69.0487 111.239 76.2487ZM86.0388 14.8487C87.6388 15.6487 88.8388 16.4487 90.2388 17.4487C92.2388 19.0487 94.4388 20.6487 96.6388 22.2487C97.0388 22.6487 97.4388 23.0487 98.0388 23.2487C98.6388 23.4487 99.4388 23.2487 99.8388 22.8487C100.039 22.2487 100.039 21.4487 99.6388 21.0487L98.4388 19.8487C96.2388 18.2487 94.0388 16.6487 91.8388 15.2487C90.4388 14.0487 89.0388 13.2487 87.4388 12.2487C87.0388 12.0487 86.4388 11.6487 85.8388 11.6487C84.6388 11.2487 83.4388 11.8487 83.0388 13.0487C82.8388 13.4487 82.8388 13.8487 82.8388 14.2487C82.6388 16.6487 82.4388 19.0487 82.4388 21.4487L83.0388 31.2487C83.0388 31.8487 83.2388 32.2487 83.4388 32.6487C83.8388 33.4487 84.8388 33.4487 85.4388 32.6487C85.6388 32.2487 85.6388 31.6487 85.6388 31.0487C85.8388 29.0487 85.6388 27.0487 85.6388 25.2487C85.6388 23.0487 85.4388 21.0487 85.4388 18.8487C85.4388 17.6487 85.4388 16.2487 86.0388 14.8487ZM29.2388 33.2487C29.4388 32.8487 29.6388 32.2487 29.6388 31.6487C29.6388 30.6487 29.2388 29.8487 29.0388 28.8487C28.4388 25.6487 27.8388 22.6487 27.8388 19.4487C27.8388 18.4487 27.4388 17.4487 27.2388 16.6487C27.2388 16.0487 27.0388 15.6487 26.8388 15.2487C26.2388 14.0487 25.0388 13.6487 24.0388 14.2487C22.8388 14.8487 22.0388 15.4487 21.0388 16.0487L14.0388 21.4487C12.6388 22.4487 11.2388 23.4487 9.83876 24.6487C9.23876 25.0487 9.23876 25.6487 9.43876 26.0487C9.83876 26.6487 10.4388 27.0487 11.0388 26.6487C11.8388 26.4487 12.6388 26.0487 13.2388 25.4487C16.4388 23.2487 19.4388 20.8487 22.6388 18.6487C23.0388 18.2487 23.6388 18.0487 24.2388 17.6487C24.8388 18.6487 24.8388 19.6487 24.8388 20.4487C25.0388 24.6487 26.0388 28.4487 26.8388 32.4487V33.0487C27.0388 33.4487 27.4388 33.8487 28.0388 33.8487C28.4388 33.8487 29.0388 33.6487 29.2388 33.2487ZM13.8388 33.2487C13.6388 35.8487 15.4388 37.8487 18.0388 37.8487C20.8388 38.2487 24.4388 33.8487 23.4388 30.6487C22.6388 28.2487 20.0388 26.8487 17.8388 27.8487C15.6388 28.8487 14.2388 30.6487 13.8388 33.2487ZM100.639 35.2487C100.639 34.8487 100.639 34.0487 100.439 33.2487C99.8388 30.2487 96.4388 28.4487 93.6388 30.2487C92.4388 30.8487 91.6388 31.8487 91.2388 33.0487C90.4388 35.2487 90.4388 37.6487 91.8388 39.8487C93.4388 42.6487 96.8388 42.8487 99.0388 40.2487C100.239 38.8487 100.639 37.2487 100.639 35.2487ZM20.4388 32.0487C20.2388 33.2487 19.6388 34.2487 18.4388 34.8487H17.8388C17.6388 34.8487 17.2388 34.6487 17.0388 34.2487C16.8388 33.8487 16.8388 33.2487 16.8388 32.8487C17.0388 32.0487 17.4388 31.4487 18.0388 30.8487C18.4388 30.4487 19.0388 30.2487 19.6388 30.4487C20.2388 30.8487 20.6388 31.4487 20.4388 32.0487ZM97.4388 33.8487C97.6388 34.4487 97.6388 34.8487 97.6388 35.4487C97.6388 36.8487 97.4388 37.8487 96.4388 38.6487C95.8388 39.2487 95.0388 39.0487 94.6388 38.6487C93.2388 37.2487 93.2388 34.4487 94.4388 33.0487C94.8388 32.6487 95.2388 32.2487 95.8388 32.4487C96.6388 32.6487 97.2388 33.0487 97.4388 33.8487ZM105.839 36.8487C105.839 36.4487 105.639 36.0487 105.639 35.6487C105.439 35.0487 104.839 34.6487 104.039 34.8487C103.439 34.8487 103.039 35.2487 102.839 35.8487V36.8487C102.239 40.6487 102.039 44.4487 101.439 48.0487C101.039 50.8487 100.439 53.4487 99.2388 56.4487C98.6388 55.6487 98.0388 55.2487 97.8388 54.6487L94.4388 49.8487C93.2388 48.2487 92.0388 46.6487 90.6388 45.0487C90.4388 44.8487 90.0388 44.6487 89.8388 44.2487C89.2388 44.0487 88.6388 44.0487 88.2388 44.4487C87.8388 44.8487 87.6388 45.4487 88.0388 46.0487C88.2388 46.4487 88.6388 46.8487 88.8388 47.0487C90.4388 48.8487 91.8388 51.0487 93.2388 53.0487C94.0388 54.6487 95.0388 56.0487 96.2388 57.4487C96.6388 58.0487 97.2388 58.6487 97.8388 59.2487C98.8388 60.0487 100.239 60.0487 101.039 59.0487L102.239 57.2487C102.639 56.2487 102.839 55.2487 103.039 54.4487C104.839 48.6487 105.039 42.6487 105.839 36.8487ZM24.6388 42.6487C25.0388 42.2487 24.8388 41.4487 24.4388 41.0487C24.0388 40.6487 23.4388 40.4487 23.0388 40.8487C22.4388 41.0487 22.0388 41.4487 21.6388 41.8487L13.2388 49.2487C12.6388 49.8487 12.0388 50.4487 11.0388 50.8487C10.8388 50.4487 10.8388 50.2487 10.8388 50.0487L10.2388 38.6487C10.2388 38.2487 10.2388 37.8487 10.2388 37.6487C10.0388 37.2487 10.0388 36.8487 10.0388 36.6487C9.63876 36.0487 9.03876 35.4487 8.43876 35.6487C7.83876 35.6487 7.23876 36.2487 7.23876 37.2487L7.83876 50.4487C7.83876 51.2487 8.03876 52.0487 8.23876 52.6487C8.83876 54.4487 10.2388 55.0487 11.8388 54.0487C12.6388 53.6487 13.4388 53.0487 14.2388 52.4487C17.4388 49.6487 20.4388 46.6487 23.6388 43.8487C24.0388 43.4487 24.4388 43.0487 24.6388 42.6487ZM68.2388 42.0487C68.4388 41.2487 68.0388 40.6487 67.2388 40.4487C66.8388 40.4487 66.4388 40.2487 65.8388 40.2487C63.6388 40.0487 61.4388 40.0487 59.0388 39.8487C57.2388 39.6487 55.2388 39.6487 53.2388 39.4487C52.6388 39.4487 51.8388 39.4487 51.2388 39.6487C50.4388 39.8487 50.0388 40.4487 50.0388 41.0487C50.2388 41.6487 50.6388 42.0487 51.2388 42.2487C51.6388 42.4487 52.2388 42.4487 52.8388 42.4487C55.0388 42.6487 57.4388 42.6487 59.6388 42.8487C61.6388 42.8487 63.6388 43.0487 65.6388 43.0487H67.0388C67.8388 43.0487 68.2388 42.4487 68.2388 42.0487ZM65.6388 49.4487C65.8388 48.8487 65.4388 48.2487 64.8388 48.0487H63.8388C60.6388 48.0487 57.4388 48.0487 54.2388 48.0487C53.8388 48.0487 53.4388 48.0487 53.0388 48.2487C52.4388 48.4487 51.8388 49.0487 52.0388 49.6487C52.0388 50.2487 52.6388 50.8487 53.2388 50.8487H54.6388C56.0388 50.8487 57.4388 50.6487 58.8388 50.6487C60.2388 50.6487 61.8388 50.6487 63.4388 50.6487C63.8388 50.6487 64.4388 50.6487 64.8388 50.4487C65.2388 50.2487 65.6388 50.0487 65.6388 49.4487ZM63.2388 57.8487C63.6388 57.6487 63.8388 57.0487 63.8388 56.6487C63.8388 56.0487 63.4388 55.6487 63.0388 55.6487C62.6388 55.4487 62.4388 55.4487 62.0388 55.4487H57.6388C57.2388 55.6487 56.6388 55.6487 56.0388 55.8487C55.4388 56.0487 55.0388 56.4487 55.0388 57.0487C55.0388 57.6487 55.6388 58.2487 56.2388 58.2487H61.8388C62.4388 58.0487 62.8388 58.0487 63.2388 57.8487ZM59.4388 66.2487C60.0388 66.2487 60.8388 65.6487 60.8388 64.8487C60.8388 64.2487 60.0388 63.6487 59.4388 63.6487C58.8388 63.8487 58.2388 64.2487 58.2388 65.0487C58.2388 65.6487 58.8388 66.2487 59.4388 66.2487Z" fill="#22BEB9"/>
</svg>
