<svg width="68" height="94" viewBox="0 0 68 94" fill="none" xmlns="http://www.w3.org/2000/svg">
<path d="M67.0679 54.6309C67.2679 57.4309 66.6679 60.2309 65.8679 63.0309C63.8679 69.6309 60.6679 75.4309 56.0679 80.4309L44.2679 92.4309C44.0679 92.8309 43.8679 92.8309 43.4679 93.2309C36.4679 90.8309 29.8679 87.6309 23.2679 84.0309L24.6679 82.6309C28.6679 78.0309 32.6679 73.2309 35.8679 67.8309C36.8679 66.0309 37.8679 64.0309 38.2679 61.8309C39.0679 58.8309 38.0679 56.8309 35.2679 55.4309C33.8679 54.6309 32.0679 54.4309 30.4679 54.4309C26.0679 54.2309 21.8679 54.4309 17.6679 54.2309C16.0679 54.2309 14.2679 54.2309 12.6679 53.8309C8.46791 53.0309 5.26791 50.8309 2.46791 47.4309C1.46791 46.0309 0.867912 44.4309 0.467912 42.6309C-0.332088 38.6309 -0.132088 34.8309 1.26791 30.8309C3.86791 23.4309 8.26791 17.2309 14.2679 12.0309C23.0679 4.43094 33.2679 0.430941 44.8679 0.230937C48.2679 0.0309397 51.4679 -0.169058 54.8679 0.230937C55.6679 0.430941 56.4679 0.430941 57.2679 0.630939C57.4679 8.63094 56.4679 16.4309 56.8679 24.6309H52.8679C49.6679 24.6309 46.6679 25.0309 43.6679 25.6309C40.2679 26.2309 37.2679 27.8309 34.6679 30.0309C33.6679 31.0309 32.8679 31.8309 32.6679 33.0309C32.0679 34.8309 32.4679 35.8309 34.0679 36.6309C35.4679 37.4309 37.0679 37.6309 38.6679 37.8309C42.6679 38.2309 46.6679 38.8309 50.6679 39.2309C54.0679 39.6309 57.0679 40.6309 60.0679 42.6309C64.4679 45.4309 66.8679 49.4309 67.0679 54.6309Z" fill="#8B1A00"/>
<path d="M67.0679 54.6309C67.2679 57.4309 66.6679 60.2309 65.8679 63.0309C63.8679 69.6309 60.6679 75.4309 56.0679 80.4309L44.2679 92.4309C44.0679 92.8309 43.8679 92.8309 43.4679 93.2309C36.4679 90.8309 29.8679 87.6309 23.2679 84.0309L24.6679 82.6309C28.6679 78.0309 32.6679 73.2309 35.8679 67.8309C36.8679 66.0309 37.8679 64.0309 38.2679 61.8309C39.0679 58.8309 38.0679 56.8309 35.2679 55.4309C33.8679 54.6309 32.0679 54.4309 30.4679 54.4309C26.0679 54.2309 21.8679 54.4309 17.6679 54.2309C16.0679 54.2309 14.2679 54.2309 12.6679 53.8309C8.46793 53.0309 5.26792 50.8309 2.46792 47.4309C1.46792 46.0309 0.867916 44.4309 0.467916 42.6309C-0.332084 38.6309 -0.132097 34.8309 1.2679 30.8309C3.8679 23.4309 8.2679 17.2309 14.2679 12.0309C23.0679 4.43094 33.2679 0.430941 44.8679 0.230937C48.2679 0.0309397 51.4679 -0.169058 54.8679 0.230937C55.6679 0.430941 56.4679 0.430941 57.2679 0.630939C57.4679 8.63094 56.4679 16.4309 56.8679 24.6309H52.8679C49.6679 24.6309 46.6679 25.0309 43.6679 25.6309C40.2679 26.2309 37.2679 27.8309 34.6679 30.0309C33.6679 31.0309 32.8679 31.8309 32.6679 33.0309C32.0679 34.8309 32.4679 35.8309 34.0679 36.6309C35.4679 37.4309 37.0679 37.6309 38.6679 37.8309C42.6679 38.2309 46.6679 38.8309 50.6679 39.2309C54.0679 39.6309 57.0679 40.6309 60.0679 42.6309C64.4679 45.4309 66.8679 49.4309 67.0679 54.6309ZM44.6679 3.63094C44.4679 4.63094 45.0679 5.43094 45.8679 6.23094L46.0679 6.63094C45.8679 6.83094 45.6679 6.83094 45.4679 7.03094C44.2679 8.43094 44.4679 9.43094 45.6679 10.4309L47.0679 11.2309C45.2679 13.6309 45.2679 13.8309 46.6679 16.0309C46.2679 16.4309 46.0679 16.6309 45.8679 17.0309C45.2679 18.4309 45.4679 19.4309 46.4679 20.2309C46.8679 20.6309 47.4679 20.8309 47.8679 21.0309L53.0679 21.6309C54.0679 21.6309 54.6679 21.0309 54.4679 20.2309C54.4679 19.6309 54.0679 19.4309 53.0679 19.2309C51.6679 19.2309 50.2679 19.0309 49.0679 18.8309C48.6679 18.8309 48.4679 18.4309 48.0679 18.2309C48.8679 18.0309 49.2679 17.8309 49.6679 17.6309C50.6679 17.6309 51.8679 17.4309 52.8679 17.2309C53.4679 17.2309 53.8679 16.6309 53.8679 16.0309C53.8679 15.6309 53.4679 15.0309 52.8679 15.0309L49.4679 14.4309C49.0679 14.4309 48.6679 14.0309 48.2679 13.8309C49.2679 12.8309 50.4679 12.4309 51.6679 12.4309C52.2679 12.2309 53.0679 12.2309 53.8679 12.2309C54.2679 12.0309 54.6679 11.6309 54.6679 11.2309C54.8679 10.6309 54.4679 10.2309 54.0679 10.0309C53.4679 9.83094 53.0679 9.63094 52.6679 9.63094L49.0679 9.03094C48.6679 9.03094 48.4679 8.83094 48.4679 8.23094C49.6679 8.03094 50.8679 8.03094 52.0679 8.03094C52.6679 8.03094 53.2679 8.03094 53.6679 7.83094C54.0679 7.83094 54.2679 7.23094 54.2679 7.03094C54.4679 6.63094 54.0679 6.23094 53.8679 6.23094C53.6679 5.83094 53.2679 5.83094 52.8679 5.63094C51.4679 5.23094 50.0679 5.03094 48.6679 4.63094C48.2679 4.63094 47.8679 4.23094 47.2679 3.83094C48.0679 3.63094 48.6679 3.43094 49.0679 3.23094C50.6679 2.83094 52.0679 2.63094 53.6679 2.83094C54.2679 2.83094 54.6679 2.63094 54.8679 2.03094C54.8679 1.63094 54.4679 1.03094 53.8679 0.830941H53.6679C51.2679 0.430941 49.0679 0.630938 46.8679 1.63094C45.8679 2.03094 45.0679 2.63094 44.6679 3.63094ZM30.0679 5.23094C29.6679 6.03094 29.6679 6.83094 30.4679 7.43094L31.8679 8.23094C31.4679 8.83094 30.8679 9.03094 30.4679 9.63094C29.6679 10.6309 30.0679 11.8309 31.2679 12.4309L33.6679 13.0309C32.8679 13.8309 32.0679 14.2309 31.6679 14.8309C30.6679 15.8309 30.8679 17.2309 32.0679 17.8309C32.6679 18.2309 33.4679 18.4309 34.2679 18.6309L33.4679 19.4309C33.0679 19.8309 32.8679 20.0309 32.6679 20.4309C32.2679 21.4309 32.4679 22.4309 33.4679 22.8309C34.2679 23.2309 35.0679 23.4309 35.8679 23.6309H41.6679C42.0679 23.4309 42.4679 23.4309 42.6679 23.0309C42.8679 23.0309 43.2679 22.6309 43.0679 22.2309C43.0679 22.0309 42.8679 21.4309 42.4679 21.4309C42.0679 21.2309 41.6679 21.2309 41.0679 21.2309H37.2679C36.8679 21.2309 36.2679 21.4309 35.8679 20.8309C36.0679 20.6309 36.0679 20.4309 36.2679 20.4309C37.2679 20.0309 38.0679 19.6309 39.0679 19.4309C39.6679 19.0309 40.2679 19.0309 40.8679 18.8309C41.6679 18.4309 42.0679 18.0309 41.8679 17.2309C41.8679 16.6309 41.2679 16.2309 40.4679 16.2309C39.8679 16.0309 39.2679 16.0309 38.6679 16.2309H35.6679C35.2679 16.0309 35.0679 15.8309 34.4679 15.6309C35.0679 15.4309 35.2679 15.2309 35.6679 15.0309L38.6679 13.8309C39.0679 13.6309 39.6679 13.4309 40.2679 13.2309C40.8679 13.0309 41.0679 12.4309 41.0679 11.8309C40.8679 11.4309 40.6679 11.0309 40.0679 10.8309C39.6679 10.8309 39.0679 10.6309 38.4679 10.6309H35.4679C35.2679 10.6309 34.8679 10.6309 34.4679 10.2309L37.4679 9.63094C38.2679 9.43094 39.0679 9.23094 39.8679 9.03094C40.4679 8.83094 40.8679 8.43094 40.8679 7.83094C40.8679 7.23094 40.4679 6.83094 39.6679 6.63094C38.8679 6.43094 38.0679 6.43094 37.0679 6.23094C36.0679 6.23094 34.8679 6.03094 33.6679 6.03094V5.43094C33.8679 5.43094 34.0679 5.23094 34.4679 5.03094C36.0679 4.43094 37.8679 4.23094 39.8679 3.83094C40.4679 3.83094 41.0679 3.83094 41.6679 3.43094C41.8679 3.43094 42.0679 2.83094 42.0679 2.43094C42.0679 2.23094 41.8679 2.03094 41.4679 1.83094H41.0679C37.8679 1.63094 34.8679 2.23094 32.0679 3.43094C31.2679 3.83094 30.4679 4.43094 30.0679 5.23094ZM16.6679 12.2309C16.0679 13.2309 16.6679 14.6309 17.8679 14.8309C18.2679 15.0309 18.8679 15.0309 19.6679 15.0309C19.0679 15.8309 18.6679 16.6309 18.2679 17.2309C17.6679 18.4309 18.0679 19.2309 19.2679 19.8309L20.4679 20.4309C20.2679 21.2309 19.8679 21.8309 19.6679 22.4309C19.2679 23.6309 20.0679 25.0309 21.2679 25.2309H23.6679C23.4679 25.6309 23.2679 26.0309 23.2679 26.4309C22.6679 28.6309 23.4679 29.8309 25.6679 29.6309C28.2679 29.6309 30.4679 28.6309 32.6679 27.6309C33.0679 27.4309 33.2679 26.8309 33.2679 26.4309C33.0679 25.8309 32.6679 25.6309 32.0679 25.6309C31.4679 25.6309 31.0679 25.8309 30.4679 26.0309C29.4679 26.2309 28.6679 26.6309 27.6679 27.0309C27.0679 27.2309 26.4679 27.4309 25.8679 27.0309C26.0679 26.0309 26.8679 25.4309 27.4679 24.6309C28.0679 24.2309 28.6679 24.0309 29.0679 23.6309C29.6679 23.2309 29.6679 22.6309 29.4679 22.0309C29.2679 21.4309 28.6679 21.2309 28.0679 21.2309C27.6679 21.4309 27.2679 21.6309 26.6679 21.6309C25.6679 22.0309 24.4679 22.4309 23.4679 22.6309C23.0679 22.8309 22.6679 22.8309 22.4679 22.2309C23.0679 21.2309 24.0679 20.4309 25.2679 19.8309C25.6679 19.4309 26.0679 19.0309 26.4679 18.8309C26.8679 18.4309 27.0679 18.0309 27.0679 17.4309C26.6679 16.8309 26.0679 16.4309 25.4679 16.4309C24.4679 16.6309 23.6679 17.0309 22.6679 17.2309H21.2679C22.0679 16.0309 23.0679 15.6309 24.0679 15.0309C24.6679 14.6309 25.2679 14.2309 25.6679 13.8309C25.8679 13.6309 26.0679 13.2309 26.0679 12.8309C26.0679 12.2309 25.4679 12.0309 25.0679 11.8309H23.8679C22.8679 12.0309 22.0679 12.2309 21.2679 12.4309H19.4679C20.8679 11.0309 22.2679 10.4309 23.6679 9.63094C24.0679 9.43094 24.6679 9.23094 25.0679 8.83094C25.4679 8.63094 25.6679 8.23094 25.4679 7.83094C25.2679 7.63094 24.8679 7.43094 24.4679 7.23094C24.2679 7.03094 23.8679 7.23094 23.6679 7.23094C21.6679 8.23094 19.6679 9.23094 17.8679 10.6309C17.4679 11.0309 17.0679 11.6309 16.6679 12.2309ZM17.6679 36.6309C17.8679 37.0309 17.8679 37.4309 18.0679 37.6309C19.0679 39.6309 21.0679 40.2309 22.8679 38.0309C23.0679 38.0309 23.0679 37.8309 23.2679 37.8309C24.0679 36.4309 25.0679 35.0309 26.0679 33.8309C26.2679 33.4309 26.2679 33.0309 26.2679 32.8309C26.2679 32.4309 26.0679 32.0309 25.6679 31.8309C25.4679 31.6309 24.8679 31.6309 24.6679 31.8309L23.4679 33.0309C22.8679 34.0309 22.2679 35.2309 21.4679 36.0309C21.2679 36.4309 20.8679 36.6309 20.4679 36.8309C20.0679 35.8309 20.2679 35.0309 20.6679 34.2309C20.6679 33.6309 20.8679 33.0309 21.0679 32.4309C21.0679 31.8309 20.8679 31.4309 20.4679 31.2309C19.8679 31.0309 19.4679 31.0309 19.0679 31.4309C18.4679 31.8309 17.8679 32.6309 17.4679 33.2309C16.8679 33.8309 16.4679 34.4309 15.4679 34.8309V33.2309C15.8679 32.0309 16.2679 30.8309 16.6679 29.6309C16.6679 29.0309 17.0679 28.4309 17.0679 27.8309C17.2679 27.4309 17.0679 27.0309 16.6679 26.6309C16.0679 26.4309 15.4679 26.4309 15.0679 26.8309C14.2679 27.6309 13.6679 28.4309 13.0679 29.2309C12.8679 29.4309 12.6679 30.0309 12.0679 29.6309C12.0679 28.4309 12.6679 27.4309 13.0679 26.4309L14.2679 23.8309C14.4679 23.0309 14.2679 22.2309 13.6679 22.0309C13.0679 21.6309 12.4679 21.8309 12.0679 22.4309C11.6679 22.8309 11.2679 23.2309 10.8679 23.8309C10.4679 24.0309 10.2679 24.4309 9.46792 25.0309C10.0679 22.8309 10.8679 21.4309 12.0679 20.0309L13.2679 18.4309C13.4679 18.0309 13.4679 17.4309 13.0679 17.2309C12.6679 17.0309 12.2679 17.0309 11.8679 17.0309C11.6679 17.0309 11.4679 17.2309 11.2679 17.4309C9.0679 20.0309 7.2679 22.8309 6.6679 26.0309V27.8309C6.6679 28.4309 7.06791 29.0309 7.86791 29.0309C8.46791 29.2309 8.8679 29.2309 9.2679 29.2309C9.2679 30.4309 9.26791 31.4309 9.46792 32.2309C9.66792 33.4309 10.6679 33.8309 11.8679 33.4309C12.2679 33.4309 12.6679 33.2309 13.0679 33.2309V35.8309C13.2679 37.6309 14.6679 38.4309 16.4679 37.4309L17.6679 36.6309ZM18.0679 43.2309V43.0309C17.8679 42.6309 17.6679 42.2309 17.2679 42.0309C17.0679 42.0309 16.4679 42.0309 16.2679 42.2309C15.8679 42.6309 15.6679 43.2309 15.2679 43.6309C14.8679 44.6309 14.6679 45.6309 13.6679 46.4309C13.0679 45.4309 13.0679 44.6309 13.0679 43.6309V40.6309C13.0679 40.0309 12.8679 39.6309 12.2679 39.4309C11.6679 39.2309 11.0679 39.6309 10.6679 40.2309C10.2679 40.8309 10.0679 41.6309 9.86791 42.2309C9.66791 42.6309 9.66792 43.2309 9.06792 43.0309C9.06792 43.0309 8.86791 42.8309 8.86791 42.6309V40.2309C8.86791 39.6309 9.06791 39.0309 8.86791 38.6309C8.86791 38.2309 8.26791 37.8309 7.86791 37.6309C7.46791 37.4309 7.0679 37.6309 6.6679 38.0309C6.2679 38.6309 6.0679 39.4309 5.6679 40.0309C5.4679 40.2309 5.2679 40.8309 4.6679 40.4309V38.4309C4.8679 37.6309 5.0679 37.0309 5.2679 36.2309C5.2679 35.8309 5.6679 35.4309 5.6679 35.0309C5.6679 34.8309 5.4679 34.2309 5.2679 34.0309C4.8679 34.0309 4.46792 34.0309 4.06792 34.2309C3.86792 34.2309 3.46792 34.6309 3.46792 35.0309C2.46792 37.2309 2.06792 39.4309 2.46792 41.6309C2.66792 43.8309 3.4679 44.4309 5.6679 43.8309H6.2679C6.2679 44.0309 6.46792 44.4309 6.46792 44.6309C6.66792 45.0309 6.66791 45.6309 6.86791 46.0309C7.46791 47.2309 8.4679 47.6309 9.6679 47.0309L10.8679 46.2309C11.2679 47.0309 11.4679 47.8309 12.0679 48.4309C12.8679 49.6309 14.2679 49.8309 15.0679 48.8309C16.6679 47.2309 17.4679 45.2309 18.0679 43.2309ZM30.0679 47.6309C31.6679 47.2309 32.0679 46.4309 31.8679 45.0309L31.4679 44.0309C31.8679 43.8309 32.0679 43.8309 32.0679 43.6309C33.6679 42.6309 34.0679 41.6309 32.8679 40.0309C32.2679 39.4309 31.6679 38.8309 31.0679 38.4309C30.4679 37.6309 29.6679 37.0309 28.8679 36.6309C28.4679 36.2309 27.8679 36.2309 27.4679 36.6309C27.0679 37.0309 27.0679 37.8309 27.4679 38.2309C27.8679 38.6309 28.4679 39.0309 28.8679 39.6309C29.4679 40.0309 30.0679 40.2309 30.2679 41.2309C29.0679 41.6309 28.2679 40.8309 27.2679 40.6309C26.0679 40.4309 25.4679 40.4309 25.2679 41.2309C24.8679 41.6309 25.2679 42.2309 26.0679 42.8309C26.8679 43.6309 27.8679 44.0309 28.6679 45.0309H27.0679C26.2679 44.6309 25.4679 44.4309 24.6679 44.2309C24.0679 44.0309 23.4679 44.0309 23.0679 44.6309C22.6679 45.2309 22.8679 45.8309 23.4679 46.4309C23.8679 46.8309 24.2679 47.2309 24.8679 47.4309L26.2679 48.8309C24.8679 49.2309 24.0679 49.0309 23.2679 48.8309C22.2679 48.4309 21.2679 48.0309 20.2679 47.8309C19.4679 47.4309 18.8679 47.6309 18.6679 48.2309C18.4679 48.8309 18.6679 49.2309 19.2679 49.6309C19.6679 49.8309 19.8679 50.0309 20.2679 50.0309C21.6679 50.4309 22.8679 51.0309 24.4679 51.2309C25.0679 51.4309 25.8679 51.4309 26.4679 51.4309C28.0679 51.2309 28.6679 50.4309 28.8679 49.0309V47.6309C29.2679 47.6309 29.6679 47.6309 30.0679 47.6309ZM38.4679 53.0309C39.8679 52.8309 40.4679 52.0309 39.8679 50.6309C39.6679 50.4309 39.4679 50.0309 39.4679 49.8309C42.2679 48.2309 42.4679 48.0309 41.4679 45.2309C41.8679 45.0309 42.2679 45.0309 42.4679 44.8309C43.8679 43.8309 44.0679 42.8309 43.0679 41.6309C42.0679 40.0309 40.2679 39.2309 38.6679 38.4309C38.4679 38.2309 38.2679 38.2309 38.2679 38.2309C37.6679 38.2309 37.0679 38.4309 37.0679 39.0309C37.0679 39.4309 37.0679 39.8309 37.4679 40.0309C38.0679 40.6309 39.0679 41.2309 39.8679 41.8309C40.0679 42.0309 40.4679 42.2309 40.2679 42.8309H38.8679C38.4679 42.6309 37.8679 42.4309 37.2679 42.4309C36.4679 42.2309 35.8679 42.4309 35.6679 43.0309C35.4679 43.6309 35.6679 44.2309 36.2679 44.6309L38.2679 45.8309C38.6679 46.0309 39.2679 46.4309 39.0679 47.2309C38.2679 47.0309 37.2679 47.0309 36.4679 47.0309C35.8679 46.8309 35.4679 46.8309 35.0679 46.8309C34.0679 47.0309 33.4679 48.0309 34.2679 48.8309C34.6679 49.4309 35.0679 49.8309 35.6679 50.2309C34.8679 50.4309 34.2679 50.2309 33.6679 50.0309C32.8679 49.8309 32.2679 50.0309 32.0679 50.6309C31.8679 51.2309 32.2679 51.8309 33.0679 52.0309C34.0679 52.4309 34.8679 52.8309 35.8679 52.8309C36.6679 53.0309 37.6679 53.2309 38.4679 53.0309ZM44.4679 50.8309C44.0679 51.4309 44.4679 52.0309 45.0679 52.4309C45.8679 53.0309 46.8679 53.4309 47.4679 54.8309C46.2679 54.4309 45.4679 54.4309 44.6679 54.2309L43.0679 53.6309C42.6679 53.6309 42.0679 53.8309 41.8679 54.4309C41.6679 54.6309 42.0679 55.4309 42.4679 55.6309C44.2679 56.4309 46.2679 57.0309 48.2679 57.0309C50.0679 56.8309 50.6679 56.2309 50.4679 54.2309V53.6309C51.0679 53.4309 51.8679 53.4309 52.4679 53.2309C53.6679 52.8309 54.0679 51.8309 53.6679 50.6309L53.0679 49.2309C53.2679 49.2309 53.4679 49.0309 53.6679 49.0309C56.2679 48.0309 56.6679 46.4309 54.4679 44.8309C53.0679 43.6309 51.2679 42.8309 49.6679 42.0309C49.0679 41.6309 48.4679 41.8309 48.2679 42.4309C48.0679 42.8309 48.0679 43.6309 48.6679 43.8309C49.4679 44.4309 50.4679 45.0309 51.4679 45.6309C51.8679 45.8309 52.2679 46.0309 52.2679 46.6309C51.2679 46.8309 50.0679 46.6309 49.0679 46.4309C48.6679 46.4309 48.0679 46.2309 47.4679 46.2309C46.8679 46.2309 46.4679 46.6309 46.2679 47.0309C46.0679 47.6309 46.4679 48.0309 46.8679 48.2309L48.8679 49.4309C49.4679 49.8309 50.2679 50.0309 50.6679 50.8309C49.6679 51.2309 48.6679 51.0309 47.8679 50.8309L46.2679 50.2309C45.4679 50.0309 44.6679 50.2309 44.4679 50.8309ZM64.0679 53.4309C63.8679 52.8309 63.4679 52.4309 63.0679 51.8309C63.0679 51.6309 63.2679 51.6309 63.2679 51.4309C63.4679 51.4309 63.6679 51.4309 63.6679 51.2309C64.8679 50.2309 65.0679 49.0309 64.2679 47.8309C62.8679 46.0309 61.0679 45.0309 59.0679 44.0309C58.6679 43.6309 58.0679 44.0309 57.8679 44.4309C57.4679 44.8309 57.6679 45.4309 57.8679 45.6309L59.0679 46.6309C59.8679 47.2309 60.6679 47.8309 61.4679 48.4309C61.6679 48.4309 61.6679 48.8309 61.8679 49.2309H60.0679C59.4679 49.2309 58.8679 49.0309 58.2679 49.0309C58.0679 49.2309 57.4679 49.4309 57.4679 49.8309C57.2679 50.2309 57.4679 50.6309 57.6679 50.8309C58.0679 51.4309 58.6679 51.6309 59.2679 52.0309C60.0679 52.6309 61.0679 53.2309 61.6679 54.4309C61.0679 54.4309 60.4679 54.6309 59.8679 54.6309C58.8679 54.6309 58.0679 54.4309 57.0679 54.4309C56.4679 54.2309 55.8679 54.4309 55.6679 55.0309C55.2679 55.6309 55.6679 56.2309 56.0679 56.4309L58.4679 58.2309C58.6679 58.6309 58.8679 58.8309 59.2679 59.2309C57.4679 59.4309 56.4679 58.8309 55.2679 58.2309L53.8679 57.6309C53.4679 57.4309 52.6679 58.2309 52.8679 58.6309C53.0679 59.0309 53.2679 59.4309 53.4679 59.6309C55.4679 61.0309 57.8679 61.8309 60.2679 61.8309C62.0679 61.6309 62.8679 60.2309 62.0679 58.6309C61.6679 58.2309 61.4679 57.8309 61.0679 57.2309C61.8679 57.0309 62.4679 56.8309 63.0679 56.4309C64.2679 55.8309 64.6679 54.6309 64.0679 53.4309ZM60.0679 67.6309C60.0679 67.2309 59.8679 66.6309 59.4679 66.4309C59.0679 66.0309 58.6679 66.2309 58.2679 66.4309L57.2679 67.6309C56.2679 68.4309 55.2679 69.2309 54.2679 70.0309C54.0679 70.4309 53.6679 70.4309 53.2679 70.6309C52.8679 69.0309 53.4679 67.6309 53.8679 66.4309L54.4679 64.6309C54.6679 63.8309 53.6679 63.2309 52.8679 63.6309C52.4679 63.8309 52.0679 64.2309 51.6679 64.6309L48.8679 68.0309C48.4679 68.4309 47.8679 69.0309 47.2679 68.8309C46.8679 68.0309 47.0679 67.2309 47.2679 66.4309L48.4679 63.6309C48.6679 63.0309 48.8679 62.6309 49.0679 62.2309C49.0679 61.6309 48.8679 61.2309 48.4679 61.0309C48.0679 60.8309 47.6679 60.8309 47.2679 60.8309C46.8679 61.2309 46.2679 61.6309 45.8679 61.8309C45.0679 62.8309 44.0679 63.6309 43.0679 64.6309L41.8679 65.4309C42.0679 64.6309 42.2679 64.2309 42.4679 63.8309C42.8679 62.6309 43.4679 61.6309 43.8679 60.6309C44.2679 60.2309 44.2679 59.8309 43.8679 59.4309C43.2679 59.0309 42.6679 59.2309 42.2679 59.6309C42.0679 59.6309 42.0679 59.8309 41.8679 59.8309C40.8679 61.6309 39.8679 63.6309 39.4679 65.6309C39.2679 66.2309 39.2679 66.6309 39.2679 67.2309C39.4679 68.0309 40.2679 68.6309 41.0679 68.4309C41.6679 68.4309 42.0679 68.2309 42.6679 68.0309L44.4679 66.8309C44.6679 68.0309 44.4679 69.0309 44.6679 69.8309C44.8679 71.2309 46.0679 72.0309 47.4679 71.6309C48.0679 71.4309 48.6679 71.0309 49.2679 70.8309C49.6679 70.631 50.0679 70.4309 50.4679 70.0309C50.4679 70.6309 50.6679 70.8309 50.6679 71.2309C51.4679 73.2309 52.6679 73.8309 54.6679 72.8309C56.6679 71.6309 58.2679 70.0309 59.6679 68.4309C59.8679 68.2309 59.8679 67.8309 60.0679 67.6309ZM54.2679 76.4309C54.2679 76.0309 54.2679 75.4309 54.0679 75.2309C53.8679 75.0309 53.2679 74.8309 52.8679 75.0309C52.4679 75.0309 52.0679 75.4309 51.8679 75.8309C50.4679 76.8309 49.4679 78.0309 48.0679 79.0309C47.8679 79.2309 47.6679 79.6309 47.0679 79.4309C46.8679 78.2309 47.6679 77.4309 47.8679 76.4309C48.0679 75.8309 48.0679 75.2309 47.4679 74.8309C47.0679 74.4309 46.4679 74.6309 45.8679 75.0309C45.0679 76.0309 44.2679 77.0309 43.2679 77.8309C42.8679 78.2309 42.2679 78.4309 41.8679 78.8309C41.4679 77.631 41.8679 76.8309 42.0679 76.0309C42.4679 75.4309 42.6679 74.6309 42.8679 74.0309C42.8679 73.6309 42.8679 72.8309 42.4679 72.6309C42.2679 72.4309 41.6679 72.4309 41.0679 72.4309L40.2679 73.2309C39.4679 73.8309 38.6679 74.4309 37.8679 75.0309C37.6679 75.2309 37.4679 75.6309 36.8679 75.4309C36.8679 75.0309 36.8679 74.6309 37.0679 74.4309C37.2679 73.8309 37.4679 73.2309 37.8679 72.6309C38.0679 72.4309 38.2679 72.2309 38.2679 71.8309C38.6679 71.2309 38.4679 70.6309 38.0679 70.4309C37.4679 70.0309 37.0679 70.2309 36.6679 70.6309C35.4679 72.0309 34.6679 73.8309 34.4679 75.8309C34.2679 77.631 35.4679 78.6309 37.2679 78.2309C37.8679 78.0309 38.2679 77.4309 39.0679 77.6309C39.0679 78.2309 39.0679 78.6309 39.2679 79.2309C39.6679 80.8309 40.8679 81.6309 42.4679 81.2309C43.0679 81.0309 43.6679 80.6309 44.4679 80.2309C44.6679 80.6309 44.6679 80.8309 44.8679 81.0309C45.8679 82.4309 46.8679 82.631 48.4679 81.8309L49.0679 81.4309C50.6679 80.0309 52.2679 78.6309 53.6679 77.2309C54.0679 77.0309 54.2679 76.6309 54.2679 76.4309ZM46.6679 86.4309C47.0679 86.0309 46.8679 85.6309 46.4679 85.2309C46.0679 84.6309 45.6679 84.6309 45.0679 85.0309C44.4679 85.4309 44.0679 86.0309 43.4679 86.2309C43.0679 86.6309 42.6679 86.8309 41.8679 87.2309V85.8309C41.8679 85.4309 42.0679 84.8309 42.0679 84.4309C42.0679 83.6309 41.0679 82.8309 40.2679 83.2309C40.0679 83.4309 39.6679 83.631 39.2679 83.8309L37.4679 85.2309C37.2679 85.0309 37.0679 85.0309 37.0679 84.8309C37.0679 84.4309 37.2679 84.0309 37.4679 83.6309L38.4679 82.0309C38.6679 81.6309 38.6679 81.0309 38.2679 80.4309C37.8679 80.0309 37.2679 80.0309 36.6679 80.2309C36.0679 80.4309 35.6679 80.8309 35.2679 81.0309C34.2679 81.6309 33.4679 82.0309 32.6679 82.6309C32.4679 82.8309 32.0679 83.0309 31.6679 82.6309C31.6679 81.6309 32.2679 81.0309 32.6679 80.2309C33.0679 79.8309 32.8679 79.6309 32.6679 79.2309C32.2679 78.8309 31.6679 78.8309 31.2679 79.0309H31.0679C30.0679 80.2309 29.2679 81.4309 29.2679 83.0309C29.0679 84.6309 30.4679 85.6309 32.0679 85.2309L34.2679 84.6309C34.4679 85.0309 34.4679 85.2309 34.4679 85.4309C34.8679 87.4309 35.6679 88.2309 37.6679 87.6309L39.2679 87.0309C39.4679 87.6309 39.4679 88.0309 39.8679 88.2309C40.4679 89.4309 41.6679 89.8309 42.8679 89.4309C44.4679 88.8309 45.6679 87.8309 46.6679 86.4309Z" fill="#FF5708"/>
</svg>
