<svg width="56" height="56" viewBox="0 0 56 56" fill="none" xmlns="http://www.w3.org/2000/svg">
<g id="Icon">
<mask id="mask0_1875_639" style="mask-type:alpha" maskUnits="userSpaceOnUse" x="0" y="0" width="56" height="56">
<rect id="Bounding box" x="0.285713" y="0.285706" width="55.4286" height="55.4286" fill="black"/>
</mask>
<g mask="url(#mask0_1875_639)">
<g id="palette">
<mask id="mask1_1875_639" style="mask-type:alpha" maskUnits="userSpaceOnUse" x="-7" y="-7" width="68" height="68">
<rect id="Bounding box_2" x="7.3327" y="-6.64288" width="55.4286" height="55.4286" transform="rotate(14.6043 7.3327 -6.64288)" fill="#D9D9D9"/>
</mask>
<g mask="url(#mask1_1875_639)">
<path id="palette_2" d="M21.3402 49.5128C18.2859 48.717 15.552 47.3781 13.1386 45.4963C10.7251 43.6145 8.76789 41.3941 7.2668 38.8351C5.76571 36.2761 4.78275 33.4842 4.31792 30.4593C3.85309 27.4345 4.0186 24.3949 4.81445 21.3405C5.62 18.2489 6.98231 15.5012 8.90138 13.0975C10.8204 10.6938 13.0757 8.75557 15.6671 7.28281C18.2584 5.81005 21.0852 4.8461 24.1473 4.39098C27.2094 3.93586 30.3049 4.11593 33.4337 4.93118C36.4136 5.70762 39.0924 6.95255 41.4701 8.66596C43.8479 10.3794 45.7978 12.399 47.3199 14.7248C48.8419 17.0506 49.8669 19.6048 50.3948 22.3876C50.9228 25.1703 50.8131 27.9957 50.0657 30.8639C48.9496 35.1474 46.7894 38.0949 43.5851 39.7063C40.3809 41.3177 36.9163 41.6381 33.1915 40.6676L29.0569 39.5903C28.7217 39.5029 28.4646 39.5354 28.2857 39.6877C28.1068 39.8399 27.9882 40.0278 27.93 40.2513C27.8135 40.6983 27.9255 41.4136 28.2658 42.3973C28.6062 43.381 28.6356 44.4129 28.3542 45.4931C27.8689 47.3555 26.9976 48.6003 25.7404 49.2273C24.4831 49.8544 23.0164 49.9495 21.3402 49.5128ZM14.2892 26.1959C15.2576 26.4482 16.141 26.3403 16.9392 25.872C17.7374 25.4038 18.2627 24.6855 18.515 23.717C18.7674 22.7485 18.6594 21.8652 18.1912 21.067C17.723 20.2688 17.0046 19.7435 16.0362 19.4912C15.0677 19.2388 14.1844 19.3468 13.3862 19.815C12.5879 20.2832 12.0627 21.0016 11.8103 21.97C11.558 22.9385 11.6659 23.8218 12.1342 24.62C12.6024 25.4182 13.3207 25.9435 14.2892 26.1959ZM23.3232 19.0032C24.2917 19.2556 25.175 19.1476 25.9732 18.6794C26.7714 18.2112 27.2967 17.4928 27.5491 16.5244C27.8014 15.5559 27.6934 14.6726 27.2252 13.8744C26.757 13.0761 26.0386 12.5509 25.0702 12.2985C24.1017 12.0462 23.2184 12.1541 22.4202 12.6224C21.622 13.0906 21.0967 13.8089 20.8443 14.7774C20.592 15.7458 20.6999 16.6292 21.1682 17.4274C21.6364 18.2256 22.3547 18.7509 23.3232 19.0032ZM34.4977 21.9149C35.4662 22.1672 36.3495 22.0593 37.1477 21.591C37.946 21.1228 38.4712 20.4045 38.7236 19.436C38.9759 18.4675 38.868 17.5842 38.3997 16.786C37.9315 15.9878 37.2132 15.4625 36.2447 15.2102C35.2762 14.9578 34.3929 15.0658 33.5947 15.534C32.7965 16.0022 32.2712 16.7206 32.0189 17.689C31.7665 18.6575 31.8745 19.5408 32.3427 20.339C32.8109 21.1372 33.5293 21.6625 34.4977 21.9149ZM38.8731 32.6015C39.8416 32.8538 40.7249 32.7459 41.5231 32.2776C42.3214 31.8094 42.8466 31.0911 43.099 30.1226C43.3513 29.1541 43.2434 28.2708 42.7751 27.4726C42.3069 26.6744 41.5886 26.1491 40.6201 25.8967C39.6517 25.6444 38.7683 25.7523 37.9701 26.2206C37.1719 26.6888 36.6466 27.4072 36.3943 28.3756C36.1419 29.3441 36.2499 30.2274 36.7181 31.0256C37.1863 31.8238 37.9047 32.3491 38.8731 32.6015ZM22.5049 45.043C22.8401 45.1303 23.1344 45.1076 23.3878 44.9747C23.6412 44.8419 23.8067 44.6264 23.8844 44.3285C24.0203 43.807 23.901 43.1196 23.5267 42.2663C23.1524 41.413 23.1496 40.2786 23.5184 38.8632C23.9261 37.2987 24.7913 36.1916 26.1141 35.5419C27.437 34.8921 28.8806 34.7711 30.445 35.1787L34.3561 36.1978C36.8145 36.8383 39.1059 36.6697 41.2302 35.6918C43.3546 34.7138 44.8098 32.7163 45.5959 29.6992C46.7703 25.1922 46.0254 20.9905 43.3612 17.0943C40.697 13.198 36.9996 10.6336 32.2691 9.40099C27.2033 8.08105 22.4312 8.68727 17.9527 11.2197C13.4743 13.752 10.5848 17.5139 9.28425 22.5051C7.99343 27.4592 8.63565 32.1313 11.2109 36.5215C13.7862 40.9117 17.5508 43.7522 22.5049 45.043Z" fill="white"/>
</g>
</g>
</g>
</g>
</svg>
