<svg width="417" height="595" viewBox="0 0 417 595" fill="none" xmlns="http://www.w3.org/2000/svg">
<g filter="url(#filter0_d_3615_63596)">
<g clip-path="url(#clip0_3615_63596)">
<rect x="33" y="19" width="360" height="540" rx="32" fill="#36AFAB"/>
<path d="M310.696 530.062C306.987 527.744 303.277 525.425 299.567 523.1C296.677 521.284 293.82 519.421 290.889 517.68C290.32 517.34 289.487 517.442 288.783 517.34C283.016 528.077 277.194 538.637 270.093 548.421C269.842 548.768 269.341 548.931 268.773 549.298C268.333 548.21 267.798 547.374 267.662 546.47C267.27 543.818 266.85 541.152 266.789 538.487C266.66 532.816 266.735 527.139 266.762 521.468C266.769 519.89 266.715 518.34 267.29 516.749C267.723 515.559 267.378 514.083 267.378 512.54C266.674 512.411 265.984 512.173 265.3 512.173C257.935 512.146 250.569 512.152 243.197 512.166C242.601 512.166 242.006 512.248 241.22 512.309C241.112 512.968 240.943 513.546 240.943 514.117C240.923 524.969 240.814 535.828 240.997 546.674C241.051 550.039 241.823 553.412 242.777 556.696C243.048 557.614 243.028 558.62 243.143 559.586C243.63 559.837 244.118 560.096 244.605 560.347C246.805 560.347 249.005 560.293 251.199 560.361C252.275 560.395 253.338 560.653 254.414 560.796C255.132 560.891 255.849 561.061 256.567 561.055C260.717 560.987 264.67 562.245 268.718 562.843C272.401 563.387 276.07 564.08 279.726 564.808C281.851 565.229 283.997 565.671 286.021 566.406C287.213 566.841 288.35 567.025 289.569 566.997C289.711 566.936 289.846 566.875 289.982 566.8C290.422 565.27 290.713 563.672 291.329 562.217C292.385 559.735 293.603 557.315 294.842 554.915C297.008 550.712 299.906 547.075 303.399 543.906C303.886 543.206 304.353 542.499 304.854 541.819C307.508 538.256 309.64 534.428 310.676 530.056L310.696 530.062Z" fill="#358A87"/>
<path d="M26.9498 436.765C27.3834 436.943 27.9729 437.005 28.2304 437.328C29.4433 438.859 30.5613 440.459 31.6454 441.942C32.2281 441.942 32.6821 442.086 32.9464 441.921C39.79 437.603 47.4873 434.863 54.3173 430.133C54.026 429.309 53.8498 428.458 53.45 427.73C51.7696 424.716 50.2451 421.578 48.2326 418.805C46.5522 416.491 45.1022 414.054 43.8487 411.548C41.3213 406.522 38.2112 401.751 36.5172 395.984C37.3507 395.867 38.0553 395.592 38.6719 395.73C39.7358 395.956 40.786 396.341 41.7617 396.821C45.3936 398.613 49.1609 400.213 52.5556 402.396C54.9204 403.92 57.3732 405.286 59.7312 406.811C62.7058 408.74 65.6668 410.703 68.655 412.619C68.9328 412.797 69.3529 412.749 69.9559 412.845C74.5906 405.801 78.2766 398.174 82.5793 390.745C81.9762 390.038 81.6103 389.351 81.0412 389.001C75.546 385.562 70.0779 382.067 64.4878 378.799C59.0943 375.648 53.721 372.366 47.7922 370.354C43.7809 368.995 39.6477 367.917 35.3247 367.89C33.7662 367.883 32.2146 367.45 30.6629 367.21C30.629 367.45 30.6019 367.684 30.5884 367.924C30.5884 373.156 30.5884 378.387 30.5884 383.619C30.5884 384.367 30.7646 385.212 30.48 385.836C29.6262 387.759 29.9311 389.75 29.8905 391.713C29.843 393.951 29.8769 396.196 29.8498 398.441C29.843 399.313 30.0192 400.288 29.6872 401.023C28.9757 402.595 29.2129 404.195 29.1316 405.794C29.0909 406.666 29.3145 407.648 28.9893 408.383C28.2914 409.948 28.4472 411.541 28.3862 413.141C28.3659 413.765 28.5218 414.473 28.2778 414.987C27.3902 416.896 27.7019 418.894 27.668 420.864C27.6206 423.851 27.6138 426.844 27.6477 429.831C27.6612 430.977 27.5189 432.055 26.9023 433.037C26.9159 434.273 26.9362 435.515 26.9498 436.751L26.9498 436.765Z" fill="#358A87"/>
<path d="M73.9985 441.258C73.6635 445.097 73.2348 448.643 73.0807 452.196C72.9266 455.79 73.0405 459.391 73.0405 462.992C73.0405 464.092 73.0405 465.199 73.0405 466.538C74.1659 466.647 75.0904 466.818 76.0149 466.818C85.1389 466.838 94.2696 466.92 103.394 466.77C105.979 466.729 108.277 467.795 110.963 467.692C110.722 469.455 109.657 470.186 108.753 470.897C104.727 474.033 100.52 476.889 96.0515 479.335C92.5614 481.248 89.0377 483.107 85.5542 485.033C83.6517 486.086 81.8028 487.22 79.9673 488.299C80.9453 491.183 89.1114 505.722 92.5011 510.635C93.9079 510.314 95.2879 509.856 96.5942 508.892C97.7531 508.038 99.1666 507.533 100.466 506.87C103.608 505.285 106.589 503.426 109.563 501.534C112.732 499.518 116.055 497.762 119.25 495.781C123.604 493.089 127.805 490.103 131.067 486.106C134.062 482.43 137.096 478.706 138.804 474.136C140.392 469.886 140.901 465.568 139.468 461.167C138.081 456.911 135.984 453.016 132.742 449.983C130.19 447.591 127.349 445.576 123.973 444.291C121.601 443.389 119.264 442.446 116.805 441.866C115.057 441.456 113.281 440.854 111.526 440.875C108.358 440.909 105.289 440.089 102.168 440.048C94.1356 439.952 86.1035 440.035 78.0782 440C76.5843 440 75.1708 440.055 73.9985 441.251L73.9985 441.258Z" fill="#358A87"/>
<path d="M210.837 493.872C202.492 495.376 194.425 497.448 186.351 499.52C186.053 499.596 185.85 500.04 185.498 500.437C187.239 504.69 187.726 509.34 189.542 513.675C190.89 516.889 191.323 520.513 192.082 523.967C192.786 527.181 193.335 530.435 194.059 533.649C194.364 535.01 194.371 536.309 194.059 537.855C192.373 537.404 191.181 536.419 189.975 535.427C187.53 533.403 185.051 531.413 182.606 529.389C182.037 528.917 181.4 528.446 181.034 527.83C179.294 524.917 176.625 522.866 174.383 520.424C172.392 518.25 170.089 516.39 168.49 513.826C167.515 512.253 166.33 512.185 165.138 513.388C159.665 518.913 154.233 524.479 148.787 530.032C148.712 530.107 148.706 530.258 148.651 530.394C148.983 531.721 149.715 532.808 150.697 533.793C157.49 540.617 164.216 547.524 171.064 554.301C175.386 558.574 180.621 561.501 186.128 563.949C187.015 564.346 187.977 564.571 188.858 564.982C191.777 566.342 194.974 566.404 198.062 566.972C198.733 567.095 199.492 566.787 200.203 566.643C201.977 566.281 203.745 565.857 205.527 565.522C207.166 565.214 208.398 564.154 209.55 563.115C211.65 561.214 213.594 559.128 215.565 557.084C215.978 556.653 216.276 556.092 216.56 555.552C218.376 552.058 219.818 548.488 220.292 544.467C220.516 542.532 220.814 540.597 220.922 538.634C221.085 535.516 220.462 532.528 219.71 529.547C219.622 529.191 219.446 528.829 219.459 528.48C219.601 525.239 218.633 522.161 217.908 519.084C216.174 511.713 214.163 504.41 212.009 497.148C211.731 496.211 211.358 495.308 210.857 493.893L210.837 493.872Z" fill="#358A87"/>
<path d="M90.496 369.766C92.5466 378.084 94.3875 385.916 96.4315 393.694C97.4263 397.473 98.7055 401.185 100.039 404.855C100.912 407.26 101.927 409.591 103.254 411.846C105.602 415.817 108.58 419.159 111.686 422.481C113.412 424.333 115.416 425.666 117.663 426.67C119.781 427.614 121.994 428.249 124.356 428.222C126.914 428.188 129.439 428.249 131.97 427.504C135.909 426.349 139.442 424.62 142.379 421.668C144.978 419.05 147.557 416.446 149.37 413.159C150.318 411.443 151.171 409.721 151.902 407.882C153.898 402.866 155.333 397.685 157.045 392.587C158.609 387.932 159.617 383.176 160.856 378.46C161.566 375.747 162.155 373.006 162.757 370.272C162.832 369.93 162.697 369.541 162.649 369.069C158.656 367.743 154.697 366.219 150.622 365.133C146.548 364.046 142.643 362.248 138.284 361.743C137.601 363.404 136.877 364.805 136.958 366.459C136.972 366.705 136.972 366.971 136.89 367.197C134.278 374.065 133.472 381.447 131.063 388.377C130.021 391.384 128.958 394.384 127.848 397.364C127.699 397.76 127.205 398.02 126.982 398.239C125.919 398.259 125.838 397.487 125.601 396.995C122.955 391.589 120.979 385.998 119.835 380.018C119.226 376.813 118.36 373.601 117.554 370.409C117.047 368.4 116.35 366.445 116.228 364.326C116.153 363.062 115.064 362.454 113.805 362.795C109.372 364.019 104.946 365.269 100.519 366.513C98.0761 367.203 95.6261 367.866 93.1964 368.605C92.2895 368.885 91.4367 369.35 90.4824 369.76L90.496 369.766Z" fill="#358A87"/>
<path d="M201.283 207.456C199.233 199.139 197.392 191.306 195.348 183.529C194.353 179.749 193.074 176.038 191.741 172.368C190.867 169.962 189.852 167.632 188.526 165.376C186.177 161.405 183.199 158.063 180.093 154.742C178.367 152.89 176.364 151.557 174.117 150.552C171.998 149.609 169.785 148.974 167.423 149.001C164.865 149.035 162.341 148.973 159.809 149.718C155.87 150.873 152.337 152.603 149.4 155.555C146.801 158.173 144.223 160.777 142.409 164.064C141.461 165.78 140.609 167.502 139.878 169.34C137.881 174.357 136.446 179.537 134.734 184.636C133.171 189.29 132.162 194.047 130.924 198.763C130.213 201.476 129.624 204.217 129.022 206.95C128.947 207.292 129.083 207.682 129.13 208.153C133.123 209.479 137.082 211.003 141.157 212.09C145.231 213.177 149.136 214.974 153.495 215.48C154.178 213.819 154.903 212.418 154.821 210.764C154.808 210.518 154.808 210.252 154.889 210.026C157.501 203.157 158.307 195.776 160.716 188.846C161.758 185.839 162.821 182.838 163.931 179.859C164.08 179.462 164.574 179.202 164.797 178.984C165.86 178.963 165.941 179.736 166.178 180.228C168.824 185.634 170.8 191.224 171.944 197.205C172.553 200.41 173.42 203.622 174.225 206.814C174.733 208.823 175.43 210.778 175.552 212.896C175.626 214.161 176.716 214.769 177.974 214.427C182.407 213.204 186.834 211.953 191.26 210.709C193.703 210.019 196.153 209.356 198.583 208.618C199.49 208.338 200.343 207.873 201.297 207.463L201.283 207.456Z" fill="#358A87"/>
<path d="M215.626 467.839C216.427 465.533 217.154 463.585 217.774 461.602C218.763 458.436 219.584 455.208 220.654 452.069C221.085 450.816 221.099 449.701 220.924 448.53C212.47 446.872 201.357 443.588 194.841 440.828C194.464 439.74 195.023 439.203 195.932 438.859C198.866 437.73 201.734 436.305 204.756 435.534C209.064 434.426 213.466 433.69 217.74 432.402C218.413 432.203 219.167 432.285 220.096 432.216C220.177 431.542 220.419 430.916 220.284 430.385C218.83 424.672 217.323 418.979 215.774 413.06C214.926 413.06 214.092 412.908 213.331 413.087C209.468 414.003 205.591 414.904 201.788 415.978C196.699 417.41 191.456 418.525 186.697 421.058C182.234 423.44 178.371 426.606 175.005 430.399C174.298 431.198 173.821 432.272 173.45 433.304C172.872 434.915 172.407 436.588 172.05 438.26C171.902 438.942 172.118 439.72 172.225 440.442C172.32 441.048 172.596 441.626 172.643 442.232C173.087 447.519 175.847 451.456 179.676 454.691C182.786 457.314 186.414 458.89 190.224 460.288C193.051 461.32 195.837 462.49 198.745 463.33C203.369 464.672 207.953 466.152 212.719 466.923C213.533 467.054 214.307 467.419 215.62 467.846L215.626 467.839Z" fill="#358A87"/>
<path d="M152.986 110.292C152.343 107.937 151.842 105.919 151.232 103.934C150.258 100.762 149.111 97.635 148.219 94.4407C147.867 93.1637 147.247 92.2362 146.442 91.3698C138.53 94.7799 127.507 98.3526 120.572 99.7584C119.646 99.0743 119.803 98.3156 120.358 97.5181C122.141 94.928 123.701 92.1318 125.759 89.7876C128.686 86.4384 131.901 83.3426 134.699 79.8648C135.141 79.3197 135.81 78.9617 136.537 78.3799C136.223 77.7778 136.069 77.1241 135.658 76.7629C131.229 72.8716 126.768 69.0278 122.144 65.0194C121.445 65.4988 120.671 65.8457 120.144 66.4232C117.475 69.3623 114.786 72.2976 112.256 75.333C108.868 79.3904 105.172 83.2741 102.679 88.0536C100.344 92.5408 98.9462 97.3367 98.3138 102.368C98.1821 103.426 98.3949 104.582 98.6731 105.643C99.1061 107.299 99.6684 108.941 100.32 110.523C100.583 111.169 101.2 111.689 101.697 112.224C102.118 112.67 102.672 112.991 103.053 113.464C106.408 117.574 110.91 119.262 115.898 119.767C119.946 120.172 123.83 119.422 127.762 118.421C130.678 117.675 133.638 117.065 136.511 116.115C141.085 114.608 145.703 113.238 150.069 111.18C150.815 110.828 151.66 110.691 152.984 110.301L152.986 110.292Z" fill="#358A87"/>
<path d="M27.4371 525.935C30.3515 530.862 33.0981 535.5 35.8513 540.137C35.8983 540.22 36.0595 540.234 36.4624 540.406C38.1815 539.435 40.0752 538.366 41.9622 537.285C44.6013 535.775 47.3008 534.37 49.8593 532.729C53.0289 530.696 56.3059 528.746 59.1196 526.258C62.4168 523.343 65.0223 519.746 66.4728 515.398C68.071 510.595 67.0033 506.246 64.0486 502.477C60.053 497.377 54.6808 494.862 48.3013 494.586C47.4687 494.552 46.636 494.359 45.81 494.2C45.4541 494.138 45.1183 493.897 44.7759 493.897C38.1949 493.876 31.6207 493.849 25.0398 493.897C23.7706 493.904 23.1864 494.648 23.1797 496.171C23.1528 500.795 23.1931 505.419 23.2267 510.05C23.2267 510.271 23.4013 510.491 23.6027 510.974C24.1735 511.022 24.8652 511.118 25.5636 511.125C28.243 511.146 30.9223 511.125 33.6017 511.132C38.2957 511.146 43.0097 510.843 47.7843 512.297C47.4217 512.745 47.0993 513.248 46.6763 513.647C44.6214 515.57 42.4725 517.355 39.9677 518.671C36.2005 520.656 32.4736 522.723 28.7466 524.784C28.337 525.011 28.0214 525.418 27.4371 525.941L27.4371 525.935Z" fill="#358A87"/>
<path d="M52.5228 329.641C48.9037 325.754 47.2447 321.167 44.5822 316.882C43.9066 316.957 42.9767 316.799 42.3412 317.17C39.846 318.623 37.4377 320.241 34.9023 321.852C36.8022 326.611 39.5249 330.813 42.1004 335.119C44.0136 338.321 46.743 340.44 49.8871 342.085C53.1315 343.785 56.8041 343.031 59.5335 340.522C62.1759 338.095 63.4536 335.201 64.1427 331.602C65.2331 325.898 64.3433 320.221 64.8183 314.64C63.9152 313.707 63.0322 313.097 61.8749 313.09C59.3462 313.076 56.8108 313.09 54.1216 313.09C53.165 318.589 54.8307 324.149 52.5161 329.655L52.5228 329.641Z" fill="#358A87"/>
<path d="M350.306 547.097C352.663 542.337 356.368 539.164 359.435 535.158C359.126 534.553 358.944 533.627 358.373 533.164C356.132 531.343 353.767 529.663 351.363 527.86C347.584 531.32 344.615 535.352 341.497 539.283C339.179 542.205 338.162 545.507 337.734 549.03C337.29 552.666 339.294 555.835 342.606 557.501C345.81 559.115 348.969 559.287 352.579 558.659C358.301 557.663 363.297 554.824 368.685 553.295C369.238 552.121 369.497 551.079 369.094 549.994C368.213 547.624 367.304 545.257 366.354 542.742C360.872 543.79 356.259 547.314 350.291 547.095L350.306 547.097Z" fill="#358A87"/>
<path d="M128.642 578.394C128.379 578.164 128.115 577.744 127.838 577.737C124.647 577.683 121.362 577.189 118.294 577.805C114.373 578.591 110.5 578.184 106.614 578.408C104.282 578.543 102.024 577.961 99.7397 577.771C97.4213 577.575 95.1772 577.263 92.9467 576.633C92.4465 575.942 92.4533 575.394 93.1968 574.784C96.7048 571.926 100.558 569.59 104.444 567.321C110.44 563.826 116.523 560.467 122.572 557.053C122.89 556.877 123.242 556.742 123.532 556.525C124.255 555.983 124.451 555.035 123.945 554.229C120.97 549.482 117.983 544.747 114.995 540.013C113.765 538.063 112.508 536.126 111.149 533.999C110.304 534.202 109.432 534.236 108.736 534.615C105.208 536.539 101.72 538.544 98.2257 540.521C91.9801 544.063 85.8901 547.815 80.0298 552.008C76.711 554.385 73.7573 557.047 70.8914 559.884C67.6131 563.128 65.5042 567.097 64.0443 571.411C62.76 575.191 62.9155 579.153 63.1858 583.047C63.3481 585.35 64.4971 587.483 65.7408 589.454C66.5181 590.687 67.532 591.763 68.3634 592.962C68.6946 593.436 68.8095 594.059 69.019 594.615L71.2023 594.662C74.7576 593.497 78.2859 592.237 81.8751 591.188C86.0455 589.962 90.2633 588.905 94.4608 587.795C98.5433 586.718 102.646 585.742 106.708 584.584C110.656 583.46 114.536 582.078 118.49 580.954C121.849 579.999 125.263 579.234 128.649 578.387L128.642 578.394Z" fill="#358A87"/>
<path d="M114 43.9377C117.71 46.2563 121.419 48.5749 125.129 50.9004C128.02 52.7159 130.876 54.5789 133.808 56.3196C134.376 56.6596 135.209 56.5576 135.913 56.6596C141.681 45.9231 147.502 35.3635 154.604 25.5789C154.854 25.2322 155.355 25.069 155.924 24.7018C156.364 25.7897 156.899 26.6261 157.034 27.5304C157.427 30.1822 157.846 32.8476 157.907 35.5131C158.036 41.1839 157.961 46.8615 157.934 52.5323C157.927 54.1098 157.982 55.6601 157.406 57.2511C156.973 58.4411 157.318 59.9166 157.318 61.4601C158.022 61.5893 158.713 61.8272 159.396 61.8272C166.762 61.8544 174.127 61.8476 181.499 61.834C182.095 61.834 182.691 61.7524 183.476 61.6913C183.584 61.0317 183.753 60.4537 183.753 59.8826C183.774 49.0305 183.882 38.1717 183.699 27.3264C183.645 23.9607 182.873 20.5881 181.919 17.3039C181.648 16.386 181.668 15.3796 181.553 14.4141C181.066 14.1625 180.578 13.9041 180.091 13.6526C177.891 13.6526 175.691 13.707 173.497 13.639C172.421 13.605 171.358 13.3466 170.282 13.2038C169.564 13.1086 168.847 12.9386 168.129 12.9454C163.979 13.0134 160.026 11.7555 155.978 11.1571C152.295 10.6132 148.626 9.91962 144.971 9.19207C142.845 8.7705 140.699 8.32853 138.675 7.59418C137.483 7.15901 136.346 6.97542 135.128 7.00262C134.985 7.06381 134.85 7.12501 134.715 7.1998C134.275 8.7297 133.984 10.3276 133.368 11.7827C132.311 14.2645 131.093 16.6852 129.854 19.0854C127.688 23.2875 124.79 26.9252 121.297 30.0938C120.81 30.7942 120.343 31.5013 119.842 32.1813C117.188 35.7442 115.056 39.5724 114.02 43.9445L114 43.9377Z" fill="#358A87"/>
<path d="M398.19 149.897C397.756 149.719 397.167 149.657 396.909 149.334C395.696 147.803 394.578 146.203 393.494 144.72C392.912 144.72 392.458 144.576 392.193 144.741C385.35 149.06 377.652 151.799 370.822 156.529C371.114 157.353 371.29 158.204 371.69 158.932C373.37 161.946 374.895 165.084 376.907 167.857C378.587 170.171 380.037 172.608 381.291 175.114C383.818 180.14 386.928 184.911 388.622 190.678C387.789 190.795 387.084 191.07 386.468 190.933C385.404 190.706 384.354 190.321 383.378 189.841C379.746 188.049 375.979 186.449 372.584 184.266C370.219 182.742 367.766 181.376 365.408 179.852C362.434 177.922 359.473 175.959 356.485 174.043C356.207 173.865 355.787 173.913 355.184 173.817C350.549 180.861 346.863 188.488 342.56 195.917C343.163 196.624 343.529 197.311 344.098 197.661C349.594 201.1 355.062 204.595 360.652 207.863C366.045 211.014 371.419 214.296 377.347 216.308C381.359 217.667 385.492 218.745 389.815 218.772C391.373 218.779 392.925 219.212 394.477 219.452C394.511 219.212 394.538 218.978 394.551 218.738C394.551 213.506 394.551 208.275 394.551 203.043C394.551 202.295 394.375 201.451 394.66 200.826C395.513 198.903 395.209 196.912 395.249 194.949C395.297 192.711 395.263 190.466 395.29 188.221C395.297 187.349 395.12 186.374 395.452 185.639C396.164 184.067 395.927 182.467 396.008 180.868C396.049 179.996 395.825 179.014 396.15 178.279C396.848 176.714 396.692 175.121 396.753 173.521C396.774 172.897 396.618 172.19 396.862 171.675C397.749 169.766 397.438 167.768 397.472 165.798C397.519 162.811 397.526 159.818 397.492 156.831C397.478 155.685 397.621 154.607 398.237 153.625C398.224 152.389 398.203 151.147 398.19 149.911L398.19 149.897Z" fill="#358A87"/>
<path d="M351.142 145.405C351.477 141.565 351.906 138.019 352.06 134.466C352.214 130.872 352.1 127.271 352.1 123.67C352.1 122.57 352.1 121.464 352.1 120.124C350.975 120.015 350.05 119.844 349.126 119.844C340.002 119.824 330.871 119.742 321.747 119.892C319.161 119.933 316.863 118.867 314.177 118.97C314.418 117.207 315.483 116.476 316.388 115.765C320.414 112.629 324.621 109.773 329.089 107.327C332.579 105.414 336.103 103.556 339.586 101.629C341.489 100.577 343.338 99.4423 345.173 98.3628C344.195 95.4795 336.029 80.9399 332.64 76.0273C331.233 76.3485 329.853 76.8062 328.546 77.7696C327.388 78.6237 325.974 79.1293 324.674 79.7921C321.533 81.3772 318.552 83.2356 315.577 85.1282C312.409 87.1438 309.086 88.8998 305.89 90.8812C301.536 93.5732 297.336 96.559 294.073 100.556C291.079 104.232 288.044 107.956 286.336 112.527C284.749 116.776 284.239 121.095 285.673 125.495C287.06 129.751 289.156 133.646 292.399 136.679C294.951 139.071 297.791 141.086 301.168 142.371C303.539 143.273 305.877 144.216 308.336 144.797C310.084 145.206 311.859 145.808 313.614 145.787C316.783 145.753 319.851 146.573 322.973 146.614C331.005 146.71 339.037 146.628 347.062 146.662C348.556 146.662 349.97 146.607 351.142 145.411L351.142 145.405Z" fill="#358A87"/>
<path d="M214.304 92.79C222.648 91.2856 230.715 89.2137 238.789 87.1417C239.087 87.0665 239.29 86.6221 239.643 86.2254C237.902 81.9721 237.414 77.3222 235.599 72.9868C234.251 69.7729 233.818 66.1487 233.059 62.6955C232.355 59.4816 231.806 56.2266 231.081 53.0127C230.776 51.6519 230.77 50.3527 231.081 48.8073C232.768 49.2586 233.96 50.2433 235.165 51.2348C237.611 53.2589 240.09 55.2488 242.535 57.2728C243.104 57.7447 243.74 58.2165 244.106 58.8319C245.847 61.745 248.516 63.7964 250.758 66.2376C252.749 68.4121 255.052 70.2721 256.65 72.8364C257.626 74.4092 258.811 74.4776 260.003 73.274C265.476 67.7488 270.908 62.1826 276.354 56.6301C276.428 56.5548 276.435 56.4044 276.489 56.2676C276.157 54.9411 275.426 53.8538 274.444 52.8691C267.65 46.0447 260.924 39.1381 254.076 32.3616C249.755 28.0877 244.519 25.161 239.013 22.713C238.125 22.3164 237.164 22.0907 236.283 21.6804C233.364 20.3196 230.167 20.2581 227.078 19.6905C226.408 19.5675 225.649 19.8752 224.938 20.0188C223.163 20.3812 221.395 20.8052 219.614 21.1402C217.975 21.4479 216.742 22.5078 215.591 23.5472C213.491 25.4482 211.547 27.5339 209.576 29.5785C209.163 30.0093 208.865 30.57 208.58 31.1102C206.765 34.6045 205.322 38.174 204.848 42.1948C204.625 44.13 204.327 46.0652 204.218 48.0277C204.056 51.1459 204.679 54.1341 205.431 57.1156C205.519 57.4711 205.695 57.8336 205.681 58.1823C205.539 61.4236 206.508 64.5007 207.232 67.5779C208.966 74.9494 210.978 82.2525 213.132 89.5146C213.41 90.4514 213.782 91.354 214.283 92.7695L214.304 92.79Z" fill="#358A87"/>
<path d="M334.646 216.896C332.595 208.578 330.754 200.746 328.71 192.968C327.715 189.189 326.436 185.478 325.103 181.807C324.23 179.402 323.215 177.071 321.888 174.816C319.54 170.845 316.562 167.503 313.455 164.181C311.729 162.329 309.726 160.996 307.479 159.992C305.361 159.049 303.148 158.413 300.786 158.44C298.227 158.474 295.703 158.413 293.172 159.158C289.233 160.313 285.7 162.042 282.762 164.995C280.164 167.612 277.585 170.216 275.771 173.503C274.824 175.219 273.971 176.941 273.24 178.78C271.243 183.796 269.809 188.977 268.096 194.075C266.533 198.73 265.524 203.486 264.286 208.202C263.575 210.916 262.987 213.656 262.384 216.39C262.31 216.732 262.445 217.121 262.492 217.593C266.486 218.919 270.445 220.443 274.519 221.529C278.593 222.616 282.499 224.414 286.857 224.919C287.541 223.259 288.265 221.858 288.184 220.204C288.17 219.958 288.17 219.691 288.251 219.465C290.864 212.597 291.669 205.216 294.078 198.285C295.121 195.278 296.183 192.278 297.293 189.298C297.442 188.902 297.936 188.642 298.16 188.423C299.222 188.403 299.303 189.175 299.54 189.667C302.187 195.073 304.163 200.664 305.307 206.644C305.916 209.849 306.782 213.062 307.587 216.253C308.095 218.263 308.792 220.217 308.914 222.336C308.988 223.6 310.078 224.209 311.337 223.867C315.77 222.643 320.196 221.393 324.622 220.149C327.066 219.459 329.516 218.796 331.945 218.058C332.852 217.777 333.705 217.313 334.659 216.903L334.646 216.896Z" fill="#358A87"/>
<path d="M83.2833 259.456C81.2326 251.139 79.3918 243.306 77.3478 235.529C76.3529 231.749 75.0738 228.038 73.7405 224.368C72.8674 221.962 71.8522 219.632 70.5257 217.376C68.1772 213.405 65.1994 210.063 62.0929 206.742C60.367 204.89 58.3637 203.557 56.1168 202.552C53.9984 201.609 51.7853 200.974 49.4232 201.001C46.865 201.035 44.3405 200.973 41.8093 201.718C37.8703 202.873 34.3375 204.603 31.4002 207.555C28.8013 210.173 26.2227 212.777 24.4089 216.064C23.4614 217.78 22.6086 219.502 21.8776 221.34C19.8811 226.357 18.4463 231.537 16.734 236.636C15.1706 241.29 14.1622 246.047 12.9236 250.763C12.213 253.476 11.6242 256.217 11.0219 258.95C10.9474 259.292 11.0828 259.682 11.1301 260.153C15.1232 261.479 19.0825 263.003 23.1568 264.09C27.2311 265.177 31.1362 266.974 35.4948 267.48C36.1784 265.819 36.9025 264.418 36.8213 262.764C36.8078 262.518 36.8078 262.252 36.889 262.026C39.5014 255.157 40.3068 247.776 42.7162 240.846C43.7585 237.839 44.821 234.838 45.931 231.859C46.0799 231.462 46.5739 231.202 46.7973 230.984C47.8598 230.963 47.9411 231.736 48.1779 232.228C50.8242 237.634 52.8004 243.224 53.9442 249.205C54.5533 252.41 55.4197 255.622 56.225 258.814C56.7326 260.823 57.4297 262.778 57.5516 264.896C57.626 266.161 58.7156 266.769 59.9745 266.427C64.4075 265.204 68.8337 263.953 73.26 262.709C75.7032 262.019 78.1532 261.356 80.5829 260.618C81.4898 260.338 82.3426 259.873 83.2969 259.463L83.2833 259.456Z" fill="#358A87"/>
<path d="M209.514 118.823C208.713 121.129 207.986 123.077 207.367 125.06C206.378 128.226 205.556 131.455 204.486 134.593C204.055 135.846 204.042 136.961 204.217 138.132C212.671 139.791 223.784 143.074 230.299 145.834C230.676 146.922 230.118 147.459 229.209 147.803C226.274 148.932 223.407 150.357 220.385 151.128C216.077 152.236 211.675 152.973 207.401 154.26C206.728 154.459 205.974 154.377 205.045 154.446C204.964 155.12 204.722 155.747 204.856 156.277C206.31 161.99 207.818 167.683 209.366 173.603C210.214 173.603 211.049 173.754 211.809 173.575C215.673 172.659 219.55 171.758 223.353 170.684C228.442 169.252 233.685 168.137 238.444 165.604C242.906 163.222 246.77 160.056 250.135 156.263C250.842 155.464 251.32 154.391 251.69 153.358C252.269 151.747 252.734 150.075 253.09 148.402C253.238 147.72 253.023 146.943 252.915 146.22C252.821 145.614 252.545 145.036 252.498 144.43C252.054 139.144 249.294 135.206 245.464 131.971C242.354 129.348 238.726 127.772 234.917 126.375C232.09 125.342 229.303 124.172 226.395 123.332C221.771 121.99 217.187 120.51 212.422 119.739C211.608 119.608 210.833 119.243 209.521 118.816L209.514 118.823Z" fill="#358A87"/>
<path d="M397.703 60.7275C394.789 55.8003 392.043 51.1624 389.289 46.5246C389.242 46.4419 389.081 46.4281 388.678 46.2559C386.959 47.2275 385.065 48.2957 383.178 49.3776C380.539 50.8868 377.84 52.2926 375.281 53.9327C372.112 55.9656 368.835 57.9159 366.021 60.4036C362.724 63.3186 360.118 66.9159 358.668 71.2643C357.07 76.0675 358.137 80.4159 361.092 84.1854C365.088 89.2849 370.46 91.8002 376.839 92.0759C377.672 92.1103 378.505 92.3033 379.331 92.4618C379.687 92.5238 380.022 92.765 380.365 92.765C386.946 92.7857 393.52 92.8132 400.101 92.765C401.37 92.7581 401.954 92.0139 401.961 90.4909C401.988 85.8668 401.948 81.2428 401.914 76.6119C401.914 76.3914 401.739 76.1708 401.538 75.6885C400.967 75.6402 400.275 75.5437 399.577 75.5368C396.898 75.5162 394.218 75.5368 391.539 75.53C386.845 75.5162 382.131 75.8194 377.356 74.3653C377.719 73.9174 378.041 73.4143 378.464 73.0146C380.519 71.092 382.668 69.3071 385.173 67.9909C388.94 66.0062 392.667 63.9388 396.394 61.8784C396.804 61.6509 397.119 61.2444 397.703 60.7206L397.703 60.7275Z" fill="#358A87"/>
<path d="M372.617 257.021C376.236 260.909 377.895 265.495 380.557 269.78C381.233 269.705 382.163 269.863 382.798 269.493C385.294 268.039 387.702 266.421 390.237 264.81C388.337 260.051 385.615 255.849 383.039 251.543C381.126 248.341 378.397 246.222 375.253 244.577C372.008 242.877 368.336 243.631 365.606 246.14C362.964 248.567 361.686 251.461 360.997 255.06C359.907 260.765 360.796 266.441 360.321 272.022C361.224 272.955 362.107 273.565 363.265 273.572C365.793 273.586 368.329 273.572 371.018 273.572C371.975 268.073 370.309 262.513 372.624 257.007L372.617 257.021Z" fill="#358A87"/>
<path d="M74.8345 39.5656C72.4773 44.3252 68.773 47.4985 65.7057 51.5038C66.0151 52.1092 66.1963 53.0347 66.7673 53.4983C69.009 55.3187 71.3739 56.9995 73.7773 58.8016C77.5567 55.3424 80.5258 51.3099 83.6431 47.3786C85.962 44.4571 86.979 41.1551 87.4068 37.6323C87.8505 33.9962 85.8468 30.8273 82.5346 29.1612C79.3302 27.5474 76.172 27.3749 72.5613 28.0027C66.8397 28.9991 61.8438 31.8382 56.4552 33.3667C55.9022 34.5411 55.6436 35.5828 56.0462 36.6678C56.9273 39.0381 57.8363 41.4049 58.7869 43.9205C64.2688 42.8716 68.8814 39.3479 74.8497 39.567L74.8345 39.5656Z" fill="#358A87"/>
<path d="M296.498 8.26798C296.762 8.49825 297.026 8.91816 297.303 8.92493C300.493 8.97912 303.778 9.47352 306.847 8.85721C310.767 8.07157 314.64 8.47794 318.527 8.25444C320.859 8.11898 323.116 8.70144 325.401 8.89107C327.719 9.08748 329.963 9.39902 332.194 10.0289C332.694 10.7197 332.687 11.2683 331.944 11.8778C328.436 14.7359 324.583 17.0725 320.696 19.3413C314.701 22.836 308.618 26.1953 302.568 29.6087C302.251 29.7848 301.899 29.9203 301.608 30.137C300.885 30.6788 300.689 31.627 301.196 32.4329C304.17 37.1806 307.158 41.9147 310.145 46.6488C311.375 48.5993 312.633 50.5363 313.991 52.6629C314.836 52.4598 315.708 52.4259 316.404 52.0466C319.933 50.1232 323.42 48.1185 326.915 46.1408C333.16 42.5987 339.251 38.8467 345.111 34.6544C348.43 32.2772 351.383 29.6155 354.249 26.7777C357.527 23.5336 359.636 19.5648 361.096 15.2506C362.381 11.4715 362.225 7.50945 361.955 3.61515C361.793 1.31244 360.644 -0.820954 359.4 -2.7918C358.622 -4.02443 357.609 -5.10129 356.777 -6.30006C356.446 -6.77414 356.331 -7.39723 356.122 -7.95259L353.938 -8C350.383 -6.8351 346.855 -5.57538 343.266 -4.52561C339.095 -3.29976 334.877 -2.24322 330.68 -1.1325C326.597 -0.0556429 322.494 0.919625 318.432 2.07775C314.485 3.20202 310.605 4.58365 306.651 5.70791C303.291 6.66286 299.878 7.42817 296.492 8.27475L296.498 8.26798Z" fill="#358A87"/>
<path d="M29.9615 105.166C30.4193 105.064 31.0107 105.104 31.3196 104.83C32.7768 103.53 34.1523 102.145 35.4745 100.87C36.0486 100.97 36.5206 100.906 36.7527 101.113C42.7553 106.54 49.8696 110.558 55.7884 116.388C55.3602 117.15 55.0408 117.958 54.5222 118.607C52.3504 121.288 50.3109 124.118 47.853 126.506C45.8011 128.498 43.955 130.651 42.2907 132.905C38.9398 137.423 35.0583 141.592 32.4014 146.983C33.2026 147.241 33.8498 147.632 34.4808 147.603C35.5677 147.562 36.6683 147.363 37.7119 147.056C41.597 145.913 45.5827 144.983 49.3012 143.413C51.8921 142.317 54.5428 141.391 57.127 140.293C60.3881 138.902 63.6417 137.475 66.9138 136.099C67.2181 135.971 67.6238 136.09 68.2344 136.099C71.5938 143.833 73.9187 151.979 76.8852 160.035C76.17 160.628 75.6919 161.242 75.0711 161.489C69.0679 163.937 63.082 166.443 57.0148 168.705C51.1611 170.886 45.3052 173.199 39.1193 174.165C34.9345 174.817 30.6777 175.171 26.4139 174.458C24.8773 174.197 23.2745 174.358 21.7046 174.329C21.7124 174.086 21.7257 173.851 21.7535 173.612C22.6497 168.458 23.5459 163.304 24.4421 158.15C24.5703 157.412 24.8885 156.611 24.7151 155.946C24.2033 153.906 24.8448 151.997 25.1411 150.055C25.4778 147.842 25.8957 145.636 26.2536 143.42C26.3963 142.559 26.7369 141.629 26.5356 140.848C26.104 139.178 26.6117 137.642 26.8056 136.052C26.9149 135.186 27.3034 134.257 27.1088 133.478C26.6894 131.816 27.1158 130.273 27.3297 128.687C27.4167 128.068 27.6914 127.398 27.5393 126.849C26.9917 124.816 27.6411 122.901 27.9452 120.954C28.4101 118.004 28.9162 115.054 29.4612 112.117C29.671 110.99 29.7154 109.903 29.2761 108.831C29.5012 107.615 29.7341 106.394 29.9591 105.179L29.9615 105.166Z" fill="#358A87"/>
<path d="M379.142 427.405C379.477 423.565 379.906 420.019 380.06 416.466C380.214 412.872 380.1 409.271 380.1 405.67C380.1 404.57 380.1 403.464 380.1 402.124C378.975 402.015 378.05 401.844 377.126 401.844C368.002 401.824 358.871 401.742 349.747 401.892C347.161 401.933 344.863 400.867 342.177 400.97C342.418 399.207 343.483 398.476 344.388 397.765C348.414 394.629 352.621 391.773 357.089 389.327C360.579 387.414 364.103 385.556 367.586 383.629C369.489 382.577 371.338 381.442 373.173 380.363C372.195 377.479 364.029 362.94 360.64 358.027C359.233 358.348 357.853 358.806 356.546 359.77C355.388 360.624 353.974 361.129 352.674 361.792C349.533 363.377 346.552 365.236 343.577 367.128C340.409 369.144 337.086 370.9 333.89 372.881C329.536 375.573 325.336 378.559 322.073 382.556C319.079 386.232 316.044 389.956 314.336 394.527C312.749 398.776 312.239 403.095 313.673 407.495C315.06 411.751 317.156 415.646 320.399 418.679C322.951 421.071 325.791 423.086 329.168 424.371C331.539 425.273 333.877 426.216 336.336 426.797C338.084 427.206 339.859 427.808 341.614 427.787C344.783 427.753 347.851 428.573 350.973 428.614C359.005 428.71 367.037 428.628 375.062 428.662C376.556 428.662 377.97 428.607 379.142 427.411L379.142 427.405Z" fill="#358A87"/>
<path d="M207.111 367.128C215.456 365.624 223.523 363.552 231.597 361.48C231.895 361.404 232.098 360.96 232.45 360.563C230.709 356.31 230.222 351.66 228.407 347.325C227.059 344.111 226.625 340.487 225.867 337.033C225.162 333.819 224.614 330.564 223.889 327.351C223.584 325.99 223.577 324.691 223.889 323.145C225.575 323.596 226.767 324.581 227.973 325.573C230.418 327.597 232.897 329.587 235.342 331.611C235.911 332.083 236.548 332.554 236.914 333.17C238.655 336.083 241.323 338.134 243.565 340.576C245.557 342.75 247.859 344.61 249.458 347.174C250.433 348.747 251.619 348.815 252.811 347.612C258.284 342.087 263.716 336.521 269.161 330.968C269.236 330.893 269.243 330.742 269.297 330.606C268.965 329.279 268.233 328.192 267.251 327.207C260.458 320.383 253.732 313.476 246.884 306.699C242.563 302.426 237.327 299.499 231.82 297.051C230.933 296.654 229.971 296.429 229.091 296.018C226.171 294.658 222.974 294.596 219.886 294.028C219.215 293.905 218.457 294.213 217.745 294.357C215.971 294.719 214.203 295.143 212.422 295.478C210.782 295.786 209.55 296.846 208.398 297.885C206.299 299.786 204.355 301.872 202.384 303.916C201.97 304.347 201.672 304.908 201.388 305.448C199.573 308.942 198.13 312.512 197.656 316.533C197.432 318.468 197.134 320.403 197.026 322.366C196.863 325.484 197.487 328.472 198.238 331.453C198.326 331.809 198.503 332.171 198.489 332.52C198.347 335.761 199.315 338.839 200.04 341.916C201.774 349.287 203.786 356.59 205.94 363.852C206.217 364.789 206.59 365.692 207.091 367.107L207.111 367.128Z" fill="#358A87"/>
<path d="M362.645 498.896C360.594 490.578 358.753 482.746 356.709 474.968C355.714 471.189 354.435 467.478 353.102 463.807C352.229 461.402 351.214 459.071 349.887 456.816C347.539 452.845 344.561 449.503 341.454 446.181C339.728 444.329 337.725 442.996 335.478 441.992C333.36 441.049 331.147 440.413 328.785 440.44C326.226 440.474 323.702 440.413 321.171 441.158C317.232 442.313 313.699 444.042 310.761 446.995C308.163 449.612 305.584 452.216 303.77 455.503C302.823 457.219 301.97 458.941 301.239 460.78C299.242 465.796 297.808 470.977 296.095 476.075C294.532 480.73 293.524 485.486 292.285 490.202C291.574 492.916 290.986 495.656 290.383 498.39C290.309 498.732 290.444 499.121 290.491 499.593C294.485 500.919 298.444 502.443 302.518 503.529C306.592 504.616 310.498 506.414 314.856 506.919C315.54 505.259 316.264 503.858 316.183 502.204C316.169 501.958 316.169 501.691 316.25 501.465C318.863 494.597 319.668 487.216 322.078 480.285C323.12 477.278 324.182 474.278 325.292 471.298C325.441 470.902 325.935 470.642 326.159 470.423C327.221 470.403 327.302 471.175 327.539 471.667C330.186 477.073 332.162 482.664 333.306 488.644C333.915 491.849 334.781 495.062 335.586 498.253C336.094 500.263 336.791 502.217 336.913 504.336C336.987 505.6 338.077 506.209 339.336 505.867C343.769 504.643 348.195 503.393 352.621 502.149C355.065 501.459 357.515 500.796 359.944 500.058C360.851 499.777 361.704 499.313 362.658 498.903L362.645 498.896Z" fill="#358A87"/>
<path d="M241.403 234.007C240.602 236.313 239.875 238.261 239.256 240.243C238.266 243.41 237.445 246.638 236.375 249.777C235.944 251.03 235.931 252.145 236.106 253.315C244.56 254.974 255.672 258.258 262.188 261.018C262.565 262.106 262.006 262.642 261.098 262.987C258.163 264.115 255.296 265.54 252.273 266.311C247.966 267.42 243.564 268.156 239.289 269.443C238.616 269.643 237.862 269.56 236.934 269.629C236.853 270.304 236.61 270.93 236.745 271.46C238.199 277.174 239.707 282.866 241.255 288.786C242.103 288.786 242.938 288.938 243.698 288.759C247.562 287.843 251.439 286.941 255.242 285.867C260.33 284.436 265.574 283.321 270.332 280.787C274.795 278.406 278.659 275.239 282.024 271.446C282.731 270.648 283.209 269.574 283.579 268.542C284.158 266.931 284.622 265.258 284.979 263.585C285.127 262.904 284.912 262.126 284.804 261.403C284.71 260.798 284.434 260.219 284.387 259.614C283.942 254.327 281.183 250.39 277.353 247.154C274.243 244.532 270.615 242.955 266.805 241.558C263.978 240.526 261.192 239.355 258.284 238.516C253.66 237.173 249.076 235.693 244.311 234.922C243.496 234.792 242.722 234.427 241.41 234L241.403 234.007Z" fill="#358A87"/>
<path d="M102.516 317.666C104.905 317.162 106.949 316.779 108.966 316.287C112.189 315.501 115.378 314.538 118.619 313.835C119.915 313.558 120.877 312.994 121.789 312.241C118.848 304.143 115.927 292.929 114.929 285.924C115.666 285.04 116.415 285.241 117.178 285.842C119.659 287.774 122.36 289.494 124.579 291.685C127.751 294.804 130.654 298.194 133.962 301.191C134.48 301.665 134.798 302.353 135.336 303.114C135.956 302.835 136.618 302.719 137.002 302.33C141.146 298.137 145.244 293.908 149.517 289.527C149.079 288.801 148.778 288.008 148.232 287.449C145.455 284.612 142.682 281.756 139.8 279.052C135.947 275.432 132.287 271.516 127.661 268.747C123.319 266.153 118.613 264.477 113.627 263.551C112.579 263.358 111.412 263.503 110.337 263.718C108.658 264.054 106.986 264.519 105.369 265.076C104.709 265.301 104.154 265.887 103.59 266.352C103.12 266.745 102.767 267.28 102.272 267.633C97.973 270.741 96.0242 275.137 95.229 280.087C94.587 284.104 95.1087 288.025 95.8775 292.01C96.4517 294.964 96.8871 297.955 97.6681 300.879C98.9043 305.532 100.002 310.223 101.8 314.702C102.108 315.468 102.195 316.319 102.507 317.663L102.516 317.666Z" fill="#358A87"/>
<path d="M341.777 304.472C338.862 299.544 336.116 294.907 333.363 290.269C333.316 290.186 333.154 290.172 332.751 290C331.032 290.972 329.139 292.04 327.252 293.122C324.613 294.631 321.913 296.037 319.355 297.677C316.185 299.71 312.908 301.66 310.094 304.148C306.797 307.063 304.192 310.66 302.741 315.008C301.143 319.812 302.211 324.16 305.165 327.93C309.161 333.029 314.533 335.544 320.913 335.82C321.745 335.854 322.578 336.047 323.404 336.206C323.76 336.268 324.096 336.509 324.438 336.509C331.019 336.53 337.593 336.557 344.174 336.509C345.443 336.502 346.027 335.758 346.034 334.235C346.061 329.611 346.021 324.987 345.987 320.356C345.987 320.136 345.813 319.915 345.611 319.433C345.04 319.384 344.349 319.288 343.65 319.281C340.971 319.26 338.292 319.281 335.612 319.274C330.918 319.26 326.204 319.564 321.43 318.109C321.792 317.662 322.115 317.158 322.538 316.759C324.592 314.836 326.741 313.051 329.246 311.735C333.013 309.75 336.74 307.683 340.467 305.622C340.877 305.395 341.193 304.989 341.777 304.465L341.777 304.472Z" fill="#358A87"/>
<path d="M260.834 429.224C258.477 433.983 254.773 437.157 251.706 441.162C252.015 441.767 252.196 442.693 252.767 443.157C255.009 444.977 257.374 446.658 259.777 448.46C263.557 445.001 266.526 440.968 269.643 437.037C271.962 434.115 272.979 430.813 273.407 427.29C273.851 423.654 271.847 420.486 268.535 418.819C265.33 417.206 262.172 417.033 258.561 417.661C252.84 418.657 247.844 421.496 242.455 423.025C241.902 424.199 241.644 425.241 242.046 426.326C242.927 428.696 243.836 431.063 244.787 433.579C250.269 432.53 254.881 429.006 260.85 429.225L260.834 429.224Z" fill="#358A87"/>
<path d="M380.296 460.359C383.915 464.246 385.574 468.833 388.236 473.118C388.912 473.043 389.842 473.201 390.477 472.83C392.972 471.377 395.381 469.759 397.916 468.148C396.016 463.389 393.293 459.187 390.718 454.881C388.805 451.679 386.075 449.56 382.931 447.915C379.687 446.215 376.014 446.969 373.285 449.478C370.642 451.905 369.365 454.799 368.676 458.398C367.585 464.102 368.475 469.779 368 475.36C368.903 476.293 369.786 476.903 370.943 476.91C373.472 476.924 376.008 476.91 378.697 476.91C379.653 471.411 377.988 465.851 380.302 460.345L380.296 460.359Z" fill="#358A87"/>
<path d="M106.296 180.359C109.915 184.246 111.574 188.833 114.236 193.118C114.912 193.043 115.842 193.201 116.477 192.83C118.972 191.377 121.381 189.759 123.916 188.148C122.016 183.389 119.293 179.187 116.718 174.881C114.805 171.679 112.075 169.56 108.931 167.915C105.687 166.215 102.014 166.969 99.2849 169.478C96.6425 171.905 95.3647 174.799 94.6757 178.398C93.5853 184.102 94.475 189.779 94 195.36C94.9031 196.293 95.7862 196.903 96.9435 196.91C99.4722 196.924 102.008 196.91 104.697 196.91C105.653 191.411 103.988 185.851 106.302 180.345L106.296 180.359Z" fill="#358A87"/>
<path d="M182.617 261.5C177.365 262.289 172.643 261.066 167.603 260.841C167.283 261.442 166.628 262.12 166.574 262.853C166.364 265.733 166.338 268.634 166.235 271.637C171.234 272.758 176.24 272.886 181.248 273.194C184.97 273.425 188.261 272.37 191.395 270.706C194.631 268.99 196.084 265.533 195.556 261.863C195.046 258.312 193.381 255.623 190.801 253.02C186.71 248.898 181.524 246.424 177.187 242.879C175.908 243.097 174.905 243.481 174.246 244.432C172.806 246.51 171.384 248.61 169.865 250.829C173.861 254.725 179.39 256.492 182.625 261.513L182.617 261.5Z" fill="#358A87"/>
</g>
</g>
<defs>
<filter id="filter0_d_3615_63596" x="0.535779" y="0.449018" width="415.653" height="595.653" filterUnits="userSpaceOnUse" color-interpolation-filters="sRGB">
<feFlood flood-opacity="0" result="BackgroundImageFix"/>
<feColorMatrix in="SourceAlpha" type="matrix" values="0 0 0 0 0 0 0 0 0 0 0 0 0 0 0 0 0 0 127 0" result="hardAlpha"/>
<feOffset dx="-4.63775" dy="9.27549"/>
<feGaussianBlur stdDeviation="13.9132"/>
<feColorMatrix type="matrix" values="0 0 0 0 0 0 0 0 0 0 0 0 0 0 0 0 0 0 0.25 0"/>
<feBlend mode="normal" in2="BackgroundImageFix" result="effect1_dropShadow_3615_63596"/>
<feBlend mode="normal" in="SourceGraphic" in2="effect1_dropShadow_3615_63596" result="shape"/>
</filter>
<clipPath id="clip0_3615_63596">
<rect x="33" y="19" width="360" height="540" rx="32" fill="white"/>
</clipPath>
</defs>
</svg>
