<svg width="56" height="56" viewBox="0 0 56 56" fill="none" xmlns="http://www.w3.org/2000/svg">
<g id="Icon">
<mask id="mask0_1875_3006" style="mask-type:alpha" maskUnits="userSpaceOnUse" x="0" y="0" width="56" height="56">
<rect id="Bounding box" x="0.285713" y="0.285706" width="55.4286" height="55.4286" fill="#D9D9D9"/>
</mask>
<g mask="url(#mask0_1875_3006)">
<path id="spa" d="M28 51.0951C25.1901 50.7487 22.3994 49.9885 19.628 48.8145C16.8566 47.6405 14.3834 45.9565 12.2086 43.7624C10.0338 41.5684 8.27283 38.7969 6.9256 35.4481C5.57838 32.0993 4.90477 28.0769 4.90477 23.3809V21.0713H7.21429C9.17739 21.0713 11.1982 21.3215 13.2768 21.8219C15.3554 22.3223 17.2992 23.0729 19.1083 24.0737C19.5702 20.7634 20.6192 17.3665 22.2551 13.8829C23.891 10.3994 25.806 7.40665 28 4.90466C30.1941 7.40665 32.109 10.3994 33.7449 13.8829C35.3809 17.3665 36.4298 20.7634 36.8917 24.0737C38.7008 23.0729 40.6446 22.3223 42.7232 21.8219C44.8018 21.3215 46.8226 21.0713 48.7857 21.0713H51.0952V23.3809C51.0952 28.0769 50.4216 32.0993 49.0744 35.4481C47.7272 38.7969 45.9662 41.5684 43.7914 43.7624C41.6166 45.9565 39.1531 47.6405 36.4009 48.8145C33.6487 49.9885 30.8484 50.7487 28 51.0951ZM27.8845 46.3606C27.4611 39.9709 25.5654 35.1402 22.1973 31.8684C18.8293 28.5965 14.6433 26.5757 9.63929 25.8059C10.0627 32.388 12.0162 37.2957 15.4997 40.5291C18.9832 43.7624 23.1115 45.7063 27.8845 46.3606ZM28 31.6951C28.5774 30.8483 29.2799 29.9726 30.1074 29.0681C30.935 28.1635 31.7337 27.384 32.5036 26.7297C32.4266 24.5356 31.9936 22.2453 31.2045 19.8588C30.4154 17.4723 29.3472 15.1436 28 12.8725C26.6528 15.1436 25.5846 17.4723 24.7955 19.8588C24.0065 22.2453 23.5734 24.5356 23.4964 26.7297C24.2663 27.384 25.0746 28.1635 25.9214 29.0681C26.7683 29.9726 27.4611 30.8483 28 31.6951ZM32.5036 45.3213C33.9278 44.8594 35.4097 44.1858 36.9494 43.3005C38.4891 42.4152 39.9229 41.2123 41.2509 39.6919C42.5789 38.1714 43.7144 36.2757 44.6574 34.0047C45.6005 31.7336 46.1683 29.0007 46.3607 25.8059C42.7425 26.3447 39.5669 27.5476 36.8339 29.4145C34.101 31.2814 32.0032 33.6582 30.5405 36.5451C31.0024 37.7769 31.3969 39.1241 31.7241 40.5868C32.0513 42.0495 32.3111 43.6277 32.5036 45.3213Z" fill="white"/>
</g>
</g>
</svg>
