<svg width="82" height="60" viewBox="0 0 82 60" fill="none" xmlns="http://www.w3.org/2000/svg">
<path fill-rule="evenodd" clip-rule="evenodd" d="M8.46131 0.810811C11.4445 0.27027 14.1564 0 16.5972 0C20.421 0 23.5262 0.594594 25.9128 1.78378C28.5162 3.10811 30.2112 5 30.9977 7.45946C31.2689 8.32433 31.4045 9.21622 31.4045 10.1351C31.4045 11.7297 30.9977 13.4324 30.1841 15.2432C29.3819 17.0171 28.0814 18.918 26.2826 20.946C26.1355 21.1118 25.9851 21.2784 25.8314 21.4459C26.0542 21.4869 26.2739 21.5316 26.4904 21.5801C27.2751 21.7558 28.0182 21.9814 28.7196 22.2568C31.757 23.473 34.0486 25.3108 35.5945 27.7703C35.8656 28.1757 36.1233 28.6081 36.3674 29.0676C39.4048 28.3919 42.4286 28.0541 45.4389 28.0541C46.0814 28.0541 46.716 28.0698 47.3427 28.1014C47.4034 28.1045 47.4639 28.1077 47.5244 28.111C47.6567 28.1184 47.7887 28.1264 47.9203 28.1351L47.4728 35.4324C47.2805 35.4171 47.088 35.4039 46.8956 35.3929C46.41 35.3652 45.9244 35.3514 45.4389 35.3514C42.9981 35.3514 40.5438 35.6081 38.0759 36.1216V36.8108C38.0759 40.2162 37.2216 43.6216 35.5131 47.027C33.3706 51.2973 29.8315 54.7973 24.8958 57.527C21.5601 59.1757 18.6312 60 16.109 60C15.0242 60 14.0344 59.8649 13.1394 59.5946C11.2953 59.027 9.85797 58.027 8.82742 56.5946C7.90536 55.2973 7.44433 53.7838 7.44433 52.0541V51.4865C7.52568 48.2162 9.55965 44.5946 13.5462 40.6216C17.6968 36.7732 22.6743 33.6983 28.4788 31.3967C28.6667 31.3222 28.8554 31.2486 29.0451 31.1757C28.9173 31.0154 28.7817 30.8616 28.6383 30.7145C27.9596 30.0181 27.1053 29.4692 26.0755 29.0676C25.1534 28.6892 24.0686 28.5 22.8211 28.5C21.9262 28.5 20.9634 28.6081 19.9329 28.8243C17.8718 29.2568 15.5124 30.2297 12.8547 31.7432L12.814 31.7838V37.5811H0V30.3244L5.45104 30.2838V1.37838L8.46131 0.810811ZM13.3926 22.6098C13.2022 22.7482 13.0094 22.8873 12.814 23.027V7.5C14.2242 7.33784 15.526 7.25676 16.7192 7.25676C19.2413 7.25676 21.2075 7.60811 22.6177 8.31081C23.3771 8.68919 23.8381 9.12162 24.0008 9.60811C24.0551 9.77027 24.0822 9.95946 24.0822 10.1757C24.0822 10.7432 23.9059 11.4189 23.5534 12.2027C22.295 15.1288 18.9081 18.5978 13.3926 22.6098ZM21.4787 51.0405C19.2549 52.1486 17.4921 52.7027 16.1904 52.7027C15.8107 52.7027 15.4717 52.6622 15.1734 52.5811L15.0107 52.5C14.9022 52.473 14.8344 52.4324 14.8073 52.3784C14.7531 52.2973 14.7259 52.1351 14.7259 51.8919C14.7531 50.4054 16.0412 48.4054 18.5905 45.8919C21.7546 42.9454 25.5759 40.5303 30.0545 38.6466C30.2591 38.5606 30.465 38.4757 30.6722 38.3919C30.6453 38.6131 30.6132 38.834 30.5759 39.0544C30.3122 40.611 29.7883 42.147 29.0044 43.6622C27.4857 46.6622 24.9771 49.1216 21.4787 51.0405Z" fill="#006A67"/>
<path fill-rule="evenodd" clip-rule="evenodd" d="M80.9851 26.5818C81.1709 29.5503 81.2939 32.4237 81.3743 34.779V35.7976C81.3743 35.9237 81.3833 36.0467 81.3926 36.1726L81.3933 36.1816L73.0371 36.2792C73.0371 36.2226 72.9643 34.4876 72.5625 28.0693C71.8278 16.3314 71.1792 16.1629 70.6039 13.6777C70.5803 13.6455 70.611 13.6903 70.6039 13.6777L78.5583 11.3955C79.0101 12.3257 79.6699 15.0002 79.9036 16.7443C80.1374 18.4885 80.5844 20.181 80.9851 26.5818ZM70.6039 13.6777C70.5979 13.6669 70.5989 13.6683 70.6039 13.6777V13.6777Z" fill="#006A67"/>
<path d="M73.9357 39.5107C74.8277 38.6316 75.9578 38.2057 77.3258 38.2329C78.6939 38.2601 79.8059 38.7306 80.662 39.6444C81.518 40.5582 81.9329 41.6687 81.9067 42.976C81.8804 44.2833 81.4213 45.3765 80.5292 46.2555C79.6372 47.1346 78.5071 47.5605 77.1391 47.5333C75.771 47.5061 74.6589 47.0356 73.8029 46.1218C72.9469 45.208 72.532 44.0975 72.5582 42.7902C72.5845 41.4829 73.0436 40.3897 73.9357 39.5107Z" fill="#006A67"/>
<path fill-rule="evenodd" clip-rule="evenodd" d="M43.7252 47.4421C43.7252 34.9471 42.1194 26.0718 41.0958 22.6096L49.3934 20.1816C50.7074 24.6264 52.3742 34.3557 52.3742 47.4421H43.7252Z" fill="#006A67"/>
<path d="M46.97 11.3461C46.1055 10.4531 44.9984 10.0083 43.6488 10.0117C42.2992 10.0151 41.1944 10.4654 40.3344 11.3627C39.4744 12.26 39.0461 13.3614 39.0494 14.6668C39.0527 15.9722 39.4866 17.0713 40.3511 17.9643C41.2157 18.8573 42.3227 19.3021 43.6724 19.2987C45.022 19.2953 46.1268 18.845 46.9868 17.9477C47.8468 17.0504 48.2751 15.949 48.2718 14.6436C48.2685 13.3382 47.8346 12.239 46.97 11.3461Z" fill="#006A67"/>
<path fill-rule="evenodd" clip-rule="evenodd" d="M56.7277 23.1454C56.5839 13.5568 56.8473 4.20215 57.0048 0.0693359L65.6477 0.395344C65.4935 4.44082 65.235 13.6327 65.3757 23.017C65.4461 27.7108 65.6158 32.4075 65.942 36.51C66.2745 40.6905 66.7505 43.9781 67.346 45.9982L59.0466 48.4199C58.1852 45.4982 57.66 41.4651 57.32 37.1887C56.9737 32.8344 56.7995 27.9379 56.7277 23.1454Z" fill="#006A67"/>
</svg>
