<svg width="148" height="110" viewBox="0 0 148 110" fill="none" xmlns="http://www.w3.org/2000/svg">
<g id="Bili">
<path id="B (Stroke)" fill-rule="evenodd" clip-rule="evenodd" d="M15.299 1.48649C20.6807 0.495496 25.5732 0 29.9764 0C36.8748 0 42.4767 1.09009 46.7821 3.27027C51.4788 5.6982 54.5366 9.16667 55.9555 13.6757C56.4447 15.2613 56.6893 16.8964 56.6893 18.5811C56.6893 21.5045 55.9554 24.6261 54.4877 27.9459C53.0404 31.1981 50.6943 34.683 47.4493 38.4009C47.184 38.7049 46.9126 39.0105 46.6353 39.3176C47.0373 39.3926 47.4336 39.4745 47.8242 39.5634C49.2398 39.8857 50.5804 40.2992 51.8458 40.8041C57.3253 43.0338 61.4595 46.4031 64.2482 50.9122C64.7374 51.6554 65.2022 52.4482 65.6426 53.2905C71.1221 52.0518 76.5772 51.4324 82.0079 51.4324C83.167 51.4324 84.3119 51.4614 85.4425 51.5193C85.5519 51.5249 85.6611 51.5307 85.7702 51.5369C86.0089 51.5503 86.247 51.565 86.4845 51.5811L85.6772 64.9595C85.3302 64.9313 84.9829 64.9072 84.6359 64.8871C83.7599 64.8362 82.8839 64.8108 82.0079 64.8108C77.6046 64.8108 73.177 65.2815 68.7248 66.223V67.4865C68.7248 73.7297 67.1837 79.973 64.1014 86.2162C60.2364 94.045 53.8517 100.462 44.9474 105.466C38.9296 108.489 33.6458 110 29.0958 110C27.1388 110 25.353 109.752 23.7385 109.257C20.4116 108.216 17.8186 106.383 15.9595 103.757C14.296 101.378 13.4643 98.6036 13.4643 95.4324V94.3919C13.6111 88.3964 17.2804 81.7568 24.4724 74.473C31.9601 67.4176 40.9398 61.7801 51.4113 57.5607C51.7503 57.4241 52.0908 57.289 52.4329 57.1554C52.2024 56.8615 51.9578 56.5796 51.699 56.3098C50.4746 55.0333 48.9335 54.0268 47.0756 53.2905C45.4122 52.5968 43.4552 52.25 41.2046 52.25C39.5901 52.25 37.8533 52.4482 35.9942 52.8446C32.2759 53.6374 28.0194 55.4212 23.2248 58.1959L23.1514 58.2703V68.8986H0.0344849V55.5947L9.86835 55.5203V2.52703L15.299 1.48649ZM24.1951 41.4513C23.8518 41.7051 23.5039 41.96 23.1514 42.2162V13.75C25.6955 13.4527 28.0439 13.3041 30.1966 13.3041C34.7466 13.3041 38.2936 13.9482 40.8377 15.2365C42.2076 15.9302 43.0393 16.723 43.3329 17.6149C43.4307 17.9122 43.4796 18.259 43.4796 18.6554C43.4796 19.6959 43.1616 20.9347 42.5256 22.3716C40.2556 27.7361 34.1454 34.0959 24.1951 41.4513ZM38.7829 93.5743C34.771 95.6058 31.5909 96.6216 29.2425 96.6216C28.5576 96.6216 27.946 96.5473 27.4079 96.3986L27.1143 96.25C26.9186 96.2004 26.7963 96.1261 26.7474 96.027C26.6495 95.8784 26.6006 95.5811 26.6006 95.1351C26.6495 92.4099 28.9735 88.7432 33.5724 84.1351C39.2805 78.7332 46.1744 74.3055 54.254 70.8522C54.623 70.6944 54.9944 70.5388 55.3684 70.3851C55.3198 70.7907 55.2619 71.1956 55.1945 71.5997C54.7188 74.4536 53.7738 77.2694 52.3595 80.0473C49.6197 85.5473 45.0942 90.0563 38.7829 93.5743Z" fill="white"/>
<g id="i">
<path id="Subtract" fill-rule="evenodd" clip-rule="evenodd" d="M146.135 48.7331C146.47 54.1753 146.692 59.4434 146.837 63.7613L146.837 65.6288C146.837 65.8599 146.853 66.0855 146.87 66.3164L146.871 66.3329L131.796 66.5118C131.796 66.4079 131.665 63.2272 130.94 51.4602C129.615 29.9407 128.444 29.6319 127.407 25.0755C127.364 25.0167 127.419 25.0986 127.407 25.0755L141.757 20.8916C142.572 22.597 143.762 27.5001 144.184 30.6978C144.605 33.8955 145.412 36.9983 146.135 48.7331ZM127.407 25.0755C127.396 25.0558 127.397 25.0584 127.407 25.0755V25.0755Z" fill="white"/>
<path id="[Copy] Generation" d="M133.417 72.4357C135.026 70.8241 137.065 70.0432 139.533 70.0931C142.001 70.1429 144.007 71.0055 145.552 72.6808C147.096 74.3561 147.844 76.3921 147.797 78.7888C147.75 81.1856 146.921 83.1897 145.312 84.8013C143.703 86.4129 141.664 87.1938 139.196 87.144C136.728 87.0941 134.722 86.2315 133.178 84.5562C131.633 82.8809 130.885 80.8449 130.932 78.4482C130.979 76.0515 131.808 74.0473 133.417 72.4357Z" fill="white"/>
</g>
<path id="Vector 72 (Stroke)" fill-rule="evenodd" clip-rule="evenodd" d="M78.9164 86.9766C78.9164 64.0691 76.0195 47.7976 74.173 41.4503L89.1421 36.999C91.5127 45.1478 94.5196 62.9848 94.5196 86.9766H78.9164Z" fill="white"/>
<path id="[Copy] Generation_2" d="M84.7701 20.8008C83.2104 19.1637 81.2132 18.3482 78.7785 18.3544C76.3437 18.3607 74.3506 19.1863 72.7991 20.8313C71.2477 22.4764 70.4749 24.4955 70.4809 26.8887C70.4869 29.282 71.2697 31.2971 72.8293 32.9342C74.389 34.5713 76.3862 35.3868 78.8209 35.3806C81.2557 35.3744 83.2488 34.5488 84.8003 32.9037C86.3517 31.2587 87.1245 29.2395 87.1185 26.8463C87.1125 24.4531 86.3297 22.4379 84.7701 20.8008Z" fill="white"/>
<path id="Vector 73 (Stroke)" fill-rule="evenodd" clip-rule="evenodd" d="M102.373 42.4335C102.114 24.8544 102.589 7.70427 102.873 0.127441L118.465 0.725124C118.187 8.14184 117.721 24.9936 117.975 42.1982C118.102 50.8036 118.408 59.414 118.996 66.9354C119.596 74.5996 120.455 80.6268 121.529 84.3304L106.557 88.7702C105.003 83.4137 104.055 76.0196 103.442 68.1795C102.817 60.1966 102.503 51.2199 102.373 42.4335Z" fill="white"/>
</g>
</svg>
