<svg width="33" height="32" viewBox="0 0 33 32" fill="none" xmlns="http://www.w3.org/2000/svg">
<g id="timer" clip-path="url(#clip0_6354_28770)">
<path id="Vector" d="M20.5938 1.34766H12.5938V4.01432H20.5938V1.34766ZM15.2604 18.681H17.9271V10.681H15.2604V18.681ZM25.9671 9.85432L27.8604 7.96099C27.2871 7.28099 26.6604 6.64099 25.9804 6.08099L24.0871 7.97432C22.0204 6.32099 19.4204 5.33432 16.5938 5.33432C9.96708 5.33432 4.59375 10.7077 4.59375 17.3343C4.59375 23.961 9.95375 29.3343 16.5938 29.3343C23.2338 29.3343 28.5938 23.961 28.5938 17.3343C28.5938 14.521 27.6071 11.921 25.9671 9.85432ZM16.5938 26.681C11.4338 26.681 7.26042 22.5077 7.26042 17.3477C7.26042 12.1877 11.4338 8.01432 16.5938 8.01432C21.7537 8.01432 25.9271 12.1877 25.9271 17.3477C25.9271 22.5077 21.7537 26.681 16.5938 26.681Z" fill="black"/>
</g>
<defs>
<clipPath id="clip0_6354_28770">
<rect width="32" height="32" fill="white" transform="translate(0.5)"/>
</clipPath>
</defs>
</svg>
