<svg width="56" height="56" viewBox="0 0 56 56" fill="none" xmlns="http://www.w3.org/2000/svg">
<g id="Icon">
<mask id="mask0_1875_2927" style="mask-type:alpha" maskUnits="userSpaceOnUse" x="0" y="0" width="56" height="56">
<rect id="Bounding box" x="0.285706" y="0.285706" width="55.4286" height="55.4286" fill="#D9D9D9"/>
</mask>
<g mask="url(#mask0_1875_2927)">
<path id="community" d="M2.59521 46.4762V37.2382C2.59521 35.9294 3.0475 34.8324 3.95206 33.9471C4.85662 33.0618 5.94402 32.6191 7.21426 32.6191H14.778C15.5478 32.6191 16.2791 32.8116 16.972 33.1965C17.6649 33.5814 18.223 34.101 18.6464 34.7554C19.7627 36.2566 21.1388 37.4306 22.7747 38.2774C24.4106 39.1243 26.1524 39.5477 28 39.5477C29.8861 39.5477 31.6471 39.1243 33.283 38.2774C34.9189 37.4306 36.2758 36.2566 37.3535 34.7554C37.8539 34.101 38.4409 33.5814 39.1146 33.1965C39.7882 32.8116 40.4907 32.6191 41.222 32.6191H48.7857C50.0944 32.6191 51.1914 33.0618 52.0768 33.9471C52.9621 34.8324 53.4047 35.9294 53.4047 37.2382V46.4762H37.2381V41.2221C35.8909 42.1844 34.4378 42.9157 32.8788 43.4161C31.3199 43.9165 29.6936 44.1667 28 44.1667C26.3448 44.1667 24.7282 43.9069 23.15 43.3873C21.5718 42.8676 20.1091 42.1266 18.7619 41.1643V46.4762H2.59521ZM28 37.2382C26.5373 37.2382 25.1516 36.9013 23.8428 36.2277C22.5341 35.5541 21.4371 34.6207 20.5518 33.4274C19.8974 32.4651 19.0794 31.7049 18.0979 31.1468C17.1163 30.5886 16.0482 30.3096 14.8934 30.3096C15.7403 28.8854 17.5301 27.7595 20.2631 26.9319C22.996 26.1043 25.575 25.6905 28 25.6905C30.425 25.6905 33.0039 26.1043 35.7369 26.9319C38.4698 27.7595 40.2597 28.8854 41.1065 30.3096C39.9903 30.3096 38.9317 30.5886 37.9309 31.1468C36.9301 31.7049 36.1026 32.4651 35.4482 33.4274C34.6014 34.6592 33.5236 35.6022 32.2149 36.2566C30.9061 36.911 29.5012 37.2382 28 37.2382ZM9.52379 30.3096C7.59918 30.3096 5.96327 29.636 4.61605 28.2887C3.26883 26.9415 2.59521 25.3056 2.59521 23.381C2.59521 21.4179 3.26883 19.7724 4.61605 18.4444C5.96327 17.1164 7.59918 16.4524 9.52379 16.4524C11.4869 16.4524 13.1324 17.1164 14.4604 18.4444C15.7884 19.7724 16.4524 21.4179 16.4524 23.381C16.4524 25.3056 15.7884 26.9415 14.4604 28.2887C13.1324 29.636 11.4869 30.3096 9.52379 30.3096ZM46.4762 30.3096C44.5516 30.3096 42.9157 29.636 41.5684 28.2887C40.2212 26.9415 39.5476 25.3056 39.5476 23.381C39.5476 21.4179 40.2212 19.7724 41.5684 18.4444C42.9157 17.1164 44.5516 16.4524 46.4762 16.4524C48.4393 16.4524 50.0848 17.1164 51.4128 18.4444C52.7408 19.7724 53.4047 21.4179 53.4047 23.381C53.4047 25.3056 52.7408 26.9415 51.4128 28.2887C50.0848 29.636 48.4393 30.3096 46.4762 30.3096ZM28 23.381C26.0754 23.381 24.4395 22.7074 23.0922 21.3602C21.745 20.013 21.0714 18.377 21.0714 16.4524C21.0714 14.4893 21.745 12.8438 23.0922 11.5158C24.4395 10.1879 26.0754 9.52386 28 9.52386C29.9631 9.52386 31.6086 10.1879 32.9366 11.5158C34.2646 12.8438 34.9285 14.4893 34.9285 16.4524C34.9285 18.377 34.2646 20.013 32.9366 21.3602C31.6086 22.7074 29.9631 23.381 28 23.381Z" fill="white"/>
</g>
</g>
</svg>
