<svg width="125" height="126" viewBox="0 0 125 126" fill="none" xmlns="http://www.w3.org/2000/svg">
<g clip-path="url(#clip0_5377_60737)">
<path d="M36.9055 37.5056L23.0969 28.6579C22.8186 28.4873 22.5825 28.2558 22.4064 27.9808C22.2303 27.7059 22.1188 27.3946 22.0802 27.0704C22.0417 26.7461 22.0772 26.4174 22.1839 26.1088C22.2906 25.8003 22.4659 25.5199 22.6965 25.2888L27.8821 20.1032C28.8782 19.1071 30.5579 19.322 31.2708 20.5427L39.9036 34.5759C41.0364 36.5095 38.8196 38.6774 36.9055 37.5056ZM24.8352 80.0642L8.80006 80.3864C8.47401 80.3935 8.15379 80.4743 7.86348 80.6229C7.57316 80.7715 7.32028 80.9839 7.12386 81.2442C6.92743 81.5046 6.79256 81.806 6.72937 82.126C6.66618 82.4459 6.67633 82.776 6.75905 83.0915L8.62428 90.1814C8.98561 91.5485 10.5383 92.2028 11.7688 91.5192L25.9387 84.1071C27.8919 83.0036 27.0813 80.0153 24.8352 80.0642ZM62.0813 107.3L58.5657 122.916C58.2434 124.273 59.2688 125.582 60.6653 125.582H67.9993C69.4153 125.582 70.4407 124.244 70.0891 122.877L66.2708 107.261C65.7044 105.084 62.6087 105.113 62.0813 107.3ZM90.6946 37.5056L104.503 28.6579C105.695 27.9255 105.89 26.2751 104.904 25.2888L99.718 20.1032C99.4843 19.8704 99.2003 19.6943 98.8879 19.5882C98.5755 19.4822 98.243 19.4492 97.9159 19.4916C97.5887 19.534 97.2756 19.6508 97.0006 19.833C96.7256 20.0152 96.496 20.258 96.3293 20.5427L87.6965 34.5759C86.5637 36.5095 88.7805 38.6774 90.6946 37.5056ZM102.765 80.0642L118.8 80.3864C119.126 80.3935 119.446 80.4743 119.737 80.6229C120.027 80.7715 120.28 80.9839 120.476 81.2442C120.673 81.5046 120.808 81.806 120.871 82.126C120.934 82.4459 120.924 82.776 120.841 83.0915L118.976 90.1814C118.891 90.5 118.735 90.7951 118.52 91.0443C118.304 91.2934 118.034 91.49 117.731 91.619C117.427 91.7481 117.099 91.8062 116.769 91.7889C116.44 91.7716 116.119 91.6794 115.831 91.5192L101.661 84.1071C99.7083 83.0036 100.519 80.0153 102.765 80.0642Z" fill="#FFC107"/>
<path d="M67.7553 8.61743L80.8998 38.5979C81.3942 39.7262 82.1824 40.7011 83.1822 41.4208C84.1819 42.1406 85.3565 42.5788 86.5834 42.6897L118.605 45.5608C122.228 46.0881 123.673 50.5315 121.046 53.0901L96.9252 73.3538C94.9721 74.9944 94.0834 77.5725 94.6205 80.0627L101.632 112.885C102.247 116.489 98.4681 119.242 95.226 117.533L67.2767 101.166C66.2226 100.548 65.0225 100.221 63.8002 100.221C62.5779 100.221 61.3778 100.548 60.3236 101.166L32.3744 117.524C29.142 119.223 25.3529 116.479 25.9681 112.875L32.9799 80.053C33.5072 77.5627 32.6283 74.9846 30.6752 73.344L6.54432 53.0998C3.92713 50.551 5.37245 46.0979 8.98573 45.5706L41.0072 42.6995C42.2341 42.5885 43.4087 42.1503 44.4084 41.4306C45.4082 40.7109 46.1964 39.736 46.6908 38.6077L59.8353 8.6272C61.4662 5.34595 66.1342 5.34595 67.7553 8.61743Z" fill="#FDD835"/>
<path d="M66.8007 40.3936L64.5741 18.3037C64.4862 17.0732 64.2323 14.9639 66.205 14.9639C67.7675 14.9639 68.6171 18.2158 68.6171 18.2158L75.2967 35.9502C77.8163 42.6982 76.7811 45.0127 74.3495 46.3799C71.5565 47.9424 67.4354 46.7217 66.8007 40.3936Z" fill="#FFFF8D"/>
<path d="M94.3491 71.3896L113.509 56.4385C114.457 55.6475 116.166 54.3877 114.798 52.9521C113.714 51.8193 110.785 53.4502 110.785 53.4502L94.0171 60.0029C89.0171 61.7314 85.6968 64.29 85.4038 67.5127C85.023 71.8096 88.8804 75.1201 94.3491 71.3896Z" fill="#F4B400"/>
</g>
<defs>
<clipPath id="clip0_5377_60737">
<rect width="125" height="125" fill="white" transform="translate(0 0.957031)"/>
</clipPath>
</defs>
</svg>
