<svg width="442" height="439" viewBox="0 0 442 439" fill="none" xmlns="http://www.w3.org/2000/svg">
<path d="M130.745 127.005L82.0833 95.8255C81.1023 95.2242 80.2703 94.4084 79.6498 93.4395C79.0292 92.4705 78.6363 91.3736 78.5005 90.231C78.3647 89.0884 78.4896 87.9299 78.8658 86.8425C79.2419 85.7551 79.8596 84.767 80.6724 83.9526L98.9463 65.6787C102.457 62.1684 108.376 62.9255 110.888 67.2273L141.31 116.68C145.302 123.494 137.49 131.134 130.745 127.005ZM88.2091 276.982L31.701 278.117C30.552 278.142 29.4236 278.427 28.4005 278.951C27.3774 279.474 26.4863 280.223 25.794 281.14C25.1018 282.058 24.6265 283.12 24.4039 284.248C24.1812 285.375 24.217 286.538 24.5085 287.65L31.0816 312.635C32.3549 317.453 37.8267 319.758 42.1629 317.35L92.0979 291.229C98.9807 287.34 96.1243 276.81 88.2091 276.982ZM219.465 372.963L207.076 427.991C205.94 432.775 209.553 437.386 214.475 437.386H240.32C245.31 437.386 248.923 432.671 247.684 427.853L234.228 372.825C232.232 365.151 221.323 365.254 219.465 372.963ZM320.298 127.005L368.96 95.8255C373.158 93.2444 373.847 87.4284 370.371 83.9526L352.097 65.6787C351.273 64.8583 350.273 64.2375 349.172 63.8639C348.071 63.4902 346.899 63.3737 345.746 63.5232C344.593 63.6727 343.49 64.0843 342.521 64.7264C341.552 65.3685 340.742 66.224 340.155 67.2273L309.733 116.68C305.741 123.494 313.553 131.134 320.298 127.005ZM362.834 276.982L419.342 278.117C420.491 278.142 421.62 278.427 422.643 278.951C423.666 279.474 424.557 280.223 425.249 281.14C425.941 282.058 426.417 283.12 426.639 284.248C426.862 285.375 426.826 286.538 426.535 287.65L419.962 312.635C419.664 313.758 419.114 314.798 418.354 315.676C417.593 316.554 416.642 317.246 415.574 317.701C414.505 318.156 413.346 318.361 412.186 318.3C411.026 318.239 409.896 317.914 408.88 317.35L358.945 291.229C352.062 287.34 354.919 276.81 362.834 276.982Z" fill="#F1D100"/>
<g filter="url(#filter0_d_6036_4212)">
<path d="M239.461 25.2048L285.783 130.856C287.525 134.832 290.303 138.268 293.826 140.804C297.349 143.341 301.488 144.885 305.812 145.276L418.656 155.394C431.423 157.252 436.517 172.91 427.259 181.927L342.256 253.336C335.373 259.118 332.242 268.203 334.135 276.979L358.844 392.645C361.012 405.344 347.694 415.049 336.268 409.026L237.775 351.348C234.06 349.168 229.831 348.018 225.523 348.018C221.216 348.018 216.987 349.168 213.272 351.348L114.779 408.992C103.388 414.98 90.0348 405.309 92.2029 392.61L116.912 276.944C118.771 268.169 115.673 259.083 108.791 253.302L23.7531 181.961C14.5301 172.979 19.6234 157.286 32.3567 155.428L145.201 145.31C149.524 144.919 153.664 143.375 157.187 140.839C160.71 138.302 163.487 134.867 165.23 130.891L211.551 25.2392C217.298 13.676 233.748 13.676 239.461 25.2048Z" fill="#FFE24F"/>
</g>
<defs>
<filter id="filter0_d_6036_4212" x="-8.95605" y="0.5625" width="476.948" height="458.295" filterUnits="userSpaceOnUse" color-interpolation-filters="sRGB">
<feFlood flood-opacity="0" result="BackgroundImageFix"/>
<feColorMatrix in="SourceAlpha" type="matrix" values="0 0 0 0 0 0 0 0 0 0 0 0 0 0 0 0 0 0 127 0" result="hardAlpha"/>
<feOffset dx="4" dy="16"/>
<feGaussianBlur stdDeviation="16"/>
<feComposite in2="hardAlpha" operator="out"/>
<feColorMatrix type="matrix" values="0 0 0 0 0.227451 0 0 0 0 0.164706 0 0 0 0 0.0666667 0 0 0 0.2 0"/>
<feBlend mode="normal" in2="BackgroundImageFix" result="effect1_dropShadow_6036_4212"/>
<feBlend mode="normal" in="SourceGraphic" in2="effect1_dropShadow_6036_4212" result="shape"/>
</filter>
</defs>
</svg>
