<svg width="25" height="29" viewBox="0 0 25 29" fill="none" xmlns="http://www.w3.org/2000/svg">
<path fill-rule="evenodd" clip-rule="evenodd" d="M5.66772 10.6795C2.42517 14.1886 2.49379 19.7513 5.87358 23.1965C7.52358 24.8832 9.71613 25.8136 12.0523 25.8152H12.0603C14.4012 25.8152 16.6018 24.8848 18.2597 23.1965C21.7002 19.6891 21.6938 13.9843 18.2454 10.4816L13.4805 5.61303C12.9986 9.57366 11.5129 13.0492 8.86719 13.0492C8.05655 13.0492 6.73528 12.6886 5.66772 10.6795ZM12.0603 29.0066H12.0491C8.84804 29.0035 5.84485 27.7348 3.59326 25.429C-1.05674 20.6896 -1.06313 12.9774 3.57889 8.24601L5.14751 6.65983C5.55283 6.25452 6.14166 6.09813 6.69858 6.24335C7.2523 6.39335 7.68315 6.82898 7.82677 7.3843C8.19379 8.80292 8.63102 9.50026 8.87198 9.76515C9.43847 9.16835 10.4629 6.75718 10.4629 2.67686C10.4629 2.44228 10.4629 2.22047 10.4502 1.99866C10.4199 1.52792 10.6002 1.06675 10.9417 0.741217C11.5752 0.139622 12.5901 0.139622 13.198 0.765154L20.5225 8.2476C25.1821 12.9774 25.1901 20.6896 20.5385 25.4306C18.2741 27.738 15.2645 29.0066 12.0603 29.0066Z" fill="#22BEB9"/>
</svg>
