<svg width="200" height="200" viewBox="0 0 200 200" fill="none" xmlns="http://www.w3.org/2000/svg">
<g transform="translate(-35,10)">
    <path d="M134.22 178.949C166.799 161.329 142.666 118.19 129.246 108.346C115.826 98.5026 95.2093 96.0625 95.115 109.021C95.0679 115.482 112.507 142.227 149.916 123.485C187.326 104.743 147.992 63.8773 125.853 60.8476C103.715 57.8178 111.683 80.0253 125.031 87.3357C138.379 94.6461 171.161 90.3954 173.487 76.2288C176.476 58.0215 153.11 41.2957 140.242 32.6304" stroke="#FFDBCA" stroke-width="31"/>
    <path d="M134.22 178.949C166.799 161.329 142.666 118.19 129.246 108.346C115.826 98.5026 95.2093 96.0625 95.115 109.021C95.0679 115.482 112.507 142.227 149.916 123.485C187.326 104.743 147.992 63.8773 125.853 60.8476C103.715 57.8178 111.683 80.0253 125.031 87.3357C138.379 94.6461 171.161 90.3954 173.487 76.2288C176.476 58.0215 153.11 41.2957 140.242 32.6304" stroke="#FF5708" stroke-width="8"/>
</g>
<g transform="translate(70,170)">
    <path d="M0.000244141 30.5C0.000244141 13.6553 13.6556 0 30.5002 0C47.3449 0 61.0002 13.6553 61.0002 30.5V32H0.000244141V30.5Z" fill="#CCC7BD"/>
</g>
</svg>
