<svg width="12" height="15" viewBox="0 0 12 15" fill="none" xmlns="http://www.w3.org/2000/svg">
<path fill-rule="evenodd" clip-rule="evenodd" d="M6.59799 7.87009V9.91907C7.55549 8.68183 8.99032 7.90719 10.5766 7.90719H11.4022C11.7327 7.90719 12 8.19522 12 8.54986V9.43678C12 12.5015 9.67655 15 6.82525 15H5.17475C2.32404 15 0 12.5021 0 9.43678V8.54986C0 8.1946 0.267917 7.90719 0.597797 7.90719H1.42336C3.00968 7.90719 4.44443 8.68185 5.40201 9.91907V7.87009C3.55808 7.55799 2.16284 5.83595 2.16284 3.79502L2.16341 0.642674C2.16341 0.287413 2.43133 0 2.76121 0C2.94766 0 3.11403 0.0912813 3.22361 0.235609L4.4737 1.66096L5.53563 0.241151C5.74216 -0.0345471 6.11736 -0.0783309 6.37438 0.143085C6.41167 0.175156 6.44437 0.21093 6.47191 0.249786L7.52695 1.66096L8.80459 0.203523C9.03006 -0.0542853 9.40813 -0.0666168 9.64793 0.175769C9.77243 0.302206 9.83726 0.472434 9.83726 0.642659V3.795C9.83726 5.83593 8.44249 7.5573 6.59799 7.87009ZM6.00019 1.66661L4.98244 3.02783C4.75067 3.34485 4.32497 3.3615 4.07484 3.07655L3.35886 2.25994V3.79509C3.35886 5.35798 4.54584 6.63402 5.99954 6.63402C7.4533 6.63402 8.64082 5.35792 8.64082 3.79509V2.25994L7.92484 3.07655C7.67814 3.35718 7.25475 3.34546 7.02584 3.03893L5.99949 1.66661L6.00019 1.66661ZM1.42378 9.19244H1.19602V9.43669C1.19602 11.7915 2.98428 13.714 5.17467 13.714H5.40187V13.4698C5.40187 11.115 3.6136 9.19244 1.42321 9.19244H1.42378ZM6.59853 13.4698V13.714H6.82572C9.01611 13.714 10.8044 11.7915 10.8044 9.43669V9.19244H10.5772C8.3868 9.19244 6.59853 11.115 6.59853 13.4698Z" fill="white"/>
</svg>
