<svg width="37" height="36" viewBox="0 0 37 36" fill="none" xmlns="http://www.w3.org/2000/svg">
<g filter="url(#filter0_d_3918_18435)">
<rect x="4.5" width="28" height="28" rx="14" fill="#F48722" shape-rendering="crispEdges"/>
<mask id="mask0_3918_18435" style="mask-type:alpha" maskUnits="userSpaceOnUse" x="10" y="6" width="17" height="16">
<rect x="10.5" y="6" width="16" height="16" fill="#D9D9D9"/>
</mask>
<g mask="url(#mask0_3918_18435)">
<path d="M13.6502 19.3327C12.9835 19.3327 12.4141 19.0938 11.9419 18.616C11.4696 18.1382 11.2224 17.5605 11.2002 16.8827C11.2002 16.7827 11.2058 16.6827 11.2169 16.5827C11.228 16.4827 11.2446 16.3827 11.2669 16.2827L12.6669 10.6827C12.8224 10.0827 13.1391 9.59657 13.6169 9.22435C14.0946 8.85213 14.6391 8.66602 15.2502 8.66602H21.7502C22.3613 8.66602 22.9058 8.85213 23.3835 9.22435C23.8613 9.59657 24.178 10.0827 24.3335 10.6827L25.7335 16.2827C25.7558 16.3827 25.7752 16.4855 25.7919 16.591C25.8085 16.6966 25.8169 16.7993 25.8169 16.8993C25.8169 17.5771 25.5752 18.1521 25.0919 18.6243C24.6085 19.0966 24.028 19.3327 23.3502 19.3327C22.8835 19.3327 22.4502 19.2105 22.0502 18.966C21.6502 18.7216 21.3502 18.3882 21.1502 17.966L20.6835 16.9993C20.628 16.8882 20.5446 16.8049 20.4335 16.7493C20.3224 16.6938 20.2058 16.666 20.0835 16.666H16.9169C16.7946 16.666 16.678 16.6938 16.5669 16.7493C16.4558 16.8049 16.3724 16.8882 16.3169 16.9993L15.8502 17.966C15.6502 18.3882 15.3502 18.7216 14.9502 18.966C14.5502 19.2105 14.1169 19.3327 13.6502 19.3327ZM13.7002 17.9993C13.9113 17.9993 14.103 17.9438 14.2752 17.8327C14.4474 17.7216 14.578 17.5716 14.6669 17.3827L15.1335 16.4327C15.3002 16.0882 15.5446 15.8188 15.8669 15.6243C16.1891 15.4299 16.5391 15.3327 16.9169 15.3327H20.0835C20.4613 15.3327 20.8113 15.4327 21.1335 15.6327C21.4558 15.8327 21.7058 16.0993 21.8835 16.4327L22.3502 17.3827C22.4391 17.5716 22.5696 17.7216 22.7419 17.8327C22.9141 17.9438 23.1058 17.9993 23.3169 17.9993C23.628 17.9993 23.8946 17.8966 24.1169 17.691C24.3391 17.4855 24.4558 17.2271 24.4669 16.916C24.4669 16.9271 24.4558 16.8216 24.4335 16.5993L23.0335 11.016C22.9558 10.716 22.8002 10.4716 22.5669 10.2827C22.3335 10.0938 22.0613 9.99935 21.7502 9.99935H15.2502C14.9391 9.99935 14.6641 10.0938 14.4252 10.2827C14.1863 10.4716 14.0335 10.716 13.9669 11.016L12.5669 16.5993C12.5446 16.666 12.5335 16.766 12.5335 16.8993C12.5335 17.2105 12.6474 17.4716 12.8752 17.6827C13.103 17.8938 13.378 17.9993 13.7002 17.9993ZM19.5002 13.3327C19.6891 13.3327 19.8474 13.2688 19.9752 13.141C20.103 13.0132 20.1669 12.8549 20.1669 12.666C20.1669 12.4771 20.103 12.3188 19.9752 12.191C19.8474 12.0632 19.6891 11.9993 19.5002 11.9993C19.3113 11.9993 19.153 12.0632 19.0252 12.191C18.8974 12.3188 18.8335 12.4771 18.8335 12.666C18.8335 12.8549 18.8974 13.0132 19.0252 13.141C19.153 13.2688 19.3113 13.3327 19.5002 13.3327ZM20.8335 11.9993C21.0224 11.9993 21.1808 11.9355 21.3085 11.8077C21.4363 11.6799 21.5002 11.5216 21.5002 11.3327C21.5002 11.1438 21.4363 10.9855 21.3085 10.8577C21.1808 10.7299 21.0224 10.666 20.8335 10.666C20.6446 10.666 20.4863 10.7299 20.3585 10.8577C20.2308 10.9855 20.1669 11.1438 20.1669 11.3327C20.1669 11.5216 20.2308 11.6799 20.3585 11.8077C20.4863 11.9355 20.6446 11.9993 20.8335 11.9993ZM20.8335 14.666C21.0224 14.666 21.1808 14.6021 21.3085 14.4743C21.4363 14.3466 21.5002 14.1882 21.5002 13.9993C21.5002 13.8105 21.4363 13.6521 21.3085 13.5243C21.1808 13.3966 21.0224 13.3327 20.8335 13.3327C20.6446 13.3327 20.4863 13.3966 20.3585 13.5243C20.2308 13.6521 20.1669 13.8105 20.1669 13.9993C20.1669 14.1882 20.2308 14.3466 20.3585 14.4743C20.4863 14.6021 20.6446 14.666 20.8335 14.666ZM22.1669 13.3327C22.3558 13.3327 22.5141 13.2688 22.6419 13.141C22.7696 13.0132 22.8335 12.8549 22.8335 12.666C22.8335 12.4771 22.7696 12.3188 22.6419 12.191C22.5141 12.0632 22.3558 11.9993 22.1669 11.9993C21.978 11.9993 21.8196 12.0632 21.6919 12.191C21.5641 12.3188 21.5002 12.4771 21.5002 12.666C21.5002 12.8549 21.5641 13.0132 21.6919 13.141C21.8196 13.2688 21.978 13.3327 22.1669 13.3327ZM16.1669 14.3327C16.3113 14.3327 16.4308 14.2855 16.5252 14.191C16.6196 14.0966 16.6669 13.9771 16.6669 13.8327V13.166H17.3335C17.478 13.166 17.5974 13.1188 17.6919 13.0243C17.7863 12.9299 17.8335 12.8105 17.8335 12.666C17.8335 12.5216 17.7863 12.4021 17.6919 12.3077C17.5974 12.2132 17.478 12.166 17.3335 12.166H16.6669V11.4993C16.6669 11.3549 16.6196 11.2355 16.5252 11.141C16.4308 11.0466 16.3113 10.9993 16.1669 10.9993C16.0224 10.9993 15.903 11.0466 15.8085 11.141C15.7141 11.2355 15.6669 11.3549 15.6669 11.4993V12.166H15.0002C14.8558 12.166 14.7363 12.2132 14.6419 12.3077C14.5474 12.4021 14.5002 12.5216 14.5002 12.666C14.5002 12.8105 14.5474 12.9299 14.6419 13.0243C14.7363 13.1188 14.8558 13.166 15.0002 13.166H15.6669V13.8327C15.6669 13.9771 15.7141 14.0966 15.8085 14.191C15.903 14.2855 16.0224 14.3327 16.1669 14.3327Z" fill="white"/>
</g>
</g>
<defs>
<filter id="filter0_d_3918_18435" x="0.5" y="0" width="36" height="36" filterUnits="userSpaceOnUse" color-interpolation-filters="sRGB">
<feFlood flood-opacity="0" result="BackgroundImageFix"/>
<feColorMatrix in="SourceAlpha" type="matrix" values="0 0 0 0 0 0 0 0 0 0 0 0 0 0 0 0 0 0 127 0" result="hardAlpha"/>
<feOffset dy="4"/>
<feGaussianBlur stdDeviation="2"/>
<feComposite in2="hardAlpha" operator="out"/>
<feColorMatrix type="matrix" values="0 0 0 0 0 0 0 0 0 0 0 0 0 0 0 0 0 0 0.1 0"/>
<feBlend mode="normal" in2="BackgroundImageFix" result="effect1_dropShadow_3918_18435"/>
<feBlend mode="normal" in="SourceGraphic" in2="effect1_dropShadow_3918_18435" result="shape"/>
</filter>
</defs>
</svg>
