<svg width="200" height="189" viewBox="0 0 200 189" fill="none" xmlns="http://www.w3.org/2000/svg">
<g id="Layer_1-2">
<path id="Vector" d="M165.865 3.17922C116.175 -10.2008 100.005 40.2692 100.005 40.2692C100.005 40.2692 83.8248 -10.2008 34.1448 3.17922C-13.2152 15.9192 -24.5152 114.799 93.4948 165.729C97.6348 167.519 102.355 167.519 106.495 165.729C224.515 114.799 213.215 15.9192 165.865 3.17922Z" fill="#EC59B1"/>
<path id="Vector_2" d="M52.5645 107.93C54.7445 110.02 54.8045 113.49 52.7045 115.67C51.6345 116.78 50.2045 117.34 48.7745 117.34C47.3445 117.34 46.0345 116.83 44.9745 115.81C23.5745 95.1595 18.3245 74.3395 17.6845 60.4995C16.9845 45.2895 21.5345 34.9695 21.7245 34.5395C22.9645 31.7895 26.2045 30.5595 28.9545 31.7995C31.7045 33.0395 32.9345 36.2595 31.7145 39.0095C31.6545 39.1495 27.9345 47.8395 28.6445 60.5395C29.5845 77.5795 37.6345 93.5195 52.5645 107.93ZM60.8045 116.29C57.6545 116.29 55.0945 118.86 55.0945 122.01C55.0945 125.16 57.6545 127.73 60.8045 127.73C63.9545 127.73 66.5245 125.17 66.5245 122.01C66.5245 118.85 63.9645 116.29 60.8045 116.29Z" fill="white"/>
<g id="Clip path group">
<mask id="mask0_8893_34594" style="mask-type:luminance" maskUnits="userSpaceOnUse" x="113" y="146" width="54" height="40">
<g id="clippath">
<path id="Vector_3" d="M118.685 146.607L113.949 178.336L161.532 185.439L166.268 153.71L118.685 146.607Z" fill="white"/>
</g>
</mask>
<g mask="url(#mask0_8893_34594)">
<g id="Group">
<path id="Vector_4" d="M114.875 178.088C125.265 162.008 148.155 147.698 161.255 153.598C164.195 154.928 165.565 158.388 164.445 161.418C158.705 176.898 138.155 165.328 114.875 178.088Z" fill="#FFAEDC"/>
</g>
</g>
</g>
<g id="Clip path group_2">
<mask id="mask1_8893_34594" style="mask-type:luminance" maskUnits="userSpaceOnUse" x="33" y="146" width="54" height="43">
<g id="clippath-1">
<path id="Vector_5" d="M79.3827 146.912L33.0547 157.123L39.9598 188.451L86.2878 178.24L79.3827 146.912Z" fill="white"/>
</g>
</mask>
<g mask="url(#mask1_8893_34594)">
<g id="Group_2">
<path id="Vector_6" d="M86.0143 177.92C74.5443 162.59 50.7243 149.89 38.0643 156.68C35.2243 158.21 34.0943 161.75 35.4243 164.7C42.2143 179.74 61.9243 166.8 86.0243 177.92H86.0143Z" fill="#FFAEDC"/>
</g>
</g>
</g>
<path id="Vector_7" d="M100.396 175.01C97.2455 175.01 94.6855 177.58 94.6855 180.73C94.6855 183.88 97.2455 186.45 100.396 186.45C103.546 186.45 106.116 183.89 106.116 180.73C106.116 177.57 103.556 175.01 100.396 175.01Z" fill="#FFAEDC"/>
</g>
</svg>
