<svg width="25" height="25" viewBox="0 0 25 25" fill="none" xmlns="http://www.w3.org/2000/svg">
<g id="Heart">
<path id="favorite" d="M10.6374 20.8899L8.7964 19.2051C6.97574 17.5505 5.31832 15.877 3.82413 14.1847C2.32995 12.4924 1.58286 10.594 1.58286 8.48949C1.58286 6.71079 2.17389 5.22539 3.35595 4.03329C4.53802 2.84118 6.01863 2.24512 7.79778 2.24512C8.69828 2.24512 9.55161 2.41836 10.3578 2.76483C11.1639 3.11129 11.8731 3.60343 12.4853 4.24126C13.0974 3.60343 13.8066 3.11129 14.6128 2.76483C15.4189 2.41836 16.2723 2.24512 17.1728 2.24512C18.9557 2.24512 20.4446 2.84118 21.6395 4.03329C22.8344 5.22539 23.4319 6.71079 23.4319 8.48949C23.4319 10.594 22.6817 12.4967 21.1815 14.1977C19.6813 15.8987 18.0035 17.5814 16.1481 19.2458L14.3478 20.8899C13.8211 21.3798 13.2027 21.6247 12.4927 21.6247C11.7827 21.6247 11.1643 21.3798 10.6374 20.8899ZM11.3926 7.10475C10.9481 6.45184 10.432 5.93875 9.84431 5.56548C9.25667 5.19222 8.57583 5.00559 7.80179 5.00559C6.81364 5.00559 5.9902 5.33563 5.33145 5.99572C4.67268 6.65582 4.3433 7.48708 4.3433 8.48949C4.3433 9.37342 4.6571 10.3126 5.2847 11.307C5.91233 12.3014 6.66292 13.2661 7.53647 14.201C8.41003 15.1359 9.30904 16.0113 10.2335 16.8273C11.158 17.6432 11.9086 18.3147 12.4853 18.8416C13.0657 18.3034 13.8202 17.6268 14.7487 16.8118C15.6773 15.9967 16.5802 15.1223 17.4576 14.1883C18.3351 13.2544 19.09 12.2944 19.7226 11.3082C20.3551 10.322 20.6714 9.38246 20.6714 8.48949C20.6714 7.48708 20.3389 6.65582 19.6738 5.99572C19.0088 5.33563 18.1774 5.00559 17.1799 5.00559C16.3984 5.00559 15.7163 5.19222 15.1336 5.56548C14.5509 5.93875 14.0372 6.45184 13.5926 7.10475C13.4584 7.30781 13.2953 7.4601 13.1036 7.56163C12.9118 7.66316 12.7057 7.71392 12.4853 7.71392C12.2649 7.71392 12.0606 7.66316 11.8724 7.56163C11.6843 7.4601 11.5243 7.30781 11.3926 7.10475Z" fill="white"/>
</g>
</svg>
