<svg width="200" height="188" viewBox="0 0 200 188" fill="none" xmlns="http://www.w3.org/2000/svg">
<path d="M165.865 2.49368C116.175 -10.8863 100.005 39.5837 100.005 39.5837C100.005 39.5837 83.8248 -10.8863 34.1448 2.49368C-13.2152 15.2337 -24.5152 114.114 93.4948 165.044C97.6348 166.834 102.355 166.834 106.495 165.044C224.515 114.114 213.215 15.2337 165.865 2.49368Z" fill="#EC59B1"/>
<path d="M52.5645 107.244C54.7445 109.334 54.8045 112.804 52.7045 114.984C51.6345 116.094 50.2045 116.654 48.7745 116.654C47.3445 116.654 46.0345 116.144 44.9745 115.124C23.5745 94.474 18.3245 73.654 17.6845 59.814C16.9845 44.604 21.5345 34.284 21.7245 33.854C22.9645 31.104 26.2045 29.874 28.9545 31.114C31.7045 32.354 32.9345 35.574 31.7145 38.324C31.6545 38.464 27.9345 47.154 28.6445 59.854C29.5845 76.894 37.6345 92.834 52.5645 107.244ZM60.8045 115.604C57.6545 115.604 55.0945 118.174 55.0945 121.324C55.0945 124.474 57.6545 127.044 60.8045 127.044C63.9545 127.044 66.5245 124.484 66.5245 121.324C66.5245 118.164 63.9645 115.604 60.8045 115.604Z" fill="white"/>
<mask id="mask0_8893_34594" style="mask-type:luminance" maskUnits="userSpaceOnUse" x="113" y="145" width="54" height="40">
<path d="M118.685 145.922L113.949 177.65L161.532 184.753L166.268 153.025L118.685 145.922Z" fill="white"/>
</mask>
<g mask="url(#mask0_8893_34594)">
<path d="M114.875 177.402C125.265 161.322 148.155 147.012 161.255 152.912C164.195 154.242 165.565 157.702 164.445 160.732C158.705 176.212 138.155 164.642 114.875 177.402Z" fill="#FFAEDC"/>
</g>
<mask id="mask1_8893_34594" style="mask-type:luminance" maskUnits="userSpaceOnUse" x="33" y="146" width="54" height="42">
<path d="M79.3827 146.226L33.0547 156.438L39.9598 187.766L86.2878 177.554L79.3827 146.226Z" fill="white"/>
</mask>
<g mask="url(#mask1_8893_34594)">
<path d="M86.0143 177.234C74.5443 161.904 50.7243 149.204 38.0643 155.994C35.2243 157.524 34.0943 161.064 35.4243 164.014C42.2143 179.054 61.9243 166.114 86.0243 177.234H86.0143Z" fill="#FFAEDC"/>
</g>
<path d="M100.396 174.324C97.2455 174.324 94.6855 176.894 94.6855 180.044C94.6855 183.194 97.2455 185.764 100.396 185.764C103.546 185.764 106.116 183.204 106.116 180.044C106.116 176.884 103.556 174.324 100.396 174.324Z" fill="#FFAEDC"/>
</svg>
