<?xml version="1.0" encoding="UTF-8" standalone="no"?>
<svg
   width="39"
   height="40"
   viewBox="0 0 39 40"
   fill="none"
   version="1.1"
   id="svg144"
   sodipodi:docname="lightbulb.svg"
   inkscape:version="1.2.1 (9c6d41e, 2022-07-14)"
   xmlns:inkscape="http://www.inkscape.org/namespaces/inkscape"
   xmlns:sodipodi="http://sodipodi.sourceforge.net/DTD/sodipodi-0.dtd"
   xmlns="http://www.w3.org/2000/svg"
   xmlns:svg="http://www.w3.org/2000/svg">
  <defs
     id="defs148" />
  <sodipodi:namedview
     id="namedview146"
     pagecolor="#ffffff"
     bordercolor="#000000"
     borderopacity="0.25"
     inkscape:showpageshadow="2"
     inkscape:pageopacity="0.0"
     inkscape:pagecheckerboard="0"
     inkscape:deskcolor="#d1d1d1"
     showgrid="false"
     inkscape:zoom="25.675"
     inkscape:cx="14.89776"
     inkscape:cy="20.038948"
     inkscape:window-width="3840"
     inkscape:window-height="2107"
     inkscape:window-x="1080"
     inkscape:window-y="25"
     inkscape:window-maximized="0"
     inkscape:current-layer="svg144" />
  <path
     d="M15.0562 37.7669C15.0562 38.5996 15.7375 39.2809 16.5702 39.2809H22.6264C23.4591 39.2809 24.1405 38.5996 24.1405 37.7669V36.2528H15.0562V37.7669ZM19.5983 9C13.7541 9 9 13.7541 9 19.5983C9 23.2017 10.8017 26.3661 13.5421 28.2889V31.7107C13.5421 32.5434 14.2235 33.2247 15.0562 33.2247H24.1405C24.9732 33.2247 25.6545 32.5434 25.6545 31.7107V28.2889C28.3949 26.3661 30.1966 23.2017 30.1966 19.5983C30.1966 13.7541 25.4425 9 19.5983 9ZM23.9133 25.8059L22.6264 26.7143V30.1966H16.5702V26.7143L15.2833 25.8059C13.2393 24.3827 12.0281 22.0662 12.0281 19.5983C12.0281 15.4196 15.4196 12.0281 19.5983 12.0281C23.7771 12.0281 27.1685 15.4196 27.1685 19.5983C27.1685 22.0662 25.9573 24.3827 23.9133 25.8059Z"
     fill="#ffffff"
     id="path132"
     style="fill:#ffffff;stroke:#ffffff" />
  <path
     d="M33.4141 7L31.9998 8.41421"
     stroke="##ffffff"
     stroke-width="3"
     stroke-linecap="round"
     id="path134"
     style="fill:#ffffff;stroke:#ffffff" />
  <path
     d="M6 7L7.41421 8.41421"
     stroke="##ffffff"
     stroke-width="3"
     stroke-linecap="round"
     id="path136"
     style="fill:#ffffff;stroke:#ffffff" />
  <path
     d="M35 21L37 21"
     stroke="##ffffff"
     stroke-width="3"
     stroke-linecap="round"
     id="path138"
     style="fill:#ffffff;stroke:#ffffff" />
  <path
     d="M2 21L4 21"
     stroke="##ffffff"
     stroke-width="3"
     stroke-linecap="round"
     id="path140"
     style="fill:#ffffff;stroke:#ffffff" />
  <path
     d="M20 2L20 4"
     stroke="##ffffff"
     stroke-width="3"
     stroke-linecap="round"
     id="path142"
     style="fill:#ffffff;stroke:#ffffff" />
</svg>
