<svg width="70" height="70" viewBox="0 0 70 70" fill="none" xmlns="http://www.w3.org/2000/svg">
<g id="lock">
<mask id="mask0_2191_356" style="mask-type:alpha" maskUnits="userSpaceOnUse" x="0" y="0" width="70" height="70">
<rect id="Bounding box" width="70" height="70" fill="#D9D9D9"/>
</mask>
<g mask="url(#mask0_2191_356)">
<path id="lock_2" d="M16.042 64.1665C14.8389 64.1665 13.8089 63.7381 12.9521 62.8814C12.0954 62.0246 11.667 60.9946 11.667 59.7915V28.1457C11.667 26.9425 12.0954 25.9126 12.9521 25.0558C13.8089 24.1991 14.8389 23.7707 16.042 23.7707H21.1462V16.7707C21.1462 12.9377 22.4977 9.67041 25.2008 6.96885C27.9038 4.26729 31.1729 2.9165 35.0081 2.9165C38.8432 2.9165 42.1097 4.26729 44.8076 6.96885C47.5055 9.67041 48.8545 12.9377 48.8545 16.7707V23.7707H53.9587C55.1618 23.7707 56.1917 24.1991 57.0485 25.0558C57.9053 25.9126 58.3337 26.9425 58.3337 28.1457V59.7915C58.3337 60.9946 57.9053 62.0246 57.0485 62.8814C56.1917 63.7381 55.1618 64.1665 53.9587 64.1665H16.042ZM16.042 59.7915H53.9587V28.1457H16.042V59.7915ZM35.0126 49.5832C36.56 49.5832 37.8805 49.0477 38.9743 47.9767C40.068 46.9058 40.6149 45.6184 40.6149 44.1144C40.6149 42.6561 40.0639 41.3314 38.962 40.1405C37.8601 38.9495 36.5355 38.354 34.9881 38.354C33.4407 38.354 32.1201 38.9495 31.0264 40.1405C29.9326 41.3314 29.3857 42.6682 29.3857 44.1509C29.3857 45.6335 29.9367 46.9096 31.0386 47.979C32.1405 49.0485 33.4652 49.5832 35.0126 49.5832ZM25.5212 23.7707H44.4795V16.7707C44.4795 14.1376 43.5587 11.8994 41.7173 10.0563C39.8757 8.2131 37.6396 7.2915 35.0089 7.2915C32.3782 7.2915 30.1392 8.2131 28.292 10.0563C26.4448 11.8994 25.5212 14.1376 25.5212 16.7707V23.7707Z" fill="white"/>
</g>
</g>
</svg>
