<svg width="56" height="56" viewBox="0 0 56 56" fill="none" xmlns="http://www.w3.org/2000/svg">
<mask id="mask0_1875_775" style="mask-type:alpha" maskUnits="userSpaceOnUse" x="0" y="0" width="56" height="56">
<rect x="0.285706" y="0.285706" width="55.4286" height="55.4286" fill="#D9D9D9"/>
</mask>
<g mask="url(#mask0_1875_775)">
<path d="M15.2976 37.2375C17.1067 37.2375 18.8677 37.4396 20.5806 37.8438C22.2935 38.248 23.9968 38.8542 25.6905 39.6625V16.9137C24.1123 15.9899 22.4379 15.2971 20.6672 14.8352C18.8966 14.3733 17.1067 14.1423 15.2976 14.1423C13.9119 14.1423 12.5358 14.277 11.1693 14.5465C9.80285 14.8159 8.4845 15.2201 7.21426 15.759V38.6233C8.56148 38.1614 9.89908 37.8149 11.2271 37.584C12.555 37.353 13.9119 37.2375 15.2976 37.2375ZM30.3095 39.6625C32.0032 38.8542 33.7064 38.248 35.4193 37.8438C37.1322 37.4396 38.8932 37.2375 40.7024 37.2375C42.0881 37.2375 43.4449 37.353 44.7729 37.584C46.1009 37.8149 47.4385 38.1614 48.7857 38.6233V15.759C47.5155 15.2201 46.1971 14.8159 44.8306 14.5465C43.4642 14.277 42.0881 14.1423 40.7024 14.1423C38.8932 14.1423 37.1034 14.3733 35.3327 14.8352C33.5621 15.2971 31.8877 15.9899 30.3095 16.9137V39.6625ZM28 46.4756C26.1524 45.0129 24.1508 43.8774 21.9952 43.0691C19.8397 42.2608 17.6071 41.8566 15.2976 41.8566C13.6809 41.8566 12.0931 42.0683 10.5342 42.4917C8.97527 42.9151 7.48371 43.5117 6.0595 44.2816C5.25117 44.705 4.4717 44.6858 3.72111 44.2239C2.97051 43.7619 2.59521 43.0883 2.59521 42.203V14.3733C2.59521 13.9498 2.70107 13.5457 2.91277 13.1608C3.12448 12.7758 3.44204 12.4871 3.86545 12.2947C5.63609 11.3709 7.48371 10.678 9.40831 10.2161C11.3329 9.75421 13.296 9.52325 15.2976 9.52325C17.5301 9.52325 19.7146 9.81194 21.8509 10.3893C23.9872 10.9667 26.0369 11.8328 28 12.9875C29.9631 11.8328 32.0128 10.9667 34.1491 10.3893C36.2854 9.81194 38.4698 9.52325 40.7024 9.52325C42.7039 9.52325 44.667 9.75421 46.5916 10.2161C48.5163 10.678 50.3639 11.3709 52.1345 12.2947C52.5579 12.4871 52.8755 12.7758 53.0872 13.1608C53.2989 13.5457 53.4047 13.9498 53.4047 14.3733V42.203C53.4047 43.0883 53.0294 43.7619 52.2788 44.2239C51.5283 44.6858 50.7488 44.705 49.9405 44.2816C48.5162 43.5117 47.0247 42.9151 45.4658 42.4917C43.9068 42.0683 42.319 41.8566 40.7024 41.8566C38.3928 41.8566 36.1603 42.2608 34.0047 43.0691C31.8492 43.8774 29.8476 45.0129 28 46.4756Z" fill="white"/>
</g>
</svg>
