<svg width="33" height="32" viewBox="0 0 33 32" fill="none" xmlns="http://www.w3.org/2000/svg">
<g id="Profile Icon">
<path id="Ellipse 10 (Stroke)" fill-rule="evenodd" clip-rule="evenodd" d="M29.1579 28.0505C29.0082 27.4706 28.8178 26.9007 28.5876 26.3449C27.9416 24.7853 26.9948 23.3683 25.8011 22.1746C24.6075 20.981 23.1904 20.0341 21.6308 19.3881C20.0713 18.7421 18.3997 18.4097 16.7117 18.4097C15.0236 18.4097 13.3521 18.7421 11.7925 19.3881C10.2329 20.0341 8.81585 20.981 7.6222 22.1746C6.42856 23.3683 5.48171 24.7853 4.83571 26.3449C4.60551 26.9007 4.41513 27.4706 4.26541 28.0505L29.1579 28.0505ZM29.5709 28.0501C29.571 28.0502 29.5698 28.0504 29.5674 28.0505L29.5709 28.0501ZM3.85242 28.0501C3.85244 28.05 3.85365 28.05 3.85596 28.0505L3.85242 28.0501ZM32.4594 28.0718C32.812 29.8113 31.3409 31.2641 29.5661 31.2641H3.85723C2.0824 31.2641 0.611305 29.8113 0.963911 28.0718C1.16862 27.062 1.4705 26.0717 1.86672 25.1151C2.67422 23.1657 3.85778 21.3943 5.34984 19.9023C6.8419 18.4102 8.61322 17.2266 10.5627 16.4192C12.5122 15.6117 14.6016 15.196 16.7117 15.196C18.8218 15.196 20.9112 15.6117 22.8606 16.4192C24.8101 17.2266 26.5814 18.4102 28.0735 19.9023C29.5656 21.3943 30.7491 23.1657 31.5566 25.1151C31.9528 26.0717 32.2547 27.062 32.4594 28.0718Z" fill="#006A67"/>
<path id="Ellipse 11 (Stroke)" fill-rule="evenodd" clip-rule="evenodd" d="M16.7126 10.7328C18.6846 10.7328 20.2833 9.13412 20.2833 7.16208C20.2833 5.19005 18.6846 3.59141 16.7126 3.59141C14.7406 3.59141 13.1419 5.19005 13.1419 7.16208C13.1419 9.13412 14.7406 10.7328 16.7126 10.7328ZM16.7126 13.5893C20.2622 13.5893 23.1398 10.7117 23.1398 7.16208C23.1398 3.61243 20.2622 0.734863 16.7126 0.734863C13.1629 0.734863 10.2854 3.61243 10.2854 7.16208C10.2854 10.7117 13.1629 13.5893 16.7126 13.5893Z" fill="#006A67"/>
</g>
</svg>
