<svg width="31" height="34" viewBox="0 0 31 34" fill="none" xmlns="http://www.w3.org/2000/svg">
<g id="Home">
<path id="home" d="M10.6983 31.1118V26.184C10.6982 24.9352 11.7137 23.9207 12.9714 23.9129H17.5896C18.853 23.9129 19.8772 24.9297 19.8772 26.184V31.0975C19.8772 32.1806 20.7573 33.0608 21.8482 33.0687H24.999C26.4705 33.0725 27.8831 32.4948 28.925 31.4631C29.9668 30.4313 30.5524 29.0304 30.5524 27.5695V13.5715C30.5523 12.3914 30.0255 11.2719 29.1137 10.5148L18.4097 2.01604C16.5386 0.529506 13.8663 0.577526 12.0506 2.1303L1.57687 10.5148C0.621993 11.2496 0.0512744 12.3724 0.0230713 13.5715V27.5552C0.0230713 30.6002 2.50941 33.0687 5.57647 33.0687H8.6553C9.18053 33.0725 9.68557 32.868 10.0583 32.5006C10.4311 32.1332 10.6407 31.6333 10.6407 31.1118H10.6983Z" fill="#006A67"/>
</g>
</svg>
