<svg width="39" height="40" viewBox="0 0 39 40" fill="none" xmlns="http://www.w3.org/2000/svg">
<g id="Heart">
<mask id="mask0_2337_4327" style="mask-type:alpha" maskUnits="userSpaceOnUse" x="0" y="0" width="39" height="40">
<rect id="Bounding box" x="0.324219" y="0.718262" width="38.5633" height="38.5633" fill="#D9D9D9"/>
</mask>
<g mask="url(#mask0_2337_4327)">
<path id="favorite" d="M16.7328 32.943L13.8929 30.3442C11.0845 27.7919 8.52788 25.2105 6.22305 22.6001C3.91822 19.9896 2.76581 17.0612 2.76581 13.815C2.76581 11.0713 3.6775 8.78004 5.50087 6.94118C7.32425 5.1023 9.60814 4.18286 12.3525 4.18286C13.7416 4.18286 15.0579 4.45009 16.3014 4.98454C17.545 5.51896 18.6389 6.27811 19.5832 7.26198C20.5274 6.27811 21.6213 5.51896 22.8649 4.98454C24.1084 4.45009 25.4247 4.18286 26.8138 4.18286C29.5639 4.18286 31.8606 5.1023 33.7038 6.94118C35.547 8.78004 36.4686 11.0713 36.4686 13.815C36.4686 17.0612 35.3115 19.9963 32.9974 22.6201C30.6832 25.244 28.0952 27.8396 25.2332 30.407L22.4562 32.943C21.6437 33.6987 20.6898 34.0765 19.5946 34.0765C18.4995 34.0765 17.5455 33.6987 16.7328 32.943ZM17.8977 11.679C17.212 10.6719 16.4158 9.8804 15.5094 9.30463C14.6029 8.72886 13.5527 8.44098 12.3587 8.44098C10.8345 8.44098 9.56428 8.95008 8.54814 9.96828C7.53197 10.9865 7.02388 12.2688 7.02388 13.815C7.02388 15.1785 7.50793 16.6272 8.47603 18.1611C9.44416 19.695 10.602 21.1831 11.9495 22.6252C13.297 24.0673 14.6837 25.4177 16.1097 26.6763C17.5357 27.9349 18.6935 28.9707 19.5832 29.7835C20.4785 28.9533 21.6424 27.9096 23.0746 26.6524C24.5069 25.3952 25.8998 24.0463 27.2532 22.6057C28.6066 21.1651 29.7712 19.6842 30.747 18.163C31.7227 16.6418 32.2105 15.1925 32.2105 13.815C32.2105 12.2688 31.6976 10.9865 30.6717 9.96828C29.6459 8.95008 28.3635 8.44098 26.8247 8.44098C25.6193 8.44098 24.5672 8.72886 23.6683 9.30463C22.7694 9.8804 21.9771 10.6719 21.2913 11.679C21.0842 11.9922 20.8327 12.2271 20.5369 12.3838C20.241 12.5404 19.9231 12.6187 19.5832 12.6187C19.2432 12.6187 18.928 12.5404 18.6378 12.3838C18.3476 12.2271 18.1009 11.9922 17.8977 11.679Z" fill="#006A67"/>
</g>
</g>
</svg>
