<svg width="33" height="33" viewBox="0 0 33 33" fill="none" xmlns="http://www.w3.org/2000/svg">
<path d="M16.5004 0.684326C7.69191 0.684326 0.542969 7.83326 0.542969 16.6418C0.542969 25.4503 7.69191 32.5992 16.5004 32.5992C25.3089 32.5992 32.4579 25.4503 32.4579 16.6418C32.4579 7.83326 25.3089 0.684326 16.5004 0.684326ZM16.5004 29.4077C9.44722 29.4077 3.73446 23.695 3.73446 16.6418C3.73446 13.6896 4.73978 10.9769 6.43127 8.82262L24.3196 26.7109C22.1653 28.4024 19.4525 29.4077 16.5004 29.4077ZM26.5696 24.4609L8.68127 6.57262C10.8355 4.88113 13.5483 3.87582 16.5004 3.87582C23.5536 3.87582 29.2664 9.58858 29.2664 16.6418C29.2664 19.5939 28.2611 22.3067 26.5696 24.4609Z" fill="black" fill-opacity="0.56"/>
</svg>
