<svg width="71" height="71" viewBox="0 0 71 71" fill="none" xmlns="http://www.w3.org/2000/svg">
<g id="Icon">
<mask id="mask0_3121_2264" style="mask-type:alpha" maskUnits="userSpaceOnUse" x="0" y="0" width="71" height="71">
<rect id="Bounding box" x="0.341309" y="0.191406" width="70.1171" height="70.1171" fill="#D9D9D9"/>
</mask>
<g mask="url(#mask0_3121_2264)">
<path id="stadia_controller" d="M14.1454 58.6237C11.2238 58.6237 8.72834 57.5768 6.65891 55.483C4.58948 53.3892 3.50608 50.8572 3.40869 47.887C3.40869 47.4487 3.43304 47.0105 3.48173 46.5723C3.53042 46.1341 3.60346 45.6958 3.70085 45.2576L9.8361 20.7166C10.5178 18.0872 11.9055 15.9569 13.9993 14.3257C16.0931 12.6945 18.479 11.8789 21.1571 11.8789H49.6422C52.3203 11.8789 54.7062 12.6945 56.8 14.3257C58.8937 15.9569 60.2815 18.0872 60.9632 20.7166L67.0984 45.2576C67.1958 45.6958 67.281 46.1462 67.3541 46.6088C67.4271 47.0714 67.4636 47.5218 67.4636 47.96C67.4636 50.9303 66.4046 53.4501 64.2864 55.5195C62.1683 57.589 59.6241 58.6237 56.6539 58.6237C54.6088 58.6237 52.7098 58.0881 50.9569 57.0168C49.204 55.9456 47.8893 54.4848 47.0128 52.6345L44.9677 48.3983C44.7242 47.9113 44.3591 47.5461 43.8721 47.3027C43.3852 47.0592 42.8739 46.9375 42.3383 46.9375H28.461C27.9253 46.9375 27.4141 47.0592 26.9272 47.3027C26.4402 47.5461 26.075 47.9113 25.8316 48.3983L23.7865 52.6345C22.91 54.4848 21.5953 55.9456 19.8424 57.0168C18.0895 58.0881 16.1905 58.6237 14.1454 58.6237ZM14.3645 52.7806C15.2897 52.7806 16.1296 52.5371 16.8843 52.0502C17.6391 51.5633 18.2112 50.9059 18.6007 50.0781L20.6458 45.9149C21.3762 44.4055 22.4474 43.2247 23.8595 42.3726C25.2716 41.5204 26.8054 41.0944 28.461 41.0944H42.3383C43.9939 41.0944 45.5277 41.5326 46.9398 42.4091C48.3518 43.2855 49.4474 44.4542 50.2265 45.9149L52.2716 50.0781C52.6611 50.9059 53.2333 51.5633 53.988 52.0502C54.7427 52.5371 55.5827 52.7806 56.5078 52.7806C57.8712 52.7806 59.0398 52.3302 60.0137 51.4294C60.9875 50.5285 61.4988 49.3964 61.5475 48.0331C61.5475 48.0818 61.4988 47.6192 61.4014 46.6453L55.2662 22.1774C54.9253 20.8627 54.2436 19.7914 53.2211 18.9637C52.1985 18.1359 51.0056 17.722 49.6422 17.722H21.1571C19.7937 17.722 18.5886 18.1359 17.5417 18.9637C16.4948 19.7914 15.8253 20.8627 15.5331 22.1774L9.39786 46.6453C9.30048 46.9375 9.25179 47.3757 9.25179 47.96C9.25179 49.3234 9.75088 50.4677 10.7491 51.3928C11.7473 52.318 12.9524 52.7806 14.3645 52.7806ZM39.782 32.3297C40.6097 32.3297 41.3036 32.0498 41.8636 31.4898C42.4235 30.9298 42.7035 30.236 42.7035 29.4082C42.7035 28.5804 42.4235 27.8866 41.8636 27.3266C41.3036 26.7666 40.6097 26.4866 39.782 26.4866C38.9542 26.4866 38.2603 26.7666 37.7004 27.3266C37.1404 27.8866 36.8604 28.5804 36.8604 29.4082C36.8604 30.236 37.1404 30.9298 37.7004 31.4898C38.2603 32.0498 38.9542 32.3297 39.782 32.3297ZM45.6251 26.4866C46.4528 26.4866 47.1467 26.2067 47.7067 25.6467C48.2666 25.0867 48.5466 24.3929 48.5466 23.5651C48.5466 22.7373 48.2666 22.0435 47.7067 21.4835C47.1467 20.9235 46.4528 20.6435 45.6251 20.6435C44.7973 20.6435 44.1034 20.9235 43.5435 21.4835C42.9835 22.0435 42.7035 22.7373 42.7035 23.5651C42.7035 24.3929 42.9835 25.0867 43.5435 25.6467C44.1034 26.2067 44.7973 26.4866 45.6251 26.4866ZM45.6251 38.1728C46.4528 38.1728 47.1467 37.8929 47.7067 37.3329C48.2666 36.7729 48.5466 36.0791 48.5466 35.2513C48.5466 34.4235 48.2666 33.7296 47.7067 33.1697C47.1467 32.6097 46.4528 32.3297 45.6251 32.3297C44.7973 32.3297 44.1034 32.6097 43.5435 33.1697C42.9835 33.7296 42.7035 34.4235 42.7035 35.2513C42.7035 36.0791 42.9835 36.7729 43.5435 37.3329C44.1034 37.8929 44.7973 38.1728 45.6251 38.1728ZM51.4681 32.3297C52.2959 32.3297 52.9898 32.0498 53.5498 31.4898C54.1097 30.9298 54.3897 30.236 54.3897 29.4082C54.3897 28.5804 54.1097 27.8866 53.5498 27.3266C52.9898 26.7666 52.2959 26.4866 51.4681 26.4866C50.6404 26.4866 49.9465 26.7666 49.3865 27.3266C48.8266 27.8866 48.5466 28.5804 48.5466 29.4082C48.5466 30.236 48.8266 30.9298 49.3865 31.4898C49.9465 32.0498 50.6404 32.3297 51.4681 32.3297ZM25.1742 36.7121C25.8072 36.7121 26.3307 36.5051 26.7446 36.0912C27.1584 35.6773 27.3654 35.1539 27.3654 34.5209V31.5994H30.2869C30.9199 31.5994 31.4434 31.3924 31.8573 30.9785C32.2711 30.5646 32.4781 30.0412 32.4781 29.4082C32.4781 28.7752 32.2711 28.2517 31.8573 27.8379C31.4434 27.424 30.9199 27.217 30.2869 27.217H27.3654V24.2955C27.3654 23.6625 27.1584 23.139 26.7446 22.7252C26.3307 22.3113 25.8072 22.1043 25.1742 22.1043C24.5412 22.1043 24.0178 22.3113 23.6039 22.7252C23.19 23.139 22.9831 23.6625 22.9831 24.2955V27.217H20.0615C19.4285 27.217 18.9051 27.424 18.4912 27.8379C18.0773 28.2517 17.8704 28.7752 17.8704 29.4082C17.8704 30.0412 18.0773 30.5646 18.4912 30.9785C18.9051 31.3924 19.4285 31.5994 20.0615 31.5994H22.9831V34.5209C22.9831 35.1539 23.19 35.6773 23.6039 36.0912C24.0178 36.5051 24.5412 36.7121 25.1742 36.7121Z" fill="white"/>
</g>
</g>
</svg>
