<svg width="30" height="29" viewBox="0 0 30 29" fill="none" xmlns="http://www.w3.org/2000/svg">
<path fill-rule="evenodd" clip-rule="evenodd" d="M16.4516 25.8132H23.6324V19.4302H16.4516V25.8132ZM6.07925 25.8132H13.2601V19.4302H6.07925V25.8132ZM3.68563 10.1749C3.68563 10.0424 3.70638 9.93551 3.72712 9.85572H8.70106H13.2601V16.2387H3.72712C3.70638 16.1589 3.68563 16.052 3.68563 15.9195V10.1749ZM6.87712 5.06848C6.87712 4.18763 7.69574 3.47274 8.70106 3.47274C10.7069 3.47274 11.9356 5.2121 12.6122 6.66423H8.70106C7.69574 6.66423 6.87712 5.94934 6.87712 5.06848ZM21.0106 3.47274C22.016 3.47274 22.8346 4.18763 22.8346 5.06848C22.8346 5.94934 22.016 6.66423 21.0106 6.66423H17.0899C17.7601 5.2121 18.9856 3.47274 21.0106 3.47274ZM26.0261 10.1749V15.9195C26.0261 16.052 26.0053 16.1589 25.9846 16.2387H16.4516V9.85572H21.0106H25.9846C26.0053 9.93551 26.0261 10.0424 26.0261 10.1749ZM26.3452 6.66423H25.7181C25.9064 6.16316 26.0261 5.63178 26.0261 5.06848C26.0261 2.42912 23.7761 0.28125 21.0106 0.28125C17.9436 0.28125 16.0191 2.19455 14.8558 4.10625C13.6925 2.19455 11.7681 0.28125 8.70106 0.28125C5.93563 0.28125 3.68563 2.42912 3.68563 5.06848C3.68563 5.63178 3.80691 6.16316 3.99361 6.66423H3.36648C1.75637 6.66423 0.494141 8.20731 0.494141 10.1749V15.9195C0.494141 17.686 1.51542 19.0999 2.88776 19.3727V26.3445C2.88776 27.811 4.1851 29.0047 5.77925 29.0047H23.9308C25.5266 29.0047 26.8239 27.811 26.8239 26.3445V19.3727C28.1963 19.0999 29.2175 17.686 29.2175 15.9195V10.1749C29.2175 8.20731 27.9553 6.66423 26.3452 6.66423Z" fill="#973D78"/>
</svg>
