<svg width="39" height="39" viewBox="0 0 39 39" fill="none" xmlns="http://www.w3.org/2000/svg">
<g id="Icons / Fire" clip-path="url(#clip0_6868_30090)">
<path id="Vector" d="M30.6706 13.1193H29.0749V5.14062H9.92595V13.1193H8.3302C5.68127 13.1193 3.54297 15.2576 3.54297 17.9066V27.481H9.92595V33.864H29.0749V27.481H35.4579V17.9066C35.4579 15.2576 33.3196 13.1193 30.6706 13.1193ZM13.1174 8.33211H25.8834V13.1193H13.1174V8.33211ZM25.8834 27.481V30.6725H13.1174V24.2896H25.8834V27.481ZM29.0749 24.2896V21.0981H9.92595V24.2896H6.73446V17.9066C6.73446 17.0289 7.45254 16.3108 8.3302 16.3108H30.6706C31.5483 16.3108 32.2664 17.0289 32.2664 17.9066V24.2896H29.0749Z" fill="#CAA900"/>
<path id="Vector_2" d="M29.0752 20.297C29.9565 20.297 30.671 19.5825 30.671 18.7012C30.671 17.8199 29.9565 17.1055 29.0752 17.1055C28.1939 17.1055 27.4795 17.8199 27.4795 18.7012C27.4795 19.5825 28.1939 20.297 29.0752 20.297Z" fill="#CAA900"/>
</g>
<defs>
<clipPath id="clip0_6868_30090">
<rect width="38.2979" height="38.2979" fill="white" transform="translate(0.351562 0.351562)"/>
</clipPath>
</defs>
</svg>
