<svg width="25" height="25" viewBox="0 0 25 25" fill="none" xmlns="http://www.w3.org/2000/svg">
<g id="Icon" clip-path="url(#clip0_8974_19454)">
<path id="Vector" d="M19.6992 8.5H18.6992V3.5H6.69922V8.5H5.69922C4.03922 8.5 2.69922 9.84 2.69922 11.5V17.5H6.69922V21.5H18.6992V17.5H22.6992V11.5C22.6992 9.84 21.3592 8.5 19.6992 8.5ZM8.69922 5.5H16.6992V8.5H8.69922V5.5ZM16.6992 17.5V19.5H8.69922V15.5H16.6992V17.5ZM18.6992 15.5V13.5H6.69922V15.5H4.69922V11.5C4.69922 10.95 5.14922 10.5 5.69922 10.5H19.6992C20.2492 10.5 20.6992 10.95 20.6992 11.5V15.5H18.6992Z" fill="white"/>
<path id="Vector_2" d="M18.6992 13C19.2515 13 19.6992 12.5523 19.6992 12C19.6992 11.4477 19.2515 11 18.6992 11C18.1469 11 17.6992 11.4477 17.6992 12C17.6992 12.5523 18.1469 13 18.6992 13Z" fill="#323232"/>
</g>
<defs>
<clipPath id="clip0_8974_19454">
<rect width="24" height="24" fill="white" transform="translate(0.699219 0.5)"/>
</clipPath>
</defs>
</svg>
