<svg width="13" height="16" viewBox="0 0 13 16" fill="none" xmlns="http://www.w3.org/2000/svg">
<path fill-rule="evenodd" clip-rule="evenodd" d="M7.09799 8.37009V10.4191C8.05549 9.18183 9.49032 8.40719 11.0766 8.40719H11.9022C12.2327 8.40719 12.5 8.69522 12.5 9.04986V9.93678C12.5 13.0015 10.1765 15.5 7.32525 15.5H5.67475C2.82404 15.5 0.5 13.0021 0.5 9.93678V9.04986C0.5 8.6946 0.767917 8.40719 1.0978 8.40719H1.92336C3.50968 8.40719 4.94443 9.18185 5.90201 10.4191V8.37009C4.05808 8.05799 2.66284 6.33595 2.66284 4.29502L2.66341 1.14267C2.66341 0.787413 2.93133 0.5 3.26121 0.5C3.44766 0.5 3.61403 0.591281 3.72361 0.735609L4.9737 2.16096L6.03563 0.741151C6.24216 0.465453 6.61736 0.421669 6.87438 0.643085C6.91167 0.675156 6.94437 0.71093 6.97191 0.749786L8.02695 2.16096L9.30459 0.703523C9.53006 0.445715 9.90813 0.433383 10.1479 0.675769C10.2724 0.802206 10.3373 0.972434 10.3373 1.14266V4.295C10.3373 6.33593 8.94249 8.0573 7.09799 8.37009ZM6.50019 2.16661L5.48244 3.52783C5.25067 3.84485 4.82497 3.8615 4.57484 3.57655L3.85886 2.75994V4.29509C3.85886 5.85798 5.04585 7.13402 6.49954 7.13402C7.9533 7.13402 9.14082 5.85792 9.14082 4.29509V2.75994L8.42484 3.57655C8.17814 3.85718 7.75475 3.84546 7.52584 3.53893L6.50019 2.16661ZM1.92378 9.69244H1.69602V9.93669C1.69602 12.2915 3.48428 14.214 5.67467 14.214H5.90187V13.9698C5.90187 11.615 4.11417 9.69244 1.92378 9.69244ZM7.09853 13.9698V14.214H7.32572C9.51611 14.214 11.3044 12.2915 11.3044 9.93669V9.69244H11.0772C8.8868 9.69244 7.09853 11.615 7.09853 13.9698Z" fill="white"/>
</svg>
