<svg width="24" height="25" viewBox="0 0 24 25" fill="none" xmlns="http://www.w3.org/2000/svg">
<g id="Icons / Question / Mark Circle" opacity="0.5">
<path id="Color" fill-rule="evenodd" clip-rule="evenodd" d="M8.5 10.167C8.5 8.23699 10.07 6.66699 12 6.66699C13.93 6.66699 15.5 8.23699 15.5 10.167C15.5 11.747 14.44 13.07 13 13.504V14.667C13 15.22 12.553 15.667 12 15.667C11.447 15.667 11 15.22 11 14.667V12.667C11 12.114 11.447 11.667 12 11.667C12.827 11.667 13.5 10.994 13.5 10.167C13.5 9.33999 12.827 8.66699 12 8.66699C11.173 8.66699 10.5 9.33999 10.5 10.167C10.5 10.72 10.053 11.167 9.5 11.167C8.947 11.167 8.5 10.72 8.5 10.167ZM11 17.667C11 17.114 11.447 16.667 12 16.667C12.553 16.667 13 17.114 13 17.667C13 18.22 12.553 18.667 12 18.667C11.447 18.667 11 18.22 11 17.667ZM12 20.667C7.589 20.667 4 17.078 4 12.667C4 8.25599 7.589 4.66699 12 4.66699C16.411 4.66699 20 8.25599 20 12.667C20 17.078 16.411 20.667 12 20.667ZM12 2.66699C6.486 2.66699 2 7.15299 2 12.667C2 18.181 6.486 22.667 12 22.667C17.514 22.667 22 18.181 22 12.667C22 7.15299 17.514 2.66699 12 2.66699Z" fill="black"/>
</g>
</svg>
