<svg width="85" height="51" viewBox="0 0 85 51" fill="none" xmlns="http://www.w3.org/2000/svg">
<rect x="17.278" y="0.355469" width="50.367" height="50.1306" rx="25.0653" fill="#FF5708"/>
<g clip-path="url(#clip0_1805_44950)">
<path d="M52.8462 15.4629C50.1786 12.9075 46.5176 11.3213 42.4519 11.3213C34.3204 11.3213 27.7526 17.6307 27.7526 25.4205C27.7526 33.2104 34.3204 39.5198 42.4519 39.5198C49.314 39.5198 55.0355 35.0256 56.6728 28.9453H52.8462C51.3376 33.0517 47.2535 35.995 42.4519 35.995C36.3624 35.995 31.4136 31.2541 31.4136 25.4205C31.4136 19.587 36.3624 14.8461 42.4519 14.8461C45.5058 14.8461 48.2285 16.0622 50.2154 17.9832L44.2916 23.6581H57.1695V11.3213L52.8462 15.4629Z" fill="#630F00"/>
</g>
<defs>
<clipPath id="clip0_1805_44950">
<rect width="36.2054" height="33.4204" fill="white" transform="translate(24.3586 8.71045)"/>
</clipPath>
</defs>
</svg>
