<svg width="26" height="26" viewBox="0 0 26 26" fill="none" xmlns="http://www.w3.org/2000/svg">
<path d="M22.2871 14.225C22.3371 13.825 22.3746 13.425 22.3746 13C22.3746 12.575 22.3371 12.175 22.2871 11.775L24.9246 9.7125C25.1621 9.525 25.2246 9.1875 25.0746 8.9125L22.5746 4.5875C22.4621 4.3875 22.2496 4.275 22.0246 4.275C21.9496 4.275 21.8746 4.2875 21.8121 4.3125L18.6996 5.5625C18.0496 5.0625 17.3496 4.65 16.5871 4.3375L16.1121 1.025C16.0746 0.725 15.8121 0.5 15.4996 0.5H10.4996C10.1871 0.5 9.92456 0.725 9.88706 1.025L9.41206 4.3375C8.64956 4.65 7.94956 5.075 7.29956 5.5625L4.18706 4.3125C4.11206 4.2875 4.03706 4.275 3.96206 4.275C3.74956 4.275 3.53706 4.3875 3.42456 4.5875L0.924555 8.9125C0.762055 9.1875 0.837055 9.525 1.07456 9.7125L3.71206 11.775C3.66206 12.175 3.62456 12.5875 3.62456 13C3.62456 13.4125 3.66206 13.825 3.71206 14.225L1.07456 16.2875C0.837055 16.475 0.774555 16.8125 0.924555 17.0875L3.42456 21.4125C3.53706 21.6125 3.74956 21.725 3.97456 21.725C4.04956 21.725 4.12456 21.7125 4.18706 21.6875L7.29956 20.4375C7.94956 20.9375 8.64956 21.35 9.41206 21.6625L9.88706 24.975C9.92456 25.275 10.1871 25.5 10.4996 25.5H15.4996C15.8121 25.5 16.0746 25.275 16.1121 24.975L16.5871 21.6625C17.3496 21.35 18.0496 20.925 18.6996 20.4375L21.8121 21.6875C21.8871 21.7125 21.9621 21.725 22.0371 21.725C22.2496 21.725 22.4621 21.6125 22.5746 21.4125L25.0746 17.0875C25.2246 16.8125 25.1621 16.475 24.9246 16.2875L22.2871 14.225V14.225ZM19.8121 12.0875C19.8621 12.475 19.8746 12.7375 19.8746 13C19.8746 13.2625 19.8496 13.5375 19.8121 13.9125L19.6371 15.325L20.7496 16.2L22.0996 17.25L21.2246 18.7625L19.6371 18.125L18.3371 17.6L17.2121 18.45C16.6746 18.85 16.1621 19.15 15.6496 19.3625L14.3246 19.9L14.1246 21.3125L13.8746 23H12.1246L11.8871 21.3125L11.6871 19.9L10.3621 19.3625C9.82456 19.1375 9.32455 18.85 8.82455 18.475L7.68705 17.6L6.36206 18.1375L4.77456 18.775L3.89956 17.2625L5.24956 16.2125L6.36206 15.3375L6.18706 13.925C6.14956 13.5375 6.12455 13.25 6.12455 13C6.12455 12.75 6.14956 12.4625 6.18706 12.0875L6.36206 10.675L5.24956 9.8L3.89956 8.75L4.77456 7.2375L6.36206 7.875L7.66206 8.4L8.78706 7.55C9.32456 7.15 9.83706 6.85 10.3496 6.6375L11.6746 6.1L11.8746 4.6875L12.1246 3H13.8621L14.0996 4.6875L14.2996 6.1L15.6246 6.6375C16.1621 6.8625 16.6621 7.15 17.1621 7.525L18.2996 8.4L19.6246 7.8625L21.2121 7.225L22.0871 8.7375L20.7496 9.8L19.6371 10.675L19.8121 12.0875ZM12.9996 8C10.2371 8 7.99955 10.2375 7.99955 13C7.99955 15.7625 10.2371 18 12.9996 18C15.7621 18 17.9996 15.7625 17.9996 13C17.9996 10.2375 15.7621 8 12.9996 8ZM12.9996 15.5C11.6246 15.5 10.4996 14.375 10.4996 13C10.4996 11.625 11.6246 10.5 12.9996 10.5C14.3746 10.5 15.4996 11.625 15.4996 13C15.4996 14.375 14.3746 15.5 12.9996 15.5Z" fill="#323232"/>
</svg>
