<svg width="1366" height="335" viewBox="0 0 1366 335" fill="none" xmlns="http://www.w3.org/2000/svg">
<path opacity="0.03" fill-rule="evenodd" clip-rule="evenodd" d="M1012.48 0C1008.1 0 1004.54 3.44754 1003.85 7.77613C998.6 41.1009 971.223 67.0634 938.845 69.7653C934.301 70.1446 930.489 73.7401 930.489 78.3003V95.1682C892.233 97.7439 862 129.591 862 168.5C862 207.409 892.233 239.256 930.489 241.832V258.688C930.489 263.254 934.306 266.855 938.857 267.236C970.489 269.883 997.465 294.737 1003.5 327.12C1004.32 331.53 1008 335 1012.48 335C1016.97 335 1020.64 331.53 1021.47 327.12C1027.5 294.737 1054.48 269.883 1086.11 267.236C1090.66 266.855 1094.48 263.254 1094.48 258.688V241.761C1132.27 238.719 1162 207.081 1162 168.5C1162 129.919 1132.27 98.2808 1094.48 95.2394V78.3002C1094.48 73.7401 1090.66 70.1446 1086.12 69.7653C1053.74 67.0634 1026.36 41.1009 1021.11 7.77613C1020.43 3.44753 1016.86 0 1012.48 0Z" fill="black" fill-opacity="0.56"/>
<path opacity="0.03" fill-rule="evenodd" clip-rule="evenodd" d="M680.482 0C676.1 0 672.535 3.44754 671.853 7.77613C666.6 41.1009 639.223 67.0634 606.845 69.7653C602.301 70.1446 598.489 73.7401 598.489 78.3003V95.1682C560.233 97.7439 530 129.591 530 168.5C530 207.409 560.233 239.256 598.489 241.832V258.688C598.489 263.254 602.306 266.855 606.857 267.236C638.489 269.883 665.465 294.737 671.499 327.12C672.32 331.53 675.997 335 680.482 335C684.968 335 688.644 331.53 689.466 327.12C695.5 294.737 722.475 269.883 754.108 267.236C758.658 266.855 762.476 263.254 762.476 258.688V241.761C800.274 238.719 830 207.081 830 168.5C830 129.919 800.274 98.2808 762.476 95.2394V78.3002C762.476 73.7401 758.664 70.1446 754.12 69.7653C721.742 67.0634 694.365 41.1009 689.112 7.77613C688.429 3.44753 684.864 0 680.482 0Z" fill="black" fill-opacity="0.56"/>
<path opacity="0.03" fill-rule="evenodd" clip-rule="evenodd" d="M362.482 0C358.1 0 354.535 3.44754 353.853 7.77613C348.6 41.1009 321.223 67.0634 288.845 69.7653C284.301 70.1446 280.489 73.7401 280.489 78.3003V95.1682C242.233 97.7439 212 129.591 212 168.5C212 207.409 242.233 239.256 280.489 241.832V258.688C280.489 263.254 284.306 266.855 288.857 267.236C320.489 269.883 347.465 294.737 353.499 327.12C354.32 331.53 357.997 335 362.482 335C366.968 335 370.644 331.53 371.466 327.12C377.5 294.737 404.475 269.883 436.108 267.236C440.658 266.855 444.476 263.254 444.476 258.688V241.761C482.274 238.719 512 207.081 512 168.5C512 129.919 482.274 98.2808 444.476 95.2394V78.3002C444.476 73.7401 440.664 70.1446 436.12 69.7653C403.742 67.0634 376.365 41.1009 371.112 7.77613C370.429 3.44753 366.864 0 362.482 0Z" fill="black" fill-opacity="0.56"/>
<path opacity="0.03" fill-rule="evenodd" clip-rule="evenodd" d="M44.4823 0C40.1003 0 36.5353 3.44754 35.8529 7.77613C30.5997 41.1009 3.22285 67.0634 -29.1549 69.7653C-33.6992 70.1446 -37.5113 73.7401 -37.5113 78.3003V95.1682C-75.767 97.7439 -106 129.591 -106 168.5C-106 207.409 -75.767 239.256 -37.5113 241.832V258.688C-37.5113 263.254 -33.6938 266.855 -29.143 267.236C2.48946 269.883 29.4646 294.737 35.4986 327.12C36.3202 331.53 39.9967 335 44.4823 335C48.9679 335 52.6444 331.53 53.4661 327.12C59.5001 294.737 86.4752 269.883 118.108 267.236C122.658 266.855 126.476 263.254 126.476 258.688V241.761C164.274 238.719 194 207.081 194 168.5C194 129.919 164.274 98.2808 126.476 95.2394V78.3002C126.476 73.7401 122.664 70.1446 118.12 69.7653C85.7418 67.0634 58.3649 41.1009 53.1117 7.77613C52.4294 3.44753 48.8644 0 44.4823 0Z" fill="black" fill-opacity="0.56"/>
<path opacity="0.03" fill-rule="evenodd" clip-rule="evenodd" d="M1330.48 0C1326.1 0 1322.54 3.44754 1321.85 7.77613C1316.6 41.1009 1289.22 67.0634 1256.85 69.7653C1252.3 70.1446 1248.49 73.7401 1248.49 78.3003V95.1682C1210.23 97.7439 1180 129.591 1180 168.5C1180 207.409 1210.23 239.256 1248.49 241.832V258.688C1248.49 263.254 1252.31 266.855 1256.86 267.236C1288.49 269.883 1315.46 294.737 1321.5 327.12C1322.32 331.53 1326 335 1330.48 335C1334.97 335 1338.64 331.53 1339.47 327.12C1345.5 294.737 1372.48 269.883 1404.11 267.236C1408.66 266.855 1412.48 263.254 1412.48 258.688V241.761C1450.27 238.719 1480 207.081 1480 168.5C1480 129.919 1450.27 98.2808 1412.48 95.2394V78.3002C1412.48 73.7401 1408.66 70.1446 1404.12 69.7653C1371.74 67.0634 1344.36 41.1009 1339.11 7.77613C1338.43 3.44753 1334.86 0 1330.48 0Z" fill="black" fill-opacity="0.56"/>
</svg>
