<svg width="16" height="16" viewBox="0 0 16 16" fill="none" xmlns="http://www.w3.org/2000/svg">
<g id="Icon">
<mask id="mask0_3947_1116" style="mask-type:alpha" maskUnits="userSpaceOnUse" x="0" y="0" width="16" height="16">
<rect id="Bounding box" width="16" height="16" fill="#D9D9D9"/>
</mask>
<g mask="url(#mask0_3947_1116)">
<path id="stadia_controller" d="M3.14995 13.3332C2.48328 13.3332 1.91384 13.0943 1.44162 12.6165C0.969396 12.1387 0.722173 11.5609 0.699951 10.8832C0.699951 10.7832 0.705507 10.6832 0.716618 10.5832C0.727729 10.4832 0.744396 10.3832 0.766618 10.2832L2.16662 4.68317C2.32217 4.08317 2.63884 3.59706 3.11662 3.22484C3.5944 2.85262 4.13884 2.6665 4.74995 2.6665H11.25C11.8611 2.6665 12.4055 2.85262 12.8833 3.22484C13.3611 3.59706 13.6777 4.08317 13.8333 4.68317L15.2333 10.2832C15.2555 10.3832 15.275 10.4859 15.2916 10.5915C15.3083 10.6971 15.3166 10.7998 15.3166 10.8998C15.3166 11.5776 15.075 12.1526 14.5916 12.6248C14.1083 13.0971 13.5277 13.3332 12.85 13.3332C12.3833 13.3332 11.95 13.2109 11.55 12.9665C11.15 12.7221 10.85 12.3887 10.65 11.9665L10.1833 10.9998C10.1277 10.8887 10.0444 10.8054 9.93329 10.7498C9.82218 10.6943 9.70551 10.6665 9.58329 10.6665H6.41662C6.2944 10.6665 6.17773 10.6943 6.06662 10.7498C5.95551 10.8054 5.87217 10.8887 5.81662 10.9998L5.34995 11.9665C5.14995 12.3887 4.84995 12.7221 4.44995 12.9665C4.04995 13.2109 3.61662 13.3332 3.14995 13.3332ZM3.19995 11.9998C3.41106 11.9998 3.60273 11.9443 3.77495 11.8332C3.94717 11.7221 4.07773 11.5721 4.16662 11.3832L4.63329 10.4332C4.79995 10.0887 5.0444 9.81928 5.36662 9.62484C5.68884 9.43039 6.03884 9.33317 6.41662 9.33317H9.58329C9.96106 9.33317 10.3111 9.43317 10.6333 9.63317C10.9555 9.83317 11.2055 10.0998 11.3833 10.4332L11.85 11.3832C11.9388 11.5721 12.0694 11.7221 12.2416 11.8332C12.4138 11.9443 12.6055 11.9998 12.8166 11.9998C13.1277 11.9998 13.3944 11.8971 13.6166 11.6915C13.8388 11.4859 13.9555 11.2276 13.9666 10.9165C13.9666 10.9276 13.9555 10.8221 13.9333 10.5998L12.5333 5.0165C12.4555 4.7165 12.3 4.47206 12.0666 4.28317C11.8333 4.09428 11.5611 3.99984 11.25 3.99984H4.74995C4.43884 3.99984 4.16384 4.09428 3.92495 4.28317C3.68606 4.47206 3.53328 4.7165 3.46662 5.0165L2.06662 10.5998C2.0444 10.6665 2.03328 10.7665 2.03328 10.8998C2.03328 11.2109 2.14717 11.4721 2.37495 11.6832C2.60273 11.8943 2.87773 11.9998 3.19995 11.9998ZM8.99995 7.33317C9.18884 7.33317 9.34717 7.26928 9.47495 7.1415C9.60273 7.01373 9.66662 6.85539 9.66662 6.6665C9.66662 6.47762 9.60273 6.31928 9.47495 6.1915C9.34717 6.06373 9.18884 5.99984 8.99995 5.99984C8.81106 5.99984 8.65273 6.06373 8.52495 6.1915C8.39717 6.31928 8.33329 6.47762 8.33329 6.6665C8.33329 6.85539 8.39717 7.01373 8.52495 7.1415C8.65273 7.26928 8.81106 7.33317 8.99995 7.33317ZM10.3333 5.99984C10.5222 5.99984 10.6805 5.93595 10.8083 5.80817C10.9361 5.68039 11 5.52206 11 5.33317C11 5.14428 10.9361 4.98595 10.8083 4.85817C10.6805 4.73039 10.5222 4.6665 10.3333 4.6665C10.1444 4.6665 9.98606 4.73039 9.85829 4.85817C9.73051 4.98595 9.66662 5.14428 9.66662 5.33317C9.66662 5.52206 9.73051 5.68039 9.85829 5.80817C9.98606 5.93595 10.1444 5.99984 10.3333 5.99984ZM10.3333 8.6665C10.5222 8.6665 10.6805 8.60262 10.8083 8.47484C10.9361 8.34706 11 8.18873 11 7.99984C11 7.81095 10.9361 7.65262 10.8083 7.52484C10.6805 7.39706 10.5222 7.33317 10.3333 7.33317C10.1444 7.33317 9.98606 7.39706 9.85829 7.52484C9.73051 7.65262 9.66662 7.81095 9.66662 7.99984C9.66662 8.18873 9.73051 8.34706 9.85829 8.47484C9.98606 8.60262 10.1444 8.6665 10.3333 8.6665ZM11.6666 7.33317C11.8555 7.33317 12.0138 7.26928 12.1416 7.1415C12.2694 7.01373 12.3333 6.85539 12.3333 6.6665C12.3333 6.47762 12.2694 6.31928 12.1416 6.1915C12.0138 6.06373 11.8555 5.99984 11.6666 5.99984C11.4777 5.99984 11.3194 6.06373 11.1916 6.1915C11.0638 6.31928 11 6.47762 11 6.6665C11 6.85539 11.0638 7.01373 11.1916 7.1415C11.3194 7.26928 11.4777 7.33317 11.6666 7.33317ZM5.66662 8.33317C5.81106 8.33317 5.93051 8.28595 6.02495 8.1915C6.1194 8.09706 6.16662 7.97762 6.16662 7.83317V7.1665H6.83329C6.97773 7.1665 7.09717 7.11928 7.19162 7.02484C7.28606 6.93039 7.33329 6.81095 7.33329 6.6665C7.33329 6.52206 7.28606 6.40262 7.19162 6.30817C7.09717 6.21373 6.97773 6.1665 6.83329 6.1665H6.16662V5.49984C6.16662 5.35539 6.1194 5.23595 6.02495 5.1415C5.93051 5.04706 5.81106 4.99984 5.66662 4.99984C5.52217 4.99984 5.40273 5.04706 5.30828 5.1415C5.21384 5.23595 5.16662 5.35539 5.16662 5.49984V6.1665H4.49995C4.35551 6.1665 4.23606 6.21373 4.14162 6.30817C4.04717 6.40262 3.99995 6.52206 3.99995 6.6665C3.99995 6.81095 4.04717 6.93039 4.14162 7.02484C4.23606 7.11928 4.35551 7.1665 4.49995 7.1665H5.16662V7.83317C5.16662 7.97762 5.21384 8.09706 5.30828 8.1915C5.40273 8.28595 5.52217 8.33317 5.66662 8.33317Z" fill="white"/>
</g>
</g>
</svg>
