<svg width="16" height="16" viewBox="0 0 16 16" fill="none" xmlns="http://www.w3.org/2000/svg">
<g id="Icon">
<mask id="mask0_2191_3355" style="mask-type:alpha" maskUnits="userSpaceOnUse" x="0" y="0" width="16" height="16">
<rect id="Bounding box" width="16" height="16" fill="black"/>
</mask>
<g mask="url(#mask0_2191_3355)">
<g id="palette">
<mask id="mask1_2191_3355" style="mask-type:alpha" maskUnits="userSpaceOnUse" x="-2" y="-2" width="20" height="20">
<rect id="Bounding box_2" x="2.03418" y="-2" width="16" height="16" transform="rotate(14.6043 2.03418 -2)" fill="#D9D9D9"/>
</mask>
<g mask="url(#mask1_2191_3355)">
<path id="palette_2" d="M6.07759 14.2099C5.19592 13.9802 4.40675 13.5937 3.7101 13.0505C3.01344 12.5073 2.44846 11.8664 2.01516 11.1277C1.58185 10.389 1.29811 9.58313 1.16394 8.70997C1.02976 7.83682 1.07753 6.95941 1.30726 6.07773C1.53979 5.18531 1.93304 4.39217 2.487 3.69832C3.04095 3.00446 3.69195 2.44497 4.43997 2.01984C5.188 1.59472 6.00397 1.31647 6.88787 1.18509C7.77178 1.05372 8.66532 1.10569 9.5685 1.34103C10.4287 1.56515 11.2019 1.92451 11.8883 2.41911C12.5746 2.9137 13.1375 3.49668 13.5769 4.16804C14.0162 4.8394 14.3121 5.57672 14.4645 6.37998C14.6169 7.18325 14.5852 7.99883 14.3695 8.82675C14.0473 10.0632 13.4237 10.9141 12.4988 11.3792C11.5739 11.8444 10.5738 11.9368 9.49857 11.6567L8.30508 11.3457C8.20832 11.3205 8.13411 11.3299 8.08247 11.3738C8.03083 11.4178 7.9966 11.472 7.9798 11.5365C7.94618 11.6656 7.97849 11.872 8.07674 12.156C8.17498 12.4399 8.18348 12.7378 8.10224 13.0496C7.96216 13.5872 7.71066 13.9465 7.34774 14.1275C6.98482 14.3085 6.56143 14.336 6.07759 14.2099ZM4.04224 7.47928C4.32179 7.55213 4.57678 7.52097 4.80719 7.38581C5.0376 7.25065 5.18923 7.04329 5.26207 6.76374C5.33491 6.48418 5.30375 6.2292 5.16859 5.99878C5.03343 5.76837 4.82608 5.61674 4.54652 5.5439C4.26697 5.47106 4.01198 5.50222 3.78157 5.63738C3.55116 5.77254 3.39953 5.9799 3.32669 6.25945C3.25385 6.53901 3.28501 6.79399 3.42017 7.0244C3.55533 7.25482 3.76268 7.40644 4.04224 7.47928ZM6.65 5.40306C6.92955 5.4759 7.18454 5.44474 7.41495 5.30958C7.64536 5.17442 7.79699 4.96707 7.86983 4.68751C7.94267 4.40796 7.91151 4.15297 7.77635 3.92256C7.64119 3.69215 7.43383 3.54052 7.15428 3.46768C6.87472 3.39484 6.61974 3.426 6.38933 3.56116C6.15892 3.69632 6.00729 3.90367 5.93445 4.18323C5.86161 4.46278 5.89277 4.71777 6.02793 4.94818C6.16308 5.17859 6.37044 5.33022 6.65 5.40306ZM9.87563 6.24353C10.1552 6.31637 10.4102 6.28521 10.6406 6.15005C10.871 6.01489 11.0226 5.80754 11.0955 5.52798C11.1683 5.24843 11.1371 4.99344 11.002 4.76303C10.8668 4.53262 10.6595 4.38099 10.3799 4.30815C10.1004 4.23531 9.84538 4.26647 9.61496 4.40163C9.38455 4.53679 9.23292 4.74414 9.16008 5.0237C9.08724 5.30325 9.1184 5.55824 9.25356 5.78865C9.38872 6.01906 9.59608 6.17069 9.87563 6.24353ZM11.1386 9.32832C11.4182 9.40116 11.6732 9.37 11.9036 9.23484C12.134 9.09968 12.2856 8.89233 12.3585 8.61277C12.4313 8.33322 12.4001 8.07823 12.265 7.84782C12.1298 7.61741 11.9225 7.46578 11.6429 7.39294C11.3634 7.3201 11.1084 7.35126 10.878 7.48642C10.6476 7.62158 10.4959 7.82893 10.4231 8.10849C10.3502 8.38804 10.3814 8.64303 10.5166 8.87344C10.6517 9.10385 10.8591 9.25548 11.1386 9.32832ZM6.41378 12.9197C6.51055 12.9449 6.5955 12.9383 6.66865 12.9C6.74179 12.8616 6.78957 12.7994 6.81198 12.7134C6.85121 12.5629 6.81679 12.3645 6.70874 12.1182C6.60069 11.8719 6.59989 11.5444 6.70635 11.1358C6.82402 10.6842 7.07378 10.3647 7.45563 10.1771C7.83748 9.98955 8.2542 9.9546 8.70578 10.0723L9.83476 10.3664C10.5444 10.5513 11.2058 10.5026 11.819 10.2204C12.4322 9.93808 12.8523 9.36148 13.0792 8.49056C13.4182 7.18955 13.2032 5.97671 12.4342 4.85201C11.6651 3.72732 10.5978 2.98708 9.23231 2.63128C7.77002 2.25027 6.3925 2.42526 5.09976 3.15625C3.80701 3.88725 2.97293 4.97314 2.59752 6.41392C2.22491 7.84395 2.41029 9.1926 3.15367 10.4599C3.89704 11.7271 4.98375 12.5471 6.41378 12.9197Z" fill="white"/>
</g>
</g>
</g>
</g>
</svg>
