<svg width="16" height="16" viewBox="0 0 16 16" fill="none" xmlns="http://www.w3.org/2000/svg">
<g id="Icon">
<mask id="mask0_2191_3078" style="mask-type:alpha" maskUnits="userSpaceOnUse" x="0" y="0" width="16" height="16">
<rect id="Bounding box" width="16" height="16" fill="#D9D9D9"/>
</mask>
<g mask="url(#mask0_2191_3078)">
<path id="spa" d="M8 14.6667C7.18889 14.5667 6.38334 14.3473 5.58334 14.0084C4.78334 13.6695 4.06945 13.1834 3.44167 12.55C2.81389 11.9167 2.30556 11.1167 1.91667 10.15C1.52778 9.18337 1.33334 8.02226 1.33334 6.66671V6.00004H2C2.56667 6.00004 3.15 6.07226 3.75 6.21671C4.35 6.36115 4.91111 6.57782 5.43334 6.86671C5.56667 5.91115 5.86945 4.9306 6.34167 3.92504C6.81389 2.91949 7.36667 2.0556 8 1.33337C8.63334 2.0556 9.18611 2.91949 9.65834 3.92504C10.1306 4.9306 10.4333 5.91115 10.5667 6.86671C11.0889 6.57782 11.65 6.36115 12.25 6.21671C12.85 6.07226 13.4333 6.00004 14 6.00004H14.6667V6.66671C14.6667 8.02226 14.4722 9.18337 14.0833 10.15C13.6944 11.1167 13.1861 11.9167 12.5583 12.55C11.9306 13.1834 11.2194 13.6695 10.425 14.0084C9.63056 14.3473 8.82222 14.5667 8 14.6667ZM7.96667 13.3C7.84445 11.4556 7.29722 10.0612 6.325 9.11671C5.35278 8.17226 4.14445 7.58893 2.7 7.36671C2.82222 9.26671 3.38611 10.6834 4.39167 11.6167C5.39722 12.55 6.58889 13.1112 7.96667 13.3ZM8 9.06671C8.16667 8.82226 8.36945 8.56949 8.60834 8.30837C8.84722 8.04726 9.07778 7.82226 9.3 7.63337C9.27778 7.00004 9.15278 6.33893 8.925 5.65004C8.69722 4.96115 8.38889 4.28893 8 3.63337C7.61111 4.28893 7.30278 4.96115 7.075 5.65004C6.84722 6.33893 6.72222 7.00004 6.7 7.63337C6.92222 7.82226 7.15556 8.04726 7.4 8.30837C7.64445 8.56949 7.84445 8.82226 8 9.06671ZM9.3 13C9.71111 12.8667 10.1389 12.6723 10.5833 12.4167C11.0278 12.1612 11.4417 11.8139 11.825 11.375C12.2083 10.9362 12.5361 10.3889 12.8083 9.73337C13.0806 9.07782 13.2444 8.28893 13.3 7.36671C12.2556 7.52226 11.3389 7.86948 10.55 8.40837C9.76111 8.94726 9.15556 9.63337 8.73334 10.4667C8.86667 10.8223 8.98056 11.2112 9.075 11.6334C9.16945 12.0556 9.24445 12.5112 9.3 13Z" fill="white"/>
</g>
</g>
</svg>
