<svg width="92" height="94" viewBox="0 0 92 94" fill="none" xmlns="http://www.w3.org/2000/svg">
<g id="Group">
<path id="vector" d="M25.0901 24.8137L14.3487 17.9314C14.1322 17.7986 13.9485 17.6186 13.8116 17.4047C13.6746 17.1908 13.5878 16.9487 13.5579 16.6964C13.5279 16.4442 13.5555 16.1885 13.6385 15.9485C13.7215 15.7085 13.8579 15.4904 14.0373 15.3106L18.071 11.2769C18.8458 10.502 20.1524 10.6691 20.707 11.6187L27.4222 22.5348C28.3034 24.0389 26.579 25.7253 25.0901 24.8137ZM15.7009 57.9191L3.22751 58.1698C2.97389 58.1753 2.7248 58.2382 2.49897 58.3537C2.27313 58.4693 2.07643 58.6346 1.92363 58.8371C1.77084 59.0396 1.66592 59.2741 1.61677 59.523C1.56762 59.7719 1.57551 60.0286 1.63985 60.274L3.09078 65.7891C3.37185 66.8526 4.57968 67.3615 5.53684 66.8298L16.5593 61.0641C18.0786 60.2057 17.4481 57.8811 15.7009 57.9191ZM44.6738 79.1056L41.9391 91.2524C41.6884 92.3083 42.486 93.3262 43.5723 93.3262H49.2773C50.3787 93.3262 51.1764 92.2855 50.9029 91.222L47.9327 79.0753C47.4921 77.3812 45.084 77.404 44.6738 79.1056ZM66.9314 24.8137L77.6728 17.9314C78.5996 17.3616 78.7515 16.0778 77.9843 15.3106L73.9506 11.2769C73.7687 11.0958 73.5478 10.9587 73.3048 10.8763C73.0618 10.7938 72.8032 10.7681 72.5487 10.8011C72.2942 10.8341 72.0507 10.9249 71.8367 11.0667C71.6228 11.2084 71.4442 11.3972 71.3146 11.6187L64.5993 22.5348C63.7181 24.0389 65.4425 25.7253 66.9314 24.8137ZM76.3206 57.9191L88.794 58.1698C89.0477 58.1753 89.2967 58.2382 89.5226 58.3537C89.7484 58.4693 89.9451 58.6346 90.0979 58.8371C90.2507 59.0396 90.3556 59.2741 90.4048 59.523C90.4539 59.7719 90.446 60.0286 90.3817 60.274L88.9308 65.7891C88.8651 66.0369 88.7437 66.2665 88.5758 66.4603C88.408 66.6541 88.1981 66.807 87.9622 66.9074C87.7262 67.0078 87.4705 67.053 87.2145 67.0395C86.9584 67.0261 86.7088 66.9543 86.4847 66.8298L75.4622 61.0641C73.943 60.2057 74.5735 57.8811 76.3206 57.9191Z" fill="#FFC107"/>
<path id="vector_2" d="M49.0877 2.34321L59.3125 25.6643C59.6971 26.542 60.3103 27.3004 61.0879 27.8602C61.8656 28.4201 62.7793 28.761 63.7337 28.8473L88.6425 31.0806C91.4607 31.4908 92.585 34.9472 90.5416 36.9375L71.7783 52.7001C70.259 53.9763 69.5677 55.9818 69.9855 57.9189L75.4398 83.4506C75.9184 86.2537 72.9786 88.3959 70.4565 87.0665L48.7155 74.3349C47.8955 73.8536 46.9619 73.5998 46.0111 73.5998C45.0603 73.5998 44.1268 73.8536 43.3068 74.3349L21.5657 87.0589C19.0513 88.3807 16.1039 86.2461 16.5824 83.443L22.0367 57.9113C22.4469 55.9742 21.7632 53.9687 20.2439 52.6925L1.47308 36.9451C-0.56277 34.9624 0.561506 31.4984 3.3722 31.0882L28.281 28.8549C29.2353 28.7686 30.149 28.4277 30.9267 27.8678C31.7044 27.308 32.3175 26.5496 32.7021 25.6719L42.927 2.35081C44.1956 -0.201605 47.8267 -0.201605 49.0877 2.34321Z" fill="#FFE24F"/>
<path id="vector_3" d="M48.3454 27.0605L46.6134 9.87729C46.545 8.92013 46.3475 7.2793 47.882 7.2793C49.0974 7.2793 49.7583 9.80892 49.7583 9.80892L54.9543 23.6041C56.9142 28.8532 56.109 30.6536 54.2175 31.7171C52.0449 32.9325 48.8392 31.983 48.3454 27.0605Z" fill="#FFFF8D"/>
<path id="vector_4" d="M69.7744 51.1731L84.6787 39.5429C85.4155 38.9276 86.7449 37.9477 85.6814 36.831C84.8382 35.9498 82.5592 37.2184 82.5592 37.2184L69.5161 42.3156C65.6267 43.6602 63.0439 45.6505 62.8161 48.1573C62.5198 51.4997 65.5204 54.0749 69.7744 51.1731Z" fill="#F4B400"/>
</g>
</svg>
