<svg width="16" height="16" viewBox="0 0 16 16" fill="none" xmlns="http://www.w3.org/2000/svg">
<g id="Icon">
<mask id="mask0_2191_192" style="mask-type:alpha" maskUnits="userSpaceOnUse" x="0" y="0" width="16" height="16">
<rect id="Bounding box" width="16" height="16" fill="#D9D9D9"/>
</mask>
<g mask="url(#mask0_2191_192)">
<path id="community" d="M0.666664 13.3333V10.6666C0.666664 10.2888 0.79722 9.97218 1.05833 9.71663C1.31944 9.46107 1.63333 9.33329 2 9.33329H4.18333C4.40555 9.33329 4.61666 9.38885 4.81666 9.49996C5.01666 9.61107 5.17778 9.76107 5.3 9.94996C5.62222 10.3833 6.01944 10.7222 6.49166 10.9666C6.96389 11.2111 7.46666 11.3333 8 11.3333C8.54444 11.3333 9.05278 11.2111 9.525 10.9666C9.99722 10.7222 10.3889 10.3833 10.7 9.94996C10.8444 9.76107 11.0139 9.61107 11.2083 9.49996C11.4028 9.38885 11.6056 9.33329 11.8167 9.33329H14C14.3778 9.33329 14.6944 9.46107 14.95 9.71663C15.2056 9.97218 15.3333 10.2888 15.3333 10.6666V13.3333H10.6667V11.8166C10.2778 12.0944 9.85833 12.3055 9.40833 12.45C8.95833 12.5944 8.48889 12.6666 8 12.6666C7.52222 12.6666 7.05555 12.5916 6.6 12.4416C6.14444 12.2916 5.72222 12.0777 5.33333 11.8V13.3333H0.666664ZM8 10.6666C7.57778 10.6666 7.17778 10.5694 6.8 10.375C6.42222 10.1805 6.10555 9.91107 5.85 9.56663C5.66111 9.28885 5.425 9.0694 5.14166 8.90829C4.85833 8.74718 4.55 8.66663 4.21666 8.66663C4.46111 8.25552 4.97778 7.93051 5.76666 7.69163C6.55555 7.45274 7.3 7.33329 8 7.33329C8.7 7.33329 9.44444 7.45274 10.2333 7.69163C11.0222 7.93051 11.5389 8.25552 11.7833 8.66663C11.4611 8.66663 11.1556 8.74718 10.8667 8.90829C10.5778 9.0694 10.3389 9.28885 10.15 9.56663C9.90555 9.92218 9.59444 10.1944 9.21666 10.3833C8.83889 10.5722 8.43333 10.6666 8 10.6666ZM2.66666 8.66663C2.11111 8.66663 1.63889 8.47218 1.25 8.08329C0.861109 7.6944 0.666664 7.22218 0.666664 6.66663C0.666664 6.09996 0.861109 5.62496 1.25 5.24163C1.63889 4.85829 2.11111 4.66663 2.66666 4.66663C3.23333 4.66663 3.70833 4.85829 4.09166 5.24163C4.475 5.62496 4.66666 6.09996 4.66666 6.66663C4.66666 7.22218 4.475 7.6944 4.09166 8.08329C3.70833 8.47218 3.23333 8.66663 2.66666 8.66663ZM13.3333 8.66663C12.7778 8.66663 12.3056 8.47218 11.9167 8.08329C11.5278 7.6944 11.3333 7.22218 11.3333 6.66663C11.3333 6.09996 11.5278 5.62496 11.9167 5.24163C12.3056 4.85829 12.7778 4.66663 13.3333 4.66663C13.9 4.66663 14.375 4.85829 14.7583 5.24163C15.1417 5.62496 15.3333 6.09996 15.3333 6.66663C15.3333 7.22218 15.1417 7.6944 14.7583 8.08329C14.375 8.47218 13.9 8.66663 13.3333 8.66663ZM8 6.66663C7.44444 6.66663 6.97222 6.47218 6.58333 6.08329C6.19444 5.6944 6 5.22218 6 4.66663C6 4.09996 6.19444 3.62496 6.58333 3.24163C6.97222 2.85829 7.44444 2.66663 8 2.66663C8.56666 2.66663 9.04166 2.85829 9.425 3.24163C9.80833 3.62496 10 4.09996 10 4.66663C10 5.22218 9.80833 5.6944 9.425 6.08329C9.04166 6.47218 8.56666 6.66663 8 6.66663Z" fill="white"/>
</g>
</g>
</svg>
