<svg width="16" height="16" viewBox="0 0 16 16" fill="none" xmlns="http://www.w3.org/2000/svg">
<g id="Icon">
<mask id="mask0_2038_3304" style="mask-type:alpha" maskUnits="userSpaceOnUse" x="0" y="0" width="16" height="16">
<rect id="Bounding box" width="16" height="16" fill="#D9D9D9"/>
</mask>
<g mask="url(#mask0_2038_3304)">
<path id="Book" d="M4.33332 10.6665C4.85555 10.6665 5.36388 10.7248 5.85832 10.8415C6.35277 10.9582 6.84443 11.1332 7.33332 11.3665V4.79984C6.87777 4.53317 6.39443 4.33317 5.88332 4.19984C5.37221 4.0665 4.85555 3.99984 4.33332 3.99984C3.93332 3.99984 3.5361 4.03873 3.14166 4.1165C2.74721 4.19428 2.36666 4.31095 1.99999 4.4665V11.0665C2.38888 10.9332 2.77499 10.8332 3.15832 10.7665C3.54166 10.6998 3.93332 10.6665 4.33332 10.6665ZM8.66666 11.3665C9.15555 11.1332 9.64721 10.9582 10.1417 10.8415C10.6361 10.7248 11.1444 10.6665 11.6667 10.6665C12.0667 10.6665 12.4583 10.6998 12.8417 10.7665C13.225 10.8332 13.6111 10.9332 14 11.0665V4.4665C13.6333 4.31095 13.2528 4.19428 12.8583 4.1165C12.4639 4.03873 12.0667 3.99984 11.6667 3.99984C11.1444 3.99984 10.6278 4.0665 10.1167 4.19984C9.60555 4.33317 9.12221 4.53317 8.66666 4.79984V11.3665ZM7.99999 13.3332C7.46666 12.9109 6.88888 12.5832 6.26666 12.3498C5.64443 12.1165 4.99999 11.9998 4.33332 11.9998C3.86666 11.9998 3.40832 12.0609 2.95832 12.1832C2.50832 12.3054 2.07777 12.4776 1.66666 12.6998C1.43332 12.8221 1.20832 12.8165 0.991657 12.6832C0.77499 12.5498 0.666656 12.3554 0.666656 12.0998V4.0665C0.666656 3.94428 0.697212 3.82762 0.758323 3.7165C0.819434 3.60539 0.911101 3.52206 1.03332 3.4665C1.54443 3.19984 2.07777 2.99984 2.63332 2.8665C3.18888 2.73317 3.75555 2.6665 4.33332 2.6665C4.97777 2.6665 5.60832 2.74984 6.22499 2.9165C6.84166 3.08317 7.43332 3.33317 7.99999 3.6665C8.56666 3.33317 9.15832 3.08317 9.77499 2.9165C10.3917 2.74984 11.0222 2.6665 11.6667 2.6665C12.2444 2.6665 12.8111 2.73317 13.3667 2.8665C13.9222 2.99984 14.4555 3.19984 14.9667 3.4665C15.0889 3.52206 15.1805 3.60539 15.2417 3.7165C15.3028 3.82762 15.3333 3.94428 15.3333 4.0665V12.0998C15.3333 12.3554 15.225 12.5498 15.0083 12.6832C14.7917 12.8165 14.5667 12.8221 14.3333 12.6998C13.9222 12.4776 13.4917 12.3054 13.0417 12.1832C12.5917 12.0609 12.1333 11.9998 11.6667 11.9998C11 11.9998 10.3555 12.1165 9.73332 12.3498C9.1111 12.5832 8.53332 12.9109 7.99999 13.3332Z" fill="white"/>
</g>
</g>
</svg>
