<svg width="10" height="9.5" viewBox="0 0 18 18" fill="none" xmlns="http://www.w3.org/2000/svg">
<g id="Iconly/Bold/Star">
<g id="Star">
<path id="star" d="M13.4389 10.7401C13.2446 10.9284 13.1554 11.2006 13.1996 11.4676L13.8664 15.1576C13.9226 15.4704 13.7906 15.7869 13.5289 15.9676C13.2724 16.1551 12.9311 16.1776 12.6514 16.0276L9.32963 14.2951C9.21413 14.2336 9.08588 14.2006 8.95463 14.1969H8.75138C8.68088 14.2074 8.61188 14.2299 8.54888 14.2644L5.22638 16.0051C5.06213 16.0876 4.87613 16.1169 4.69388 16.0876C4.24988 16.0036 3.95363 15.5806 4.02638 15.1344L4.69388 11.4444C4.73813 11.1751 4.64888 10.9014 4.45463 10.7101L1.74638 8.08512C1.51988 7.86537 1.44113 7.53537 1.54463 7.23762C1.64513 6.94062 1.90163 6.72387 2.21138 6.67512L5.93888 6.13437C6.22238 6.10512 6.47138 5.93262 6.59888 5.67762L8.24138 2.31012C8.28038 2.23512 8.33063 2.16612 8.39138 2.10762L8.45888 2.05512C8.49413 2.01612 8.53463 1.98387 8.57963 1.95762L8.66138 1.92762L8.78888 1.87512H9.10463C9.38663 1.90437 9.63488 2.07312 9.76463 2.32512L11.4289 5.67762C11.5489 5.92287 11.7821 6.09312 12.0514 6.13437L15.7789 6.67512C16.0939 6.72012 16.3571 6.93762 16.4614 7.23762C16.5596 7.53837 16.4749 7.86837 16.2439 8.08512L13.4389 10.7401Z" fill="white"/>
</g>
</g>
</svg>
