<svg width="56" height="56" viewBox="0 0 56 56" fill="none" xmlns="http://www.w3.org/2000/svg">
<g id="Icon">
<mask id="mask0_1875_2360" style="mask-type:alpha" maskUnits="userSpaceOnUse" x="0" y="0" width="56" height="56">
<rect id="Bounding box" x="0.285706" y="0.285706" width="55.4286" height="55.4286" fill="#D9D9D9"/>
</mask>
<g mask="url(#mask0_1875_2360)">
<path id="science" d="M11.8337 48.7857C9.87065 48.7857 8.47531 47.91 7.64773 46.1586C6.82015 44.4072 7.02224 42.781 8.25398 41.2798L21.0718 25.6905V11.8333H18.7623C18.108 11.8333 17.5594 11.612 17.1168 11.1694C16.6741 10.7267 16.4528 10.1782 16.4528 9.52382C16.4528 8.86945 16.6741 8.32094 17.1168 7.87828C17.5594 7.43562 18.108 7.21429 18.7623 7.21429H37.2385C37.8929 7.21429 38.4414 7.43562 38.884 7.87828C39.3267 8.32094 39.548 8.86945 39.548 9.52382C39.548 10.1782 39.3267 10.7267 38.884 11.1694C38.4414 11.612 37.8929 11.8333 37.2385 11.8333H34.929V25.6905L47.7468 41.2798C48.9786 42.781 49.1807 44.4072 48.3531 46.1586C47.5255 47.91 46.1302 48.7857 44.1671 48.7857H11.8337ZM11.8337 44.1667H44.1671L30.3099 27.3071V11.8333H25.6909V27.3071L11.8337 44.1667Z" fill="white"/>
</g>
</g>
</svg>
